<svg viewBox="0 0 330 200" xmlns="http://www.w3.org/2000/svg"><g><g><g><g><g><line x1="40" y1="177" x2="35" y2="177" style="visibility: inherit;" fill="rgb(0, 0, 0)" stroke="rgb(204, 204, 204)" stroke-width="1px"></line><line x1="40" y1="154.875" x2="35" y2="154.875" style="visibility: inherit;" fill="rgb(0, 0, 0)" stroke="rgb(204, 204, 204)" stroke-width="1px"></line><line x1="40" y1="132.75" x2="35" y2="132.75" style="visibility: inherit;" fill="rgb(0, 0, 0)" stroke="rgb(204, 204, 204)" stroke-width="1px"></line><line x1="40" y1="110.625" x2="35" y2="110.625" style="visibility: inherit;" fill="rgb(0, 0, 0)" stroke="rgb(204, 204, 204)" stroke-width="1px"></line><line x1="40" y1="88.5" x2="35" y2="88.5" style="visibility: inherit;" fill="rgb(0, 0, 0)" stroke="rgb(204, 204, 204)" stroke-width="1px"></line><line x1="40" y1="66.375" x2="35" y2="66.375" style="visibility: inherit;" fill="rgb(0, 0, 0)" stroke="rgb(204, 204, 204)" stroke-width="1px"></line><line x1="40" y1="44.25" x2="35" y2="44.25" style="visibility: inherit;" fill="rgb(0, 0, 0)" stroke="rgb(204, 204, 204)" stroke-width="1px"></line><line x1="40" y1="22.125" x2="35" y2="22.125" style="visibility: inherit;" fill="rgb(0, 0, 0)" stroke="rgb(204, 204, 204)" stroke-width="1px"></line><line x1="40" y1="0" x2="35" y2="0" style="visibility: inherit;" fill="rgb(0, 0, 0)" stroke="rgb(204, 204, 204)" stroke-width="1px"></line></g><g transform="translate(30, 0)"><text x="0" y="177" dx="0em" dy="0.3em" style="text-anchor: end; visibility: hidden; font-family: Roboto, sans-serif; font-size: 12px; font-weight: 200;" fill="rgb(33, 33, 33)" stroke="none" stroke-width="1px">0</text><text x="0" y="154.875" dx="0em" dy="0.3em" style="text-anchor: end; visibility: inherit; font-family: Roboto, sans-serif; font-size: 12px; font-weight: 200;" fill="rgb(33, 33, 33)" stroke="none" stroke-width="1px">0.5</text><text x="0" y="132.75" dx="0em" dy="0.3em" style="text-anchor: end; visibility: hidden; font-family: Roboto, sans-serif; font-size: 12px; font-weight: 200;" fill="rgb(33, 33, 33)" stroke="none" stroke-width="1px">1</text><text x="0" y="110.625" dx="0em" dy="0.3em" style="text-anchor: end; visibility: inherit; font-family: Roboto, sans-serif; font-size: 12px; font-weight: 200;" fill="rgb(33, 33, 33)" stroke="none" stroke-width="1px">1.5</text><text x="0" y="88.5" dx="0em" dy="0.3em" style="text-anchor: end; visibility: hidden; font-family: Roboto, sans-serif; font-size: 12px; font-weight: 200;" fill="rgb(33, 33, 33)" stroke="none" stroke-width="1px">2</text><text x="0" y="66.375" dx="0em" dy="0.3em" style="text-anchor: end; visibility: inherit; font-family: Roboto, sans-serif; font-size: 12px; font-weight: 200;" fill="rgb(33, 33, 33)" stroke="none" stroke-width="1px">2.5</text><text x="0" y="44.25" dx="0em" dy="0.3em" style="text-anchor: end; visibility: hidden; font-family: Roboto, sans-serif; font-size: 12px; font-weight: 200;" fill="rgb(33, 33, 33)" stroke="none" stroke-width="1px">3</text><text x="0" y="22.125" dx="0em" dy="0.3em" style="text-anchor: end; visibility: inherit; font-family: Roboto, sans-serif; font-size: 12px; font-weight: 200;" fill="rgb(33, 33, 33)" stroke="none" stroke-width="1px">3.5</text><text x="0" y="0" dx="0em" dy="0.3em" style="text-anchor: end; visibility: hidden; font-family: Roboto, sans-serif; font-size: 12px; font-weight: 200;" fill="rgb(33, 33, 33)" stroke="none" stroke-width="1px">4</text></g><line x1="40" y1="0" x2="40" y2="177" fill="rgb(0, 0, 0)" stroke="rgb(204, 204, 204)" stroke-width="1px"></line></g></g><g transform="translate(40, 0)" clip-path="url(#clip_0)"><clipPath id="clip_0"><rect width="290" height="177"></rect></clipPath><g><g><g><line x1="0" y1="0" x2="0" y2="177" fill="rgb(0, 0, 0)" stroke="rgb(66, 66, 66)" stroke-width="1px" opacity="0.25"></line><line x1="24.166666666666664" y1="0" x2="24.166666666666664" y2="177" fill="rgb(0, 0, 0)" stroke="rgb(66, 66, 66)" stroke-width="1px" opacity="0.25"></line><line x1="48.33333333333333" y1="0" x2="48.33333333333333" y2="177" fill="rgb(0, 0, 0)" stroke="rgb(66, 66, 66)" stroke-width="1px" opacity="0.25"></line><line x1="72.5" y1="0" x2="72.5" y2="177" fill="rgb(0, 0, 0)" stroke="rgb(66, 66, 66)" stroke-width="1px" opacity="0.25"></line><line x1="96.66666666666666" y1="0" x2="96.66666666666666" y2="177" fill="rgb(0, 0, 0)" stroke="rgb(66, 66, 66)" stroke-width="1px" opacity="0.25"></line><line x1="120.83333333333334" y1="0" x2="120.83333333333334" y2="177" fill="rgb(0, 0, 0)" stroke="rgb(66, 66, 66)" stroke-width="1px" opacity="0.25"></line><line x1="145" y1="0" x2="145" y2="177" fill="rgb(0, 0, 0)" stroke="rgb(66, 66, 66)" stroke-width="1px" opacity="0.25"></line><line x1="169.16666666666669" y1="0" x2="169.16666666666669" y2="177" fill="rgb(0, 0, 0)" stroke="rgb(66, 66, 66)" stroke-width="1px" opacity="0.25"></line><line x1="193.33333333333331" y1="0" x2="193.33333333333331" y2="177" fill="rgb(0, 0, 0)" stroke="rgb(66, 66, 66)" stroke-width="1px" opacity="0.25"></line><line x1="217.5" y1="0" x2="217.5" y2="177" fill="rgb(0, 0, 0)" stroke="rgb(66, 66, 66)" stroke-width="1px" opacity="0.25"></line><line x1="241.66666666666669" y1="0" x2="241.66666666666669" y2="177" fill="rgb(0, 0, 0)" stroke="rgb(66, 66, 66)" stroke-width="1px" opacity="0.25"></line><line x1="265.8333333333333" y1="0" x2="265.8333333333333" y2="177" fill="rgb(0, 0, 0)" stroke="rgb(66, 66, 66)" stroke-width="1px" opacity="0.25"></line><line x1="290" y1="0" x2="290" y2="177" fill="rgb(0, 0, 0)" stroke="rgb(66, 66, 66)" stroke-width="1px" opacity="0.25"></line></g><g><line x1="0" y1="177" x2="290" y2="177" fill="rgb(0, 0, 0)" stroke="rgb(66, 66, 66)" stroke-width="1px" opacity="0.25"></line><line x1="0" y1="154.875" x2="290" y2="154.875" fill="rgb(0, 0, 0)" stroke="rgb(66, 66, 66)" stroke-width="1px" opacity="0.25"></line><line x1="0" y1="132.75" x2="290" y2="132.75" fill="rgb(0, 0, 0)" stroke="rgb(66, 66, 66)" stroke-width="1px" opacity="0.25"></line><line x1="0" y1="110.625" x2="290" y2="110.625" fill="rgb(0, 0, 0)" stroke="rgb(66, 66, 66)" stroke-width="1px" opacity="0.25"></line><line x1="0" y1="88.5" x2="290" y2="88.5" fill="rgb(0, 0, 0)" stroke="rgb(66, 66, 66)" stroke-width="1px" opacity="0.25"></line><line x1="0" y1="66.375" x2="290" y2="66.375" fill="rgb(0, 0, 0)" stroke="rgb(66, 66, 66)" stroke-width="1px" opacity="0.25"></line><line x1="0" y1="44.25" x2="290" y2="44.25" fill="rgb(0, 0, 0)" stroke="rgb(66, 66, 66)" stroke-width="1px" opacity="0.25"></line><line x1="0" y1="22.125" x2="290" y2="22.125" fill="rgb(0, 0, 0)" stroke="rgb(66, 66, 66)" stroke-width="1px" opacity="0.25"></line><line x1="0" y1="0" x2="290" y2="0" fill="rgb(0, 0, 0)" stroke="rgb(66, 66, 66)" stroke-width="1px" opacity="0.25"></line></g></g></g><g><g><line x1="0" y1="177" x2="290" y2="177" fill="rgb(0, 0, 0)" stroke="rgb(153, 153, 153)" stroke-width="1.5px"></line></g></g><g><g><line x1="24.166666666666664" y1="0" x2="24.166666666666664" y2="177" fill="rgb(0, 0, 0)" stroke="rgb(153, 153, 153)" stroke-width="1.5px"></line></g></g><g><g><g><g><g><path stroke="rgb(0, 119, 187)" stroke-width="2px" d="M26.583333333333332,28.839941382408142L26.583333333333332,33.78459067528059L26.583333333333332,39.94990468369987L26.583333333333332,49.714305079346005L26.583333333333332,56.05923200909797L26.583333333333332,60.65042377703788L26.583333333333332,64.0640432007594L29,73.8575798507705L29,81.3211403754525L29,87.39123845074084L29,92.42445538822649L29,96.72243511016583L29,100.30607765558842L29,103.31513798182512L29,105.94158711937816L29,108.21706475129886L31.416666666666668,110.65476534887169L31.416666666666668,112.78641128309523L31.416666666666668,114.69907034289183L31.416666666666668,116.39984933117422L31.416666666666668,117.82938518573975L31.416666666666668,119.00227777960976L31.416666666666668,120.0128953849823L31.416666666666668,120.89661364829709L33.833333333333336,121.86155453712676L33.833333333333336,122.6063944059042L33.833333333333336,123.30077128182512L33.833333333333336,123.96916572425927L33.833333333333336,124.65103041918488L33.833333333333336,125.28691621901697L33.833333333333336,125.89599741820987L33.833333333333336,126.4579873449703L36.25,126.76780779616769L36.25,126.91753081167703L36.25,127.06620549534757L36.25,127.27948314961594L36.25,127.57362311593181L36.25,127.85730536118156L36.25,128.16768986329825L36.25,128.47334411536758L36.25,128.7683250917269L38.666666666666664,129.29588892622664L38.666666666666664,129.8246833086061L38.666666666666664,130.27186277770647L38.666666666666664,130.68095303572588L38.666666666666664,131.06503772508523L38.666666666666664,131.43252149604885L38.666666666666664,131.7640147746732L38.666666666666664,132.0617547862779L38.666666666666664,132.33671542065576L41.083333333333336,132.44272077998818L41.083333333333336,132.57991858219256L41.083333333333336,132.71582346924677L41.083333333333336,132.86382819910915L41.083333333333336,133.01690422928635L41.083333333333336,133.17139838616365L41.083333333333336,133.32827998312644L41.083333333333336,133.47745390561423L43.5,133.69058830532057L43.5,133.86538346957767L43.5,134.07177957977936L43.5,134.26095797003157L43.5,134.44262016486428L43.5,134.6444712133841L43.5,134.84684358019416L45.916666666666664,134.99515598496484L45.916666666666664,135.11734979375515L45.916666666666664,135.25891934166097L45.916666666666664,135.42100350143335L45.916666666666664,135.57894826359131L45.916666666666664,135.75477888314668L48.33333333333333,136.0032222420703L48.33333333333333,136.24143579488597L48.33333333333333,136.45499985925096L48.33333333333333,136.661612748104L48.33333333333333,136.87134463146418L48.33333333333333,137.0750850838442L48.33333333333333,137.26374130567189L48.33333333333333,137.44899424136332L48.33333333333333,137.6178038776708L50.75,137.87547242781108L50.75,138.09879019961596L50.75,138.26803888972032L50.75,138.39712357518374L50.75,138.54116476728967L50.75,138.67874054042716L50.75,138.8149804959214L53.166666666666664,138.96774205878512L53.166666666666664,139.09179616654768L53.166666666666664,139.2351512804049L53.166666666666664,139.37198083202847L53.166666666666664,139.48726476318743L53.166666666666664,139.57843028066068L53.166666666666664,139.6638240658537L53.166666666666664,139.74579461866975L53.166666666666664,139.82465262805414L53.166666666666664,139.89870939535666L55.583333333333336,139.99384541808234L55.583333333333336,140.07438961828282L55.583333333333336,140.11789503933497L55.583333333333336,140.14994390195682L55.583333333333336,140.1662255723812L55.583333333333336,140.186310165002L55.583333333333336,140.20984918680594L55.583333333333336,140.23053311556268L55.583333333333336,140.24379588571713L55.583333333333336,140.25878936697896L55.583333333333336,140.2750706276644L55.583333333333336,140.29108672330915L55.583333333333336,140.3117138176125L58,140.37261615838617L58,140.4205761776908L58,140.46417024848114L58,140.52290131349358L58,140.584891258432L58,140.65119636684466L58,140.72157743400882L58,140.78749090481534L58,140.84789833388538L60.41666666666667,140.8098879869936L60.41666666666667,140.79085676646616L60.41666666666667,140.74746558886412L60.41666666666667,140.74382235575152L60.41666666666667,140.76115108289744L60.41666666666667,140.7963811475203L60.41666666666667,140.83241449402774L60.41666666666667,140.86562149165L60.41666666666667,140.906734867429L60.41666666666667,140.9566426465516L60.41666666666667,141.0047574586432L60.41666666666667,141.0431726435923L60.41666666666667,141.09142440456523L60.41666666666667,141.13818838276734L62.833333333333336,141.26761298207936L62.833333333333336,141.36563811100447L62.833333333333336,141.44384848503327L62.833333333333336,141.5321366300399L62.833333333333336,141.6154269969465L62.833333333333336,141.70112234201696L62.833333333333336,141.78217200018182L62.833333333333336,141.8578789519512L62.833333333333336,141.9399354763699L65.25,141.89527547398814L65.25,141.92245536090266L65.25,141.9632842596826L65.25,141.98327467412076L65.25,141.994671680018L65.25,142.01457399883904L65.25,142.03664569133278L65.25,142.05599682224542L65.25,142.07090443800035L65.25,142.1159652560464L65.25,142.16605319001738L65.25,142.2157595907545L65.25,142.26370932345213L65.25,142.3162757932638L65.25,142.36933285704126L65.25,142.43139883084086L67.66666666666667,142.58864499911536L67.66666666666667,142.70221648580213L67.66666666666667,142.81209807795676L67.66666666666667,142.92225892210658L67.66666666666667,142.98970825497182L67.66666666666667,143.04749872538167L67.66666666666667,143.1068021376233L67.66666666666667,143.16778632018148L67.66666666666667,143.2126196215276L67.66666666666667,143.27258180611167L67.66666666666667,143.34386208211046L67.66666666666667,143.41206398055223L67.66666666666667,143.47475254364738L67.66666666666667,143.52897283112455L67.66666666666667,143.5816541241311L70.08333333333333,143.58295265104243L70.08333333333333,143.57843310820073L70.08333333333333,143.6067335843781L70.08333333333333,143.628728476248L70.08333333333333,143.65776637261573L70.08333333333333,143.7159097910321L70.08333333333333,143.77495135198L70.08333333333333,143.8326554985057L72.5,144.00240135983165L72.5,144.08267419217108L72.5,144.1642431076481L72.5,144.25627012803088L72.5,144.32982176533093L72.5,144.38787979245046L72.5,144.4418396641452L72.5,144.48495871959145L72.5,144.52740405994513L72.5,144.5691872271436L72.5,144.60708872968792L72.5,144.64019646152718L72.5,144.67120618208725L74.91666666666667,144.71471524150004L74.91666666666667,144.78998980136404L74.91666666666667,144.8315419091118L74.91666666666667,144.8647767204073L74.91666666666667,144.89108369118324L74.91666666666667,144.91441577400448L74.91666666666667,144.947998127694L74.91666666666667,144.97956931408987L74.91666666666667,145.01243826188738L74.91666666666667,145.0475798141259L74.91666666666667,145.08058807243654L74.91666666666667,145.1061711271324L74.91666666666667,145.13007669173584L77.33333333333333,145.1571898114244L77.33333333333333,145.16830016247954L77.33333333333333,145.17308029624485L77.33333333333333,145.19005591753577L77.33333333333333,145.20633754926897L77.33333333333333,145.22592044327936L77.33333333333333,145.24852875133607L77.33333333333333,145.26752862962016L77.33333333333333,145.29212764305336L77.33333333333333,145.32054123582623L77.33333333333333,145.35897286536274L77.33333333333333,145.3958368191737L77.33333333333333,145.43291520354845L77.33333333333333,145.47285224254182L77.33333333333333,145.51234114391372L79.75,145.54711212561764L79.75,145.6530692629051L79.75,145.74065234927667L79.75,145.81938690389265L79.75,145.88675065341727L79.75,145.9548171815553L79.75,146.019635150762L79.75,146.08267243738177L79.75,146.14494741051973L79.75,146.20371032556287L82.16666666666667,146.2075630698314L82.16666666666667,146.26191185763952L82.16666666666667,146.32938478340634L82.16666666666667,146.38295240675365L82.16666666666667,146.42173923045578L82.16666666666667,146.4683659530488L82.16666666666667,146.51474113166958L82.16666666666667,146.55735942354974L82.16666666666667,146.59643069933767L82.16666666666667,146.6337033491137L82.16666666666667,146.67435599662542L82.16666666666667,146.7098341883366L84.58333333333334,146.75216721906807L84.58333333333334,146.7674929661293L84.58333333333334,146.82720969077238L84.58333333333334,146.89183912228674L84.58333333333334,146.93520517813377L84.58333333333334,146.97423462003877L87,147.06436851304585L87,147.15132314865033L87,147.23012449818157L87,147.30943300219084L87,147.37579322892688L87,147.40396635168892L87,147.43542136153837L87,147.46534779341556L87,147.49568073007805L89.41666666666667,147.5274175294712L89.41666666666667,147.55095208237523L89.41666666666667,147.57853138142406L89.41666666666667,147.62283003586478L89.41666666666667,147.6549574188775L89.41666666666667,147.7014084544329L89.41666666666667,147.76664425499806L89.41666666666667,147.82806517245086L89.41666666666667,147.88650352568303L91.83333333333333,147.95226377330826L91.83333333333333,148.00281064111172L91.83333333333333,148.05764469006056L91.83333333333333,148.10500230946502L91.83333333333333,148.14366426722907L91.83333333333333,148.17924264316125L91.83333333333333,148.21410408996164L91.83333333333333,148.2433504691318L91.83333333333333,148.27166558941406L91.83333333333333,148.30066678132422L91.83333333333333,148.3231292374274L94.25,148.35584084044893L94.25,148.37231430406806L94.25,148.39876112378224L94.25,148.42740350778723L94.25,148.4726234587173L94.25,148.50635627966537L94.25,148.54307084486976L94.25,148.5770425098964L94.25,148.61471417060275L94.25,148.65202883562168L94.25,148.69878370119156L94.25,148.75132064910528L94.25,148.8048149871996L94.25,148.86105520973646L96.66666666666666,148.89255756609452L96.66666666666666,148.9201395332201L96.66666666666666,148.98404344243974L96.66666666666666,149.05134539253396L96.66666666666666,149.11933107920729L99.08333333333333,149.22872066439518L99.08333333333333,149.31193172964055L99.08333333333333,149.3743000141654L99.08333333333333,149.417885339355L99.08333333333333,149.43997628167023L99.08333333333333,149.49324311214068L99.08333333333333,149.54488643693242L99.08333333333333,149.59821771678264L99.08333333333333,149.65563062260222L99.08333333333333,149.7017432816056L101.5,149.771104573974L101.5,149.76011345004616L101.5,149.74666288390725L101.5,149.76178451474428L101.5,149.76858332344926L101.5,149.8096899184423L101.5,149.85787882207185L101.5,149.9054503333651L103.91666666666667,149.96033412420937L103.91666666666667,150.01946522528584L103.91666666666667,150.08106037262564L103.91666666666667,150.14092537380895L103.91666666666667,150.20587277138068L103.91666666666667,150.27332519857626L103.91666666666667,150.34225049756643L103.91666666666667,150.40653474110033L103.91666666666667,150.45968394688543L103.91666666666667,150.5116581021479L106.33333333333333,150.58059210452896L106.33333333333333,150.63519389307567L106.33333333333333,150.68834887030874L106.33333333333333,150.71942034183263L106.33333333333333,150.75418186461408L106.33333333333333,150.7815191127095L106.33333333333333,150.80943650495055L106.33333333333333,150.83301549432284L106.33333333333333,150.8592873923965L108.75,150.87696657559928L108.75,150.90783328765858L108.75,150.9635074550622L108.75,151.01323409408633L108.75,151.0611824394019L108.75,151.1048748490073L108.75,151.1496792562674L108.75,151.19432311621838L108.75,151.23580558985338L111.16666666666667,151.23100815922427L111.16666666666667,151.31163187607126L111.16666666666667,151.39169800177126L111.16666666666667,151.45280431815982L111.16666666666667,151.50948355197363L111.16666666666667,151.55742147089578L111.16666666666667,151.6064360886346L111.16666666666667,151.6510972788963L111.16666666666667,151.69188817800116L111.16666666666667,151.73044040042615L111.16666666666667,151.7700296998101L111.16666666666667,151.79803729955185L113.58333333333333,151.82944570252195L113.58333333333333,151.85313289046994L113.58333333333333,151.88149889385116L113.58333333333333,151.91136710693823L113.58333333333333,151.92553762317522L113.58333333333333,151.94652217505384L113.58333333333333,151.95851451947297L113.58333333333333,151.97015068842396L113.58333333333333,151.97916955400973L113.58333333333333,151.9805689999758L113.58333333333333,151.98455338672812L113.58333333333333,151.99145819570248L113.58333333333333,151.9991462209722L113.58333333333333,152.00733472808474L116,151.99834309894976L116,152.02307700810874L116,152.05243739662217L116,152.1071894627756L116,152.1657088055172L116,152.21791694273273L116,152.27806838774123L116,152.33330943210308L116,152.3879567175315L116,152.44144253696913L116,152.49559486180908L116,152.53894190088258L116,152.58217923793563L116,152.62641852789255L116,152.6674060167811L116,152.70753878934806L118.41666666666667,152.75409465472558L118.41666666666667,152.79522510844512L118.41666666666667,152.82487391343304L118.41666666666667,152.85615978783886L118.41666666666667,152.88880187839865L118.41666666666667,152.92198015772559L120.83333333333334,152.93323306241717L120.83333333333334,152.99795249089618L120.83333333333334,153.05235595995651L120.83333333333334,153.09883994089367L120.83333333333334,153.13822069462282L120.83333333333334,153.17268974573471L120.83333333333334,153.20906389252585L123.25,153.34249591976834L123.25,153.30373922425863L123.25,153.3036478918436L123.25,153.313738600529L123.25,153.32987383189518L123.25,153.37097785202184L123.25,153.40538044139018L123.25,153.43686811128035L123.25,153.46456892615666L123.25,153.4923449552255L123.25,153.5155240529834L123.25,153.53327407439357L123.25,153.54962768803944L125.66666666666667,153.5684382159964L125.66666666666667,153.57984764775156L125.66666666666667,153.59579756613977L125.66666666666667,153.6157731949754L125.66666666666667,153.646409926827L128.08333333333334,153.73197781521233L128.08333333333334,153.81165216672383L128.08333333333334,153.87216507725662L128.08333333333334,153.92963018721372L128.08333333333334,153.99355881125516L128.08333333333334,154.05606096811715L128.08333333333334,154.11495126548775L128.08333333333334,154.16496760586318L128.08333333333334,154.21361145408483L128.08333333333334,154.25508839183786L128.08333333333334,154.2919249920064L130.5,154.34096909475824L130.5,154.38006065195216L130.5,154.4239678442354L130.5,154.46472832865803L130.5,154.4970566841976L130.5,154.52856508269244L130.5,154.55998047124606L130.5,154.59281193351092L130.5,154.6177183613582L130.5,154.64051654194031L130.5,154.66438735094587L132.91666666666666,154.7760292635893L132.91666666666666,154.8280597797818L132.91666666666666,154.85983304438423L132.91666666666666,154.89778351704356L132.91666666666666,154.9309381112407L132.91666666666666,154.946062462327L132.91666666666666,154.95578436611433L132.91666666666666,154.95827205087195L132.91666666666666,154.96483907364555L132.91666666666666,154.9737327242861L135.33333333333334,155.00404120636486L135.33333333333334,155.02033367499735L135.33333333333334,155.02428436821012L135.33333333333334,155.04516225673967L135.33333333333334,155.07495250453584L135.33333333333334,155.10486838239186L135.33333333333334,155.1222480660129L135.33333333333334,155.14174567452957L135.33333333333334,155.16086579762316L135.33333333333334,155.18093261105236L135.33333333333334,155.20136785043687L135.33333333333334,155.22998536496755L135.33333333333334,155.25254786313616L135.33333333333334,155.26650398508767L135.33333333333334,155.2759125319302L135.33333333333334,155.28323550898077L137.75,155.26328833013025L137.75,155.27110978480493L137.75,155.28643877049842L137.75,155.3213563217834L137.75,155.3491516382912L137.75,155.36440621121258L137.75,155.38254862689388L137.75,155.39878832939056L137.75,155.41193717604563L137.75,155.42252581793994L137.75,155.43057162195447L137.75,155.43991876652862L137.75,155.45408642277624L137.75,155.46854135454953L140.16666666666666,155.53406814804507L140.16666666666666,155.60355347735114L140.16666666666666,155.6522185235013L140.16666666666666,155.70482233289474L140.16666666666666,155.74818056044464L140.16666666666666,155.7968491279253L140.16666666666666,155.8252958087886L140.16666666666666,155.85048379238245L140.16666666666666,155.8733503851944L140.16666666666666,155.89750734065714L140.16666666666666,155.92125297501718L140.16666666666666,155.94498396261844L140.16666666666666,155.96531586338696L142.58333333333331,155.97965307523958L142.58333333333331,156.0028093277481L142.58333333333331,156.0367331170158L142.58333333333331,156.07037672760228L142.58333333333331,156.0953687471057L142.58333333333331,156.12001833566148L142.58333333333331,156.14392219643526L142.58333333333331,156.16583433749986L142.58333333333331,156.1879562389363L142.58333333333331,156.20788789865225L142.58333333333331,156.22392462055404L142.58333333333331,156.23960201385123L142.58333333333331,156.25531415326282L142.58333333333331,156.2701521973933L145,156.29278858222762L145,156.31604102273582L145,156.33613959048012L145,156.3712738791023L145,156.4063771731625L145,156.44052182919015L145,156.48021621701054L145,156.5173948896388L145,156.55251549696803L147.41666666666666,156.54291332850937L147.41666666666666,156.59080741242164L147.41666666666666,156.63212515899366L147.41666666666666,156.6723062773734L147.41666666666666,156.6987299670707L147.41666666666666,156.70971674049244L147.41666666666666,156.7224330459598L147.41666666666666,156.73761102264976L147.41666666666666,156.7539328629331L147.41666666666666,156.78065598816465L147.41666666666666,156.80626417791103L147.41666666666666,156.83211861230927L147.41666666666666,156.85670241409642L147.41666666666666,156.8699680396358L149.83333333333334,156.91489499231366L149.83333333333334,156.93175573695876L149.83333333333334,156.95104797342643L149.83333333333334,156.97010572553938L149.83333333333334,156.9893831590683L149.83333333333334,157.0051966294276L152.25,156.97187632363494L152.25,157.01427435280766L152.25,157.05269402818675L152.25,157.0754751854038L152.25,157.0993740663679L152.25,157.12701185300588L152.25,157.15355537029018L152.25,157.17700174768584L154.66666666666666,157.21332513880063L154.66666666666666,157.25033251779044L154.66666666666666,157.28365316460457L154.66666666666666,157.31086061506403L154.66666666666666,157.33657496053465L154.66666666666666,157.3751193205224L154.66666666666666,157.412134725846L154.66666666666666,157.44572846260897L157.08333333333331,157.520852633778L157.08333333333331,157.59255252645968L157.08333333333331,157.62809937433136L157.08333333333331,157.65737753757782L157.08333333333331,157.6893070266048L157.08333333333331,157.71592307057284L157.08333333333331,157.74583238703994L157.08333333333331,157.77057351123133L157.08333333333331,157.79328111848037L157.08333333333331,157.81496392278632L157.08333333333331,157.83576171854457L157.08333333333331,157.85262126968658L157.08333333333331,157.8680626033151L157.08333333333331,157.88514347344474L159.5,157.89360442878152L159.5,157.92179821955938L159.5,157.93086019581943L159.5,157.94196916475963L159.5,157.95495644348182L159.5,157.962758771881L159.5,157.97377731111078L159.5,157.9847316750249L159.5,157.9976605672829L159.5,158.01226619573762L159.5,158.02857523506103L159.5,158.0405067393229L159.5,158.05657638642623L161.91666666666666,157.9468805722322L161.91666666666666,157.92083716830408L161.91666666666666,157.91757934025185L161.91666666666666,157.90258114332647L161.91666666666666,157.88530170301553L161.91666666666666,157.87162976797381L161.91666666666666,157.86262393116118L161.91666666666666,157.8610156416963L161.91666666666666,157.86475348056027L161.91666666666666,157.87879167697466L161.91666666666666,157.8900924686745L161.91666666666666,157.90239911908384L161.91666666666666,157.9064351431057L164.33333333333334,157.92515953527877L164.33333333333334,157.90478207967817L164.33333333333334,157.9160444745127L164.33333333333334,157.9345981092024L164.33333333333334,157.96521146908202L164.33333333333334,157.9969270508643L164.33333333333334,158.02614968352992L164.33333333333334,158.0543536920528L164.33333333333334,158.0824750226211L164.33333333333334,158.11073902990898L164.33333333333334,158.13831996430116L166.75,158.1826643293967L166.75,158.21412725012266L166.75,158.24381789314475L166.75,158.25359384067693L166.75,158.2685892781163L166.75,158.29097692325885L166.75,158.31591797853426L166.75,158.34222271589607L169.16666666666669,158.3846909655458L169.16666666666669,158.41948240294158L169.16666666666669,158.45702567663685L169.16666666666669,158.50189575782468L169.16666666666669,158.5488367005636L169.16666666666669,158.5973688534873L169.16666666666669,158.64380626289827L169.16666666666669,158.6879439568852L169.16666666666669,158.72963139034985L169.16666666666669,158.7692565412501L169.16666666666669,158.80831644538745L171.58333333333334,158.83989210959297L171.58333333333334,158.87422551124513L171.58333333333334,158.9042315079645L171.58333333333334,158.93444083560823L171.58333333333334,158.9606174503302L174,159.03323094194715L174,159.07183615715113L174,159.09271383815275L174,159.10688365791344L174,159.13023484117684L174,159.15458669263674L174,159.17951313653217L174,159.19825934257304L174,159.21909939154372L176.41666666666666,159.18601868310733L176.41666666666666,159.17638512485928L176.41666666666666,159.1914601175191L176.41666666666666,159.20806023126266L176.41666666666666,159.21860886961866L176.41666666666666,159.23283379831034L176.41666666666666,159.25125924118072L176.41666666666666,159.270113023488L176.41666666666666,159.28627624176426L176.41666666666666,159.3040429023093L176.41666666666666,159.3228019031462L176.41666666666666,159.33849890479922L178.83333333333334,159.4159806000889L178.83333333333334,159.46901197496211L178.83333333333334,159.52246711254116L178.83333333333334,159.57225390084085L178.83333333333334,159.60711709364872L178.83333333333334,159.64154249424132L178.83333333333334,159.6696224841691L178.83333333333334,159.6948603747096L178.83333333333334,159.72087186561683L178.83333333333334,159.74502963113116L178.83333333333334,159.77771454128583L181.25,159.8419526742827L181.25,159.88640732150125L181.25,159.92116098505065L181.25,159.95388927950677L181.25,159.98540157762176L181.25,160.0212677688912L181.25,160.04713227182026L183.66666666666666,160.06130478841987L183.66666666666666,160.09003495683055L183.66666666666666,160.1137443127413L183.66666666666666,160.14301632469596L183.66666666666666,160.17162126272336L183.66666666666666,160.19541084737526L183.66666666666666,160.21557719456553L183.66666666666666,160.23263333030073L183.66666666666666,160.24823926424634L183.66666666666666,160.26432602476447L183.66666666666666,160.2721745060414L183.66666666666666,160.28058191149967L183.66666666666666,160.2900734457777L183.66666666666666,160.3003957707669L186.08333333333334,160.3884580873734L186.08333333333334,160.44718244273184L186.08333333333334,160.48726179519082L186.08333333333334,160.52038117525822L186.08333333333334,160.55547313455693L186.08333333333334,160.57088923924422L186.08333333333334,160.58628675527467L186.08333333333334,160.60120201548176L186.08333333333334,160.61512813685562L186.08333333333334,160.6290438354742L188.5,160.58909737422513L188.5,160.56619322696554L188.5,160.54290769886737L188.5,160.5256318085857L188.5,160.51273761769576L188.5,160.5063070010535L188.5,160.5078310540639L188.5,160.51222150340737L190.91666666666666,160.55511120929629L190.91666666666666,160.58948441434L190.91666666666666,160.62041317332475L190.91666666666666,160.64497228799516L190.91666666666666,160.66582544454778L190.91666666666666,160.6877156823218L190.91666666666666,160.71101149970025L190.91666666666666,160.7290715364222L190.91666666666666,160.74474622726186L190.91666666666666,160.761938143385L190.91666666666666,160.77747400296917L193.33333333333331,160.7934277936422L193.33333333333331,160.80019853938353L193.33333333333331,160.8092636377344L193.33333333333331,160.8199994643721L193.33333333333331,160.82561860319808L193.33333333333331,160.83431980244805L193.33333333333331,160.8390680368579L195.75,160.87371315149414L195.75,160.9017363388941L195.75,160.91919863990196L195.75,160.9456776803502L195.75,160.97074428046545L195.75,160.99278758655052L195.75,161.012688824838L195.75,161.03015690132014L195.75,161.05060127705164L195.75,161.06829771412748L195.75,161.08274197032222L198.16666666666666,161.0833881184723L198.16666666666666,161.10187897170613L198.16666666666666,161.13269815413432L198.16666666666666,161.16801652885837L198.16666666666666,161.19860423081613L198.16666666666666,161.23230877741992L198.16666666666666,161.26302272926847L198.16666666666666,161.28978931440437L198.16666666666666,161.3167220693762L198.16666666666666,161.34166661337895L200.58333333333334,161.379966413618L200.58333333333334,161.40458069603525L200.58333333333334,161.4294909184708L200.58333333333334,161.45496990390194L200.58333333333334,161.47828992508047L200.58333333333334,161.5013732043364L200.58333333333334,161.5217314213351L200.58333333333334,161.54058497583804L200.58333333333334,161.54752185147643L200.58333333333334,161.5598422597255L203,161.53765114085232L203,161.53612806612787L203,161.5593726806721L203,161.5738661698239L203,161.58637386124832L203,161.59900845061665L203,161.60700665399312L203,161.61818918534257L203,161.63197647582223L203,161.65365888884358L203,161.66036267019967L205.41666666666669,161.67071376396493L205.41666666666669,161.68083492302011L205.41666666666669,161.69144568246062L205.41666666666669,161.7030304030218L205.41666666666669,161.71540765418177L205.41666666666669,161.7235817387043L205.41666666666669,161.72906824828402L205.41666666666669,161.73695756643667L207.83333333333334,161.73062430686923L207.83333333333334,161.7604059794179L207.83333333333334,161.7858444576661L207.83333333333334,161.8081082495739L207.83333333333334,161.84029918628985L207.83333333333334,161.87490732180228L207.83333333333334,161.9090240847001L207.83333333333334,161.94101465700894L210.25,162.02645268302052L210.25,162.07978554154778L210.25,162.13191201208608L210.25,162.1770735493317L210.25,162.22101684627074L210.25,162.26212140514238L210.25,162.2996662369777L210.25,162.327634289199L210.25,162.3378314254107L210.25,162.34811609981466L210.25,162.3586388230136L212.66666666666666,162.3461785010815L212.66666666666666,162.29703842701556L212.66666666666666,162.30314562330088L212.66666666666666,162.3182620743063L212.66666666666666,162.33412720185416L212.66666666666666,162.34731846564316L212.66666666666666,162.36144315364595L212.66666666666666,162.37751665219173L212.66666666666666,162.38893670679906L212.66666666666666,162.40244073768147L212.66666666666666,162.41442879619404L215.08333333333334,162.44725661330514L215.08333333333334,162.48450528008678L215.08333333333334,162.51599750036291L215.08333333333334,162.53655625093558L215.08333333333334,162.54124120472025L215.08333333333334,162.54974074555676L215.08333333333334,162.5587003243325L215.08333333333334,162.56796420668465L215.08333333333334,162.57457451251304L215.08333333333334,162.58315526287555L217.5,162.62287936755774L217.5,162.6293324951462L217.5,162.6396667545463L217.5,162.66616652346195L217.5,162.6910758390001L217.5,162.7121067988647L217.5,162.7334579773629L219.91666666666666,162.77051230773233L219.91666666666666,162.79887730943318L219.91666666666666,162.82560284027255L219.91666666666666,162.85176646619396L219.91666666666666,162.8746306600808L219.91666666666666,162.88869635040632L222.33333333333334,162.8994037772101L222.33333333333334,162.91827096309638L222.33333333333334,162.9332521907047L222.33333333333334,162.95190929996252L222.33333333333334,162.96669095477378L222.33333333333334,162.97964938019584L222.33333333333334,163.00014617401487L222.33333333333334,163.0142860150856L222.33333333333334,163.02696658158757L222.33333333333334,163.03739797731475L222.33333333333334,163.04657767578686L222.33333333333334,163.0564267801393L224.75,163.12220217821908L224.75,163.19537518755612L224.75,163.2504197954557L224.75,163.2858086637607L224.75,163.2931878758076L224.75,163.30316288128228L224.75,163.30993984738484L224.75,163.3190108550789L224.75,163.3305045781078L224.75,163.34199885494158L224.75,163.35400256458237L227.16666666666666,163.40930209329872L227.16666666666666,163.44977849779121L227.16666666666666,163.482168841533L227.16666666666666,163.50554990509005L227.16666666666666,163.53105853363286L227.16666666666666,163.55166324845143L227.16666666666666,163.56864908178775L229.58333333333331,163.5107996370457L229.58333333333331,163.50642039373608L229.58333333333331,163.52221686413225L229.58333333333331,163.5388164984119L229.58333333333331,163.55653315756075L229.58333333333331,163.5750676145125L229.58333333333331,163.59130358198982L229.58333333333331,163.60486929875827L229.58333333333331,163.61569907974805L232,163.66764874968456L232,163.6740120356565L232,163.67888458830822L232,163.69010674965452L232,163.70158641871282L232,163.71105400442724L232,163.72088891574407L232,163.7290594465358L232,163.73606923421042L232,163.74394541161584L234.41666666666666,163.756494362339L234.41666666666666,163.74923355154732L234.41666666666666,163.7529336082082L234.41666666666666,163.75244407145024L234.41666666666666,163.7661168983673L234.41666666666666,163.77673865897358L234.41666666666666,163.78196188102916L234.41666666666666,163.78760975935774L234.41666666666666,163.79386025875093L234.41666666666666,163.7979618699483L234.41666666666666,163.80163717980935L234.41666666666666,163.80515081328616L236.83333333333334,163.83997266861638L236.83333333333334,163.87862892006038L236.83333333333334,163.911391946564L236.83333333333334,163.9398175985817L236.83333333333334,163.95250710454025L236.83333333333334,163.96484975517905L236.83333333333334,163.97294679098883L236.83333333333334,163.98214347410084L236.83333333333334,163.9905705480326L236.83333333333334,163.9982886482896L236.83333333333334,164.00650585851474L236.83333333333334,164.01406883240574L236.83333333333334,164.018841988482L239.25,164.03373100378218L239.25,164.03460060735242L239.25,164.03799322143905L239.25,164.03214496610985L239.25,164.02968661004311L239.25,164.0320858898342L239.25,164.03443160483752L239.25,164.0375450490717L241.66666666666669,164.08304914813377L241.66666666666669,164.12809231636007L241.66666666666669,164.1545772119783L241.66666666666669,164.16971520992135L241.66666666666669,164.18442817210072L241.66666666666669,164.18948913497198L244.08333333333334,164.2089659323379L244.08333333333334,164.22326516758204L244.08333333333334,164.2429780148542L244.08333333333334,164.25796609410867L244.08333333333334,164.26804529130223L244.08333333333334,164.27737715281324L246.5,164.31761568141889L246.5,164.3532978820082L246.5,164.37374396904437L246.5,164.3859771203987L246.5,164.39454537184463L246.5,164.39679994681333L246.5,164.40172957044254L246.5,164.40579322877866L246.5,164.41772928457135L246.5,164.43037397093715L246.5,164.44322712787275L248.91666666666666,164.4799963640905L248.91666666666666,164.51941854666669L248.91666666666666,164.57594135667335L248.91666666666666,164.60700414058743L248.91666666666666,164.62666817497032L248.91666666666666,164.64322502442974L248.91666666666666,164.65720615650056L248.91666666666666,164.6703112553467L248.91666666666666,164.68262830084703L251.33333333333334,164.70003778135614L251.33333333333334,164.71024901644432L251.33333333333334,164.7181133265519L251.33333333333334,164.73211125827956L251.33333333333334,164.74357293019466L251.33333333333334,164.75355441442414L251.33333333333334,164.76420945940137L251.33333333333334,164.77143333136374L253.75,164.79132766080764L253.75,164.82308188230022L253.75,164.84475239396306L253.75,164.86312690852785L253.75,164.87038306784896L253.75,164.87714368673815L253.75,164.88593363371015L253.75,164.8948814783364L253.75,164.90397925979653L256.1666666666667,164.95067720292928L256.1666666666667,164.98503968511994L256.1666666666667,165.0130599685036L256.1666666666667,165.04113949265545L256.1666666666667,165.06781504059973L256.1666666666667,165.08917430966977L256.1666666666667,165.11023998691033L256.1666666666667,165.13042935691L256.1666666666667,165.14923315012092L256.1666666666667,165.1668091336931L258.58333333333337,165.15292958458693L258.58333333333337,165.1331728657177L258.58333333333337,165.10947006713215L258.58333333333337,165.0869081643206L258.58333333333337,165.06458940760623L258.58333333333337,165.04595307942245L258.58333333333337,165.03063808172158L258.58333333333337,165.0215979235843L258.58333333333337,165.01477980331592L258.58333333333337,165.01109030053232L261,165.0138024009263L261,165.02330406269883L261,165.0320651105134L261,165.0375118402177L261,165.04408015511007L261,165.04861642349752L261,165.0529701226209L263.4166666666667,165.09493983488198L263.4166666666667,165.11374807423223L263.4166666666667,165.11780994484897L263.4166666666667,165.12262007018003L263.4166666666667,165.1294464708524L263.4166666666667,165.1357324198235L263.4166666666667,165.14179255965666L263.4166666666667,165.14962943154723L263.4166666666667,165.15968519469345L263.4166666666667,165.16866292972594L263.4166666666667,165.1776121304509L265.8333333333333,165.19863668146462L265.8333333333333,165.22086672059788L265.8333333333333,165.2412551303058L265.8333333333333,165.25294673655247L265.8333333333333,165.2616642484131L265.8333333333333,165.26658293325298L265.8333333333333,165.27141050542556L265.8333333333333,165.27856325562203L265.8333333333333,165.2886770755811L265.8333333333333,165.2985064912563L265.8333333333333,165.30755681616952L265.8333333333333,165.31458372654265L265.8333333333333,165.32061765223898" style="fill: none;" fill="none"></path></g></g></g></g><g opacity="0.2"><g><g><g><path stroke="rgb(0, 119, 187)" stroke-width="2px" d="M26.583333333333332,28.839941382408142L26.583333333333332,38.48200750350952L26.583333333333332,51.37114888429642L26.583333333333332,76.17460960149765L26.583333333333332,78.42117351293564L26.583333333333332,80.38411062955856L26.583333333333332,81.24565708637238L29,129.99013003706932L29,129.0506980419159L29,130.03526303172112L29,130.79769203066826L29,131.93491584062576L29,131.60259541869164L29,131.13841554522514L29,131.5079036951065L29,131.42117196321487L31.416666666666668,136.5860328823328L31.416666666666668,136.35327829420567L31.416666666666668,136.60461674630642L31.416666666666668,136.52054361999035L31.416666666666668,135.25366531312466L31.416666666666668,133.69783508777618L31.416666666666668,133.00222465395927L31.416666666666668,132.5265399813652L33.833333333333336,134.84214060008526L33.833333333333336,132.83274646103382L33.833333333333336,133.01726898550987L33.833333333333336,133.48941676318645L33.833333333333336,134.52531024813652L33.833333333333336,134.63903157413006L33.833333333333336,134.98462392389774L33.833333333333336,134.95851789414883L36.25,131.51409655809402L36.25,129.2387627363205L36.25,129.3971765935421L36.25,130.65874296426773L36.25,132.28050819039345L36.25,132.4393651485443L36.25,133.22524420917034L36.25,133.49516916275024L36.25,133.65269945561886L38.666666666666664,138.09584127366543L38.666666666666664,138.70649237930775L38.666666666666664,137.83211182057858L38.666666666666664,137.64006713032722L38.666666666666664,137.63697069883347L38.666666666666664,137.75511775910854L38.666666666666664,137.49714070558548L38.666666666666664,137.2365076839924L38.666666666666664,137.13783068954945L41.083333333333336,134.3018475919962L41.083333333333336,134.99612872302532L41.083333333333336,135.11870151758194L41.083333333333336,135.49040253460407L41.083333333333336,135.7430702894926L41.083333333333336,135.9320185482502L41.083333333333336,136.1404342353344L41.083333333333336,136.15946120023727L43.5,137.53342486917973L43.5,137.02543602883816L43.5,137.81264175474644L43.5,137.69803422689438L43.5,137.750692024827L43.5,138.32815539836884L43.5,138.54763542115688L45.916666666666664,137.71263809502125L45.916666666666664,137.36040714383125L45.916666666666664,137.8622031211853L45.916666666666664,138.40647876262665L45.916666666666664,138.4927647560835L45.916666666666664,139.0034095644951L48.33333333333333,140.59994968771935L48.33333333333333,140.65482035279274L48.33333333333333,140.41675382852554L48.33333333333333,140.49905982613564L48.33333333333333,140.7711976468563L48.33333333333333,140.86766177415848L48.33333333333333,140.77916291356087L48.33333333333333,140.90438903868198L48.33333333333333,140.7694278806448L50.75,142.6903205215931L50.75,142.27525627613068L50.75,141.4358332157135L50.75,140.81500397622585L50.75,141.24113255739212L50.75,141.259275957942L50.75,141.37211371958256L53.166666666666664,141.8367366939783L53.166666666666664,141.42299911379814L53.166666666666664,141.93054749071598L53.166666666666664,141.94603492319584L53.166666666666664,141.65708300471306L53.166666666666664,141.295117020607L53.166666666666664,141.2725505232811L53.166666666666664,141.29069128632545L53.166666666666664,141.31149065494537L53.166666666666664,141.29556012153625L55.583333333333336,141.78894773125648L55.583333333333336,141.59469017386436L55.583333333333336,140.93934653699398L55.583333333333336,140.7552671134472L55.583333333333336,140.4738373607397L55.583333333333336,140.56587839126587L55.583333333333336,140.65482035279274L55.583333333333336,140.62163262069225L55.583333333333336,140.4946340918541L55.583333333333336,140.54242569208145L55.583333333333336,140.58313558995724L55.583333333333336,140.59419728815556L55.583333333333336,140.7021662145853L58,141.52565874159336L58,141.32874785363674L58,141.28980772197247L58,141.63540007174015L58,141.75929953157902L58,141.90753789246082L58,142.05533315241337L58,142.03674665093422L58,141.99294032156467L60.41666666666667,140.08930487930775L60.41666666666667,140.43003103137016L60.41666666666667,139.9246955215931L60.41666666666667,140.67473351955414L60.41666666666667,141.08979776501656L60.41666666666667,141.46459521353245L60.41666666666667,141.5159237086773L60.41666666666667,141.49557007849216L60.41666666666667,141.68673120439053L60.41666666666667,141.90355525910854L60.41666666666667,141.91771602630615L60.41666666666667,141.77213363349438L60.41666666666667,142.00710108876228L60.41666666666667,142.0256849527359L62.833333333333336,143.7240011394024L62.833333333333336,143.22618779540062L62.833333333333336,142.92838440835476L62.833333333333336,143.20804439485073L62.833333333333336,143.19653959572315L62.833333333333336,143.32796122133732L62.833333333333336,143.32088215649128L62.833333333333336,143.2952165901661L62.833333333333336,143.49788251519203L65.25,141.04731810092926L65.25,142.43853633105755L65.25,142.73855258524418L65.25,142.36286893486977L65.25,142.21109367907047L65.25,142.39251713454723L65.25,142.45579616725445L65.25,142.42349199950695L65.25,142.35402010381222L65.25,142.97175027430058L65.25,143.11733266711235L65.25,143.15981233119965L65.25,143.17441619932652L65.25,143.31468665599823L65.25,143.37707948684692L65.25,143.61027717590332L67.66666666666667,145.57541924715042L67.66666666666667,144.85945518314838L67.66666666666667,144.89927887916565L67.66666666666667,145.01477260887623L67.66666666666667,144.27093011140823L67.66666666666667,144.14526088535786L67.66666666666667,144.2333166450262L67.66666666666667,144.32624123990536L67.66666666666667,144.06428155303L67.66666666666667,144.41164630651474L67.66666666666667,144.6979422569275L67.66666666666667,144.70767728984356L67.66666666666667,144.66564072668552L67.66666666666667,144.55899846553802L67.66666666666667,144.58245116472244L70.08333333333333,143.6076212078333L70.08333333333333,143.4925732165575L70.08333333333333,144.14437468349934L70.08333333333333,144.04658125340939L70.08333333333333,144.20942348241806L70.08333333333333,144.8205150514841L70.08333333333333,144.89662554860115L70.08333333333333,144.92892707884312L72.5,147.22727313637733L72.5,145.60772341489792L72.5,145.71392257511616L72.5,146.00464425981045L72.5,145.72719714045525L72.5,145.4909030199051L72.5,145.4670072197914L72.5,145.30416762828827L72.5,145.33381582796574L72.5,145.36302092671394L72.5,145.32717722654343L72.5,145.26921012997627L72.5,145.26036129891872L74.91666666666667,145.54134795069695L74.91666666666667,146.22014164924622L74.91666666666667,145.620997980237L74.91666666666667,145.49621231853962L74.91666666666667,145.39089672267437L74.91666666666667,145.35770899057388L74.91666666666667,145.586040481925L74.91666666666667,145.5794018805027L74.91666666666667,145.63692851364613L74.91666666666667,145.7152492403984L74.91666666666667,145.7077270746231L74.91666666666667,145.59223598241806L74.91666666666667,145.5842707157135L77.33333333333333,145.67232647538185L77.33333333333333,145.3793919235468L77.33333333333333,145.26390083134174L77.33333333333333,145.512585952878L77.33333333333333,145.51568238437176L77.33333333333333,145.59798838198185L77.33333333333333,145.67807887494564L77.33333333333333,145.6285201460123L77.33333333333333,145.75950130820274L77.33333333333333,145.86039116978645L77.33333333333333,146.0891631245613L77.33333333333333,146.09624218940735L77.33333333333333,146.1373951882124L77.33333333333333,146.2316464483738L77.33333333333333,146.2626213133335L79.75,146.20775328576565L79.75,147.66623318195343L79.75,147.40471395850182L79.75,147.31532889604568L79.75,147.16665007174015L79.75,147.24806986749172L79.75,147.25116629898548L79.75,147.2803713977337L79.75,147.32816299796104L79.75,147.32019773125648L82.16666666666667,146.2807647138834L82.16666666666667,147.2945321649313L82.16666666666667,147.61136251688004L82.16666666666667,147.40073132514954L82.16666666666667,147.1586848050356L82.16666666666667,147.35426902770996L82.16666666666667,147.39586512744427L82.16666666666667,147.36710312962532L82.16666666666667,147.3387815952301L82.16666666666667,147.3418806642294L82.16666666666667,147.44675315916538L82.16666666666667,147.38391722738743L84.58333333333334,147.55649185180664L84.58333333333334,147.0586811453104L84.58333333333334,147.96182370185852L84.58333333333334,148.11979445815086L84.58333333333334,147.75915777683258L84.58333333333334,147.71579191088676L87,148.77690786123276L87,148.80345699191093L87,148.7273464947939L87,148.8162910938263L87,148.6366347670555L87,147.9392545670271L87,148.03306536376476L87,148.03394892811775L87,148.07200549542904L89.41666666666667,148.13041569292545L89.41666666666667,147.99810786545277L89.41666666666667,148.1025372594595L89.41666666666667,148.46450324356556L89.41666666666667,148.26537685096264L89.41666666666667,148.5839769691229L89.41666666666667,149.00612291693687L89.41666666666667,148.99506121873856L89.41666666666667,148.99683098495007L91.83333333333333,149.20170713961124L91.83333333333333,148.96320015192032L91.83333333333333,149.09949061274529L91.83333333333333,149.00479625165462L91.83333333333333,148.87824082374573L91.83333333333333,148.85523122549057L91.83333333333333,148.87647105753422L91.83333333333333,148.7990312576294L91.83333333333333,148.80965249240398L91.83333333333333,148.85168905556202L91.83333333333333,148.74991562962532L94.25,148.97736091911793L94.25,148.68530993163586L94.25,148.90125042200089L94.25,148.97160851955414L94.25,149.33180209994316L94.25,149.1472795754671L94.25,149.24064727127552L94.25,149.22250387072563L94.25,149.3304754346609L94.25,149.36100719869137L94.25,149.58712582290173L94.25,149.7495223134756L94.25,149.8212070763111L94.25,149.92961910367012L96.66666666666666,149.49110215902328L96.66666666666666,149.44419676065445L96.66666666666666,150.19821739196777L96.66666666666666,150.3300821185112L96.66666666666666,150.4110588133335L99.08333333333333,151.3071223050356L99.08333333333333,150.89294162392616L99.08333333333333,150.55929717421532L99.08333333333333,150.2460063546896L99.08333333333333,149.85970410704613L99.08333333333333,150.50531271100044L99.08333333333333,150.52610944211483L99.08333333333333,150.61151187121868L99.08333333333333,150.7464756667614L99.08333333333333,150.57788367569447L101.5,151.0889689475298L101.5,149.5512821227312L101.5,149.49110215902328L101.5,150.04909546673298L101.5,149.89776067435741L101.5,150.5907151401043L101.5,150.77346789836884L101.5,150.80930896103382L103.91666666666667,151.0031260550022L103.91666666666667,151.1429560482502L103.91666666666667,151.2513680756092L103.91666666666667,151.27836030721664L103.91666666666667,151.43987323343754L103.91666666666667,151.55492122471333L103.91666666666667,151.6518310904503L103.91666666666667,151.6279352903366L103.91666666666667,151.46951879560947L103.91666666666667,151.49916699528694L106.33333333333333,151.8903380781412L106.33333333333333,151.67262782156467L106.33333333333333,151.69829338788986L106.33333333333333,151.30977827310562L106.33333333333333,151.4146507680416L106.33333333333333,151.30092680454254L106.33333333333333,151.33986693620682L106.33333333333333,151.28101627528667L106.33333333333333,151.35845343768597L108.75,151.2128710448742L108.75,151.49430079758167L108.75,152.02131660282612L108.75,151.95804020762444L108.75,151.97220097482204L108.75,151.93503060936928L108.75,152.000962972641L108.75,152.04255643486977L108.75,152.02397257089615L111.16666666666667,151.1398569792509L111.16666666666667,152.84348246455193L111.16666666666667,152.91295436024666L111.16666666666667,152.61382430791855L111.16666666666667,152.58638897538185L111.16666666666667,152.46824191510677L111.16666666666667,152.5377138108015L111.16666666666667,152.49965988099575L111.16666666666667,152.46691524982452L111.16666666666667,152.46293261647224L111.16666666666667,152.52222637832165L111.16666666666667,152.3301816880703L113.58333333333333,152.42620535194874L113.58333333333333,152.30318945646286L113.58333333333333,152.42045295238495L113.58333333333333,152.47886314988136L113.58333333333333,152.19477742910385L113.58333333333333,152.34522865712643L113.58333333333333,152.18636906147003L113.58333333333333,152.19123789668083L113.58333333333333,152.15052799880505L113.58333333333333,152.00715847313404L113.58333333333333,152.0602567344904L113.58333333333333,152.1226495653391L113.58333333333333,152.14521870017052L113.58333333333333,152.1629163622856L116,151.82750214636326L116,152.49302127957344L116,152.61028477549553L116,153.1474787145853L116,153.27757631242275L116,153.209871545434L116,153.42094583809376L116,153.38288927078247L116,153.4262551367283L116,153.45767310261726L116,153.52448903024197L116,153.36253564059734L116,153.4036886394024L116,153.46696503460407L116,153.44616830348969L116,153.47006146609783L118.41666666666667,153.6386560946703L118.41666666666667,153.57670372724533L118.41666666666667,153.38820120692253L118.41666666666667,153.4505914002657L118.41666666666667,153.5090015977621L118.41666666666667,153.55236746370792L120.83333333333334,153.14703825116158L120.83333333333334,154.22762162983418L120.83333333333334,154.08602187037468L120.83333333333334,153.9820355772972L120.83333333333334,153.88645501434803L120.83333333333334,153.82760171592236L120.83333333333334,153.90017268061638L123.25,155.8777044340968L123.25,152.56736201047897L123.25,153.30191257596016L123.25,153.5054620653391L123.25,153.63644322752953L123.25,154.1519542336464L123.25,154.05902963876724L123.25,154.03513383865356L123.25,153.99088440835476L123.25,154.02008950710297L123.25,153.95592691004276L123.25,153.8705244809389L123.25,153.86034634709358L125.66666666666667,153.92583824694157L125.66666666666667,153.79662685096264L125.66666666666667,153.89884601533413L125.66666666666667,153.9953101426363L125.66666666666667,154.2285078316927L128.08333333333334,155.3577676936984L128.08333333333334,155.32546484470367L128.08333333333334,155.0219103768468L128.08333333333334,155.02146727591753L128.08333333333334,155.20820266753435L128.08333333333334,155.24360194802284L128.08333333333334,155.23386691510677L128.08333333333334,155.1152780726552L128.08333333333334,155.1378445699811L128.08333333333334,155.04315020889044L128.08333333333334,154.99182039499283L130.5,155.27280704677105L130.5,155.1228002384305L130.5,155.25820449739695L130.5,155.23917753249407L130.5,155.11129543930292L130.5,155.12722465395927L130.5,155.15687285363674L130.5,155.2166097164154L130.5,155.09094049036503L130.5,155.0736819729209L130.5,155.11793272197247L132.91666666666666,156.89722560346127L132.91666666666666,155.81663958728313L132.91666666666666,155.46352507174015L132.91666666666666,155.618842497468L132.91666666666666,155.56087540090084L132.91666666666666,155.23342513293028L132.91666666666666,155.14050053805113L132.91666666666666,155.00553806126118L132.91666666666666,155.08961250633L132.91666666666666,155.14271208643913L135.33333333333334,155.57990236580372L135.33333333333334,155.32989057898521L135.33333333333334,155.09934753924608L135.33333333333334,155.44184213876724L135.33333333333334,155.6409672126174L135.33333333333334,155.67327006161213L135.33333333333334,155.45246205478907L135.33333333333334,155.5122002363205L135.33333333333334,155.52414813637733L135.33333333333334,155.5622020661831L135.33333333333334,155.5896373987198L135.33333333333334,155.77371814101934L135.33333333333334,155.6812353283167L135.33333333333334,155.53167030215263L135.33333333333334,155.45467492192984L135.33333333333334,155.4223720729351L137.75,154.8842919319868L137.75,155.41971742361784L137.75,155.57768949866295L137.75,155.98478979617357L137.75,155.87726265192032L137.75,155.65424309670925L137.75,155.727254524827L137.75,155.70734267681837L137.75,155.66176526248455L137.75,155.62371001392603L137.75,155.58344189822674L137.75,155.61751451343298L137.75,155.72327189147472L137.75,155.74318505823612L140.16666666666666,156.77907722443342L140.16666666666666,156.92377473413944L140.16666666666666,156.57685440033674L140.16666666666666,156.7042947113514L140.16666666666666,156.5719868838787L140.16666666666666,156.72155191004276L140.16666666666666,156.3657827451825L140.16666666666666,156.329055480659L140.16666666666666,156.30781564861536L140.16666666666666,156.35648949444294L140.16666666666666,156.37242002785206L140.16666666666666,156.39587272703648L140.16666666666666,156.3516219779849L142.58333333333331,156.2520601004362L142.58333333333331,156.4427781254053L142.58333333333331,156.68128511309624L142.58333333333331,156.7096053287387L142.58333333333331,156.5702171176672L142.58333333333331,156.5883605182171L142.58333333333331,156.59809555113316L142.58333333333331,156.58216501772404L142.58333333333331,156.60827236622572L142.58333333333331,156.5865894332528L142.58333333333331,156.52862233668566L142.58333333333331,156.53747248649597L142.58333333333331,156.55384480208158L142.58333333333331,156.55207503587008L145,156.72287989407778L145,156.75783739238977L145,156.71801237761974L145,157.03882536292076L145,157.0733397603035L145,157.08927029371262L145,157.23440958559513L145,157.2237896695733L145,157.21980703622103L147.41666666666666,156.36047212779522L147.41666666666666,157.500795006752L147.41666666666666,157.41716234385967L147.41666666666666,157.43574752658606L147.41666666666666,157.20078007131815L147.41666666666666,156.9184654355049L147.41666666666666,156.96404284983873L147.41666666666666,157.02599257975817L147.41666666666666,157.0640478283167L147.41666666666666,157.28839536756277L147.41666666666666,157.29281978309155L147.41666666666666,157.32335286587477L147.41666666666666,157.32379464805126L147.41666666666666,157.12201492488384L149.83333333333334,157.76850709319115L149.83333333333334,157.25210988521576L149.83333333333334,157.31760046631098L149.83333333333334,157.33220301568508L149.83333333333334,157.35565439611673L149.83333333333334,157.30565256625414L152.25,156.33879051357508L152.25,157.81983690708876L152.25,157.78266786038876L152.25,157.5083171725273L152.25,157.55345280468464L152.25,157.65212979912758L152.25,157.65788219869137L152.25,157.62248291820288L154.66666666666666,157.9034695699811L154.66666666666666,157.95347271859646L154.66666666666666,157.91674545407295L154.66666666666666,157.82780217379332L154.66666666666666,157.82514752447605L154.66666666666666,158.1074621602893L154.66666666666666,158.11542742699385L154.66666666666666,158.08400946110487L157.08333333333331,158.9482118859887L157.08333333333331,158.95485048741102L157.08333333333331,158.30348948389292L157.08333333333331,158.2136626392603L157.08333333333331,158.29596731811762L157.08333333333331,158.22162790596485L157.08333333333331,158.31410939991474L157.08333333333331,158.24065487086773L157.08333333333331,158.22472565621138L157.08333333333331,158.22693720459938L157.08333333333331,158.23091983795166L157.08333333333331,158.1729527413845L157.08333333333331,158.16144794225693L157.08333333333331,158.209680005908L159.5,158.05436258018017L159.5,158.4574802443385L159.5,158.1030377447605L159.5,158.1530395746231L159.5,158.20171473920345L159.5,158.11100301146507L159.5,158.18312955647707L159.5,158.19286458939314L159.5,158.243309520185L159.5,158.28977313637733L159.5,158.3384469822049L159.5,158.26720532029867L159.5,158.36189968138933L161.91666666666666,155.86266010254622L161.91666666666666,157.42601249367L161.91666666666666,157.85568060725927L161.91666666666666,157.61761540174484L161.91666666666666,157.55699233710766L161.91666666666666,157.61186300218105L161.91666666666666,157.69151303172112L161.91666666666666,157.83045814186335L161.91666666666666,157.93577241897583L161.91666666666666,158.1455174088478L161.91666666666666,158.10480751097202L161.91666666666666,158.136225476861L161.91666666666666,157.98311959952116L164.33333333333334,158.28092298656702L164.33333333333334,157.5176104232669L164.33333333333334,158.13002997636795L164.33333333333334,158.2871171683073L164.33333333333334,158.54686530679464L164.33333333333334,158.59952310472727L164.33333333333334,158.58137970417738L164.33333333333334,158.5902298539877L164.33333333333334,158.61678030341864L164.33333333333334,158.64775516837835L164.33333333333334,158.66235771775246L166.75,159.0252072662115L166.75,158.8119227439165L166.75,158.80794011056423L166.75,158.43933684378862L166.75,158.5535025894642L166.75,158.71634218096733L166.75,158.7897980287671L166.75,158.84201272577047L169.16666666666669,159.19158770889044L169.16666666666669,159.0805197134614L169.16666666666669,159.1703478768468L169.16666666666669,159.35442730039358L169.16666666666669,159.4407146126032L169.16666666666669,159.5194797590375L169.16666666666669,159.52611704170704L169.16666666666669,159.5265601426363L169.16666666666669,159.52169262617826L169.16666666666669,159.52213440835476L169.16666666666669,159.5504546239972L171.58333333333334,159.43982972949743L171.58333333333334,159.5265601426363L171.58333333333334,159.47434544563293L171.58333333333334,159.50841806083918L171.58333333333334,159.45797313004732L174,160.41288728266954L174,159.80533524602652L174,159.48938977718353L174,159.3761102333665L174,159.57390732318163L174,159.61727187037468L174,159.6531155705452L174,159.5544372573495L174,159.61506032198668L176.41666666666666,158.55748522281647L176.41666666666666,158.99334751814604L176.41666666666666,159.47788497805595L176.41666666666666,159.52346239238977L176.41666666666666,159.41903299838305L176.41666666666666,159.50310744345188L176.41666666666666,159.60134265571833L176.41666666666666,159.62833488732576L176.41666666666666,159.59337738901377L176.41666666666666,159.64160945266485L176.41666666666666,159.67922291904688L176.41666666666666,159.63674193620682L178.83333333333334,160.88813281059265L178.83333333333334,160.47660809755325L178.83333333333334,160.53811472654343L178.83333333333334,160.5182028785348L178.83333333333334,160.26951775699854L178.83333333333334,160.29562510550022L178.83333333333334,160.20314229279757L178.83333333333334,160.17438029497862L178.83333333333334,160.2150901928544L178.83333333333334,160.20402717590332L178.83333333333334,160.3987278342247L181.25,161.06247720122337L181.25,160.7310456186533L181.25,160.58148059248924L181.25,160.5757268741727L181.25,160.5841352418065L181.25,160.70272540301085L181.25,160.5385578274727L183.66666666666666,160.33058260381222L183.66666666666666,160.63590815663338L183.66666666666666,160.5642220750451L183.66666666666666,160.69918455183506L183.66666666666666,160.71511508524418L183.66666666666666,160.64741295576096L183.66666666666666,160.5987377911806L183.66666666666666,160.5566999092698L183.66666666666666,160.54475200921297L183.66666666666666,160.5699744746089L183.66666666666666,160.42129565030336L183.66666666666666,160.44032261520624L183.66666666666666,160.4704125970602L183.66666666666666,160.4965199455619L186.08333333333334,162.06164210289717L186.08333333333334,161.5629451945424L186.08333333333334,161.24876949191093L186.08333333333334,161.14964939653873L186.08333333333334,161.22222036123276L186.08333333333334,160.86379522830248L186.08333333333334,160.87883955985308L186.08333333333334,160.88459195941687L186.08333333333334,160.87972444295883L186.08333333333334,160.89344210922718L188.5,159.83011461049318L188.5,160.1310144290328L188.5,160.10048266500235L188.5,160.19738989323378L188.5,160.26774799078703L188.5,160.3841252848506L188.5,160.53678806126118L188.5,160.5956400409341L190.91666666666666,161.3700156211853L190.91666666666666,161.24257531017065L190.91666666666666,161.20805959403515L190.91666666666666,161.11159546673298L190.91666666666666,161.06203541904688L190.91666666666666,161.10363020002842L190.91666666666666,161.153632029891L190.91666666666666,161.07221223413944L190.91666666666666,161.04256535321474L190.91666666666666,161.08858454972506L190.91666666666666,161.0726553350687L193.33333333333331,161.09654981642962L193.33333333333331,160.92884270846844L193.33333333333331,160.98150050640106L193.33333333333331,161.02398017048836L193.33333333333331,160.93238224089146L193.33333333333331,160.99964258819818L193.33333333333331,160.92928449064493L195.75,161.5319703295827L195.75,161.43417689949274L195.75,161.2509823590517L195.75,161.44877944886684L195.75,161.44700968265533L195.75,161.41161040216684L195.75,161.3908123522997L195.75,161.36205035448074L195.75,161.43904441595078L195.75,161.40453001856804L195.75,161.3571828380227L198.16666666666666,161.09566493332386L198.16666666666666,161.45320518314838L198.16666666666666,161.71826262027025L198.16666666666666,161.83906564861536L198.16666666666666,161.7797705680132L198.16666666666666,161.87269516289234L198.16666666666666,161.84658781439066L198.16666666666666,161.7983544319868L198.16666666666666,161.82844441384077L198.16666666666666,161.81561294943094L200.58333333333334,162.10766261816025L200.58333333333334,161.87225206196308L200.58333333333334,161.9027851447463L200.58333333333334,161.93907062709332L200.58333333333334,161.9213703274727L200.58333333333334,161.93995551019907L200.58333333333334,161.9085375443101L200.58333333333334,161.89880251139402L200.58333333333334,161.67932248860598L200.58333333333334,161.79393001645803L203,161.11601988226175L203,161.50718964636326L203,162.00102035701275L203,161.84924246370792L203,161.824019998312L203,161.83906564861536L203,161.75897251814604L203,161.83065728098154L203,161.893934994936L203,162.06562473624945L203,161.78773451596498L205.41666666666669,161.86738454550505L205.41666666666669,161.87313694506884L205.41666666666669,161.89305011183023L205.41666666666669,161.9231400936842L205.41666666666669,161.9505754262209L205.41666666666669,161.87888934463263L205.41666666666669,161.8333119302988L205.41666666666669,161.88685461133718L207.83333333333334,161.61029237508774L207.83333333333334,162.32625775784254L207.83333333333334,162.26917554438114L207.83333333333334,162.23112029582262L207.83333333333334,162.45192698389292L207.83333333333334,162.53246189653873L207.83333333333334,162.55724257975817L207.83333333333334,162.5488355308771L210.25,163.64977517724037L210.25,163.0931098535657L210.25,163.1223149523139L210.25,163.03514275699854L210.25,163.05593948811293L210.25,163.0431080237031L210.25,163.01301804184914L210.25,162.85902728140354L210.25,162.53157701343298L210.25,162.54352491348982L210.25,162.55857056379318L212.66666666666666,162.10943238437176L212.66666666666666,161.363377019763L212.66666666666666,162.4191823527217L212.66666666666666,162.60547464340925L212.66666666666666,162.6355646252632L212.66666666666666,162.59795247763395L212.66666666666666,162.62981222569942L212.66666666666666,162.6829131245613L212.66666666666666,162.6059177443385L212.66666666666666,162.65901732444763L212.66666666666666,162.64220190793276L215.08333333333334,163.0709851384163L215.08333333333334,163.1922299489379L215.08333333333334,163.11434968560934L215.08333333333334,162.92717251181602L215.08333333333334,162.63025532662868L215.08333333333334,162.711232021451L215.08333333333334,162.72893232107162L215.08333333333334,162.743977971375L215.08333333333334,162.70017032325268L215.08333333333334,162.746189519763L217.5,163.3776373565197L217.5,162.75194191932678L217.5,162.83601768314838L217.5,163.16966213285923L217.5,163.1643528342247L217.5,163.11169503629208L217.5,163.13913036882877L219.91666666666666,163.47454458475113L219.91666666666666,163.33781234174967L219.91666666666666,163.3333879262209L219.91666666666666,163.34887535870075L219.91666666666666,163.30905034393072L219.91666666666666,163.15594446659088L222.33333333333334,163.10284488648176L222.33333333333334,163.276747494936L222.33333333333334,163.21789551526308L222.33333333333334,163.3063943758607L222.33333333333334,163.24754239618778L222.33333333333334,163.22585946321487L222.33333333333334,163.38958525657654L222.33333333333334,163.28294299542904L222.33333333333334,163.26789734512568L222.33333333333334,163.23559449613094L222.33333333333334,163.22099194675684L222.33333333333334,163.2435597628355L224.75,164.37193474173546L224.75,164.58566236495972L224.75,164.29626734554768L224.75,163.9581971615553L224.75,163.43339290469885L224.75,163.49268798530102L224.75,163.43870220333338L224.75,163.491360001266L224.75,163.54888531565666L224.75,163.56039011478424L224.75,163.58207304775715L227.16666666666666,164.45999313890934L227.16666666666666,164.21883018314838L227.16666666666666,164.09758537262678L227.16666666666666,163.94979011267424L227.16666666666666,164.01572247594595L227.16666666666666,163.9431528300047L227.16666666666666,163.89137991517782L229.58333333333331,162.4116601869464L229.58333333333331,163.42321477085352L229.58333333333331,163.82234980165958L229.58333333333331,163.85420954972506L229.58333333333331,163.89314968138933L229.58333333333331,163.92722229659557L229.58333333333331,163.89978696405888L229.58333333333331,163.86261791735888L229.58333333333331,163.82146491855383L232,164.65469247847795L232,163.7949144691229L232,163.77146308869123L232,163.90332781523466L232,163.91970013082027L232,163.89093813300133L232,163.90775223076344L232,163.88429953157902L232,163.86925520002842L232,163.8935927823186L234.41666666666666,163.9949244260788L234.41666666666666,163.61127814650536L234.41666666666666,163.82323468476534L234.41666666666666,163.74314287304878L234.41666666666666,164.02590060979128L234.41666666666666,163.97855211049318L234.41666666666666,163.88120310008526L234.41666666666666,163.89491944760084L234.41666666666666,163.91261974722147L234.41666666666666,163.87589248269796L234.41666666666666,163.8714680671692L234.41666666666666,163.87190984934568L236.83333333333334,164.50158791989088L236.83333333333334,164.6130976974964L236.83333333333334,164.53388945013285L236.83333333333334,164.47990498691797L236.83333333333334,164.19360771775246L236.83333333333334,164.19936011731625L236.83333333333334,164.126790471375L236.83333333333334,164.15688045322895L236.83333333333334,164.1506849527359L236.83333333333334,164.1449325531721L236.83333333333334,164.16263285279274L236.83333333333334,164.1577653363347L236.83333333333334,164.10953195393085L239.25,164.31662229448557L239.25,164.0511230751872L239.25,164.10245288908482L239.25,163.9210281148553L239.25,163.98297784477472L239.25,164.07767220586538L239.25,164.0790001899004L239.25,164.09670048952103L241.66666666666669,164.94762703031301L241.66666666666669,164.98391251266003L241.66666666666669,164.65779022872448L241.66666666666669,164.4573371708393L241.66666666666669,164.46397445350885L241.66666666666669,164.28564742952585L244.08333333333334,164.57902508229017L244.08333333333334,164.49495063722134L244.08333333333334,164.6175221130252L244.08333333333334,164.54273959994316L244.08333333333334,164.45955003798008L244.08333333333334,164.45468252152205L246.5,165.08214772492647L246.5,165.03125969320536L246.5,164.7622196227312L246.5,164.61840699613094L246.5,164.55734214931726L246.5,164.43963687121868L246.5,164.49539241939783L246.5,164.4830027371645L246.5,164.64451434463263L246.5,164.67062301188707L246.5,164.68743710964918L248.91666666666666,165.17861185222864L248.91666666666666,165.26844001561403L248.91666666666666,165.64987474679947L248.91666666666666,165.19719703495502L248.91666666666666,165.00028482824564L248.91666666666666,164.95780516415834L248.91666666666666,164.92284766584635L248.91666666666666,164.91930813342333L248.91666666666666,164.9166521653533L251.33333333333334,165.03081791102886L251.33333333333334,164.90426248311996L251.33333333333334,164.86753521859646L251.33333333333334,164.99807196110487L251.33333333333334,164.96134469658136L251.33333333333334,164.94320261478424L251.33333333333334,164.96665531396866L251.33333333333334,164.90868689864874L253.75,165.16931992024183L253.75,165.42641209065914L253.75,165.2564921155572L253.75,165.2122426852584L253.75,165.0082500949502L253.75,165.00559544563293L253.75,165.05294262617826L253.75,165.0648905262351L253.75,165.07683710753918L256.1666666666667,165.8379381224513L256.1666666666667,165.63792684674263L256.1666666666667,165.54544535279274L256.1666666666667,165.57465045154095L256.1666666666667,165.57465045154095L256.1666666666667,165.49500042200089L256.1666666666667,165.51048785448074L256.1666666666667,165.51402738690376L256.1666666666667,165.50650522112846L256.1666666666667,165.50075282156467L258.58333333333337,164.88921815156937L258.58333333333337,164.75779520720243L258.58333333333337,164.65911689400673L258.58333333333337,164.65823201090097L258.58333333333337,164.6405330300331L258.58333333333337,164.69186284393072L258.58333333333337,164.7396531254053L258.58333333333337,164.84983491897583L258.58333333333337,164.8852355182171L258.58333333333337,164.94098974764347L261,165.0653323084116L261,165.20383563637733L261,165.19852501899004L261,165.14099970459938L261,165.16887813806534L261,165.1348055228591L261,165.13569040596485L263.4166666666667,165.89236436784267L263.4166666666667,165.4711046218872L263.4166666666667,165.19498548656702L263.4166666666667,165.2140124514699L263.4166666666667,165.25914808362722L263.4166666666667,165.25516545027494L263.4166666666667,165.25693521648645L263.4166666666667,165.298529997468L263.4166666666667,165.35074469447136L263.4166666666667,165.33923989534378L263.4166666666667,165.34764694422483L265.8333333333333,165.59810315072536L265.8333333333333,165.64323746412992L265.8333333333333,165.62863491475582L265.8333333333333,165.4750872552395L265.8333333333333,165.4272969737649L265.8333333333333,165.36003794521093L265.8333333333333,165.3631343767047L265.8333333333333,165.41446550935507L265.8333333333333,165.48083965480328L265.8333333333333,165.48526538908482L265.8333333333333,165.47951298952103L265.8333333333333,165.44809502363205L265.8333333333333,165.43526224046946" style="fill: none;" fill="none"></path></g></g></g></g></g></g><g transform="translate(40, 177)" clip-path="url(#clip_1)"><clipPath id="clip_1"><rect width="290" height="23"></rect></clipPath><g><g><line x1="0" y1="0" x2="0" y2="5" style="visibility: inherit;" fill="rgb(0, 0, 0)" stroke="rgb(204, 204, 204)" stroke-width="1px"></line><line x1="24.166666666666664" y1="0" x2="24.166666666666664" y2="5" style="visibility: inherit;" fill="rgb(0, 0, 0)" stroke="rgb(204, 204, 204)" stroke-width="1px"></line><line x1="48.33333333333333" y1="0" x2="48.33333333333333" y2="5" style="visibility: inherit;" fill="rgb(0, 0, 0)" stroke="rgb(204, 204, 204)" stroke-width="1px"></line><line x1="72.5" y1="0" x2="72.5" y2="5" style="visibility: inherit;" fill="rgb(0, 0, 0)" stroke="rgb(204, 204, 204)" stroke-width="1px"></line><line x1="96.66666666666666" y1="0" x2="96.66666666666666" y2="5" style="visibility: inherit;" fill="rgb(0, 0, 0)" stroke="rgb(204, 204, 204)" stroke-width="1px"></line><line x1="120.83333333333334" y1="0" x2="120.83333333333334" y2="5" style="visibility: inherit;" fill="rgb(0, 0, 0)" stroke="rgb(204, 204, 204)" stroke-width="1px"></line><line x1="145" y1="0" x2="145" y2="5" style="visibility: inherit;" fill="rgb(0, 0, 0)" stroke="rgb(204, 204, 204)" stroke-width="1px"></line><line x1="169.16666666666669" y1="0" x2="169.16666666666669" y2="5" style="visibility: inherit;" fill="rgb(0, 0, 0)" stroke="rgb(204, 204, 204)" stroke-width="1px"></line><line x1="193.33333333333331" y1="0" x2="193.33333333333331" y2="5" style="visibility: inherit;" fill="rgb(0, 0, 0)" stroke="rgb(204, 204, 204)" stroke-width="1px"></line><line x1="217.5" y1="0" x2="217.5" y2="5" style="visibility: inherit;" fill="rgb(0, 0, 0)" stroke="rgb(204, 204, 204)" stroke-width="1px"></line><line x1="241.66666666666669" y1="0" x2="241.66666666666669" y2="5" style="visibility: inherit;" fill="rgb(0, 0, 0)" stroke="rgb(204, 204, 204)" stroke-width="1px"></line><line x1="265.8333333333333" y1="0" x2="265.8333333333333" y2="5" style="visibility: inherit;" fill="rgb(0, 0, 0)" stroke="rgb(204, 204, 204)" stroke-width="1px"></line><line x1="290" y1="0" x2="290" y2="5" style="visibility: inherit;" fill="rgb(0, 0, 0)" stroke="rgb(204, 204, 204)" stroke-width="1px"></line></g><g transform="translate(0, 8)"><text x="0" y="0" dx="0em" dy="0.95em" style="text-anchor: middle; visibility: hidden; font-family: Roboto, sans-serif; font-size: 12px; font-weight: 200;" fill="rgb(33, 33, 33)" stroke="none" stroke-width="1px">-10</text><text x="24.166666666666664" y="0" dx="0em" dy="0.95em" style="text-anchor: middle; visibility: inherit; font-family: Roboto, sans-serif; font-size: 12px; font-weight: 200;" fill="rgb(33, 33, 33)" stroke="none" stroke-width="1px">0</text><text x="48.33333333333333" y="0" dx="0em" dy="0.95em" style="text-anchor: middle; visibility: inherit; font-family: Roboto, sans-serif; font-size: 12px; font-weight: 200;" fill="rgb(33, 33, 33)" stroke="none" stroke-width="1px">10</text><text x="72.5" y="0" dx="0em" dy="0.95em" style="text-anchor: middle; visibility: inherit; font-family: Roboto, sans-serif; font-size: 12px; font-weight: 200;" fill="rgb(33, 33, 33)" stroke="none" stroke-width="1px">20</text><text x="96.66666666666666" y="0" dx="0em" dy="0.95em" style="text-anchor: middle; visibility: inherit; font-family: Roboto, sans-serif; font-size: 12px; font-weight: 200;" fill="rgb(33, 33, 33)" stroke="none" stroke-width="1px">30</text><text x="120.83333333333334" y="0" dx="0em" dy="0.95em" style="text-anchor: middle; visibility: inherit; font-family: Roboto, sans-serif; font-size: 12px; font-weight: 200;" fill="rgb(33, 33, 33)" stroke="none" stroke-width="1px">40</text><text x="145" y="0" dx="0em" dy="0.95em" style="text-anchor: middle; visibility: inherit; font-family: Roboto, sans-serif; font-size: 12px; font-weight: 200;" fill="rgb(33, 33, 33)" stroke="none" stroke-width="1px">50</text><text x="169.16666666666669" y="0" dx="0em" dy="0.95em" style="text-anchor: middle; visibility: inherit; font-family: Roboto, sans-serif; font-size: 12px; font-weight: 200;" fill="rgb(33, 33, 33)" stroke="none" stroke-width="1px">60</text><text x="193.33333333333331" y="0" dx="0em" dy="0.95em" style="text-anchor: middle; visibility: inherit; font-family: Roboto, sans-serif; font-size: 12px; font-weight: 200;" fill="rgb(33, 33, 33)" stroke="none" stroke-width="1px">70</text><text x="217.5" y="0" dx="0em" dy="0.95em" style="text-anchor: middle; visibility: inherit; font-family: Roboto, sans-serif; font-size: 12px; font-weight: 200;" fill="rgb(33, 33, 33)" stroke="none" stroke-width="1px">80</text><text x="241.66666666666669" y="0" dx="0em" dy="0.95em" style="text-anchor: middle; visibility: inherit; font-family: Roboto, sans-serif; font-size: 12px; font-weight: 200;" fill="rgb(33, 33, 33)" stroke="none" stroke-width="1px">90</text><text x="265.8333333333333" y="0" dx="0em" dy="0.95em" style="text-anchor: middle; visibility: inherit; font-family: Roboto, sans-serif; font-size: 12px; font-weight: 200;" fill="rgb(33, 33, 33)" stroke="none" stroke-width="1px">100</text><text x="290" y="0" dx="0em" dy="0.95em" style="text-anchor: middle; visibility: hidden; font-family: Roboto, sans-serif; font-size: 12px; font-weight: 200;" fill="rgb(33, 33, 33)" stroke="none" stroke-width="1px">110</text></g><line x1="0" y1="0" x2="290" y2="0" fill="rgb(0, 0, 0)" stroke="rgb(204, 204, 204)" stroke-width="1px"></line></g></g></g></g></svg>