<svg viewBox="0 0 330 200" xmlns="http://www.w3.org/2000/svg"><g><g><g><g><g><line x1="40" y1="177" x2="35" y2="177" style="visibility: inherit;" fill="rgb(0, 0, 0)" stroke="rgb(204, 204, 204)" stroke-width="1px"></line><line x1="40" y1="165.2" x2="35" y2="165.2" style="visibility: inherit;" fill="rgb(0, 0, 0)" stroke="rgb(204, 204, 204)" stroke-width="1px"></line><line x1="40" y1="153.4" x2="35" y2="153.4" style="visibility: inherit;" fill="rgb(0, 0, 0)" stroke="rgb(204, 204, 204)" stroke-width="1px"></line><line x1="40" y1="141.6" x2="35" y2="141.6" style="visibility: inherit;" fill="rgb(0, 0, 0)" stroke="rgb(204, 204, 204)" stroke-width="1px"></line><line x1="40" y1="129.8" x2="35" y2="129.8" style="visibility: inherit;" fill="rgb(0, 0, 0)" stroke="rgb(204, 204, 204)" stroke-width="1px"></line><line x1="40" y1="118.00000000000001" x2="35" y2="118.00000000000001" style="visibility: inherit;" fill="rgb(0, 0, 0)" stroke="rgb(204, 204, 204)" stroke-width="1px"></line><line x1="40" y1="106.19999999999997" x2="35" y2="106.19999999999997" style="visibility: inherit;" fill="rgb(0, 0, 0)" stroke="rgb(204, 204, 204)" stroke-width="1px"></line><line x1="40" y1="94.40000000000002" x2="35" y2="94.40000000000002" style="visibility: inherit;" fill="rgb(0, 0, 0)" stroke="rgb(204, 204, 204)" stroke-width="1px"></line><line x1="40" y1="82.6" x2="35" y2="82.6" style="visibility: inherit;" fill="rgb(0, 0, 0)" stroke="rgb(204, 204, 204)" stroke-width="1px"></line><line x1="40" y1="70.8" x2="35" y2="70.8" style="visibility: inherit;" fill="rgb(0, 0, 0)" stroke="rgb(204, 204, 204)" stroke-width="1px"></line><line x1="40" y1="59.00000000000001" x2="35" y2="59.00000000000001" style="visibility: inherit;" fill="rgb(0, 0, 0)" stroke="rgb(204, 204, 204)" stroke-width="1px"></line><line x1="40" y1="47.20000000000001" x2="35" y2="47.20000000000001" style="visibility: inherit;" fill="rgb(0, 0, 0)" stroke="rgb(204, 204, 204)" stroke-width="1px"></line><line x1="40" y1="35.40000000000001" x2="35" y2="35.40000000000001" style="visibility: inherit;" fill="rgb(0, 0, 0)" stroke="rgb(204, 204, 204)" stroke-width="1px"></line><line x1="40" y1="23.599999999999994" x2="35" y2="23.599999999999994" style="visibility: inherit;" fill="rgb(0, 0, 0)" stroke="rgb(204, 204, 204)" stroke-width="1px"></line><line x1="40" y1="11.800000000000017" x2="35" y2="11.800000000000017" style="visibility: inherit;" fill="rgb(0, 0, 0)" stroke="rgb(204, 204, 204)" stroke-width="1px"></line><line x1="40" y1="0" x2="35" y2="0" style="visibility: inherit;" fill="rgb(0, 0, 0)" stroke="rgb(204, 204, 204)" stroke-width="1px"></line></g><g transform="translate(30, 0)"><text x="0" y="177" dx="0em" dy="0.3em" style="text-anchor: end; visibility: hidden; font-family: Roboto, sans-serif; font-size: 12px; font-weight: 200;" fill="rgb(33, 33, 33)" stroke="none" stroke-width="1px">0.6</text><text x="0" y="165.2" dx="0em" dy="0.3em" style="text-anchor: end; visibility: inherit; font-family: Roboto, sans-serif; font-size: 12px; font-weight: 200;" fill="rgb(33, 33, 33)" stroke="none" stroke-width="1px">0.8</text><text x="0" y="153.4" dx="0em" dy="0.3em" style="text-anchor: end; visibility: hidden; font-family: Roboto, sans-serif; font-size: 12px; font-weight: 200;" fill="rgb(33, 33, 33)" stroke="none" stroke-width="1px">1</text><text x="0" y="141.6" dx="0em" dy="0.3em" style="text-anchor: end; visibility: inherit; font-family: Roboto, sans-serif; font-size: 12px; font-weight: 200;" fill="rgb(33, 33, 33)" stroke="none" stroke-width="1px">1.2</text><text x="0" y="129.8" dx="0em" dy="0.3em" style="text-anchor: end; visibility: hidden; font-family: Roboto, sans-serif; font-size: 12px; font-weight: 200;" fill="rgb(33, 33, 33)" stroke="none" stroke-width="1px">1.4</text><text x="0" y="118.00000000000001" dx="0em" dy="0.3em" style="text-anchor: end; visibility: inherit; font-family: Roboto, sans-serif; font-size: 12px; font-weight: 200;" fill="rgb(33, 33, 33)" stroke="none" stroke-width="1px">1.6</text><text x="0" y="106.19999999999997" dx="0em" dy="0.3em" style="text-anchor: end; visibility: hidden; font-family: Roboto, sans-serif; font-size: 12px; font-weight: 200;" fill="rgb(33, 33, 33)" stroke="none" stroke-width="1px">1.8</text><text x="0" y="94.40000000000002" dx="0em" dy="0.3em" style="text-anchor: end; visibility: inherit; font-family: Roboto, sans-serif; font-size: 12px; font-weight: 200;" fill="rgb(33, 33, 33)" stroke="none" stroke-width="1px">2</text><text x="0" y="82.6" dx="0em" dy="0.3em" style="text-anchor: end; visibility: hidden; font-family: Roboto, sans-serif; font-size: 12px; font-weight: 200;" fill="rgb(33, 33, 33)" stroke="none" stroke-width="1px">2.2</text><text x="0" y="70.8" dx="0em" dy="0.3em" style="text-anchor: end; visibility: inherit; font-family: Roboto, sans-serif; font-size: 12px; font-weight: 200;" fill="rgb(33, 33, 33)" stroke="none" stroke-width="1px">2.4</text><text x="0" y="59.00000000000001" dx="0em" dy="0.3em" style="text-anchor: end; visibility: hidden; font-family: Roboto, sans-serif; font-size: 12px; font-weight: 200;" fill="rgb(33, 33, 33)" stroke="none" stroke-width="1px">2.6</text><text x="0" y="47.20000000000001" dx="0em" dy="0.3em" style="text-anchor: end; visibility: inherit; font-family: Roboto, sans-serif; font-size: 12px; font-weight: 200;" fill="rgb(33, 33, 33)" stroke="none" stroke-width="1px">2.8</text><text x="0" y="35.40000000000001" dx="0em" dy="0.3em" style="text-anchor: end; visibility: hidden; font-family: Roboto, sans-serif; font-size: 12px; font-weight: 200;" fill="rgb(33, 33, 33)" stroke="none" stroke-width="1px">3</text><text x="0" y="23.599999999999994" dx="0em" dy="0.3em" style="text-anchor: end; visibility: inherit; font-family: Roboto, sans-serif; font-size: 12px; font-weight: 200;" fill="rgb(33, 33, 33)" stroke="none" stroke-width="1px">3.2</text><text x="0" y="11.800000000000017" dx="0em" dy="0.3em" style="text-anchor: end; visibility: hidden; font-family: Roboto, sans-serif; font-size: 12px; font-weight: 200;" fill="rgb(33, 33, 33)" stroke="none" stroke-width="1px">3.4</text><text x="0" y="0" dx="0em" dy="0.3em" style="text-anchor: end; visibility: hidden; font-family: Roboto, sans-serif; font-size: 12px; font-weight: 200;" fill="rgb(33, 33, 33)" stroke="none" stroke-width="1px">3.6</text></g><line x1="40" y1="0" x2="40" y2="177" fill="rgb(0, 0, 0)" stroke="rgb(204, 204, 204)" stroke-width="1px"></line></g></g><g transform="translate(40, 0)" clip-path="url(#clip_0)"><clipPath id="clip_0"><rect width="290" height="177"></rect></clipPath><g><g><g><line x1="0" y1="0" x2="0" y2="177" fill="rgb(0, 0, 0)" stroke="rgb(66, 66, 66)" stroke-width="1px" opacity="0.25"></line><line x1="24.166666666666664" y1="0" x2="24.166666666666664" y2="177" fill="rgb(0, 0, 0)" stroke="rgb(66, 66, 66)" stroke-width="1px" opacity="0.25"></line><line x1="48.33333333333333" y1="0" x2="48.33333333333333" y2="177" fill="rgb(0, 0, 0)" stroke="rgb(66, 66, 66)" stroke-width="1px" opacity="0.25"></line><line x1="72.5" y1="0" x2="72.5" y2="177" fill="rgb(0, 0, 0)" stroke="rgb(66, 66, 66)" stroke-width="1px" opacity="0.25"></line><line x1="96.66666666666666" y1="0" x2="96.66666666666666" y2="177" fill="rgb(0, 0, 0)" stroke="rgb(66, 66, 66)" stroke-width="1px" opacity="0.25"></line><line x1="120.83333333333334" y1="0" x2="120.83333333333334" y2="177" fill="rgb(0, 0, 0)" stroke="rgb(66, 66, 66)" stroke-width="1px" opacity="0.25"></line><line x1="145" y1="0" x2="145" y2="177" fill="rgb(0, 0, 0)" stroke="rgb(66, 66, 66)" stroke-width="1px" opacity="0.25"></line><line x1="169.16666666666669" y1="0" x2="169.16666666666669" y2="177" fill="rgb(0, 0, 0)" stroke="rgb(66, 66, 66)" stroke-width="1px" opacity="0.25"></line><line x1="193.33333333333331" y1="0" x2="193.33333333333331" y2="177" fill="rgb(0, 0, 0)" stroke="rgb(66, 66, 66)" stroke-width="1px" opacity="0.25"></line><line x1="217.5" y1="0" x2="217.5" y2="177" fill="rgb(0, 0, 0)" stroke="rgb(66, 66, 66)" stroke-width="1px" opacity="0.25"></line><line x1="241.66666666666669" y1="0" x2="241.66666666666669" y2="177" fill="rgb(0, 0, 0)" stroke="rgb(66, 66, 66)" stroke-width="1px" opacity="0.25"></line><line x1="265.8333333333333" y1="0" x2="265.8333333333333" y2="177" fill="rgb(0, 0, 0)" stroke="rgb(66, 66, 66)" stroke-width="1px" opacity="0.25"></line><line x1="290" y1="0" x2="290" y2="177" fill="rgb(0, 0, 0)" stroke="rgb(66, 66, 66)" stroke-width="1px" opacity="0.25"></line></g><g><line x1="0" y1="177" x2="290" y2="177" fill="rgb(0, 0, 0)" stroke="rgb(66, 66, 66)" stroke-width="1px" opacity="0.25"></line><line x1="0" y1="165.2" x2="290" y2="165.2" fill="rgb(0, 0, 0)" stroke="rgb(66, 66, 66)" stroke-width="1px" opacity="0.25"></line><line x1="0" y1="153.4" x2="290" y2="153.4" fill="rgb(0, 0, 0)" stroke="rgb(66, 66, 66)" stroke-width="1px" opacity="0.25"></line><line x1="0" y1="141.6" x2="290" y2="141.6" fill="rgb(0, 0, 0)" stroke="rgb(66, 66, 66)" stroke-width="1px" opacity="0.25"></line><line x1="0" y1="129.8" x2="290" y2="129.8" fill="rgb(0, 0, 0)" stroke="rgb(66, 66, 66)" stroke-width="1px" opacity="0.25"></line><line x1="0" y1="118.00000000000001" x2="290" y2="118.00000000000001" fill="rgb(0, 0, 0)" stroke="rgb(66, 66, 66)" stroke-width="1px" opacity="0.25"></line><line x1="0" y1="106.19999999999997" x2="290" y2="106.19999999999997" fill="rgb(0, 0, 0)" stroke="rgb(66, 66, 66)" stroke-width="1px" opacity="0.25"></line><line x1="0" y1="94.40000000000002" x2="290" y2="94.40000000000002" fill="rgb(0, 0, 0)" stroke="rgb(66, 66, 66)" stroke-width="1px" opacity="0.25"></line><line x1="0" y1="82.6" x2="290" y2="82.6" fill="rgb(0, 0, 0)" stroke="rgb(66, 66, 66)" stroke-width="1px" opacity="0.25"></line><line x1="0" y1="70.8" x2="290" y2="70.8" fill="rgb(0, 0, 0)" stroke="rgb(66, 66, 66)" stroke-width="1px" opacity="0.25"></line><line x1="0" y1="59.00000000000001" x2="290" y2="59.00000000000001" fill="rgb(0, 0, 0)" stroke="rgb(66, 66, 66)" stroke-width="1px" opacity="0.25"></line><line x1="0" y1="47.20000000000001" x2="290" y2="47.20000000000001" fill="rgb(0, 0, 0)" stroke="rgb(66, 66, 66)" stroke-width="1px" opacity="0.25"></line><line x1="0" y1="35.40000000000001" x2="290" y2="35.40000000000001" fill="rgb(0, 0, 0)" stroke="rgb(66, 66, 66)" stroke-width="1px" opacity="0.25"></line><line x1="0" y1="23.599999999999994" x2="290" y2="23.599999999999994" fill="rgb(0, 0, 0)" stroke="rgb(66, 66, 66)" stroke-width="1px" opacity="0.25"></line><line x1="0" y1="11.800000000000017" x2="290" y2="11.800000000000017" fill="rgb(0, 0, 0)" stroke="rgb(66, 66, 66)" stroke-width="1px" opacity="0.25"></line><line x1="0" y1="0" x2="290" y2="0" fill="rgb(0, 0, 0)" stroke="rgb(66, 66, 66)" stroke-width="1px" opacity="0.25"></line></g></g></g><g><g><line x1="0" y1="212.4" x2="290" y2="212.4" fill="rgb(0, 0, 0)" stroke="rgb(153, 153, 153)" stroke-width="1.5px"></line></g></g><g><g><line x1="24.166666666666664" y1="0" x2="24.166666666666664" y2="177" fill="rgb(0, 0, 0)" stroke="rgb(153, 153, 153)" stroke-width="1.5px"></line></g></g><g><g><g><g><g><path stroke="rgb(0, 119, 187)" stroke-width="2px" d="M26.583333333333332,21.91318931579591L26.583333333333332,28.31635662470097L26.583333333333332,34.52292563967487L26.583333333333332,44.37221264196029L26.583333333333332,50.762280279603814L26.583333333333332,55.417016919331694L26.583333333333332,58.937294996940324L29,68.64740489695835L29,76.06124454758671L29,82.1579803701749L29,87.1896184899084L29,91.41482433439542L29,94.97953616548685L29,98.00716821986515L29,100.66894920529988L29,103.01407957458296L31.416666666666668,105.22758802310943L31.416666666666668,106.87832342230806L31.416666666666668,108.26406170333087L31.416666666666668,109.46972243265148L31.416666666666668,110.60214926396883L31.416666666666668,111.6593059544648L31.416666666666668,112.59872158521216L31.416666666666668,113.47257097382548L33.833333333333336,114.36207360251035L33.833333333333336,114.82054697292193L33.833333333333336,115.30558840132618L33.833333333333336,115.79833541301464L33.833333333333336,116.3262664512458L33.833333333333336,116.81633603038873L33.833333333333336,117.27179887632917L33.833333333333336,117.705221839255L36.25,118.64309225856782L36.25,119.62750400572807L36.25,120.41879582224034L36.25,121.06007189776102L36.25,121.59806283204298L36.25,122.09245322667081L36.25,122.55780262534668L36.25,122.95168019206893L36.25,123.29386424472186L38.666666666666664,123.6428967740726L38.666666666666664,124.02338470545904L38.666666666666664,124.35122211893078L38.666666666666664,124.64598042539969L38.666666666666664,124.9249621821997L38.666666666666664,125.18360714832468L38.666666666666664,125.37847152666842L38.666666666666664,125.54391811805881L38.666666666666664,125.71099058297071L41.083333333333336,125.85263481182915L41.083333333333336,125.97019817778563L41.083333333333336,126.07563019637401L41.083333333333336,126.1666011624178L41.083333333333336,126.24813492166447L41.083333333333336,126.33406466105137L41.083333333333336,126.41407477938326L41.083333333333336,126.49045091352467L43.5,126.43512218358165L43.5,126.38326729555924L43.5,126.39058120534338L43.5,126.42756842495892L43.5,126.49166623321067L43.5,126.56817944170307L43.5,126.63029820551364L45.916666666666664,126.71391196744923L45.916666666666664,126.77656952997046L45.916666666666664,126.86553069347171L45.916666666666664,126.9884168446973L45.916666666666664,127.10094799179038L45.916666666666664,127.20981402923208L48.33333333333333,127.49510558119833L48.33333333333333,127.74629746769787L48.33333333333333,127.96749770638975L48.33333333333333,128.14817522460203L48.33333333333333,128.28131507211575L48.33333333333333,128.4183581369543L48.33333333333333,128.53716835097066L48.33333333333333,128.63412100807193L48.33333333333333,128.73697706755723L50.75,128.95029704979774L50.75,129.16537710811636L50.75,129.39796318409174L50.75,129.52529932647133L50.75,129.64433656015757L50.75,129.7438335540809L50.75,129.83289465568149L53.166666666666664,130.000081261374L53.166666666666664,130.15312357482563L53.166666666666664,130.29960855788298L53.166666666666664,130.44020470918184L53.166666666666664,130.546197546309L53.166666666666664,130.6378421998733L53.166666666666664,130.7386869013458L53.166666666666664,130.8353309511701L53.166666666666664,130.90745754555053L53.166666666666664,130.98771935289167L55.583333333333336,131.04980860385731L55.583333333333336,131.1305721645333L55.583333333333336,131.1881666192179L55.583333333333336,131.26649233234687L55.583333333333336,131.34076947986406L55.583333333333336,131.41108639447546L55.583333333333336,131.4694044416568L55.583333333333336,131.5260533427467L55.583333333333336,131.571014976494L55.583333333333336,131.61927819003597L55.583333333333336,131.6640128304722L55.583333333333336,131.70895137443338L55.583333333333336,131.76062635705782L58,131.8316924590287L58,131.8054259372209L58,131.79406248744556L58,131.85371356242783L58,131.9185297952229L58,131.98795509207034L58,132.06252691196366L58,132.13542195845636L58,132.2077895292984L60.41666666666667,132.23182396726725L60.41666666666667,132.26638694107265L60.41666666666667,132.26229864499436L60.41666666666667,132.26346939415257L60.41666666666667,132.34457596922832L60.41666666666667,132.44155909402528L60.41666666666667,132.5118724636125L60.41666666666667,132.56908729702138L60.41666666666667,132.62866167699113L60.41666666666667,132.71425725696363L60.41666666666667,132.78525301337308L60.41666666666667,132.83721359861227L60.41666666666667,132.88429600373024L60.41666666666667,132.91897782018694L62.833333333333336,133.08587276486216L62.833333333333336,133.20752423645638L62.833333333333336,133.29668385633522L62.833333333333336,133.3836508047796L62.833333333333336,133.45504231410567L62.833333333333336,133.5225926533023L62.833333333333336,133.58392606264914L62.833333333333336,133.63829141842794L62.833333333333336,133.6860087750244L65.25,133.66828381753385L65.25,133.60498433332677L65.25,133.5553620323931L65.25,133.47923817911024L65.25,133.50848848770048L65.25,133.54521760926548L65.25,133.5994105476759L65.25,133.6555544283409L65.25,133.72627167793655L65.25,133.80584547372885L65.25,133.8799320158976L65.25,133.9501049031793L65.25,134.017592964538L65.25,134.08707500734616L65.25,134.15349401937954L65.25,134.22567879759112L67.66666666666667,134.24222847677927L67.66666666666667,134.2600157629904L67.66666666666667,134.31117168060766L67.66666666666667,134.34268381816187L67.66666666666667,134.37722258842697L67.66666666666667,134.42041997505726L67.66666666666667,134.46718079992917L67.66666666666667,134.5223429387689L67.66666666666667,134.56385830543869L67.66666666666667,134.58559380537693L67.66666666666667,134.62061128536882L67.66666666666667,134.66284663960175L67.66666666666667,134.7015827137813L67.66666666666667,134.75322219168456L67.66666666666667,134.8061439677917L70.08333333333333,134.89539378856918L70.08333333333333,135.03561748567628L70.08333333333333,135.1735781085673L70.08333333333333,135.30148215869306L70.08333333333333,135.42033455904945L70.08333333333333,135.48255661551983L70.08333333333333,135.55031142307135L70.08333333333333,135.61199296587924L72.5,135.86256341136465L72.5,136.0606862850564L72.5,136.1352288656779L72.5,136.20297555981995L72.5,136.32955448213607L72.5,136.41366340932032L72.5,136.49931927873L72.5,136.58122286339173L72.5,136.65917813394316L72.5,136.7335302613306L72.5,136.79976865600182L72.5,136.861160739475L72.5,136.9165034499864L74.91666666666667,136.9844782775574L74.91666666666667,137.10147797286447L74.91666666666667,137.1388742475001L74.91666666666667,137.2183867166415L74.91666666666667,137.26507105113112L74.91666666666667,137.2811885037789L74.91666666666667,137.3413415776381L74.91666666666667,137.412293349887L74.91666666666667,137.4914088945374L74.91666666666667,137.5688698073233L74.91666666666667,137.64741329031438L74.91666666666667,137.71707356668622L74.91666666666667,137.78283743491443L77.33333333333333,137.82209603418121L77.33333333333333,137.8524590417782L77.33333333333333,137.84221553292764L77.33333333333333,137.84387143806597L77.33333333333333,137.84246481037349L77.33333333333333,137.8525452527053L77.33333333333333,137.8856925659282L77.33333333333333,137.91868691582943L77.33333333333333,137.96174325623855L77.33333333333333,138.0114378254754L77.33333333333333,138.0370826980882L77.33333333333333,138.06138621135074L77.33333333333333,138.07996116142706L77.33333333333333,138.0996132760612L77.33333333333333,138.1237403504283L79.75,138.28038612555181L79.75,138.4088735667097L79.75,138.49603775007208L79.75,138.56297239341066L79.75,138.61027614225242L79.75,138.65087821626784L79.75,138.71726867223322L79.75,138.76848053670875L79.75,138.8086948573972L79.75,138.83672075857484L82.16666666666667,138.83903723502607L82.16666666666667,138.9086163670681L82.16666666666667,138.99601571293329L82.16666666666667,139.0457391411804L82.16666666666667,139.11250561976632L82.16666666666667,139.18044706221303L82.16666666666667,139.22917930300167L82.16666666666667,139.27361669028633L82.16666666666667,139.30978453845916L82.16666666666667,139.34532382807L82.16666666666667,139.39062087451956L82.16666666666667,139.43335800155458L84.58333333333334,139.29619046783802L84.58333333333334,139.20293350948825L84.58333333333334,139.28417175792296L84.58333333333334,139.378988813734L84.58333333333334,139.45540654003847L84.58333333333334,139.51744240657544L87,139.67523112741267L87,139.81917135412004L87,139.94199058393127L87,140.06931839195644L87,140.18228531052446L87,140.2209571917789L87,140.25961276579386L87,140.30527425208288L87,140.34812163740838L89.41666666666667,140.26840744436518L89.41666666666667,140.19306229158377L89.41666666666667,140.22470527128604L89.41666666666667,140.31187801802122L89.41666666666667,140.3996481708977L89.41666666666667,140.48978534415L89.41666666666667,140.56019370609874L89.41666666666667,140.62360048224127L89.41666666666667,140.6927756042606L91.83333333333333,140.91006287842137L91.83333333333333,141.10073281071087L91.83333333333333,141.23655719342986L91.83333333333333,141.36848140510133L91.83333333333333,141.4877617656022L91.83333333333333,141.59334914614135L91.83333333333333,141.7070796010707L91.83333333333333,141.8105511421186L91.83333333333333,141.90893771918945L91.83333333333333,142.00331929676707L91.83333333333333,142.07560624420188L94.25,142.2386790859262L94.25,142.4356355659717L94.25,142.63295136319283L94.25,142.80650697446632L94.25,142.94920055145923L94.25,143.04581964560248L94.25,143.13223887227448L94.25,143.21067908821013L94.25,143.28985829182218L94.25,143.3690017352811L94.25,143.44820017855662L94.25,143.52777510918057L94.25,143.61691189668468L94.25,143.70395188274574L96.66666666666666,143.7459888619196L96.66666666666666,143.76238301696105L96.66666666666666,143.8316767835011L96.66666666666666,143.91724143949213L96.66666666666666,143.99858694080177L99.08333333333333,144.11970227506586L99.08333333333333,144.19947974538894L99.08333333333333,144.24824621191735L99.08333333333333,144.26545804599985L99.08333333333333,144.26287023664227L99.08333333333333,144.32743576802113L99.08333333333333,144.39529258481986L99.08333333333333,144.46845892262752L99.08333333333333,144.56085908711634L99.08333333333333,144.6403201968166L101.5,144.6542418294636L101.5,144.6910966194581L101.5,144.75997494786094L101.5,144.85222470496115L101.5,144.97307907306518L101.5,145.06977773835607L101.5,145.1554169557759L101.5,145.23972399797756L103.91666666666667,145.35831342472872L103.91666666666667,145.45247672715686L103.91666666666667,145.55308288629902L103.91666666666667,145.6477148613329L103.91666666666667,145.73793947429817L103.91666666666667,145.8380490654848L103.91666666666667,145.93212068089218L103.91666666666667,146.0211936659742L103.91666666666667,146.0831863675213L103.91666666666667,146.15269943816253L106.33333333333333,146.18752601949163L106.33333333333333,146.2382227760482L106.33333333333333,146.33352571227294L106.33333333333333,146.4223818276491L106.33333333333333,146.5148486724343L106.33333333333333,146.5940193527284L106.33333333333333,146.67150291854773L106.33333333333333,146.7379439171608L106.33333333333333,146.80513376761925L108.75,146.85232603655786L108.75,146.92485918252L108.75,147.01804408593094L108.75,147.07624405611983L108.75,147.15330470221087L108.75,147.24028888670458L108.75,147.33684778129478L108.75,147.43595389989784L108.75,147.5211955701389L111.16666666666667,147.6337992003278L111.16666666666667,147.73047723365426L111.16666666666667,147.82783797180159L111.16666666666667,147.91313274430877L111.16666666666667,147.996198229013L111.16666666666667,148.0827212254286L111.16666666666667,148.15680580808615L111.16666666666667,148.22007650148856L111.16666666666667,148.2725725223992L111.16666666666667,148.3279898888976L111.16666666666667,148.39258393553786L111.16666666666667,148.44916911968946L113.58333333333333,148.48814551840866L113.58333333333333,148.51390426673078L113.58333333333333,148.5508831839677L113.58333333333333,148.58683887037944L113.58333333333333,148.6269265882601L113.58333333333333,148.67294529525492L113.58333333333333,148.73220957959248L113.58333333333333,148.78715356514252L113.58333333333333,148.86112137719206L113.58333333333333,148.9268479590267L113.58333333333333,148.99666302890677L113.58333333333333,149.0677369652383L113.58333333333333,149.1356700622443L113.58333333333333,149.20486750416165L116,149.09891506794685L116,149.2387441408449L116,149.37919289769349L116,149.51778169414982L116,149.64831993503083L116,149.76944055773694L116,149.8863341714345L116,149.98313459613254L116,150.07359021473195L116,150.1593757037267L116,150.24694908267438L116,150.31748798606628L116,150.38721411330073L116,150.45749529597353L116,150.5262686820397L116,150.59328472064837L118.41666666666667,150.6491028508346L118.41666666666667,150.66321983447511L118.41666666666667,150.69315089694467L118.41666666666667,150.7231489195666L118.41666666666667,150.76807834887614L118.41666666666667,150.81329858703748L120.83333333333334,150.75967482222785L120.83333333333334,150.81537468282738L120.83333333333334,150.88044352756285L120.83333333333334,150.95122680053885L120.83333333333334,151.00333760643008L120.83333333333334,151.04679524766166L120.83333333333334,151.0974315464498L123.25,151.16618594029066L123.25,151.0798432328646L123.25,151.16171963973255L123.25,151.23675851715802L123.25,151.30539071346772L123.25,151.35424826066549L123.25,151.41272828747958L123.25,151.46483269737286L123.25,151.52300505996337L123.25,151.5808057330754L123.25,151.6324419973248L123.25,151.67597984178488L123.25,151.71707528512866L125.66666666666667,151.80355202081424L125.66666666666667,151.84030430613663L125.66666666666667,151.8773430483132L125.66666666666667,151.93017089705145L125.66666666666667,151.9878503307346L128.08333333333334,152.07716089346508L128.08333333333334,152.17495643188695L128.08333333333334,152.23231459715143L128.08333333333334,152.33208730746776L128.08333333333334,152.44822937456414L128.08333333333334,152.56325487813984L128.08333333333334,152.6865416459243L128.08333333333334,152.79422409134804L128.08333333333334,152.89162544589232L128.08333333333334,152.99690063193637L128.08333333333334,153.0916906768901L130.5,153.25631721601306L130.5,153.34790082890368L130.5,153.4708363506769L130.5,153.5604849886011L130.5,153.64125570374125L130.5,153.7426793307435L130.5,153.83274835904817L130.5,153.92208996468887L130.5,153.99233248852394L130.5,154.06298643939505L130.5,154.13789554322187L132.91666666666666,154.32213274650903L132.91666666666666,154.45715609823182L132.91666666666666,154.57876137171715L132.91666666666666,154.6544023745441L132.91666666666666,154.73266272898772L132.91666666666666,154.79727503279088L132.91666666666666,154.86107584147675L132.91666666666666,154.91540301654908L132.91666666666666,154.97450681024878L132.91666666666666,155.0288854722175L135.33333333333334,155.01773968853382L135.33333333333334,155.03718218368402L135.33333333333334,155.07597805087107L135.33333333333334,155.14404513432262L135.33333333333334,155.2125733367058L135.33333333333334,155.29115665057677L135.33333333333334,155.32574990306944L135.33333333333334,155.36758136341172L135.33333333333334,155.4031912687417L135.33333333333334,155.4569626822947L135.33333333333334,155.51418159387183L135.33333333333334,155.59255246523034L135.33333333333334,155.66234379324536L135.33333333333334,155.71778958209188L135.33333333333334,155.7676015638279L135.33333333333334,155.80029094495706L137.75,155.85845642471966L137.75,155.93510116284816L137.75,156.01036214837163L137.75,156.13032846876703L137.75,156.23644954251893L137.75,156.33227914962745L137.75,156.42042621865045L137.75,156.48687884380078L137.75,156.54950735997505L137.75,156.6049924527598L137.75,156.64911891373535L137.75,156.69378240908205L137.75,156.73936929628127L137.75,156.786511772163L140.16666666666666,156.93732009910147L140.16666666666666,157.07282952342166L140.16666666666666,157.12288703819254L140.16666666666666,157.18825960959245L140.16666666666666,157.24428656384427L140.16666666666666,157.32338381380785L140.16666666666666,157.37749262216175L140.16666666666666,157.42219953938746L140.16666666666666,157.45885963106406L140.16666666666666,157.50141566436582L140.16666666666666,157.53263988086658L140.16666666666666,157.56507595985792L140.16666666666666,157.60559572775387L142.58333333333331,157.7285478852132L142.58333333333331,157.81874352066228L142.58333333333331,157.91038837850263L142.58333333333331,158.01046040156737L142.58333333333331,158.09827181492614L142.58333333333331,158.17449472918818L142.58333333333331,158.24959095086686L142.58333333333331,158.31249533293422L142.58333333333331,158.3764730980787L142.58333333333331,158.43890393259701L142.58333333333331,158.4969447610625L142.58333333333331,158.55470909694426L142.58333333333331,158.61106010912505L142.58333333333331,158.66276454852763L145,158.65545029094218L145,158.70449282365942L145,158.70768870290132L145,158.76140568780139L145,158.8111978991915L145,158.86386958210537L145,158.92974906659575L145,158.9921281480953L145,159.0512702911058L147.41666666666666,158.7352241713306L147.41666666666666,158.75638291324935L147.41666666666666,158.799906701361L147.41666666666666,158.8430833222362L147.41666666666666,158.8534802003501L147.41666666666666,158.8599646991102L147.41666666666666,158.86647892617464L147.41666666666666,158.8711630087308L147.41666666666666,158.8808344447763L147.41666666666666,158.93043715794335L147.41666666666666,158.97466885355595L147.41666666666666,159.01577445330338L147.41666666666666,159.0532021796606L147.41666666666666,159.08153105120928L149.83333333333334,159.21349303865472L149.83333333333334,159.2980879487281L149.83333333333334,159.40261354313316L149.83333333333334,159.50530539326604L149.83333333333334,159.60239053740213L149.83333333333334,159.6916714623115L152.25,159.69972936916497L152.25,159.77800745961812L152.25,159.83399315533902L152.25,159.89068991030234L152.25,159.9573549827013L152.25,160.0356727562418L152.25,160.1071540433136L152.25,160.1825544192463L154.66666666666666,160.31203424020285L154.66666666666666,160.3779280528376L154.66666666666666,160.44017322159831L154.66666666666666,160.4859721347906L154.66666666666666,160.5360300285575L154.66666666666666,160.59709608930444L154.66666666666666,160.67608334600126L154.66666666666666,160.74808265765748L157.08333333333331,160.7909644893828L157.08333333333331,160.83907722248853L157.08333333333331,160.92319343282296L157.08333333333331,161.0009502214575L157.08333333333331,161.08361015242988L157.08333333333331,161.15729919837437L157.08333333333331,161.235681740425L157.08333333333331,161.30651665109687L157.08333333333331,161.3758159029422L157.08333333333331,161.44303664093627L157.08333333333331,161.50674881755455L157.08333333333331,161.5727329117873L157.08333333333331,161.63155332820398L157.08333333333331,161.69817071215257L159.5,161.8345876944378L159.5,161.95589432355757L159.5,162.01181108847408L159.5,162.06861959954492L159.5,162.12149610943965L159.5,162.16019427881642L159.5,162.19943556408788L159.5,162.24450281142862L159.5,162.3008277580707L159.5,162.35622438384L159.5,162.41239123824496L159.5,162.46185573676325L159.5,162.5191719653422L161.91666666666666,162.37570678076182L161.91666666666666,162.38886189716044L161.91666666666666,162.4109172261172L161.91666666666666,162.43402339980926L161.91666666666666,162.45396817810965L161.91666666666666,162.47167679323007L161.91666666666666,162.5054329389392L161.91666666666666,162.5459087658282L161.91666666666666,162.59471529642124L161.91666666666666,162.64999046666833L161.91666666666666,162.69722141649564L161.91666666666666,162.75061629171103L161.91666666666666,162.80060397661907L164.33333333333334,162.73776225590032L164.33333333333334,162.69145569847183L164.33333333333334,162.7394453643148L164.33333333333334,162.793590559807L164.33333333333334,162.86081097695651L164.33333333333334,162.93080644195035L164.33333333333334,163.00231708671168L164.33333333333334,163.07591615444662L164.33333333333334,163.1443603757017L164.33333333333334,163.21519386558168L164.33333333333334,163.27758871236455L166.75,163.36500670416217L166.75,163.48637429006806L166.75,163.59341353268937L166.75,163.6740083297783L166.75,163.75204845593962L166.75,163.83733759751183L166.75,163.91753621527303L166.75,163.9909813688925L169.16666666666669,164.0862422391171L169.16666666666669,164.16974856616804L169.16666666666669,164.25601217223866L169.16666666666669,164.3559280548491L169.16666666666669,164.45309019886434L169.16666666666669,164.5493176130735L169.16666666666669,164.64368379442584L169.16666666666669,164.7349540842797L169.16666666666669,164.82225095754507L169.16666666666669,164.90553694038948L169.16666666666669,164.98536653057627L171.58333333333334,165.00447611728407L171.58333333333334,165.07841487331333L171.58333333333334,165.13921670757716L171.58333333333334,165.20293745429154L171.58333333333334,165.26718911229867L174,165.44038723095588L174,165.54568935528513L174,165.63728934487062L174,165.70961842916748L174,165.79552952948436L174,165.88100954788987L174,165.9637495385921L174,166.0272190505217L174,166.10244213732608L176.41666666666666,166.09988845539988L176.41666666666666,166.13817253127948L176.41666666666666,166.22528238310906L176.41666666666666,166.3094527311501L176.41666666666666,166.3867301086593L176.41666666666666,166.45627914418853L176.41666666666666,166.52910625877553L176.41666666666666,166.60369046395465L176.41666666666666,166.6733654389001L176.41666666666666,166.74525016037188L176.41666666666666,166.81566471689132L176.41666666666666,166.86916546833046L178.83333333333334,166.88220170627983L178.83333333333334,166.9543236984452L178.83333333333334,167.01469743559343L178.83333333333334,167.08373452538356L178.83333333333334,167.16377487349908L178.83333333333334,167.23978366414687L178.83333333333334,167.3107824552256L178.83333333333334,167.38115190454207L178.83333333333334,167.45056935010837L178.83333333333334,167.52825686718586L178.83333333333334,167.61161797678756L181.25,167.72889555577905L181.25,167.82948282311605L181.25,167.90931714994446L181.25,167.9803218719522L181.25,168.0460357800426L181.25,168.11861205901073L181.25,168.17083299145202L183.66666666666666,168.24961826012378L183.66666666666666,168.3185052611982L183.66666666666666,168.37937553262984L183.66666666666666,168.44652429003975L183.66666666666666,168.5073361074973L183.66666666666666,168.54870521468385L183.66666666666666,168.591132893069L183.66666666666666,168.64471428037507L183.66666666666666,168.68980511862816L183.66666666666666,168.73750884350977L183.66666666666666,168.76084992772343L183.66666666666666,168.78561996650396L183.66666666666666,168.8039594857903L183.66666666666666,168.82601348882525L186.08333333333334,168.94806125789216L186.08333333333334,169.04500868616367L186.08333333333334,169.12315528375873L186.08333333333334,169.19414954050202L186.08333333333334,169.26144655993212L186.08333333333334,169.29201428341963L186.08333333333334,169.322794022716L186.08333333333334,169.35395224156883L186.08333333333334,169.3841131073213L186.08333333333334,169.40769189664496L188.5,169.39188923721846L188.5,169.41460728239088L188.5,169.42453692586736L188.5,169.44916264653145L188.5,169.4720554276103L188.5,169.50050019617922L188.5,169.53171161260448L188.5,169.56280798707337L190.91666666666666,169.55706763132645L190.91666666666666,169.5495493023696L190.91666666666666,169.54352782971137L190.91666666666666,169.5525278765574L190.91666666666666,169.55691839900456L190.91666666666666,169.58109047894177L190.91666666666666,169.60721052150205L190.91666666666666,169.63910450594884L190.91666666666666,169.6647132513364L190.91666666666666,169.696210123655L190.91666666666666,169.7267516144901L193.33333333333331,169.780664082999L193.33333333333331,169.82601036827091L193.33333333333331,169.87463531007677L193.33333333333331,169.92846950664912L193.33333333333331,169.9758950447644L193.33333333333331,170.04626021572201L193.33333333333331,170.1080921751145L195.75,170.2224694848845L195.75,170.328207507208L195.75,170.4097195803635L195.75,170.48851313437393L195.75,170.56605146381358L195.75,170.64519994328862L195.75,170.71885702557287L195.75,170.78647121379353L195.75,170.8558080899725L195.75,170.91899366921277L195.75,170.97512595632463L198.16666666666666,171.00700519243725L198.16666666666666,171.08463791104015L198.16666666666666,171.16455460247658L198.16666666666666,171.24808642113607L198.16666666666666,171.32283955337783L198.16666666666666,171.4100210037437L198.16666666666666,171.48992295963336L198.16666666666666,171.557186360435L198.16666666666666,171.6234759953742L198.16666666666666,171.6848876352875L200.58333333333334,171.7902812643826L200.58333333333334,171.82181775984972L200.58333333333334,171.84950583494623L200.58333333333334,171.8810899681953L200.58333333333334,171.90849888600428L200.58333333333334,171.9155394055808L200.58333333333334,171.94771587346455L200.58333333333334,171.9794339978669L200.58333333333334,172.0021618588542L200.58333333333334,172.03567133511964L203,172.09496968266933L203,172.14431161317916L203,172.25939058186617L203,172.34635447855698L203,172.4290588005991L203,172.50538585100378L203,172.5717015758963L203,172.63647145658942L203,172.70434534071583L203,172.7738995637771L203,172.81398662368085L205.41666666666669,172.80914674140658L205.41666666666669,172.81808945497636L205.41666666666669,172.8363789700739L205.41666666666669,172.85024348955443L205.41666666666669,172.86766274946962L205.41666666666669,172.88574519543977L205.41666666666669,172.89879336128308L205.41666666666669,172.92045221409393L207.83333333333334,173.01011705415578L207.83333333333334,173.03031016425567L207.83333333333334,173.06259164715271L207.83333333333334,173.10824501066642L207.83333333333334,173.17940481594977L207.83333333333334,173.26264158792483L207.83333333333334,173.3459055834197L207.83333333333334,173.4209648414973L210.25,173.61065451744173L210.25,173.74430879196353L210.25,173.8767967834948L210.25,174.00124438664662L210.25,174.1328036067712L210.25,174.25769642153745L210.25,174.3746040177484L210.25,174.45944081331618L210.25,174.50068277990877L210.25,174.5451726501411L210.25,174.58976852674925L212.66666666666666,174.67387717873518L212.66666666666666,174.69519331192106L212.66666666666666,174.75579958308114L212.66666666666666,174.82877452881092L212.66666666666666,174.89116830771573L212.66666666666666,174.95312685080506L212.66666666666666,175.01682553105283L212.66666666666666,175.0851273036211L212.66666666666666,175.12316892876214L212.66666666666666,175.16352689899293L212.66666666666666,175.1947574866357L215.08333333333334,175.2315951090967L215.08333333333334,175.30387884863413L215.08333333333334,175.3834928183137L215.08333333333334,175.43257625549631L215.08333333333334,175.44923343546307L215.08333333333334,175.4648806918935L215.08333333333334,175.48130909878137L215.08333333333334,175.495647620998L215.08333333333334,175.4982952599228L215.08333333333334,175.50709393424546L217.5,175.59669575773296L217.5,175.64022244531398L217.5,175.68080581190748L217.5,175.7223690523151L217.5,175.75450867779765L217.5,175.78713567723162L217.5,175.81364739145695L219.91666666666666,175.89854154602256L219.91666666666666,175.97733243062882L219.91666666666666,176.04542824017057L219.91666666666666,176.10888033497034L219.91666666666666,176.16163730758737L219.91666666666666,176.2098978693425L222.33333333333334,176.36811105116035L222.33333333333334,176.47121347823375L222.33333333333334,176.5555908179949L222.33333333333334,176.6185508205331L222.33333333333334,176.66458625238587L222.33333333333334,176.70460296401757L222.33333333333334,176.7550972304037L222.33333333333334,176.79232879511778L222.33333333333334,176.82401137302966L222.33333333333334,176.85818072391666L222.33333333333334,176.88789824983937L222.33333333333334,176.9161888037561L224.75,177.03557691899113" style="fill: none;" fill="none"></path></g></g></g></g><g opacity="0.2"><g><g><g><path stroke="rgb(0, 119, 187)" stroke-width="2px" d="M26.583333333333332,21.91318931579591L26.583333333333332,34.39936556816101L26.583333333333332,46.02059473991394L26.583333333333332,71.06254925727845L26.583333333333332,73.28331484794617L26.583333333333332,75.4238299369812L26.583333333333332,76.65574898719788L29,124.30178704261779L29,123.47283663749695L29,124.9891420841217L29,125.55081822872162L29,126.03108336925506L29,126.11072900295258L29,126.00216927528382L29,126.57919218540192L29,126.92846825122832L31.416666666666668,128.77399065494538L31.416666666666668,125.12838127613067L31.416666666666668,124.13482239246368L31.416666666666668,123.73302831649781L31.416666666666668,124.40503659248353L31.416666666666668,124.90477004051209L31.416666666666668,124.67290165424347L31.416666666666668,124.97262074947356L33.833333333333336,126.3278484582901L33.833333333333336,121.1152020931244L33.833333333333336,122.09283044338227L33.833333333333336,122.81675889492035L33.833333333333336,123.97138848304749L33.833333333333336,124.02389945983886L33.833333333333336,124.06815328598023L33.833333333333336,124.26107802391053L36.25,133.01078107357026L36.25,134.88933911323548L36.25,132.82493188381196L36.25,131.22071661949158L36.25,130.20709862709046L36.25,130.07788898944855L36.25,130.140429520607L36.25,129.42299284934998L36.25,128.95983984470368L38.666666666666664,129.46488347053528L38.666666666666664,130.41418852806092L38.666666666666664,129.8938122034073L38.666666666666664,129.66017141342164L38.666666666666664,129.69851722717286L38.666666666666664,129.63362052440644L38.666666666666664,128.7486213684082L38.666666666666664,128.41939737796784L38.666666666666664,128.62825968265534L41.083333333333336,128.33679773807526L41.083333333333336,128.04062345027924L41.083333333333336,127.93973007202148L41.083333333333336,127.7810225725174L41.083333333333336,127.70018830299378L41.083333333333336,127.86952319145203L41.083333333333336,127.84828248023986L41.083333333333336,127.86362221240996L43.5,125.43753912448882L43.5,125.44580330848694L43.5,126.52314343452454L43.5,127.09956851005553L43.5,127.65888848304748L43.5,127.96450855731965L43.5,127.76626660823821L45.916666666666664,128.24594094753266L45.916666666666664,127.92674651145936L45.916666666666664,128.5014132499695L45.916666666666664,129.25189259052277L45.916666666666664,129.1769593000412L45.916666666666664,129.22121312618256L48.33333333333333,132.7736025094986L48.33333333333333,132.40013172626496L48.33333333333333,132.0709077358246L48.33333333333333,131.50392141342164L48.33333333333333,130.75697984695435L48.33333333333333,130.96937992572785L48.33333333333333,130.7510788679123L48.33333333333333,130.44251182079316L48.33333333333333,130.65726807117463L50.75,132.9364385843277L50.75,133.18778231143952L50.75,133.75123085975648L50.75,131.91042783260346L50.75,131.87561979293824L50.75,131.61011793613434L50.75,131.50451221466065L53.166666666666664,133.13999071121216L53.166666666666664,133.02906777858735L53.166666666666664,133.0538532972336L53.166666666666664,133.08511652946473L53.166666666666664,132.54114332199097L53.166666666666664,132.3635512828827L53.166666666666664,132.63849189281464L53.166666666666664,132.65677859783173L53.166666666666664,132.26737728118897L53.166666666666664,132.50160887241364L55.583333333333336,132.22135808467866L55.583333333333336,132.65501322746277L55.583333333333336,132.27564146518708L55.583333333333336,132.74587001800538L55.583333333333336,132.74409761428834L55.583333333333336,132.73996903896332L55.583333333333336,132.57182278633118L55.583333333333336,132.59719207286835L55.583333333333336,132.42137243747712L55.583333333333336,132.53228833675385L55.583333333333336,132.51045682430268L55.583333333333336,132.55943002700806L55.583333333333336,132.7387874364853L58,133.17716195583344L58,131.30804266929627L58,131.57884767055512L58,132.98363938331605L58,133.14648249149323L58,133.30341758728028L58,133.47569944858552L58,133.5169992685318L58,133.57953979969025L60.41666666666667,132.68745806217194L60.41666666666667,132.9216896533966L60.41666666666667,132.1847776412964L60.41666666666667,132.28567101955414L60.41666666666667,133.88279666900635L60.41666666666667,134.28105297088624L60.41666666666667,133.84563245773316L60.41666666666667,133.65447309017182L60.41666666666667,133.7588972091675L60.41666666666667,134.33828332424164L60.41666666666667,134.13236799240113L60.41666666666667,133.82321014404297L60.41666666666667,133.77778174877167L60.41666666666667,133.5771765947342L62.833333333333336,136.25342180728913L62.833333333333336,135.5165097951889L62.833333333333336,134.9890508890152L62.833333333333336,135.0344792842865L62.833333333333336,134.8102772474289L62.833333333333336,134.80496706962586L62.833333333333336,134.74832751750947L62.833333333333336,134.6704472541809L62.833333333333336,134.59198322296143L65.25,133.33174088001252L65.25,132.40307869911194L65.25,132.61312260627747L65.25,132.0337364912033L65.25,134.0639335155487L65.25,134.24270012378693L65.25,134.6285566329956L65.25,134.72177662849427L65.25,135.06928732395173L65.25,135.31709327697754L65.25,135.28699758052826L65.25,135.28286900520325L65.25,135.29939033985139L65.25,135.40676846504212L65.25,135.41503264904023L65.25,135.59675326347352L67.66666666666667,134.5565773487091L67.66666666666667,134.5978771686554L67.66666666666667,135.28286900520325L67.66666666666667,134.94125928878785L67.66666666666667,135.03329768180848L67.66666666666667,135.24097838401795L67.66666666666667,135.35543909072877L67.66666666666667,135.57020237445832L67.66666666666667,135.35249211788178L67.66666666666667,134.99848964214326L67.66666666666667,135.28582301139832L67.66666666666667,135.46518042087556L67.66666666666667,135.43744792938233L67.66666666666667,135.73422005176545L67.66666666666667,135.811509513855L70.08333333333333,136.59090294837952L70.08333333333333,137.69951333999634L70.08333333333333,137.79449870586396L70.08333333333333,137.7313673734665L70.08333333333333,137.67827262878419L70.08333333333333,136.66464760303498L70.08333333333333,136.83752026557923L70.08333333333333,136.78382768630982L72.5,140.6229596376419L72.5,139.82468869686127L72.5,137.55141916275025L72.5,137.49006023406983L72.5,138.73437204360962L72.5,138.01161816120148L72.5,138.1266696691513L72.5,138.1372900247574L72.5,138.14023699760438L72.5,138.14613797664643L72.5,138.0582281589508L72.5,138.0275486946106L72.5,137.96796216964722L74.91666666666667,138.27593841552735L74.91666666666667,139.32437148094178L74.91666666666667,137.8493728876114L74.91666666666667,138.72906186580659L74.91666666666667,138.15203895568848L74.91666666666667,137.5874088048935L74.91666666666667,138.48420991897584L74.91666666666667,138.7603321313858L74.91666666666667,138.9945566892624L74.91666666666667,139.0405829191208L74.91666666666667,139.13969686031342L74.91666666666667,139.0405829191208L74.91666666666667,139.0323187351227L77.33333333333333,138.56799116134644L77.33333333333333,138.42934277057648L77.33333333333333,137.64759316444398L77.33333333333333,137.87533297538758L77.33333333333333,137.81573941707612L77.33333333333333,138.04407002925873L77.33333333333333,138.51548018455506L77.33333333333333,138.54556884765626L77.33333333333333,138.77980043888093L77.33333333333333,138.95562007427216L77.33333333333333,138.5243281364441L77.33333333333333,138.52314653396607L77.33333333333333,138.43288054466248L77.33333333333333,138.47299876213074L77.33333333333333,138.58214929103852L79.75,141.2566220998764L79.75,140.8501086473465L79.75,140.1521402835846L79.75,139.83471825122834L79.75,139.50903906822205L79.75,139.42231085300446L79.75,139.97867681980134L79.75,139.74149825572968L79.75,139.57276120185853L79.75,139.36920907497407L82.16666666666667,138.88304998874665L82.16666666666667,140.23061134815217L82.16666666666667,140.6565931081772L82.16666666666667,139.99047877788544L82.16666666666667,140.38106169700623L82.16666666666667,140.47132768630982L82.16666666666667,140.15508725643159L82.16666666666667,140.1179230451584L82.16666666666667,139.9969705581665L82.16666666666667,140.02056744098664L82.16666666666667,140.2512612581253L82.16666666666667,140.24536027908326L84.58333333333334,136.69001688957215L84.58333333333334,137.43105747699738L84.58333333333334,140.8276933670044L84.58333333333334,141.18050720691681L84.58333333333334,140.9073390007019L84.58333333333334,140.69612052440644L87,142.67320873737336L87,142.55402865409852L87,142.27555027008057L87,142.48854115009308L87,142.32865204811097L87,140.95572140216828L87,140.9940672159195L87,141.1728408575058L87,141.16222050189972L89.41666666666667,138.75384035110474L89.41666666666667,138.76150670051575L89.41666666666667,140.82592096328736L89.41666666666667,141.96815779209138L89.41666666666667,142.06727876663209L89.41666666666667,142.20238938331605L89.41666666666667,141.89795091152192L89.41666666666667,141.8283277988434L89.41666666666667,142.0071014404297L91.83333333333333,145.038516664505L91.83333333333333,144.7234578371048L91.83333333333333,143.81721796989441L91.83333333333333,143.87503912448884L91.83333333333333,143.75408663749695L91.83333333333333,143.59950771331788L91.83333333333333,143.86795654296876L91.83333333333333,143.77650895118714L91.83333333333333,143.77828135490418L91.83333333333333,143.79656805992127L91.83333333333333,143.4490573644638L94.25,145.33706119060517L94.25,146.17780652046204L94.25,146.38194944858552L94.25,146.10406186580659L94.25,145.6603771686554L94.25,144.88158156871796L94.25,144.77420344352723L94.25,144.7010425567627L94.25,144.79426255226136L94.25,144.87272658348084L94.25,144.95297005176545L94.25,145.03969826698304L94.25,145.31051030158997L94.25,145.3577111005783L96.66666666666666,144.54469122886658L96.66666666666666,144.07387187480927L96.66666666666666,145.1482579946518L96.66666666666666,145.5429694890976L96.66666666666666,145.54415109157563L99.08333333333333,146.42089309692383L99.08333333333333,145.71525135040284L99.08333333333333,145.174808883667L99.08333333333333,144.59248282909394L99.08333333333333,144.21370186805726L99.08333333333333,145.5541806459427L99.08333333333333,145.68457188606263L99.08333333333333,145.85861911773682L99.08333333333333,146.31646194458008L99.08333333333333,146.1500810623169L101.5,144.91875281333924L101.5,145.3913375377655L101.5,146.06866302490235L101.5,146.6049698829651L101.5,147.2693118095398L101.5,146.90705218315125L101.5,146.78256192207337L101.5,146.84155764579774L103.91666666666667,147.61151232719422L103.91666666666667,147.24157931804658L103.91666666666667,147.46459975242615L103.91666666666667,147.44572224617005L103.91666666666667,147.45220699310303L103.91666666666667,147.7401311635971L103.91666666666667,147.71948125362397L103.91666666666667,147.71358027458191L103.91666666666667,147.2610476255417L103.91666666666667,147.4734477043152L106.33333333333333,146.84923102855683L106.33333333333333,147.2014611005783L106.33333333333333,148.14428141117097L106.33333333333333,148.1106479406357L106.33333333333333,148.27171864509583L106.33333333333333,148.09826221466065L106.33333333333333,148.14369060993195L106.33333333333333,148.00032284259797L106.33333333333333,148.08174088001252L108.75,147.74897911548615L108.75,148.30298891067505L108.75,148.78855719566346L108.75,148.18204345703126L108.75,148.61745693683625L108.75,148.8929883480072L108.75,149.17146673202515L108.75,149.31897010803223L108.75,149.14078726768494L111.16666666666667,149.7732681274414L111.16666666666667,149.56735982894898L111.16666666666667,149.67769196033478L111.16666666666667,149.53373339176179L111.16666666666667,149.57444241046906L111.16666666666667,149.72665812969208L111.16666666666667,149.564412856102L111.16666666666667,149.42221965789795L111.16666666666667,149.26999690532685L111.16666666666667,149.38091983795167L111.16666666666667,149.61987080574036L111.16666666666667,149.52428760528565L113.58333333333333,149.22869708538056L113.58333333333333,149.003320479393L113.58333333333333,149.2534826040268L113.58333333333333,149.26999690532685L113.58333333333333,149.38859322071076L113.58333333333333,149.54730072021485L113.58333333333333,149.85823097229004L113.58333333333333,149.83108928203583L113.58333333333333,150.2665097951889L113.58333333333333,150.1756530046463L113.58333333333333,150.3231493473053L113.58333333333333,150.418141746521L113.58333333333333,150.42639889717103L113.58333333333333,150.51961889266968L116,147.08581879138947L116,151.89549651145936L116,152.04771926403046L116,152.15096881389618L116,152.128546500206L116,152.07073237895966L116,152.10731282234192L116,151.8223426580429L116,151.79224696159363L116,151.78929998874665L116,151.91084327697754L116,151.6577271461487L116,151.7120105266571L116,151.79283776283265L116,151.832963013649L116,151.8665894508362L118.41666666666667,151.70964732170106L118.41666666666667,150.93144252300263L118.41666666666667,151.26184108257294L118.41666666666667,151.29311134815217L118.41666666666667,151.62173750400544L118.41666666666667,151.67248311042786L120.83333333333334,149.74082329273224L120.83333333333334,151.87367203235627L120.83333333333334,152.11675157546998L120.83333333333334,152.2961089849472L120.83333333333334,151.99344291687012L120.83333333333334,151.87249042987824L120.83333333333334,152.05952122211457L123.25,152.47251942157746L123.25,149.4393317937851L123.25,152.7173713684082L123.25,152.66249718666077L123.25,152.60940244197846L123.25,152.28254165649415L123.25,152.5238487958908L123.25,152.4548164844513L123.25,152.62827994823456L123.25,152.6790185213089L123.25,152.61353101730347L123.25,152.50319888591767L123.25,152.49788870811463L125.66666666666667,153.44660999774933L125.66666666666667,152.5385977268219L125.66666666666667,152.58107914924622L125.66666666666667,152.93390002250672L125.66666666666667,153.08375957012177L128.08333333333334,153.77406158447266L128.08333333333334,154.0330716609955L128.08333333333334,153.32211973667145L128.08333333333334,154.22776880264283L128.08333333333334,154.65492864847184L128.08333333333334,154.7487394452095L128.08333333333334,155.0289902329445L128.08333333333334,154.84019055366517L128.08333333333334,154.74225118160248L128.08333333333334,154.99712916612626L128.08333333333334,154.89270153045655L130.5,156.38422145843506L130.5,155.0879894733429L130.5,155.806611263752L130.5,155.26380910873414L130.5,155.17589929103852L130.5,155.669728243351L130.5,155.54405989646912L130.5,155.61958047151566L130.5,155.3269404411316L130.5,155.40541150569916L130.5,155.56116851568223L132.91666666666666,157.82263960838318L132.91666666666666,157.02259978055955L132.91666666666666,156.88926156759263L132.91666666666666,156.091581428051L132.91666666666666,156.21960946321488L132.91666666666666,156.0249088048935L132.91666666666666,156.07329120635987L132.91666666666666,155.94761934280396L132.91666666666666,156.097478890419L132.91666666666666,156.06208004951478L135.33333333333334,154.80596979856492L135.33333333333334,155.40658959150315L135.33333333333334,155.81309952735901L135.33333333333334,156.43731971979142L135.33333333333334,156.51460918188096L135.33333333333334,156.78423961400986L135.33333333333334,155.98302170038224L135.33333333333334,156.16237910985947L135.33333333333334,156.0797794699669L135.33333333333334,156.4786195397377L135.33333333333334,156.6013409137726L135.33333333333334,157.08159902095795L135.33333333333334,156.9883790254593L135.33333333333334,156.77125957012177L135.33333333333334,156.71402921676636L135.33333333333334,156.4213891863823L137.75,156.96360054016114L137.75,157.39135118722916L137.75,157.4403208732605L137.75,158.4096885561943L137.75,158.25274994373322L137.75,158.15304168462754L137.75,158.09522053003312L137.75,157.74947872161866L137.75,157.7394491672516L137.75,157.65920921564103L137.75,157.48752167224885L137.75,157.5423888206482L137.75,157.60552015304566L137.75,157.68221881389618L140.16666666666666,159.80267831087113L140.16666666666666,159.64750858545304L140.16666666666666,158.07397981882096L140.16666666666666,158.43033846616746L140.16666666666666,158.3087986946106L140.16666666666666,158.82623156309128L140.16666666666666,158.4055599808693L140.16666666666666,158.27163096666337L140.16666666666666,158.15540137290955L140.16666666666666,158.30998029708863L140.16666666666666,158.12589999437333L140.16666666666666,158.18136146068574L140.16666666666666,158.3754713177681L142.58333333333331,160.06463887691498L142.58333333333331,159.53246059417725L142.58333333333331,159.6516406774521L142.58333333333331,159.9118288397789L142.58333333333331,159.76668866872788L142.58333333333331,159.62273010015488L142.58333333333331,159.67641916275025L142.58333333333331,159.50767859220505L142.58333333333331,159.59205063581467L142.58333333333331,159.6250897884369L142.58333333333331,159.59972050189972L142.58333333333331,159.6522314786911L142.58333333333331,159.6817293405533L142.58333333333331,159.64514889717103L145,158.51647939682007L145,159.636300945282L145,158.76841040849686L145,159.78202840089799L145,159.75724991559983L145,159.8646315574646L145,160.1814592719078L145,160.1773306965828L145,160.1749710083008L147.41666666666666,152.73034789562226L147.41666666666666,159.1583990097046L147.41666666666666,159.6268586754799L147.41666666666666,159.66343911886216L147.41666666666666,159.05102088451386L147.41666666666666,158.98317017555237L147.41666666666666,158.9902492403984L147.41666666666666,158.96016057729722L147.41666666666666,159.06459172964097L147.41666666666666,159.87288870811463L147.41666666666666,159.81507107019425L147.41666666666666,159.79678084850312L147.41666666666666,159.76432898044587L147.41666666666666,159.61977961063386L149.83333333333334,161.72077080011368L149.83333333333334,160.90539124011994L149.83333333333334,161.38859983682633L149.83333333333334,161.45645054578782L149.83333333333334,161.44700827598572L149.83333333333334,161.38800903558732L152.25,159.8528295993805L152.25,161.26529117822648L152.25,160.8977213740349L152.25,160.96792825460435L152.25,161.2239913582802L152.25,161.5237104535103L152.25,161.46529849767686L152.25,161.61516156196595L154.66666666666666,162.7721508383751L154.66666666666666,161.62991049289704L154.66666666666666,161.622831428051L154.66666666666666,161.35615148544312L154.66666666666666,161.48713001012803L154.66666666666666,161.75735124349595L154.66666666666666,162.1768412232399L154.66666666666666,162.11606957912446L157.08333333333331,161.60571929216385L157.08333333333331,161.7532191514969L157.08333333333331,162.52140142917634L157.08333333333331,162.478329205513L157.08333333333331,162.65414884090424L157.08333333333331,162.55739107131959L157.08333333333331,162.72495003938675L157.08333333333331,162.65237995386124L157.08333333333331,162.69250168800355L157.08333333333331,162.72023066282273L157.08333333333331,162.7172801733017L157.08333333333331,162.82643070220948L157.08333333333331,162.74914124011994L157.08333333333331,162.96390100717545L159.5,164.42651035785676L159.5,164.2607202768326L159.5,163.0742296218872L159.5,163.14798130989075L159.5,163.12614979743958L159.5,162.89545949697495L159.5,162.9450199842453L159.5,163.1007805109024L159.5,163.37100174427033L159.5,163.40876027345658L159.5,163.4795614719391L159.5,163.40168120861054L159.5,163.60818030834199L161.91666666666666,159.64986827373505L161.91666666666666,162.63880910873414L161.91666666666666,162.82996847629548L161.91666666666666,162.8730406999588L161.91666666666666,162.8329189658165L161.91666666666666,162.80814048051835L161.91666666666666,163.14679970741273L161.91666666666666,163.3149494767189L161.91666666666666,163.52203937768937L161.91666666666666,163.70021870136262L161.91666666666666,163.59460946321488L161.91666666666666,163.76511892080308L161.91666666666666,163.75036998987198L164.33333333333334,161.54376956224442L164.33333333333334,161.81163110733033L164.33333333333334,163.65124901533127L164.33333333333334,163.82234927415848L164.33333333333334,164.1379989027977L164.33333333333334,164.2607202768326L164.33333333333334,164.36101933717728L164.33333333333334,164.47429844141007L164.33333333333334,164.4448005795479L164.33333333333334,164.5610301733017L164.33333333333334,164.46309080123902L166.75,165.02594854831696L166.75,165.79235842227936L166.75,165.6271591424942L166.75,165.20530947446824L166.75,165.23481085300446L166.75,165.45783128738404L166.75,165.4413099527359L166.75,165.3864392876625L169.16666666666669,165.8961987733841L169.16666666666669,165.7563687801361L169.16666666666669,165.89502068758011L169.16666666666669,166.25432982444764L169.16666666666669,166.29917093515397L169.16666666666669,166.3776384830475L169.16666666666669,166.43664124011994L169.16666666666669,166.46908959150315L169.16666666666669,166.48089154958726L169.16666666666669,166.4879706144333L169.16666666666669,166.50212874412537L171.58333333333334,165.36755826473237L171.58333333333334,166.48325123786927L171.58333333333334,166.29445155858994L171.58333333333334,166.41363164186478L171.58333333333334,166.4879706144333L174,168.73115148544312L174,167.54642971754075L174,167.37768914699555L174,167.0838710308075L174,167.42784043550492L174,167.50512989759446L174,167.53580936193467L174,167.23313977718354L174,167.53168078660966L176.41666666666666,166.0513684988022L176.41666666666666,166.86556997299195L176.41666666666666,167.8803695678711L176.41666666666666,167.9086893439293L176.41666666666666,167.85500028133393L176.41666666666666,167.7777108192444L176.41666666666666,167.91282143592835L176.41666666666666,168.0207903623581L176.41666666666666,167.99718996286393L176.41666666666666,168.11105986833573L176.41666666666666,168.15354129076005L176.41666666666666,167.88567974567414L178.83333333333334,167.12989022731782L178.83333333333334,168.32464154958726L178.83333333333334,168.16179844141007L178.83333333333334,168.39543923139573L178.83333333333334,168.6845414876938L178.83333333333334,168.68395068645478L178.83333333333334,168.6597594857216L178.83333333333334,168.71817144155503L178.83333333333334,168.76950081586838L178.83333333333334,169.00431969165803L178.83333333333334,169.19547905921937L181.25,169.95716955661774L181.25,169.74064090251923L181.25,169.426169359684L181.25,169.32941159009934L181.25,169.29460003376008L181.25,169.49756135940552L181.25,169.16303070783616L183.66666666666666,169.74653836488724L183.66666666666666,169.6273582816124L183.66666666666666,169.53591068983079L183.66666666666666,169.7223506808281L183.66666666666666,169.66276063919068L183.66666666666666,169.33471825122834L183.66666666666666,169.39725878238679L183.66666666666666,169.66276063919068L183.66666666666666,169.54653104543686L183.66666666666666,169.64387961626053L183.66666666666666,169.20433052778245L183.66666666666666,169.2562507033348L183.66666666666666,169.15241035223008L183.66666666666666,169.24503954648972L186.08333333333334,171.26696887016297L186.08333333333334,170.8870098233223L186.08333333333334,170.60794063806534L186.08333333333334,170.54304041862488L186.08333333333334,170.54008992910386L186.08333333333334,169.87280102968217L186.08333333333334,169.9076090693474L186.08333333333334,169.94595839977265L186.08333333333334,169.95716955661774L186.08333333333334,169.85568889379502L188.5,169.09163870811463L188.5,169.84625014066697L188.5,169.61320015192032L188.5,169.91705133914948L188.5,169.90701826810837L188.5,170.04095079898835L188.5,170.1247285246849L188.5,170.15363910198212L190.91666666666666,169.44800087213517L190.91666666666666,169.40670105218888L190.91666666666666,169.42911984920502L190.91666666666666,169.72352876663209L190.91666666666666,169.6403383255005L190.91666666666666,170.04035999774933L190.91666666666666,170.1034913301468L190.91666666666666,170.24509021043778L190.91666666666666,170.1512794137001L190.91666666666666,170.29465069770814L190.91666666666666,170.3070399403572L193.33333333333331,170.80500098466874L193.33333333333331,170.6875897884369L193.33333333333331,170.79850920438767L193.33333333333331,170.95131924152375L193.33333333333331,170.87698026895524L193.33333333333331,171.38319846391678L193.33333333333331,171.2828994035721L195.75,172.39563837051392L195.75,172.33722993135453L195.75,171.95844897031785L195.75,171.98559066057206L195.75,172.03927972316743L195.75,172.14902105331421L195.75,172.118341588974L195.75,172.07114078998566L195.75,172.17320873737336L195.75,172.119519674778L195.75,172.04163941144944L198.16666666666666,171.61271067857743L198.16666666666666,172.5596595644951L198.16666666666666,172.682971739769L198.16666666666666,172.83519097566605L198.16666666666666,172.74314906597138L198.16666666666666,173.06646856069565L198.16666666666666,173.00806012153626L198.16666666666666,172.83519097566605L198.16666666666666,172.88297905921937L198.16666666666666,172.85170879364014L200.58333333333334,173.7927602171898L200.58333333333334,172.42101117372513L200.58333333333334,172.3755792617798L200.58333333333334,172.48118849992753L200.58333333333334,172.42926832437516L200.58333333333334,172.0493092775345L200.58333333333334,172.55906876325608L200.58333333333334,172.58207836151124L200.58333333333334,172.43399121761323L200.58333333333334,172.6723513841629L203,173.22163828611374L203,173.08180829286576L203,174.4458909869194L203,173.99866851568223L203,174.00044091939927L203,173.95559980869294L203,173.83170034885407L203,173.8670991897583L203,173.9939491391182L203,174.09542980194092L203,173.57564076185227L205.41666666666669,172.7171889781952L205.41666666666669,172.98800101280213L205.41666666666669,173.1838797569275L205.41666666666669,173.113669359684L205.41666666666669,173.1986286878586L205.41666666666669,173.22931166887284L205.41666666666669,173.14670851230622L205.41666666666669,173.33197041749955L207.83333333333334,174.71374901533127L207.83333333333334,173.4139792561531L207.83333333333334,173.67593982219697L207.83333333333334,173.97565891742707L207.83333333333334,174.531441116333L207.83333333333334,174.8441402554512L207.83333333333334,174.9279214978218L207.83333333333334,174.84709074497223L210.25,177.2147583603859L210.25,176.28374000787736L210.25,176.39406862258912L210.25,176.36574884653092L210.25,176.6324287891388L210.25,176.6306599020958L210.25,176.59584834575654L210.25,176.07133992910386L210.25,175.2842801451683L210.25,175.39048018455506L210.25,175.4370901823044L212.66666666666666,176.2719415664673L212.66666666666666,175.100199842453L212.66666666666666,175.9073187351227L212.66666666666666,176.21529849767686L212.66666666666666,176.0766501069069L212.66666666666666,176.13033916950226L212.66666666666666,176.22710045576096L212.66666666666666,176.38286098241807L212.66666666666666,175.84595980644227L212.66666666666666,175.93032833337784L212.66666666666666,175.78813865184785L215.08333333333334,175.93150993585587L215.08333333333334,176.67726989984513L215.08333333333334,176.89615824222565L215.08333333333334,176.36516156196595L215.08333333333334,175.7657198548317L215.08333333333334,175.76217856407166L215.08333333333334,175.79344882965088L215.08333333333334,175.7680795431137L215.08333333333334,175.54860039949418L215.08333333333334,175.67426874637604L217.5,177.2991304039955L217.5,176.46722950935364L217.5,176.45188977718354L217.5,176.51207062005997L217.5,176.36516156196595L217.5,176.4070486664772L217.5,176.3173699617386L219.91666666666666,177.51153048276902L227.16666666666666,178.44077994823454L229.58333333333331,176.41530933380128L229.58333333333331,178.04489036798475" style="fill: none;" fill="none"></path></g></g></g></g></g></g><g transform="translate(40, 177)" clip-path="url(#clip_1)"><clipPath id="clip_1"><rect width="290" height="23"></rect></clipPath><g><g><line x1="0" y1="0" x2="0" y2="5" style="visibility: inherit;" fill="rgb(0, 0, 0)" stroke="rgb(204, 204, 204)" stroke-width="1px"></line><line x1="24.166666666666664" y1="0" x2="24.166666666666664" y2="5" style="visibility: inherit;" fill="rgb(0, 0, 0)" stroke="rgb(204, 204, 204)" stroke-width="1px"></line><line x1="48.33333333333333" y1="0" x2="48.33333333333333" y2="5" style="visibility: inherit;" fill="rgb(0, 0, 0)" stroke="rgb(204, 204, 204)" stroke-width="1px"></line><line x1="72.5" y1="0" x2="72.5" y2="5" style="visibility: inherit;" fill="rgb(0, 0, 0)" stroke="rgb(204, 204, 204)" stroke-width="1px"></line><line x1="96.66666666666666" y1="0" x2="96.66666666666666" y2="5" style="visibility: inherit;" fill="rgb(0, 0, 0)" stroke="rgb(204, 204, 204)" stroke-width="1px"></line><line x1="120.83333333333334" y1="0" x2="120.83333333333334" y2="5" style="visibility: inherit;" fill="rgb(0, 0, 0)" stroke="rgb(204, 204, 204)" stroke-width="1px"></line><line x1="145" y1="0" x2="145" y2="5" style="visibility: inherit;" fill="rgb(0, 0, 0)" stroke="rgb(204, 204, 204)" stroke-width="1px"></line><line x1="169.16666666666669" y1="0" x2="169.16666666666669" y2="5" style="visibility: inherit;" fill="rgb(0, 0, 0)" stroke="rgb(204, 204, 204)" stroke-width="1px"></line><line x1="193.33333333333331" y1="0" x2="193.33333333333331" y2="5" style="visibility: inherit;" fill="rgb(0, 0, 0)" stroke="rgb(204, 204, 204)" stroke-width="1px"></line><line x1="217.5" y1="0" x2="217.5" y2="5" style="visibility: inherit;" fill="rgb(0, 0, 0)" stroke="rgb(204, 204, 204)" stroke-width="1px"></line><line x1="241.66666666666669" y1="0" x2="241.66666666666669" y2="5" style="visibility: inherit;" fill="rgb(0, 0, 0)" stroke="rgb(204, 204, 204)" stroke-width="1px"></line><line x1="265.8333333333333" y1="0" x2="265.8333333333333" y2="5" style="visibility: inherit;" fill="rgb(0, 0, 0)" stroke="rgb(204, 204, 204)" stroke-width="1px"></line><line x1="290" y1="0" x2="290" y2="5" style="visibility: inherit;" fill="rgb(0, 0, 0)" stroke="rgb(204, 204, 204)" stroke-width="1px"></line></g><g transform="translate(0, 8)"><text x="0" y="0" dx="0em" dy="0.95em" style="text-anchor: middle; visibility: hidden; font-family: Roboto, sans-serif; font-size: 12px; font-weight: 200;" fill="rgb(33, 33, 33)" stroke="none" stroke-width="1px">-10</text><text x="24.166666666666664" y="0" dx="0em" dy="0.95em" style="text-anchor: middle; visibility: inherit; font-family: Roboto, sans-serif; font-size: 12px; font-weight: 200;" fill="rgb(33, 33, 33)" stroke="none" stroke-width="1px">0</text><text x="48.33333333333333" y="0" dx="0em" dy="0.95em" style="text-anchor: middle; visibility: inherit; font-family: Roboto, sans-serif; font-size: 12px; font-weight: 200;" fill="rgb(33, 33, 33)" stroke="none" stroke-width="1px">10</text><text x="72.5" y="0" dx="0em" dy="0.95em" style="text-anchor: middle; visibility: inherit; font-family: Roboto, sans-serif; font-size: 12px; font-weight: 200;" fill="rgb(33, 33, 33)" stroke="none" stroke-width="1px">20</text><text x="96.66666666666666" y="0" dx="0em" dy="0.95em" style="text-anchor: middle; visibility: inherit; font-family: Roboto, sans-serif; font-size: 12px; font-weight: 200;" fill="rgb(33, 33, 33)" stroke="none" stroke-width="1px">30</text><text x="120.83333333333334" y="0" dx="0em" dy="0.95em" style="text-anchor: middle; visibility: inherit; font-family: Roboto, sans-serif; font-size: 12px; font-weight: 200;" fill="rgb(33, 33, 33)" stroke="none" stroke-width="1px">40</text><text x="145" y="0" dx="0em" dy="0.95em" style="text-anchor: middle; visibility: inherit; font-family: Roboto, sans-serif; font-size: 12px; font-weight: 200;" fill="rgb(33, 33, 33)" stroke="none" stroke-width="1px">50</text><text x="169.16666666666669" y="0" dx="0em" dy="0.95em" style="text-anchor: middle; visibility: inherit; font-family: Roboto, sans-serif; font-size: 12px; font-weight: 200;" fill="rgb(33, 33, 33)" stroke="none" stroke-width="1px">60</text><text x="193.33333333333331" y="0" dx="0em" dy="0.95em" style="text-anchor: middle; visibility: inherit; font-family: Roboto, sans-serif; font-size: 12px; font-weight: 200;" fill="rgb(33, 33, 33)" stroke="none" stroke-width="1px">70</text><text x="217.5" y="0" dx="0em" dy="0.95em" style="text-anchor: middle; visibility: inherit; font-family: Roboto, sans-serif; font-size: 12px; font-weight: 200;" fill="rgb(33, 33, 33)" stroke="none" stroke-width="1px">80</text><text x="241.66666666666669" y="0" dx="0em" dy="0.95em" style="text-anchor: middle; visibility: inherit; font-family: Roboto, sans-serif; font-size: 12px; font-weight: 200;" fill="rgb(33, 33, 33)" stroke="none" stroke-width="1px">90</text><text x="265.8333333333333" y="0" dx="0em" dy="0.95em" style="text-anchor: middle; visibility: inherit; font-family: Roboto, sans-serif; font-size: 12px; font-weight: 200;" fill="rgb(33, 33, 33)" stroke="none" stroke-width="1px">100</text><text x="290" y="0" dx="0em" dy="0.95em" style="text-anchor: middle; visibility: hidden; font-family: Roboto, sans-serif; font-size: 12px; font-weight: 200;" fill="rgb(33, 33, 33)" stroke="none" stroke-width="1px">110</text></g><line x1="0" y1="0" x2="290" y2="0" fill="rgb(0, 0, 0)" stroke="rgb(204, 204, 204)" stroke-width="1px"></line></g></g></g></g></svg>