<svg viewBox="0 0 330 200" xmlns="http://www.w3.org/2000/svg"><g><g><g><g><g><line x1="40" y1="177" x2="35" y2="177" style="visibility: inherit;" fill="rgb(0, 0, 0)" stroke="rgb(204, 204, 204)" stroke-width="1px"></line><line x1="40" y1="159.3" x2="35" y2="159.3" style="visibility: inherit;" fill="rgb(0, 0, 0)" stroke="rgb(204, 204, 204)" stroke-width="1px"></line><line x1="40" y1="141.6" x2="35" y2="141.6" style="visibility: inherit;" fill="rgb(0, 0, 0)" stroke="rgb(204, 204, 204)" stroke-width="1px"></line><line x1="40" y1="123.89999999999999" x2="35" y2="123.89999999999999" style="visibility: inherit;" fill="rgb(0, 0, 0)" stroke="rgb(204, 204, 204)" stroke-width="1px"></line><line x1="40" y1="106.19999999999997" x2="35" y2="106.19999999999997" style="visibility: inherit;" fill="rgb(0, 0, 0)" stroke="rgb(204, 204, 204)" stroke-width="1px"></line><line x1="40" y1="88.49999999999999" x2="35" y2="88.49999999999999" style="visibility: inherit;" fill="rgb(0, 0, 0)" stroke="rgb(204, 204, 204)" stroke-width="1px"></line><line x1="40" y1="70.79999999999998" x2="35" y2="70.79999999999998" style="visibility: inherit;" fill="rgb(0, 0, 0)" stroke="rgb(204, 204, 204)" stroke-width="1px"></line><line x1="40" y1="53.099999999999966" x2="35" y2="53.099999999999966" style="visibility: inherit;" fill="rgb(0, 0, 0)" stroke="rgb(204, 204, 204)" stroke-width="1px"></line><line x1="40" y1="35.39999999999999" x2="35" y2="35.39999999999999" style="visibility: inherit;" fill="rgb(0, 0, 0)" stroke="rgb(204, 204, 204)" stroke-width="1px"></line><line x1="40" y1="17.699999999999978" x2="35" y2="17.699999999999978" style="visibility: inherit;" fill="rgb(0, 0, 0)" stroke="rgb(204, 204, 204)" stroke-width="1px"></line><line x1="40" y1="0" x2="35" y2="0" style="visibility: inherit;" fill="rgb(0, 0, 0)" stroke="rgb(204, 204, 204)" stroke-width="1px"></line></g><g transform="translate(30, 0)"><text x="0" y="177" dx="0em" dy="0.3em" style="text-anchor: end; visibility: hidden; font-family: Roboto, sans-serif; font-size: 12px; font-weight: 200;" fill="rgb(33, 33, 33)" stroke="none" stroke-width="1px">0.8</text><text x="0" y="159.3" dx="0em" dy="0.3em" style="text-anchor: end; visibility: inherit; font-family: Roboto, sans-serif; font-size: 12px; font-weight: 200;" fill="rgb(33, 33, 33)" stroke="none" stroke-width="1px">1</text><text x="0" y="141.6" dx="0em" dy="0.3em" style="text-anchor: end; visibility: hidden; font-family: Roboto, sans-serif; font-size: 12px; font-weight: 200;" fill="rgb(33, 33, 33)" stroke="none" stroke-width="1px">1.2</text><text x="0" y="123.89999999999999" dx="0em" dy="0.3em" style="text-anchor: end; visibility: inherit; font-family: Roboto, sans-serif; font-size: 12px; font-weight: 200;" fill="rgb(33, 33, 33)" stroke="none" stroke-width="1px">1.4</text><text x="0" y="106.19999999999997" dx="0em" dy="0.3em" style="text-anchor: end; visibility: hidden; font-family: Roboto, sans-serif; font-size: 12px; font-weight: 200;" fill="rgb(33, 33, 33)" stroke="none" stroke-width="1px">1.6</text><text x="0" y="88.49999999999999" dx="0em" dy="0.3em" style="text-anchor: end; visibility: inherit; font-family: Roboto, sans-serif; font-size: 12px; font-weight: 200;" fill="rgb(33, 33, 33)" stroke="none" stroke-width="1px">1.8</text><text x="0" y="70.79999999999998" dx="0em" dy="0.3em" style="text-anchor: end; visibility: hidden; font-family: Roboto, sans-serif; font-size: 12px; font-weight: 200;" fill="rgb(33, 33, 33)" stroke="none" stroke-width="1px">2</text><text x="0" y="53.099999999999966" dx="0em" dy="0.3em" style="text-anchor: end; visibility: inherit; font-family: Roboto, sans-serif; font-size: 12px; font-weight: 200;" fill="rgb(33, 33, 33)" stroke="none" stroke-width="1px">2.2</text><text x="0" y="35.39999999999999" dx="0em" dy="0.3em" style="text-anchor: end; visibility: hidden; font-family: Roboto, sans-serif; font-size: 12px; font-weight: 200;" fill="rgb(33, 33, 33)" stroke="none" stroke-width="1px">2.4</text><text x="0" y="17.699999999999978" dx="0em" dy="0.3em" style="text-anchor: end; visibility: inherit; font-family: Roboto, sans-serif; font-size: 12px; font-weight: 200;" fill="rgb(33, 33, 33)" stroke="none" stroke-width="1px">2.6</text><text x="0" y="0" dx="0em" dy="0.3em" style="text-anchor: end; visibility: hidden; font-family: Roboto, sans-serif; font-size: 12px; font-weight: 200;" fill="rgb(33, 33, 33)" stroke="none" stroke-width="1px">2.8</text></g><line x1="40" y1="0" x2="40" y2="177" fill="rgb(0, 0, 0)" stroke="rgb(204, 204, 204)" stroke-width="1px"></line></g></g><g transform="translate(40, 0)" clip-path="url(#clip_0)"><clipPath id="clip_0"><rect width="290" height="177"></rect></clipPath><g><g><g><line x1="0" y1="0" x2="0" y2="177" fill="rgb(0, 0, 0)" stroke="rgb(66, 66, 66)" stroke-width="1px" opacity="0.25"></line><line x1="24.166666666666664" y1="0" x2="24.166666666666664" y2="177" fill="rgb(0, 0, 0)" stroke="rgb(66, 66, 66)" stroke-width="1px" opacity="0.25"></line><line x1="48.33333333333333" y1="0" x2="48.33333333333333" y2="177" fill="rgb(0, 0, 0)" stroke="rgb(66, 66, 66)" stroke-width="1px" opacity="0.25"></line><line x1="72.5" y1="0" x2="72.5" y2="177" fill="rgb(0, 0, 0)" stroke="rgb(66, 66, 66)" stroke-width="1px" opacity="0.25"></line><line x1="96.66666666666666" y1="0" x2="96.66666666666666" y2="177" fill="rgb(0, 0, 0)" stroke="rgb(66, 66, 66)" stroke-width="1px" opacity="0.25"></line><line x1="120.83333333333334" y1="0" x2="120.83333333333334" y2="177" fill="rgb(0, 0, 0)" stroke="rgb(66, 66, 66)" stroke-width="1px" opacity="0.25"></line><line x1="145" y1="0" x2="145" y2="177" fill="rgb(0, 0, 0)" stroke="rgb(66, 66, 66)" stroke-width="1px" opacity="0.25"></line><line x1="169.16666666666669" y1="0" x2="169.16666666666669" y2="177" fill="rgb(0, 0, 0)" stroke="rgb(66, 66, 66)" stroke-width="1px" opacity="0.25"></line><line x1="193.33333333333331" y1="0" x2="193.33333333333331" y2="177" fill="rgb(0, 0, 0)" stroke="rgb(66, 66, 66)" stroke-width="1px" opacity="0.25"></line><line x1="217.5" y1="0" x2="217.5" y2="177" fill="rgb(0, 0, 0)" stroke="rgb(66, 66, 66)" stroke-width="1px" opacity="0.25"></line><line x1="241.66666666666669" y1="0" x2="241.66666666666669" y2="177" fill="rgb(0, 0, 0)" stroke="rgb(66, 66, 66)" stroke-width="1px" opacity="0.25"></line><line x1="265.8333333333333" y1="0" x2="265.8333333333333" y2="177" fill="rgb(0, 0, 0)" stroke="rgb(66, 66, 66)" stroke-width="1px" opacity="0.25"></line><line x1="290" y1="0" x2="290" y2="177" fill="rgb(0, 0, 0)" stroke="rgb(66, 66, 66)" stroke-width="1px" opacity="0.25"></line></g><g><line x1="0" y1="177" x2="290" y2="177" fill="rgb(0, 0, 0)" stroke="rgb(66, 66, 66)" stroke-width="1px" opacity="0.25"></line><line x1="0" y1="159.3" x2="290" y2="159.3" fill="rgb(0, 0, 0)" stroke="rgb(66, 66, 66)" stroke-width="1px" opacity="0.25"></line><line x1="0" y1="141.6" x2="290" y2="141.6" fill="rgb(0, 0, 0)" stroke="rgb(66, 66, 66)" stroke-width="1px" opacity="0.25"></line><line x1="0" y1="123.89999999999999" x2="290" y2="123.89999999999999" fill="rgb(0, 0, 0)" stroke="rgb(66, 66, 66)" stroke-width="1px" opacity="0.25"></line><line x1="0" y1="106.19999999999997" x2="290" y2="106.19999999999997" fill="rgb(0, 0, 0)" stroke="rgb(66, 66, 66)" stroke-width="1px" opacity="0.25"></line><line x1="0" y1="88.49999999999999" x2="290" y2="88.49999999999999" fill="rgb(0, 0, 0)" stroke="rgb(66, 66, 66)" stroke-width="1px" opacity="0.25"></line><line x1="0" y1="70.79999999999998" x2="290" y2="70.79999999999998" fill="rgb(0, 0, 0)" stroke="rgb(66, 66, 66)" stroke-width="1px" opacity="0.25"></line><line x1="0" y1="53.099999999999966" x2="290" y2="53.099999999999966" fill="rgb(0, 0, 0)" stroke="rgb(66, 66, 66)" stroke-width="1px" opacity="0.25"></line><line x1="0" y1="35.39999999999999" x2="290" y2="35.39999999999999" fill="rgb(0, 0, 0)" stroke="rgb(66, 66, 66)" stroke-width="1px" opacity="0.25"></line><line x1="0" y1="17.699999999999978" x2="290" y2="17.699999999999978" fill="rgb(0, 0, 0)" stroke="rgb(66, 66, 66)" stroke-width="1px" opacity="0.25"></line><line x1="0" y1="0" x2="290" y2="0" fill="rgb(0, 0, 0)" stroke="rgb(66, 66, 66)" stroke-width="1px" opacity="0.25"></line></g></g></g><g><g><line x1="0" y1="247.8" x2="290" y2="247.8" fill="rgb(0, 0, 0)" stroke="rgb(153, 153, 153)" stroke-width="1.5px"></line></g></g><g><g><line x1="24.166666666666664" y1="0" x2="24.166666666666664" y2="177" fill="rgb(0, 0, 0)" stroke="rgb(153, 153, 153)" stroke-width="1.5px"></line></g></g><g><g><g><g><g><path stroke="rgb(0, 119, 187)" stroke-width="2px" d="M26.583333333333332,8.835837650299018L26.583333333333332,16.554396145160243L26.583333333333332,23.44528452900811L26.583333333333332,34.10169828135937L26.583333333333332,41.05044005427127L26.583333333333332,46.17308083304493L26.583333333333332,50.02992506975679L29,60.54973390048047L29,69.03114659969151L29,75.94105665119974L29,81.7696919833325L29,86.72301593807296L29,90.94416856977114L29,94.56019495628655L29,97.73484125459701L29,100.5667826250439L31.416666666666668,103.42022179402227L31.416666666666668,105.71088091852788L31.416666666666668,107.65690293573003L31.416666666666668,109.37546055758787L31.416666666666668,110.96363757340524L31.416666666666668,112.4419390547698L31.416666666666668,113.7958029735789L31.416666666666668,115.02085686202417L33.833333333333336,116.4019761411339L33.833333333333336,117.2553571744212L33.833333333333336,118.06527193002793L33.833333333333336,118.8460847351805L33.833333333333336,119.56343760462966L33.833333333333336,120.22451959217095L33.833333333333336,120.82171827495287L33.833333333333336,121.37647235602333L36.25,122.11976805027474L36.25,122.91671879214185L36.25,123.62044148124279L36.25,124.2853248601968L36.25,124.88156094123914L36.25,125.43519351104764L36.25,125.94908287269084L36.25,126.39116507453585L36.25,126.78608382432247L38.666666666666664,127.1387197703318L38.666666666666664,127.4976379112919L38.666666666666664,127.78255715775545L38.666666666666664,128.00543491764157L38.666666666666664,128.2068664372522L38.666666666666664,128.4004660794258L38.666666666666664,128.55820139596176L38.666666666666664,128.68461866109456L38.666666666666664,128.81283767479562L41.083333333333336,129.01104156581314L41.083333333333336,129.18535866350385L41.083333333333336,129.3469487498886L41.083333333333336,129.50350484335348L41.083333333333336,129.6458991940013L41.083333333333336,129.79277345248354L41.083333333333336,129.92031899304956L41.083333333333336,130.0413890035518L43.5,130.07768976340515L43.5,130.10016683516423L43.5,130.09799936503362L43.5,130.06810979371446L43.5,130.03141017832917L43.5,130.0195418448927L43.5,130.00744003589344L45.916666666666664,130.01270456425698L45.916666666666664,129.97836790751242L45.916666666666664,130.00588236044283L45.916666666666664,130.0603287605125L45.916666666666664,130.1174003452655L45.916666666666664,130.18613798419437L48.33333333333333,130.4500671254744L48.33333333333333,130.70766706337295L48.33333333333333,130.9555821069528L48.33333333333333,131.13963418322547L48.33333333333333,131.2800377517616L48.33333333333333,131.42247754941206L48.33333333333333,131.54909369213104L48.33333333333333,131.6634302312397L48.33333333333333,131.77644197865092L50.75,131.7271740068808L50.75,131.98895296174265L50.75,132.24183573464842L50.75,132.47427487140436L50.75,132.67250598410016L50.75,132.83974640611277L50.75,132.9916204249597L53.166666666666664,133.02468248763753L53.166666666666664,133.12299504836054L53.166666666666664,133.2116433316833L53.166666666666664,133.3141320433962L53.166666666666664,133.42975202319857L53.166666666666664,133.51373911964436L53.166666666666664,133.60813305257872L53.166666666666664,133.68943853066065L53.166666666666664,133.74375146968302L53.166666666666664,133.81072665224607L55.583333333333336,133.8620589359376L55.583333333333336,133.9039340428844L55.583333333333336,133.9268190719332L55.583333333333336,133.97039670362193L55.583333333333336,133.99886997238426L55.583333333333336,134.03684571916756L55.583333333333336,134.0749932780429L55.583333333333336,134.1093930152128L55.583333333333336,134.1322352431063L55.583333333333336,134.15712496106792L55.583333333333336,134.18231497050456L55.583333333333336,134.20392621875237L55.583333333333336,134.22809007375662L58,134.4070129753566L58,134.47855837270504L58,134.57606438851192L58,134.69236396081467L58,134.80596616284262L58,134.91572103572219L58,135.02373062754518L58,135.1242292979868L58,135.22105451356427L60.41666666666667,135.3360319948531L60.41666666666667,135.56650532669207L60.41666666666667,135.66982845736797L60.41666666666667,135.75222847874295L60.41666666666667,135.78891555194951L60.41666666666667,135.84290963616854L60.41666666666667,135.89703140762438L60.41666666666667,135.93793602897608L60.41666666666667,135.9782522098843L60.41666666666667,136.02345916502466L60.41666666666667,136.06981133379003L60.41666666666667,136.10054900573024L60.41666666666667,136.13200541272323L60.41666666666667,136.15431074929793L62.833333333333336,136.18643959471257L62.833333333333336,136.21656009695945L62.833333333333336,136.21890660598675L62.833333333333336,136.23304973860186L62.833333333333336,136.22345494882936L62.833333333333336,136.22798065825808L62.833333333333336,136.23365227573396L62.833333333333336,136.23656042639388L62.833333333333336,136.25105737175866L65.25,136.29002308943873L65.25,136.31747379409612L65.25,136.3384146945868L65.25,136.3537909943581L65.25,136.3850887312737L65.25,136.43722210652524L65.25,136.50082408881434L65.25,136.56181876296583L65.25,136.62604730681133L65.25,136.6804657640019L65.25,136.7395537664925L65.25,136.7868757456459L65.25,136.83355650548498L65.25,136.88210668692224L65.25,136.92893590536903L65.25,136.97541412859886L67.66666666666667,136.93648605785998L67.66666666666667,136.88520893872544L67.66666666666667,136.88876959150275L67.66666666666667,136.8960027726262L67.66666666666667,136.9241194489319L67.66666666666667,136.9682679634008L67.66666666666667,136.9940088102495L67.66666666666667,137.0249242141776L67.66666666666667,137.0442466537232L67.66666666666667,137.04458941006789L67.66666666666667,137.0457116861682L67.66666666666667,137.06009940813095L67.66666666666667,137.05770208621783L67.66666666666667,137.05918630397431L67.66666666666667,137.06918204467456L70.08333333333333,136.95502675987356L70.08333333333333,137.06436280696244L70.08333333333333,137.21890274126446L70.08333333333333,137.34885301154517L70.08333333333333,137.49133387730876L70.08333333333333,137.52915211339905L70.08333333333333,137.5756559620172L70.08333333333333,137.61855064539805L72.5,137.5907506630984L72.5,137.59416833222198L72.5,137.53245079232008L72.5,137.50975306527585L72.5,137.602142514043L72.5,137.6788926473266L72.5,137.76224890734375L72.5,137.85449117397914L72.5,137.95004219337883L72.5,138.04528435430433L72.5,138.13434800290992L72.5,138.20785038941298L72.5,138.2752876028927L74.91666666666667,138.20102134308158L74.91666666666667,138.17507455496977L74.91666666666667,138.2041908535295L74.91666666666667,138.29628165365813L74.91666666666667,138.37637752936138L74.91666666666667,138.4386177685787L74.91666666666667,138.55040533461107L74.91666666666667,138.66040867275183L74.91666666666667,138.75287515020585L74.91666666666667,138.84045216468635L74.91666666666667,138.92294215896368L74.91666666666667,138.98281065998154L74.91666666666667,139.04052644288504L77.33333333333333,139.06535397577974L77.33333333333333,139.09761344053678L77.33333333333333,139.05843149311877L77.33333333333333,139.02258078098333L77.33333333333333,138.98874370129803L77.33333333333333,138.9594307424891L77.33333333333333,138.9438407082825L77.33333333333333,138.94310204980223L77.33333333333333,138.94948055449484L77.33333333333333,138.9518670803223L77.33333333333333,138.91811441688944L77.33333333333333,138.89122692429117L77.33333333333333,138.8570991801217L77.33333333333333,138.83171375872058L77.33333333333333,138.81454490629278L79.75,138.86571634901773L79.75,138.89600939243155L79.75,138.966117866983L79.75,139.02803026817813L79.75,139.05511963360166L79.75,139.08350944277717L79.75,139.10795720815068L79.75,139.1164029291854L79.75,139.09836339703028L79.75,139.07587115396575L82.16666666666667,139.06910644526732L82.16666666666667,139.08462784928477L82.16666666666667,139.08870914938083L82.16666666666667,139.0871435956393L82.16666666666667,139.09092186413721L82.16666666666667,139.1042019884679L82.16666666666667,139.1006669946626L82.16666666666667,139.092751122093L82.16666666666667,139.08040755587106L82.16666666666667,139.07027423292803L82.16666666666667,139.07839173089297L82.16666666666667,139.09999778102193L84.58333333333334,139.3350484185677L84.58333333333334,139.49254626597144L84.58333333333334,139.59460055325485L84.58333333333334,139.68655189694306L84.58333333333334,139.72806250536084L84.58333333333334,139.7685151242456L87,139.88513520837037L87,140.00964195881406L87,140.12097560904937L87,140.24006198386476L87,140.34633543073477L87,140.36291013686193L87,140.37418710668908L87,140.39631642532302L87,140.41968454806965L89.41666666666667,140.41192689710303L89.41666666666667,140.38402517284857L89.41666666666667,140.36760753984254L89.41666666666667,140.39241110148237L89.41666666666667,140.43677229516425L89.41666666666667,140.51984639545782L89.41666666666667,140.5691633833907L89.41666666666667,140.61982044099267L89.41666666666667,140.6707762691167L91.83333333333333,140.82303935151447L91.83333333333333,140.9301211270721L91.83333333333333,140.95255265462282L91.83333333333333,140.97160595208533L91.83333333333333,140.989219699129L91.83333333333333,141.0052005402269L91.83333333333333,141.04091427896293L91.83333333333333,141.07537352214857L91.83333333333333,141.09903835813748L91.83333333333333,141.12917505173343L91.83333333333333,141.1509020250818L94.25,141.203225965759L94.25,141.26873079076603L94.25,141.34388151735897L94.25,141.4241245942464L94.25,141.47535405918504L94.25,141.49800304480002L94.25,141.5196082003686L94.25,141.52995548680354L94.25,141.5449185237454L94.25,141.5632484459112L94.25,141.5898219312019L94.25,141.62104016582424L94.25,141.6594149737223L94.25,141.70029624815055L96.66666666666666,141.67815642257838L96.66666666666666,141.63070632640745L96.66666666666666,141.64788865271916L96.66666666666666,141.68894797765188L96.66666666666666,141.73113991528217L99.08333333333333,141.8571558965753L99.08333333333333,141.95594088288186L99.08333333333333,142.04514038721427L99.08333333333333,142.0907187526529L99.08333333333333,142.09892776415276L99.08333333333333,142.17872127059087L99.08333333333333,142.25704708358603L99.08333333333333,142.34225349899518L99.08333333333333,142.43474923076198L99.08333333333333,142.5145662866342L101.5,142.5267610768724L101.5,142.57047200380862L101.5,142.61102361671132L101.5,142.68990359766124L101.5,142.79249593714778L101.5,142.86601960096715L101.5,142.93130894337258L101.5,142.99775902523035L103.91666666666667,142.91534850705585L103.91666666666667,142.93679790538016L103.91666666666667,142.97593699443274L103.91666666666667,143.0169688320937L103.91666666666667,143.05369190018078L103.91666666666667,143.10999588846383L103.91666666666667,143.1778216304457L103.91666666666667,143.2376984750724L103.91666666666667,143.28652811726107L103.91666666666667,143.35052795746418L106.33333333333333,143.4330545220094L106.33333333333333,143.4913205671906L106.33333333333333,143.6049948898776L106.33333333333333,143.70904717247575L106.33333333333333,143.8081627010609L106.33333333333333,143.88192292920638L106.33333333333333,143.95642035260494L106.33333333333333,144.02073259827336L106.33333333333333,144.07718247402565L108.75,144.1597053123456L108.75,144.24133242536132L108.75,144.29029236918453L108.75,144.33476921635037L108.75,144.39383684674786L108.75,144.44778306587023L108.75,144.47832280747397L108.75,144.5164069986577L108.75,144.550905306634L111.16666666666667,144.7255000119893L111.16666666666667,144.797333687682L111.16666666666667,144.8674340658847L111.16666666666667,144.93137451193516L111.16666666666667,144.98552469913486L111.16666666666667,145.03378127015307L111.16666666666667,145.07112907959893L111.16666666666667,145.1064327856441L111.16666666666667,145.12842166945768L111.16666666666667,145.1582939255066L111.16666666666667,145.20525748792065L111.16666666666667,145.24168710989434L113.58333333333333,145.1869544973682L113.58333333333333,145.19146548963153L113.58333333333333,145.20734435170712L113.58333333333333,145.21911076117212L113.58333333333333,145.25391826242253L113.58333333333333,145.2955256315637L113.58333333333333,145.36270898793973L113.58333333333333,145.43016132908036L113.58333333333333,145.51335716584404L113.58333333333333,145.58898608104022L113.58333333333333,145.66671888030663L113.58333333333333,145.74852977881307L113.58333333333333,145.82943623904464L113.58333333333333,145.9104129398717L116,145.87344118362532L116,145.99991903495143L116,146.1339230627615L116,146.299901160404L116,146.45023490015168L116,146.5839367336925L116,146.70064293883718L116,146.80067263090206L116,146.90039137818047L116,146.99826598465955L116,147.09368075089418L116,147.15927902618398L116,147.2267748110627L116,147.29142700029362L116,147.35072233308486L116,147.40838061950902L118.41666666666667,147.3956305748235L118.41666666666667,147.46865460111516L118.41666666666667,147.500415014615L118.41666666666667,147.53859698424708L118.41666666666667,147.5750022581678L118.41666666666667,147.61290630535237L120.83333333333334,147.63360443053463L120.83333333333334,147.6989339478008L120.83333333333334,147.74134968295797L120.83333333333334,147.77469744177074L120.83333333333334,147.80292637289477L120.83333333333334,147.82549589104414L120.83333333333334,147.8544153164762L123.25,147.94167047107914L123.25,147.87809532810246L123.25,147.8792504089343L123.25,147.86455066007858L123.25,147.8451874523402L123.25,147.85710367358752L123.25,147.87953061957379L123.25,147.89707513536786L123.25,147.92772542470695L123.25,147.96153373941715L123.25,147.99325337505383L123.25,148.01475816580404L123.25,148.02664747409926L125.66666666666667,148.08489149796924L125.66666666666667,148.10150473941928L125.66666666666667,148.12773025820246L125.66666666666667,148.15742366107034L125.66666666666667,148.20470419629996L128.08333333333334,148.31692457094658L128.08333333333334,148.3711419894562L128.08333333333334,148.3778673856042L128.08333333333334,148.40080633165934L128.08333333333334,148.4331742000944L128.08333333333334,148.4771544578588L128.08333333333334,148.51973222940404L128.08333333333334,148.55756998189366L128.08333333333334,148.59789674344646L128.08333333333334,148.65134064616257L128.08333333333334,148.6951208540768L130.5,148.85331089615468L130.5,148.91279056067506L130.5,149.01770554600282L130.5,149.10095789262863L130.5,149.15491377670546L130.5,149.23515541486702L130.5,149.29762352225592L130.5,149.3645347001438L130.5,149.40124049030126L130.5,149.44478416414094L130.5,149.49513347062788L132.91666666666666,149.73390383225134L132.91666666666666,149.91635331520573L132.91666666666666,150.07313050429946L132.91666666666666,150.20507696829915L132.91666666666666,150.33878911163686L132.91666666666666,150.45015150245362L132.91666666666666,150.55948583365276L132.91666666666666,150.65317584194537L132.91666666666666,150.73850835961903L132.91666666666666,150.81722898148948L135.33333333333334,150.884801049639L135.33333333333334,150.97957111600772L135.33333333333334,151.08517873172417L135.33333333333334,151.17882411014037L135.33333333333334,151.26738895629975L135.33333333333334,151.35608369721007L135.33333333333334,151.39516428632194L135.33333333333334,151.40649287687336L135.33333333333334,151.42491066145283L135.33333333333334,151.45789498928397L135.33333333333334,151.49197363397718L135.33333333333334,151.5365167419555L135.33333333333334,151.57662035489486L135.33333333333334,151.60228453110966L135.33333333333334,151.62945334186028L135.33333333333334,151.638581489587L137.75,151.6183577743273L137.75,151.63197902369018L137.75,151.6399190275984L137.75,151.698349535533L137.75,151.73239713556168L137.75,151.7631049921549L137.75,151.78466666995698L137.75,151.8094425403707L137.75,151.83381992652593L137.75,151.85750963698737L137.75,151.86594324241466L137.75,151.87523857776216L137.75,151.8895119027568L137.75,151.90041664843378L140.16666666666666,152.05308382277389L140.16666666666666,152.17891343312172L140.16666666666666,152.3040272496452L140.16666666666666,152.4023529222818L140.16666666666666,152.48487679845738L140.16666666666666,152.57902777386175L140.16666666666666,152.62948675873795L140.16666666666666,152.66029799845631L140.16666666666666,152.67279836101824L140.16666666666666,152.6898949114019L140.16666666666666,152.69914513460384L140.16666666666666,152.7112075735134L140.16666666666666,152.71346252367422L142.58333333333331,152.70356873358526L142.58333333333331,152.72859646520018L142.58333333333331,152.77184287606667L142.58333333333331,152.82053775235104L142.58333333333331,152.85905416858114L142.58333333333331,152.89829967706754L142.58333333333331,152.9353175770731L142.58333333333331,152.9525189494012L142.58333333333331,152.9665149831944L142.58333333333331,152.97246576239317L142.58333333333331,152.97426929955847L142.58333333333331,152.97881481330506L142.58333333333331,152.98472557720413L142.58333333333331,152.9865797200206L145,152.96218923335087L145,152.99716313545494L145,153.00043102712792L145,153.02561619302435L145,153.04586963792417L145,153.07484491599394L145,153.1238771227615L145,153.1726700588304L145,153.22083795190133L147.41666666666666,153.0793313925884L147.41666666666666,153.14429083189893L147.41666666666666,153.20002834921547L147.41666666666666,153.2660768431347L147.41666666666666,153.31129985310898L147.41666666666666,153.28102820650085L147.41666666666666,153.25302235880068L147.41666666666666,153.2273900430266L147.41666666666666,153.1971545406997L147.41666666666666,153.21374263101612L147.41666666666666,153.22489939716561L147.41666666666666,153.2336399386103L147.41666666666666,153.24057142260537L147.41666666666666,153.24547465887392L149.83333333333334,153.34518210266432L149.83333333333334,153.36525432771134L149.83333333333334,153.42034229954493L149.83333333333334,153.47780898605185L149.83333333333334,153.5251455055146L149.83333333333334,153.56405262878988L152.25,153.38542838627956L152.25,153.42220614640038L152.25,153.44302908891157L152.25,153.47006771701606L152.25,153.53071191202739L152.25,153.57792526798036L152.25,153.61799879611294L152.25,153.67381325755247L154.66666666666666,153.7172343657816L154.66666666666666,153.7506963922664L154.66666666666666,153.8039910100282L154.66666666666666,153.84054927739123L154.66666666666666,153.86359759188682L154.66666666666666,153.92700044270498L154.66666666666666,153.99072890081345L154.66666666666666,154.0458719621939L157.08333333333331,154.14591548545172L157.08333333333331,154.25622271456186L157.08333333333331,154.32769444733833L157.08333333333331,154.3974509798733L157.08333333333331,154.47588860880194L157.08333333333331,154.54465195672034L157.08333333333331,154.6126320503106L157.08333333333331,154.68898379890655L157.08333333333331,154.76589885676015L157.08333333333331,154.8403839746903L157.08333333333331,154.91070226329575L157.08333333333331,154.97219481133533L157.08333333333331,155.02663009862064L157.08333333333331,155.0906449473397L159.5,155.187390318977L159.5,155.32735377281293L159.5,155.41244041604713L159.5,155.4838916474459L159.5,155.54716839762364L159.5,155.59714801404124L159.5,155.6430361237981L159.5,155.69061193391832L159.5,155.74355266977247L159.5,155.79796193246497L159.5,155.84911953840884L159.5,155.89378094079615L159.5,155.939351069653L161.91666666666666,155.860291447975L161.91666666666666,155.82018661578581L161.91666666666666,155.85921454445602L161.91666666666666,155.8631924922792L161.91666666666666,155.85214770662301L161.91666666666666,155.83864629393952L161.91666666666666,155.84148409724065L161.91666666666666,155.86099516314107L161.91666666666666,155.89090307209636L161.91666666666666,155.92378457497617L161.91666666666666,155.94953493620463L161.91666666666666,155.98165340292684L161.91666666666666,156.0087582891665L164.33333333333334,156.00879910967828L164.33333333333334,155.94693194183682L164.33333333333334,155.97148062462935L164.33333333333334,155.99869588644864L164.33333333333334,156.03286960512386L164.33333333333334,156.06887469778943L164.33333333333334,156.11170839891793L164.33333333333334,156.15474568490848L164.33333333333334,156.20607404600017L164.33333333333334,156.2608537216575L164.33333333333334,156.30962021416542L166.75,156.41581870260646L166.75,156.5181230795947L166.75,156.6139402073561L166.75,156.68806323328036L166.75,156.7326821388056L166.75,156.77272482913608L166.75,156.8151905917305L166.75,156.85814366917006L169.16666666666669,156.88554159711978L169.16666666666669,156.92449076826992L169.16666666666669,156.96569613717836L169.16666666666669,157.0176737570534L169.16666666666669,157.06674232528422L169.16666666666669,157.11114512546382L169.16666666666669,157.15695646574446L169.16666666666669,157.20118514549563L169.16666666666669,157.24652090071874L169.16666666666669,157.28936884521718L169.16666666666669,157.3277734326652L171.58333333333334,157.2812449416483L171.58333333333334,157.26775240708554L171.58333333333334,157.2486509060731L171.58333333333334,157.23674376319616L171.58333333333334,157.23919342632325L174,157.31501997293503L174,157.34085822783308L174,157.41890267718114L174,157.4757433952775L174,157.53376849341313L174,157.58482161060496L174,157.64111009827005L174,157.67648559859603L174,157.7151811270778L176.41666666666666,157.73672030721323L176.41666666666666,157.80001614567146L176.41666666666666,157.88713995131533L176.41666666666666,157.93450749493687L176.41666666666666,157.97039091475997L176.41666666666666,157.99965722097738L176.41666666666666,158.0352925483097L176.41666666666666,158.06790700917682L176.41666666666666,158.09592566328226L176.41666666666666,158.13387147093943L176.41666666666666,158.16983189552897L176.41666666666666,158.1967369386691L178.83333333333334,158.31420403864792L178.83333333333334,158.37207838971884L178.83333333333334,158.4483874754657L178.83333333333334,158.52269544698024L178.83333333333334,158.55974659832677L178.83333333333334,158.59569740868352L178.83333333333334,158.63688622452725L178.83333333333334,158.67318370988977L178.83333333333334,158.71647189695102L178.83333333333334,158.7507371052756L178.83333333333334,158.792492892486L181.25,158.88198653482897L181.25,158.9536860921217L181.25,159.01879180523963L181.25,159.07006636302225L181.25,159.1192640764368L181.25,159.16741798090038L181.25,159.18612738468988L183.66666666666666,159.1944759285232L183.66666666666666,159.2215231577547L183.66666666666666,159.25075808544872L183.66666666666666,159.2773364767524L183.66666666666666,159.30147977867102L183.66666666666666,159.3099903427408L183.66666666666666,159.32457999474838L183.66666666666666,159.33799785447798L183.66666666666666,159.35016958126474L183.66666666666666,159.37806072720483L183.66666666666666,159.37623736395605L183.66666666666666,159.38331100858707L183.66666666666666,159.39042923432177L183.66666666666666,159.39931553197408L186.08333333333334,159.46930924507856L186.08333333333334,159.52628952632583L186.08333333333334,159.55156991175537L186.08333333333334,159.56487774170577L186.08333333333334,159.6055302251506L186.08333333333334,159.60936982648292L186.08333333333334,159.61934508726875L186.08333333333334,159.62992775483517L186.08333333333334,159.64188398551354L186.08333333333334,159.64571997513215L188.5,159.46147882124134L188.5,159.38357850374112L188.5,159.3376716035432L188.5,159.34570003290324L188.5,159.35239784759665L188.5,159.35712340812148L188.5,159.3678962837979L188.5,159.38467944192476L190.91666666666666,159.38637484601347L190.91666666666666,159.41409309214998L190.91666666666666,159.43967320940212L190.91666666666666,159.48167435666173L190.91666666666666,159.51984972668924L190.91666666666666,159.57191340384458L190.91666666666666,159.62248033071253L190.91666666666666,159.68950209354819L190.91666666666666,159.76317313421455L190.91666666666666,159.8347536761885L190.91666666666666,159.90956971410503L193.33333333333331,159.98838866636567L193.33333333333331,160.04123031229915L193.33333333333331,160.09054472907965L193.33333333333331,160.12495916894432L193.33333333333331,160.15070569724625L193.33333333333331,160.19596242149916L193.33333333333331,160.23006211338674L195.75,160.34356697328215L195.75,160.44860874683616L195.75,160.51649437355408L195.75,160.58558763858713L195.75,160.65343884375878L195.75,160.71612745870974L195.75,160.78006227585013L195.75,160.8386320588362L195.75,160.891175866177L195.75,160.94613697622992L195.75,160.99883691430134L198.16666666666666,160.9969965378646L198.16666666666666,161.02582504562474L198.16666666666666,161.06387635411164L198.16666666666666,161.10285698686315L198.16666666666666,161.13311837502877L198.16666666666666,161.16881388335557L198.16666666666666,161.2004236564405L198.16666666666666,161.23001036744307L198.16666666666666,161.260684299528L198.16666666666666,161.29385121470335L200.58333333333334,161.43638320570548L200.58333333333334,161.45616325592096L200.58333333333334,161.4734055603776L200.58333333333334,161.49248497277222L200.58333333333334,161.50507930169735L200.58333333333334,161.48713090894344L200.58333333333334,161.48437257830142L200.58333333333334,161.48033608747167L200.58333333333334,161.46831539526593L200.58333333333334,161.46353302034L203,161.41881079614808L203,161.41849496785417L203,161.47722441477018L203,161.52173361317628L203,161.57229226151603L203,161.63063325031126L203,161.6931370457644L203,161.7483119951291L203,161.79692254029442L203,161.85682022446983L203,161.8808451992359L205.41666666666669,161.8534452811859L205.41666666666669,161.85675312431482L205.41666666666669,161.8535676720166L205.41666666666669,161.8526654755376L205.41666666666669,161.86233994846913L205.41666666666669,161.87635390411916L205.41666666666669,161.8835164990877L205.41666666666669,161.89903818383934L207.83333333333334,161.9040044413444L207.83333333333334,161.90748354962614L207.83333333333334,161.923267004913L207.83333333333334,161.95848356984516L207.83333333333334,162.02570201483704L207.83333333333334,162.10159579407147L207.83333333333334,162.17502234087806L207.83333333333334,162.24774211656154L210.25,162.40244988302933L210.25,162.5424748078537L210.25,162.6444793113842L210.25,162.7459855093892L210.25,162.84808044062245L210.25,162.94812380169708L210.25,163.04940427780284L210.25,163.1307971577657L210.25,163.17108295855644L210.25,163.21608063591356L210.25,163.2628551090975L212.66666666666666,163.2969805857498L212.66666666666666,163.272803931128L212.66666666666666,163.37439995671957L212.66666666666666,163.47082782459623L212.66666666666666,163.49729819872724L212.66666666666666,163.52452472726316L212.66666666666666,163.56308978225607L212.66666666666666,163.603753264194L212.66666666666666,163.60127541082406L212.66666666666666,163.60016028647064L212.66666666666666,163.59533983544722L215.08333333333334,163.64363896412058L215.08333333333334,163.71036496881925L215.08333333333334,163.76317906735412L215.08333333333334,163.79905955473748L215.08333333333334,163.80610921230075L215.08333333333334,163.81236407730827L215.08333333333334,163.81777500545144L215.08333333333334,163.8266767338256L215.08333333333334,163.82199121321966L215.08333333333334,163.81984092846952L217.5,163.92249367627176L217.5,163.9458065135582L217.5,163.9577761026361L217.5,163.97569640224492L217.5,163.98988853343377L217.5,164.0088581245705L217.5,164.01612638984983L219.91666666666666,164.1071062144351L219.91666666666666,164.1913690182444L219.91666666666666,164.25858616245117L219.91666666666666,164.3277082292409L219.91666666666666,164.38518790302302L219.91666666666666,164.4106771145537L222.33333333333334,164.58317348148034L222.33333333333334,164.61429515666094L222.33333333333334,164.65815339055666L222.33333333333334,164.70411098925928L222.33333333333334,164.69613098722922L222.33333333333334,164.6930635485164L222.33333333333334,164.69727364792985L222.33333333333334,164.6838828496519L222.33333333333334,164.67421503144143L222.33333333333334,164.66441105409223L222.33333333333334,164.6536811988907L222.33333333333334,164.64618705961L224.75,164.7650475514953L224.75,164.94137513551846L224.75,165.0614502758587L224.75,165.08919003687944L224.75,165.0846563013247L224.75,165.08304847570844L224.75,165.0685115453398L224.75,165.0493913716034L224.75,165.0364929863471L224.75,165.0260538604086L224.75,165.0228625936224L227.16666666666666,165.10076432990712L227.16666666666666,165.14777848401963L227.16666666666666,165.17806066776646L227.16666666666666,165.19828849941558L227.16666666666666,165.22378826890952L227.16666666666666,165.22810067441895L227.16666666666666,165.2265334165245L229.58333333333331,165.22424799485427L229.58333333333331,165.23973257004468L229.58333333333331,165.27944409515746L229.58333333333331,165.31509037090314L229.58333333333331,165.33444040367328L229.58333333333331,165.35676125806427L229.58333333333331,165.37447031990453L229.58333333333331,165.3864704585371L229.58333333333331,165.38968456432053L232,165.58478291881667L232,165.55161983609156L232,165.51484912770945L232,165.5113343931343L232,165.50480955235668L232,165.49573449008545L232,165.48888321088987L232,165.48556060233588L232,165.48036849744054L232,165.48464010084257L234.41666666666666,165.44489047595218L234.41666666666666,165.4158015054955L234.41666666666666,165.40276953293574L234.41666666666666,165.38454813925432L234.41666666666666,165.3960443869194L234.41666666666666,165.40762968234347L234.41666666666666,165.403634900287L234.41666666666666,165.39466269772595L234.41666666666666,165.38879401836076L234.41666666666666,165.3827321531933L234.41666666666666,165.37431820446585L234.41666666666666,165.36787369642275L236.83333333333334,165.41679852797523L236.83333333333334,165.4864199102346L236.83333333333334,165.55955172304337L236.83333333333334,165.61517661241515L236.83333333333334,165.63138134923014L236.83333333333334,165.6427048594168L236.83333333333334,165.67160453964178L236.83333333333334,165.69720084945817L236.83333333333334,165.71780030723846L236.83333333333334,165.73812200870728L236.83333333333334,165.75747193519555L236.83333333333334,165.77107546908726L236.83333333333334,165.78647676273104L239.25,165.81013485437356L239.25,165.7524290820304L239.25,165.71955660058322L239.25,165.707045592463L239.25,165.6985229543012L239.25,165.70348025417366L239.25,165.7066852558974L239.25,165.71172132421108L241.66666666666669,165.7931464885885L241.66666666666669,165.86837641154267L241.66666666666669,165.90723260995557L241.66666666666669,165.94680091151565L241.66666666666669,166.00421481707215L241.66666666666669,166.04566017488236L244.08333333333334,166.040340733574L244.08333333333334,166.04152654741588L244.08333333333334,166.0636275695529L244.08333333333334,166.09134944343845L244.08333333333334,166.11241944383647L244.08333333333334,166.13252456440046L246.5,166.2374251213753L246.5,166.33977987366217L246.5,166.4269279021763L246.5,166.48631014017323L246.5,166.536218650129L246.5,166.55911717567565L246.5,166.58830484803556L246.5,166.62395382963854L246.5,166.67251126797075L246.5,166.72010122119903L246.5,166.763718623425L248.91666666666666,166.7564802547099L248.91666666666666,166.8138104478331L248.91666666666666,166.8807526974699L248.91666666666666,166.9143462092062L248.91666666666666,166.90585979062925L248.91666666666666,166.90355035629548L248.91666666666666,166.891311717613L248.91666666666666,166.87795902724494L248.91666666666666,166.86925660474756L251.33333333333334,166.84430708088948L251.33333333333334,166.84560621190616L251.33333333333334,166.85024777976793L251.33333333333334,166.8605423353286L251.33333333333334,166.86536629021793L251.33333333333334,166.87565713683367L251.33333333333334,166.88313248129307L251.33333333333334,166.8868712389771L253.75,166.90374219795947L253.75,166.94481509776753L253.75,166.96210763702044L253.75,166.9969434916654L253.75,167.0182228475506L253.75,167.03472119909625L253.75,167.05366909618175L253.75,167.06967828173683L253.75,167.09156886452718L256.1666666666667,167.15205726641983L256.1666666666667,167.1976622320974L256.1666666666667,167.2210300001379L256.1666666666667,167.23929132026754L256.1666666666667,167.2585865809739L256.1666666666667,167.27085477218128L256.1666666666667,167.28458922693972L256.1666666666667,167.29905303567995L256.1666666666667,167.31283796407612L256.1666666666667,167.32274753937065L258.58333333333337,167.31866552009674L258.58333333333337,167.27766181017725L258.58333333333337,167.23499124920846L258.58333333333337,167.1891441264019L258.58333333333337,167.1573157093279L258.58333333333337,167.13318506591366L258.58333333333337,167.1096416683714L258.58333333333337,167.09023999692346L258.58333333333337,167.07229529256898L258.58333333333337,167.0663103128822L261,167.0636334484899L261,167.1037032854338L261,167.1299106144101L261,167.14325820396652L261,167.16160245717361L261,167.16575466863068L261,167.16354834286537L263.4166666666667,167.35637375092267L263.4166666666667,167.4352606335975L263.4166666666667,167.43785428541028L263.4166666666667,167.4386368448562L263.4166666666667,167.43588452649865L263.4166666666667,167.43636731055494L263.4166666666667,167.44987976153453L263.4166666666667,167.4629378766792L263.4166666666667,167.47720147246403L263.4166666666667,167.4889375484046L263.4166666666667,167.49968855721295L265.8333333333333,167.4818919705889L265.8333333333333,167.47967611910545L265.8333333333333,167.48155369354845L265.8333333333333,167.4761686492352L265.8333333333333,167.4576894078621L265.8333333333333,167.4338064890375L265.8333333333333,167.41748966576722L265.8333333333333,167.40336045028732L265.8333333333333,167.3929465618915L265.8333333333333,167.39062010753426L265.8333333333333,167.392481229433L265.8333333333333,167.39424929523682L265.8333333333333,167.39566336094344" style="fill: none;" fill="none"></path></g></g></g></g><g opacity="0.2"><g><g><g><path stroke="rgb(0, 119, 187)" stroke-width="2px" d="M26.583333333333332,8.835837650299057L26.583333333333332,23.88702671527861L26.583333333333332,36.21065526008604L26.583333333333332,62.97924749851225L26.583333333333332,65.54045526981352L26.583333333333332,68.19102172851561L26.583333333333332,69.44240205287932L29,120.84497945308684L29,123.26988093852995L29,124.48497973680495L29,126.20719699859617L29,127.30459975004194L29,127.80816285610197L29,127.99578444957731L29,128.6374051451683L29,129.44541023969649L31.416666666666668,133.77394716739656L31.416666666666668,131.03575222492216L31.416666666666668,129.94455288648604L31.416666666666668,129.70648108720778L31.416666666666668,130.32155792713164L31.416666666666668,130.96406482458113L31.416666666666668,131.1968299627304L31.416666666666668,131.1428349494934L33.833333333333336,134.981080698967L33.833333333333336,128.97193579673765L33.833333333333336,129.39850484132765L33.833333333333336,129.9675624847412L33.833333333333336,129.95163195133208L33.833333333333336,129.94720094203947L33.833333333333336,129.73303549289702L33.833333333333336,129.76755516529082L36.25,133.50667290687562L36.25,135.2722507596016L36.25,134.6536396622658L36.25,134.8200135111809L36.25,134.42264692783357L36.25,134.37751393318177L36.25,134.32264326810838L36.25,133.65446816682817L36.25,133.32525472640992L38.666666666666664,133.02081273794175L38.666666666666664,133.52614824771882L38.666666666666664,132.59955035448073L38.666666666666664,131.79685192108153L38.666666666666664,131.65348767042158L38.666666666666664,131.73136793375014L38.666666666666664,131.28620975017546L38.666666666666664,130.8817641019821L38.666666666666664,131.05168275833128L41.083333333333336,132.48715041875838L41.083333333333336,132.25528203248976L41.083333333333336,132.20395617485045L41.083333333333336,132.281836438179L41.083333333333336,132.1818327784538L41.083333333333336,132.41723542213438L41.083333333333336,132.206614780426L41.083333333333336,132.21811430454252L43.5,130.7321964383125L43.5,130.50652091503142L43.5,130.0587146759033L43.5,129.52506290674208L43.5,129.36310951709746L43.5,129.802950489521L43.5,129.78613375425337L45.916666666666664,130.10916488170622L45.916666666666664,129.34806518554686L45.916666666666664,130.51183812618254L45.916666666666664,131.06319283246992L45.916666666666664,131.17027555704115L45.916666666666664,131.45612840652464L48.33333333333333,135.33331428766252L48.33333333333333,135.48022334575654L48.33333333333333,135.55456935167314L48.33333333333333,134.55805646181108L48.33333333333333,133.89076756238939L48.33333333333333,134.07395814657212L48.33333333333333,133.90845994949342L48.33333333333333,133.7960705637932L48.33333333333333,133.88633655309678L50.75,130.8065424442291L50.75,136.88471614122392L50.75,136.97499268054963L50.75,136.8280836224556L50.75,136.38823210000993L50.75,135.97670738697053L50.75,135.84219460487367L53.166666666666664,133.6456166982651L53.166666666666664,134.970467376709L53.166666666666664,134.87842898368837L53.166666666666664,135.2421620965004L53.166666666666664,135.60589520931245L53.166666666666664,135.09525303840638L53.166666666666664,135.38641254901887L53.166666666666664,135.2218005537987L53.166666666666664,134.76780145168306L53.166666666666664,135.07400529384614L55.583333333333336,134.830637383461L55.583333333333336,134.69434164762498L55.583333333333336,134.3589247941971L55.583333333333336,134.79346965551377L55.583333333333336,134.53681926727296L55.583333333333336,134.7545295238495L55.583333333333336,134.7961177110672L55.583333333333336,134.7598361849785L55.583333333333336,134.5642493247986L55.583333333333336,134.62797145843507L55.583333333333336,134.6589463233948L55.583333333333336,134.61292712688447L55.583333333333336,134.6854901790619L58,137.79449729919435L58,135.8333431363106L58,136.42275177240373L58,136.89534001350404L58,136.958175945282L58,136.99534367322923L58,137.07056533098222L58,137.0289771437645L58,137.05640720129014L60.41666666666667,137.5157235145569L60.41666666666667,139.93620454072953L60.41666666666667,137.62900965213777L60.41666666666667,137.314829993248L60.41666666666667,136.48470150232316L60.41666666666667,136.86702375411988L60.41666666666667,136.9236562728882L60.41666666666667,136.71391128301622L60.41666666666667,136.74312429428102L60.41666666666667,136.88118188381196L60.41666666666667,136.9493244767189L60.41666666666667,136.68382261991502L60.41666666666667,136.72895561456681L60.41666666666667,136.5776260972023L62.833333333333336,136.79622255563737L62.833333333333336,136.7882572889328L62.833333333333336,136.26344643831254L62.833333333333336,136.5015182375908L62.833333333333336,136.04131572246553L62.833333333333336,136.31389664411546L62.833333333333336,136.3413267016411L62.833333333333336,136.29177324771882L62.833333333333336,136.526300239563L65.25,137.02986334562303L65.25,136.8386969447136L65.25,136.73604522943498L65.25,136.64576869010926L65.25,136.9794131398201L65.25,137.42722992897035L65.25,137.70865176916124L65.25,137.72016184329988L65.25,137.84583370685579L65.25,137.71396898031236L65.25,137.8617642402649L65.25,137.68564217090608L65.25,137.72016184329988L65.25,137.80423496961595L65.25,137.81839309930803L65.25,137.85821943283082L67.66666666666667,136.19707624912263L67.66666666666667,135.91122339963914L67.66666666666667,136.95640354156495L67.66666666666667,137.03339760303498L67.66666666666667,137.45820479393007L67.66666666666667,137.8068935751915L67.66666666666667,137.48297624588014L67.66666666666667,137.61219291687013L67.66666666666667,137.41129939556123L67.66666666666667,137.05110054016114L67.66666666666667,137.06703107357026L67.66666666666667,137.33341913223268L67.66666666666667,137.01216040849687L67.66666666666667,137.08738206624986L67.66666666666667,137.25907312631608L70.08333333333333,134.7863800406456L70.08333333333333,139.1414713740349L70.08333333333333,140.15479044914247L70.08333333333333,139.81761174201966L70.08333333333333,140.19816159009935L70.08333333333333,138.24762074947358L70.08333333333333,138.4591381430626L70.08333333333333,138.43346993923188L72.5,137.06260006427766L72.5,137.65909831523896L72.5,136.35991584062577L72.5,137.07853059768678L72.5,139.3574092268944L72.5,139.1370403647423L72.5,139.34590970277787L72.5,139.60698055028917L72.5,139.76539968252183L72.5,139.8547794699669L72.5,139.82646321058274L72.5,139.6043219447136L72.5,139.55653034448625L74.91666666666667,136.79002969264985L74.91666666666667,137.68210791349412L74.91666666666667,138.75737671852113L74.91666666666667,140.0459353208542L74.91666666666667,139.89814006090165L74.91666666666667,139.62113867998124L74.91666666666667,140.67429463863374L74.91666666666667,140.75040249824525L74.91666666666667,140.50968264341356L74.91666666666667,140.50436543226243L74.91666666666667,140.49020730257035L74.91666666666667,140.1202813267708L74.91666666666667,140.13709806203843L77.33333333333333,139.53706555366517L77.33333333333333,139.71052901744844L77.33333333333333,138.3139909386635L77.33333333333333,138.34143154621125L77.33333333333333,138.34585200548173L77.33333333333333,138.40249507427217L77.33333333333333,138.64763538837434L77.33333333333333,138.92906777858735L77.33333333333333,139.07067017555238L77.33333333333333,138.9972103714943L77.33333333333333,138.27682321071626L77.33333333333333,138.38037167787553L77.33333333333333,138.2086806178093L77.33333333333333,138.3493968129158L77.33333333333333,138.48834060430528L79.75,139.83796273469926L79.75,139.47157101631166L79.75,140.29816524982454L79.75,140.20435445308686L79.75,139.56981282234193L79.75,139.62291108369828L79.75,139.57246087789537L79.75,139.27687035799028L79.75,138.7556148648262L79.75,138.64852159023286L82.16666666666667,138.940577852726L82.16666666666667,139.37953262329103L82.16666666666667,139.1662533760071L82.16666666666667,139.05739824771882L82.16666666666667,139.162708568573L82.16666666666667,139.35652302503587L82.16666666666667,139.03350244760514L82.16666666666667,138.94235025644304L82.16666666666667,138.8458808541298L82.16666666666667,138.87774192094804L82.16666666666667,139.232623565197L82.16666666666667,139.51051114797593L84.58333333333334,143.80099414587022L84.58333333333334,142.4849949359894L84.58333333333334,141.53362559080125L84.58333333333334,141.43362193107606L84.58333333333334,140.5167617082596L84.58333333333334,140.5371127009392L87,142.10091083049775L87,142.37526415586473L87,142.23630981445314L87,142.50269787311555L87,142.36552648544313L87,140.6778288960457L87,140.58844910860063L87,140.81677268743516L87,140.863678085804L89.41666666666667,140.26453177928926L89.41666666666667,139.85389326810838L89.41666666666667,140.0556729912758L89.41666666666667,140.863678085804L89.41666666666667,141.279633808136L89.41666666666667,142.0982522249222L89.41666666666667,141.5061849832535L89.41666666666667,141.58230339288713L89.41666666666667,141.63893591165544L91.83333333333333,143.71603481769563L91.83333333333333,142.96467279195787L91.83333333333333,141.37875126600267L91.83333333333333,141.33361827135087L91.83333333333333,141.32388060092927L91.83333333333333,141.30883626937867L91.83333333333333,141.71947478055955L91.83333333333333,141.73009865283967L91.83333333333333,141.54866992235185L91.83333333333333,141.7017718434334L91.83333333333333,141.56371425390245L94.25,142.19738023281099L94.25,142.51332174539567L94.25,142.77174453735353L94.25,142.94874225854875L94.25,142.44871340990068L94.25,141.928333568573L94.25,141.93010597229005L94.25,141.7265538454056L94.25,141.82921611070634L94.25,141.91151683330537L94.25,142.09471796751023L94.25,142.2141864180565L94.25,142.38853608369828L94.25,142.47704021930696L96.66666666666666,141.25749986171724L96.66666666666666,140.729154753685L96.66666666666666,141.97435276508332L96.66666666666666,142.4690749526024L96.66666666666666,142.53278653621675L99.08333333333333,144.2514589905739L99.08333333333333,143.83285521268846L99.08333333333333,143.7399306178093L99.08333333333333,142.9567075252533L99.08333333333333,142.25489895343782L99.08333333333333,143.6947976231575L99.08333333333333,143.7452372789383L99.08333333333333,143.9611751317978L99.08333333333333,144.19216786623002L99.08333333333333,144.0310901284218L101.5,142.75846205949784L101.5,143.40097950696946L101.5,143.38150416612626L101.5,144.18862305879594L101.5,144.74175016880037L101.5,144.26296906471254L101.5,144.1718063235283L101.5,144.26031045913697L103.91666666666667,141.34954880476L103.91666666666667,143.34433643817903L103.91666666666667,143.7195796251297L103.91666666666667,143.79657368659974L103.91666666666667,143.75143014192582L103.91666666666667,144.17977159023286L103.91666666666667,144.46651064157487L103.91666666666667,144.37535845041276L103.91666666666667,144.21429126262666L103.91666666666667,144.56652485132219L106.33333333333333,145.00105916261674L106.33333333333333,144.5983753681183L106.33333333333333,145.76480691432954L106.33333333333333,145.68604044914247L106.33333333333333,145.6913576602936L106.33333333333333,145.28336720466615L106.33333333333333,145.37187134027482L106.33333333333333,145.24266521930696L106.33333333333333,145.14973007440568L108.75,145.7276391863823L108.75,145.7922475218773L108.75,145.2205312728882L108.75,145.179829287529L108.75,145.51612179279329L108.75,145.47276120185853L108.75,145.05857788324357L108.75,145.2400066137314L108.75,145.20637314319612L111.16666666666667,148.04279934167863L111.16666666666667,146.16217349767686L111.16666666666667,146.1993412256241L111.16666666666667,146.14624296426774L111.16666666666667,146.01437823772432L111.16666666666667,145.95065610408784L111.16666666666667,145.78073744773866L111.16666666666667,145.7772031903267L111.16666666666667,145.54621045589448L111.16666666666667,145.72586678266526L111.16666666666667,146.09756516218187L111.16666666666667,145.93384991884233L113.58333333333333,144.14703487157823L113.58333333333333,145.27717434167863L113.58333333333333,145.50904272794725L113.58333333333333,145.44267253875734L113.58333333333333,145.91526077985765L113.58333333333333,146.08606563806535L113.58333333333333,146.63919274806977L113.58333333333333,146.7117558002472L113.58333333333333,147.09407805204393L113.58333333333333,147.02593545913697L113.58333333333333,147.14364205598832L113.58333333333333,147.30293684005738L113.58333333333333,147.36665897369386L113.58333333333333,147.448970246315L116,145.17097781896592L116,148.40299819707872L116,148.67999957799913L116,149.45348500013353L116,149.3065759420395L116,149.12427155971528L116,148.91806082725526L116,148.70123677253724L116,148.7950475692749L116,148.85788350105287L116,148.90656130313874L116,148.40564625263215L116,148.50919471979142L116,148.51981859207154L116,148.4773336529732L116,148.50388805866243L118.41666666666667,147.15337972640992L118.41666666666667,148.85611109733583L118.41666666666667,148.10386286973954L118.41666666666667,148.26405440568925L118.41666666666667,148.2667024612427L118.41666666666667,148.33308320045472L120.83333333333334,148.0268688082695L120.83333333333334,148.94019477367402L120.83333333333334,148.54724864959718L120.83333333333334,148.4083048582077L120.83333333333334,148.33927606344224L120.83333333333334,148.25431673526765L120.83333333333334,148.40388439893724L123.25,149.59951840639116L123.25,146.6701676130295L123.25,147.9011969447136L123.25,147.58525543212892L123.25,147.47728650569917L123.25,148.08351187705995L123.25,148.30564259290696L123.25,148.23042093515397L123.25,148.51008092164994L123.25,148.60389171838762L123.25,148.59592645168306L123.25,148.4233491897583L123.25,148.2525443315506L125.66666666666667,149.1915279507637L125.66666666666667,148.4171563267708L125.66666666666667,148.62601511478425L125.66666666666667,148.72159831523896L125.66666666666667,149.10303436517717L128.08333333333334,150.44911168813707L128.08333333333334,149.4012729406357L128.08333333333334,148.50564991235734L128.08333333333334,148.83664630651475L128.08333333333334,149.04816370010377L128.08333333333334,149.31277935504914L128.08333333333334,149.32870988845826L128.08333333333334,149.2764872789383L128.08333333333334,149.36410521268846L128.08333333333334,149.6667747974396L128.08333333333334,149.5269448041916L130.5,151.85892169475557L130.5,150.0429041862488L130.5,151.01109026670457L130.5,150.68275247812272L130.5,150.18007557392121L130.5,150.75974653959275L130.5,150.48451756238939L130.5,150.6358470797539L130.5,150.09865050315858L130.5,150.27211396694184L130.5,150.45177029371263L132.91666666666666,154.270540702343L132.91666666666666,153.38289349079133L132.91666666666666,153.05189709663392L132.91666666666666,152.71205978393556L132.91666666666666,152.87931983470918L132.91666666666666,152.56603692770005L132.91666666666666,152.63683812618257L132.91666666666666,152.4332859992981L132.91666666666666,152.35982619524003L132.91666666666666,152.3129207968712L135.33333333333334,152.16867034435273L135.33333333333334,152.7802023768425L135.33333333333334,153.09172343015672L135.33333333333334,152.95808629989625L135.33333333333334,152.9501210331917L135.33333333333334,153.04128377437593L135.33333333333334,152.13769547939302L135.33333333333334,151.62173609733583L135.33333333333334,151.7748485684395L135.33333333333334,152.08459721803666L135.33333333333334,152.13946788311006L135.33333333333334,152.3828357934952L135.33333333333334,152.33858900070192L135.33333333333334,152.08990387916566L135.33333333333334,152.14566074609758L135.33333333333334,151.81201629638673L137.75,151.2341071844101L137.75,151.8907827615738L137.75,151.7907791018486L137.75,152.8085291862488L137.75,152.37930153608323L137.75,152.34655426740647L137.75,152.19433854818345L137.75,152.28018407821656L137.75,152.29699026346208L137.75,152.3076141357422L137.75,152.0261817455292L137.75,152.0518499493599L137.75,152.16070507764817L137.75,152.10760681629182L140.16666666666666,154.9537601351738L140.16666666666666,154.56967602968217L140.16666666666666,154.681189763546L140.16666666666666,154.270540702343L140.16666666666666,154.05283044576646L140.16666666666666,154.36789630651475L140.16666666666666,153.5882074713707L140.16666666666666,153.24571155309678L140.16666666666666,152.91030524969102L140.16666666666666,153.0147293686867L140.16666666666666,152.8748993754387L140.16666666666666,152.94039391279222L140.16666666666666,152.75630657672883L142.58333333333331,152.51558672189714L142.58333333333331,153.20412336587907L142.58333333333331,153.59352468252183L142.58333333333331,153.74574040174485L142.58333333333331,153.59086607694627L142.58333333333331,153.64396433830262L142.58333333333331,153.63865767717363L142.58333333333331,153.27934502363206L142.58333333333331,153.23243962526323L142.58333333333331,153.0855305671692L142.58333333333331,153.00853650569917L142.58333333333331,153.0651795744896L142.58333333333331,153.09703009128572L142.58333333333331,153.02180843353273L145,152.4987699866295L145,153.66166727542878L145,153.06252096891404L145,153.50413434505464L145,153.4306850910187L145,153.62537519931794L145,154.05548905134202L145,154.0997358441353L145,154.13602792024614L147.41666666666666,150.39070676565171L147.41666666666666,154.37852017879487L147.41666666666666,154.25904117822648L147.41666666666666,154.5209982275963L147.41666666666666,154.1705370426178L147.41666666666666,152.70586692094804L147.41666666666666,152.72091125249864L147.41666666666666,152.7403760433197L147.41666666666666,152.6226799964905L147.41666666666666,153.52891634702684L147.41666666666666,153.4368779540062L147.41666666666666,153.39971022605897L147.41666666666666,153.3722696185112L147.41666666666666,153.33863614797593L149.83333333333334,155.23962353467942L149.83333333333334,153.74662660360337L149.83333333333334,154.46701376438142L149.83333333333334,154.56967602968217L149.83333333333334,154.4245393753052L149.83333333333334,154.30328797101976L152.25,149.99156777858735L152.25,154.12098358869554L152.25,153.838664996624L152.25,153.983801651001L152.25,154.68295161724092L152.25,154.47497903108598L152.25,154.37939583063127L152.25,154.73428802490236L154.66666666666666,154.5422354221344L154.66666666666666,154.3864748954773L154.66666666666666,154.81658874750138L154.66666666666666,154.53515635728837L154.66666666666666,154.30151556730272L154.66666666666666,155.13165460824968L154.66666666666666,155.20156960487367L154.66666666666666,155.0935901284218L157.08333333333331,156.0467424273491L157.08333333333331,156.35206006765367L157.08333333333331,155.6856573700905L157.08333333333331,155.72282509803773L157.08333333333331,155.966203558445L157.08333333333331,155.8511555671692L157.08333333333331,155.90425382852555L157.08333333333331,156.13966702222825L157.08333333333331,156.2272849559784L157.08333333333331,156.25560121536256L157.08333333333331,156.24674974679948L157.08333333333331,156.14055322408677L157.08333333333331,156.06090055704118L157.08333333333331,156.30692707300187L159.5,157.025552380085L159.5,157.98665939569474L159.5,157.02908663749696L159.5,156.84146504402162L159.5,156.749426651001L159.5,156.54676072597505L159.5,156.51491020917894L159.5,156.5945523262024L159.5,156.749426651001L159.5,156.83173792362214L159.5,156.82111405134202L159.5,156.74234758615495L159.5,156.8051835179329L161.91666666666666,154.35815863609315L161.91666666666666,155.0581948041916L161.91666666666666,156.60074518918992L161.91666666666666,155.93877350091935L161.91666666666666,155.64229677915574L161.91666666666666,155.58211945295335L161.91666666666666,155.89540235996247L161.91666666666666,156.23170541524888L161.91666666666666,156.45915334224702L161.91666666666666,156.5485331296921L161.91666666666666,156.4387917995453L161.91666666666666,156.59190427064897L161.91666666666666,156.5237511277199L164.33333333333334,156.00957469940187L164.33333333333334,154.7714557528496L164.33333333333334,156.43790559768678L164.33333333333334,156.51578586101533L164.33333333333334,156.68217025995256L164.33333333333334,156.75297145843507L164.33333333333334,156.9255487203598L164.33333333333334,156.97245411872865L164.33333333333334,157.1813129067421L164.33333333333334,157.3016675591469L164.33333333333334,157.2361835718155L166.75,158.43358998298646L166.75,158.46190624237062L166.75,158.43446563482286L166.75,158.09640072584153L166.75,157.58044134378434L166.75,157.5335359454155L166.75,157.62204008102418L166.75,157.67425214052201L169.16666666666669,157.40610222816468L169.16666666666669,157.66452502012254L169.16666666666669,157.7485981464386L169.16666666666669,158.00524853467942L169.16666666666669,157.99904512166978L169.16666666666669,157.9547983288765L169.16666666666669,158.02737193107606L169.16666666666669,158.04153006076814L169.16666666666669,158.10790024995805L169.16666666666669,158.10347979068757L169.16666666666669,158.05746059417726L171.58333333333334,156.3972036123276L171.58333333333334,157.01139425039293L171.58333333333334,156.88572238683702L171.58333333333334,157.0105080485344L171.58333333333334,157.28573702573777L174,158.75572435855867L174,157.83178507089616L174,158.90174721479417L174,158.5557170391083L174,158.63624535799028L174,158.55483083724977L174,158.71059136390687L174,158.34862010478975L174,158.45039616823198L176.41666666666666,158.14596472978593L176.41666666666666,159.00263707637788L176.41666666666666,159.54249225854875L176.41666666666666,158.83449082374574L176.41666666666666,158.6521758913994L176.41666666666666,158.5557170391083L176.41666666666666,158.7123637676239L176.41666666666666,158.68758176565171L176.41666666666666,158.62828009128572L176.41666666666666,158.85484181642533L176.41666666666666,158.85307996273042L176.41666666666666,158.7079327583313L178.83333333333334,160.54607893824578L178.83333333333334,159.47169106006623L178.83333333333334,159.89826010465623L178.83333333333334,159.934546905756L178.83333333333334,159.2637184739113L178.83333333333334,159.2787628054619L178.83333333333334,159.41947372555734L178.83333333333334,159.36283593177797L178.83333333333334,159.53894745111467L178.83333333333334,159.40177606344224L178.83333333333334,159.5858528494835L181.25,160.58236573934556L181.25,160.31597768068315L181.25,160.25580035448075L181.25,160.04428296089174L181.25,160.05402063131334L181.25,160.08234216570855L181.25,159.54160605669023L183.66666666666666,159.35309826135637L183.66666666666666,159.7354205131531L183.66666666666666,159.8062217116356L183.66666666666666,159.78232591152192L183.66666666666666,159.7602025151253L183.66666666666666,159.47169106006623L183.66666666666666,159.60178338289262L183.66666666666666,159.5929371893406L183.66666666666666,159.58143239021302L183.66666666666666,159.90799250006677L183.66666666666666,159.3415934622288L183.66666666666666,159.51771025657655L183.66666666666666,159.5256755232811L183.66666666666666,159.5681551873684L186.08333333333334,160.79918979406358L186.08333333333334,160.60891487002374L186.08333333333334,160.0318972349167L186.08333333333334,159.81772651076318L186.08333333333334,160.37792741060258L186.08333333333334,159.68232225179673L186.08333333333334,159.8088750422001L186.08333333333334,159.83099843859674L186.08333333333334,159.8690523684025L186.08333333333334,159.71860377788545L188.5,155.960896897316L188.5,157.9034724712372L188.5,158.46544049978257L188.5,159.4982401907444L188.5,159.4796563267708L188.5,159.44690905809404L188.5,159.57258092164994L188.5,159.70355944633485L190.91666666666666,159.41858752369882L190.91666666666666,159.94073976874353L190.91666666666666,159.92569543719293L190.91666666666666,160.27969615459443L190.91666666666666,160.2451817572117L190.91666666666666,160.56112326979638L190.91666666666666,160.58325194120408L190.91666666666666,160.96291558742524L190.91666666666666,161.16292290687562L190.91666666666666,161.19478397369386L190.91666666666666,161.33107443451883L193.33333333333331,161.4859487593174L193.33333333333331,161.04522158503534L193.33333333333331,161.02751864790918L193.33333333333331,160.77883352637292L193.33333333333331,160.63988973498346L193.33333333333331,161.0558401823044L193.33333333333331,160.87795625925065L195.75,162.50015931129457L195.75,162.44440244436265L195.75,161.8063212811947L195.75,161.89835967421533L195.75,161.94261174201966L195.75,161.9072111427784L195.75,161.9948238015175L195.75,161.95145793557168L195.75,161.88950820565225L195.75,161.99039806723596L195.75,162.00013573765756L198.16666666666666,160.96202938556672L198.16666666666666,161.57356669306756L198.16666666666666,161.78685121536256L198.16666666666666,161.84348900914193L198.16666666666666,161.7080847501755L198.16666666666666,161.84702854156495L198.16666666666666,161.80100934505464L198.16666666666666,161.79215787649156L198.16666666666666,161.84348900914193L198.16666666666666,161.92402260303498L200.58333333333334,164.14449103474618L200.58333333333334,161.83198421001435L200.58333333333334,161.80100934505464L200.58333333333334,161.8549938082695L200.58333333333334,161.74437155127526L200.58333333333334,161.14611144661905L200.58333333333334,161.43196429610254L200.58333333333334,161.40364276170732L200.58333333333334,161.23992224335672L200.58333333333334,161.3726678967476L203,160.56908853650094L203,161.4124942302704L203,162.59308390617372L203,162.36740838289262L203,162.53290657997132L203,162.73911203742028L203,162.88070915937425L203,162.79663603305818L203,162.7205228984356L203,162.99487622380258L203,162.33731971979142L205.41666666666669,161.33284683823587L205.41666666666669,161.9196021437645L205.41666666666669,161.79304407835008L205.41666666666669,161.83552374243737L205.41666666666669,162.04615493416787L205.41666666666669,162.14261906147004L205.41666666666669,162.0196058034897L205.41666666666669,162.19395019412042L207.83333333333334,161.99836333394052L207.83333333333334,161.97358660697938L207.83333333333334,162.2231526553631L207.83333333333334,162.62759830355645L207.83333333333334,163.3028524696827L207.83333333333334,163.54357759952546L207.83333333333334,163.57012673020364L207.83333333333334,163.6294178545475L210.25,165.34189744591714L210.25,165.2029483795166L210.25,164.58256487846376L210.25,164.6746032714844L210.25,164.7878841340542L210.25,164.8489476621151L210.25,164.9737333238125L210.25,164.67726187705995L210.25,163.93651317358018L210.25,164.07103650569917L210.25,164.15157009959222L212.66666666666666,163.94536464214326L212.66666666666666,162.81344749331475L212.66666666666666,165.30472444295884L212.66666666666666,165.30295731425286L212.66666666666666,164.00023530721666L212.66666666666666,164.04182876944543L212.66666666666666,164.29582582712175L212.66666666666666,164.3763594210148L212.66666666666666,163.55419619679452L212.66666666666666,163.57897292375566L212.66666666666666,163.50375126600267L215.08333333333334,164.56132240891458L215.08333333333334,164.97815905809404L215.08333333333334,164.76664693951608L215.08333333333334,164.48078881502153L215.08333333333334,163.9400527060032L215.08333333333334,163.93120651245118L215.08333333333334,163.92058264017106L215.08333333333334,163.99580957293512L215.08333333333334,163.73296632170678L215.08333333333334,163.7789855182171L217.5,165.87289588451387L217.5,164.3887504220009L217.5,164.18519829511644L217.5,164.3161820948124L217.5,164.25953902602197L217.5,164.36928035616876L217.5,164.15422343015672L219.91666666666666,165.83572288155557L219.91666666666666,165.79236229062082L219.91666666666666,165.53571190238L219.91666666666666,165.64102749824525L219.91666666666666,165.4773017048836L219.91666666666666,164.8949721336365L222.33333333333334,167.86060445308686L222.33333333333334,165.20560698509217L222.33333333333334,165.49145983457566L222.33333333333334,165.57730536460878L222.33333333333334,164.544510948658L222.33333333333334,164.63478221297265L222.33333333333334,164.77726553678514L222.33333333333334,164.42945768237115L222.33333333333334,164.49052648544313L222.33333333333334,164.47813548445703L222.33333333333334,164.4498139500618L222.33333333333334,164.50379841327668L224.75,167.023396897316L224.75,168.2915992319584L224.75,167.3428779423237L224.75,165.61624549627305L224.75,164.9985153257847L224.75,165.05249978899957L224.75,164.79230986833574L224.75,164.68610807061197L224.75,164.79142366647721L224.75,164.827710467577L224.75,164.96222852468492L227.16666666666666,166.58089731931688L227.16666666666666,166.04104741215707L227.16666666666666,165.75342215895654L227.16666666666666,165.58261730074884L227.16666666666666,165.70828388929368L227.16666666666666,165.3100363790989L227.16666666666666,165.1967555165291L229.58333333333331,165.18082498311998L229.58333333333331,165.53393949866296L229.58333333333331,166.03396307229997L229.58333333333331,165.9923696100712L229.58333333333331,165.70209102630616L229.58333333333331,165.78085749149324L229.58333333333331,165.71094249486924L229.58333333333331,165.614473092556L229.58333333333331,165.4507525742054L232,169.29165165424348L232,164.92152126431466L232,164.8162056684494L232,165.44455443620683L232,165.38083757758142L232,165.32330830693246L232,165.35870890617372L232,165.4224310398102L232,165.38171850442887L232,165.5658005654812L234.41666666666666,164.68964760303498L234.41666666666666,164.86311106681825L234.41666666666666,165.15516205430032L234.41666666666666,165.0383416593075L234.41666666666666,165.614473092556L234.41666666666666,165.62775029540063L234.41666666666666,165.327734041214L234.41666666666666,165.2241908490658L234.41666666666666,165.27728911042215L234.41666666666666,165.2675567150116L234.41666666666666,165.2144531786442L234.41666666666666,165.2454280436039L236.83333333333334,166.3463703274727L236.83333333333334,166.80922617316247L236.83333333333334,166.94905616641046L236.83333333333334,166.67204951047898L236.83333333333334,165.93927134871484L236.83333333333334,165.85785155296327L236.83333333333334,166.2206984639168L236.83333333333334,166.18353073596955L236.83333333333334,166.10919000506402L236.83333333333334,166.12423433661462L236.83333333333334,166.12512053847314L236.83333333333334,166.0295426130295L236.83333333333334,166.07910134196283L239.25,166.25963859558107L239.25,164.65601940751077L239.25,165.09497945308686L239.25,165.46933643817903L239.25,165.53659282922746L239.25,165.7976689517498L239.25,165.76758028864862L239.25,165.8074066221714L241.66666666666669,167.3402246117592L241.66666666666669,167.2977449476719L241.66666666666669,166.6455003798008L241.66666666666669,166.69859864115716L241.66666666666669,167.09507902264596L241.66666666666669,166.83312197327615L244.08333333333334,165.93927134871484L244.08333333333334,166.06405701041223L244.08333333333334,166.48354699015619L244.08333333333334,166.6180650472641L244.08333333333334,166.51274945139886L244.08333333333334,166.5145218551159L246.5,168.2305357038975L246.5,168.28452016711236L246.5,168.08274044394494L246.5,167.6145726621151L246.5,167.48448033928872L246.5,166.99418916106225L246.5,167.14287062287332L246.5,167.30128448009492L246.5,167.59510259628297L246.5,167.6243103325367L246.5,167.59244926571847L248.91666666666666,166.61895124912263L248.91666666666666,167.90308411717416L248.91666666666666,168.15265544056894L248.91666666666666,167.55262293219567L248.91666666666666,166.74461783766748L248.91666666666666,166.85967110395433L248.91666666666666,166.65877758264543L248.91666666666666,166.62425791025163L248.91666666666666,166.70391057729722L251.33333333333334,166.37026612758638L251.33333333333334,166.87028970122338L251.33333333333334,166.9384375691414L251.33333333333334,167.05613889098169L251.33333333333334,166.95702143311502L251.33333333333334,167.07118322253228L251.33333333333334,167.02516402602197L251.33333333333334,166.95790763497354L253.75,167.2242904186249L253.75,167.72520019412042L253.75,167.29066588282586L253.75,167.65882472991944L253.75,167.4225306093693L253.75,167.34818987846376L253.75,167.4136791408062L253.75,167.3738528072834L253.75,167.50748993754388L256.1666666666667,168.30133690238L256.1666666666667,168.06415657997132L256.1666666666667,167.66501759290696L256.1666666666667,167.58625640273095L256.1666666666667,167.62519653439523L256.1666666666667,167.50395040512086L256.1666666666667,167.54554386734964L256.1666666666667,167.57386540174485L256.1666666666667,167.57475160360337L256.1666666666667,167.5110294699669L258.58333333333337,167.24110715389253L258.58333333333337,166.49859132170678L258.58333333333337,166.42425059080125L258.58333333333337,166.31804879307748L258.58333333333337,166.55257578492166L258.58333333333337,166.67470284104348L258.58333333333337,166.66231711506845L258.58333333333337,166.72160823941232L258.58333333333337,166.73134590983392L258.58333333333337,166.95259569883348L261,167.01277302503587L261,167.8650301873684L261,167.62784986495973L261,167.39686240553857L261,167.51014326810838L261,167.24464668631555L261,167.12162815332414L263.4166666666667,171.02005650401117L263.4166666666667,168.93411140441896L263.4166666666667,167.48713366985322L263.4166666666667,167.453505474329L263.4166666666667,167.383590477705L263.4166666666667,167.44554020762445L263.4166666666667,167.7066163301468L263.4166666666667,167.71104206442834L263.4166666666667,167.74820979237558L263.4166666666667,167.7119229912758L263.4166666666667,167.70395772457124L265.8333333333333,167.14375682473184L265.8333333333333,167.4375749409199L265.8333333333333,167.51722760796548L265.8333333333333,167.3738528072834L265.8333333333333,167.10658382177354L265.8333333333333,166.98003103137017L265.8333333333333,167.10747002363206L265.8333333333333,167.13490535616876L265.8333333333333,167.19508268237115L265.8333333333333,167.34641747474672L265.8333333333333,167.42784254550935L265.8333333333333,167.42784254550935L265.8333333333333,167.4225306093693" style="fill: none;" fill="none"></path></g></g></g></g></g></g><g transform="translate(40, 177)" clip-path="url(#clip_1)"><clipPath id="clip_1"><rect width="290" height="23"></rect></clipPath><g><g><line x1="0" y1="0" x2="0" y2="5" style="visibility: inherit;" fill="rgb(0, 0, 0)" stroke="rgb(204, 204, 204)" stroke-width="1px"></line><line x1="24.166666666666664" y1="0" x2="24.166666666666664" y2="5" style="visibility: inherit;" fill="rgb(0, 0, 0)" stroke="rgb(204, 204, 204)" stroke-width="1px"></line><line x1="48.33333333333333" y1="0" x2="48.33333333333333" y2="5" style="visibility: inherit;" fill="rgb(0, 0, 0)" stroke="rgb(204, 204, 204)" stroke-width="1px"></line><line x1="72.5" y1="0" x2="72.5" y2="5" style="visibility: inherit;" fill="rgb(0, 0, 0)" stroke="rgb(204, 204, 204)" stroke-width="1px"></line><line x1="96.66666666666666" y1="0" x2="96.66666666666666" y2="5" style="visibility: inherit;" fill="rgb(0, 0, 0)" stroke="rgb(204, 204, 204)" stroke-width="1px"></line><line x1="120.83333333333334" y1="0" x2="120.83333333333334" y2="5" style="visibility: inherit;" fill="rgb(0, 0, 0)" stroke="rgb(204, 204, 204)" stroke-width="1px"></line><line x1="145" y1="0" x2="145" y2="5" style="visibility: inherit;" fill="rgb(0, 0, 0)" stroke="rgb(204, 204, 204)" stroke-width="1px"></line><line x1="169.16666666666669" y1="0" x2="169.16666666666669" y2="5" style="visibility: inherit;" fill="rgb(0, 0, 0)" stroke="rgb(204, 204, 204)" stroke-width="1px"></line><line x1="193.33333333333331" y1="0" x2="193.33333333333331" y2="5" style="visibility: inherit;" fill="rgb(0, 0, 0)" stroke="rgb(204, 204, 204)" stroke-width="1px"></line><line x1="217.5" y1="0" x2="217.5" y2="5" style="visibility: inherit;" fill="rgb(0, 0, 0)" stroke="rgb(204, 204, 204)" stroke-width="1px"></line><line x1="241.66666666666669" y1="0" x2="241.66666666666669" y2="5" style="visibility: inherit;" fill="rgb(0, 0, 0)" stroke="rgb(204, 204, 204)" stroke-width="1px"></line><line x1="265.8333333333333" y1="0" x2="265.8333333333333" y2="5" style="visibility: inherit;" fill="rgb(0, 0, 0)" stroke="rgb(204, 204, 204)" stroke-width="1px"></line><line x1="290" y1="0" x2="290" y2="5" style="visibility: inherit;" fill="rgb(0, 0, 0)" stroke="rgb(204, 204, 204)" stroke-width="1px"></line></g><g transform="translate(0, 8)"><text x="0" y="0" dx="0em" dy="0.95em" style="text-anchor: middle; visibility: hidden; font-family: Roboto, sans-serif; font-size: 12px; font-weight: 200;" fill="rgb(33, 33, 33)" stroke="none" stroke-width="1px">-10</text><text x="24.166666666666664" y="0" dx="0em" dy="0.95em" style="text-anchor: middle; visibility: inherit; font-family: Roboto, sans-serif; font-size: 12px; font-weight: 200;" fill="rgb(33, 33, 33)" stroke="none" stroke-width="1px">0</text><text x="48.33333333333333" y="0" dx="0em" dy="0.95em" style="text-anchor: middle; visibility: inherit; font-family: Roboto, sans-serif; font-size: 12px; font-weight: 200;" fill="rgb(33, 33, 33)" stroke="none" stroke-width="1px">10</text><text x="72.5" y="0" dx="0em" dy="0.95em" style="text-anchor: middle; visibility: inherit; font-family: Roboto, sans-serif; font-size: 12px; font-weight: 200;" fill="rgb(33, 33, 33)" stroke="none" stroke-width="1px">20</text><text x="96.66666666666666" y="0" dx="0em" dy="0.95em" style="text-anchor: middle; visibility: inherit; font-family: Roboto, sans-serif; font-size: 12px; font-weight: 200;" fill="rgb(33, 33, 33)" stroke="none" stroke-width="1px">30</text><text x="120.83333333333334" y="0" dx="0em" dy="0.95em" style="text-anchor: middle; visibility: inherit; font-family: Roboto, sans-serif; font-size: 12px; font-weight: 200;" fill="rgb(33, 33, 33)" stroke="none" stroke-width="1px">40</text><text x="145" y="0" dx="0em" dy="0.95em" style="text-anchor: middle; visibility: inherit; font-family: Roboto, sans-serif; font-size: 12px; font-weight: 200;" fill="rgb(33, 33, 33)" stroke="none" stroke-width="1px">50</text><text x="169.16666666666669" y="0" dx="0em" dy="0.95em" style="text-anchor: middle; visibility: inherit; font-family: Roboto, sans-serif; font-size: 12px; font-weight: 200;" fill="rgb(33, 33, 33)" stroke="none" stroke-width="1px">60</text><text x="193.33333333333331" y="0" dx="0em" dy="0.95em" style="text-anchor: middle; visibility: inherit; font-family: Roboto, sans-serif; font-size: 12px; font-weight: 200;" fill="rgb(33, 33, 33)" stroke="none" stroke-width="1px">70</text><text x="217.5" y="0" dx="0em" dy="0.95em" style="text-anchor: middle; visibility: inherit; font-family: Roboto, sans-serif; font-size: 12px; font-weight: 200;" fill="rgb(33, 33, 33)" stroke="none" stroke-width="1px">80</text><text x="241.66666666666669" y="0" dx="0em" dy="0.95em" style="text-anchor: middle; visibility: inherit; font-family: Roboto, sans-serif; font-size: 12px; font-weight: 200;" fill="rgb(33, 33, 33)" stroke="none" stroke-width="1px">90</text><text x="265.8333333333333" y="0" dx="0em" dy="0.95em" style="text-anchor: middle; visibility: inherit; font-family: Roboto, sans-serif; font-size: 12px; font-weight: 200;" fill="rgb(33, 33, 33)" stroke="none" stroke-width="1px">100</text><text x="290" y="0" dx="0em" dy="0.95em" style="text-anchor: middle; visibility: hidden; font-family: Roboto, sans-serif; font-size: 12px; font-weight: 200;" fill="rgb(33, 33, 33)" stroke="none" stroke-width="1px">110</text></g><line x1="0" y1="0" x2="290" y2="0" fill="rgb(0, 0, 0)" stroke="rgb(204, 204, 204)" stroke-width="1px"></line></g></g></g></g></svg>