<svg viewBox="0 0 330 200" xmlns="http://www.w3.org/2000/svg"><g><g><g><g><g><line x1="50" y1="169.20716872212637" x2="45" y2="169.20716872212637" style="visibility: inherit;" fill="rgb(0, 0, 0)" stroke="rgb(204, 204, 204)" stroke-width="1px"></line><line x1="50" y1="149.94623750920076" x2="45" y2="149.94623750920076" style="visibility: inherit;" fill="rgb(0, 0, 0)" stroke="rgb(204, 204, 204)" stroke-width="1px"></line><line x1="50" y1="130.68530629627497" x2="45" y2="130.68530629627497" style="visibility: inherit;" fill="rgb(0, 0, 0)" stroke="rgb(204, 204, 204)" stroke-width="1px"></line><line x1="50" y1="111.42437508334916" x2="45" y2="111.42437508334916" style="visibility: inherit;" fill="rgb(0, 0, 0)" stroke="rgb(204, 204, 204)" stroke-width="1px"></line><line x1="50" y1="92.16344387042334" x2="45" y2="92.16344387042334" style="visibility: inherit;" fill="rgb(0, 0, 0)" stroke="rgb(204, 204, 204)" stroke-width="1px"></line><line x1="50" y1="72.90251265749755" x2="45" y2="72.90251265749755" style="visibility: inherit;" fill="rgb(0, 0, 0)" stroke="rgb(204, 204, 204)" stroke-width="1px"></line><line x1="50" y1="53.641581444571756" x2="45" y2="53.641581444571756" style="visibility: inherit;" fill="rgb(0, 0, 0)" stroke="rgb(204, 204, 204)" stroke-width="1px"></line><line x1="50" y1="34.38065023164595" x2="45" y2="34.38065023164595" style="visibility: inherit;" fill="rgb(0, 0, 0)" stroke="rgb(204, 204, 204)" stroke-width="1px"></line><line x1="50" y1="15.11971901872013" x2="45" y2="15.11971901872013" style="visibility: inherit;" fill="rgb(0, 0, 0)" stroke="rgb(204, 204, 204)" stroke-width="1px"></line></g><g transform="translate(40, 0)"><text x="0" y="169.20716872212637" dx="0em" dy="0.3em" style="text-anchor: end; visibility: inherit; font-family: Roboto, sans-serif; font-size: 12px; font-weight: 200;" fill="rgb(33, 33, 33)" stroke="none" stroke-width="1px">0.81</text><text x="0" y="149.94623750920076" dx="0em" dy="0.3em" style="text-anchor: end; visibility: hidden; font-family: Roboto, sans-serif; font-size: 12px; font-weight: 200;" fill="rgb(33, 33, 33)" stroke="none" stroke-width="1px">0.82</text><text x="0" y="130.68530629627497" dx="0em" dy="0.3em" style="text-anchor: end; visibility: inherit; font-family: Roboto, sans-serif; font-size: 12px; font-weight: 200;" fill="rgb(33, 33, 33)" stroke="none" stroke-width="1px">0.83</text><text x="0" y="111.42437508334916" dx="0em" dy="0.3em" style="text-anchor: end; visibility: hidden; font-family: Roboto, sans-serif; font-size: 12px; font-weight: 200;" fill="rgb(33, 33, 33)" stroke="none" stroke-width="1px">0.84</text><text x="0" y="92.16344387042334" dx="0em" dy="0.3em" style="text-anchor: end; visibility: inherit; font-family: Roboto, sans-serif; font-size: 12px; font-weight: 200;" fill="rgb(33, 33, 33)" stroke="none" stroke-width="1px">0.85</text><text x="0" y="72.90251265749755" dx="0em" dy="0.3em" style="text-anchor: end; visibility: hidden; font-family: Roboto, sans-serif; font-size: 12px; font-weight: 200;" fill="rgb(33, 33, 33)" stroke="none" stroke-width="1px">0.86</text><text x="0" y="53.641581444571756" dx="0em" dy="0.3em" style="text-anchor: end; visibility: inherit; font-family: Roboto, sans-serif; font-size: 12px; font-weight: 200;" fill="rgb(33, 33, 33)" stroke="none" stroke-width="1px">0.87</text><text x="0" y="34.38065023164595" dx="0em" dy="0.3em" style="text-anchor: end; visibility: hidden; font-family: Roboto, sans-serif; font-size: 12px; font-weight: 200;" fill="rgb(33, 33, 33)" stroke="none" stroke-width="1px">0.88</text><text x="0" y="15.11971901872013" dx="0em" dy="0.3em" style="text-anchor: end; visibility: inherit; font-family: Roboto, sans-serif; font-size: 12px; font-weight: 200;" fill="rgb(33, 33, 33)" stroke="none" stroke-width="1px">0.89</text></g><line x1="50" y1="0" x2="50" y2="177" fill="rgb(0, 0, 0)" stroke="rgb(204, 204, 204)" stroke-width="1px"></line></g></g><g transform="translate(50, 0)" clip-path="url(#clip_0)"><clipPath id="clip_0"><rect width="280" height="177"></rect></clipPath><g><g><g><line x1="4.100258182731814" y1="0" x2="4.100258182731814" y2="177" fill="rgb(0, 0, 0)" stroke="rgb(66, 66, 66)" stroke-width="1px" opacity="0.25"></line><line x1="28.47567395502327" y1="0" x2="28.47567395502327" y2="177" fill="rgb(0, 0, 0)" stroke="rgb(66, 66, 66)" stroke-width="1px" opacity="0.25"></line><line x1="52.851089727314736" y1="0" x2="52.851089727314736" y2="177" fill="rgb(0, 0, 0)" stroke="rgb(66, 66, 66)" stroke-width="1px" opacity="0.25"></line><line x1="77.22650549960619" y1="0" x2="77.22650549960619" y2="177" fill="rgb(0, 0, 0)" stroke="rgb(66, 66, 66)" stroke-width="1px" opacity="0.25"></line><line x1="101.60192127189765" y1="0" x2="101.60192127189765" y2="177" fill="rgb(0, 0, 0)" stroke="rgb(66, 66, 66)" stroke-width="1px" opacity="0.25"></line><line x1="125.9773370441891" y1="0" x2="125.9773370441891" y2="177" fill="rgb(0, 0, 0)" stroke="rgb(66, 66, 66)" stroke-width="1px" opacity="0.25"></line><line x1="150.35275281648055" y1="0" x2="150.35275281648055" y2="177" fill="rgb(0, 0, 0)" stroke="rgb(66, 66, 66)" stroke-width="1px" opacity="0.25"></line><line x1="174.72816858877204" y1="0" x2="174.72816858877204" y2="177" fill="rgb(0, 0, 0)" stroke="rgb(66, 66, 66)" stroke-width="1px" opacity="0.25"></line><line x1="199.10358436106347" y1="0" x2="199.10358436106347" y2="177" fill="rgb(0, 0, 0)" stroke="rgb(66, 66, 66)" stroke-width="1px" opacity="0.25"></line><line x1="223.47900013335493" y1="0" x2="223.47900013335493" y2="177" fill="rgb(0, 0, 0)" stroke="rgb(66, 66, 66)" stroke-width="1px" opacity="0.25"></line><line x1="247.8544159056464" y1="0" x2="247.8544159056464" y2="177" fill="rgb(0, 0, 0)" stroke="rgb(66, 66, 66)" stroke-width="1px" opacity="0.25"></line><line x1="272.22983167793785" y1="0" x2="272.22983167793785" y2="177" fill="rgb(0, 0, 0)" stroke="rgb(66, 66, 66)" stroke-width="1px" opacity="0.25"></line></g><g><line x1="0" y1="169.20716872212637" x2="280" y2="169.20716872212637" fill="rgb(0, 0, 0)" stroke="rgb(66, 66, 66)" stroke-width="1px" opacity="0.25"></line><line x1="0" y1="149.94623750920076" x2="280" y2="149.94623750920076" fill="rgb(0, 0, 0)" stroke="rgb(66, 66, 66)" stroke-width="1px" opacity="0.25"></line><line x1="0" y1="130.68530629627497" x2="280" y2="130.68530629627497" fill="rgb(0, 0, 0)" stroke="rgb(66, 66, 66)" stroke-width="1px" opacity="0.25"></line><line x1="0" y1="111.42437508334916" x2="280" y2="111.42437508334916" fill="rgb(0, 0, 0)" stroke="rgb(66, 66, 66)" stroke-width="1px" opacity="0.25"></line><line x1="0" y1="92.16344387042334" x2="280" y2="92.16344387042334" fill="rgb(0, 0, 0)" stroke="rgb(66, 66, 66)" stroke-width="1px" opacity="0.25"></line><line x1="0" y1="72.90251265749755" x2="280" y2="72.90251265749755" fill="rgb(0, 0, 0)" stroke="rgb(66, 66, 66)" stroke-width="1px" opacity="0.25"></line><line x1="0" y1="53.641581444571756" x2="280" y2="53.641581444571756" fill="rgb(0, 0, 0)" stroke="rgb(66, 66, 66)" stroke-width="1px" opacity="0.25"></line><line x1="0" y1="34.38065023164595" x2="280" y2="34.38065023164595" fill="rgb(0, 0, 0)" stroke="rgb(66, 66, 66)" stroke-width="1px" opacity="0.25"></line><line x1="0" y1="15.11971901872013" x2="280" y2="15.11971901872013" fill="rgb(0, 0, 0)" stroke="rgb(66, 66, 66)" stroke-width="1px" opacity="0.25"></line></g></g></g><g><g><line x1="0" y1="1729.3425969691152" x2="280" y2="1729.3425969691152" fill="rgb(0, 0, 0)" stroke="rgb(153, 153, 153)" stroke-width="1.5px"></line></g></g><g><g><line x1="4.100258182731814" y1="0" x2="4.100258182731814" y2="177" fill="rgb(0, 0, 0)" stroke="rgb(153, 153, 153)" stroke-width="1.5px"></line></g></g><g><g><g><g><g><path stroke="rgb(255, 112, 67)" stroke-width="2px" d="M53.143594716582236,15.119746571703269L53.63110303202806,15.119746571703269L53.77735552666181,15.119746571703269L54.06986051592931,15.119746571703269L54.84987382064263,15.119746571703269L54.9473754837318,15.119746571703269L55.044877146820966,15.119746571703269L55.09362797836555,15.119746571703269L55.19112964145471,15.119746571703269L55.48363463072221,15.119746571703269L55.53238546226679,15.119746571703269L55.629887125355964,15.119746571703269L56.068644609257206,15.119746571703269L56.361149598524705,15.119746571703269L56.409900430069285,15.119746571703269L56.458651261613866,15.119746571703269L56.50740209315845,15.119746571703269L56.751156250881365,15.119746571703269L57.141162903238026,15.119746571703269L57.48241872405011,15.119746571703269L57.872425376406774,53.641572260244025L58.01867787104052,53.641572260244025L58.067428702585104,53.641572260244025L58.40868452339719,53.641572260244025L58.652438681120096,53.641572260244025L59.04244533347677,53.641572260244025L59.18869782811051,53.641572260244025L59.237448659655094,53.641572260244025L59.67620614355634,53.641572260244025L59.77370780664551,53.641572260244025L59.82245863819009,53.641572260244025L60.21246529054675,53.641572260244025L60.45621944826967,53.641572260244025L60.60247194290342,53.641572260244025L61.04122942680466,53.641572260244025L61.08998025834924,53.641572260244025L61.52873774225049,53.641572260244025L61.57748857379508,53.641572260244025L61.821242731517984,53.641572260244025L61.91874439460716,53.641572260244025L61.96749522615174,53.641572260244025L62.162498552330064,53.641572260244025L62.55250520468674,53.641572260244025L62.9425118570434,34.38065941597366L62.99126268858798,34.38065941597366L63.04001352013256,34.38065941597366L63.2350168463109,34.38065941597366L63.77127599330131,34.38065941597366L64.0637809825688,34.38065941597366L64.30753514029172,34.38065941597366L64.45378763492548,34.38065941597366L65.03879761346046,34.38065941597366L65.33130260272796,34.38065941597366L65.57505676045088,34.38065941597366L65.72130925508462,34.38065941597366L65.91631258126296,34.38065941597366L66.11131590744128,34.38065941597366L66.20881757053044,34.38065941597366L67.13508336987752,34.38065941597366L67.37883752760044,34.38065941597366L67.42758835914502,34.38065941597366L67.67134251686794,53.641572260244025L67.86634584304628,53.641572260244025L67.91509667459086,53.641572260244025L68.01259833768002,53.641572260244025L68.40260499003668,53.641572260244025L68.45135582158127,53.641572260244025L68.74386081084876,53.641572260244025L68.79261164239335,53.641572260244025L68.84136247393793,53.641572260244025L68.98761496857168,53.641572260244025L69.42637245247293,53.641572260244025L69.8163791048296,53.641572260244025L70.59639240954291,53.641572260244025L70.79139573572125,53.641572260244025L71.08390072498875,53.641572260244025L71.27890405116707,53.641572260244025L71.37640571425624,53.641572260244025L71.96141569279123,53.641572260244025L72.01016652433582,53.641572260244025L72.79017982904915,72.90248510451441L73.42394063912873,72.90248510451441L73.47269147067331,72.90248510451441L73.57019313376247,72.90248510451441L73.86269812302996,72.90248510451441L74.30145560693121,72.90248510451441L74.39895727002038,72.90248510451441L74.44770810156496,72.90248510451441L74.59396059619873,72.90248510451441L74.88646558546621,72.90248510451441L75.32522306936747,72.90248510451441L75.47147556400121,72.90248510451441L75.52022639554579,72.90248510451441L75.95898387944703,72.90248510451441L76.00773471099163,72.90248510451441L76.73899718416037,72.90248510451441L76.83649884724953,72.90248510451441L76.93400051033869,72.90248510451441L77.61651215196285,34.38065941597366L77.86026630968577,34.38065941597366L77.95776797277493,34.38065941597366L78.10402046740869,34.38065941597366L78.49402711976535,34.38065941597366L78.78653210903283,34.38065941597366L78.88403377212201,34.38065941597366L79.03028626675577,34.38065941597366L79.32279125602325,34.38065941597366L79.56654541374617,34.38065941597366L80.05405372919199,34.38065941597366L80.15155539228115,34.38065941597366L80.3465587184595,34.38065941597366L80.63906370772699,34.38065941597366L80.83406703390534,34.38065941597366L80.88281786544992,34.38065941597366L81.12657202317283,34.38065941597366L81.22407368626199,34.38065941597366L81.27282451780657,34.38065941597366L81.37032618089573,34.38065941597366L81.4678278439849,34.38065941597366L81.51657867552949,34.38065941597366L81.7603328332524,34.38065941597366L81.80908366479699,34.38065941597366L82.24784114869823,92.16339794878479L82.54034613796573,92.16339794878479L82.63784780105489,92.16339794878479L82.88160195877781,92.16339794878479L83.12535611650073,92.16339794878479L83.22285777958989,92.16339794878479L83.80786775812489,92.16339794878479L84.14912357893697,92.16339794878479L84.19787441048155,92.16339794878479L84.29537607357071,92.16339794878479L84.34412690511529,92.16339794878479L84.39287773665988,92.16339794878479L84.44162856820446,92.16339794878479L84.53913023129363,92.16339794878479L84.68538272592738,92.16339794878479L84.8803860521057,92.16339794878479L85.12414020982862,92.16339794878479L85.27039270446238,92.16339794878479L85.4653960306407,92.16339794878479L85.61164852527445,92.16339794878479L85.66039935681903,92.16339794878479L85.75790101990819,92.16339794878479L85.80665185145278,92.16339794878479L85.95290434608654,92.16339794878479L86.00165517763112,92.16339794878479L86.14790767226486,92.16339794878479L86.19665850380945,92.16339794878479L86.44041266153235,92.16339794878479L86.48916349307696,92.16339794878479L86.83041931388902,92.16339794878479L86.97667180852277,92.16339794878479L87.17167513470112,111.42442559715148L87.31792762933486,111.42442559715148L87.41542929242402,111.42442559715148L87.51293095551318,111.42442559715148L87.70793428169151,111.42442559715148L87.90293760786986,111.42442559715148L88.0491901025036,111.42442559715148L88.09794093404818,111.42442559715148L88.14669176559276,111.42442559715148L88.48794758640484,111.42442559715148L88.78045257567234,111.42442559715148L88.8779542387615,111.42442559715148L88.92670507030608,111.42442559715148L89.12170839648442,111.42442559715148L89.31671172266276,111.42442559715148L89.4629642172965,111.42442559715148L89.51171504884108,111.42442559715148L89.56046588038566,111.42442559715148L89.65796754347484,111.42442559715148L89.755469206564,111.42442559715148L90.19422669046524,111.42442559715148L90.24297752200984,111.42442559715148L90.38923001664358,111.42442559715148L90.43798084818816,111.42442559715148L90.48673167973274,111.42442559715148L90.5842333428219,111.42442559715148L90.63298417436648,111.42442559715148L90.925489163634,111.42442559715148L91.12049248981232,111.42442559715148L91.1692433213569,111.42442559715148L91.26674498444606,111.42442559715148L91.36424664753523,111.42442559715148L91.510499142169,111.42442559715148L91.55924997371358,111.42442559715148L91.60800080525816,111.42442559715148L91.65675163680274,111.42442559715148L91.80300413143648,111.42442559715148L91.9980074576148,53.641572260244025L92.24176161533774,53.641572260244025L92.29051244688232,53.641572260244025L92.3392632784269,53.641572260244025L92.63176826769438,53.641572260244025L92.9242732569619,53.641572260244025L93.11927658314022,53.641572260244025L93.26552907777396,53.641572260244025L93.46053240395231,53.641572260244025L93.65553573013064,53.641572260244025L93.7530373932198,53.641572260244025L93.99679155094272,53.641572260244025L94.14304404557647,53.641572260244025L95.1668115080127,53.641572260244025L95.26431317110188,53.641572260244025L95.31306400264646,53.641572260244025L95.50806732882478,53.641572260244025L95.60556899191396,53.641572260244025L95.80057231809228,53.641572260244025L95.89807398118145,53.641572260244025L96.28808063353812,53.641572260244025L96.58058562280561,53.641572260244025L96.77558894898394,92.16339794878479L97.11684476979602,92.16339794878479L97.16559560134061,92.16339794878479L97.2143464328852,92.16339794878479L97.26309726442977,92.16339794878479L97.50685142215268,92.16339794878479L97.60435308524184,92.16339794878479L97.7506055798756,92.16339794878479L97.79935641142019,92.16339794878479L97.89685807450935,92.16339794878479L98.286864726866,92.16339794878479L98.33561555841058,92.16339794878479L98.48186805304435,92.16339794878479L98.82312387385642,92.16339794878479L98.96937636849016,92.16339794878479L99.40813385239142,92.16339794878479L99.50563551548058,92.16339794878479L99.55438634702516,92.16339794878479L99.60313717856974,92.16339794878479L99.74938967320351,92.16339794878479L99.79814050474809,92.16339794878479L99.99314383092641,92.16339794878479L100.23689798864932,92.16339794878479L100.28564882019391,92.16339794878479L100.48065214637225,92.16339794878479L100.52940297791683,92.16339794878479L100.57815380946141,92.16339794878479L100.62690464100599,92.16339794878479L100.82190796718432,92.16339794878479L100.8706587987289,92.16339794878479L101.01691129336265,92.16339794878479L101.06566212490723,92.16339794878479L101.4556687772639,92.16339794878479L101.65067210344223,92.16339794878479L101.7481737665314,92.16339794878479L101.84567542962057,92.16339794878479L101.89442626116515,92.16339794878479L102.23568208197723,92.16339794878479L102.28443291352181,92.16339794878479L102.33318374506639,92.16339794878479L102.47943623970014,92.16339794878479L102.86944289205681,92.16339794878479L102.96694455514597,92.16339794878479L103.1619478813243,92.16339794878479L103.21069871286888,92.16339794878479L103.35695120750263,92.16339794878479L103.45445287059181,92.16339794878479L103.79570869140387,92.16339794878479L104.33196783839429,92.16339794878479L104.42946950148345,92.16339794878479L104.72197449075097,92.16339794878479L104.77072532229555,92.16339794878479L104.86822698538471,92.16339794878479L104.96572864847387,92.16339794878479L105.1607319746522,92.16339794878479L105.35573530083055,92.16339794878479L105.45323696391971,92.16339794878479L105.69699112164261,92.16339794878479L105.74574195318719,92.16339794878479L105.79449278473177,92.16339794878479L106.18449943708845,92.16339794878479L106.47700442635593,92.16339794878479L106.67200775253427,92.16339794878479L106.72075858407887,92.16339794878479L106.76950941562345,92.16339794878479L107.20826689952469,92.16339794878479L107.30576856261385,92.16339794878479L107.4520210572476,92.16339794878479L107.74452604651509,92.16339794878479L107.79327687805969,92.16339794878479L108.13453269887177,92.16339794878479L108.23203436196093,92.16339794878479L109.20705099285259,92.16339794878479L109.25580182439717,92.16339794878479L109.45080515057549,92.16339794878479L109.49955598212007,92.16339794878479L109.54830681366467,92.16339794878479L110.42582178146716,92.16339794878479L110.5720742761009,92.16339794878479L110.66957593919007,92.16339794878479L111.01083176000216,92.16339794878479L111.05958259154674,92.16339794878479L111.35208758081423,92.16339794878479L111.44958924390339,53.641572260244025L111.69334340162632,53.641572260244025L111.79084506471548,53.641572260244025L111.88834672780465,53.641572260244025L112.08335005398297,53.641572260244025L112.5708583694288,53.641572260244025L112.96086502178547,53.641572260244025L113.00961585333006,53.641572260244025L113.05836668487464,53.641572260244025L113.1558683479638,53.641572260244025L113.30212084259755,53.641572260244025L113.54587500032046,53.641572260244025L113.6921274949542,53.641572260244025L113.9846324842217,53.641572260244025L114.08213414731088,53.641572260244025L114.17963581040004,53.641572260244025L114.22838664194462,53.641572260244025L114.37463913657837,53.641572260244025L114.47214079966754,53.641572260244025L114.61839329430128,53.641572260244025L115.00839994665795,53.641572260244025L115.34965576747004,53.641572260244025L115.64216075673752,53.641572260244025L115.83716408291586,53.641572260244025L115.88591491446044,53.641572260244025L115.93466574600502,53.641572260244025L115.98341657754962,53.641572260244025L116.2759215668171,34.38065941597366L116.42217406145085,34.38065941597366L116.76342988226294,34.38065941597366L116.8609315453521,34.38065941597366L117.00718403998584,34.38065941597366L117.05593487153043,34.38065941597366L117.2021873661642,34.38065941597366L117.49469235543168,34.38065941597366L117.59219401852084,34.38065941597366L117.73844651315459,34.38065941597366L117.88469900778836,34.38065941597366L117.93344983933294,34.38065941597366L118.0309515024221,34.38065941597366L118.07970233396668,34.38065941597366L118.37220732323416,34.38065941597366L118.95721730176916,34.38065941597366L119.49347644875958,34.38065941597366L119.6884797749379,34.38065941597366L120.12723725883916,34.38065941597366L120.37099141656208,34.38065941597366L120.41974224810666,34.38065941597366L120.5659947427404,34.38065941597366L120.61474557428498,34.38065941597366L120.71224723737416,34.38065941597366L120.76099806891874,34.38065941597366L120.90725056355248,34.38065941597366L121.7360146998104,53.641572260244025L121.78476553135498,53.641572260244025L121.83351636289956,53.641572260244025L122.07727052062246,53.641572260244025L122.22352301525623,53.641572260244025L122.41852634143456,53.641572260244025L122.46727717297914,53.641572260244025L122.51602800452372,53.641572260244025L122.71103133070204,53.641572260244025L122.75978216224662,53.641572260244025L122.9060346568804,53.641572260244025L123.10103798305872,53.641572260244025L123.19853964614788,53.641572260244025L123.88105128777204,53.641572260244025L124.3198087716733,53.641572260244025L124.36855960321788,53.641572260244025L124.90481875020829,53.641572260244025L125.29482540256494,53.641572260244025L125.34357623410952,53.641572260244025L125.48982872874328,53.641572260244025L125.58733039183245,53.641572260244025L125.63608122337703,53.641572260244025L126.0260878757337,130.68533844142186L126.07483870727827,130.68533844142186L126.12358953882286,130.68533844142186L126.3185928650012,130.68533844142186L126.41609452809035,130.68533844142186L126.51359619117952,130.68533844142186L126.90360284353618,130.68533844142186L127.1473570012591,130.68533844142186L127.19610783280368,130.68533844142186L127.34236032743743,130.68533844142186L127.68361614824951,130.68533844142186L128.2686261267845,130.68533844142186L128.51238028450743,130.68533844142186L128.561131116052,130.68533844142186L128.65863277914116,130.68533844142186L128.70738361068575,130.68533844142186L128.99988859995324,130.68533844142186L129.34114442076532,130.68533844142186L129.3898952523099,130.68533844142186L129.82865273621115,130.68533844142186L130.02365606238948,130.68533844142186L130.12115772547867,130.68533844142186L130.316161051657,130.68533844142186L130.75491853555823,130.68533844142186L131.0961743563703,130.68533844142186L131.1449251879149,130.68533844142186L131.3886793456378,130.68533844142186L131.77868599799447,130.68533844142186L131.87618766108363,130.68533844142186L132.2174434818957,130.68533844142186L132.2661943134403,130.68533844142186L132.46119763961863,130.68533844142186L132.70495179734155,130.68533844142186L132.85120429197528,130.68533844142186L132.94870595506447,130.68533844142186L133.09495844969823,130.68533844142186L133.24121094433195,130.68533844142186L133.43621427051028,130.68533844142186L133.82622092286695,130.68533844142186L134.21622757522363,130.68533844142186L134.3137292383128,130.68533844142186L134.41123090140195,130.68533844142186L134.5574833960357,130.68533844142186L134.60623422758027,130.68533844142186L134.8987392168478,130.68533844142186L134.94749004839235,130.68533844142186L135.33749670074903,130.68533844142186L135.48374919538279,130.68533844142186L135.53250002692735,130.68533844142186L135.58125085847195,130.68533844142186L135.6300016900165,130.68533844142186L135.7275033531057,130.68533844142186L135.87375584773943,149.94625128569223L136.2150116685515,149.94625128569223L136.2637625000961,149.94625128569223L136.6050183209082,149.94625128569223L136.65376915245278,149.94625128569223L136.70251998399735,149.94625128569223L137.1412774678986,149.94625128569223L137.33628079407694,149.94625128569223L137.4337824571661,149.94625128569223L137.48253328871067,149.94625128569223L137.58003495179983,149.94625128569223L137.82378910952275,149.94625128569223L137.87253994106734,149.94625128569223L137.9700416041565,149.94625128569223L138.0187924357011,149.94625128569223L138.06754326724567,149.94625128569223L138.3112974249686,149.94625128569223L138.99380906659275,149.94625128569223L139.432566550494,149.94625128569223L139.72507153976147,149.94625128569223L140.06632736057358,149.94625128569223L140.11507819211815,149.94625128569223L140.5538356760194,149.94625128569223L140.8950914968315,130.68533844142186L141.28509814918814,130.68533844142186L141.33384898073274,130.68533844142186L141.48010147536647,130.68533844142186L141.82135729617855,130.68533844142186L141.9188589592677,130.68533844142186L142.11386228544606,130.68533844142186L142.60137060089187,130.68533844142186L142.65012143243646,130.68533844142186L142.79637392707022,130.68533844142186L143.0401280847931,130.68533844142186L143.23513141097146,130.68533844142186L143.86889222105103,130.68533844142186L143.9663938841402,130.68533844142186L144.01514471568478,130.68533844142186L144.30764970495227,130.68533844142186L144.35640053649686,130.68533844142186L144.40515136804143,130.68533844142186L144.50265303113062,130.68533844142186L144.60015469421978,130.68533844142186L145.18516467275478,130.68533844142186L145.62392215665602,111.42442559715148L145.81892548283437,111.42442559715148L146.06267964055726,111.42442559715148L146.35518462982478,111.42442559715148L146.64768961909226,111.42442559715148L146.69644045063683,111.42442559715148L146.98894543990434,111.42442559715148L147.1839487660827,111.42442559715148L147.28145042917185,111.42442559715148L147.37895209226102,111.42442559715148L147.6714570815285,111.42442559715148L147.81770957616226,111.42442559715148L147.91521123925142,111.42442559715148L148.06146373388515,111.42442559715148L148.2077162285189,111.42442559715148L148.3539687231527,111.42442559715148L148.45147038624185,111.42442559715148L148.7927262070539,111.42442559715148L148.89022787014306,111.42442559715148L149.47523784867806,111.42442559715148L149.52398868022266,111.42442559715148L149.57273951176725,111.42442559715148L150.25525115339138,111.42442559715148L150.45025447956974,111.42442559715148L150.64525780574806,111.42442559715148L150.8402611319264,111.42442559715148L150.88901196347098,111.42442559715148L151.03526445810473,111.42442559715148L151.1327661211939,111.42442559715148L151.23026778428306,111.42442559715148L151.6202744366397,111.42442559715148L151.71777609972887,111.42442559715148L151.86402859436262,111.42442559715148L152.0102810889964,111.42442559715148L152.15653358363014,111.42442559715148L152.2540352467193,111.42442559715148L152.40028774135305,111.42442559715148L152.5465402359868,111.42442559715148L152.59529106753138,111.42442559715148L153.32655354070013,111.42442559715148L153.6678093615122,111.42442559715148L153.91156351923513,111.42442559715148L153.9603143507797,111.42442559715148L154.0090651823243,111.42442559715148L154.10656684541345,111.42442559715148L154.15531767695802,111.42442559715148L154.25281934004718,111.42442559715148L154.35032100313634,111.42442559715148L154.54532432931472,111.42442559715148L154.74032765549305,111.42442559715148L154.98408181321594,111.42442559715148L155.0815834763051,111.42442559715148L155.42283929711718,169.20716412996262L155.52034096020634,169.20716412996262L155.56909179175094,169.20716412996262L155.71534428638466,169.20716412996262L155.81284594947385,169.20716412996262L156.0078492756522,169.20716412996262L156.15410177028593,169.20716412996262L156.2516034333751,169.20716412996262L156.34910509646426,169.20716412996262L156.39785592800885,169.20716412996262L156.88536424345466,169.20716412996262L156.93411507499926,169.20716412996262L157.1291184011776,169.20716412996262L157.27537089581134,169.20716412996262L157.4216233904451,169.20716412996262L157.4703742219897,169.20716412996262L157.61662671662341,169.20716412996262L157.665377548168,169.20716412996262L157.76287921125717,169.20716412996262L158.00663336898006,169.20716412996262L158.05538420052466,169.20716412996262L158.39664002133676,169.20716412996262L158.44539085288133,169.20716412996262L158.64039417905965,169.20716412996262L158.73789584214882,169.20716412996262L158.835397505238,169.20716412996262L159.03040083141633,169.20716412996262L159.51790914686214,169.20716412996262L159.61541080995133,169.20716412996262L159.7129124730405,169.20716412996262L159.76166330458508,169.20716412996262L159.9566666307634,169.20716412996262L160.10291912539714,169.20716412996262L160.4929257777538,111.42442559715148L160.68792910393213,111.42442559715148L160.83418159856592,111.42442559715148L161.3704407455563,111.42442559715148L161.56544407173465,111.42442559715148L161.6629457348238,111.42442559715148L161.80919822945754,111.42442559715148L161.9066998925467,111.42442559715148L161.9554507240913,111.42442559715148L162.05295238718048,111.42442559715148L162.15045405026964,111.42442559715148L162.19920488181424,111.42442559715148L162.2967065449034,111.42442559715148L162.39420820799256,111.42442559715148L162.44295903953713,111.42442559715148L162.63796236571545,111.42442559715148L162.68671319726005,111.42442559715148L162.7842148603492,111.42442559715148L162.93046735498294,111.42442559715148L163.17422151270586,111.42442559715148L163.75923149124088,111.42442559715148L163.9542348174192,111.42442559715148L164.10048731205293,111.42442559715148L164.5879956274988,111.42442559715148L164.88050061676628,111.42442559715148L164.92925144831085,111.42442559715148L165.0267531114,130.68533844142186L165.17300560603377,130.68533844142186L165.31925810066753,130.68533844142186L165.3680089322121,130.68533844142186L165.4167597637567,130.68533844142186L165.90426807920252,130.68533844142186L165.95301891074712,130.68533844142186L166.00176974229169,130.68533844142186L166.09927140538085,130.68533844142186L166.68428138391585,130.68533844142186L166.7330322154604,130.68533844142186L166.781783047005,130.68533844142186L166.83053387854957,130.68533844142186L167.22054053090628,130.68533844142186L167.6592980148075,130.68533844142186L167.9030521725304,130.68533844142186L168.29305882488705,130.68533844142186L168.34180965643168,130.68533844142186L168.48806215106544,130.68533844142186L169.0243212980558,130.68533844142186L169.17057379268957,130.68533844142186L169.31682628732332,130.68533844142186L169.3655771188679,130.68533844142186L169.41432795041248,130.68533844142186L169.51182961350165,130.68533844142186L169.90183626585832,169.20716412996262L169.99933792894748,169.20716412996262L170.09683959203664,169.20716412996262L170.1943412551258,169.20716412996262L170.68184957057161,169.20716412996262L171.07185622292832,169.20716412996262L171.12060705447288,169.20716412996262L171.3643612121958,169.20716412996262L171.6568662014633,169.20716412996262L172.04687285381993,169.20716412996262L172.33937784308748,169.20716412996262L172.38812867463204,169.20716412996262L172.43687950617664,169.20716412996262L172.4856303377212,169.20716412996262L172.58313200081037,169.20716412996262L172.82688615853328,169.20716412996262L173.75315195788036,169.20716412996262L173.85065362096952,169.20716412996262L174.04565694714785,169.20716412996262L174.09440777869244,169.20716412996262L174.58191609413825,169.20716412996262L174.67941775722744,169.20716412996262L174.8256702518612,149.94625128569223L174.8744210834058,149.94625128569223L174.92317191495036,149.94625128569223L175.41068023039617,149.94625128569223L175.45943106194076,149.94625128569223L175.60568355657452,149.94625128569223L175.70318521966368,149.94625128569223L175.89818854584203,149.94625128569223L175.9956902089312,149.94625128569223L176.14194270356492,149.94625128569223L176.2394443666541,149.94625128569223L176.33694602974327,149.94625128569223L176.43444769283244,149.94625128569223L176.87320517673365,149.94625128569223L177.068208502912,149.94625128569223L177.26321182909035,149.94625128569223L177.3607134921795,149.94625128569223L177.50696598681324,149.94625128569223L177.653218481447,149.94625128569223L177.94572347071448,149.94625128569223L177.99447430225908,149.94625128569223L178.1894776284374,149.94625128569223L178.33573012307113,149.94625128569223L178.48198261770492,149.94625128569223L178.57948428079408,149.94625128569223L178.823238438517,149.94625128569223L179.01824176469532,149.94625128569223L179.16449425932908,149.94625128569223L179.21324509087364,149.94625128569223L179.26199592241824,149.94625128569223L179.3107467539628,149.94625128569223L179.45699924859656,149.94625128569223L179.6520025747749,92.16339794878479L179.9445075640424,92.16339794878479L179.993258395587,92.16339794878479L180.13951089022072,92.16339794878479L180.5295175425774,92.16339794878479L180.77327170030028,92.16339794878479L180.91952419493407,92.16339794878479L181.06577668956783,92.16339794878479L181.1145275211124,92.16339794878479L181.21202918420155,92.16339794878479L181.3582816788353,92.16339794878479L181.40703251037988,92.16339794878479L181.50453417346904,92.16339794878479L181.79703916273652,92.16339794878479L181.94329165737028,92.16339794878479L182.08954415200404,92.16339794878479L182.13829498354863,92.16339794878479L182.33329830972696,92.16339794878479L182.62580329899447,92.16339794878479L183.259564109074,92.16339794878479L183.4545674352524,92.16339794878479L183.55206909834155,92.16339794878479L183.79582325606444,92.16339794878479L184.03957741378736,92.16339794878479L184.4783348976886,92.16339794878479L184.67333822386695,130.68533844142186L184.86834155004527,130.68533844142186L185.01459404467903,130.68533844142186L185.74585651784776,130.68533844142186L186.2333648332936,130.68533844142186L186.2821156648382,130.68533844142186L186.33086649638275,130.68533844142186L186.4771189910165,130.68533844142186L186.769623980284,130.68533844142186L187.06212896955148,130.68533844142186L187.11087980109608,130.68533844142186L187.15963063264067,130.68533844142186L187.20838146418527,130.68533844142186L187.25713229572983,130.68533844142186L187.30588312727443,130.68533844142186L187.35463395881902,130.68533844142186L187.74464061117567,130.68533844142186L188.86590973670107,130.68533844142186L188.91466056824567,130.68533844142186L188.96341139979023,130.68533844142186L189.3046672206023,130.68533844142186L189.84092636759274,130.68533844142186L189.9384280306819,130.68533844142186L190.13343135686023,130.68533844142186L190.52343800921687,130.68533844142186L190.57218884076147,130.68533844142186L190.7184413353952,130.68533844142186L190.81594299848436,130.68533844142186L190.86469383002895,130.68533844142186L190.96219549311814,130.68533844142186L191.8884612924652,130.68533844142186L192.1322154501881,130.68533844142186L192.2784679448219,130.68533844142186L192.42472043945563,130.68533844142186L192.86347792335687,130.68533844142186L192.91222875490143,130.68533844142186L193.20473374416895,130.68533844142186L193.3022354072581,130.68533844142186L193.35098623880268,130.68533844142186L193.64349122807022,130.68533844142186L193.78974372270395,130.68533844142186L193.83849455424854,130.68533844142186L194.08224871197143,130.68533844142186L194.1797503750606,130.68533844142186L194.27725203814975,111.42442559715148L194.4235045327835,111.42442559715148L194.4722553643281,111.42442559715148L194.86226201668478,111.42442559715148L195.1060161744077,111.42442559715148L195.20351783749686,111.42442559715148L195.25226866904143,111.42442559715148L195.30101950058602,111.42442559715148L195.8372786475764,111.42442559715148L196.32478696302226,111.42442559715148L196.7147936153789,111.42442559715148L197.54355775163683,111.42442559715148L197.78731190935974,111.42442559715148L197.8848135724489,111.42442559715148L197.9335644039935,111.42442559715148L198.07981689862723,111.42442559715148L198.5673252140731,111.42442559715148L198.85983020334058,111.42442559715148L199.0548335295189,111.42442559715148L199.29858768724182,92.16339794878479L199.39608935033098,92.16339794878479L199.49359101342014,92.16339794878479L199.5910926765093,92.16339794878479L199.6885943395985,92.16339794878479L199.88359766577682,92.16339794878479L199.9323484973214,92.16339794878479L200.07860099195514,92.16339794878479L200.12735182349974,92.16339794878479L200.1761026550443,92.16339794878479L200.37110598122263,92.16339794878479L200.4686076443118,92.16339794878479L200.61486013894555,92.16339794878479L200.6636109704901,92.16339794878479L200.7611126335793,92.16339794878479L201.00486679130222,92.16339794878479L201.10236845439138,92.16339794878479L201.15111928593598,92.16339794878479L201.19987011748054,92.16339794878479L201.49237510674806,92.16339794878479L201.58987676983722,92.16339794878479L201.73612926447095,92.16339794878479L202.1748867483722,92.16339794878479L202.32113924300597,92.16339794878479L202.41864090609513,92.16339794878479L202.5161425691843,92.16339794878479L202.61364423227346,92.16339794878479L202.71114589536262,92.16339794878479L203.14990337926386,92.16339794878479L203.34490670544218,92.16339794878479L203.44240836853137,92.16339794878479L203.58866086316513,92.16339794878479L203.97866751552178,92.16339794878479L204.1736708417001,111.42442559715148L204.36867416787842,111.42442559715148L204.6611791571459,111.42442559715148L205.00243497795802,111.42442559715148L205.09993664104718,111.42442559715148L205.3436907987701,111.42442559715148L205.68494661958218,111.42442559715148L205.8311991142159,111.42442559715148L205.8799499457605,111.42442559715148L206.12370410348342,111.42442559715148L206.17245493502801,111.42442559715148L206.2212057665726,111.42442559715148L206.31870742966177,111.42442559715148L206.4649599242955,111.42442559715148L206.70871408201842,111.42442559715148L206.85496657665215,111.42442559715148L206.90371740819674,111.42442559715148L207.0012190712859,111.42442559715148L207.29372406055342,111.42442559715148L207.78123237599925,111.42442559715148L208.1224881968113,111.42442559715148L208.26874069144506,111.42442559715148L208.31749152298963,111.42442559715148L208.65874734380174,111.42442559715148L208.70749817534633,111.42442559715148L208.7562490068909,111.42442559715148L208.8049998384355,111.42442559715148L209.04875399615838,111.42442559715148L209.19500649079214,111.42442559715148L210.36502644786214,111.42442559715148L210.5112789424959,111.42442559715148L210.60878060558505,111.42442559715148L210.85253476330794,111.42442559715148L210.99878725794173,111.42442559715148L211.0475380894863,111.42442559715148L211.14503975257549,111.42442559715148L211.19379058412005,111.42442559715148L211.53504640493213,111.42442559715148L211.6325480680213,111.42442559715148L211.73004973111046,111.42442559715148L212.1688072150117,111.42442559715148L212.41256137273461,111.42442559715148L212.4613122042792,111.42442559715148L212.7538171935467,111.42442559715148L212.85131885663586,111.42442559715148L212.94882051972502,111.42442559715148L213.04632218281418,111.42442559715148L213.2413255089925,111.42442559715148L213.38757800362626,111.42442559715148L213.5825813298046,111.42442559715148L214.02133881370585,111.42442559715148L214.07008964525045,111.42442559715148L214.11884047679501,111.42442559715148L214.4113454660625,111.42442559715148L214.8013521184192,111.42442559715148L214.99635544459753,111.42442559715148L215.0938571076867,111.42442559715148L215.14260793923125,111.42442559715148L215.19135877077585,111.42442559715148L215.38636209695417,111.42442559715148L215.6301162546771,111.42442559715148L215.97137207548914,111.42442559715148L216.36137872784585,111.42442559715148L216.55638205402417,111.42442559715148L216.7513853802025,111.42442559715148L216.84888704329165,111.42442559715148L217.14139203255914,111.42442559715148L217.28764452719292,111.42442559715148L217.3851461902821,111.42442559715148L217.48264785337125,111.42442559715148L217.5801495164604,111.42442559715148L217.72640201109417,111.42442559715148L217.82390367418333,111.42442559715148L217.97015616881706,111.42442559715148L218.1651594949954,111.42442559715148L218.26266115808457,111.42442559715148L218.55516614735208,111.42442559715148L218.798920305075,111.42442559715148L218.84767113661957,111.42442559715148L219.0426744627979,111.42442559715148L219.38393028360997,111.42442559715148L219.9201894306004,111.42442559715148L220.06644192523413,111.42442559715148L220.11519275677873,111.42442559715148L220.26144525141248,111.42442559715148L220.50519940913537,111.42442559715148L220.79770439840286,111.42442559715148L220.84645522994745,111.42442559715148L221.0414585561258,111.42442559715148L221.13896021921497,111.42442559715148L221.43146520848245,111.42442559715148L221.48021604002705,111.42442559715148L221.5777177031162,111.42442559715148L221.77272102929453,111.42442559715148L222.1139768501066,111.42442559715148L222.40648183937412,111.42442559715148L222.55273433400788,111.42442559715148L222.84523932327536,111.42442559715148L223.235245975632,111.42442559715148L223.38149847026577,111.42442559715148L223.47900013335493,111.42442559715148L223.52775096489952,111.42442559715148L223.77150512262244,111.42442559715148L223.82025595416704,111.42442559715148L223.96650844880077,111.42442559715148L224.06401011188993,111.42442559715148L224.11276094343452,111.42442559715148L224.21026260652368,111.42442559715148L224.4540167642466,111.42442559715148L224.94152507969244,111.42442559715148L225.23403006895992,111.42442559715148L225.3315317320491,111.42442559715148L225.38028256359368,111.42442559715148L225.575285889772,111.42442559715148L225.62403672131657,111.42442559715148L225.8190400474949,111.42442559715148L225.91654171058408,111.42442559715148L226.2090466998516,111.42442559715148L226.25779753139616,111.42442559715148L226.40405002602992,111.42442559715148L226.59905335220824,111.42442559715148L227.18406333074321,111.42442559715148L227.42781748846616,111.42442559715148L227.47656832001076,111.42442559715148L227.57406998309992,111.42442559715148L228.01282746700116,111.42442559715148L228.06157829854573,111.42442559715148L228.3540832878132,111.42442559715148L228.4028341193578,130.68533844142186L228.50033578244697,130.68533844142186L229.08534576098197,130.68533844142186L229.2803490871603,130.68533844142186L229.37785075024948,130.68533844142186L229.47535241333864,130.68533844142186L229.62160490797237,130.68533844142186L229.76785740260613,130.68533844142186L230.2066148865074,130.68533844142186L230.49911987577488,130.68533844142186L230.59662153886404,130.68533844142186L231.13288068585447,130.68533844142186L231.18163151739904,130.68533844142186L231.47413650666655,130.68533844142186L231.8153923274786,130.68533844142186L232.9854122845486,130.68533844142186L233.0341631160932,130.68533844142186L233.13166477918236,130.68533844142186L233.2779172738161,130.68533844142186L233.37541893690525,130.68533844142186L234.39918639934152,130.68533844142186L234.54543889397524,130.68533844142186L234.74044222015357,130.68533844142186L234.78919305169816,130.68533844142186L234.83794388324276,130.68533844142186L234.93544554633195,130.68533844142186L235.13044887251027,130.68533844142186L235.276701367144,130.68533844142186L235.37420303023316,130.68533844142186L235.47170469332232,130.68533844142186L235.8129605141344,130.68533844142186L235.95921300876816,130.68533844142186L236.00796384031273,130.68533844142186L236.1542163349465,130.68533844142186L236.39797049266943,130.68533844142186L236.78797714502608,130.68533844142186L236.9829804712044,130.68533844142186L237.08048213429356,130.68533844142186L237.17798379738272,130.68533844142186L237.22673462892732,130.68533844142186L237.51923961819483,130.68533844142186L237.71424294437315,130.68533844142186L237.81174460746232,130.68533844142186L237.90924627055148,130.68533844142186L238.05549876518523,130.68533844142186L238.49425624908648,92.16339794878479L238.59175791217567,92.16339794878479L238.64050874372023,92.16339794878479L238.83551206989856,92.16339794878479L239.07926622762147,92.16339794878479L239.17676789071064,92.16339794878479L239.66427620615644,92.16339794878479L239.7617778692456,92.16339794878479L239.85927953233482,92.16339794878479L240.49304034241436,92.16339794878479L240.6880436685927,92.16339794878479L240.78554533168187,92.16339794878479L241.2730536471277,92.16339794878479L241.51680780485063,92.16339794878479L241.85806362566268,92.16339794878479L242.00431612029644,92.16339794878479L242.1018177833856,92.16339794878479L242.3943227726531,92.16339794878479L242.7355785934652,92.16339794878479L243.07683441427727,111.42442559715148L243.12558524582184,111.42442559715148L243.17433607736643,111.42442559715148L243.2718377404556,111.42442559715148L243.41809023508935,111.42442559715148L243.5155918981785,111.42442559715148L243.80809688744603,111.42442559715148L244.00310021362435,111.42442559715148L244.05185104516895,111.42442559715148L244.34435603443643,111.42442559715148L244.393106865981,111.42442559715148L244.4418576975256,111.42442559715148L244.68561185524848,111.42442559715148L244.73436268679308,111.42442559715148L244.92936601297143,111.42442559715148L245.46562515996183,111.42442559715148L245.75813014922932,111.42442559715148L245.95313347540764,111.42442559715148L246.0506351384968,111.42442559715148L246.1968876331306,111.42442559715148L246.29438929621975,111.42442559715148L246.58689428548723,111.42442559715148L246.733146780121,111.42442559715148L246.9281501062993,111.42442559715148L247.12315343247764,111.42442559715148L247.2206550955668,111.42442559715148L247.36690759020058,111.42442559715148L247.46440925328974,111.42442559715148L247.65941257946807,111.42442559715148L247.75691424255723,111.42442559715148L247.8544159056464,111.42442559715148" style="fill: none;" fill="none"></path></g></g></g></g></g></g><g transform="translate(50, 177)" clip-path="url(#clip_1)"><clipPath id="clip_1"><rect width="280" height="23"></rect></clipPath><g><g><line x1="4.100258182731814" y1="0" x2="4.100258182731814" y2="5" style="visibility: inherit;" fill="rgb(0, 0, 0)" stroke="rgb(204, 204, 204)" stroke-width="1px"></line><line x1="28.47567395502327" y1="0" x2="28.47567395502327" y2="5" style="visibility: inherit;" fill="rgb(0, 0, 0)" stroke="rgb(204, 204, 204)" stroke-width="1px"></line><line x1="52.851089727314736" y1="0" x2="52.851089727314736" y2="5" style="visibility: inherit;" fill="rgb(0, 0, 0)" stroke="rgb(204, 204, 204)" stroke-width="1px"></line><line x1="77.22650549960619" y1="0" x2="77.22650549960619" y2="5" style="visibility: inherit;" fill="rgb(0, 0, 0)" stroke="rgb(204, 204, 204)" stroke-width="1px"></line><line x1="101.60192127189765" y1="0" x2="101.60192127189765" y2="5" style="visibility: inherit;" fill="rgb(0, 0, 0)" stroke="rgb(204, 204, 204)" stroke-width="1px"></line><line x1="125.9773370441891" y1="0" x2="125.9773370441891" y2="5" style="visibility: inherit;" fill="rgb(0, 0, 0)" stroke="rgb(204, 204, 204)" stroke-width="1px"></line><line x1="150.35275281648055" y1="0" x2="150.35275281648055" y2="5" style="visibility: inherit;" fill="rgb(0, 0, 0)" stroke="rgb(204, 204, 204)" stroke-width="1px"></line><line x1="174.72816858877204" y1="0" x2="174.72816858877204" y2="5" style="visibility: inherit;" fill="rgb(0, 0, 0)" stroke="rgb(204, 204, 204)" stroke-width="1px"></line><line x1="199.10358436106347" y1="0" x2="199.10358436106347" y2="5" style="visibility: inherit;" fill="rgb(0, 0, 0)" stroke="rgb(204, 204, 204)" stroke-width="1px"></line><line x1="223.47900013335493" y1="0" x2="223.47900013335493" y2="5" style="visibility: inherit;" fill="rgb(0, 0, 0)" stroke="rgb(204, 204, 204)" stroke-width="1px"></line><line x1="247.8544159056464" y1="0" x2="247.8544159056464" y2="5" style="visibility: inherit;" fill="rgb(0, 0, 0)" stroke="rgb(204, 204, 204)" stroke-width="1px"></line><line x1="272.22983167793785" y1="0" x2="272.22983167793785" y2="5" style="visibility: inherit;" fill="rgb(0, 0, 0)" stroke="rgb(204, 204, 204)" stroke-width="1px"></line></g><g transform="translate(0, 8)"><text x="4.100258182731814" y="0" dx="0em" dy="0.95em" style="text-anchor: middle; visibility: inherit; font-family: Roboto, sans-serif; font-size: 12px; font-weight: 200;" fill="rgb(33, 33, 33)" stroke="none" stroke-width="1px">0</text><text x="28.47567395502327" y="0" dx="0em" dy="0.95em" style="text-anchor: middle; visibility: inherit; font-family: Roboto, sans-serif; font-size: 12px; font-weight: 200;" fill="rgb(33, 33, 33)" stroke="none" stroke-width="1px">500</text><text x="52.851089727314736" y="0" dx="0em" dy="0.95em" style="text-anchor: middle; visibility: inherit; font-family: Roboto, sans-serif; font-size: 12px; font-weight: 200;" fill="rgb(33, 33, 33)" stroke="none" stroke-width="1px">1k</text><text x="77.22650549960619" y="0" dx="0em" dy="0.95em" style="text-anchor: middle; visibility: inherit; font-family: Roboto, sans-serif; font-size: 12px; font-weight: 200;" fill="rgb(33, 33, 33)" stroke="none" stroke-width="1px">1.5k</text><text x="101.60192127189765" y="0" dx="0em" dy="0.95em" style="text-anchor: middle; visibility: inherit; font-family: Roboto, sans-serif; font-size: 12px; font-weight: 200;" fill="rgb(33, 33, 33)" stroke="none" stroke-width="1px">2k</text><text x="125.9773370441891" y="0" dx="0em" dy="0.95em" style="text-anchor: middle; visibility: inherit; font-family: Roboto, sans-serif; font-size: 12px; font-weight: 200;" fill="rgb(33, 33, 33)" stroke="none" stroke-width="1px">2.5k</text><text x="150.35275281648055" y="0" dx="0em" dy="0.95em" style="text-anchor: middle; visibility: inherit; font-family: Roboto, sans-serif; font-size: 12px; font-weight: 200;" fill="rgb(33, 33, 33)" stroke="none" stroke-width="1px">3k</text><text x="174.72816858877204" y="0" dx="0em" dy="0.95em" style="text-anchor: middle; visibility: inherit; font-family: Roboto, sans-serif; font-size: 12px; font-weight: 200;" fill="rgb(33, 33, 33)" stroke="none" stroke-width="1px">3.5k</text><text x="199.10358436106347" y="0" dx="0em" dy="0.95em" style="text-anchor: middle; visibility: inherit; font-family: Roboto, sans-serif; font-size: 12px; font-weight: 200;" fill="rgb(33, 33, 33)" stroke="none" stroke-width="1px">4k</text><text x="223.47900013335493" y="0" dx="0em" dy="0.95em" style="text-anchor: middle; visibility: inherit; font-family: Roboto, sans-serif; font-size: 12px; font-weight: 200;" fill="rgb(33, 33, 33)" stroke="none" stroke-width="1px">4.5k</text><text x="247.8544159056464" y="0" dx="0em" dy="0.95em" style="text-anchor: middle; visibility: inherit; font-family: Roboto, sans-serif; font-size: 12px; font-weight: 200;" fill="rgb(33, 33, 33)" stroke="none" stroke-width="1px">5k</text><text x="272.22983167793785" y="0" dx="0em" dy="0.95em" style="text-anchor: middle; visibility: hidden; font-family: Roboto, sans-serif; font-size: 12px; font-weight: 200;" fill="rgb(33, 33, 33)" stroke="none" stroke-width="1px">5.5k</text></g><line x1="0" y1="0" x2="280" y2="0" fill="rgb(0, 0, 0)" stroke="rgb(204, 204, 204)" stroke-width="1px"></line></g></g></g></g></svg>