<svg viewBox="0 0 330 200" xmlns="http://www.w3.org/2000/svg"><g><g><g><g><g><line x1="40" y1="177" x2="35" y2="177" style="visibility: inherit;" fill="rgb(0, 0, 0)" stroke="rgb(204, 204, 204)" stroke-width="1px"></line><line x1="40" y1="154.875" x2="35" y2="154.875" style="visibility: inherit;" fill="rgb(0, 0, 0)" stroke="rgb(204, 204, 204)" stroke-width="1px"></line><line x1="40" y1="132.75" x2="35" y2="132.75" style="visibility: inherit;" fill="rgb(0, 0, 0)" stroke="rgb(204, 204, 204)" stroke-width="1px"></line><line x1="40" y1="110.625" x2="35" y2="110.625" style="visibility: inherit;" fill="rgb(0, 0, 0)" stroke="rgb(204, 204, 204)" stroke-width="1px"></line><line x1="40" y1="88.5" x2="35" y2="88.5" style="visibility: inherit;" fill="rgb(0, 0, 0)" stroke="rgb(204, 204, 204)" stroke-width="1px"></line><line x1="40" y1="66.375" x2="35" y2="66.375" style="visibility: inherit;" fill="rgb(0, 0, 0)" stroke="rgb(204, 204, 204)" stroke-width="1px"></line><line x1="40" y1="44.25" x2="35" y2="44.25" style="visibility: inherit;" fill="rgb(0, 0, 0)" stroke="rgb(204, 204, 204)" stroke-width="1px"></line><line x1="40" y1="22.125" x2="35" y2="22.125" style="visibility: inherit;" fill="rgb(0, 0, 0)" stroke="rgb(204, 204, 204)" stroke-width="1px"></line><line x1="40" y1="0" x2="35" y2="0" style="visibility: inherit;" fill="rgb(0, 0, 0)" stroke="rgb(204, 204, 204)" stroke-width="1px"></line></g><g transform="translate(30, 0)"><text x="0" y="177" dx="0em" dy="0.3em" style="text-anchor: end; visibility: hidden; font-family: Roboto, sans-serif; font-size: 12px; font-weight: 200;" fill="rgb(33, 33, 33)" stroke="none" stroke-width="1px">0</text><text x="0" y="154.875" dx="0em" dy="0.3em" style="text-anchor: end; visibility: inherit; font-family: Roboto, sans-serif; font-size: 12px; font-weight: 200;" fill="rgb(33, 33, 33)" stroke="none" stroke-width="1px">0.5</text><text x="0" y="132.75" dx="0em" dy="0.3em" style="text-anchor: end; visibility: hidden; font-family: Roboto, sans-serif; font-size: 12px; font-weight: 200;" fill="rgb(33, 33, 33)" stroke="none" stroke-width="1px">1</text><text x="0" y="110.625" dx="0em" dy="0.3em" style="text-anchor: end; visibility: inherit; font-family: Roboto, sans-serif; font-size: 12px; font-weight: 200;" fill="rgb(33, 33, 33)" stroke="none" stroke-width="1px">1.5</text><text x="0" y="88.5" dx="0em" dy="0.3em" style="text-anchor: end; visibility: hidden; font-family: Roboto, sans-serif; font-size: 12px; font-weight: 200;" fill="rgb(33, 33, 33)" stroke="none" stroke-width="1px">2</text><text x="0" y="66.375" dx="0em" dy="0.3em" style="text-anchor: end; visibility: inherit; font-family: Roboto, sans-serif; font-size: 12px; font-weight: 200;" fill="rgb(33, 33, 33)" stroke="none" stroke-width="1px">2.5</text><text x="0" y="44.25" dx="0em" dy="0.3em" style="text-anchor: end; visibility: hidden; font-family: Roboto, sans-serif; font-size: 12px; font-weight: 200;" fill="rgb(33, 33, 33)" stroke="none" stroke-width="1px">3</text><text x="0" y="22.125" dx="0em" dy="0.3em" style="text-anchor: end; visibility: inherit; font-family: Roboto, sans-serif; font-size: 12px; font-weight: 200;" fill="rgb(33, 33, 33)" stroke="none" stroke-width="1px">3.5</text><text x="0" y="0" dx="0em" dy="0.3em" style="text-anchor: end; visibility: hidden; font-family: Roboto, sans-serif; font-size: 12px; font-weight: 200;" fill="rgb(33, 33, 33)" stroke="none" stroke-width="1px">4</text></g><line x1="40" y1="0" x2="40" y2="177" fill="rgb(0, 0, 0)" stroke="rgb(204, 204, 204)" stroke-width="1px"></line></g></g><g transform="translate(40, 0)" clip-path="url(#clip_0)"><clipPath id="clip_0"><rect width="290" height="177"></rect></clipPath><g><g><g><line x1="0" y1="0" x2="0" y2="177" fill="rgb(0, 0, 0)" stroke="rgb(66, 66, 66)" stroke-width="1px" opacity="0.25"></line><line x1="24.166666666666664" y1="0" x2="24.166666666666664" y2="177" fill="rgb(0, 0, 0)" stroke="rgb(66, 66, 66)" stroke-width="1px" opacity="0.25"></line><line x1="48.33333333333333" y1="0" x2="48.33333333333333" y2="177" fill="rgb(0, 0, 0)" stroke="rgb(66, 66, 66)" stroke-width="1px" opacity="0.25"></line><line x1="72.5" y1="0" x2="72.5" y2="177" fill="rgb(0, 0, 0)" stroke="rgb(66, 66, 66)" stroke-width="1px" opacity="0.25"></line><line x1="96.66666666666666" y1="0" x2="96.66666666666666" y2="177" fill="rgb(0, 0, 0)" stroke="rgb(66, 66, 66)" stroke-width="1px" opacity="0.25"></line><line x1="120.83333333333334" y1="0" x2="120.83333333333334" y2="177" fill="rgb(0, 0, 0)" stroke="rgb(66, 66, 66)" stroke-width="1px" opacity="0.25"></line><line x1="145" y1="0" x2="145" y2="177" fill="rgb(0, 0, 0)" stroke="rgb(66, 66, 66)" stroke-width="1px" opacity="0.25"></line><line x1="169.16666666666669" y1="0" x2="169.16666666666669" y2="177" fill="rgb(0, 0, 0)" stroke="rgb(66, 66, 66)" stroke-width="1px" opacity="0.25"></line><line x1="193.33333333333331" y1="0" x2="193.33333333333331" y2="177" fill="rgb(0, 0, 0)" stroke="rgb(66, 66, 66)" stroke-width="1px" opacity="0.25"></line><line x1="217.5" y1="0" x2="217.5" y2="177" fill="rgb(0, 0, 0)" stroke="rgb(66, 66, 66)" stroke-width="1px" opacity="0.25"></line><line x1="241.66666666666669" y1="0" x2="241.66666666666669" y2="177" fill="rgb(0, 0, 0)" stroke="rgb(66, 66, 66)" stroke-width="1px" opacity="0.25"></line><line x1="265.8333333333333" y1="0" x2="265.8333333333333" y2="177" fill="rgb(0, 0, 0)" stroke="rgb(66, 66, 66)" stroke-width="1px" opacity="0.25"></line><line x1="290" y1="0" x2="290" y2="177" fill="rgb(0, 0, 0)" stroke="rgb(66, 66, 66)" stroke-width="1px" opacity="0.25"></line></g><g><line x1="0" y1="177" x2="290" y2="177" fill="rgb(0, 0, 0)" stroke="rgb(66, 66, 66)" stroke-width="1px" opacity="0.25"></line><line x1="0" y1="154.875" x2="290" y2="154.875" fill="rgb(0, 0, 0)" stroke="rgb(66, 66, 66)" stroke-width="1px" opacity="0.25"></line><line x1="0" y1="132.75" x2="290" y2="132.75" fill="rgb(0, 0, 0)" stroke="rgb(66, 66, 66)" stroke-width="1px" opacity="0.25"></line><line x1="0" y1="110.625" x2="290" y2="110.625" fill="rgb(0, 0, 0)" stroke="rgb(66, 66, 66)" stroke-width="1px" opacity="0.25"></line><line x1="0" y1="88.5" x2="290" y2="88.5" fill="rgb(0, 0, 0)" stroke="rgb(66, 66, 66)" stroke-width="1px" opacity="0.25"></line><line x1="0" y1="66.375" x2="290" y2="66.375" fill="rgb(0, 0, 0)" stroke="rgb(66, 66, 66)" stroke-width="1px" opacity="0.25"></line><line x1="0" y1="44.25" x2="290" y2="44.25" fill="rgb(0, 0, 0)" stroke="rgb(66, 66, 66)" stroke-width="1px" opacity="0.25"></line><line x1="0" y1="22.125" x2="290" y2="22.125" fill="rgb(0, 0, 0)" stroke="rgb(66, 66, 66)" stroke-width="1px" opacity="0.25"></line><line x1="0" y1="0" x2="290" y2="0" fill="rgb(0, 0, 0)" stroke="rgb(66, 66, 66)" stroke-width="1px" opacity="0.25"></line></g></g></g><g><g><line x1="0" y1="177" x2="290" y2="177" fill="rgb(0, 0, 0)" stroke="rgb(153, 153, 153)" stroke-width="1.5px"></line></g></g><g><g><line x1="24.166666666666664" y1="0" x2="24.166666666666664" y2="177" fill="rgb(0, 0, 0)" stroke="rgb(153, 153, 153)" stroke-width="1.5px"></line></g></g><g><g><g><g><g><path stroke="rgb(255, 112, 67)" stroke-width="2px" d="M26.583333333333332,14.562670290470143L26.583333333333332,23.068428154175038L26.583333333333332,31.056382373223492L26.583333333333332,42.076206975002236L26.583333333333332,49.205542221075845L26.583333333333332,54.38375660687417L26.583333333333332,58.235746823575944L29,68.48832818722545L29,76.68375697268975L29,83.29878570275181L29,88.80500547164806L29,93.42450868080478L29,97.30165884790553L29,100.58972504549611L29,103.45948015451738L29,105.92947572070698L31.416666666666668,108.42815394082729L31.416666666666668,110.53832349049458L31.416666666666668,112.41670765173774L31.416666666666668,114.07999314642319L31.416666666666668,115.56081587555674L31.416666666666668,116.91711820934151L31.416666666666668,118.160159259027L31.416666666666668,119.27299808463128L33.833333333333336,120.29835427002317L33.833333333333336,121.20979437064202L33.833333333333336,122.06629387647494L33.833333333333336,122.87640081538396L33.833333333333336,123.6067570850612L33.833333333333336,124.27453164331071L33.833333333333336,124.85842988017637L33.833333333333336,125.41138593735218L36.25,126.15917063300977L36.25,126.83520795062728L36.25,127.43518335140159L36.25,127.94407957212071L36.25,128.42469841796182L36.25,128.87030998139923L36.25,129.28646082521072L36.25,129.6736272901058L36.25,130.03936231451723L38.666666666666664,130.44490580643725L38.666666666666664,130.8618925445251L38.666666666666664,131.1999706215621L38.666666666666664,131.5243890243791L38.666666666666664,131.83592992984504L38.666666666666664,132.1385124843754L38.666666666666664,132.41741181603336L38.666666666666664,132.67904892469417L38.666666666666664,132.92776270300484L41.083333333333336,133.0949058417173L41.083333333333336,133.2891457367272L41.083333333333336,133.4810538220914L41.083333333333336,133.6776047255762L41.083333333333336,133.85785193218706L41.083333333333336,134.0367485839541L41.083333333333336,134.2113393918612L41.083333333333336,134.37793886603646L43.5,134.64260129214568L43.5,134.8499266842762L43.5,135.05905402195387L43.5,135.2196043727647L43.5,135.37522722249366L43.5,135.54223857278953L43.5,135.69879745395684L45.916666666666664,135.78781300773417L45.916666666666664,135.8732857092514L45.916666666666664,135.96858635008817L45.916666666666664,136.09048015389666L45.916666666666664,136.21104377379328L45.916666666666664,136.34292259482055L48.33333333333333,136.53361714608997L48.33333333333333,136.72055730453042L48.33333333333333,136.89112323833535L48.33333333333333,137.05659970085145L48.33333333333333,137.2184417235778L48.33333333333333,137.37396346951704L48.33333333333333,137.51870705884534L48.33333333333333,137.6665783444997L48.33333333333333,137.79939985944125L50.75,138.01745407192365L50.75,138.1913857896807L50.75,138.33365248139089L50.75,138.43931756246545L50.75,138.5469323553673L50.75,138.64891867178525L50.75,138.75533070949598L53.166666666666664,138.8147150678788L53.166666666666664,138.89729173875975L53.166666666666664,139.00928559948247L53.166666666666664,139.1238123235665L53.166666666666664,139.210517450986L53.166666666666664,139.26257555590155L53.166666666666664,139.31194270462817L53.166666666666664,139.35650605473592L53.166666666666664,139.39969924415408L53.166666666666664,139.4449126594868L55.583333333333336,139.51712120864454L55.583333333333336,139.5804186404274L55.583333333333336,139.621015499787L55.583333333333336,139.63726439613123L55.583333333333336,139.64526242840518L55.583333333333336,139.6537236333317L55.583333333333336,139.66338047273987L55.583333333333336,139.6715498007257L55.583333333333336,139.67746260714077L55.583333333333336,139.6862319617566L55.583333333333336,139.69673614313513L55.583333333333336,139.71512777329457L55.583333333333336,139.7381441612349L58,139.82167267281264L58,139.88830108440115L58,139.94889186757777L58,140.03317300221903L58,140.11765340250912L58,140.2071595739348L58,140.28429378881015L58,140.3592159301083L58,140.43128394808681L60.41666666666667,140.41641020783706L60.41666666666667,140.46395932688253L60.41666666666667,140.5082793060266L60.41666666666667,140.55389917993085L60.41666666666667,140.6245352477794L60.41666666666667,140.70151151861842L60.41666666666667,140.77686474936493L60.41666666666667,140.84772974967174L60.41666666666667,140.92133369804995L60.41666666666667,140.99951100759188L60.41666666666667,141.07443381545906L60.41666666666667,141.13631954728257L60.41666666666667,141.196189091314L60.41666666666667,141.25511835047217L62.833333333333336,141.31213579413333L62.833333333333336,141.36997294727797L62.833333333333336,141.40710766799523L62.833333333333336,141.4639067978618L62.833333333333336,141.51236948823816L62.833333333333336,141.5611506577024L62.833333333333336,141.60613831732852L62.833333333333336,141.64922759544302L62.833333333333336,141.6937460719069L65.25,141.60986289854446L65.25,141.656148592822L65.25,141.72329566552673L65.25,141.76098160499015L65.25,141.77920461475003L65.25,141.8035547605689L65.25,141.83197667191533L65.25,141.85975088279514L65.25,141.8884371050202L65.25,141.93540928917471L65.25,141.98709157112148L65.25,142.03494834197556L65.25,142.0812958693916L65.25,142.12913122665478L65.25,142.17587910251322L65.25,142.2273702624908L67.66666666666667,142.38384363616385L67.66666666666667,142.53487919167944L67.66666666666667,142.63170732559178L67.66666666666667,142.72236382253757L67.66666666666667,142.78571330892757L67.66666666666667,142.8386794871058L67.66666666666667,142.8916296545369L67.66666666666667,142.9466005447768L67.66666666666667,143.0002601895454L67.66666666666667,143.05205468524238L67.66666666666667,143.09630168531297L67.66666666666667,143.13636611037913L67.66666666666667,143.1670800834695L67.66666666666667,143.1927394697905L67.66666666666667,143.2181776583325L70.08333333333333,143.25431484198356L70.08333333333333,143.25131505724212L70.08333333333333,143.2844891131987L70.08333333333333,143.31998703373702L70.08333333333333,143.34468169081296L70.08333333333333,143.3987433924406L70.08333333333333,143.45180532971014L70.08333333333333,143.50230216073297L72.5,143.59284586580426L72.5,143.62389850473818L72.5,143.66879856044577L72.5,143.7354385765914L72.5,143.77918614024426L72.5,143.82377737933282L72.5,143.8725332790425L72.5,143.924670298696L72.5,143.9760366248244L72.5,144.02620618435208L72.5,144.0711454718337L72.5,144.11569617498787L72.5,144.15888202602633L74.91666666666667,144.26763613197807L74.91666666666667,144.41135404571202L74.91666666666667,144.4919732006718L74.91666666666667,144.52718584337325L74.91666666666667,144.55298207831058L74.91666666666667,144.56945679094784L74.91666666666667,144.60592808237834L74.91666666666667,144.6389384074662L74.91666666666667,144.68222382227026L74.91666666666667,144.72799120189623L74.91666666666667,144.77293037968062L74.91666666666667,144.81113095582896L74.91666666666667,144.8458284467381L77.33333333333333,144.87401184100398L77.33333333333333,144.8882629806091L77.33333333333333,144.9105631141683L77.33333333333333,144.94099666108247L77.33333333333333,144.97378040294691L77.33333333333333,145.00406202171243L77.33333333333333,145.0237360231451L77.33333333333333,145.03735956130774L77.33333333333333,145.06395318085129L77.33333333333333,145.09435026791343L77.33333333333333,145.1196431691376L77.33333333333333,145.14267571945607L77.33333333333333,145.1672337143086L77.33333333333333,145.19509955173874L77.33333333333333,145.2225012686L79.75,145.24585577236286L79.75,145.3287540413583L79.75,145.38146591385828L79.75,145.42455057851697L79.75,145.46178618909363L79.75,145.50162927766388L79.75,145.54412644596138L79.75,145.58087014749407L79.75,145.622347765244L79.75,145.6604903413684L82.16666666666667,145.6405942723861L82.16666666666667,145.657734885194L82.16666666666667,145.69145312955735L82.16666666666667,145.72058707170547L82.16666666666667,145.7422682963332L82.16666666666667,145.77063135867164L82.16666666666667,145.80162523990583L82.16666666666667,145.8295426857948L82.16666666666667,145.85250214878852L82.16666666666667,145.87291970171248L82.16666666666667,145.90439671838837L82.16666666666667,145.9377071463995L84.58333333333334,145.99302584576012L84.58333333333334,146.0296043543304L84.58333333333334,146.0989352925963L84.58333333333334,146.16564050196024L84.58333333333334,146.20420818211431L84.58333333333334,146.23978547311822L87,146.3409546578762L87,146.4352511455262L87,146.5189475748377L87,146.60069379528355L87,146.66722370938243L87,146.6943633746057L87,146.7177786218975L87,146.73865133344336L87,146.75803796346545L89.41666666666667,146.75397615845506L89.41666666666667,146.74042670664474L89.41666666666667,146.76125115360367L89.41666666666667,146.80900041262544L89.41666666666667,146.8556454822545L89.41666666666667,146.91341024681515L89.41666666666667,146.96213609590984L89.41666666666667,147.00692108018322L89.41666666666667,147.05083857841512L91.83333333333333,147.10802562219692L91.83333333333333,147.1438567276903L91.83333333333333,147.19785311034016L91.83333333333333,147.24864076188547L91.83333333333333,147.28622479157727L91.83333333333333,147.32080115911648L91.83333333333333,147.35935706311597L91.83333333333333,147.39368407576674L91.83333333333333,147.43379514682516L91.83333333333333,147.47119262287603L91.83333333333333,147.49550290492516L94.25,147.54255902742506L94.25,147.56538066009514L94.25,147.60035833286665L94.25,147.63652978659965L94.25,147.69009714397603L94.25,147.72813158267957L94.25,147.76627763849083L94.25,147.80337925021223L94.25,147.84145780253704L94.25,147.87931396808474L94.25,147.922556446172L94.25,147.97011939399826L94.25,148.01452982104L94.25,148.0585117790409L96.66666666666666,148.09142259425647L96.66666666666666,148.11835141192296L96.66666666666666,148.16289482009768L96.66666666666666,148.219525989618L96.66666666666666,148.27898964375674L99.08333333333333,148.32313434339216L99.08333333333333,148.37726262395176L99.08333333333333,148.408904776507L99.08333333333333,148.44250474953813L99.08333333333333,148.46847319101371L99.08333333333333,148.52889710911583L99.08333333333333,148.58581307859308L99.08333333333333,148.6434233091695L99.08333333333333,148.7042816679762L99.08333333333333,148.75645521912384L101.5,148.72329472020402L101.5,148.72449296742047L101.5,148.769571622099L101.5,148.8248526241696L101.5,148.8686081768497L101.5,148.92050824853064L101.5,148.9737294847048L101.5,149.02473210016464L103.91666666666667,149.02247418427342L103.91666666666667,149.04473294988657L103.91666666666667,149.06875510892257L103.91666666666667,149.09967382990806L103.91666666666667,149.14119325157708L103.91666666666667,149.18537142024897L103.91666666666667,149.22855762532785L103.91666666666667,149.26971718642045L103.91666666666667,149.30937198603232L103.91666666666667,149.3501193770587L106.33333333333333,149.3584739499537L106.33333333333333,149.36315835405514L106.33333333333333,149.3890919446158L106.33333333333333,149.4167378538493L106.33333333333333,149.44813444910798L106.33333333333333,149.48130214286505L106.33333333333333,149.51699308510857L106.33333333333333,149.550899480107L106.33333333333333,149.5901240783109L108.75,149.62263057321604L108.75,149.66981785797617L108.75,149.7429437079121L108.75,149.81075387848895L108.75,149.87656746206181L108.75,149.9388469245182L108.75,150.0081678652401L108.75,150.07581481193748L108.75,150.13959265949273L111.16666666666667,150.24735221505867L111.16666666666667,150.32939086646414L111.16666666666667,150.41055787010214L111.16666666666667,150.4659396755864L111.16666666666667,150.51472484260958L111.16666666666667,150.56193361114995L111.16666666666667,150.61428234765827L111.16666666666667,150.66295165564628L111.16666666666667,150.70569174828742L111.16666666666667,150.74421503122568L111.16666666666667,150.7875160297352L111.16666666666667,150.8250014068184L113.58333333333333,150.88154270413216L113.58333333333333,150.9168931721872L113.58333333333333,150.9585296081486L113.58333333333333,151.0012481739367L113.58333333333333,151.01833406565535L113.58333333333333,151.0410704108457L113.58333333333333,151.06395308520885L113.58333333333333,151.08648815251226L113.58333333333333,151.11033022468038L113.58333333333333,151.12525863197519L113.58333333333333,151.1421840202917L113.58333333333333,151.1611394708568L113.58333333333333,151.1813817754568L113.58333333333333,151.2033111879911L116,151.27295182938516L116,151.3293975607528L116,151.38638408884313L116,151.45917267470384L116,151.53082192274263L116,151.59167592194171L116,151.64765085792234L116,151.6971764756624L116,151.74586304406157L116,151.7926020356711L116,151.84087593581714L116,151.8803420362612L116,151.91889682327647L116,151.95620975424526L116,151.9893117687308L116,152.02246224731047L118.41666666666667,152.03877754446145L118.41666666666667,152.05173267515926L118.41666666666667,152.06125233784195L118.41666666666667,152.07062781558503L118.41666666666667,152.08526489584284L118.41666666666667,152.10122777202906L120.83333333333334,152.1017899550033L120.83333333333334,152.13270176258692L120.83333333333334,152.1570234866991L120.83333333333334,152.17411112822208L120.83333333333334,152.18930441923388L120.83333333333334,152.20008747428213L120.83333333333334,152.21203494140138L123.25,152.28487043230942L123.25,152.20934448374186L123.25,152.1991687180608L123.25,152.17350540147592L123.25,152.16430304006857L123.25,152.1637027763154L123.25,152.1615394724076L123.25,152.15875427216366L123.25,152.16006867836595L123.25,152.1649679356667L123.25,152.16818413021008L123.25,152.17132800333667L123.25,152.17772194432965L125.66666666666667,152.24300278060144L125.66666666666667,152.2750401046655L125.66666666666667,152.31120593892032L125.66666666666667,152.35321870939393L125.66666666666667,152.40060909265364L128.08333333333334,152.5085756087868L128.08333333333334,152.58269104879957L128.08333333333334,152.64290108728844L128.08333333333334,152.6999899804932L128.08333333333334,152.7517021824948L128.08333333333334,152.80408121434147L128.08333333333334,152.86479314069075L128.08333333333334,152.91793388433197L128.08333333333334,152.9640810041934L128.08333333333334,152.9994248352402L128.08333333333334,153.03081115826453L130.5,153.0627299932952L130.5,153.09152629837152L130.5,153.1090592669642L130.5,153.13029548360777L130.5,153.14418629623947L130.5,153.16171915483474L130.5,153.1786186803852L130.5,153.19732827460143L130.5,153.2117393058029L130.5,153.2249873438911L130.5,153.23828101843463L132.91666666666666,153.3125723829523L132.91666666666666,153.35750629546152L132.91666666666666,153.39488342245764L132.91666666666666,153.4268074549612L132.91666666666666,153.44158152009314L132.91666666666666,153.44377988901766L132.91666666666666,153.44135490815492L132.91666666666666,153.44066625284762L132.91666666666666,153.4442379735437L132.91666666666666,153.4527419345487L135.33333333333334,153.51139842670355L135.33333333333334,153.5671000710789L135.33333333333334,153.5770719769189L135.33333333333334,153.59389074037207L135.33333333333334,153.6138289120833L135.33333333333334,153.63520393343805L135.33333333333334,153.6545367004332L135.33333333333334,153.68325741204455L135.33333333333334,153.71060842133926L135.33333333333334,153.7381406234171L135.33333333333334,153.76799109688994L135.33333333333334,153.80152633817195L135.33333333333334,153.83103954747114L135.33333333333334,153.85569198983086L135.33333333333334,153.87822679509142L135.33333333333334,153.8999666582847L137.75,153.88920208992906L137.75,153.90831351526882L137.75,153.92877032916712L137.75,153.96654591146165L137.75,153.9955076801181L137.75,154.01713603049885L137.75,154.04693124463105L137.75,154.06547951009375L137.75,154.07980374411957L137.75,154.09507115304913L137.75,154.10893361831165L137.75,154.12336408358087L137.75,154.14508220675842L137.75,154.1679933604314L140.16666666666666,154.18719239978816L140.16666666666666,154.21724632508L140.16666666666666,154.2497135904449L140.16666666666666,154.29261564032979L140.16666666666666,154.3334168318756L140.16666666666666,154.38239974840613L140.16666666666666,154.41977379208785L140.16666666666666,154.45609774936472L140.16666666666666,154.49003026882127L140.16666666666666,154.52403612632946L140.16666666666666,154.55968255328108L140.16666666666666,154.59339177137275L140.16666666666666,154.62627845443203L142.58333333333331,154.647719437158L142.58333333333331,154.67457096371788L142.58333333333331,154.71096542677864L142.58333333333331,154.74202226180864L142.58333333333331,154.76931378357216L142.58333333333331,154.7961699883838L142.58333333333331,154.8216612279084L142.58333333333331,154.84705054041598L142.58333333333331,154.87300675052433L142.58333333333331,154.89832894433184L142.58333333333331,154.9186015927019L142.58333333333331,154.93759514372175L142.58333333333331,154.95568326134585L142.58333333333331,154.97286697308874L145,154.98804101933172L145,154.9935621011722L145,155.02314464527328L145,155.05511992028926L145,155.0919126912605L145,155.13352545921208L145,155.17376556118833L145,155.20874128405745L145,155.24176908911545L147.41666666666666,155.25332148484608L147.41666666666666,155.29498363764705L147.41666666666666,155.3291863255953L147.41666666666666,155.35811673011312L147.41666666666666,155.36763511360326L147.41666666666666,155.38134596270928L147.41666666666666,155.3971811358778L147.41666666666666,155.41291043370128L147.41666666666666,155.42999940488446L147.41666666666666,155.457849567806L147.41666666666666,155.48421873427088L147.41666666666666,155.51002165899007L147.41666666666666,155.53426897254153L147.41666666666666,155.54183851110676L149.83333333333334,155.57684068388102L149.83333333333334,155.60564564994021L149.83333333333334,155.63216959687068L149.83333333333334,155.6556858707408L149.83333333333334,155.67809273011915L149.83333333333334,155.69544098920684L152.25,155.730197045229L152.25,155.7823976783664L152.25,155.83185554738102L152.25,155.86720279353855L152.25,155.89978701905014L152.25,155.9307641883326L152.25,155.95844462423534L152.25,155.97668754707834L154.66666666666666,155.97842018200467L154.66666666666666,155.97338439460924L154.66666666666666,155.9732909364205L154.66666666666666,155.97501635932093L154.66666666666666,155.98495244410145L154.66666666666666,156.01173767539544L154.66666666666666,156.0405024183348L154.66666666666666,156.0685811407047L157.08333333333331,156.13138606022736L157.08333333333331,156.19074102468684L157.08333333333331,156.23358774908908L157.08333333333331,156.2790490103722L157.08333333333331,156.3181883079124L157.08333333333331,156.35417591650753L157.08333333333331,156.387235753869L157.08333333333331,156.41824433602716L157.08333333333331,156.44863174821373L157.08333333333331,156.47650413145288L157.08333333333331,156.5051069446721L157.08333333333331,156.5319034430039L157.08333333333331,156.55809024388788L157.08333333333331,156.5842952271992L159.5,156.62775285714955L159.5,156.62109270036606L159.5,156.6064465952254L159.5,156.61518877004283L159.5,156.6318349473622L159.5,156.6432459618945L159.5,156.65479439812245L159.5,156.67222591640032L159.5,156.69066646614573L159.5,156.71072938998995L159.5,156.73071842677825L159.5,156.74561486689313L159.5,156.76306310316582L161.91666666666666,156.6757399359805L161.91666666666666,156.68042004875736L161.91666666666666,156.70108378178153L161.91666666666666,156.70615608887337L161.91666666666666,156.71033314145245L161.91666666666666,156.7148323372037L161.91666666666666,156.72224836975624L161.91666666666666,156.7351787986485L161.91666666666666,156.74839196523243L161.91666666666666,156.76603321072164L161.91666666666666,156.77830105170474L161.91666666666666,156.79342909542348L161.91666666666666,156.80291113138938L164.33333333333334,156.81245006135808L164.33333333333334,156.80204204493384L164.33333333333334,156.8211824195826L164.33333333333334,156.85011855586188L164.33333333333334,156.87225361722338L164.33333333333334,156.89372443300732L164.33333333333334,156.9101171174162L164.33333333333334,156.92938498316585L164.33333333333334,156.95096398468274L164.33333333333334,156.97159676858968L164.33333333333334,156.98987045676733L166.75,157.02760756452048L166.75,157.06717478749363L166.75,157.0978607039039L166.75,157.10539618634834L166.75,157.11870562350722L166.75,157.13907121593925L166.75,157.16315331274185L166.75,157.18824377621928L169.16666666666669,157.2263945799811L169.16666666666669,157.24940712674518L169.16666666666669,157.27708791087426L169.16666666666669,157.31964652583838L169.16666666666669,157.36631642720153L169.16666666666669,157.4138609633495L169.16666666666669,157.46040003931694L169.16666666666669,157.50463431653245L169.16666666666669,157.54590459737202L169.16666666666669,157.58497863170373L169.16666666666669,157.62256356091822L171.58333333333334,157.64904311744817L171.58333333333334,157.67800422100748L171.58333333333334,157.70396852614084L171.58333333333334,157.7303603358867L171.58333333333334,157.75642821348328L174,157.82342931515265L174,157.86329599623355L174,157.88577033315352L174,157.90187732848068L174,157.91859498482359L174,157.93275097254255L174,157.94761517165773L174,157.95633764855802L174,157.96862865813677L176.41666666666666,157.95017082528966L176.41666666666666,157.94703930179142L176.41666666666666,157.95866683790456L176.41666666666666,157.9668367314925L176.41666666666666,157.96977492403593L176.41666666666666,157.98179233317597L176.41666666666666,157.9983860974041L176.41666666666666,158.0149467000913L176.41666666666666,158.03096689262225L176.41666666666666,158.04899594204448L176.41666666666666,158.06902189382396L176.41666666666666,158.0869845564123L178.83333333333334,158.13938269247194L178.83333333333334,158.1761293365866L178.83333333333334,158.22035326302992L178.83333333333334,158.25254247192441L178.83333333333334,158.26566562626465L178.83333333333334,158.28173895013848L178.83333333333334,158.29630063539636L178.83333333333334,158.30858549314337L178.83333333333334,158.3231987069867L178.83333333333334,158.33969199498802L178.83333333333334,158.3615999016741L181.25,158.40913937751455L181.25,158.45346117467486L181.25,158.48709297233088L181.25,158.51877771517238L181.25,158.54761709760197L181.25,158.5800590039893L181.25,158.5977808307135L183.66666666666666,158.65658765318472L183.66666666666666,158.7060600298728L183.66666666666666,158.742438805767L183.66666666666666,158.78241924423446L183.66666666666666,158.8187191850647L183.66666666666666,158.83933170694803L183.66666666666666,158.8552851204401L183.66666666666666,158.86707784589228L183.66666666666666,158.87817035765244L183.66666666666666,158.88826573633406L183.66666666666666,158.89139584222028L183.66666666666666,158.89483403941156L183.66666666666666,158.89615332016004L183.66666666666666,158.89875624845146L186.08333333333334,158.97862227826053L186.08333333333334,159.01942693084774L186.08333333333334,159.04686333048625L186.08333333333334,159.07120219027368L186.08333333333334,159.1172234575957L186.08333333333334,159.13866379513934L186.08333333333334,159.156996620912L186.08333333333334,159.17476675863833L186.08333333333334,159.190298777898L186.08333333333334,159.20284172467973L188.5,159.22006748213326L188.5,159.23933037248014L188.5,159.24729775632838L188.5,159.24460074226707L188.5,159.24615381285167L188.5,159.25364722627785L188.5,159.2618279606349L188.5,159.27535218971315L190.91666666666666,159.29764755433774L190.91666666666666,159.31238980191625L190.91666666666666,159.32752332791978L190.91666666666666,159.34320554504822L190.91666666666666,159.35542651726828L190.91666666666666,159.3719482014907L190.91666666666666,159.38618354656455L190.91666666666666,159.39897699691605L190.91666666666666,159.41002453899247L190.91666666666666,159.42264368716945L190.91666666666666,159.4318662555751L193.33333333333331,159.4736160981804L193.33333333333331,159.48942768394872L193.33333333333331,159.5073028011017L193.33333333333331,159.52339914741597L193.33333333333331,159.53470817493755L193.33333333333331,159.5513148599415L193.33333333333331,159.56381674757813L195.75,159.58326028045173L195.75,159.5972623835588L195.75,159.60109487946386L195.75,159.61579824002362L195.75,159.6304523158688L195.75,159.64397542458653L195.75,159.65814990033988L195.75,159.66997842074704L195.75,159.68369351751812L195.75,159.69497498453504L195.75,159.70367897241616L198.16666666666666,159.71064239347814L198.16666666666666,159.71973564587134L198.16666666666666,159.7549463785588L198.16666666666666,159.79096306530678L198.16666666666666,159.81869625880955L198.16666666666666,159.84986606494L198.16666666666666,159.87660111504434L198.16666666666666,159.89830453114467L198.16666666666666,159.91989627973157L198.16666666666666,159.93947924769049L200.58333333333334,159.97310590313194L200.58333333333334,159.9757134605249L200.58333333333334,159.98575737966698L200.58333333333334,159.99910462770782L200.58333333333334,160.01302354750757L200.58333333333334,160.02845899283227L200.58333333333334,160.04199427508684L200.58333333333334,160.05368015826943L200.58333333333334,160.05759118190053L200.58333333333334,160.06416076502313L203,160.07104350814774L203,160.07284733012395L203,160.09135382684394L203,160.10519587307382L203,160.11741655785588L203,160.13077408331444L203,160.14293273669898L203,160.15855444720188L203,160.17505445878464L203,160.19641560202558L203,160.20759320523774L205.41666666666669,160.20020218333215L205.41666666666669,160.2082921026506L205.41666666666669,160.21803511000576L205.41666666666669,160.2286184894647L205.41666666666669,160.24415970052038L205.41666666666669,160.2562245619249L205.41666666666669,160.26405769796213L205.41666666666669,160.27468521794168L207.83333333333334,160.2944720847454L207.83333333333334,160.3310802214984L207.83333333333334,160.36530486650386L207.83333333333334,160.37934387176497L207.83333333333334,160.40670817024312L207.83333333333334,160.42790313654106L207.83333333333334,160.44708700627893L207.83333333333334,160.46613029830925L210.25,160.53433455833405L210.25,160.589725436575L210.25,160.6463735165362L210.25,160.69184808125655L210.25,160.73613306438958L210.25,160.77641167929502L210.25,160.81042833110882L210.25,160.83865107143558L210.25,160.85132478790882L210.25,160.86327633024786L210.25,160.87436476460059L212.66666666666666,160.9072671319585L212.66666666666666,160.91177526141345L212.66666666666666,160.92791700051606L212.66666666666666,160.9403975419905L212.66666666666666,160.95139119645665L212.66666666666666,160.96444590304964L212.66666666666666,160.97580797181965L212.66666666666666,160.98901354033367L212.66666666666666,161.00065172633217L212.66666666666666,161.01345587794634L212.66666666666666,161.0248896945111L215.08333333333334,161.0905111825876L215.08333333333334,161.14889124982972L215.08333333333334,161.1906348452543L215.08333333333334,161.2207111155039L215.08333333333334,161.22833116236265L215.08333333333334,161.23616760188133L215.08333333333334,161.2435900643776L215.08333333333334,161.2487165522123L215.08333333333334,161.24944932666594L215.08333333333334,161.25204822482482L217.5,161.2983025392763L217.5,161.3074857713609L217.5,161.3183781351385L217.5,161.34034145508713L217.5,161.36010037328083L217.5,161.37827395056203L217.5,161.39688852649718L219.91666666666666,161.43185199112395L219.91666666666666,161.45825275947814L219.91666666666666,161.48388664026217L219.91666666666666,161.51096020521422L219.91666666666666,161.53271967955047L219.91666666666666,161.54768295882377L222.33333333333334,161.54472903406443L222.33333333333334,161.5504852034999L222.33333333333334,161.55261270214473L222.33333333333334,161.55465591496613L222.33333333333334,161.56378759847647L222.33333333333334,161.57248485285777L222.33333333333334,161.58718559333485L222.33333333333334,161.5948014362838L222.33333333333334,161.60380651704736L222.33333333333334,161.6099054304973L222.33333333333334,161.61676138987687L222.33333333333334,161.62336303959808L224.75,161.7173602826843L224.75,161.79495353500812L224.75,161.84709523072573L224.75,161.87915109250142L224.75,161.8829656850103L224.75,161.88807189193997L224.75,161.88856417875738L224.75,161.88673082547075L224.75,161.88824151385677L224.75,161.89027406282634L224.75,161.89514758333107L227.16666666666666,161.92672567901326L227.16666666666666,161.93621503346114L227.16666666666666,161.9495442857971L227.16666666666666,161.95714042739058L227.16666666666666,161.96577277268656L227.16666666666666,161.9779560021947L227.16666666666666,161.98975135694153L229.58333333333331,161.87763219656742L229.58333333333331,161.8762791091262L229.58333333333331,161.88864481124835L229.58333333333331,161.903224183891L229.58333333333331,161.91767198290438L229.58333333333331,161.93245938356927L229.58333333333331,161.94551182180047L229.58333333333331,161.95707086729436L229.58333333333331,161.96570669059514L232,162.01561634488235L232,162.00771800326768L232,162.00738312095493L232,162.01801682885076L232,162.02727808052606L232,162.03220441149762L232,162.04223869402446L232,162.04927110499418L232,162.05750070460104L232,162.06538515749165L234.41666666666666,162.06873799874842L234.41666666666666,162.06462198919291L234.41666666666666,162.06549074232504L234.41666666666666,162.06797544440553L234.41666666666666,162.0876597730257L234.41666666666666,162.1050987619451L234.41666666666666,162.11467430175608L234.41666666666666,162.12270907297437L234.41666666666666,162.13293075137304L234.41666666666666,162.13998636684636L234.41666666666666,162.14642367067663L234.41666666666666,162.15391087594224L236.83333333333334,162.20516310132507L236.83333333333334,162.2407768202038L236.83333333333334,162.27432223316043L236.83333333333334,162.3009909948777L236.83333333333334,162.31712234733178L236.83333333333334,162.33129658631276L236.83333333333334,162.34460722583233L236.83333333333334,162.35771699591294L236.83333333333334,162.3701712774895L236.83333333333334,162.3811399850527L236.83333333333334,162.39125048221302L236.83333333333334,162.4007669662048L236.83333333333334,162.4058472136288L239.25,162.3845881233511L239.25,162.36441407669614L239.25,162.35239511954862L239.25,162.35801335192394L239.25,162.36456755179503L239.25,162.37442252396963L239.25,162.38405027840486L239.25,162.3960507557914L241.66666666666669,162.44320523429107L241.66666666666669,162.49315712530196L241.66666666666669,162.5298807964458L241.66666666666669,162.55616164192037L241.66666666666669,162.57360594965766L241.66666666666669,162.5834741623239L244.08333333333334,162.59583580749577L244.08333333333334,162.61123000775257L244.08333333333334,162.6331336176371L244.08333333333334,162.65064542886384L244.08333333333334,162.66079905655909L244.08333333333334,162.67062197949073L246.5,162.71349524380568L246.5,162.7495343710056L246.5,162.77003191834368L246.5,162.7841945643663L246.5,162.7974278573113L246.5,162.8040920666577L246.5,162.81303386632456L246.5,162.8186301552421L246.5,162.83115941609023L246.5,162.84217719891492L246.5,162.85215734095257L248.91666666666666,162.88732560382127L248.91666666666666,162.9288331889664L248.91666666666666,162.98472639656336L248.91666666666666,163.02304548372285L248.91666666666666,163.04703644955637L248.91666666666666,163.0639426031933L248.91666666666666,163.07772457843168L248.91666666666666,163.08991035081831L248.91666666666666,163.09989384718233L251.33333333333334,163.11201105862477L251.33333333333334,163.1235224094951L251.33333333333334,163.1322898995246L251.33333333333334,163.14455727237439L251.33333333333334,163.15344565421913L251.33333333333334,163.1615135086829L251.33333333333334,163.17353658018925L251.33333333333334,163.18203798824547L253.75,163.20885419832467L253.75,163.24711787315667L253.75,163.27205185561712L253.75,163.29257525325684L253.75,163.3054792446874L253.75,163.3168972657207L253.75,163.32960290397497L253.75,163.33769075883953L253.75,163.34610434842955L256.1666666666667,163.3875060136041L256.1666666666667,163.41710256260384L256.1666666666667,163.4460822100258L256.1666666666667,163.47471911083414L256.1666666666667,163.5016143915774L256.1666666666667,163.52304967434063L256.1666666666667,163.54434245210203L256.1666666666667,163.56379621935136L256.1666666666667,163.5813480391019L256.1666666666667,163.59766824868498L258.58333333333337,163.58631268489677L258.58333333333337,163.56563504480724L258.58333333333337,163.54300444358321L258.58333333333337,163.52185932566272L258.58333333333337,163.4993377054092L258.58333333333337,163.4821680434683L258.58333333333337,163.46643217051843L258.58333333333337,163.45666031676114L258.58333333333337,163.449390395539L258.58333333333337,163.4457142552775L261,163.4472664151082L261,163.45174996513276L261,163.4535755794271L261,163.4544248980257L261,163.46045328633232L261,163.4617994904114L261,163.46438375171158L263.4166666666667,163.50365481653142L263.4166666666667,163.50775270471385L263.4166666666667,163.50912345194757L263.4166666666667,163.50876627521458L263.4166666666667,163.51013058807857L263.4166666666667,163.51060806952006L263.4166666666667,163.51241128846985L263.4166666666667,163.51708910050226L263.4166666666667,163.52469690763078L263.4166666666667,163.53174728184408L263.4166666666667,163.53835664903613L265.8333333333333,163.56375159452077L265.8333333333333,163.58767766106357L265.8333333333333,163.60892501429538L265.8333333333333,163.62039278033404L265.8333333333333,163.63015876726683L265.8333333333333,163.6356530850436L265.8333333333333,163.64014255946284L265.8333333333333,163.64588990420734L265.8333333333333,163.65367306252423L265.8333333333333,163.6593855212738L265.8333333333333,163.6644362487971L265.8333333333333,163.66803971587623L265.8333333333333,163.6726577336694" style="fill: none;" fill="none"></path></g></g></g></g><g opacity="0.2"><g><g><g><path stroke="rgb(255, 112, 67)" stroke-width="2px" d="M26.583333333333332,14.562670290470123L26.583333333333332,31.148898124694824L26.583333333333332,45.85406756401062L26.583333333333332,71.9385541677475L26.583333333333332,74.33203768730164L26.583333333333332,76.64056187868118L26.583333333333332,77.62379229068756L29,127.25193509459496L29,129.09362080693245L29,129.771090477705L29,130.78441482782364L29,131.2711664736271L29,131.1614251434803L29,130.99283051490784L29,131.39417973160744L29,131.11717307567596L31.416666666666668,135.00807662308216L31.416666666666668,133.86775374412537L31.416666666666668,133.92970611155033L31.416666666666668,133.7571288496256L31.416666666666668,133.61021979153156L31.416666666666668,133.91067650914192L31.416666666666668,134.13679513335228L31.416666666666668,133.91820131242275L33.833333333333336,134.09165950119495L33.833333333333336,133.72350065410137L33.833333333333336,134.05139270424843L33.833333333333336,134.415128454566L33.833333333333336,134.18325743079185L33.833333333333336,134.09564213454723L33.833333333333336,133.5712796598673L33.833333333333336,133.77527225017548L36.25,137.6148446649313L36.25,137.31615771353245L36.25,136.8417970687151L36.25,136.00724284350872L36.25,136.11565487086773L36.25,136.0678659081459L36.25,136.06742280721664L36.25,136.03467817604542L36.25,136.0953012406826L38.666666666666664,137.20951545238495L38.666666666666664,137.86574265360832L38.666666666666664,136.91569469869137L38.666666666666664,137.04313369095325L38.666666666666664,137.1665926873684L38.666666666666664,137.34447661042213L38.666666666666664,137.24093341827393L38.666666666666664,137.22632955014706L38.666666666666664,137.27057898044586L41.083333333333336,136.0262698084116L41.083333333333336,136.70993234217167L41.083333333333336,136.8741012364626L41.083333333333336,137.16570648550987L41.083333333333336,137.06791569292545L41.083333333333336,137.23341125249863L41.083333333333336,137.34093707799911L41.083333333333336,137.3732412457466L43.5,139.41449381411076L43.5,138.59808035194874L43.5,138.8494188040495L43.5,138.13655380904675L43.5,138.20912213623524L43.5,138.59011508524418L43.5,138.5617961883545L45.916666666666664,137.41881734132767L45.916666666666664,137.44227004051208L45.916666666666664,137.72104382514954L45.916666666666664,138.33567756414413L45.916666666666664,138.4352407604456L45.916666666666664,138.7795038074255L48.33333333333333,140.06186954677105L48.33333333333333,140.1839992403984L48.33333333333333,140.05523358285427L48.33333333333333,140.13001477718353L48.33333333333333,140.22780820727348L48.33333333333333,140.26896120607853L48.33333333333333,140.21586030721664L48.33333333333333,140.4247190952301L48.33333333333333,140.27913670241833L50.75,142.09206041693687L50.75,141.4442389458418L50.75,140.99643006920815L50.75,140.41852623224258L50.75,140.56410862505436L50.75,140.5618957579136L50.75,140.7526137828827L53.166666666666664,139.93000482022762L53.166666666666664,140.44905799627304L53.166666666666664,141.11502023041248L53.166666666666664,141.2783029228449L53.166666666666664,140.84243930876255L53.166666666666664,140.24285253882408L53.166666666666664,140.24196633696556L53.166666666666664,140.1963902413845L53.166666666666664,140.21409054100513L53.166666666666664,140.29772320389748L55.583333333333336,140.87960967421532L55.583333333333336,140.7751802802086L55.583333333333336,140.38754872977734L55.583333333333336,139.94416558742523L55.583333333333336,139.7963703274727L55.583333333333336,139.81362752616405L55.583333333333336,139.84592905640602L55.583333333333336,139.82601852715015L55.583333333333336,139.78929126262665L55.583333333333336,139.85212455689907L55.583333333333336,139.8954904228449L55.583333333333336,140.0631962120533L55.583333333333336,140.1738237440586L58,141.40308858454227L58,141.14997772872448L58,141.09643372893333L58,141.62964767217636L58,141.71814653277397L58,141.90311215817928L58,141.74602496623993L58,141.77921269834042L58,141.7973560988903L60.41666666666667,140.13444051146507L60.41666666666667,141.36547511816025L60.41666666666667,141.34866102039814L60.41666666666667,141.41901648044586L60.41666666666667,141.96417832374573L60.41666666666667,142.1615323126316L60.41666666666667,142.20622484385967L60.41666666666667,142.19206407666206L60.41666666666667,142.31773594021797L60.41666666666667,142.48278839886189L60.41666666666667,142.49606296420097L60.41666666666667,142.3106542378664L60.41666666666667,142.3323371708393L60.41666666666667,142.37349016964436L62.833333333333336,142.39428690075874L62.833333333333336,142.46774142980576L62.833333333333336,142.11197358369827L62.833333333333336,142.5420821607113L62.833333333333336,142.43234346807003L62.833333333333336,142.4872114956379L62.833333333333336,142.46021926403046L62.833333333333336,142.46730096638203L62.833333333333336,142.53898572921753L65.25,140.01717701554298L65.25,142.53500309586525L65.25,142.99829940497875L65.25,142.47659289836884L65.25,142.12524814903736L65.25,142.26596170663834L65.25,142.37172040343285L65.25,142.3872078359127L65.25,142.43322703242302L65.25,142.82749454677105L65.25,142.96865120530128L65.25,142.94387184083462L65.25,142.96157214045525L65.25,143.0376826375723L65.25,143.06379130482674L65.25,143.20539106428623L67.66666666666667,145.35593922436237L67.66666666666667,145.40373082458973L67.66666666666667,144.47094006836414L67.66666666666667,144.44439093768597L67.66666666666667,143.9890572577715L67.66666666666667,143.84480153024197L67.66666666666667,143.8974593281746L67.66666666666667,143.990827023983L67.66666666666667,144.01958902180195L67.66666666666667,144.03596265614033L67.66666666666667,143.93684256076813L67.66666666666667,143.8974593281746L67.66666666666667,143.75055027008057L67.66666666666667,143.6801921725273L67.66666666666667,143.70143200457096L70.08333333333333,143.9408251941204L70.08333333333333,143.19432672858238L70.08333333333333,143.91471652686596L70.08333333333333,143.99436655640602L70.08333333333333,143.81382666528225L70.08333333333333,144.42580443620682L70.08333333333333,144.45987837016582L70.08333333333333,144.46164813637733L72.5,145.31301645934582L72.5,144.21384657919407L72.5,144.52182810008526L72.5,145.00149804353714L72.5,144.61032696068287L72.5,144.67095002532005L72.5,144.7988321185112L72.5,144.91520941257477L72.5,144.95193667709827L72.5,144.97937200963497L72.5,144.92494444549084L72.5,144.9621148109436L72.5,144.97937200963497L74.91666666666667,146.33386561274529L74.91666666666667,147.14187070727348L74.91666666666667,146.02367122471333L74.91666666666667,145.19619870185852L74.91666666666667,145.04309150576591L74.91666666666667,144.88246478140354L74.91666666666667,145.29885832965374L74.91666666666667,145.2661136984825L74.91666666666667,145.50462068617344L74.91666666666667,145.5975452810526L74.91666666666667,145.6267503798008L74.91666666666667,145.5369222164154L74.91666666666667,145.5050637871027L77.33333333333333,145.40948322415352L77.33333333333333,145.15902833640575L77.33333333333333,145.33425629138947L77.33333333333333,145.51922191679478L77.33333333333333,145.59665907919407L77.33333333333333,145.5794018805027L77.33333333333333,145.39753532409668L77.33333333333333,145.2962023615837L77.33333333333333,145.56922374665737L77.33333333333333,145.67188601195812L77.33333333333333,145.60020124912262L77.33333333333333,145.58028808236122L77.33333333333333,145.63382944464684L77.33333333333333,145.72454380989075L77.33333333333333,145.74312767386436L79.75,145.68958631157875L79.75,146.9038041830063L79.75,146.38298124074936L79.75,146.24315124750137L79.75,146.16925625503063L79.75,146.25864131748676L79.75,146.3515659123659L79.75,146.2789949476719L79.75,146.41041657328606L79.75,146.38519410789013L82.16666666666667,145.26257152855396L82.16666666666667,145.9834044277668L82.16666666666667,146.33209584653378L82.16666666666667,146.27412874996662L82.16666666666667,146.1542092859745L82.16666666666667,146.30952671170235L82.16666666666667,146.3905060440302L82.16666666666667,146.3599716424942L82.16666666666667,146.28872998058796L82.16666666666667,146.260851547122L82.16666666666667,146.50245760381222L82.16666666666667,146.5706028342247L84.58333333333334,147.04407727718353L84.58333333333334,146.7245935946703L84.58333333333334,147.4162187576294L84.58333333333334,147.43303549289703L84.58333333333334,146.93699191510677L84.58333333333334,146.91575208306313L87,148.26316398382187L87,148.22687982022762L87,148.1091758608818L87,148.15386839210987L87,147.93128930032253L87,147.21001593768597L87,147.16266743838787L87,147.13523210585117L87,147.12638327479362L89.41666666666667,146.67680199444294L89.41666666666667,146.48298753798008L89.41666666666667,147.15691503882408L89.41666666666667,147.71623501181602L89.41666666666667,147.7419005781412L89.41666666666667,148.0109393298626L89.41666666666667,147.88792607188225L89.41666666666667,147.85783477127552L89.41666666666667,147.88527010381222L91.83333333333333,148.19457828998566L91.83333333333333,147.82464703917503L91.83333333333333,148.22378338873386L91.83333333333333,148.21360525488853L91.83333333333333,148.00032073259354L91.83333333333333,147.9777515977621L91.83333333333333,148.09191866219044L91.83333333333333,148.0458968281746L91.83333333333333,148.1959049552679L91.83333333333333,148.1817441880703L91.83333333333333,147.95739796757698L94.25,148.4366248100996L94.25,147.99899142980576L94.25,148.26493375003338L94.25,148.32378704845905L94.25,148.70787642896175L94.25,148.4507855772972L94.25,148.49105237424374L94.25,148.5083095729351L94.25,148.56495000422L94.25,148.59858083724976L94.25,148.74416323006153L94.25,148.8738150894642L94.25,148.85832765698433L94.25,148.89416871964931L96.66666666666666,148.71672789752483L96.66666666666666,148.62999880313873L96.66666666666666,149.00921934843063L96.66666666666666,149.29551793634892L96.66666666666666,149.40879879891872L99.08333333333333,149.16188344359398L99.08333333333333,149.40569972991943L99.08333333333333,149.01010555028915L99.08333333333333,149.08090411126614L99.08333333333333,148.96187348663807L99.08333333333333,149.67695134878159L99.08333333333333,149.66721631586552L99.08333333333333,149.73801751434803L99.08333333333333,149.86059030890465L99.08333333333333,149.7477525472641L101.5,148.0932453274727L101.5,148.7472596615553L101.5,149.626065954566L101.5,149.87519153952599L101.5,149.69996358454227L101.5,149.90660950541496L101.5,149.98493286967278L101.5,149.99378170073032L103.91666666666667,148.9795737862587L103.91666666666667,149.46764945983887L103.91666666666667,149.5251760929823L103.91666666666667,149.68712948262691L103.91666666666667,149.93006220459938L103.91666666666667,150.02475656569004L103.91666666666667,150.04909546673298L103.91666666666667,150.05174879729748L103.91666666666667,150.06281313300133L103.91666666666667,150.1243197619915L106.33333333333333,149.51721082627773L106.33333333333333,149.452162027359L106.33333333333333,149.8818301409483L106.33333333333333,149.94201010465622L106.33333333333333,150.04466973245144L106.33333333333333,150.11148829758167L106.33333333333333,150.19512096047401L106.33333333333333,150.19512096047401L106.33333333333333,150.33539141714573L108.75,150.2402539551258L108.75,150.56637623906136L108.75,151.1323348134756L108.75,151.09914708137512L108.75,151.12702551484108L108.75,151.12215667963028L108.75,151.32526570558548L108.75,151.36110676825047L108.75,151.3513717353344L111.16666666666667,152.29478372633457L111.16666666666667,151.88812521100044L111.16666666666667,151.9527309089899L111.16666666666667,151.51819396018982L111.16666666666667,151.44164299964905L111.16666666666667,151.45890019834042L111.16666666666667,151.60890832543373L111.16666666666667,151.58766849339008L111.16666666666667,151.5177534967661L111.16666666666667,151.47615739703178L111.16666666666667,151.61023499071598L111.16666666666667,151.53722356259823L113.58333333333333,151.95582734048367L113.58333333333333,151.58855205774307L113.58333333333333,151.7496218830347L113.58333333333333,151.81290091574192L113.58333333333333,151.3429660052061L113.58333333333333,151.47306096553802L113.58333333333333,151.49872389435768L113.58333333333333,151.5146544277668L113.58333333333333,151.56332959234715L113.58333333333333,151.40889836847782L113.58333333333333,151.46376639604568L113.58333333333333,151.5212930291891L113.58333333333333,151.56598556041718L113.58333333333333,151.61997002363205L116,152.59612400829792L116,152.4018664509058L116,152.4691281169653L116,152.84215579926968L116,152.89215762913227L116,152.74790190160275L116,152.71117463707924L116,152.6381632089615L116,152.6709078401327L116,152.68064287304878L116,152.75808003544807L116,152.63019794225693L116,152.65143777430058L116,152.66515544056892L116,152.6182500422001L116,152.65232133865356L118.41666666666667,152.34876818954945L118.41666666666667,152.29788015782833L118.41666666666667,152.24212592840195L118.41666666666667,152.24876189231873L118.41666666666667,152.36336942017078L118.41666666666667,152.40452241897583L120.83333333333334,152.11247143149376L120.83333333333334,152.72002610564232L120.83333333333334,152.6191362440586L120.83333333333334,152.49877631664276L120.83333333333334,152.47797694802284L120.83333333333334,152.4049655199051L120.83333333333334,152.43903681635857L123.25,153.6687447577715L123.25,150.77435146272182L123.25,152.00582917034626L123.25,151.68590238690376L123.25,151.9894581735134L123.25,152.15229776501656L123.25,152.12043669819832L123.25,152.10583546757698L123.25,152.18504239618778L123.25,152.25805382430553L123.25,152.2292918264866L123.25,152.2310615926981L123.25,152.29920682311058L125.66666666666667,153.48333866894245L125.66666666666667,152.88374926149845L125.66666666666667,152.9983567893505L125.66666666666667,153.15146134793758L125.66666666666667,153.30102637410164L128.08333333333334,154.55993941426277L128.08333333333334,153.99088440835476L128.08333333333334,153.78689181804657L128.08333333333334,153.7846789509058L128.08333333333334,153.73423402011395L128.08333333333334,153.79928281903267L128.08333333333334,154.01831974089146L128.08333333333334,153.92760801315308L128.08333333333334,153.84087628126144L128.08333333333334,153.67095762491226L128.08333333333334,153.62715129554272L130.5,153.66918785870075L130.5,153.6386560946703L130.5,153.4421856701374L130.5,153.5337835997343L130.5,153.4081117361784L130.5,153.49484346807003L130.5,153.4997096657753L130.5,153.55281056463718L130.5,153.4855488985777L130.5,153.47670006752014L130.5,153.49086083471775L132.91666666666666,154.7241083085537L132.91666666666666,154.21125063300133L132.91666666666666,154.10504883527756L132.91666666666666,154.03336407244205L132.91666666666666,153.72228875756264L132.91666666666666,153.4855488985777L132.91666666666666,153.39528027176857L132.91666666666666,153.42758180201054L132.91666666666666,153.5121006667614L132.91666666666666,153.61431719362736L135.33333333333334,154.62587177753448L135.33333333333334,154.62543131411076L135.33333333333334,153.76653818786144L135.33333333333334,153.91344724595547L135.33333333333334,153.99265417456627L135.33333333333334,154.0413293391466L135.33333333333334,154.02185927331448L135.33333333333334,154.22895093262196L135.33333333333334,154.2302775979042L135.33333333333334,154.26125246286392L135.33333333333334,154.3351500928402L135.33333333333334,154.43869592249393L135.33333333333334,154.3917905241251L135.33333333333334,154.32408839464188L135.33333333333334,154.30638809502125L135.33333333333334,154.31302405893803L137.75,153.6846752911806L137.75,154.27143059670925L137.75,154.31744979321957L137.75,154.6842819750309L137.75,154.5457812845707L137.75,154.42807468771935L137.75,154.61304031312466L137.75,154.41789655387402L137.75,154.3519641906023L137.75,154.3851519227028L137.75,154.37232045829296L137.75,154.3975429236889L137.75,154.557726547122L137.75,154.6033052802086L140.16666666666666,154.5519741475582L140.16666666666666,154.7882709056139L140.16666666666666,154.86659163236618L140.16666666666666,155.10775458812714L140.16666666666666,155.1086394712329L140.16666666666666,155.31307516247034L140.16666666666666,155.1298806220293L140.16666666666666,155.14625293761492L140.16666666666666,155.13474813848734L140.16666666666666,155.17014741897583L140.16666666666666,155.2369646653533L140.16666666666666,155.23386691510677L140.16666666666666,155.2511254325509L142.58333333333331,155.05509810894728L142.58333333333331,155.18474996834993L142.58333333333331,155.40246022492647L142.58333333333331,155.33210212737322L142.58333333333331,155.2878526970744L142.58333333333331,155.3064378798008L142.58333333333331,155.30599477887154L142.58333333333331,155.32944747805595L142.58333333333331,155.36617474257946L142.58333333333331,155.37945062667131L142.58333333333331,155.30378191173077L142.58333333333331,155.29847261309624L142.58333333333331,155.299357496202L142.58333333333331,155.299357496202L145,155.27634789794683L145,155.09846265614033L145,155.585212983191L145,155.6626501455903L145,155.7909753397107L145,155.92416805028915L145,155.938327498734L145,155.87328001856804L145,155.86929738521576L147.41666666666666,155.47281700372696L147.41666666666666,156.08656454086304L147.41666666666666,155.97903739660978L147.41666666666666,155.90779441595078L147.41666666666666,155.54848439991474L147.41666666666666,155.64185209572315L147.41666666666666,155.6980494260788L147.41666666666666,155.71176709234715L147.41666666666666,155.7546898573637L147.41666666666666,155.98700266331434L147.41666666666666,155.98523289710283L147.41666666666666,156.00027722865343L147.41666666666666,155.9949679300189L147.41666666666666,155.68565974384546L149.83333333333334,156.24188196659088L149.83333333333334,156.152940005064L149.83333333333334,156.13612458854914L149.83333333333334,156.10249507427216L149.83333333333334,156.10382305830717L149.83333333333334,156.02505791187286L152.25,156.39056210964918L152.25,156.7742097079754L152.25,156.77155505865812L152.25,156.538800470531L152.25,156.5188873037696L152.25,156.51933040469885L152.25,156.48437290638685L152.25,156.32330308109522L154.66666666666666,156.01134024560452L154.66666666666666,155.8777044340968L154.66666666666666,155.97151523083448L154.66666666666666,156.00779939442873L154.66666666666666,156.17373805493116L154.66666666666666,156.5206570699811L154.66666666666666,156.58703253418207L154.66666666666666,156.60207686573267L157.08333333333331,157.32467953115702L157.08333333333331,157.31848534941673L157.08333333333331,157.04767551273108L157.08333333333331,157.142812974751L157.08333333333331,157.06183496117592L157.08333333333331,157.037940479815L157.08333333333331,157.01537266373634L157.08333333333331,157.00740739703178L157.08333333333331,157.02599257975817L157.08333333333331,157.00607941299677L157.08333333333331,157.04856039583683L157.08333333333331,157.04103691130877L157.08333333333331,157.05563946068287L157.08333333333331,157.0821899101138L159.5,157.45344782620668L159.5,156.49454972147942L159.5,156.32817059755325L159.5,156.7812900915742L159.5,156.94811231642962L159.5,156.8600552380085L159.5,156.87421468645334L159.5,157.0034247636795L159.5,157.04103691130877L159.5,157.09192494302988L159.5,157.11051012575626L159.5,157.02864722907543L159.5,157.09457959234715L161.91666666666666,155.0165997594595L161.91666666666666,156.76934219151735L161.91666666666666,157.0936947092414L161.91666666666666,156.80252992361784L161.91666666666666,156.78969714045525L161.91666666666666,156.80031705647707L161.91666666666666,156.86315298825502L161.91666666666666,156.98085694760084L161.91666666666666,156.99944213032722L161.91666666666666,157.1012168750167L161.91666666666666,157.01139003038406L161.91666666666666,157.0808619260788L161.91666666666666,156.9830698147416L164.33333333333334,156.99368973076344L164.33333333333334,156.60428973287344L164.33333333333334,157.18484953790903L164.33333333333334,157.3999051451683L164.33333333333334,157.29281978309155L164.33333333333334,157.30166993290186L164.33333333333334,157.2215781211853L164.33333333333334,157.2954744324088L164.33333333333334,157.36096501350403L164.33333333333334,157.3636196628213L164.33333333333334,157.33707053214312L166.75,157.74461261183023L166.75,157.818952023983L166.75,157.6808931156993L166.75,157.24857035279274L166.75,157.37158492952585L166.75,157.52601747214794L166.75,157.62071315199137L166.75,157.66496258229017L169.16666666666669,157.9512598514557L169.16666666666669,157.68664551526308L169.16666666666669,157.80302280932665L169.16666666666669,158.12826021015644L169.16666666666669,158.25304455310106L169.16666666666669,158.31720715016127L169.16666666666669,158.34464248269796L169.16666666666669,158.34508558362722L169.16666666666669,158.33003993332386L169.16666666666669,158.3273852840066L169.16666666666669,158.3366772159934L171.58333333333334,158.15215469151735L171.58333333333334,158.2282651886344L171.58333333333334,158.19729032367468L171.58333333333334,158.23180472105742L171.58333333333334,158.2517178878188L174,159.09645024687052L174,158.62076293677092L174,158.3127827346325L174,158.2079102396965L174,158.23623045533895L174,158.20171473920345L174,158.2300349548459L174,158.1220647096634L174,158.2021578401327L176.41666666666666,157.59947200119495L176.41666666666666,157.88754035532475L176.41666666666666,158.17959002405405L176.41666666666666,158.1220647096634L176.41666666666666,158.02560058236122L176.41666666666666,158.21012310683727L176.41666666666666,158.31366761773825L176.41666666666666,158.32959815114737L176.41666666666666,158.33535055071115L176.41666666666666,158.3915478810668L176.41666666666666,158.44951497763395L176.41666666666666,158.4282751455903L178.83333333333334,159.13494727760553L178.83333333333334,158.8743155747652L178.83333333333334,159.06060786545277L178.83333333333334,158.86413744091988L178.83333333333334,158.51500555872917L178.83333333333334,158.58713210374117L178.83333333333334,158.57297265529633L178.83333333333334,158.5419977903366L178.83333333333334,158.60084977000952L178.83333333333334,158.65306446701288L178.83333333333334,158.77785012871027L181.25,159.31238941848278L181.25,159.29557532072067L181.25,159.12609712779522L181.25,159.1207878291607L181.25,159.09556536376476L181.25,159.19645522534847L181.25,158.93449553847313L183.66666666666666,159.77391728013754L183.66666666666666,159.6460351869464L183.66666666666666,159.43363554775715L183.66666666666666,159.54204757511616L183.66666666666666,159.50841806083918L183.66666666666666,159.2309696227312L183.66666666666666,159.15839997678995L183.66666666666666,159.09113962948322L183.66666666666666,159.08892808109522L183.66666666666666,159.0800779312849L183.66666666666666,158.95086785405874L183.66666666666666,158.96015978604555L183.66666666666666,158.92121965438128L183.66666666666666,158.9482118859887L186.08333333333334,160.49607684463263L186.08333333333334,159.7947153300047L186.08333333333334,159.56815492361784L186.08333333333334,159.5336405262351L186.08333333333334,159.99162753671408L186.08333333333334,159.54603020846844L186.08333333333334,159.50532031059265L186.08333333333334,159.5123993754387L186.08333333333334,159.48540714383125L186.08333333333334,159.44115771353245L188.5,159.5473568737507L188.5,159.6053252890706L188.5,159.39867804944515L188.5,159.19335747510195L188.5,159.27566215395927L188.5,159.39602208137512L188.5,159.41726191341877L188.5,159.5323125422001L190.91666666666666,159.7212594822049L190.91666666666666,159.592492505908L190.91666666666666,159.61506032198668L190.91666666666666,159.64116767048836L190.91666666666666,159.58762498944998L190.91666666666666,159.68586020171642L190.91666666666666,159.65665510296822L190.91666666666666,159.6420525535941L190.91666666666666,159.6199278384447L190.91666666666666,159.662407502532L190.91666666666666,159.60709505528212L193.33333333333331,160.26686310768127L193.33333333333331,159.78984781354666L193.33333333333331,159.84693002700806L193.33333333333331,159.82922972738743L193.33333333333331,159.74957969784737L193.33333333333331,159.8668418750167L193.33333333333331,159.80135261267424L195.75,159.9526874050498L195.75,159.86330234259367L195.75,159.67391230165958L195.75,159.89516209065914L195.75,159.9088797569275L195.75,159.90091449022293L195.75,159.92746493965387L195.75,159.89472030848265L195.75,159.94428035616875L195.75,159.90932285785675L195.75,159.86905474215746L198.16666666666666,159.84294739365578L198.16666666666666,159.89250744134188L198.16666666666666,160.42395029962063L198.16666666666666,160.47528011351824L198.16666666666666,160.34562693536282L198.16666666666666,160.44209238141775L198.16666666666666,160.3845670670271L198.16666666666666,160.31066943705082L198.16666666666666,160.33013950288296L198.16666666666666,160.31155563890934L200.58333333333334,160.6120123565197L200.58333333333334,160.02525705099106L200.58333333333334,160.17659184336662L200.58333333333334,160.25270234048367L200.58333333333334,160.2774830237031L200.58333333333334,160.3217324540019L200.58333333333334,160.29916463792324L200.58333333333334,160.27571193873882L200.58333333333334,160.13190063089132L200.58333333333334,160.18898284435272L203,160.20181562751532L203,160.1071199476719L203,160.4429772645235L203,160.36819475144148L203,160.3496095687151L203,160.3845670670271L203,160.37394715100527L203,160.45536694675684L203,160.48855467885733L203,160.60227732360363L203,160.41996766626835L205.41666666666669,160.05977276712656L205.41666666666669,160.3620005697012L205.41666666666669,160.40315224975348L205.41666666666669,160.42970269918442L205.41666666666669,160.53944271057844L205.41666666666669,160.4854569286108L205.41666666666669,160.41288728266954L205.41666666666669,160.47660809755325L207.83333333333334,160.6704225540161L207.83333333333334,161.02663481980562L207.83333333333334,161.0155731216073L207.83333333333334,160.64608497172594L207.83333333333334,160.92662984132767L207.83333333333334,160.830607496202L207.83333333333334,160.81158053129911L207.83333333333334,160.82795284688473L210.25,161.83021549880505L210.25,161.6421521231532L210.25,161.72268703579903L210.25,161.5558648109436L210.25,161.5775477439165L210.25,161.54170536249876L210.25,161.4567447155714L210.25,161.37488313764334L210.25,161.09212540090084L210.25,161.09035563468933L210.25,161.08504501730204L212.66666666666666,161.5324121117592L212.66666666666666,160.99742972105742L212.66666666666666,161.2346100434661L212.66666666666666,161.1775278300047L212.66666666666666,161.16027063131332L212.66666666666666,161.2124853283167L212.66666666666666,161.19168727844954L212.66666666666666,161.23991934210062L212.66666666666666,161.2217772603035L212.66666666666666,161.2567347586155L212.66666666666666,161.2421322092414L215.08333333333334,162.33731945604086L215.08333333333334,162.25811252743006L215.08333333333334,161.98376315832138L215.08333333333334,161.79216025024652L215.08333333333334,161.37311205267906L215.08333333333334,161.3850599527359L215.08333333333334,161.38461685180664L215.08333333333334,161.34611982107162L215.08333333333334,161.26337204128504L215.08333333333334,161.30142728984356L217.5,162.17713451385498L217.5,161.48196718096733L217.5,161.52533304691315L217.5,161.75764453411102L217.5,161.73551981896162L217.5,161.72357191890478L217.5,161.75056546926498L219.91666666666666,162.09615781903267L219.91666666666666,161.9598673582077L219.91666666666666,161.9709303751588L219.91666666666666,162.02535793930292L219.91666666666666,161.94614969193935L219.91666666666666,161.83198526501656L222.33333333333334,161.48860446363688L222.33333333333334,161.65985242277384L222.33333333333334,161.59303517639637L222.33333333333334,161.59347695857286L222.33333333333334,161.73728958517313L222.33333333333334,161.7377326861024L222.33333333333334,161.8664996623993L222.33333333333334,161.7395024523139L222.33333333333334,161.77490305155516L222.33333333333334,161.72578478604555L222.33333333333334,161.7470246180892L222.33333333333334,161.7487943843007L224.75,163.50330790132284L224.75,163.2692253291607L224.75,162.8377874493599L224.75,162.48821246623993L224.75,161.95544294267893L224.75,161.98508982360363L224.75,161.89791762828827L224.75,161.8518971130252L224.75,161.91694459319115L224.75,161.928892493248L224.75,161.9877444729209L227.16666666666666,162.52670949697495L227.16666666666666,162.11651276797056L227.16666666666666,162.20280008018017L227.16666666666666,162.1014671176672L227.16666666666666,162.12978733330965L227.16666666666666,162.2094373628497L227.16666666666666,162.21386309713125L229.58333333333331,159.74736814945936L229.58333333333331,161.85057044774294L229.58333333333331,162.12359315156937L229.58333333333331,162.1802322641015L229.58333333333331,162.19218016415834L229.58333333333331,162.213419996202L229.58333333333331,162.19350814819336L229.58333333333331,162.1766927316785L229.58333333333331,162.12978733330965L232,162.96389977633953L232,161.85764951258898L232,162.00102035701275L232,162.22005727887154L232,162.20324186235666L232,162.12580469995737L232,162.23289006203413L232,162.18288691341877L232,162.21386309713125L232,162.2151897624135L234.41666666666666,162.13244198262691L234.41666666666666,161.98641780763865L234.41666666666666,162.08199705183506L234.41666666666666,162.11518478393555L234.41666666666666,162.461662016809L234.41666666666666,162.43643955141306L234.41666666666666,162.29660955816507L234.41666666666666,162.27536972612143L234.41666666666666,162.3271426409483L234.41666666666666,162.27404306083918L234.41666666666666,162.26873244345188L234.41666666666666,162.29616777598858L236.83333333333334,163.1789553835988L236.83333333333334,162.91743747889996L236.83333333333334,162.91168507933617L236.83333333333334,162.80769746750593L236.83333333333334,162.62361804395914L236.83333333333334,162.60060712695122L236.83333333333334,162.5975093767047L236.83333333333334,162.60680262744427L236.83333333333334,162.60680262744427L236.83333333333334,162.5895454287529L236.83333333333334,162.58334992825985L236.83333333333334,162.58158016204834L236.83333333333334,162.50237191468477L239.25,161.98066540807486L239.25,161.98110719025135L239.25,162.12403493374586L239.25,162.4647597670555L239.25,162.48909734934568L239.25,162.56166699528694L239.25,162.56697761267424L239.25,162.62405982613564L241.66666666666669,163.33914032578468L241.66666666666669,163.44224305450916L241.66666666666669,163.22763054817915L241.66666666666669,163.05549770593643L241.66666666666669,162.90504779666662L241.66666666666669,162.77097020298243L244.08333333333334,162.8307070657611L244.08333333333334,162.9037198126316L244.08333333333334,163.04930220544338L244.08333333333334,162.98336984217167L244.08333333333334,162.853717982769L244.08333333333334,162.85725751519203L246.5,163.5280872657895L246.5,163.4342777878046L246.5,163.15948531776667L246.5,163.05328483879566L246.5,163.0488604232669L246.5,162.93071204423904L246.5,162.98292805999517L246.5,162.92495964467525L246.5,163.06921537220478L246.5,163.05151507258415L246.5,163.04178003966808L248.91666666666666,163.5555225983262L248.91666666666666,163.7174773067236L248.91666666666666,164.04669734090567L248.91666666666666,163.75110813975334L248.91666666666666,163.50286480039358L248.91666666666666,163.385159522295L248.91666666666666,163.33958210796118L248.91666666666666,163.32144002616405L248.91666666666666,163.28958027809858L251.33333333333334,163.3422380760312L251.33333333333334,163.3422380760312L251.33333333333334,163.2988722100854L251.33333333333334,163.3776373565197L251.33333333333334,163.3223249092698L251.33333333333334,163.3148027434945L251.33333333333334,163.40197493880987L251.33333333333334,163.34356474131346L253.75,163.71836218982935L253.75,163.9741276949644L253.75,163.74579752236605L253.75,163.6825198084116L253.75,163.55065508186817L253.75,163.5338396653533L253.75,163.57101003080606L253.75,163.491360001266L253.75,163.5059625506401L256.1666666666667,164.17413765192032L256.1666666666667,163.97943699359894L256.1666666666667,163.99669551104307L256.1666666666667,164.01882022619247L256.1666666666667,164.01262472569942L256.1666666666667,163.9303200468421L256.1666666666667,163.94890522956848L256.1666666666667,163.93341779708862L256.1666666666667,163.91483261436224L256.1666666666667,163.90775223076344L258.58333333333337,163.3705569729209L258.58333333333337,163.17275988310575L258.58333333333337,163.1130230203271L258.58333333333337,163.12010208517313L258.58333333333337,163.07142692059278L258.58333333333337,163.15594446659088L258.58333333333337,163.16745058447123L258.58333333333337,163.2709950953722L258.58333333333337,163.31126189231873L258.58333333333337,163.3758675903082L261,163.4767574518919L261,163.53693741559982L261,163.48826225101948L261,163.47056195139885L261,163.57499266415834L261,163.48737736791372L261,163.5134847164154L263.4166666666667,164.2498050481081L263.4166666666667,163.58561258018017L263.4166666666667,163.5351676493883L263.4166666666667,163.50197991728783L263.4166666666667,163.53605253249407L263.4166666666667,163.51968021690845L263.4166666666667,163.5466724485159L263.4166666666667,163.60596752911806L263.4166666666667,163.6692452430725L263.4166666666667,163.66570439189672L263.4166666666667,163.66393462568521L265.8333333333333,164.04625555872917L265.8333333333333,164.0422729253769L265.8333333333333,164.01262472569942L265.8333333333333,163.8382803350687L265.8333333333333,163.81571251899004L265.8333333333333,163.74004512280226L265.8333333333333,163.72544257342815L265.8333333333333,163.75508945435286L265.8333333333333,163.8015530705452L265.8333333333333,163.76792223751545L265.8333333333333,163.76040007174015L265.8333333333333,163.73650559037924L265.8333333333333,163.76040007174015" style="fill: none;" fill="none"></path></g></g></g></g></g></g><g transform="translate(40, 177)" clip-path="url(#clip_1)"><clipPath id="clip_1"><rect width="290" height="23"></rect></clipPath><g><g><line x1="0" y1="0" x2="0" y2="5" style="visibility: inherit;" fill="rgb(0, 0, 0)" stroke="rgb(204, 204, 204)" stroke-width="1px"></line><line x1="24.166666666666664" y1="0" x2="24.166666666666664" y2="5" style="visibility: inherit;" fill="rgb(0, 0, 0)" stroke="rgb(204, 204, 204)" stroke-width="1px"></line><line x1="48.33333333333333" y1="0" x2="48.33333333333333" y2="5" style="visibility: inherit;" fill="rgb(0, 0, 0)" stroke="rgb(204, 204, 204)" stroke-width="1px"></line><line x1="72.5" y1="0" x2="72.5" y2="5" style="visibility: inherit;" fill="rgb(0, 0, 0)" stroke="rgb(204, 204, 204)" stroke-width="1px"></line><line x1="96.66666666666666" y1="0" x2="96.66666666666666" y2="5" style="visibility: inherit;" fill="rgb(0, 0, 0)" stroke="rgb(204, 204, 204)" stroke-width="1px"></line><line x1="120.83333333333334" y1="0" x2="120.83333333333334" y2="5" style="visibility: inherit;" fill="rgb(0, 0, 0)" stroke="rgb(204, 204, 204)" stroke-width="1px"></line><line x1="145" y1="0" x2="145" y2="5" style="visibility: inherit;" fill="rgb(0, 0, 0)" stroke="rgb(204, 204, 204)" stroke-width="1px"></line><line x1="169.16666666666669" y1="0" x2="169.16666666666669" y2="5" style="visibility: inherit;" fill="rgb(0, 0, 0)" stroke="rgb(204, 204, 204)" stroke-width="1px"></line><line x1="193.33333333333331" y1="0" x2="193.33333333333331" y2="5" style="visibility: inherit;" fill="rgb(0, 0, 0)" stroke="rgb(204, 204, 204)" stroke-width="1px"></line><line x1="217.5" y1="0" x2="217.5" y2="5" style="visibility: inherit;" fill="rgb(0, 0, 0)" stroke="rgb(204, 204, 204)" stroke-width="1px"></line><line x1="241.66666666666669" y1="0" x2="241.66666666666669" y2="5" style="visibility: inherit;" fill="rgb(0, 0, 0)" stroke="rgb(204, 204, 204)" stroke-width="1px"></line><line x1="265.8333333333333" y1="0" x2="265.8333333333333" y2="5" style="visibility: inherit;" fill="rgb(0, 0, 0)" stroke="rgb(204, 204, 204)" stroke-width="1px"></line><line x1="290" y1="0" x2="290" y2="5" style="visibility: inherit;" fill="rgb(0, 0, 0)" stroke="rgb(204, 204, 204)" stroke-width="1px"></line></g><g transform="translate(0, 8)"><text x="0" y="0" dx="0em" dy="0.95em" style="text-anchor: middle; visibility: hidden; font-family: Roboto, sans-serif; font-size: 12px; font-weight: 200;" fill="rgb(33, 33, 33)" stroke="none" stroke-width="1px">-10</text><text x="24.166666666666664" y="0" dx="0em" dy="0.95em" style="text-anchor: middle; visibility: inherit; font-family: Roboto, sans-serif; font-size: 12px; font-weight: 200;" fill="rgb(33, 33, 33)" stroke="none" stroke-width="1px">0</text><text x="48.33333333333333" y="0" dx="0em" dy="0.95em" style="text-anchor: middle; visibility: inherit; font-family: Roboto, sans-serif; font-size: 12px; font-weight: 200;" fill="rgb(33, 33, 33)" stroke="none" stroke-width="1px">10</text><text x="72.5" y="0" dx="0em" dy="0.95em" style="text-anchor: middle; visibility: inherit; font-family: Roboto, sans-serif; font-size: 12px; font-weight: 200;" fill="rgb(33, 33, 33)" stroke="none" stroke-width="1px">20</text><text x="96.66666666666666" y="0" dx="0em" dy="0.95em" style="text-anchor: middle; visibility: inherit; font-family: Roboto, sans-serif; font-size: 12px; font-weight: 200;" fill="rgb(33, 33, 33)" stroke="none" stroke-width="1px">30</text><text x="120.83333333333334" y="0" dx="0em" dy="0.95em" style="text-anchor: middle; visibility: inherit; font-family: Roboto, sans-serif; font-size: 12px; font-weight: 200;" fill="rgb(33, 33, 33)" stroke="none" stroke-width="1px">40</text><text x="145" y="0" dx="0em" dy="0.95em" style="text-anchor: middle; visibility: inherit; font-family: Roboto, sans-serif; font-size: 12px; font-weight: 200;" fill="rgb(33, 33, 33)" stroke="none" stroke-width="1px">50</text><text x="169.16666666666669" y="0" dx="0em" dy="0.95em" style="text-anchor: middle; visibility: inherit; font-family: Roboto, sans-serif; font-size: 12px; font-weight: 200;" fill="rgb(33, 33, 33)" stroke="none" stroke-width="1px">60</text><text x="193.33333333333331" y="0" dx="0em" dy="0.95em" style="text-anchor: middle; visibility: inherit; font-family: Roboto, sans-serif; font-size: 12px; font-weight: 200;" fill="rgb(33, 33, 33)" stroke="none" stroke-width="1px">70</text><text x="217.5" y="0" dx="0em" dy="0.95em" style="text-anchor: middle; visibility: inherit; font-family: Roboto, sans-serif; font-size: 12px; font-weight: 200;" fill="rgb(33, 33, 33)" stroke="none" stroke-width="1px">80</text><text x="241.66666666666669" y="0" dx="0em" dy="0.95em" style="text-anchor: middle; visibility: inherit; font-family: Roboto, sans-serif; font-size: 12px; font-weight: 200;" fill="rgb(33, 33, 33)" stroke="none" stroke-width="1px">90</text><text x="265.8333333333333" y="0" dx="0em" dy="0.95em" style="text-anchor: middle; visibility: inherit; font-family: Roboto, sans-serif; font-size: 12px; font-weight: 200;" fill="rgb(33, 33, 33)" stroke="none" stroke-width="1px">100</text><text x="290" y="0" dx="0em" dy="0.95em" style="text-anchor: middle; visibility: hidden; font-family: Roboto, sans-serif; font-size: 12px; font-weight: 200;" fill="rgb(33, 33, 33)" stroke="none" stroke-width="1px">110</text></g><line x1="0" y1="0" x2="290" y2="0" fill="rgb(0, 0, 0)" stroke="rgb(204, 204, 204)" stroke-width="1px"></line></g></g></g></g></svg>