<svg viewBox="0 0 330 200" xmlns="http://www.w3.org/2000/svg"><g><g><g><g><g><line x1="40" y1="177" x2="35" y2="177" style="visibility: inherit;" fill="rgb(0, 0, 0)" stroke="rgb(204, 204, 204)" stroke-width="1px"></line><line x1="40" y1="165.2" x2="35" y2="165.2" style="visibility: inherit;" fill="rgb(0, 0, 0)" stroke="rgb(204, 204, 204)" stroke-width="1px"></line><line x1="40" y1="153.4" x2="35" y2="153.4" style="visibility: inherit;" fill="rgb(0, 0, 0)" stroke="rgb(204, 204, 204)" stroke-width="1px"></line><line x1="40" y1="141.6" x2="35" y2="141.6" style="visibility: inherit;" fill="rgb(0, 0, 0)" stroke="rgb(204, 204, 204)" stroke-width="1px"></line><line x1="40" y1="129.8" x2="35" y2="129.8" style="visibility: inherit;" fill="rgb(0, 0, 0)" stroke="rgb(204, 204, 204)" stroke-width="1px"></line><line x1="40" y1="118.00000000000001" x2="35" y2="118.00000000000001" style="visibility: inherit;" fill="rgb(0, 0, 0)" stroke="rgb(204, 204, 204)" stroke-width="1px"></line><line x1="40" y1="106.19999999999997" x2="35" y2="106.19999999999997" style="visibility: inherit;" fill="rgb(0, 0, 0)" stroke="rgb(204, 204, 204)" stroke-width="1px"></line><line x1="40" y1="94.40000000000002" x2="35" y2="94.40000000000002" style="visibility: inherit;" fill="rgb(0, 0, 0)" stroke="rgb(204, 204, 204)" stroke-width="1px"></line><line x1="40" y1="82.6" x2="35" y2="82.6" style="visibility: inherit;" fill="rgb(0, 0, 0)" stroke="rgb(204, 204, 204)" stroke-width="1px"></line><line x1="40" y1="70.79999999999998" x2="35" y2="70.79999999999998" style="visibility: inherit;" fill="rgb(0, 0, 0)" stroke="rgb(204, 204, 204)" stroke-width="1px"></line><line x1="40" y1="59.00000000000001" x2="35" y2="59.00000000000001" style="visibility: inherit;" fill="rgb(0, 0, 0)" stroke="rgb(204, 204, 204)" stroke-width="1px"></line><line x1="40" y1="47.19999999999999" x2="35" y2="47.19999999999999" style="visibility: inherit;" fill="rgb(0, 0, 0)" stroke="rgb(204, 204, 204)" stroke-width="1px"></line><line x1="40" y1="35.40000000000001" x2="35" y2="35.40000000000001" style="visibility: inherit;" fill="rgb(0, 0, 0)" stroke="rgb(204, 204, 204)" stroke-width="1px"></line><line x1="40" y1="23.599999999999994" x2="35" y2="23.599999999999994" style="visibility: inherit;" fill="rgb(0, 0, 0)" stroke="rgb(204, 204, 204)" stroke-width="1px"></line><line x1="40" y1="11.799999999999978" x2="35" y2="11.799999999999978" style="visibility: inherit;" fill="rgb(0, 0, 0)" stroke="rgb(204, 204, 204)" stroke-width="1px"></line><line x1="40" y1="0" x2="35" y2="0" style="visibility: inherit;" fill="rgb(0, 0, 0)" stroke="rgb(204, 204, 204)" stroke-width="1px"></line></g><g transform="translate(30, 0)"><text x="0" y="177" dx="0em" dy="0.3em" style="text-anchor: end; visibility: hidden; font-family: Roboto, sans-serif; font-size: 12px; font-weight: 200;" fill="rgb(33, 33, 33)" stroke="none" stroke-width="1px">0.4</text><text x="0" y="165.2" dx="0em" dy="0.3em" style="text-anchor: end; visibility: inherit; font-family: Roboto, sans-serif; font-size: 12px; font-weight: 200;" fill="rgb(33, 33, 33)" stroke="none" stroke-width="1px">0.6</text><text x="0" y="153.4" dx="0em" dy="0.3em" style="text-anchor: end; visibility: hidden; font-family: Roboto, sans-serif; font-size: 12px; font-weight: 200;" fill="rgb(33, 33, 33)" stroke="none" stroke-width="1px">0.8</text><text x="0" y="141.6" dx="0em" dy="0.3em" style="text-anchor: end; visibility: inherit; font-family: Roboto, sans-serif; font-size: 12px; font-weight: 200;" fill="rgb(33, 33, 33)" stroke="none" stroke-width="1px">1</text><text x="0" y="129.8" dx="0em" dy="0.3em" style="text-anchor: end; visibility: hidden; font-family: Roboto, sans-serif; font-size: 12px; font-weight: 200;" fill="rgb(33, 33, 33)" stroke="none" stroke-width="1px">1.2</text><text x="0" y="118.00000000000001" dx="0em" dy="0.3em" style="text-anchor: end; visibility: inherit; font-family: Roboto, sans-serif; font-size: 12px; font-weight: 200;" fill="rgb(33, 33, 33)" stroke="none" stroke-width="1px">1.4</text><text x="0" y="106.19999999999997" dx="0em" dy="0.3em" style="text-anchor: end; visibility: hidden; font-family: Roboto, sans-serif; font-size: 12px; font-weight: 200;" fill="rgb(33, 33, 33)" stroke="none" stroke-width="1px">1.6</text><text x="0" y="94.40000000000002" dx="0em" dy="0.3em" style="text-anchor: end; visibility: inherit; font-family: Roboto, sans-serif; font-size: 12px; font-weight: 200;" fill="rgb(33, 33, 33)" stroke="none" stroke-width="1px">1.8</text><text x="0" y="82.6" dx="0em" dy="0.3em" style="text-anchor: end; visibility: hidden; font-family: Roboto, sans-serif; font-size: 12px; font-weight: 200;" fill="rgb(33, 33, 33)" stroke="none" stroke-width="1px">2</text><text x="0" y="70.79999999999998" dx="0em" dy="0.3em" style="text-anchor: end; visibility: inherit; font-family: Roboto, sans-serif; font-size: 12px; font-weight: 200;" fill="rgb(33, 33, 33)" stroke="none" stroke-width="1px">2.2</text><text x="0" y="59.00000000000001" dx="0em" dy="0.3em" style="text-anchor: end; visibility: hidden; font-family: Roboto, sans-serif; font-size: 12px; font-weight: 200;" fill="rgb(33, 33, 33)" stroke="none" stroke-width="1px">2.4</text><text x="0" y="47.19999999999999" dx="0em" dy="0.3em" style="text-anchor: end; visibility: inherit; font-family: Roboto, sans-serif; font-size: 12px; font-weight: 200;" fill="rgb(33, 33, 33)" stroke="none" stroke-width="1px">2.6</text><text x="0" y="35.40000000000001" dx="0em" dy="0.3em" style="text-anchor: end; visibility: hidden; font-family: Roboto, sans-serif; font-size: 12px; font-weight: 200;" fill="rgb(33, 33, 33)" stroke="none" stroke-width="1px">2.8</text><text x="0" y="23.599999999999994" dx="0em" dy="0.3em" style="text-anchor: end; visibility: inherit; font-family: Roboto, sans-serif; font-size: 12px; font-weight: 200;" fill="rgb(33, 33, 33)" stroke="none" stroke-width="1px">3</text><text x="0" y="11.799999999999978" dx="0em" dy="0.3em" style="text-anchor: end; visibility: hidden; font-family: Roboto, sans-serif; font-size: 12px; font-weight: 200;" fill="rgb(33, 33, 33)" stroke="none" stroke-width="1px">3.2</text><text x="0" y="0" dx="0em" dy="0.3em" style="text-anchor: end; visibility: hidden; font-family: Roboto, sans-serif; font-size: 12px; font-weight: 200;" fill="rgb(33, 33, 33)" stroke="none" stroke-width="1px">3.4</text></g><line x1="40" y1="0" x2="40" y2="177" fill="rgb(0, 0, 0)" stroke="rgb(204, 204, 204)" stroke-width="1px"></line></g></g><g transform="translate(40, 0)" clip-path="url(#clip_0)"><clipPath id="clip_0"><rect width="290" height="177"></rect></clipPath><g><g><g><line x1="0" y1="0" x2="0" y2="177" fill="rgb(0, 0, 0)" stroke="rgb(66, 66, 66)" stroke-width="1px" opacity="0.25"></line><line x1="24.166666666666664" y1="0" x2="24.166666666666664" y2="177" fill="rgb(0, 0, 0)" stroke="rgb(66, 66, 66)" stroke-width="1px" opacity="0.25"></line><line x1="48.33333333333333" y1="0" x2="48.33333333333333" y2="177" fill="rgb(0, 0, 0)" stroke="rgb(66, 66, 66)" stroke-width="1px" opacity="0.25"></line><line x1="72.5" y1="0" x2="72.5" y2="177" fill="rgb(0, 0, 0)" stroke="rgb(66, 66, 66)" stroke-width="1px" opacity="0.25"></line><line x1="96.66666666666666" y1="0" x2="96.66666666666666" y2="177" fill="rgb(0, 0, 0)" stroke="rgb(66, 66, 66)" stroke-width="1px" opacity="0.25"></line><line x1="120.83333333333334" y1="0" x2="120.83333333333334" y2="177" fill="rgb(0, 0, 0)" stroke="rgb(66, 66, 66)" stroke-width="1px" opacity="0.25"></line><line x1="145" y1="0" x2="145" y2="177" fill="rgb(0, 0, 0)" stroke="rgb(66, 66, 66)" stroke-width="1px" opacity="0.25"></line><line x1="169.16666666666669" y1="0" x2="169.16666666666669" y2="177" fill="rgb(0, 0, 0)" stroke="rgb(66, 66, 66)" stroke-width="1px" opacity="0.25"></line><line x1="193.33333333333331" y1="0" x2="193.33333333333331" y2="177" fill="rgb(0, 0, 0)" stroke="rgb(66, 66, 66)" stroke-width="1px" opacity="0.25"></line><line x1="217.5" y1="0" x2="217.5" y2="177" fill="rgb(0, 0, 0)" stroke="rgb(66, 66, 66)" stroke-width="1px" opacity="0.25"></line><line x1="241.66666666666669" y1="0" x2="241.66666666666669" y2="177" fill="rgb(0, 0, 0)" stroke="rgb(66, 66, 66)" stroke-width="1px" opacity="0.25"></line><line x1="265.8333333333333" y1="0" x2="265.8333333333333" y2="177" fill="rgb(0, 0, 0)" stroke="rgb(66, 66, 66)" stroke-width="1px" opacity="0.25"></line><line x1="290" y1="0" x2="290" y2="177" fill="rgb(0, 0, 0)" stroke="rgb(66, 66, 66)" stroke-width="1px" opacity="0.25"></line></g><g><line x1="0" y1="177" x2="290" y2="177" fill="rgb(0, 0, 0)" stroke="rgb(66, 66, 66)" stroke-width="1px" opacity="0.25"></line><line x1="0" y1="165.2" x2="290" y2="165.2" fill="rgb(0, 0, 0)" stroke="rgb(66, 66, 66)" stroke-width="1px" opacity="0.25"></line><line x1="0" y1="153.4" x2="290" y2="153.4" fill="rgb(0, 0, 0)" stroke="rgb(66, 66, 66)" stroke-width="1px" opacity="0.25"></line><line x1="0" y1="141.6" x2="290" y2="141.6" fill="rgb(0, 0, 0)" stroke="rgb(66, 66, 66)" stroke-width="1px" opacity="0.25"></line><line x1="0" y1="129.8" x2="290" y2="129.8" fill="rgb(0, 0, 0)" stroke="rgb(66, 66, 66)" stroke-width="1px" opacity="0.25"></line><line x1="0" y1="118.00000000000001" x2="290" y2="118.00000000000001" fill="rgb(0, 0, 0)" stroke="rgb(66, 66, 66)" stroke-width="1px" opacity="0.25"></line><line x1="0" y1="106.19999999999997" x2="290" y2="106.19999999999997" fill="rgb(0, 0, 0)" stroke="rgb(66, 66, 66)" stroke-width="1px" opacity="0.25"></line><line x1="0" y1="94.40000000000002" x2="290" y2="94.40000000000002" fill="rgb(0, 0, 0)" stroke="rgb(66, 66, 66)" stroke-width="1px" opacity="0.25"></line><line x1="0" y1="82.6" x2="290" y2="82.6" fill="rgb(0, 0, 0)" stroke="rgb(66, 66, 66)" stroke-width="1px" opacity="0.25"></line><line x1="0" y1="70.79999999999998" x2="290" y2="70.79999999999998" fill="rgb(0, 0, 0)" stroke="rgb(66, 66, 66)" stroke-width="1px" opacity="0.25"></line><line x1="0" y1="59.00000000000001" x2="290" y2="59.00000000000001" fill="rgb(0, 0, 0)" stroke="rgb(66, 66, 66)" stroke-width="1px" opacity="0.25"></line><line x1="0" y1="47.19999999999999" x2="290" y2="47.19999999999999" fill="rgb(0, 0, 0)" stroke="rgb(66, 66, 66)" stroke-width="1px" opacity="0.25"></line><line x1="0" y1="35.40000000000001" x2="290" y2="35.40000000000001" fill="rgb(0, 0, 0)" stroke="rgb(66, 66, 66)" stroke-width="1px" opacity="0.25"></line><line x1="0" y1="23.599999999999994" x2="290" y2="23.599999999999994" fill="rgb(0, 0, 0)" stroke="rgb(66, 66, 66)" stroke-width="1px" opacity="0.25"></line><line x1="0" y1="11.799999999999978" x2="290" y2="11.799999999999978" fill="rgb(0, 0, 0)" stroke="rgb(66, 66, 66)" stroke-width="1px" opacity="0.25"></line><line x1="0" y1="0" x2="290" y2="0" fill="rgb(0, 0, 0)" stroke="rgb(66, 66, 66)" stroke-width="1px" opacity="0.25"></line></g></g></g><g><g><line x1="0" y1="200.6" x2="290" y2="200.6" fill="rgb(0, 0, 0)" stroke="rgb(153, 153, 153)" stroke-width="1.5px"></line></g></g><g><g><line x1="24.166666666666664" y1="0" x2="24.166666666666664" y2="177" fill="rgb(0, 0, 0)" stroke="rgb(153, 153, 153)" stroke-width="1.5px"></line></g></g><g><g><g><g><g><path stroke="rgb(255, 112, 67)" stroke-width="2px" d="M26.583333333333332,8.611639833450319L26.583333333333332,16.573310513374043L26.583333333333332,23.300168050662336L26.583333333333332,32.73495089165978L26.583333333333332,38.85784208166022L26.583333333333332,43.33206563157553L26.583333333333332,46.70174140784836L29,55.64592933630154L29,62.76540034832739L29,68.6524141001089L29,73.60077836008087L29,77.76160613959385L29,81.28885907223275L29,84.2998813227614L29,86.9760456848356L29,89.34353311493722L31.416666666666668,91.72497385430536L31.416666666666668,93.7359419895205L31.416666666666668,95.51725319136489L31.416666666666668,97.0661809418824L31.416666666666668,98.42693372401774L31.416666666666668,99.60039390164822L31.416666666666668,100.5850335321594L31.416666666666668,101.47643180781402L33.833333333333336,102.59852798293879L33.833333333333336,103.27635321986499L33.833333333333336,103.89040535968832L33.833333333333336,104.48768589704545L33.833333333333336,105.10596169441358L33.833333333333336,105.67767195279576L33.833333333333336,106.24964208800893L33.833333333333336,106.7886057717411L36.25,107.64298901372608L36.25,108.45187711437879L36.25,108.99270304419477L36.25,109.48291950335543L36.25,109.87482786463951L36.25,110.23055577000773L36.25,110.55746364469643L36.25,110.82929625405103L36.25,111.06047202965955L38.666666666666664,111.23362809532092L38.666666666666664,111.46369024375622L38.666666666666664,111.70874748934114L38.666666666666664,111.94820878745857L38.666666666666664,112.1934941781518L38.666666666666664,112.43573244392078L38.666666666666664,112.63487208488213L38.666666666666664,112.81679635245922L38.666666666666664,112.99554629240033L41.083333333333336,113.18676365988898L41.083333333333336,113.36096387518847L41.083333333333336,113.52304373248427L41.083333333333336,113.6767256397618L41.083333333333336,113.79754058003788L41.083333333333336,113.92689294348004L41.083333333333336,114.05887518179337L41.083333333333336,114.18486635365176L43.5,114.4523438649205L43.5,114.67184654690233L43.5,114.93684790360845L43.5,115.16938246721325L43.5,115.39290206763539L43.5,115.57906497482132L43.5,115.73689003893824L45.916666666666664,115.95416357147316L45.916666666666664,116.1357524689628L45.916666666666664,116.31884211642284L45.916666666666664,116.46772741138864L45.916666666666664,116.59896666266727L45.916666666666664,116.71698048966095L48.33333333333333,116.96226107973943L48.33333333333333,117.17602538821632L48.33333333333333,117.38007617986572L48.33333333333333,117.54199804574104L48.33333333333333,117.67961161656758L48.33333333333333,117.82104594317904L48.33333333333333,117.94519155962487L48.33333333333333,118.05449837389476L48.33333333333333,118.16259072822601L50.75,118.30553134788809L50.75,118.50024701320308L50.75,118.6923310675294L50.75,118.8072020718811L50.75,118.89466231848223L50.75,118.98020734608251L50.75,119.07480231195478L53.166666666666664,119.1704957511369L53.166666666666664,119.25876709908788L53.166666666666664,119.34599065423168L53.166666666666664,119.43174625466776L53.166666666666664,119.49414446089658L53.166666666666664,119.54780422253381L53.166666666666664,119.6168474309827L53.166666666666664,119.69368037932121L53.166666666666664,119.7624834763827L53.166666666666664,119.84380852352606L55.583333333333336,119.86426518728557L55.583333333333336,119.90538568463806L55.583333333333336,119.9527936127268L55.583333333333336,120.02723315282468L55.583333333333336,120.09260066956726L55.583333333333336,120.14268676808877L55.583333333333336,120.18807995938751L55.583333333333336,120.23055956043932L55.583333333333336,120.26947376937939L55.583333333333336,120.31187656157208L55.583333333333336,120.34980236377301L55.583333333333336,120.38661645436672L55.583333333333336,120.42998432835496L58,120.46717267853442L58,120.43365214408543L58,120.42936637121248L58,120.48636051742814L58,120.54394997686433L58,120.61426126813434L58,120.68727904698996L58,120.76165487007223L58,120.83702545878626L60.41666666666667,120.8023331592141L60.41666666666667,120.74957762042825L60.41666666666667,120.72027817727772L60.41666666666667,120.69906906504752L60.41666666666667,120.80114752991454L60.41666666666667,120.8953273789112L60.41666666666667,120.96315525117363L60.41666666666667,121.02052035125567L60.41666666666667,121.08331008736334L60.41666666666667,121.16803100502177L60.41666666666667,121.24354245853223L60.41666666666667,121.30460655609005L60.41666666666667,121.36382102574201L60.41666666666667,121.41123800076808L62.833333333333336,121.59675595690253L62.833333333333336,121.73131389615011L62.833333333333336,121.81156225732722L62.833333333333336,121.89461119690647L62.833333333333336,121.96910129801897L62.833333333333336,122.04520476411896L62.833333333333336,122.11829424277879L62.833333333333336,122.1922699470687L62.833333333333336,122.26555293490503L65.25,122.28530869469621L65.25,122.38350898098858L65.25,122.47204124987493L65.25,122.49837803373171L65.25,122.57339610118261L65.25,122.64339027202818L65.25,122.71548885200171L65.25,122.78716668930976L65.25,122.87933985748826L65.25,122.97687540332518L65.25,123.0685564648123L65.25,123.14700313900096L65.25,123.22232144801143L65.25,123.29817991733948L65.25,123.36982964491553L65.25,123.43346829432205L67.66666666666667,123.49026404057395L67.66666666666667,123.57033332029154L67.66666666666667,123.61187295954119L67.66666666666667,123.62896793769066L67.66666666666667,123.63830326241002L67.66666666666667,123.65100739320333L67.66666666666667,123.66036165197373L67.66666666666667,123.68585953241629L67.66666666666667,123.71208866504546L67.66666666666667,123.73184244201306L67.66666666666667,123.74721506281499L67.66666666666667,123.77075858524726L67.66666666666667,123.78704680094785L67.66666666666667,123.81821653410506L67.66666666666667,123.85670817805759L70.08333333333333,123.85365094554042L70.08333333333333,123.95126586065223L70.08333333333333,124.06161244525826L70.08333333333333,124.18440773901916L70.08333333333333,124.29132599062723L70.08333333333333,124.35177003581258L70.08333333333333,124.41367546997279L70.08333333333333,124.4649030920007L72.5,124.61535285941888L72.5,124.79341617660327L72.5,124.89749258091422L72.5,124.99273557795293L72.5,125.09035543564895L72.5,125.18111675882663L72.5,125.28250359037176L72.5,125.38191811644747L72.5,125.47836734716734L72.5,125.57545139577547L72.5,125.66508456952225L72.5,125.74843605037415L72.5,125.82558400124525L74.91666666666667,125.86884184574797L74.91666666666667,125.93489446170145L74.91666666666667,125.97964861289518L74.91666666666667,126.06045731902118L74.91666666666667,126.10459708149385L74.91666666666667,126.12667561780297L74.91666666666667,126.18449662776422L74.91666666666667,126.23992789307403L74.91666666666667,126.30279487731377L74.91666666666667,126.36242970540766L74.91666666666667,126.42097077959335L74.91666666666667,126.46976985869962L74.91666666666667,126.51055338974538L77.33333333333333,126.57484511957406L77.33333333333333,126.59429678859371L77.33333333333333,126.61935461246424L77.33333333333333,126.65469406303059L77.33333333333333,126.69062655702109L77.33333333333333,126.73134112046056L77.33333333333333,126.77441545032052L77.33333333333333,126.80984883627805L77.33333333333333,126.85433709656651L77.33333333333333,126.90630633618656L77.33333333333333,126.92086675688097L77.33333333333333,126.94174980982145L77.33333333333333,126.95571787376538L77.33333333333333,126.96701112299374L77.33333333333333,126.97835934160952L79.75,127.0785553509278L79.75,127.1809689969943L79.75,127.27044456781984L79.75,127.33467801321994L79.75,127.36953298233831L79.75,127.39677438859225L79.75,127.46563588793538L79.75,127.50494627462491L79.75,127.54559540369033L79.75,127.57037630334617L82.16666666666667,127.57910898002812L82.16666666666667,127.64628751337249L82.16666666666667,127.7276300653393L82.16666666666667,127.7974715051656L82.16666666666667,127.87228727257829L82.16666666666667,127.95215323894293L82.16666666666667,128.01183045236223L82.16666666666667,128.06504260620468L82.16666666666667,128.1042366298946L82.16666666666667,128.12822532941823L82.16666666666667,128.15623616224093L82.16666666666667,128.19609204425225L84.58333333333334,128.14931938039942L84.58333333333334,128.0866246235379L84.58333333333334,128.14854605001705L84.58333333333334,128.2401166427117L84.58333333333334,128.29695944359895L84.58333333333334,128.3485705022507L87,128.53277033421116L87,128.70584283320184L87,128.83666082300064L87,128.9508784156194L87,129.05363286840787L87,129.06375209234218L87,129.07908839923854L87,129.10091490951146L87,129.11760872178434L89.41666666666667,129.1209597142461L89.41666666666667,129.10750504280588L89.41666666666667,129.1613342853924L89.41666666666667,129.26371358660924L89.41666666666667,129.3652811369764L89.41666666666667,129.47920458181423L89.41666666666667,129.56436278309948L89.41666666666667,129.64251970395048L89.41666666666667,129.7200139604478L91.83333333333333,129.85741231302626L91.83333333333333,129.9545467170203L91.83333333333333,130.06841854844603L91.83333333333333,130.17984161607222L91.83333333333333,130.27563406640178L91.83333333333333,130.3599995106588L91.83333333333333,130.45578146904452L91.83333333333333,130.53913399107066L91.83333333333333,130.61858439028876L91.83333333333333,130.69881188732296L91.83333333333333,130.7484778026284L94.25,130.90112307311108L94.25,131.04764050543625L94.25,131.177480513791L94.25,131.28708147779412L94.25,131.4013209192846L94.25,131.45958031884348L94.25,131.5067258585247L94.25,131.55543767408034L94.25,131.60495873332266L94.25,131.6511776707147L94.25,131.7010446658222L94.25,131.75685551662824L94.25,131.81816532974648L94.25,131.87611460129912L96.66666666666666,131.91662284632207L96.66666666666666,131.90315630009894L96.66666666666666,131.94402332107958L96.66666666666666,131.99662356388916L96.66666666666666,132.05340840584202L99.08333333333333,132.17361097118393L99.08333333333333,132.2607812767538L99.08333333333333,132.30674780907955L99.08333333333333,132.31135806634538L99.08333333333333,132.2908988341524L99.08333333333333,132.3284562547503L99.08333333333333,132.37148143361733L99.08333333333333,132.4180193089431L99.08333333333333,132.4776881844685L99.08333333333333,132.52098071210997L101.5,132.48408134227907L101.5,132.51442829502824L101.5,132.58547241161995L101.5,132.7003117711699L101.5,132.82150405980704L101.5,132.92713784353793L101.5,133.01719452112545L101.5,133.10617043981196L103.91666666666667,133.14892544887698L103.91666666666667,133.1705741174496L103.91666666666667,133.2027045842441L103.91666666666667,133.25954239459597L103.91666666666667,133.31908410937376L103.91666666666667,133.38564945631376L103.91666666666667,133.4547864598872L103.91666666666667,133.51972916626073L103.91666666666667,133.58065775027924L103.91666666666667,133.64880578017895L106.33333333333333,133.69805897493578L106.33333333333333,133.76591262991795L106.33333333333333,133.85409145934372L106.33333333333333,133.9093052490693L106.33333333333333,133.9653868534986L106.33333333333333,134.01612744871937L106.33333333333333,134.0691689026442L106.33333333333333,134.11191795737497L106.33333333333333,134.16329691217015L108.75,134.13440389355173L108.75,134.1407331811782L108.75,134.23117502062823L108.75,134.30340681708822L108.75,134.38845833175836L108.75,134.46784145746878L108.75,134.5427834890298L108.75,134.6342446601355L108.75,134.71541008868954L111.16666666666667,134.87880447171744L111.16666666666667,134.96199041777504L111.16666666666667,135.05653403920158L111.16666666666667,135.14192544836007L111.16666666666667,135.2242862111991L111.16666666666667,135.32179257313462L111.16666666666667,135.42250634056177L111.16666666666667,135.50974756665343L111.16666666666667,135.58345208028481L111.16666666666667,135.65574313959678L111.16666666666667,135.7417656407767L111.16666666666667,135.81885520535923L113.58333333333333,135.9380219234633L113.58333333333333,136.0048562761202L113.58333333333333,136.06831937101296L113.58333333333333,136.1285210425795L113.58333333333333,136.1745911487536L113.58333333333333,136.226174964373L113.58333333333333,136.28633061097844L113.58333333333333,136.3348647337406L113.58333333333333,136.3810604188469L113.58333333333333,136.41866272644262L113.58333333333333,136.4591640786874L113.58333333333333,136.50371752774367L113.58333333333333,136.55094027295226L113.58333333333333,136.60052160913108L116,136.65591338256957L116,136.77697567119125L116,136.90068755861472L116,137.02600152630953L116,137.14923885769974L116,137.25728737183147L116,137.35671816512306L116,137.4365747813649L116,137.512202597936L116,137.58472739007695L116,137.65639919174498L116,137.7120971056172L116,137.76675087743482L116,137.8162233005038L116,137.86664417792494L116,137.91770057808984L118.41666666666667,137.92853249080633L118.41666666666667,137.91419026450308L118.41666666666667,137.9157578847461L118.41666666666667,137.91833834793408L118.41666666666667,137.9345368184855L118.41666666666667,137.9552355433192L120.83333333333334,137.9448978822697L120.83333333333334,138.0213056002548L120.83333333333334,138.07557317054605L120.83333333333334,138.12683266502918L120.83333333333334,138.15210602562462L120.83333333333334,138.16655774979563L120.83333333333334,138.1886942003987L123.25,138.29840098454926L123.25,138.22827733531014L123.25,138.27532334537256L123.25,138.32987007226725L123.25,138.39761964456935L123.25,138.44808700743013L123.25,138.5040549973115L123.25,138.55176741291123L123.25,138.60662263605084L123.25,138.66112467804234L123.25,138.71484844868107L123.25,138.75969105778776L123.25,138.80447433601523L125.66666666666667,138.93705269086942L125.66666666666667,138.94491362024974L125.66666666666667,138.94656984763589L125.66666666666667,138.97032749852215L125.66666666666667,139.00758817267982L128.08333333333334,139.075258682492L128.08333333333334,139.1312857028173L128.08333333333334,139.1658969130778L128.08333333333334,139.2368325476477L128.08333333333334,139.32776236819842L128.08333333333334,139.4157092109976L128.08333333333334,139.51501165302932L128.08333333333334,139.60569092861644L128.08333333333334,139.67239571464475L128.08333333333334,139.7435240993102L128.08333333333334,139.8040454849519L130.5,139.8737830469873L130.5,139.90888197724686L130.5,139.96559003999693L130.5,140.04093867631877L130.5,140.1064722564718L130.5,140.18285968141964L130.5,140.2552802106424L130.5,140.3301567019816L130.5,140.3886041979804L130.5,140.4415336620675L130.5,140.49594663494474L132.91666666666666,140.60221387197228L132.91666666666666,140.70195818710997L132.91666666666666,140.7793988318379L132.91666666666666,140.82063531901784L132.91666666666666,140.86691946591563L132.91666666666666,140.89991544828567L132.91666666666666,140.94459562866876L132.91666666666666,140.9823218959665L132.91666666666666,141.03090574912648L132.91666666666666,141.08048248513836L135.33333333333334,141.183836794834L135.33333333333334,141.29913341492818L135.33333333333334,141.36704079505273L135.33333333333334,141.42270274427634L135.33333333333334,141.4622180588449L135.33333333333334,141.53031961511422L135.33333333333334,141.57324506791042L135.33333333333334,141.619275345746L135.33333333333334,141.66326961857968L135.33333333333334,141.71621519949105L135.33333333333334,141.77031889433732L135.33333333333334,141.8264374843401L135.33333333333334,141.8738795850305L135.33333333333334,141.91248909880377L135.33333333333334,141.94359262602845L135.33333333333334,141.9670344482517L137.75,142.05193280320947L137.75,142.1546816792579L137.75,142.2379855231641L137.75,142.3442938226885L137.75,142.42398761923437L137.75,142.48780825768674L137.75,142.5594709015215L137.75,142.605808927568L137.75,142.64549346571732L137.75,142.69086381887806L137.75,142.7242897015882L137.75,142.75837479005028L137.75,142.79497405043605L137.75,142.8364988786368L140.16666666666666,142.97244201196202L140.16666666666666,143.0842124538475L140.16666666666666,143.13561285625104L140.16666666666666,143.201051786699L140.16666666666666,143.26737811684737L140.16666666666666,143.3405066567087L140.16666666666666,143.39496327475317L140.16666666666666,143.44896865749266L140.16666666666666,143.49345916013687L140.16666666666666,143.5429821462015L140.16666666666666,143.5837751056806L140.16666666666666,143.62553728349582L140.16666666666666,143.66993143231915L142.58333333333331,143.80093037831605L142.58333333333331,143.89458140075726L142.58333333333331,143.98968576494443L142.58333333333331,144.08074299324045L142.58333333333331,144.15760077155758L142.58333333333331,144.22648567896417L142.58333333333331,144.2949944632681L142.58333333333331,144.35405972406906L142.58333333333331,144.4179597481629L142.58333333333331,144.47701281342083L142.58333333333331,144.5277441433226L142.58333333333331,144.57437539345023L142.58333333333331,144.61885214560948L142.58333333333331,144.6570339824563L145,144.73611133222974L145,144.78430131136335L145,144.82276570286382L145,144.86862887433912L145,144.9200753579257L145,144.96626506420316L145,145.01808083597564L145,145.0690168569145L145,145.11519356133303L147.41666666666666,144.87754288180267L147.41666666666666,144.89278981586713L147.41666666666666,144.92214237357584L147.41666666666666,144.96920232027918L147.41666666666666,144.98452728219476L147.41666666666666,145.01598941729736L147.41666666666666,145.0416304792361L147.41666666666666,145.06017800839015L147.41666666666666,145.07891910093736L147.41666666666666,145.1227421309236L147.41666666666666,145.16154203180471L147.41666666666666,145.198608366408L147.41666666666666,145.23293641325853L147.41666666666666,145.26315865358885L149.83333333333334,145.3593067541632L149.83333333333334,145.42675235292995L149.83333333333334,145.4934512205979L149.83333333333334,145.56115173147708L149.83333333333334,145.62284166797266L149.83333333333334,145.679146147818L152.25,145.6605372558018L152.25,145.7402974060657L152.25,145.82014045068712L152.25,145.9135144023264L152.25,146.00977171388837L152.25,146.0966731445114L152.25,146.17565990361717L152.25,146.24456143189963L154.66666666666666,146.34987235068309L154.66666666666666,146.4185002851395L154.66666666666666,146.49074722682568L154.66666666666666,146.55404227939627L154.66666666666666,146.62960110752798L154.66666666666666,146.70999608731836L154.66666666666666,146.80295032622166L154.66666666666666,146.88866084440215L157.08333333333331,146.9410578024634L157.08333333333331,147.00617499645912L157.08333333333331,147.08502819638997L157.08333333333331,147.1600273565101L157.08333333333331,147.2411295759544L157.08333333333331,147.31286668245716L157.08333333333331,147.37871579797556L157.08333333333331,147.43313047814289L157.08333333333331,147.48565049103422L157.08333333333331,147.53592799658526L157.08333333333331,147.58782160885337L157.08333333333331,147.63425902284033L157.08333333333331,147.67858099489413L157.08333333333331,147.73328341892915L159.5,147.92605430621884L159.5,147.98422462624345L159.5,147.98246285734507L159.5,147.98960969872311L159.5,148.00601624653422L159.5,148.01953747595746L159.5,148.03418212601673L159.5,148.0550269631115L159.5,148.09191004417232L159.5,148.1290139621774L159.5,148.1681273332204L159.5,148.19661203835582L159.5,148.22954289221235L161.91666666666666,148.1219708013365L161.91666666666666,148.17347232316314L161.91666666666666,148.2031057676043L161.91666666666666,148.19742098136223L161.91666666666666,148.1890409323504L161.91666666666666,148.18556382102608L161.91666666666666,148.1902256561388L161.91666666666666,148.20692636106574L161.91666666666666,148.233559559161L161.91666666666666,148.25381660427234L161.91666666666666,148.26822273281516L161.91666666666666,148.28831013252275L161.91666666666666,148.3086025464479L164.33333333333334,148.16445047443577L164.33333333333334,148.05532448019778L164.33333333333334,148.03876825253053L164.33333333333334,148.0425099020788L164.33333333333334,148.07984194748695L164.33333333333334,148.12707787447613L164.33333333333334,148.19156941959034L164.33333333333334,148.26407602935365L164.33333333333334,148.33682178173328L164.33333333333334,148.40941122629417L164.33333333333334,148.46719063684606L166.75,148.6278091786007L166.75,148.7663842538809L166.75,148.8677929811502L166.75,148.95059084615937L166.75,149.03157931780555L166.75,149.1262773939466L166.75,149.22382198801344L166.75,149.3218584344702L169.16666666666669,149.41522902743233L169.16666666666669,149.48490359834236L169.16666666666669,149.55717142928475L169.16666666666669,149.65470637841415L169.16666666666669,149.771230136804L169.16666666666669,149.879715191801L169.16666666666669,149.98619789372447L169.16666666666669,150.08862492487864L169.16666666666669,150.18442617132L169.16666666666669,150.2755257997915L169.16666666666669,150.35935645364765L171.58333333333334,150.42265271137052L171.58333333333334,150.50688550591863L171.58333333333334,150.5809476565756L171.58333333333334,150.6570888151592L171.58333333333334,150.73785994434084L174,150.86665986542442L174,150.96276482955926L174,151.0559231077184L174,151.1314434280815L174,151.20289268347435L174,151.26746556083532L174,151.3291342075086L174,151.3707275562133L174,151.41903221925233L176.41666666666666,151.3826165306978L176.41666666666666,151.41775973449072L176.41666666666666,151.51430524388377L176.41666666666666,151.61236597527517L176.41666666666666,151.69658516385138L176.41666666666666,151.7661504535981L176.41666666666666,151.83633792079019L176.41666666666666,151.9078540789356L176.41666666666666,151.9583893543389L176.41666666666666,152.01070491250468L176.41666666666666,152.0648886279991L176.41666666666666,152.1097256112987L178.83333333333334,152.18102436646316L178.83333333333334,152.25105914369493L178.83333333333334,152.33305025031672L178.83333333333334,152.38914123588782L178.83333333333334,152.43664573255464L178.83333333333334,152.48198143315432L178.83333333333334,152.5195632822167L178.83333333333334,152.55544310336398L178.83333333333334,152.5957239064458L178.83333333333334,152.6449352623263L178.83333333333334,152.70569841396582L181.25,152.8178509721675L181.25,152.9376414552373L181.25,153.03135288618907L181.25,153.12324026326098L181.25,153.21014977817507L181.25,153.29713884829016L181.25,153.35809588359402L183.66666666666666,153.41700802256938L183.66666666666666,153.47377108126642L183.66666666666666,153.53471702675296L183.66666666666666,153.6053302099631L183.66666666666666,153.66553921876448L183.66666666666666,153.70609968889943L183.66666666666666,153.74548774232198L183.66666666666666,153.78508936848488L183.66666666666666,153.81890534452532L183.66666666666666,153.8448946288957L183.66666666666666,153.8561618317313L183.66666666666666,153.86394525246715L183.66666666666666,153.86343349141927L183.66666666666666,153.86628077374795L186.08333333333334,154.0207041534737L186.08333333333334,154.10097252322313L186.08333333333334,154.16926238361418L186.08333333333334,154.22885728907835L186.08333333333334,154.31214044353007L186.08333333333334,154.34364648707316L186.08333333333334,154.37617323721673L186.08333333333334,154.40014105448094L186.08333333333334,154.4168039522421L186.08333333333334,154.4267926853656L188.5,154.52979702628366L188.5,154.61003964655475L188.5,154.65736008601618L188.5,154.67939299793414L188.5,154.71123931714695L188.5,154.7468033223685L188.5,154.77858321645553L188.5,154.8157656155006L190.91666666666666,154.87111934243413L190.91666666666666,154.93137542493972L190.91666666666666,154.98086021704913L190.91666666666666,155.00828271930683L190.91666666666666,155.03474712981784L190.91666666666666,155.07124577028856L190.91666666666666,155.1120260073755L190.91666666666666,155.15324525697164L190.91666666666666,155.1871229063469L190.91666666666666,155.22346619530992L190.91666666666666,155.25542585110915L193.33333333333331,155.34222099913598L193.33333333333331,155.3671808791833L193.33333333333331,155.40900592238137L193.33333333333331,155.44673362671244L193.33333333333331,155.48068701936765L193.33333333333331,155.5262176593966L193.33333333333331,155.5683212875113L195.75,155.6315067486809L195.75,155.68840591023402L195.75,155.72735617453392L195.75,155.7684002874276L195.75,155.80801183264273L195.75,155.85499416437526L195.75,155.89900791738867L195.75,155.93949343830067L195.75,155.978161287767L195.75,156.01814075573205L195.75,156.05317128827895L198.16666666666666,156.0437636738438L198.16666666666666,156.10539043894886L198.16666666666666,156.19889336411063L198.16666666666666,156.28842922533264L198.16666666666666,156.36027228077725L198.16666666666666,156.4362816697205L198.16666666666666,156.5034756361994L198.16666666666666,156.57312138404203L198.16666666666666,156.64102524647578L198.16666666666666,156.70296744707218L200.58333333333334,156.7170020219966L200.58333333333334,156.70823942933677L200.58333333333334,156.71649397441237L200.58333333333334,156.73436569826868L200.58333333333334,156.75780449364794L200.58333333333334,156.77897977363568L200.58333333333334,156.80219377612002L200.58333333333334,156.8275216295141L200.58333333333334,156.85243852119913L200.58333333333334,156.8876736233851L203,157.02489852554694L203,157.11567304874205L203,157.2398753862332L203,157.33105208811293L203,157.4113865375546L203,157.4873207712199L203,157.56060877311475L203,157.6288163861119L203,157.68986712976886L203,157.76060923546913L203,157.814657303292L205.41666666666669,157.74496449805153L205.41666666666669,157.74288921423764L205.41666666666669,157.75065272753048L205.41666666666669,157.7624235560435L205.41666666666669,157.7887393223684L205.41666666666669,157.8174564248392L205.41666666666669,157.8413451367384L205.41666666666669,157.87908444792802L207.83333333333334,158.0652688063307L207.83333333333334,158.16567984812133L207.83333333333334,158.25525885813474L207.83333333333334,158.32065288298713L207.83333333333334,158.39074229746777L207.83333333333334,158.45098474375635L207.83333333333334,158.50668091867982L207.83333333333334,158.5544593474258L210.25,158.70773039181427L210.25,158.85826439264838L210.25,159.0018616155113L210.25,159.12172950919063L210.25,159.24645998095284L210.25,159.3636854648001L210.25,159.47115566128855L210.25,159.5580893286531L210.25,159.59822583695666L210.25,159.63833206649022L210.25,159.67675739772744L212.66666666666666,159.71612298007057L212.66666666666666,159.73974388857167L212.66666666666666,159.7691457112482L212.66666666666666,159.82696090796173L212.66666666666666,159.87173727855736L212.66666666666666,159.91569099525978L212.66666666666666,159.9587450305159L212.66666666666666,160.0045137925504L212.66666666666666,160.0369021748881L212.66666666666666,160.06598964041586L212.66666666666666,160.08866668394018L215.08333333333334,160.16906229454545L215.08333333333334,160.24534968026833L215.08333333333334,160.3199172277643L215.08333333333334,160.3559757882778L215.08333333333334,160.35229442037175L215.08333333333334,160.34699763875383L215.08333333333334,160.34391270280003L215.08333333333334,160.33953648477907L215.08333333333334,160.32809270487832L215.08333333333334,160.32064301364898L217.5,160.39356978976343L217.5,160.39550187499754L217.5,160.39161432063443L217.5,160.41866004012095L217.5,160.43656562313402L217.5,160.46511026618597L217.5,160.48972028849352L219.91666666666666,160.58879674593547L219.91666666666666,160.67825838073037L219.91666666666666,160.7607100051318L219.91666666666666,160.8391570327273L219.91666666666666,160.9032385937086L219.91666666666666,160.95143108170487L222.33333333333334,161.1024994736035L222.33333333333334,161.19854901719722L222.33333333333334,161.27610813323858L222.33333333333334,161.3344196695784L222.33333333333334,161.37547867653413L222.33333333333334,161.4118002800123L222.33333333333334,161.44801684107156L222.33333333333334,161.46908857694748L222.33333333333334,161.4965110832245L222.33333333333334,161.52312302202992L222.33333333333334,161.55344885697428L222.33333333333334,161.5753848849231L224.75,161.78885907546376L224.75,161.9510085628918L224.75,162.08637721262042L224.75,162.16845587646543L224.75,162.17453906384907L224.75,162.1856576338948L224.75,162.18182424274724L224.75,162.17104349701862L224.75,162.171480872639L224.75,162.17626233030117L224.75,162.18885825030324L227.16666666666666,162.31861783300542L227.16666666666666,162.3529469475445L227.16666666666666,162.39765467922211L227.16666666666666,162.41844444301032L227.16666666666666,162.44495024944334L227.16666666666666,162.4538172663424L227.16666666666666,162.4626539657628L229.58333333333331,162.3125748378644L229.58333333333331,162.35003807976634L229.58333333333331,162.40093870334874L229.58333333333331,162.45265729113814L229.58333333333331,162.50119985163388L229.58333333333331,162.54342144677213L229.58333333333331,162.5796968532772L229.58333333333331,162.61023493622866L229.58333333333331,162.6270627736486L232,162.75337906474522L232,162.76570460880717L232,162.76015632530724L232,162.7842085391446L232,162.80868055985925L232,162.82968709983658L232,162.84701776397546L232,162.86188884156647L232,162.88312584935446L232,162.90492360015588L234.41666666666666,162.88869741846008L234.41666666666666,162.83661400978207L234.41666666666666,162.818994783354L234.41666666666666,162.79671054744975L234.41666666666666,162.84887759547476L234.41666666666666,162.89722673106186L234.41666666666666,162.93218445268863L234.41666666666666,162.95645578198844L234.41666666666666,162.9867114732519L234.41666666666666,163.01094090465332L234.41666666666666,163.032926368986L234.41666666666666,163.05151160027654L236.83333333333334,163.1747186071949L236.83333333333334,163.27551066884527L236.83333333333334,163.37368207165275L236.83333333333334,163.4484779697581L236.83333333333334,163.48649404116748L236.83333333333334,163.52083936696116L236.83333333333334,163.54986846225083L236.83333333333334,163.5783015337367L236.83333333333334,163.60507698282004L236.83333333333334,163.63122156593383L236.83333333333334,163.6522239868494L236.83333333333334,163.671940317891L236.83333333333334,163.67804474173474L239.25,163.57876502068402L239.25,163.45176320713742L239.25,163.37595153997228L239.25,163.38605851006898L239.25,163.4004686559118L239.25,163.4381416597598L239.25,163.4687980759841L239.25,163.50317259324257L241.66666666666669,163.61586190748247L241.66666666666669,163.706662336922L241.66666666666669,163.7933062381938L241.66666666666669,163.87222540895394L241.66666666666669,163.93356957509357L241.66666666666669,163.97494311164346L244.08333333333334,163.98734400827686L244.08333333333334,164.0231673054998L244.08333333333334,164.08029800797001L244.08333333333334,164.13657808619016L244.08333333333334,164.17759513439148L244.08333333333334,164.21709234796305L246.5,164.3503718008421L246.5,164.45203014873772L246.5,164.52456313381737L246.5,164.59612455854455L246.5,164.66251485869444L246.5,164.692427627632L246.5,164.73116971310927L246.5,164.77148521417485L246.5,164.82102440625826L246.5,164.85463465719303L246.5,164.89066483751373L248.91666666666666,165.13198358562255L248.91666666666666,165.27618792046437L248.91666666666666,165.42011445810263L248.91666666666666,165.50793371128412L248.91666666666666,165.56758506527547L248.91666666666666,165.60788127223108L248.91666666666666,165.640292284861L248.91666666666666,165.667041209217L248.91666666666666,165.68997466299163L251.33333333333334,165.73645289169315L251.33333333333334,165.78214118217664L251.33333333333334,165.82350960720058L251.33333333333334,165.8663201308355L251.33333333333334,165.89347906662027L251.33333333333334,165.9219940488075L251.33333333333334,165.94828693104864L251.33333333333334,165.96630303374357L253.75,165.9713823385622L253.75,165.9999847905046L253.75,166.0121416250265L253.75,166.0313015796171L253.75,166.03956207479587L253.75,166.04558052304657L253.75,166.05649006644L253.75,166.07062998558237L253.75,166.08303041326897L256.1666666666667,166.21139489406846L256.1666666666667,166.28690821761666L256.1666666666667,166.3387038714989L256.1666666666667,166.39475371787336L256.1666666666667,166.44788308751498L256.1666666666667,166.49148247342626L256.1666666666667,166.535969836476L256.1666666666667,166.57640380920412L256.1666666666667,166.61425570128728L256.1666666666667,166.64941847209582L258.58333333333337,166.63146348665384L258.58333333333337,166.57390278137441L258.58333333333337,166.5222291535028L258.58333333333337,166.47538126256006L258.58333333333337,166.43456317473095L258.58333333333337,166.40236445758947L258.58333333333337,166.37543372064331L258.58333333333337,166.35931904457036L258.58333333333337,166.3477270509295L258.58333333333337,166.34798366310375L261,166.35250495113996L261,166.3750311405079L261,166.38793508759L261,166.40278984609557L261,166.43044229257254L261,166.44455813956998L261,166.44487016591532L263.4166666666667,166.6264147402192L263.4166666666667,166.68560192657287L263.4166666666667,166.71185784408587L263.4166666666667,166.7352079123823L263.4166666666667,166.76110760172602L263.4166666666667,166.7853286374646L263.4166666666667,166.80848614589232L263.4166666666667,166.83547136768763L263.4166666666667,166.86798084364148L263.4166666666667,166.89529524581155L263.4166666666667,166.9142230639825L265.8333333333333,166.95149749253898L265.8333333333333,166.9899170659778L265.8333333333333,167.01724118567085L265.8333333333333,167.01841920741148L265.8333333333333,167.0102163285152L265.8333333333333,167.00065347568486L265.8333333333333,166.99183427438615L265.8333333333333,166.99215857056979L265.8333333333333,166.99662617400082L265.8333333333333,167.0044989015366L265.8333333333333,167.01424941245915L265.8333333333333,167.02749485535412L265.8333333333333,167.0395176440958" style="fill: none;" fill="none"></path></g></g></g></g><g opacity="0.2"><g><g><g><path stroke="rgb(255, 112, 67)" stroke-width="2px" d="M26.583333333333332,8.611639833450319L26.583333333333332,24.136897659301745L26.583333333333332,35.76167163848876L26.583333333333332,58.302033042907716L26.583333333333332,60.43724498748778L26.583333333333332,62.56300411224365L26.583333333333332,63.66217575073241L29,106.9103597164154L29,108.29450151920318L29,110.01022348403929L29,111.32709834575651L29,111.85042867660522L29,112.09291741847993L29,112.1412998199463L29,113.02629897594453L29,113.48590717315672L31.416666666666668,117.05777189731597L31.416666666666668,115.96862981319427L31.416666666666668,115.91848204135896L31.416666666666668,115.39043233394624L31.416666666666668,115.01283297538755L31.416666666666668,114.30306265354157L31.416666666666668,113.24047145843504L31.416666666666668,113.20742878913877L33.833333333333336,117.69319972991943L33.833333333333336,112.58262131214141L33.833333333333336,112.4829095363617L33.833333333333336,112.9950287103653L33.833333333333336,114.05939230918884L33.833333333333336,114.08594319820405L33.833333333333336,114.78450236320496L33.833333333333336,114.94084665775299L36.25,120.73169753551484L36.25,120.9924800157547L36.25,117.4719516992569L36.25,117.25011286735533L36.25,116.14622185230253L36.25,115.97630319595335L36.25,115.88425776958466L36.25,115.29543993473054L36.25,114.88834271430967L38.666666666666664,114.12193284034728L38.666666666666664,115.32789180278779L38.666666666666664,115.85181293487547L38.666666666666664,116.02173159122465L38.666666666666664,116.39048299789428L38.666666666666664,116.60346684455871L38.666666666666664,116.07896194458007L38.666666666666664,115.97865936756135L38.666666666666664,116.1167169570923L41.083333333333336,116.54034254550935L41.083333333333336,116.42882881164552L41.083333333333336,116.38871059417724L41.083333333333336,116.40405032634735L41.083333333333336,115.94916150569917L41.083333333333336,116.23826024532316L41.083333333333336,116.42470023632048L41.083333333333336,116.45006952285766L43.5,119.27499268054963L43.5,118.64014861583709L43.5,119.73991105556489L43.5,119.39417276382446L43.5,119.46319804191589L43.5,118.97644815444947L43.5,118.62304351329804L45.916666666666664,119.93519899845123L45.916666666666664,119.46909902095794L45.916666666666664,119.68562767505645L45.916666666666664,119.21008894443513L45.916666666666664,119.0201111793518L45.916666666666664,118.89739332199096L48.33333333333333,121.50047061443328L48.33333333333333,121.1364385843277L48.33333333333333,121.16535267829894L48.33333333333333,120.54939315319062L48.33333333333333,120.23846290111543L48.33333333333333,120.45380995273591L48.33333333333333,120.25852200984954L48.33333333333333,120.09332273006439L48.33333333333333,120.18064174652099L50.75,120.97654948234558L50.75,122.14179942607879L50.75,122.28753039836884L50.75,120.95884654521942L50.75,120.53405342102052L50.75,120.58479199409484L50.75,120.85028681755065L53.166666666666664,120.96770153045655L53.166666666666664,120.91754672527314L53.166666666666664,120.98598823547363L53.166666666666664,121.04499099254609L53.166666666666664,120.66857323646545L53.166666666666664,120.55824110507965L53.166666666666664,120.91754672527314L53.166666666666664,121.14174876213073L53.166666666666664,121.05973992347718L53.166666666666664,121.37775275707244L55.583333333333336,120.25025782585145L55.583333333333336,120.6815497636795L55.583333333333336,120.84793064594268L55.583333333333336,121.43321070671082L55.583333333333336,121.32759795188903L55.583333333333336,121.08923778533936L55.583333333333336,121.04617259502412L55.583333333333336,121.03377983570098L55.583333333333336,121.00545654296874L55.583333333333336,121.11402330398559L55.583333333333336,121.06741330623626L55.583333333333336,121.0833368062973L55.583333333333336,121.25089929103851L58,121.17124662399291L58,119.79890677928925L58,120.34819719791412L58,121.56595811843872L58,121.63499042987824L58,121.94651148319245L58,122.07100174427033L58,122.17129728794097L58,122.26569888591766L60.41666666666667,120.14465210437776L60.41666666666667,119.74934980869293L60.41666666666667,120.16471121311187L60.41666666666667,120.29686782360078L60.41666666666667,122.737109041214L60.41666666666667,122.68165109157562L60.41666666666667,122.24976835250854L60.41666666666667,122.10875675678253L60.41666666666667,122.2745468378067L60.41666666666667,122.77546188831329L60.41666666666667,122.67634091377259L60.41666666666667,122.46335003376007L60.41666666666667,122.48753771781922L60.41666666666667,122.31112728118896L62.833333333333336,125.11775670051574L62.833333333333336,124.2852685213089L62.833333333333336,123.33478186130523L62.833333333333336,123.47106704711913L62.833333333333336,123.38315722942352L62.833333333333336,123.48995158672332L62.833333333333336,123.50588212013244L62.833333333333336,123.59673891067504L62.833333333333336,123.65692327022553L65.25,122.66041038036347L65.25,124.24809727668762L65.25,124.15311191082002L65.25,122.99848232269287L65.25,123.99794218540193L65.25,123.97257289886474L65.25,124.0846704006195L65.25,124.14839253425598L65.25,124.62983224391937L65.25,124.82924876213073L65.25,124.80978045463561L65.25,124.63690779209136L65.25,124.65283832550048L65.25,124.73898277282714L65.25,124.73071858882903L65.25,124.6422179698944L67.66666666666667,124.56905708312989L67.66666666666667,125.09121284484863L67.66666666666667,124.40091083049775L67.66666666666667,123.95368835926055L67.66666666666667,123.81563076972961L67.66666666666667,123.89232943058013L67.66666666666667,123.8380530834198L67.66666666666667,124.17021701335906L67.66666666666667,124.21034226417541L67.66666666666667,124.1070927143097L67.66666666666667,124.0392420053482L67.66666666666667,124.21800861358642L67.66666666666667,124.09647235870361L67.66666666666667,124.41034958362579L67.66666666666667,124.58794162273408L70.08333333333333,123.79557166099549L70.08333333333333,125.80570254325866L70.08333333333333,126.15793261528016L70.08333333333333,126.51723823547363L70.08333333333333,126.32254109382629L70.08333333333333,125.5000824689865L70.08333333333333,125.58975765705108L70.08333333333333,125.43813273906707L72.5,127.47363290786743L72.5,128.17632064819335L72.5,126.87477848529815L72.5,126.80220839977264L72.5,126.94499239921569L72.5,126.90545794963836L72.5,127.20872185230255L72.5,127.27067158222198L72.5,127.31078979969024L72.5,127.41994032859802L72.5,127.36802015304566L72.5,127.3320305109024L72.5,127.29132149219514L74.91666666666667,126.69070169925689L74.91666666666667,127.18983731269836L74.91666666666667,126.82994089126586L74.91666666666667,127.59575996398925L74.91666666666667,126.94321999549865L74.91666666666667,126.5461523294449L74.91666666666667,127.28305730819702L74.91666666666667,127.29308686256408L74.91666666666667,127.49722979068756L74.91666666666667,127.49545738697051L74.91666666666667,127.5332194328308L74.91666666666667,127.39692721366883L74.91666666666667,127.28542051315307L77.33333333333333,127.79635808467864L77.33333333333333,126.96386990547181L77.33333333333333,127.09544274806976L77.33333333333333,127.32612953186035L77.33333333333333,127.37333033084869L77.33333333333333,127.50490317344665L77.33333333333333,127.59281299114227L77.33333333333333,127.48307166099548L77.33333333333333,127.69960031509399L77.33333333333333,127.89370665550233L77.33333333333333,127.19751069545747L77.33333333333333,127.33852229118348L77.33333333333333,127.22110757827758L77.33333333333333,127.18158016204835L77.33333333333333,127.19397292137145L79.75,128.982257938385L79.75,129.12680730819702L79.75,128.97046301364898L79.75,128.55510160923004L79.75,128.03177127838134L79.75,127.91435656547546L79.75,128.7739934682846L79.75,128.25183770656585L79.75,128.31792304515838L79.75,128.0412100315094L82.16666666666667,127.74502871036529L82.16666666666667,128.92267141342163L82.16666666666667,129.27312908172607L82.16666666666667,129.12445113658904L82.16666666666667,129.2937789916992L82.16666666666667,129.46959862709045L82.16666666666667,129.1456918478012L82.16666666666667,129.07606873512267L82.16666666666667,128.84891972541809L82.16666666666667,128.5840086698532L82.16666666666667,128.68843982219695L82.16666666666667,128.95335087776184L84.58333333333334,127.26064202785493L84.58333333333334,126.8954283952713L84.58333333333334,129.32504925727844L84.58333333333334,129.9799524307251L84.58333333333334,129.3769694328308L84.58333333333334,129.32917783260345L87,132.0325577020645L87,131.9942118883133L87,131.3221965789795L87,131.12100765705108L87,131.00596318244934L87,129.25601694583892L87,129.37047765254974L87,129.51561782360076L87,129.43479058742523L89.41666666666667,129.18462846279144L89.41666666666667,128.85186669826507L89.41666666666667,130.18408832550048L89.41666666666667,131.2089174747467L89.41666666666667,131.29506192207336L89.41666666666667,131.64374718666076L89.41666666666667,131.1823665857315L89.41666666666667,131.12749943733215L89.41666666666667,131.19240317344665L91.83333333333333,132.46797821521758L91.83333333333333,131.80009851455688L91.83333333333333,132.23198125362396L91.83333333333333,132.29687795639038L91.83333333333333,132.09568903446197L91.83333333333333,131.96294162273406L91.83333333333333,132.27563724517822L91.83333333333333,132.12283072471618L91.83333333333333,132.12814090251922L91.83333333333333,132.22313330173492L91.83333333333333,131.69212958812713L94.25,133.80138144493102L94.25,133.83147010803222L94.25,133.6444393157959L94.25,133.36949870586395L94.25,133.57186923027038L94.25,132.56650838851928L94.25,132.40249071121215L94.25,132.48096177577972L94.25,132.54585847854614L94.25,132.529337143898L94.25,132.64851722717285L94.25,132.81726131439208L94.25,132.98305139541625L94.25,132.9771504163742L96.66666666666666,132.68627927303314L96.66666666666666,131.64729199409484L96.66666666666666,132.72049651145934L96.66666666666666,132.9960279226303L96.66666666666666,133.1323201417923L99.08333333333333,134.45745918750762L99.08333333333333,133.91701672077178L99.08333333333333,133.18011174201965L99.08333333333333,132.39895293712615L99.08333333333333,131.90217349529266L99.08333333333333,133.04204711914062L99.08333333333333,133.18895969390869L99.08333333333333,133.30223879814147L99.08333333333333,133.61139664649963L99.08333333333333,133.34353861808776L101.5,131.78299341201782L101.5,133.091020321846L101.5,133.93531045913696L101.5,134.88225934505462L101.5,135.1241572856903L101.5,134.934179520607L101.5,134.72827122211456L101.5,134.79671273231506L103.91666666666667,133.96127054691314L103.91666666666667,133.58189878463745L103.91666666666667,133.81318340301513L103.91666666666667,134.3394607067108L103.91666666666667,134.45037660598754L103.91666666666667,134.650390958786L103.91666666666667,134.76838943958282L103.91666666666667,134.75364050865173L103.91666666666667,134.73830077648162L103.91666666666667,134.94361827373504L106.33333333333333,134.63386962413787L106.33333333333333,135.05513200759887L106.33333333333333,135.52948913574218L106.33333333333333,134.95836720466613L106.33333333333333,135.03093729019164L106.33333333333333,134.9801987171173L106.33333333333333,135.07695648670196L106.33333333333333,134.92414996623992L106.33333333333333,135.1394970178604L108.75,133.58543655872344L108.75,134.26098964214324L108.75,135.94956991672515L108.75,135.67581090927123L108.75,136.0044370651245L108.75,135.97612080574035L108.75,135.9666820526123L108.75,136.3720068693161L108.75,136.25755319595336L111.16666666666667,137.98329768180847L111.16666666666667,136.54252336025237L111.16666666666667,136.85286281108856L111.16666666666667,136.76436219215392L111.16666666666667,136.78914067745208L111.16666666666667,137.17441341876983L111.16666666666667,137.3360678911209L111.16666666666667,137.16733083724975L111.16666666666667,136.98383781909942L111.16666666666667,137.0292732477188L111.16666666666667,137.37619314193725L111.16666666666667,137.28355691432952L113.58333333333333,138.20218954086303L113.58333333333333,137.27470896244049L113.58333333333333,137.27411816120147L113.58333333333333,137.2723527908325L113.58333333333333,137.04992315769195L113.58333333333333,137.20626745223998L113.58333333333333,137.42928788661956L113.58333333333333,137.2570130586624L113.58333333333333,137.25877842903137L113.58333333333333,137.13310656547546L113.58333333333333,137.22868976593017L113.58333333333333,137.35023305416107L113.58333333333333,137.44817242622375L113.58333333333333,137.54256699085235L116,137.70835707187652L116,139.0771591424942L116,139.25121340751647L116,139.4069669008255L116,139.4907481431961L116,139.31020913124084L116,139.24590322971343L116,138.95385048389434L116,138.94913110733032L116,138.96269843578338L116,139.01816341876983L116,138.770357465744L116,138.80517253875732L116,138.75619933605194L116,138.82464084625244L116,138.8877721786499L118.41666666666667,138.13433883190154L118.41666666666667,137.64168796539306L118.41666666666667,137.94554266929626L118.41666666666667,137.96736714839935L118.41666666666667,138.2423077583313L118.41666666666667,138.34851131439208L120.83333333333334,137.74848232269287L120.83333333333334,139.47305223941802L120.83333333333334,139.10665700435638L120.83333333333334,139.1007630586624L120.83333333333334,138.63229987621307L120.83333333333334,138.44114050865173L120.83333333333334,138.60928676128387L123.25,140.3828298807144L123.25,136.8959280014038L123.25,139.16919753551483L123.25,139.36625788211822L123.25,139.6848615169525L123.25,139.4069669008255L123.25,139.56744680404663L123.25,139.45830330848693L123.25,139.64887187480926L123.25,139.69666347503662L123.25,139.73560009002685L123.25,139.61170063018798L123.25,139.65535662174224L125.66666666666667,141.456041431427L125.66666666666667,139.09427127838134L125.66666666666667,138.97803816795349L125.66666666666667,139.42172286510467L125.66666666666667,139.71554098129272L128.08333333333334,140.36099836826324L128.08333333333334,140.19579908847808L128.08333333333334,139.82350990772247L128.08333333333334,140.58460960388183L128.08333333333334,141.05542895793914L128.08333333333334,141.08669922351837L128.08333333333334,141.40175805091857L128.08333333333334,141.32859716415405L128.08333333333334,140.9397866487503L128.08333333333334,141.09496340751647L128.08333333333334,140.95395181179046L130.5,141.19879672527313L130.5,140.5757616519928L130.5,141.0430432319641L130.5,141.47256276607513L130.5,141.35161027908325L130.5,141.63422075510024L130.5,141.63127026557922L130.5,141.75281003713607L130.5,141.49910662174224L130.5,141.44719347953796L130.5,141.52979311943054L132.91666666666666,142.6212913751602L132.91666666666666,142.59710017442703L132.91666666666666,142.2507710814476L132.91666666666666,141.604128575325L132.91666666666666,141.746318256855L132.91666666666666,141.52683911323547L132.91666666666666,141.79351905584335L132.91666666666666,141.6991209745407L132.91666666666666,141.95399895906448L132.91666666666666,142.02244046926498L135.33333333333334,143.1475686788559L135.33333333333334,143.4897691965103L135.33333333333334,142.65728101730346L135.33333333333334,142.4802797794342L135.33333333333334,142.2130090355873L135.33333333333334,142.82424918413162L135.33333333333334,142.38882867097854L135.33333333333334,142.4938506245613L135.33333333333334,142.49916080236434L135.33333333333334,142.72218123674392L135.33333333333334,142.79828909635543L135.33333333333334,142.89269069433212L135.33333333333334,142.77527949810028L135.33333333333334,142.64606986045837L135.33333333333334,142.53455964326858L135.33333333333334,142.4124290704727L137.75,143.66500154733657L137.75,144.10691032409667L137.75,143.82075855731964L137.75,144.3641515135765L137.75,143.93816975355148L137.75,143.7004003882408L137.75,143.92106113433837L137.75,143.4862314224243L137.75,143.39949969053268L137.75,143.55290052890777L137.75,143.35938147306442L137.75,143.40599147081375L137.75,143.49035999774932L137.75,143.62547061443328L140.16666666666666,145.5553615450859L140.16666666666666,145.20785084962844L140.16666666666666,144.1122205018997L140.16666666666666,144.44439146518707L140.16666666666666,144.52757838964462L140.16666666666666,144.72994891405105L140.16666666666666,144.42963901758193L140.16666666666666,144.47507092952728L140.16666666666666,144.3387787103653L140.16666666666666,144.48391888141632L140.16666666666666,144.35884133577346L140.16666666666666,144.41901866197585L140.16666666666666,144.51342025995254L142.58333333333331,146.28991035223007L142.58333333333331,145.67395082712173L142.58333333333331,145.79666868448257L142.58333333333331,145.8108303308487L142.58333333333331,145.6178985595703L142.58333333333331,145.53529891967773L142.58333333333331,145.5966613650322L142.58333333333331,145.47629967927932L142.58333333333331,145.63206020593643L142.58333333333331,145.5990210533142L142.58333333333331,145.49163941144943L142.58333333333331,145.4603691458702L142.58333333333331,145.46391043663024L142.58333333333331,145.38248888254165L145,146.2385809779167L145,145.6999109148979L145,145.55358914136886L145,145.74002913236617L145,145.89755854606628L145,145.8438694834709L145,146.00258049964904L145,146.0368012547493L145,145.99255094528198L147.41666666666666,140.36217997074127L147.41666666666666,145.18248156309127L147.41666666666666,145.47984097003936L147.41666666666666,145.86334130764007L147.41666666666666,145.27570155858993L147.41666666666666,145.6137699842453L147.41666666666666,145.5288106560707L147.41666666666666,145.4125810623169L147.41666666666666,145.43499985933303L147.41666666666666,145.9553797006607L147.41666666666666,145.8987401485443L147.41666666666666,145.90286872386932L147.41666666666666,145.8851693034172L147.41666666666666,145.8373812198639L149.83333333333334,147.1861206650734L149.83333333333334,146.708218729496L149.83333333333334,146.76072970628738L149.83333333333334,146.847461438179L149.83333333333334,146.79495046138763L149.83333333333334,146.7489312648773L152.25,145.3069683074951L152.25,147.25574026107788L152.25,147.33715829849243L152.25,147.6876194834709L152.25,147.838660633564L152.25,147.74780032634735L152.25,147.67640832662582L152.25,147.55369046926498L154.66666666666666,148.3507798075676L154.66666666666666,147.72243103981017L154.66666666666666,147.86343911886215L154.66666666666666,147.75664827823638L154.66666666666666,148.06521884202957L154.66666666666666,148.2375007033348L154.66666666666666,148.56908086538314L154.66666666666666,148.51716068983077L157.08333333333331,147.93660000562667L157.08333333333331,148.24340168237686L157.08333333333331,148.58323899507522L157.08333333333331,148.58501139879226L157.08333333333331,148.78207174539565L157.08333333333331,148.6758717060089L157.08333333333331,148.62984899282455L157.08333333333331,148.4670094013214L157.08333333333331,148.48353073596954L157.08333333333331,148.4912006020546L157.08333333333331,148.57380024194717L157.08333333333331,148.51656988859176L157.08333333333331,148.52069846391677L157.08333333333331,148.77262947559356L159.5,151.58870116472244L159.5,149.0894607067108L159.5,147.94898924827575L159.5,148.125399684906L159.5,148.31774065494537L159.5,148.27644083499908L159.5,148.31243047714233L159.5,148.4510788679123L159.5,148.7926885843277L159.5,148.83398840427398L159.5,148.91128138303756L159.5,148.73782143592834L159.5,148.85522911548614L161.91666666666666,146.07810107469558L161.91666666666666,149.15200123786926L161.91666666666666,148.76614121198654L161.91666666666666,148.08941004276275L161.91666666666666,148.02982000112533L161.91666666666666,148.11949870586395L161.91666666666666,148.2788005232811L161.91666666666666,148.5242397546768L161.91666666666666,148.73959032297134L161.91666666666666,148.63870046138763L161.91666666666666,148.54193917512893L161.91666666666666,148.66997072696685L161.91666666666666,148.694158411026L164.33333333333334,145.42556110620498L164.33333333333334,145.9819305896759L164.33333333333334,147.72419992685317L164.33333333333334,148.11360124349594L164.33333333333334,148.7891508102417L164.33333333333334,149.02456048727035L164.33333333333334,149.4169087767601L164.33333333333334,149.64170161485671L164.33333333333334,149.71899107694625L164.33333333333334,149.78861067295074L164.33333333333334,149.56499943733215L166.75,151.67956147193908L166.75,151.3993106842041L166.75,150.7945587992668L166.75,150.52375028133392L166.75,150.57036027908325L166.75,150.92554084062576L166.75,151.0771692752838L166.75,151.18455091714858L169.16666666666669,151.1892702937126L169.16666666666669,150.80872044563293L169.16666666666669,150.93026021718978L169.16666666666669,151.50787041187286L169.16666666666669,151.98518154621124L169.16666666666669,151.94093123674392L169.16666666666669,152.00936923027038L169.16666666666669,152.03473851680755L169.16666666666669,152.00464985370635L169.16666666666669,152.00641874074935L169.16666666666669,151.95213887691497L171.58333333333334,151.6252816081047L171.58333333333334,152.10730860233306L171.58333333333334,151.98812851905822L171.58333333333334,152.10377082824706L171.58333333333334,152.27251139879226L174,153.31385836601257L174,152.78875914812087L174,152.82593039274215L174,152.5663295149803L174,152.56042853593826L174,152.4943502306938L174,152.50083849430084L174,152.16100118160247L174,152.3368208169937L176.41666666666666,150.69071844816207L176.41666666666666,152.08548060655593L176.41666666666666,153.34866992235183L176.41666666666666,153.47551987171173L176.41666666666666,153.29674974679946L176.41666666666666,153.087890958786L176.41666666666666,153.16989979743957L176.41666666666666,153.26666108369827L176.41666666666666,152.9185595870018L176.41666666666666,153.0047005176544L176.41666666666666,153.09437922239303L176.41666666666666,152.96162829399108L178.83333333333334,153.53570071458816L178.83333333333334,153.58171991109847L178.83333333333334,153.89088127613067L178.83333333333334,153.45486996173858L178.83333333333334,153.33923116922378L178.83333333333334,153.3433597445488L178.83333333333334,153.233618414402L178.83333333333334,153.23715970516204L178.83333333333334,153.3610591650009L178.83333333333334,153.57995102405548L178.83333333333334,153.86019829511642L181.25,154.9487495779991L181.25,155.213660633564L181.25,154.81187007427215L181.25,154.86910042762756L181.25,154.8614305615425L181.25,154.94993118047714L181.25,154.51627955436706L183.66666666666666,154.5363386631012L183.66666666666666,154.5522691965103L183.66666666666666,154.6926899909973L183.66666666666666,154.9469806909561L183.66666666666666,154.80951038599014L183.66666666666666,154.47674862146377L183.66666666666666,154.49386075735092L183.66666666666666,154.53752026557922L183.66666666666666,154.46140888929366L183.66666666666666,154.33869103193283L183.66666666666666,154.0702386856079L183.66666666666666,154.0118302464485L183.66666666666666,153.8537100315094L183.66666666666666,153.92037913799285L186.08333333333334,156.95474836826324L186.08333333333334,155.6260715484619L186.08333333333334,155.46676973104476L186.08333333333334,155.36116049289703L186.08333333333334,155.8945203781128L186.08333333333334,154.94226131439208L186.08333333333334,154.99418148994445L186.08333333333334,154.85552958250045L186.08333333333334,154.73339900970458L186.08333333333334,154.61657861471176L188.5,156.48687950372695L188.5,156.13464943170547L188.5,155.55644843578338L188.5,155.09801832437515L188.5,155.3163193821907L188.5,155.42251942157745L188.5,155.3824012041092L188.5,155.52223119735717L190.91666666666666,155.92284015417098L190.91666666666666,156.07624099254608L190.91666666666666,155.92107126712799L190.91666666666666,155.5293102622032L190.91666666666666,155.53757092952728L190.91666666666666,155.76471993923187L190.91666666666666,155.88685051202773L190.91666666666666,155.9364109992981L190.91666666666666,155.8307982444763L190.91666666666666,155.9139886856079L190.91666666666666,155.86265931129455L193.33333333333331,156.9913288116455L193.33333333333331,155.8414186000824L193.33333333333331,156.20368174314498L193.33333333333331,156.16356000900268L193.33333333333331,156.12580147981643L193.33333333333331,156.39129981994628L193.33333333333331,156.36829022169113L195.75,156.8320305109024L195.75,156.76948997974395L195.75,156.46741119623184L195.75,156.54823843240737L195.75,156.5606311917305L195.75,156.74765846729278L195.75,156.7352692246437L195.75,156.7087183356285L195.75,156.71285042762756L195.75,156.77775064706802L195.75,156.7187514066696L198.16666666666666,155.86501899957656L198.16666666666666,157.2762989759445L198.16666666666666,157.97544894218444L198.16666666666666,157.98961058855056L198.16666666666666,157.7252903342247L198.16666666666666,157.8804600596428L198.16666666666666,157.7801609992981L198.16666666666666,157.8963905930519L198.16666666666666,157.93119863271713L198.16666666666666,157.87986925840377L200.58333333333334,156.98365894556045L200.58333333333334,156.54175016880035L200.58333333333334,156.8733303308487L200.58333333333334,157.07392845153808L200.58333333333334,157.20314160585403L200.58333333333334,157.18131009340286L200.58333333333334,157.2432598233223L200.58333333333334,157.30875084400176L200.58333333333334,157.32585946321487L200.58333333333334,157.5571405649185L203,159.63217166662216L203,158.84038898944854L203,159.5997197985649L203,159.06340942382812L203,158.93774107694625L203,158.9300712108612L203,158.95308080911636L203,158.92476103305816L203,158.84983125925064L203,159.1047092437744L203,158.84157059192657L205.41666666666669,156.4208011984825L205.41666666666669,157.70345882177352L205.41666666666669,157.8981594800949L205.41666666666669,157.98606929779052L205.41666666666669,158.28873888254165L205.41666666666669,158.3630813717842L205.41666666666669,158.29523066282272L205.41666666666669,158.59613136053085L207.83333333333334,161.60277161598205L207.83333333333334,160.07348964214324L207.83333333333334,159.95726004838943L207.83333333333334,159.56313935518264L207.83333333333334,159.7224411725998L207.83333333333334,159.5955912232399L207.83333333333334,159.56490824222564L207.83333333333334,159.46224949359893L210.25,161.61988023519515L210.25,161.71841040849685L210.25,161.73020884990692L210.25,161.3992194890976L210.25,161.6163389444351L210.25,161.59096965789794L210.25,161.5130893945694L210.25,161.20982900857925L210.25,160.36081949472427L210.25,160.40035042762756L210.25,160.40683869123458L212.66666666666666,160.46406904459L212.66666666666666,160.18854115009307L212.66666666666666,160.32778034210205L212.66666666666666,160.92544964551925L212.66666666666666,160.7224883198738L212.66666666666666,160.75081161260604L212.66666666666666,160.77677170038223L212.66666666666666,160.8741202712059L212.66666666666666,160.65228143930435L212.66666666666666,160.6186514854431L212.66666666666666,160.5195305109024L215.08333333333334,161.69657889604568L215.08333333333334,161.69481000900268L215.08333333333334,161.73670063018798L215.08333333333334,161.04108843803405L215.08333333333334,160.2823484301567L215.08333333333334,160.24635878801345L215.08333333333334,160.28529891967773L215.08333333333334,160.25638834238052L215.08333333333334,160.11066088676452L215.08333333333334,160.17909888029098L217.5,161.77917853593826L217.5,160.4322114944458L217.5,160.31775078773498L217.5,160.9325287103653L217.5,160.77677170038223L217.5,161.00745848417282L217.5,160.9573107123375L219.91666666666666,162.47124943733215L219.91666666666666,162.3780294418335L219.91666666666666,162.32729086875915L219.91666666666666,162.32965055704116L219.91666666666666,162.12078825235366L219.91666666666666,161.86708835363387L222.33333333333334,163.97279891967773L222.33333333333334,163.02349034547805L222.33333333333334,162.74973133802413L222.33333333333334,162.44233886003494L222.33333333333334,162.15559980869293L222.33333333333334,162.10191074609756L222.33333333333334,162.1361315011978L222.33333333333334,161.86945155858993L222.33333333333334,162.01753870248794L222.33333333333334,162.02874985933303L222.33333333333334,162.12963972091674L222.33333333333334,161.99216941595077L224.75,165.84486869573593L224.75,165.0318488240242L224.75,164.6583815574646L224.75,163.72795048952102L224.75,162.29011962413787L224.75,162.39691046476364L224.75,162.1089898109436L224.75,161.96620932817459L224.75,162.1797910094261L224.75,162.26711002588272L224.75,162.42818073034286L227.16666666666666,164.78404990434646L227.16666666666666,163.00520012378692L227.16666666666666,163.24710158109664L227.16666666666666,162.81344995498657L227.16666666666666,162.94856057167053L227.16666666666666,162.62229058742523L227.16666666666666,162.6305512547493L229.58333333333331,159.46107140779495L229.58333333333331,163.06183967590331L229.58333333333331,163.36805055141448L229.58333333333331,163.43531045913696L229.58333333333331,163.42350850105285L229.58333333333331,163.34563175439834L229.58333333333331,163.26892957687377L229.58333333333331,163.1904585123062L229.58333333333331,162.94679168462753L232,165.15338859558105L232,162.99988994598388L232,162.65473893880844L232,163.2412006020546L232,163.2736489534378L232,163.2288113594055L232,163.17630038261413L232,163.1444393157959L232,163.2866289973259L232,163.31908086538314L234.41666666666666,162.58039996623992L234.41666666666666,161.84702924489974L234.41666666666666,162.48422948122024L234.41666666666666,162.37331006526946L234.41666666666666,163.84005150794982L234.41666666666666,163.81586030721664L234.41666666666666,163.5963811635971L234.41666666666666,163.41761103868484L234.41666666666666,163.56156960725784L234.41666666666666,163.4713001012802L234.41666666666666,163.45065019130706L234.41666666666666,163.40463099479675L236.83333333333334,165.51565173864364L236.83333333333334,165.19055984020233L236.83333333333334,165.23893872499465L236.83333333333334,164.86960003376007L236.83333333333334,164.2087993979454L236.83333333333334,164.17340055704116L236.83333333333334,164.10142127275466L236.83333333333334,164.11852989196777L236.83333333333334,164.11381051540374L236.83333333333334,164.12796864509582L236.83333333333334,164.0512699842453L236.83333333333334,164.04655060768127L236.83333333333334,163.79402879476547L239.25,161.69245032072067L239.25,161.03872874975204L239.25,161.93552986383438L239.25,163.57809094190597L239.25,163.67426142692565L239.25,164.153928732872L239.25,164.0512699842453L239.25,164.15628842115402L241.66666666666669,165.7569588780403L241.66666666666669,165.43187049627304L241.66666666666669,165.4395403623581L241.66666666666669,165.3716896533966L241.66666666666669,165.09910873174667L241.66666666666669,164.7610403060913L244.08333333333334,164.22296104431152L244.08333333333334,164.7038099527359L244.08333333333334,165.16578135490417L244.08333333333334,165.20589957237243L244.08333333333334,164.95691905021667L244.08333333333334,164.96753940582275L246.5,166.88268140554428L246.5,166.38353875875472L246.5,165.90268985033035L246.5,165.95579162836074L246.5,165.9239305615425L246.5,165.26077023744583L246.5,165.46726933717727L246.5,165.53747973442077L246.5,165.76226905584335L246.5,165.49322942495346L246.5,165.57523826360702L248.91666666666666,169.71703979969024L248.91666666666666,168.01607028245925L248.91666666666666,168.1547186732292L248.91666666666666,167.17649952173232L248.91666666666666,166.700960791111L248.91666666666666,166.37350920438766L248.91666666666666,166.25610152482986L248.91666666666666,166.17527077198028L248.91666666666666,166.12571028470992L251.33333333333334,166.6195392370224L251.33333333333334,166.6502187013626L251.33333333333334,166.60950968265533L251.33333333333334,166.67972007989883L251.33333333333334,166.4094988465309L251.33333333333334,166.4637787103653L251.33333333333334,166.4478516936302L251.33333333333334,166.3086089849472L253.75,166.0678891301155L253.75,166.54343137741088L253.75,166.24312148094177L253.75,166.39534071683883L253.75,166.19651148319244L253.75,166.15993103981017L253.75,166.2637713909149L253.75,166.3392884492874L253.75,166.31863853931426L256.1666666666667,168.65032002925872L256.1666666666667,167.7216613650322L256.1666666666667,167.32282129526138L256.1666666666667,167.45970079898834L256.1666666666667,167.45734111070632L256.1666666666667,167.31987080574035L256.1666666666667,167.38122973442077L256.1666666666667,167.3446492910385L256.1666666666667,167.33344165086746L256.1666666666667,167.31751111745834L258.58333333333337,166.29031876325607L258.58333333333337,165.48024938106536L258.58333333333337,165.5404302239418L258.58333333333337,165.58527133464813L258.58333333333337,165.65901950597762L258.58333333333337,165.79058883190154L258.58333333333337,165.86374971866607L258.58333333333337,166.0531401991844L258.58333333333337,166.12747917175292L258.58333333333337,166.35285929441451L261,166.43840942382812L261,166.80302873849868L261,166.6331100821495L261,166.68503025770187L261,166.95583877563476L261,166.71275923252105L261,166.4507986664772L263.4166666666667,170.0757616519928L263.4166666666667,167.81015846729278L263.4166666666667,167.21072027683257L263.4166666666667,167.17885921001434L263.4166666666667,167.2532016992569L263.4166666666667,167.2455283164978L263.4166666666667,167.24847880601882L263.4166666666667,167.34819058179855L263.4166666666667,167.48566088676452L263.4166666666667,167.414268887043L263.4166666666667,167.27385160923004L265.8333333333333,167.65971163511276L265.8333333333333,167.71988896131515L265.8333333333333,167.53639945983886L265.8333333333333,167.0408016204834L265.8333333333333,166.85436162948608L265.8333333333333,166.8189592719078L265.8333333333333,166.82426944971084L265.8333333333333,166.99832019805908L265.8333333333333,167.08151063919067L265.8333333333333,167.15408072471618L265.8333333333333,167.19950911998748L265.8333333333333,167.27915827035903L265.8333333333333,167.26795063018798" style="fill: none;" fill="none"></path></g></g></g></g></g></g><g transform="translate(40, 177)" clip-path="url(#clip_1)"><clipPath id="clip_1"><rect width="290" height="23"></rect></clipPath><g><g><line x1="0" y1="0" x2="0" y2="5" style="visibility: inherit;" fill="rgb(0, 0, 0)" stroke="rgb(204, 204, 204)" stroke-width="1px"></line><line x1="24.166666666666664" y1="0" x2="24.166666666666664" y2="5" style="visibility: inherit;" fill="rgb(0, 0, 0)" stroke="rgb(204, 204, 204)" stroke-width="1px"></line><line x1="48.33333333333333" y1="0" x2="48.33333333333333" y2="5" style="visibility: inherit;" fill="rgb(0, 0, 0)" stroke="rgb(204, 204, 204)" stroke-width="1px"></line><line x1="72.5" y1="0" x2="72.5" y2="5" style="visibility: inherit;" fill="rgb(0, 0, 0)" stroke="rgb(204, 204, 204)" stroke-width="1px"></line><line x1="96.66666666666666" y1="0" x2="96.66666666666666" y2="5" style="visibility: inherit;" fill="rgb(0, 0, 0)" stroke="rgb(204, 204, 204)" stroke-width="1px"></line><line x1="120.83333333333334" y1="0" x2="120.83333333333334" y2="5" style="visibility: inherit;" fill="rgb(0, 0, 0)" stroke="rgb(204, 204, 204)" stroke-width="1px"></line><line x1="145" y1="0" x2="145" y2="5" style="visibility: inherit;" fill="rgb(0, 0, 0)" stroke="rgb(204, 204, 204)" stroke-width="1px"></line><line x1="169.16666666666669" y1="0" x2="169.16666666666669" y2="5" style="visibility: inherit;" fill="rgb(0, 0, 0)" stroke="rgb(204, 204, 204)" stroke-width="1px"></line><line x1="193.33333333333331" y1="0" x2="193.33333333333331" y2="5" style="visibility: inherit;" fill="rgb(0, 0, 0)" stroke="rgb(204, 204, 204)" stroke-width="1px"></line><line x1="217.5" y1="0" x2="217.5" y2="5" style="visibility: inherit;" fill="rgb(0, 0, 0)" stroke="rgb(204, 204, 204)" stroke-width="1px"></line><line x1="241.66666666666669" y1="0" x2="241.66666666666669" y2="5" style="visibility: inherit;" fill="rgb(0, 0, 0)" stroke="rgb(204, 204, 204)" stroke-width="1px"></line><line x1="265.8333333333333" y1="0" x2="265.8333333333333" y2="5" style="visibility: inherit;" fill="rgb(0, 0, 0)" stroke="rgb(204, 204, 204)" stroke-width="1px"></line><line x1="290" y1="0" x2="290" y2="5" style="visibility: inherit;" fill="rgb(0, 0, 0)" stroke="rgb(204, 204, 204)" stroke-width="1px"></line></g><g transform="translate(0, 8)"><text x="0" y="0" dx="0em" dy="0.95em" style="text-anchor: middle; visibility: hidden; font-family: Roboto, sans-serif; font-size: 12px; font-weight: 200;" fill="rgb(33, 33, 33)" stroke="none" stroke-width="1px">-10</text><text x="24.166666666666664" y="0" dx="0em" dy="0.95em" style="text-anchor: middle; visibility: inherit; font-family: Roboto, sans-serif; font-size: 12px; font-weight: 200;" fill="rgb(33, 33, 33)" stroke="none" stroke-width="1px">0</text><text x="48.33333333333333" y="0" dx="0em" dy="0.95em" style="text-anchor: middle; visibility: inherit; font-family: Roboto, sans-serif; font-size: 12px; font-weight: 200;" fill="rgb(33, 33, 33)" stroke="none" stroke-width="1px">10</text><text x="72.5" y="0" dx="0em" dy="0.95em" style="text-anchor: middle; visibility: inherit; font-family: Roboto, sans-serif; font-size: 12px; font-weight: 200;" fill="rgb(33, 33, 33)" stroke="none" stroke-width="1px">20</text><text x="96.66666666666666" y="0" dx="0em" dy="0.95em" style="text-anchor: middle; visibility: inherit; font-family: Roboto, sans-serif; font-size: 12px; font-weight: 200;" fill="rgb(33, 33, 33)" stroke="none" stroke-width="1px">30</text><text x="120.83333333333334" y="0" dx="0em" dy="0.95em" style="text-anchor: middle; visibility: inherit; font-family: Roboto, sans-serif; font-size: 12px; font-weight: 200;" fill="rgb(33, 33, 33)" stroke="none" stroke-width="1px">40</text><text x="145" y="0" dx="0em" dy="0.95em" style="text-anchor: middle; visibility: inherit; font-family: Roboto, sans-serif; font-size: 12px; font-weight: 200;" fill="rgb(33, 33, 33)" stroke="none" stroke-width="1px">50</text><text x="169.16666666666669" y="0" dx="0em" dy="0.95em" style="text-anchor: middle; visibility: inherit; font-family: Roboto, sans-serif; font-size: 12px; font-weight: 200;" fill="rgb(33, 33, 33)" stroke="none" stroke-width="1px">60</text><text x="193.33333333333331" y="0" dx="0em" dy="0.95em" style="text-anchor: middle; visibility: inherit; font-family: Roboto, sans-serif; font-size: 12px; font-weight: 200;" fill="rgb(33, 33, 33)" stroke="none" stroke-width="1px">70</text><text x="217.5" y="0" dx="0em" dy="0.95em" style="text-anchor: middle; visibility: inherit; font-family: Roboto, sans-serif; font-size: 12px; font-weight: 200;" fill="rgb(33, 33, 33)" stroke="none" stroke-width="1px">80</text><text x="241.66666666666669" y="0" dx="0em" dy="0.95em" style="text-anchor: middle; visibility: inherit; font-family: Roboto, sans-serif; font-size: 12px; font-weight: 200;" fill="rgb(33, 33, 33)" stroke="none" stroke-width="1px">90</text><text x="265.8333333333333" y="0" dx="0em" dy="0.95em" style="text-anchor: middle; visibility: inherit; font-family: Roboto, sans-serif; font-size: 12px; font-weight: 200;" fill="rgb(33, 33, 33)" stroke="none" stroke-width="1px">100</text><text x="290" y="0" dx="0em" dy="0.95em" style="text-anchor: middle; visibility: hidden; font-family: Roboto, sans-serif; font-size: 12px; font-weight: 200;" fill="rgb(33, 33, 33)" stroke="none" stroke-width="1px">110</text></g><line x1="0" y1="0" x2="290" y2="0" fill="rgb(0, 0, 0)" stroke="rgb(204, 204, 204)" stroke-width="1px"></line></g></g></g></g></svg>