<svg viewBox="0 0 330 200" xmlns="http://www.w3.org/2000/svg"><g><g><g><g><g><line x1="40" y1="177" x2="35" y2="177" style="visibility: inherit;" fill="rgb(0, 0, 0)" stroke="rgb(204, 204, 204)" stroke-width="1px"></line><line x1="40" y1="154.875" x2="35" y2="154.875" style="visibility: inherit;" fill="rgb(0, 0, 0)" stroke="rgb(204, 204, 204)" stroke-width="1px"></line><line x1="40" y1="132.75" x2="35" y2="132.75" style="visibility: inherit;" fill="rgb(0, 0, 0)" stroke="rgb(204, 204, 204)" stroke-width="1px"></line><line x1="40" y1="110.625" x2="35" y2="110.625" style="visibility: inherit;" fill="rgb(0, 0, 0)" stroke="rgb(204, 204, 204)" stroke-width="1px"></line><line x1="40" y1="88.5" x2="35" y2="88.5" style="visibility: inherit;" fill="rgb(0, 0, 0)" stroke="rgb(204, 204, 204)" stroke-width="1px"></line><line x1="40" y1="66.375" x2="35" y2="66.375" style="visibility: inherit;" fill="rgb(0, 0, 0)" stroke="rgb(204, 204, 204)" stroke-width="1px"></line><line x1="40" y1="44.25" x2="35" y2="44.25" style="visibility: inherit;" fill="rgb(0, 0, 0)" stroke="rgb(204, 204, 204)" stroke-width="1px"></line><line x1="40" y1="22.125" x2="35" y2="22.125" style="visibility: inherit;" fill="rgb(0, 0, 0)" stroke="rgb(204, 204, 204)" stroke-width="1px"></line><line x1="40" y1="0" x2="35" y2="0" style="visibility: inherit;" fill="rgb(0, 0, 0)" stroke="rgb(204, 204, 204)" stroke-width="1px"></line></g><g transform="translate(30, 0)"><text x="0" y="177" dx="0em" dy="0.3em" style="text-anchor: end; visibility: hidden; font-family: Roboto, sans-serif; font-size: 12px; font-weight: 200;" fill="rgb(33, 33, 33)" stroke="none" stroke-width="1px">0</text><text x="0" y="154.875" dx="0em" dy="0.3em" style="text-anchor: end; visibility: inherit; font-family: Roboto, sans-serif; font-size: 12px; font-weight: 200;" fill="rgb(33, 33, 33)" stroke="none" stroke-width="1px">0.5</text><text x="0" y="132.75" dx="0em" dy="0.3em" style="text-anchor: end; visibility: hidden; font-family: Roboto, sans-serif; font-size: 12px; font-weight: 200;" fill="rgb(33, 33, 33)" stroke="none" stroke-width="1px">1</text><text x="0" y="110.625" dx="0em" dy="0.3em" style="text-anchor: end; visibility: inherit; font-family: Roboto, sans-serif; font-size: 12px; font-weight: 200;" fill="rgb(33, 33, 33)" stroke="none" stroke-width="1px">1.5</text><text x="0" y="88.5" dx="0em" dy="0.3em" style="text-anchor: end; visibility: hidden; font-family: Roboto, sans-serif; font-size: 12px; font-weight: 200;" fill="rgb(33, 33, 33)" stroke="none" stroke-width="1px">2</text><text x="0" y="66.375" dx="0em" dy="0.3em" style="text-anchor: end; visibility: inherit; font-family: Roboto, sans-serif; font-size: 12px; font-weight: 200;" fill="rgb(33, 33, 33)" stroke="none" stroke-width="1px">2.5</text><text x="0" y="44.25" dx="0em" dy="0.3em" style="text-anchor: end; visibility: hidden; font-family: Roboto, sans-serif; font-size: 12px; font-weight: 200;" fill="rgb(33, 33, 33)" stroke="none" stroke-width="1px">3</text><text x="0" y="22.125" dx="0em" dy="0.3em" style="text-anchor: end; visibility: inherit; font-family: Roboto, sans-serif; font-size: 12px; font-weight: 200;" fill="rgb(33, 33, 33)" stroke="none" stroke-width="1px">3.5</text><text x="0" y="0" dx="0em" dy="0.3em" style="text-anchor: end; visibility: hidden; font-family: Roboto, sans-serif; font-size: 12px; font-weight: 200;" fill="rgb(33, 33, 33)" stroke="none" stroke-width="1px">4</text></g><line x1="40" y1="0" x2="40" y2="177" fill="rgb(0, 0, 0)" stroke="rgb(204, 204, 204)" stroke-width="1px"></line></g></g><g transform="translate(40, 0)" clip-path="url(#clip_0)"><clipPath id="clip_0"><rect width="290" height="177"></rect></clipPath><g><g><g><line x1="0" y1="0" x2="0" y2="177" fill="rgb(0, 0, 0)" stroke="rgb(66, 66, 66)" stroke-width="1px" opacity="0.25"></line><line x1="24.166666666666664" y1="0" x2="24.166666666666664" y2="177" fill="rgb(0, 0, 0)" stroke="rgb(66, 66, 66)" stroke-width="1px" opacity="0.25"></line><line x1="48.33333333333333" y1="0" x2="48.33333333333333" y2="177" fill="rgb(0, 0, 0)" stroke="rgb(66, 66, 66)" stroke-width="1px" opacity="0.25"></line><line x1="72.5" y1="0" x2="72.5" y2="177" fill="rgb(0, 0, 0)" stroke="rgb(66, 66, 66)" stroke-width="1px" opacity="0.25"></line><line x1="96.66666666666666" y1="0" x2="96.66666666666666" y2="177" fill="rgb(0, 0, 0)" stroke="rgb(66, 66, 66)" stroke-width="1px" opacity="0.25"></line><line x1="120.83333333333334" y1="0" x2="120.83333333333334" y2="177" fill="rgb(0, 0, 0)" stroke="rgb(66, 66, 66)" stroke-width="1px" opacity="0.25"></line><line x1="145" y1="0" x2="145" y2="177" fill="rgb(0, 0, 0)" stroke="rgb(66, 66, 66)" stroke-width="1px" opacity="0.25"></line><line x1="169.16666666666669" y1="0" x2="169.16666666666669" y2="177" fill="rgb(0, 0, 0)" stroke="rgb(66, 66, 66)" stroke-width="1px" opacity="0.25"></line><line x1="193.33333333333331" y1="0" x2="193.33333333333331" y2="177" fill="rgb(0, 0, 0)" stroke="rgb(66, 66, 66)" stroke-width="1px" opacity="0.25"></line><line x1="217.5" y1="0" x2="217.5" y2="177" fill="rgb(0, 0, 0)" stroke="rgb(66, 66, 66)" stroke-width="1px" opacity="0.25"></line><line x1="241.66666666666669" y1="0" x2="241.66666666666669" y2="177" fill="rgb(0, 0, 0)" stroke="rgb(66, 66, 66)" stroke-width="1px" opacity="0.25"></line><line x1="265.8333333333333" y1="0" x2="265.8333333333333" y2="177" fill="rgb(0, 0, 0)" stroke="rgb(66, 66, 66)" stroke-width="1px" opacity="0.25"></line><line x1="290" y1="0" x2="290" y2="177" fill="rgb(0, 0, 0)" stroke="rgb(66, 66, 66)" stroke-width="1px" opacity="0.25"></line></g><g><line x1="0" y1="177" x2="290" y2="177" fill="rgb(0, 0, 0)" stroke="rgb(66, 66, 66)" stroke-width="1px" opacity="0.25"></line><line x1="0" y1="154.875" x2="290" y2="154.875" fill="rgb(0, 0, 0)" stroke="rgb(66, 66, 66)" stroke-width="1px" opacity="0.25"></line><line x1="0" y1="132.75" x2="290" y2="132.75" fill="rgb(0, 0, 0)" stroke="rgb(66, 66, 66)" stroke-width="1px" opacity="0.25"></line><line x1="0" y1="110.625" x2="290" y2="110.625" fill="rgb(0, 0, 0)" stroke="rgb(66, 66, 66)" stroke-width="1px" opacity="0.25"></line><line x1="0" y1="88.5" x2="290" y2="88.5" fill="rgb(0, 0, 0)" stroke="rgb(66, 66, 66)" stroke-width="1px" opacity="0.25"></line><line x1="0" y1="66.375" x2="290" y2="66.375" fill="rgb(0, 0, 0)" stroke="rgb(66, 66, 66)" stroke-width="1px" opacity="0.25"></line><line x1="0" y1="44.25" x2="290" y2="44.25" fill="rgb(0, 0, 0)" stroke="rgb(66, 66, 66)" stroke-width="1px" opacity="0.25"></line><line x1="0" y1="22.125" x2="290" y2="22.125" fill="rgb(0, 0, 0)" stroke="rgb(66, 66, 66)" stroke-width="1px" opacity="0.25"></line><line x1="0" y1="0" x2="290" y2="0" fill="rgb(0, 0, 0)" stroke="rgb(66, 66, 66)" stroke-width="1px" opacity="0.25"></line></g></g></g><g><g><line x1="0" y1="177" x2="290" y2="177" fill="rgb(0, 0, 0)" stroke="rgb(153, 153, 153)" stroke-width="1.5px"></line></g></g><g><g><line x1="24.166666666666664" y1="0" x2="24.166666666666664" y2="177" fill="rgb(0, 0, 0)" stroke="rgb(153, 153, 153)" stroke-width="1.5px"></line></g></g><g><g><g><g><g><path stroke="rgb(255, 112, 67)" stroke-width="2px" d="M26.583333333333332,11.725811541080475L26.583333333333332,19.972877452006617L26.583333333333332,27.545645352573793L26.583333333333332,38.36900708956265L26.583333333333332,45.37098700995306L26.583333333333332,50.4568829390738L26.583333333333332,54.27867707962045L29,64.53484337134347L29,72.62773610813L29,79.14572967897672L29,84.69286599235578L29,89.37374032034273L29,93.36192436458794L29,96.75680382003908L29,99.72479303504072L29,102.30026090611318L31.416666666666668,104.70774454392182L31.416666666666668,106.65251231619551L31.416666666666668,108.39396677741769L31.416666666666668,109.93864351945251L31.416666666666668,111.36293189571239L31.416666666666668,112.69093440775653L31.416666666666668,113.88892650177206L31.416666666666668,114.9866875130581L33.833333333333336,116.24622917321781L33.833333333333336,117.07305237232941L33.833333333333336,117.77232058119276L33.833333333333336,118.44180883050933L33.833333333333336,119.10675808678953L33.833333333333336,119.72930262961366L33.833333333333336,120.36052247552807L33.833333333333336,120.96731054199937L36.25,121.8485302591823L36.25,122.69371570353825L36.25,123.47933957147933L36.25,124.16150530067752L36.25,124.78256565320405L36.25,125.35750069210056L36.25,125.88721713747681L36.25,126.38199927405095L36.25,126.83656315705399L38.666666666666664,127.34702219481875L38.666666666666664,127.86082864930789L38.666666666666664,128.30823272299267L38.666666666666664,128.73566505490166L38.666666666666664,129.13275133109138L38.666666666666664,129.50518742662777L38.666666666666664,129.83304183181372L38.666666666666664,130.130222762535L38.666666666666664,130.40698209142352L41.083333333333336,130.56507085991L41.083333333333336,130.7349436179855L41.083333333333336,130.89966307007924L41.083333333333336,131.0696980659432L41.083333333333336,131.2358668802988L41.083333333333336,131.4037504891795L41.083333333333336,131.56726508457766L41.083333333333336,131.72237729714172L43.5,131.95614323216665L43.5,132.11819700303766L43.5,132.28332582234515L43.5,132.43267605682507L43.5,132.5626183412003L43.5,132.71395631659612L43.5,132.86786747661404L45.916666666666664,133.00381960797733L45.916666666666664,133.1172851355701L45.916666666666664,133.25793996581962L45.916666666666664,133.38329172691596L45.916666666666664,133.5059244411412L45.916666666666664,133.63487844387933L48.33333333333333,133.807849316766L48.33333333333333,133.98488499708196L48.33333333333333,134.13243964564927L48.33333333333333,134.28472033627628L48.33333333333333,134.4431779039339L48.33333333333333,134.5956491023532L48.33333333333333,134.73824431233817L48.33333333333333,134.87923764026283L48.33333333333333,135.01212840255286L50.75,135.25375983404865L50.75,135.46916667715462L50.75,135.63513086840348L50.75,135.74694867179917L50.75,135.8586300097354L50.75,135.9635560961249L50.75,136.06713919883413L53.166666666666664,136.18815333125193L53.166666666666664,136.30023625208267L53.166666666666664,136.42447681762852L53.166666666666664,136.5486159248223L53.166666666666664,136.66576364772774L53.166666666666664,136.75673447726356L53.166666666666664,136.8365457289056L53.166666666666664,136.91542463012004L53.166666666666664,136.99009972089834L53.166666666666664,137.0572671922931L55.583333333333336,137.08613194953585L55.583333333333336,137.1133568043533L55.583333333333336,137.128809809481L55.583333333333336,137.12476887209817L55.583333333333336,137.12533650769473L55.583333333333336,137.1187593541243L55.583333333333336,137.1127365556613L55.583333333333336,137.10601763377255L55.583333333333336,137.09334886435283L55.583333333333336,137.0836516912278L55.583333333333336,137.07513188921163L55.583333333333336,137.07430339133268L55.583333333333336,137.078379219381L58,137.11761405329185L58,137.16606098842834L58,137.2145559094816L58,137.2680450528884L58,137.32381427604693L58,137.37864345822584L58,137.4304953807473L58,137.48757075465647L58,137.54058177830333L60.41666666666667,137.46215532384696L60.41666666666667,137.45807750610618L60.41666666666667,137.48401954487062L60.41666666666667,137.54161945379428L60.41666666666667,137.61862545168282L60.41666666666667,137.70227264984055L60.41666666666667,137.77780191767235L60.41666666666667,137.84652975109185L60.41666666666667,137.9190784441231L60.41666666666667,137.9922433855918L60.41666666666667,138.0625158824812L60.41666666666667,138.11982938704165L60.41666666666667,138.1738717418934L60.41666666666667,138.2234339688133L62.833333333333336,138.29106614522075L62.833333333333336,138.34917520884014L62.833333333333336,138.38424279940946L62.833333333333336,138.4334094020331L62.833333333333336,138.48130921495886L62.833333333333336,138.53044142151185L62.833333333333336,138.57469973869524L62.833333333333336,138.61948737215278L62.833333333333336,138.66661550892198L65.25,138.66916409990495L65.25,138.76587395618844L65.25,138.87104742184886L65.25,138.94022945625775L65.25,138.97920750722173L65.25,139.01563693864404L65.25,139.05584336824984L65.25,139.09507790616837L65.25,139.1180943404341L65.25,139.15965830120777L65.25,139.19777009453645L65.25,139.23324451377573L65.25,139.27088350830599L65.25,139.31117649674073L65.25,139.34839119019512L65.25,139.39492050493294L67.66666666666667,139.48431410872308L67.66666666666667,139.57470193166097L67.66666666666667,139.65133944155275L67.66666666666667,139.72480703098304L67.66666666666667,139.7610280497334L67.66666666666667,139.78875398209237L67.66666666666667,139.81407498889473L67.66666666666667,139.8435954316069L67.66666666666667,139.86542096249764L67.66666666666667,139.88500412330472L67.66666666666667,139.91431802598854L67.66666666666667,139.94340504462352L67.66666666666667,139.9695546091028L67.66666666666667,139.9965205960447L67.66666666666667,140.03663183150505L70.08333333333333,139.99414701495564L70.08333333333333,139.99450203317684L70.08333333333333,140.00997472420144L70.08333333333333,140.02993984806133L70.08333333333333,140.03790927791889L70.08333333333333,140.07544041923282L70.08333333333333,140.11633876432558L70.08333333333333,140.15640886032764L72.5,140.2967900558024L72.5,140.37410364423692L72.5,140.42633142241255L72.5,140.48406784501591L72.5,140.53011067972852L72.5,140.55090582262287L72.5,140.57844960148523L72.5,140.60669581846707L72.5,140.63291010043298L72.5,140.6584551275641L72.5,140.67971360763104L72.5,140.70128088966067L72.5,140.72154840476776L74.91666666666667,140.69185973511983L74.91666666666667,140.7294361345566L74.91666666666667,140.76522204827452L74.91666666666667,140.79707230204355L74.91666666666667,140.82044881230598L74.91666666666667,140.84292188719243L74.91666666666667,140.88475966113398L74.91666666666667,140.92698355725548L74.91666666666667,140.97669865143078L74.91666666666667,141.0286848541348L74.91666666666667,141.0825631319799L74.91666666666667,141.1308709476746L74.91666666666667,141.1741524524602L77.33333333333333,141.21232704535228L77.33333333333333,141.23666720919923L77.33333333333333,141.25140484697602L77.33333333333333,141.27102541779007L77.33333333333333,141.28889053562958L77.33333333333333,141.3110175937835L77.33333333333333,141.3228561552411L77.33333333333333,141.33023084789588L77.33333333333333,141.34385228767584L77.33333333333333,141.36327532295914L77.33333333333333,141.3834529226201L77.33333333333333,141.3960061360277L77.33333333333333,141.4110735086442L77.33333333333333,141.43043204746849L77.33333333333333,141.44981830644932L79.75,141.459805540673L79.75,141.54549264051968L79.75,141.62665198761397L79.75,141.6967617261684L79.75,141.7497367489711L79.75,141.80198784289206L79.75,141.85202460613596L79.75,141.88093012335094L79.75,141.91460751597668L79.75,141.94301675302262L82.16666666666667,141.93307861126596L82.16666666666667,141.95147075365847L82.16666666666667,141.99336949074424L82.16666666666667,142.01934501296495L82.16666666666667,142.03291501904476L82.16666666666667,142.05757697255407L82.16666666666667,142.07921375475516L82.16666666666667,142.095564880715L82.16666666666667,142.107381390743L82.16666666666667,142.11991250900917L82.16666666666667,142.1455566770244L82.16666666666667,142.17270648055765L84.58333333333334,142.2031450301408L84.58333333333334,142.21301193136927L84.58333333333334,142.27541929365503L84.58333333333334,142.33441864784746L84.58333333333334,142.3679668660677L84.58333333333334,142.3999261526396L87,142.50188405632863L87,142.5785218396035L87,142.64679198677524L87,142.72151646419348L87,142.77703926015064L87,142.80398814851225L87,142.82270858610534L87,142.84091341751486L87,142.85951343975967L89.41666666666667,142.88645377722133L89.41666666666667,142.89682510266758L89.41666666666667,142.9200193058386L89.41666666666667,142.95709880731272L89.41666666666667,142.9888285742784L89.41666666666667,143.03618502268446L89.41666666666667,143.09573203133908L89.41666666666667,143.1514166666899L89.41666666666667,143.20790130613216L91.83333333333333,143.3003911036536L91.83333333333333,143.36046735322373L91.83333333333333,143.43125733164507L91.83333333333333,143.49722452536952L91.83333333333333,143.54823345967662L91.83333333333333,143.58914735263167L91.83333333333333,143.6283695013045L91.83333333333333,143.6671129507201L91.83333333333333,143.70261379073594L91.83333333333333,143.73848572604132L91.83333333333333,143.7588244964011L94.25,143.78692988491503L94.25,143.7896023138123L94.25,143.80444258522184L94.25,143.82991311242404L94.25,143.8769431400597L94.25,143.9221525942527L94.25,143.96618572087158L94.25,144.0098535533011L94.25,144.05277609283112L94.25,144.09304372877477L94.25,144.13955060728145L94.25,144.18709509282615L94.25,144.2348289100026L94.25,144.28223355354078L96.66666666666666,144.34682652319296L96.66666666666666,144.389936716909L96.66666666666666,144.43786074620363L96.66666666666666,144.48031324064905L96.66666666666666,144.52672744040433L99.08333333333333,144.58287907955338L99.08333333333333,144.64509531037177L99.08333333333333,144.68572631725397L99.08333333333333,144.7195688990191L99.08333333333333,144.74309061832167L99.08333333333333,144.79419878143295L99.08333333333333,144.84345944214468L99.08333333333333,144.89311124609566L99.08333333333333,144.94050174585672L99.08333333333333,144.97837626586377L101.5,144.90844471401746L101.5,144.8789805834085L101.5,144.8744864079873L101.5,144.89187732611856L101.5,144.90603127293596L101.5,144.94337253354584L101.5,144.98515234771205L101.5,145.02524143414985L103.91666666666667,145.0699636129048L103.91666666666667,145.13791559159938L103.91666666666667,145.20377527240274L103.91666666666667,145.26523579876095L103.91666666666667,145.3220302449019L103.91666666666667,145.3807196867169L103.91666666666667,145.43733751604654L103.91666666666667,145.49154487196472L103.91666666666667,145.54063025644538L103.91666666666667,145.5922616865615L106.33333333333333,145.6070841063373L106.33333333333333,145.6226478151063L106.33333333333333,145.64960199820231L106.33333333333333,145.66841610372296L106.33333333333333,145.69109068728295L106.33333333333333,145.71041906996751L106.33333333333333,145.7308165284136L106.33333333333333,145.74849041710166L106.33333333333333,145.77039156968758L108.75,145.8413107988075L108.75,145.90711316790168L108.75,145.98495802969987L108.75,146.04840124334874L108.75,146.1118804260801L108.75,146.17311484273202L108.75,146.2340975368608L108.75,146.29601359770808L108.75,146.35293102696806L111.16666666666667,146.36651384077194L111.16666666666667,146.43444234220877L111.16666666666667,146.49381941378695L111.16666666666667,146.53193020048172L111.16666666666667,146.56948505937908L111.16666666666667,146.60306034707855L111.16666666666667,146.63973576668548L111.16666666666667,146.67488719028688L111.16666666666667,146.70741818271247L111.16666666666667,146.73832262547336L111.16666666666667,146.77418659415397L111.16666666666667,146.80084557810153L113.58333333333333,146.84409280372995L113.58333333333333,146.88564226463416L113.58333333333333,146.92633119751466L113.58333333333333,146.9682379918129L113.58333333333333,146.98917690723178L113.58333333333333,147.0147770982566L113.58333333333333,147.03294648488387L113.58333333333333,147.04927820895935L113.58333333333333,147.07284683814282L113.58333333333333,147.09238285921936L113.58333333333333,147.11366345745407L113.58333333333333,147.13615896243195L113.58333333333333,147.1592111019334L113.58333333333333,147.1801814412422L116,147.19032405238698L116,147.24613434254437L116,147.3041986112697L116,147.36374043136362L116,147.42612402515473L116,147.481472271L116,147.536708149484L116,147.5907309772761L116,147.64090218374173L116,147.68947199989702L116,147.73908692002436L116,147.77880917606257L116,147.8180055742286L116,147.8576759107109L116,147.89326090219478L116,147.93224380371578L118.41666666666667,147.96671113538773L118.41666666666667,147.9850516827288L118.41666666666667,147.9846203452154L118.41666666666667,147.98715323950512L118.41666666666667,147.9979890886496L118.41666666666667,148.0110487017648L120.83333333333334,147.99343181745445L120.83333333333334,148.0252821899631L120.83333333333334,148.07065149993147L120.83333333333334,148.10238007990264L120.83333333333334,148.12413680952284L120.83333333333334,148.14303567269454L120.83333333333334,148.16098959270514L123.25,148.29926873608758L123.25,148.30383557996797L123.25,148.31879399768744L123.25,148.31337960709186L123.25,148.30969619096544L123.25,148.30814395223078L123.25,148.3045233190555L123.25,148.30128271733182L123.25,148.29824845578756L123.25,148.2971137822377L123.25,148.29433227754149L123.25,148.29188884787277L123.25,148.2922226346325L125.66666666666667,148.327740672149L125.66666666666667,148.33539735056604L125.66666666666667,148.34652103001278L125.66666666666667,148.35770794366093L125.66666666666667,148.37795990119002L128.08333333333334,148.46653901754314L128.08333333333334,148.53400695558108L128.08333333333334,148.5844724506256L128.08333333333334,148.62079909655094L128.08333333333334,148.66407093980652L128.08333333333334,148.70887407239783L128.08333333333334,148.75796381954802L128.08333333333334,148.79835992812733L128.08333333333334,148.8360945261803L128.08333333333334,148.86862362111836L128.08333333333334,148.8978448515319L130.5,148.9654078801585L130.5,149.0263846274981L130.5,149.0860161022922L130.5,149.10773066007133L130.5,149.1267885916662L130.5,149.13918540533356L130.5,149.15479005822036L130.5,149.17235787984143L130.5,149.18502063068573L130.5,149.1957669656711L130.5,149.20801147880115L132.91666666666666,149.25716782122495L132.91666666666666,149.29893236492865L132.91666666666666,149.32334253567856L132.91666666666666,149.3513775593029L132.91666666666666,149.37739128169625L132.91666666666666,149.39402867165757L132.91666666666666,149.39715662615708L132.91666666666666,149.39961927623924L132.91666666666666,149.39954719063448L132.91666666666666,149.40337272247677L135.33333333333334,149.43647740953438L135.33333333333334,149.4488108815225L135.33333333333334,149.43707524447524L135.33333333333334,149.4621891890828L135.33333333333334,149.47781696857345L135.33333333333334,149.5002744088017L135.33333333333334,149.52377713844055L135.33333333333334,149.56634916905475L135.33333333333334,149.6061952031351L135.33333333333334,149.62926940951505L135.33333333333334,149.65061466561946L135.33333333333334,149.67427776539287L135.33333333333334,149.693195627082L135.33333333333334,149.7055700176972L135.33333333333334,149.7139184272608L135.33333333333334,149.7216281296321L137.75,149.70974787785886L137.75,149.72071941597866L137.75,149.74094374337298L137.75,149.77949412182687L137.75,149.81036444991864L137.75,149.8298455853323L137.75,149.85195905716355L137.75,149.87117467039462L137.75,149.88896490636472L137.75,149.90737019556664L137.75,149.92434631361613L137.75,149.93923465753977L137.75,149.9553476140216L137.75,149.9708098761293L140.16666666666666,150.02131938337885L140.16666666666666,150.07240090176185L140.16666666666666,150.10796315828512L140.16666666666666,150.15876132266385L140.16666666666666,150.2107809254618L140.16666666666666,150.2570799065773L140.16666666666666,150.28296563943138L140.16666666666666,150.3082651240026L140.16666666666666,150.33163590607828L140.16666666666666,150.3525770257803L140.16666666666666,150.37640928088135L140.16666666666666,150.4005323332112L140.16666666666666,150.42406865109854L142.58333333333331,150.40043032037553L142.58333333333331,150.38096074932764L142.58333333333331,150.37779739961275L142.58333333333331,150.38640779174364L142.58333333333331,150.3947424858426L142.58333333333331,150.4046074518199L142.58333333333331,150.41490849457227L142.58333333333331,150.42179613035862L142.58333333333331,150.43241037414327L142.58333333333331,150.44583470211992L142.58333333333331,150.45657447385042L142.58333333333331,150.46777291533246L142.58333333333331,150.4801813328272L142.58333333333331,150.48977901297866L145,150.51343289335736L145,150.54665692601776L145,150.57963570188963L145,150.61468257551314L145,150.6491054303218L145,150.68428521071198L145,150.72095831015326L145,150.75128432328202L145,150.7807577640213L147.41666666666666,150.83227643329693L147.41666666666666,150.87648431917893L147.41666666666666,150.90969825797112L147.41666666666666,150.93835314499535L147.41666666666666,150.95860581117714L147.41666666666666,150.98483734371223L147.41666666666666,151.009934408117L147.41666666666666,151.03382079751918L147.41666666666666,151.05626955756597L147.41666666666666,151.07910031276546L147.41666666666666,151.09913014359998L147.41666666666666,151.11818063793922L147.41666666666666,151.13625645251503L147.41666666666666,151.13679056396938L149.83333333333334,151.19026514718257L149.83333333333334,151.20351992311933L149.83333333333334,151.22252821996528L149.83333333333334,151.24136047359295L149.83333333333334,151.26060072611958L149.83333333333334,151.2751619294746L152.25,151.22777527239813L152.25,151.2698860971486L152.25,151.3073249559043L152.25,151.33935181179805L152.25,151.3782069244505L152.25,151.41626989325835L152.25,151.45127910183777L152.25,151.47832072194979L154.66666666666666,151.51312587579827L154.66666666666666,151.5525627215674L154.66666666666666,151.58606737861754L154.66666666666666,151.61844988772512L154.66666666666666,151.6502974180259L154.66666666666666,151.68944676796437L154.66666666666666,151.7248244422262L154.66666666666666,151.75843323277493L157.08333333333331,151.7898305220575L157.08333333333331,151.79790907626474L157.08333333333331,151.82335007189582L157.08333333333331,151.85063865928777L157.08333333333331,151.878045227294L157.08333333333331,151.89912546213128L157.08333333333331,151.92169608681277L157.08333333333331,151.95267408150866L157.08333333333331,151.98354127636068L157.08333333333331,152.01043135324107L157.08333333333331,152.0390965678199L157.08333333333331,152.06845250487416L157.08333333333331,152.09603087005104L157.08333333333331,152.12439861026638L159.5,152.15236564498016L159.5,152.14678669616407L159.5,152.13522538853275L159.5,152.15313733813124L159.5,152.18017634314407L159.5,152.20033215318128L159.5,152.22036518769767L159.5,152.24645440341473L159.5,152.27626149637868L159.5,152.30473318814435L159.5,152.3333078835233L159.5,152.35642716443866L159.5,152.38060295282318L161.91666666666666,152.37693140967278L161.91666666666666,152.41813597490798L161.91666666666666,152.43685889780411L161.91666666666666,152.43701210382477L161.91666666666666,152.43841877281417L161.91666666666666,152.44132600664858L161.91666666666666,152.44554813372866L161.91666666666666,152.45256815264014L161.91666666666666,152.46229034700906L161.91666666666666,152.4763276148535L161.91666666666666,152.48935324428103L161.91666666666666,152.50555527213953L161.91666666666666,152.5161901936288L164.33333333333334,152.5096111465581L164.33333333333334,152.45307094262375L164.33333333333334,152.42369533117628L164.33333333333334,152.40910763948375L164.33333333333334,152.4026834054664L164.33333333333334,152.402332914589L164.33333333333334,152.4087480061573L164.33333333333334,152.41601497810646L164.33333333333334,152.42856048954016L164.33333333333334,152.44196113538604L164.33333333333334,152.45944862204064L166.75,152.5166831439277L166.75,152.56638755493L166.75,152.6095357555946L166.75,152.62430842249196L166.75,152.637700882824L166.75,152.65699480142013L166.75,152.67970478889868L166.75,152.70318210536885L169.16666666666669,152.77573135513978L169.16666666666669,152.8244088368413L169.16666666666669,152.87432517091008L169.16666666666669,152.9304407527605L169.16666666666669,152.98930395528987L169.16666666666669,153.04358676613418L169.16666666666669,153.0957306763927L169.16666666666669,153.14411691122547L169.16666666666669,153.18972988107433L169.16666666666669,153.23279660562375L169.16666666666669,153.27444018735207L171.58333333333334,153.28446469304987L171.58333333333334,153.32622409356762L171.58333333333334,153.359567752664L171.58333333333334,153.39279297205354L171.58333333333334,153.42625975883922L174,153.4795144569186L174,153.52276083531402L174,153.5621191749205L174,153.59366857779708L174,153.62731323698213L174,153.6550940300633L174,153.68088838848763L174,153.70457447914907L174,153.72424424371317L176.41666666666666,153.69733095066883L176.41666666666666,153.68687464646777L176.41666666666666,153.70034941469297L176.41666666666666,153.7210048041039L176.41666666666666,153.7374636042842L176.41666666666666,153.75327644107662L176.41666666666666,153.76838712434L176.41666666666666,153.7845786366664L176.41666666666666,153.80018186009053L176.41666666666666,153.81965115208743L176.41666666666666,153.84035945099942L176.41666666666666,153.85806317333612L178.83333333333334,153.92189742159368L178.83333333333334,153.95492797796874L178.83333333333334,153.97227969710727L178.83333333333334,153.99044537194038L178.83333333333334,154.00664077142966L178.83333333333334,154.02195993580506L178.83333333333334,154.03049514559092L178.83333333333334,154.03820533155226L178.83333333333334,154.04736650331697L178.83333333333334,154.07009679403592L178.83333333333334,154.0942571268514L181.25,154.13572802873787L181.25,154.1788645111841L181.25,154.21559613716164L181.25,154.25002658524096L181.25,154.28244789093816L181.25,154.31964223601L181.25,154.34738796916307L183.66666666666666,154.3726402458386L183.66666666666666,154.404329380765L183.66666666666666,154.42660178845696L183.66666666666666,154.45397770380274L183.66666666666666,154.47768379761806L183.66666666666666,154.49217318458685L183.66666666666666,154.5085046588397L183.66666666666666,154.5245504892434L183.66666666666666,154.5373382467267L183.66666666666666,154.5475617647991L183.66666666666666,154.55209681548516L183.66666666666666,154.5552324786777L183.66666666666666,154.55529084883582L183.66666666666666,154.55589938539592L186.08333333333334,154.58811628616763L186.08333333333334,154.6019958752599L186.08333333333334,154.59312283926172L186.08333333333334,154.5921495513252L186.08333333333334,154.62184597137818L186.08333333333334,154.63952607677965L186.08333333333334,154.656322176911L186.08333333333334,154.67221207283407L186.08333333333334,154.68739596227155L186.08333333333334,154.70173216892658L188.5,154.6730264589857L188.5,154.6740318082161L188.5,154.67363727840464L188.5,154.68518775853065L188.5,154.6957403622063L188.5,154.7124028161806L188.5,154.735489177988L188.5,154.75950096075408L190.91666666666666,154.80145029014287L190.91666666666666,154.8259473871106L190.91666666666666,154.84711773513442L190.91666666666666,154.8671632324929L190.91666666666666,154.88403822762382L190.91666666666666,154.90509181103093L190.91666666666666,154.9272388535185L190.91666666666666,154.94126488917283L190.91666666666666,154.95574016889483L190.91666666666666,154.97269981448375L190.91666666666666,154.98476257711448L193.33333333333331,155.03049381661225L193.33333333333331,155.0554862416875L193.33333333333331,155.07765814721458L193.33333333333331,155.10290309060989L193.33333333333331,155.12358916867186L193.33333333333331,155.15131658914177L193.33333333333331,155.17318838546538L195.75,155.22142368393014L195.75,155.25534402313357L195.75,155.27429331847432L195.75,155.30417625427725L195.75,155.3342908290968L195.75,155.3614615093468L195.75,155.3889772863446L195.75,155.4144977903809L195.75,155.43754754514725L195.75,155.45829426632494L195.75,155.47470703328014L198.16666666666666,155.48036506324158L198.16666666666666,155.47868229284074L198.16666666666666,155.50920920364536L198.16666666666666,155.5411523678934L198.16666666666666,155.5680247791443L198.16666666666666,155.60687277495285L198.16666666666666,155.64386685928156L198.16666666666666,155.67531642383264L198.16666666666666,155.70539257588615L198.16666666666666,155.73378794371584L200.58333333333334,155.7514267735732L200.58333333333334,155.75256343105434L200.58333333333334,155.76005951536743L200.58333333333334,155.76990217367208L200.58333333333334,155.78060231064185L200.58333333333334,155.79028068911734L200.58333333333334,155.79657679384073L200.58333333333334,155.80342095326247L200.58333333333334,155.80286500584901L200.58333333333334,155.80607598146028L203,155.81992343280928L203,155.82686138355243L203,155.86706032349002L203,155.889363554678L203,155.912786250868L203,155.9360113155401L203,155.95701313537643L203,155.9779826116678L203,156.00193035977694L203,156.02835344693295L203,156.03272425656687L205.41666666666669,156.01722954920342L205.41666666666669,156.02423629277288L205.41666666666669,156.0329725041506L205.41666666666669,156.04275424900567L205.41666666666669,156.05337442908953L205.41666666666669,156.0659416025535L205.41666666666669,156.07511479498177L205.41666666666669,156.08347530860868L207.83333333333334,156.05088480936197L207.83333333333334,156.0547264458773L207.83333333333334,156.06319927286958L207.83333333333334,156.06051783319575L207.83333333333334,156.0732145881002L207.83333333333334,156.08388258358613L207.83333333333334,156.0946145743006L207.83333333333334,156.10861549033524L210.25,156.16848943324L210.25,156.22406431157447L210.25,156.29042309287294L210.25,156.3517824593926L210.25,156.41281732490236L210.25,156.4705349822049L210.25,156.52310997503446L210.25,156.56254687962007L210.25,156.5844137972019L210.25,156.60543074472753L210.25,156.62457822909758L212.66666666666666,156.62834283243384L212.66666666666666,156.62733930912344L212.66666666666666,156.64008134132516L212.66666666666666,156.66473117135067L212.66666666666666,156.69509576538198L212.66666666666666,156.72615460122668L212.66666666666666,156.75789512184053L212.66666666666666,156.78871234469068L212.66666666666666,156.81301061252086L212.66666666666666,156.8359390794472L212.66666666666666,156.85608389146867L215.08333333333334,156.91944933158015L215.08333333333334,156.98137221955523L215.08333333333334,157.01603848933777L215.08333333333334,157.04074091180783L215.08333333333334,157.04549049577506L215.08333333333334,157.05336561790924L215.08333333333334,157.06255061469705L215.08333333333334,157.071364849956L215.08333333333334,157.07834445177875L215.08333333333334,157.08603713105018L217.5,157.11392141201L217.5,157.12237957891827L217.5,157.12740583929573L217.5,157.146871824339L217.5,157.16332901523631L217.5,157.1794279431881L217.5,157.20016468115674L219.91666666666666,157.2403744186771L219.91666666666666,157.27198043299435L219.91666666666666,157.30368768824718L219.91666666666666,157.3312651791513L219.91666666666666,157.35640180390806L219.91666666666666,157.37784783919798L222.33333333333334,157.35578582310316L222.33333333333334,157.36717367127494L222.33333333333334,157.38004971104075L222.33333333333334,157.38947208230047L222.33333333333334,157.394153213542L222.33333333333334,157.39532582510435L222.33333333333334,157.40827666716257L222.33333333333334,157.41597798152918L222.33333333333334,157.42825023494606L222.33333333333334,157.43763000497543L222.33333333333334,157.447160270615L222.33333333333334,157.45482010129928L224.75,157.51703334534812L224.75,157.57646779132799L224.75,157.61500925836236L224.75,157.63664506031978L224.75,157.6397866562874L224.75,157.64861219220634L224.75,157.65013768413277L224.75,157.65074619657477L224.75,157.65647935389327L224.75,157.66210289590464L224.75,157.67187026978291L227.16666666666666,157.73360761154413L227.16666666666666,157.76336282843138L227.16666666666666,157.79264803192115L227.16666666666666,157.80958352834523L227.16666666666666,157.8235261116973L227.16666666666666,157.8388734599773L227.16666666666666,157.85132939170128L229.58333333333331,157.76833477390616L229.58333333333331,157.7818175484406L229.58333333333331,157.80918442352947L229.58333333333331,157.84007256043077L229.58333333333331,157.87342094701046L229.58333333333331,157.88941528417604L229.58333333333331,157.901136243761L229.58333333333331,157.9119614462797L229.58333333333331,157.92268789616293L232,157.98807989338252L232,157.97185762862617L232,157.9618229002579L232,157.96521085009306L232,157.96774358506065L232,157.96924251325237L232,157.97433928742453L232,157.97792009961825L232,157.98081296451002L232,157.9834062986449L234.41666666666666,157.9432350847852L234.41666666666666,157.94368056727401L234.41666666666666,157.9527989060611L234.41666666666666,157.96345257864732L234.41666666666666,157.98729110199733L234.41666666666666,158.00593304265632L234.41666666666666,158.0147486241921L234.41666666666666,158.02400844163208L234.41666666666666,158.03251764822187L234.41666666666666,158.04115454532973L234.41666666666666,158.0507755424267L234.41666666666666,158.0593624047589L236.83333333333334,158.10511031218311L236.83333333333334,158.1534825189118L236.83333333333334,158.1979980154131L236.83333333333334,158.23134923084373L236.83333333333334,158.2460630430391L236.83333333333334,158.2573861196816L236.83333333333334,158.26661645429044L236.83333333333334,158.2767570387957L236.83333333333334,158.2860144198493L236.83333333333334,158.2932601886022L236.83333333333334,158.29932505313818L236.83333333333334,158.3044892794445L236.83333333333334,158.30306758897774L239.25,158.2981326789549L239.25,158.2779127718604L239.25,158.2803421533124L239.25,158.2872962954358L239.25,158.29359295542835L239.25,158.30240680398552L239.25,158.30850108939816L239.25,158.31415792807428L241.66666666666669,158.358582502025L241.66666666666669,158.4128661501127L241.66666666666669,158.44518683667795L241.66666666666669,158.47987399039195L241.66666666666669,158.5126498097991L241.66666666666669,158.5362643427724L244.08333333333334,158.53818824670915L244.08333333333334,158.5432683294574L244.08333333333334,158.55625854268982L244.08333333333334,158.5684886019036L244.08333333333334,158.58079304147012L244.08333333333334,158.59265923567946L246.5,158.64871313971696L246.5,158.6951719805578L246.5,158.72304600931514L246.5,158.72886161267203L246.5,158.7351165633298L246.5,158.74032863898597L246.5,158.74795717897362L246.5,158.7548281836731L246.5,158.76850202531233L246.5,158.78215590313658L246.5,158.79612274540767L248.91666666666666,158.74790584849458L248.91666666666666,158.74692506012104L248.91666666666666,158.77734441628996L248.91666666666666,158.79805658092L248.91666666666666,158.81693661064804L248.91666666666666,158.83022640914578L248.91666666666666,158.84254194269394L248.91666666666666,158.85576835370387L248.91666666666666,158.86667405755827L251.33333333333334,158.86455597598786L251.33333333333334,158.86973442982594L251.33333333333334,158.8733706826559L251.33333333333334,158.8891708906106L251.33333333333334,158.9025659457178L251.33333333333334,158.91635330560948L251.33333333333334,158.93498254223155L251.33333333333334,158.94644103393767L253.75,158.98035874998592L253.75,159.0240191779705L253.75,159.06014231645202L253.75,159.09072017235536L253.75,159.11706991230278L253.75,159.13710191632896L253.75,159.15504817350515L253.75,159.17194229624786L253.75,159.1849605596216L256.1666666666667,159.23817067204354L256.1666666666667,159.2829014141412L256.1666666666667,159.3175411935994L256.1666666666667,159.34770551676866L256.1666666666667,159.37344111390462L256.1666666666667,159.39198257817003L256.1666666666667,159.410504073312L256.1666666666667,159.42821013705395L256.1666666666667,159.4447432776306L256.1666666666667,159.46051609444254L258.58333333333337,159.43158217674744L258.58333333333337,159.40714819727776L258.58333333333337,159.3755948055388L258.58333333333337,159.34803068656936L258.58333333333337,159.32082702610148L258.58333333333337,159.29974042175803L258.58333333333337,159.28187637499136L258.58333333333337,159.27355641683047L258.58333333333337,159.2695686247905L258.58333333333337,159.27047069625178L261,159.2842486718626L261,159.29842189534156L261,159.31668757490283L261,159.32441558092702L261,159.33155805498237L261,159.33635215459645L261,159.34278715661128L263.4166666666667,159.38410128266028L263.4166666666667,159.386710728381L263.4166666666667,159.4003185904674L263.4166666666667,159.41236104446847L263.4166666666667,159.42579262650793L263.4166666666667,159.43680475452987L263.4166666666667,159.44485467296815L263.4166666666667,159.45546678357698L263.4166666666667,159.46953079013235L263.4166666666667,159.4816747831831L263.4166666666667,159.49221591824326L265.8333333333333,159.52216459304424L265.8333333333333,159.54665548767463L265.8333333333333,159.56806331930085L265.8333333333333,159.57906405570256L265.8333333333333,159.58135062066256L265.8333333333333,159.58219533490302L265.8333333333333,159.58386067336605L265.8333333333333,159.58904913809414L265.8333333333333,159.59528354701092L265.8333333333333,159.6027771337763L265.8333333333333,159.60830305380014L265.8333333333333,159.61364116613336L265.8333333333333,159.61979645356095" style="fill: none;" fill="none"></path></g></g></g></g><g opacity="0.2"><g><g><g><path stroke="rgb(255, 112, 67)" stroke-width="2px" d="M26.583333333333332,11.725811541080475L26.583333333333332,27.807590067386627L26.583333333333332,41.57419788837433L26.583333333333332,67.69896447658539L26.583333333333332,70.04863375425339L26.583333333333332,72.31688851118088L26.583333333333332,73.5147380232811L29,123.31899762153625L29,124.38188070058823L29,124.93633711338043L29,126.98422300815582L29,127.72319930791855L29,128.19136708974838L29,128.1475581228733L29,128.61572062969208L29,128.56350857019424L31.416666666666668,130.31757634878159L31.416666666666668,128.15330788493156L31.416666666666668,128.33871924877167L31.416666666666668,128.2126042842865L31.416666666666668,128.72325173020363L31.416666666666668,129.3299149274826L31.416666666666668,129.28655433654785L31.416666666666668,129.43346339464188L33.833333333333336,133.18984624743462L33.833333333333336,128.42500260472298L33.833333333333336,127.55726328492165L33.833333333333336,127.97763946652412L33.833333333333336,128.73608055710793L33.833333333333336,128.88520511984825L33.833333333333336,129.77949884533882L33.833333333333336,130.14544746279716L36.25,135.34835967421532L36.25,135.79705475270748L36.25,135.79661165177822L36.25,134.9700226932764L36.25,134.7208944708109L36.25,134.64390040934086L36.25,134.5186716467142L36.25,134.5111494809389L36.25,134.36335422098637L38.666666666666664,135.86166045069695L38.666666666666664,136.49089542031288L38.666666666666664,135.872279047966L38.666666666666664,136.00679974257946L38.666666666666664,135.9271497130394L38.666666666666664,135.9129889458418L38.666666666666664,135.5032339990139L38.666666666666664,135.29525877535343L38.666666666666664,135.23950454592705L41.083333333333336,133.33763886988163L41.083333333333336,133.72659708559513L41.083333333333336,133.81199951469898L41.083333333333336,134.0872337669134L41.083333333333336,134.1952053308487L41.083333333333336,134.40362365543842L41.083333333333336,134.49831801652908L41.083333333333336,134.5111494809389L43.5,136.17096863687038L43.5,135.04790295660496L43.5,135.27623181045055L43.5,135.14613685011864L43.5,134.92886969447136L43.5,135.47580130398273L43.5,135.68244722485542L45.916666666666664,135.4948282688856L45.916666666666664,135.2001213133335L45.916666666666664,135.84440325200558L45.916666666666664,135.6921822577715L45.916666666666664,135.76829275488853L45.916666666666664,136.01742097735405L48.33333333333333,137.00817619264126L48.33333333333333,137.26482658088207L48.33333333333333,136.86967550218105L48.33333333333333,137.11304868757725L48.33333333333333,137.38961224257946L48.33333333333333,137.43386167287827L48.33333333333333,137.39536464214325L48.33333333333333,137.50908860564232L48.33333333333333,137.4931580722332L50.75,139.768934994936L50.75,139.49768337607384L50.75,138.74144987761974L50.75,137.84140375256538L50.75,137.9520312845707L50.75,137.93167501688004L50.75,138.0113250464201L53.166666666666664,138.46090368926525L53.166666666666664,138.40647876262665L53.166666666666664,138.76047684252262L53.166666666666664,138.88393583893776L53.166666666666664,138.87066127359867L53.166666666666664,138.46975515782833L53.166666666666664,138.34010329842567L53.166666666666664,138.4020530283451L53.166666666666664,138.39807039499283L53.166666666666664,138.32417276501656L55.583333333333336,137.63077519834042L55.583333333333336,137.6272356659174L55.583333333333336,137.42058710753918L55.583333333333336,137.04844562709332L55.583333333333336,137.13606092333794L55.583333333333336,136.99446116387844L55.583333333333336,136.99888426065445L55.583333333333336,136.97897373139858L55.583333333333336,136.85374496877193L55.583333333333336,136.9002072662115L55.583333333333336,136.91392493247986L55.583333333333336,137.05862376093864L55.583333333333336,137.15553098917007L58,137.8604333549738L58,138.08345291018486L58,138.1330116391182L58,138.28125L58,138.3803700953722L58,138.41754046082497L58,138.41311472654343L58,138.5693183541298L58,138.5454225540161L60.41666666666667,135.97538177669048L60.41666666666667,137.3807634115219L60.41666666666667,137.97592444717884L60.41666666666667,138.63392141461372L60.41666666666667,139.07907696068287L60.41666666666667,139.28882195055485L60.41666666666667,139.21050122380257L60.41666666666667,139.15032126009464L60.41666666666667,139.29546055197716L60.41666666666667,139.38041988015175L60.41666666666667,139.3959073126316L60.41666666666667,139.20740215480328L60.41666666666667,139.19943688809872L60.41666666666667,139.16403628885746L62.833333333333336,139.57467743754387L62.833333333333336,139.45210464298725L62.833333333333336,139.04987186193466L62.833333333333336,139.3667022138834L62.833333333333336,139.39059801399708L62.833333333333336,139.46316634118557L62.833333333333336,139.41493427753448L62.833333333333336,139.46980494260788L62.833333333333336,139.56140287220478L65.25,138.71755407750607L65.25,140.60216255486012L65.25,140.86810487508774L65.25,140.2539142370224L65.25,139.71937626600266L65.25,139.70742836594582L65.25,139.81937992572784L65.25,139.84017665684223L65.25,139.55520737171173L65.25,139.9490317851305L65.25,139.9215964525938L65.25,139.90699522197247L65.25,139.985759049654L65.25,140.07647341489792L65.25,140.05523358285427L65.25,140.2786962389946L67.66666666666667,141.18227925896645L67.66666666666667,141.29157748818398L67.66666666666667,141.10705496370792L67.66666666666667,141.120329529047L67.66666666666667,140.44905799627304L67.66666666666667,140.3154235035181L67.66666666666667,140.29506723582745L67.66666666666667,140.40436546504498L67.66666666666667,140.28002290427685L67.66666666666667,140.2570133060217L67.66666666666667,140.47118139266968L67.66666666666667,140.49596339464188L67.66666666666667,140.4663151949644L67.66666666666667,140.5087948590517L67.66666666666667,140.798632979393L70.08333333333333,139.18704852461815L70.08333333333333,140.00124648213387L70.08333333333333,140.30391870439053L70.08333333333333,140.40923166275024L70.08333333333333,140.18931117653847L70.08333333333333,140.78845484554768L70.08333333333333,140.89332734048367L70.08333333333333,140.9176662415266L72.5,142.96378500759602L72.5,141.84293219447136L72.5,141.41857601702213L72.5,141.58097250759602L72.5,141.40485835075378L72.5,140.9459851384163L72.5,141.1017456650734L72.5,141.14333912730217L72.5,141.1309507638216L72.5,141.14378222823143L72.5,141.0836022645235L72.5,141.1110375970602L72.5,141.10661186277866L74.91666666666667,140.12780191004276L74.91666666666667,141.4433553814888L74.91666666666667,141.4451251477003L74.91666666666667,141.40220238268375L74.91666666666667,141.26458525657654L74.91666666666667,141.26989455521107L74.91666666666667,141.67964950203896L74.91666666666667,141.72921086847782L74.91666666666667,141.92125555872917L74.91666666666667,142.0163930207491L74.91666666666667,142.10622118413448L74.91666666666667,142.04869455099106L74.91666666666667,141.9964798539877L77.33333333333333,141.93762655556202L77.33333333333333,141.6991195678711L77.33333333333333,141.53141377866268L77.33333333333333,141.64380843937397L77.33333333333333,141.6283210068941L77.33333333333333,141.7314237356186L77.33333333333333,141.54778477549553L77.33333333333333,141.47034761309624L77.33333333333333,141.60265544056892L77.33333333333333,141.73230729997158L77.33333333333333,141.76682169735432L77.33333333333333,141.63451386988163L77.33333333333333,141.69734980165958L77.33333333333333,141.7982396632433L77.33333333333333,141.8181528300047L79.75,141.64956083893776L79.75,143.173529997468L79.75,143.16866379976273L79.75,143.02883380651474L79.75,142.7562528848648L79.75,142.79474991559982L79.75,142.80271518230438L79.75,142.43013060092926L79.75,142.5544731616974L79.75,142.48278839886189L82.16666666666667,141.74425520002842L82.16666666666667,142.30091920495033L82.16666666666667,142.7894406169653L82.16666666666667,142.51287706196308L82.16666666666667,142.29074370861053L82.16666666666667,142.52615162730217L82.16666666666667,142.49031056463718L82.16666666666667,142.40623480081558L82.16666666666667,142.33189406991005L82.16666666666667,142.3580027371645L82.16666666666667,142.63279388844967L82.16666666666667,142.68855075538158L84.58333333333334,142.78147535026073L84.58333333333334,142.4004824012518L84.58333333333334,143.46115525066853L84.58333333333334,143.45540285110474L84.58333333333334,143.00538110733032L84.58333333333334,143.00715087354183L87,144.4390790015459L87,144.03463599085808L87,143.94392162561417L87,144.14127825200558L87,143.83197006583214L87,143.316015958786L87,143.17839619517326L87,143.18680456280708L87,143.21291323006153L89.41666666666667,143.39831931889057L89.41666666666667,143.09387996792793L89.41666666666667,143.36070849001408L89.41666666666667,143.6616083085537L89.41666666666667,143.5916933119297L89.41666666666667,143.9359563589096L89.41666666666667,144.2271237820387L89.41666666666667,144.20942348241806L89.41666666666667,144.28110824525356L91.83333333333333,145.05769537389278L91.83333333333333,144.50191493332386L91.83333333333333,144.7762656211853L91.83333333333333,144.75060005486012L91.83333333333333,144.51740236580372L91.83333333333333,144.36651067435741L91.83333333333333,144.37358973920345L91.83333333333333,144.40323793888092L91.83333333333333,144.37712927162647L91.83333333333333,144.42005203664303L91.83333333333333,144.14526088535786L94.25,144.32093194127083L94.25,143.84037843346596L94.25,144.08640758693218L94.25,144.3138528764248L94.25,144.7705132216215L94.25,144.78113181889057L94.25,144.80281475186348L94.25,144.83954201638699L94.25,144.86830401420593L94.25,144.85812851786613L94.25,145.02318097651005L94.25,145.090440005064L94.25,145.1417711377144L94.25,145.1829214990139L96.66666666666666,145.57409258186817L96.66666666666666,145.20903016626835L96.66666666666666,145.34841705858707L96.66666666666666,145.2869104295969L96.66666666666666,145.408597022295L99.08333333333333,145.64975997805595L99.08333333333333,145.82720343768597L99.08333333333333,145.4577152878046L99.08333333333333,145.36257782578468L99.08333333333333,145.19000320136547L99.08333333333333,145.76525370776653L99.08333333333333,145.7794118374586L99.08333333333333,145.83649536967278L99.08333333333333,145.84092110395432L99.08333333333333,145.69799204170704L101.5,143.57974541187286L101.5,144.31916217505932L101.5,144.78909708559513L101.5,145.22230473160744L101.5,145.17495623230934L101.5,145.6528564095497L101.5,145.77896873652935L101.5,145.7869340032339L103.91666666666667,145.91968493163586L103.91666666666667,146.4290030747652L103.91666666666667,146.45510910451412L103.91666666666667,146.43298570811749L103.91666666666667,146.40112464129925L103.91666666666667,146.4958190023899L103.91666666666667,146.51307620108128L103.91666666666667,146.5214845687151L103.91666666666667,146.473252505064L103.91666666666667,146.57325880229473L106.33333333333333,145.88871006667614L106.33333333333333,145.9183582663536L106.33333333333333,146.1617314517498L106.33333333333333,146.0258840918541L106.33333333333333,146.12190775573254L106.33333333333333,146.07765832543373L106.33333333333333,146.11836822330952L106.33333333333333,146.0842942893505L106.33333333333333,146.186513453722L108.75,147.18877610564232L108.75,147.15735813975334L108.75,147.46401035785675L108.75,147.2538222670555L108.75,147.31798486411572L108.75,147.33656872808933L108.75,147.3927686959505L108.75,147.47241872549057L108.75,147.43436215817928L111.16666666666667,146.62458729743958L111.16666666666667,147.72508384287357L111.16666666666667,147.62198375165462L111.16666666666667,147.25603513419628L111.16666666666667,147.28302736580372L111.16666666666667,147.24099080264568L111.16666666666667,147.33656872808933L111.16666666666667,147.34276422858238L111.16666666666667,147.325507029891L111.16666666666667,147.325507029891L111.16666666666667,147.45560199022293L111.16666666666667,147.30736626684666L113.58333333333333,147.66579008102417L113.58333333333333,147.67508201301098L113.58333333333333,147.69942091405392L113.58333333333333,147.7644670754671L113.58333333333333,147.38701629638672L113.58333333333333,147.50118072330952L113.58333333333333,147.37816482782364L113.58333333333333,147.35958096385002L113.58333333333333,147.52065078914165L113.58333333333333,147.4635672569275L113.58333333333333,147.51799482107162L113.58333333333333,147.5635735541582L113.58333333333333,147.59720174968243L113.58333333333333,147.5786178857088L116,147.38303366303444L116,148.30652984976768L116,148.4074197113514L116,148.49503500759602L116,148.61141230165958L116,148.53308893740177L116,148.58618983626366L116,148.61716470122337L116,148.59415510296822L116,148.6122985035181L116,148.68177039921284L116,148.53353203833103L116,148.56273713707924L116,148.61141230165958L116,148.56937573850155L116,148.67291893064976L118.41666666666667,148.6215904355049L118.41666666666667,148.33352208137512L118.41666666666667,147.97642493247986L118.41666666666667,148.03527823090553L118.41666666666667,148.20387022197247L118.41666666666667,148.2591813504696L120.83333333333334,147.65871101617813L120.83333333333334,148.63043926656246L120.83333333333334,148.93266838788986L120.83333333333334,148.70522309839725L120.83333333333334,148.5375146716833L120.83333333333334,148.50211407244205L120.83333333333334,148.50211407244205L123.25,150.9265724569559L123.25,148.3906056135893L123.25,148.60300393402576L123.25,148.21050618588924L123.25,148.23971128463745L123.25,148.27865141630173L123.25,148.2357312887907L123.25,148.23971128463745L123.25,148.24059748649597L123.25,148.27555498480797L123.25,148.2414836883545L123.25,148.24546368420124L123.25,148.29856458306313L125.66666666666667,149.00258338451385L125.66666666666667,148.4808742403984L125.66666666666667,148.55787093937397L125.66666666666667,148.57025930285454L125.66666666666667,148.76274709403515L128.08333333333334,150.14954222738743L128.08333333333334,149.81589777767658L128.08333333333334,149.54331685602665L128.08333333333334,149.31100536882877L128.08333333333334,149.48623596131802L128.08333333333334,149.5601335912943L128.08333333333334,149.69066901504993L128.08333333333334,149.56588599085808L128.08333333333334,149.55305188894272L128.08333333333334,149.48667642474174L128.08333333333334,149.45304822921753L130.5,150.2491054236889L130.5,150.18494282662868L130.5,150.21901412308216L130.5,149.5203072577715L130.5,149.48888929188251L130.5,149.37472486495972L130.5,149.45127846300602L130.5,149.50614649057388L130.5,149.42561289668083L130.5,149.39994733035564L130.5,149.44065722823143L132.91666666666666,150.19113832712173L132.91666666666666,150.09245869517326L132.91666666666666,149.78713577985764L132.91666666666666,149.88404300808907L132.91666666666666,149.87165200710297L132.91666666666666,149.71013908088207L132.91666666666666,149.45658776164055L132.91666666666666,149.44640962779522L132.91666666666666,149.39817756414413L132.91666666666666,149.4760578274727L135.33333333333334,150.06546646356583L135.33333333333334,149.68314684927464L135.33333333333334,149.21409814059734L135.33333333333334,149.9393541365862L135.33333333333334,149.77474477887154L135.33333333333334,149.92696577310562L135.33333333333334,149.9703290015459L135.33333333333334,150.37521775066853L135.33333333333334,150.3632698506117L135.33333333333334,150.0676793307066L135.33333333333334,150.05617453157902L135.33333333333334,150.12387666106224L135.33333333333334,150.052634999156L135.33333333333334,149.94068343937397L135.33333333333334,149.8725382089615L135.33333333333334,149.86811247467995L137.75,149.48402309417725L137.75,149.9291786402464L137.75,150.12520596385002L137.75,150.51195131242275L137.75,150.39690068364143L137.75,150.19998715817928L137.75,150.27211502194405L137.75,150.23627132177353L137.75,150.22697938978672L137.75,150.25707069039345L137.75,150.24689255654812L137.75,150.22211319208145L137.75,150.26149378716946L137.75,150.26459285616875L140.16666666666666,150.98100002110004L140.16666666666666,151.04294975101948L140.16666666666666,150.78364603221416L140.16666666666666,151.1239264458418L140.16666666666666,151.19915337860584L140.16666666666666,151.13676054775715L140.16666666666666,150.77479456365108L140.16666666666666,150.7889553308487L140.16666666666666,150.7756807655096L140.16666666666666,150.75045830011368L140.16666666666666,150.82922212779522L140.16666666666666,150.8588703274727L140.16666666666666,150.87125869095325L142.58333333333331,149.95130203664303L142.58333333333331,150.0110388994217L142.58333333333331,150.31769375503063L142.58333333333331,150.5500052422285L142.58333333333331,150.55310167372227L142.58333333333331,150.59204180538654L142.58333333333331,150.6106283068657L142.58333333333331,150.55266121029854L142.58333333333331,150.6340810060501L142.58333333333331,150.7008969336748L142.58333333333331,150.6606301367283L142.58333333333331,150.68054330348969L142.58333333333331,150.7159412652254L142.58333333333331,150.67213493585587L145,150.96285662055016L145,151.1779135465622L145,151.20623244345188L145,151.28057317435741L145,151.3031396716833L145,151.35270103812218L145,151.41774719953537L145,151.32747857272625L145,151.34075313806534L147.41666666666666,151.8111311495304L147.41666666666666,151.71643415093422L147.41666666666666,151.54076309502125L147.41666666666666,151.4827959984541L147.41666666666666,151.34340646862984L147.41666666666666,151.48323646187782L147.41666666666666,151.48677863180637L147.41666666666666,151.48766219615936L147.41666666666666,151.4827959984541L147.41666666666666,151.5128846615553L147.41666666666666,151.4796969294548L147.41666666666666,151.48014003038406L147.41666666666666,151.4796969294548L147.41666666666666,151.14693868160248L149.83333333333334,152.20628222823143L149.83333333333334,151.4553606659174L149.83333333333334,151.5836858600378L149.83333333333334,151.59917329251766L149.83333333333334,151.6261655241251L149.83333333333334,151.55182479321957L152.25,150.3274287879467L152.25,152.06999176740646L152.25,152.01866327226162L152.25,151.9478620737791L152.25,152.11645406484604L152.25,152.13946630060673L152.25,152.11645406484604L152.25,151.9921115040779L154.66666666666666,152.17442379891872L154.66666666666666,152.3018627911806L154.66666666666666,152.2226558625698L154.66666666666666,152.23371756076813L154.66666666666666,152.25540049374104L154.66666666666666,152.43328441679478L154.66666666666666,152.39700025320053L154.66666666666666,152.39700025320053L157.08333333333331,152.38637901842594L157.08333333333331,151.95140160620213L157.08333333333331,152.30672898888588L157.08333333333331,152.36912181973457L157.08333333333331,152.39877001941204L157.08333333333331,152.29964992403984L157.08333333333331,152.35053795576096L157.08333333333331,152.54125598073006L157.08333333333331,152.570017978549L157.08333333333331,152.52134281396866L157.08333333333331,152.58373564481735L157.08333333333331,152.62621530890465L157.08333333333331,152.6200198084116L157.08333333333331,152.66338567435741L159.5,152.68373930454254L159.5,152.04078666865826L159.5,151.91556054353714L159.5,152.4934643805027L159.5,152.69391743838787L159.5,152.5832925438881L159.5,152.60099284350872L159.5,152.74214950203896L159.5,152.8425962626934L159.5,152.8456953316927L159.5,152.87622709572315L159.5,152.7956935018301L159.5,152.8399429321289L161.91666666666666,152.30717208981514L161.91666666666666,153.20102271437645L161.91666666666666,152.7925944328308L161.91666666666666,152.4399230182171L161.91666666666666,152.46514548361301L161.91666666666666,152.496563449502L161.91666666666666,152.5257685482502L161.91666666666666,152.58594851195812L161.91666666666666,152.64701204001904L161.91666666666666,152.74303570389748L161.91666666666666,152.73684020340443L161.91666666666666,152.81339380145073L161.91666666666666,152.71825370192528L164.33333333333334,152.38460925221443L164.33333333333334,151.3788070678711L164.33333333333334,151.86555871367455L164.33333333333334,152.1319414973259L164.33333333333334,152.28062295913696L164.33333333333334,152.39567358791828L164.33333333333334,152.53063474595547L164.33333333333334,152.55408744513988L164.33333333333334,152.66692520678043L164.33333333333334,152.6965734064579L164.33333333333334,152.79171086847782L166.75,153.60413905978203L166.75,153.51077136397362L166.75,153.42935156822205L166.75,152.9049890935421L166.75,152.89215762913227L166.75,153.02357925474644L166.75,153.11119455099106L166.75,153.14925111830235L169.16666666666669,154.15416710078716L169.16666666666669,153.74928098917007L169.16666666666669,153.8227355182171L169.16666666666669,153.99663680791855L169.16666666666669,154.1077048033476L169.16666666666669,154.07496017217636L169.16666666666669,154.08646497130394L169.16666666666669,154.06345537304878L169.16666666666669,154.05637630820274L169.16666666666669,154.05106437206268L169.16666666666669,154.06566824018955L171.58333333333334,153.47493030130863L171.58333333333334,154.11965270340443L171.58333333333334,153.99309727549553L171.58333333333334,154.02407214045525L171.58333333333334,154.06212870776653L174,154.49135372042656L174,154.344442024827L174,154.30992762744427L174,154.19310723245144L174,154.26656176149845L174,154.1829290986061L174,154.17098119854927L174,154.15461020171642L174,154.09796977043152L176.41666666666666,153.18597838282585L176.41666666666666,153.48820486664772L176.41666666666666,153.95637001097202L176.41666666666666,154.11345720291138L176.41666666666666,154.0501808077097L176.41666666666666,154.0537203401327L176.41666666666666,154.05549010634422L176.41666666666666,154.09221737086773L176.41666666666666,154.09664310514927L176.41666666666666,154.18956770002842L176.41666666666666,154.23381713032722L176.41666666666666,154.1944338977337L178.83333333333334,155.13474813848734L178.83333333333334,154.5825085490942L178.83333333333334,154.3019623607397L178.83333333333334,154.33559319376945L178.83333333333334,154.3143533617258L178.83333333333334,154.31302405893803L178.83333333333334,154.19266413152218L178.83333333333334,154.18469886481762L178.83333333333334,154.22142876684666L178.83333333333334,154.50197231769562L178.83333333333334,154.553303450346L181.25,154.92367516458035L181.25,154.99845767766237L181.25,154.91349703073502L181.25,154.9042050987482L181.25,154.89845269918442L181.25,155.02633479237556L181.25,154.87455689907074L183.66666666666666,154.8524335026741L183.66666666666666,155.00642294436693L183.66666666666666,154.84977753460407L183.66666666666666,154.9741200953722L183.66666666666666,154.92809958010912L183.66666666666666,154.76747153699398L183.66666666666666,154.81880266964436L183.66666666666666,154.8294212669134L183.66666666666666,154.78030563890934L183.66666666666666,154.74180860817432L183.66666666666666,154.63826277852058L183.66666666666666,154.61481007933617L183.66666666666666,154.55639988183975L183.66666666666666,154.56746158003807L186.08333333333334,155.2002374008298L186.08333333333334,154.8657080680132L186.08333333333334,154.42453515529633L186.08333333333334,154.57365708053112L186.08333333333334,155.18607795238495L186.08333333333334,154.97544807940722L186.08333333333334,154.97544807940722L186.08333333333334,154.9741200953722L186.08333333333334,154.9758898615837L186.08333333333334,154.9741200953722L188.5,154.127617970109L188.5,154.69313344359398L188.5,154.66614121198654L188.5,154.9046468809247L188.5,154.89623983204365L188.5,155.02898944169283L188.5,155.1741300523281L188.5,155.21572483330965L190.91666666666666,155.5984875485301L190.91666666666666,155.29139222949743L190.91666666666666,155.24935434758663L190.91666666666666,155.24802768230438L190.91666666666666,155.20466313511133L190.91666666666666,155.30510989576578L190.91666666666666,155.34803266078234L190.91666666666666,155.2077595666051L190.91666666666666,155.23077048361301L190.91666666666666,155.29493308067322L190.91666666666666,155.21395506709814L193.33333333333331,155.89938736706972L193.33333333333331,155.53034231811762L193.33333333333331,155.49892435222864L193.33333333333331,155.58255701512098L193.33333333333331,155.51662465184927L193.33333333333331,155.67813757807016L193.33333333333331,155.58875251561403L195.75,156.13789435476065L195.75,155.89983046799898L195.75,155.63432992994785L195.75,155.87195203453302L195.75,155.90646775066853L195.75,155.8777044340968L195.75,155.91177704930305L195.75,155.89938736706972L195.75,155.8754928857088L195.75,155.85248196870089L195.75,155.78654960542917L198.16666666666666,155.58786763250828L198.16666666666666,155.44670965522528L198.16666666666666,156.08922050893307L198.16666666666666,156.14807248860598L198.16666666666666,156.07860059291124L198.16666666666666,156.34498469531536L198.16666666666666,156.34675446152687L198.16666666666666,156.27285815030336L198.16666666666666,156.27683946490288L198.16666666666666,156.27329993247986L200.58333333333334,156.08656454086304L200.58333333333334,155.77415992319584L200.58333333333334,155.90248511731625L200.58333333333334,155.95691268146038L200.58333333333334,155.98390491306782L200.58333333333334,155.97416988015175L200.58333333333334,155.9162027835846L200.58333333333334,155.93345998227596L200.58333333333334,155.79230200499296L200.58333333333334,155.867084518075L203,156.08302500844002L203,155.9586824476719L203,156.63084018230438L203,156.3131249472499L203,156.35781747847795L203,156.3772875443101L203,156.35604771226645L203,156.37640266120434L203,156.45693757385015L203,156.53039210289717L203,156.11576963961124L205.41666666666669,155.72283010929823L205.41666666666669,156.15736442059278L205.41666666666669,156.1989605203271L205.41666666666669,156.2286074012518L205.41666666666669,156.25515785068274L205.41666666666669,156.30471789836884L205.41666666666669,156.24940545111895L205.41666666666669,156.24232506752014L207.83333333333334,155.43166532367468L207.83333333333334,156.12771753966808L207.83333333333334,156.22418298572302L207.83333333333334,156.009570479393L207.83333333333334,156.3144529312849L207.83333333333334,156.28657449781895L207.83333333333334,156.2985223978758L207.83333333333334,156.37463289499283L210.25,157.30609434843063L210.25,157.27998699992895L210.25,157.55123993754387L210.25,157.5176104232669L210.25,157.57247976958752L210.25,157.567170470953L210.25,157.52203483879566L210.25,157.3118480667472L210.25,156.99988523125648L210.25,157.00475274771452L210.25,156.9883804321289L212.66666666666666,156.69987029582262L212.66666666666666,156.60827236622572L212.66666666666666,156.8821799531579L212.66666666666666,157.13307794183493L212.66666666666666,157.27202305197716L212.66666666666666,157.31627248227596L212.66666666666666,157.36096501350403L212.66666666666666,157.37423957884312L212.66666666666666,157.27467770129442L212.66666666666666,157.2715799510479L212.66666666666666,157.23883531987667L215.08333333333334,158.1233926936984L215.08333333333334,158.15790709108114L215.08333333333334,157.67469761520624L215.08333333333334,157.51008693873882L215.08333333333334,157.1357325911522L215.08333333333334,157.20299293845892L215.08333333333334,157.23706555366516L215.08333333333334,157.23883531987667L215.08333333333334,157.2109568864107L215.08333333333334,157.23219803720713L217.5,157.64372275024652L217.5,157.28308475017548L217.5,157.22290478646755L217.5,157.51672554016113L217.5,157.47601564228535L217.5,157.48530757427216L217.5,157.59416270256042L219.91666666666666,158.0043594315648L219.91666666666666,157.87249470502138L219.91666666666666,157.90612553805113L219.91666666666666,157.85523750633L219.91666666666666,157.83399767428637L219.91666666666666,157.78532250970602L222.33333333333334,156.93660751730204L222.33333333333334,157.5835427865386L222.33333333333334,157.62469446659088L222.33333333333334,157.56849713623524L222.33333333333334,157.4830947071314L222.33333333333334,157.41760544478893L222.33333333333334,157.65434266626835L222.33333333333334,157.56230295449495L222.33333333333334,157.66142304986715L222.33333333333334,157.61584563553333L222.33333333333334,157.62823531776667L222.33333333333334,157.6003568843007L224.75,158.69908498227596L224.75,158.7057222649455L224.75,158.34729713201523L224.75,158.04772529751062L224.75,157.6994769796729L224.75,157.81629737466574L224.75,157.67912203073502L224.75,157.6623079329729L224.75,157.76540934294462L224.75,157.7689501941204L224.75,157.85745037347078L227.16666666666666,158.90661710500717L227.16666666666666,158.32871194928885L227.16666666666666,158.34906689822674L227.16666666666666,158.13135796040297L227.16666666666666,158.0884351953864L227.16666666666666,158.1304730772972L227.16666666666666,158.08799209445715L229.58333333333331,156.19143703579903L229.58333333333331,158.03799026459455L229.58333333333331,158.3291550502181L229.58333333333331,158.4269471615553L229.58333333333331,158.5070402920246L229.58333333333331,158.1933076903224L229.58333333333331,158.1238344758749L229.58333333333331,158.11764029413462L229.58333333333331,158.12649044394493L232,159.2305278405547L232,157.66363459825516L232,157.77116306126118L232,158.02958189696074L232,158.01586554944515L232,157.99772214889526L232,158.07117799669504L232,158.04595553129911L232,158.03577739745378L232,158.03267964720726L234.41666666666666,157.179982021451L234.41666666666666,157.95214473456144L234.41666666666666,158.12604734301567L234.41666666666666,158.1658723577857L234.41666666666666,158.44022304564714L234.41666666666666,158.36012991517782L234.41666666666666,158.18224467337132L234.41666666666666,158.19994497299194L234.41666666666666,158.19419257342815L234.41666666666666,158.20525559037924L234.41666666666666,158.23357448726892L234.41666666666666,158.2225127890706L236.83333333333334,158.97432055324316L236.83333333333334,159.07255444675684L236.83333333333334,159.0437924489379L236.83333333333334,158.86502232402563L236.83333333333334,158.525625474751L236.83333333333334,158.4725245758891L236.83333333333334,158.44199281185865L236.83333333333334,158.46942814439535L236.83333333333334,158.4619046598673L236.83333333333334,158.43092979490757L236.83333333333334,158.41455747932196L236.83333333333334,158.40260957926512L236.83333333333334,158.276055470109L239.25,158.20436938852072L239.25,157.89373453706503L239.25,158.32650040090084L239.25,158.41942499578L239.25,158.41322949528694L239.25,158.46986992657185L239.25,158.42429251223803L239.25,158.42163786292076L241.66666666666669,159.20264940708876L241.66666666666669,159.44425546377897L241.66666666666669,159.05927988141775L241.66666666666669,159.1389299109578L241.66666666666669,159.1353903785348L241.66666666666669,158.98494046926498L244.08333333333334,158.57474242150784L244.08333333333334,158.6397899016738L244.08333333333334,158.8030725941062L244.08333333333334,158.80085972696543L244.08333333333334,158.81457739323378L244.08333333333334,158.8181169256568L246.5,159.71373731642962L246.5,159.5778899565339L246.5,159.25265255570412L246.5,158.8393580764532L246.5,158.8539606258273L246.5,158.8393580764532L246.5,158.89289943873882L246.5,158.88537727296352L246.5,159.02830501645803L246.5,159.04157958179712L246.5,159.06149274855852L248.91666666666666,157.8317848071456L248.91666666666666,158.72829008102417L248.91666666666666,159.35531218349934L248.91666666666666,159.19158770889044L248.91666666666666,159.17565717548132L248.91666666666666,159.08273258060217L248.91666666666666,159.07653708010912L248.91666666666666,159.10707016289234L248.91666666666666,159.07388243079185L251.33333333333334,158.82431242614985L251.33333333333334,158.9681250527501L251.33333333333334,158.94245948642492L251.33333333333334,159.18937484174967L251.33333333333334,159.15707199275494L251.33333333333334,159.17831314355135L251.33333333333334,159.28893803805113L251.33333333333334,159.16415237635374L253.75,159.62479535490274L253.75,159.8535673096776L253.75,159.74648194760084L253.75,159.6716994345188L253.75,159.61771497130394L253.75,159.51770999282598L253.75,159.49602705985308L253.75,159.49293062835932L253.75,159.43230756372213L256.1666666666667,160.24916280806065L256.1666666666667,160.13278551399708L256.1666666666667,159.97569700330496L256.1666666666667,159.92082765698433L256.1666666666667,159.86241745948792L256.1666666666667,159.74427039921284L256.1666666666667,159.76241248100996L256.1666666666667,159.76462534815073L256.1666666666667,159.75887294858694L256.1666666666667,159.7601996138692L258.58333333333337,158.8818377405405L258.58333333333337,158.94290258735418L258.58333333333337,158.77608036249876L258.58333333333337,158.82431242614985L258.58333333333337,158.80395747721195L258.58333333333337,158.89909493923187L258.58333333333337,158.94245948642492L258.58333333333337,159.1154772117734L258.58333333333337,159.1938005760312L258.58333333333337,159.2876100540161L261,159.54603020846844L261,159.56771314144135L261,159.66373548656702L261,159.4712476953864L261,159.46726506203413L261,159.4274400472641L261,159.46505219489336L263.4166666666667,160.16906967759132L263.4166666666667,159.4362901970744L263.4166666666667,159.658867970109L263.4166666666667,159.64116767048836L263.4166666666667,159.6809926852584L263.4166666666667,159.6460351869464L263.4166666666667,159.5978031232953L263.4166666666667,159.6570968851447L263.4166666666667,159.73674691468477L263.4166666666667,159.71241065114737L263.4166666666667,159.69249748438597L265.8333333333333,160.09118941426277L265.8333333333333,160.01198248565197L265.8333333333333,159.9748121201992L265.8333333333333,159.78807804733515L265.8333333333333,159.62479535490274L265.8333333333333,159.5982449054718L265.8333333333333,159.61550210416317L265.8333333333333,159.68762996792793L265.8333333333333,159.71373731642962L265.8333333333333,159.7451552823186L265.8333333333333,159.71329553425312L265.8333333333333,159.71506530046463L265.8333333333333,159.73674691468477" style="fill: none;" fill="none"></path></g></g></g></g></g></g><g transform="translate(40, 177)" clip-path="url(#clip_1)"><clipPath id="clip_1"><rect width="290" height="23"></rect></clipPath><g><g><line x1="0" y1="0" x2="0" y2="5" style="visibility: inherit;" fill="rgb(0, 0, 0)" stroke="rgb(204, 204, 204)" stroke-width="1px"></line><line x1="24.166666666666664" y1="0" x2="24.166666666666664" y2="5" style="visibility: inherit;" fill="rgb(0, 0, 0)" stroke="rgb(204, 204, 204)" stroke-width="1px"></line><line x1="48.33333333333333" y1="0" x2="48.33333333333333" y2="5" style="visibility: inherit;" fill="rgb(0, 0, 0)" stroke="rgb(204, 204, 204)" stroke-width="1px"></line><line x1="72.5" y1="0" x2="72.5" y2="5" style="visibility: inherit;" fill="rgb(0, 0, 0)" stroke="rgb(204, 204, 204)" stroke-width="1px"></line><line x1="96.66666666666666" y1="0" x2="96.66666666666666" y2="5" style="visibility: inherit;" fill="rgb(0, 0, 0)" stroke="rgb(204, 204, 204)" stroke-width="1px"></line><line x1="120.83333333333334" y1="0" x2="120.83333333333334" y2="5" style="visibility: inherit;" fill="rgb(0, 0, 0)" stroke="rgb(204, 204, 204)" stroke-width="1px"></line><line x1="145" y1="0" x2="145" y2="5" style="visibility: inherit;" fill="rgb(0, 0, 0)" stroke="rgb(204, 204, 204)" stroke-width="1px"></line><line x1="169.16666666666669" y1="0" x2="169.16666666666669" y2="5" style="visibility: inherit;" fill="rgb(0, 0, 0)" stroke="rgb(204, 204, 204)" stroke-width="1px"></line><line x1="193.33333333333331" y1="0" x2="193.33333333333331" y2="5" style="visibility: inherit;" fill="rgb(0, 0, 0)" stroke="rgb(204, 204, 204)" stroke-width="1px"></line><line x1="217.5" y1="0" x2="217.5" y2="5" style="visibility: inherit;" fill="rgb(0, 0, 0)" stroke="rgb(204, 204, 204)" stroke-width="1px"></line><line x1="241.66666666666669" y1="0" x2="241.66666666666669" y2="5" style="visibility: inherit;" fill="rgb(0, 0, 0)" stroke="rgb(204, 204, 204)" stroke-width="1px"></line><line x1="265.8333333333333" y1="0" x2="265.8333333333333" y2="5" style="visibility: inherit;" fill="rgb(0, 0, 0)" stroke="rgb(204, 204, 204)" stroke-width="1px"></line><line x1="290" y1="0" x2="290" y2="5" style="visibility: inherit;" fill="rgb(0, 0, 0)" stroke="rgb(204, 204, 204)" stroke-width="1px"></line></g><g transform="translate(0, 8)"><text x="0" y="0" dx="0em" dy="0.95em" style="text-anchor: middle; visibility: hidden; font-family: Roboto, sans-serif; font-size: 12px; font-weight: 200;" fill="rgb(33, 33, 33)" stroke="none" stroke-width="1px">-10</text><text x="24.166666666666664" y="0" dx="0em" dy="0.95em" style="text-anchor: middle; visibility: inherit; font-family: Roboto, sans-serif; font-size: 12px; font-weight: 200;" fill="rgb(33, 33, 33)" stroke="none" stroke-width="1px">0</text><text x="48.33333333333333" y="0" dx="0em" dy="0.95em" style="text-anchor: middle; visibility: inherit; font-family: Roboto, sans-serif; font-size: 12px; font-weight: 200;" fill="rgb(33, 33, 33)" stroke="none" stroke-width="1px">10</text><text x="72.5" y="0" dx="0em" dy="0.95em" style="text-anchor: middle; visibility: inherit; font-family: Roboto, sans-serif; font-size: 12px; font-weight: 200;" fill="rgb(33, 33, 33)" stroke="none" stroke-width="1px">20</text><text x="96.66666666666666" y="0" dx="0em" dy="0.95em" style="text-anchor: middle; visibility: inherit; font-family: Roboto, sans-serif; font-size: 12px; font-weight: 200;" fill="rgb(33, 33, 33)" stroke="none" stroke-width="1px">30</text><text x="120.83333333333334" y="0" dx="0em" dy="0.95em" style="text-anchor: middle; visibility: inherit; font-family: Roboto, sans-serif; font-size: 12px; font-weight: 200;" fill="rgb(33, 33, 33)" stroke="none" stroke-width="1px">40</text><text x="145" y="0" dx="0em" dy="0.95em" style="text-anchor: middle; visibility: inherit; font-family: Roboto, sans-serif; font-size: 12px; font-weight: 200;" fill="rgb(33, 33, 33)" stroke="none" stroke-width="1px">50</text><text x="169.16666666666669" y="0" dx="0em" dy="0.95em" style="text-anchor: middle; visibility: inherit; font-family: Roboto, sans-serif; font-size: 12px; font-weight: 200;" fill="rgb(33, 33, 33)" stroke="none" stroke-width="1px">60</text><text x="193.33333333333331" y="0" dx="0em" dy="0.95em" style="text-anchor: middle; visibility: inherit; font-family: Roboto, sans-serif; font-size: 12px; font-weight: 200;" fill="rgb(33, 33, 33)" stroke="none" stroke-width="1px">70</text><text x="217.5" y="0" dx="0em" dy="0.95em" style="text-anchor: middle; visibility: inherit; font-family: Roboto, sans-serif; font-size: 12px; font-weight: 200;" fill="rgb(33, 33, 33)" stroke="none" stroke-width="1px">80</text><text x="241.66666666666669" y="0" dx="0em" dy="0.95em" style="text-anchor: middle; visibility: inherit; font-family: Roboto, sans-serif; font-size: 12px; font-weight: 200;" fill="rgb(33, 33, 33)" stroke="none" stroke-width="1px">90</text><text x="265.8333333333333" y="0" dx="0em" dy="0.95em" style="text-anchor: middle; visibility: inherit; font-family: Roboto, sans-serif; font-size: 12px; font-weight: 200;" fill="rgb(33, 33, 33)" stroke="none" stroke-width="1px">100</text><text x="290" y="0" dx="0em" dy="0.95em" style="text-anchor: middle; visibility: hidden; font-family: Roboto, sans-serif; font-size: 12px; font-weight: 200;" fill="rgb(33, 33, 33)" stroke="none" stroke-width="1px">110</text></g><line x1="0" y1="0" x2="290" y2="0" fill="rgb(0, 0, 0)" stroke="rgb(204, 204, 204)" stroke-width="1px"></line></g></g></g></g></svg>