<svg viewBox="0 0 330 200" xmlns="http://www.w3.org/2000/svg"><g><g><g><g><g><line x1="30" y1="177" x2="25" y2="177" style="visibility: inherit;" fill="rgb(0, 0, 0)" stroke="rgb(204, 204, 204)" stroke-width="1px"></line><line x1="30" y1="163.3846153846154" x2="25" y2="163.3846153846154" style="visibility: inherit;" fill="rgb(0, 0, 0)" stroke="rgb(204, 204, 204)" stroke-width="1px"></line><line x1="30" y1="149.76923076923077" x2="25" y2="149.76923076923077" style="visibility: inherit;" fill="rgb(0, 0, 0)" stroke="rgb(204, 204, 204)" stroke-width="1px"></line><line x1="30" y1="136.15384615384613" x2="25" y2="136.15384615384613" style="visibility: inherit;" fill="rgb(0, 0, 0)" stroke="rgb(204, 204, 204)" stroke-width="1px"></line><line x1="30" y1="122.53846153846153" x2="25" y2="122.53846153846153" style="visibility: inherit;" fill="rgb(0, 0, 0)" stroke="rgb(204, 204, 204)" stroke-width="1px"></line><line x1="30" y1="108.92307692307693" x2="25" y2="108.92307692307693" style="visibility: inherit;" fill="rgb(0, 0, 0)" stroke="rgb(204, 204, 204)" stroke-width="1px"></line><line x1="30" y1="95.3076923076923" x2="25" y2="95.3076923076923" style="visibility: inherit;" fill="rgb(0, 0, 0)" stroke="rgb(204, 204, 204)" stroke-width="1px"></line><line x1="30" y1="81.6923076923077" x2="25" y2="81.6923076923077" style="visibility: inherit;" fill="rgb(0, 0, 0)" stroke="rgb(204, 204, 204)" stroke-width="1px"></line><line x1="30" y1="68.07692307692307" x2="25" y2="68.07692307692307" style="visibility: inherit;" fill="rgb(0, 0, 0)" stroke="rgb(204, 204, 204)" stroke-width="1px"></line><line x1="30" y1="54.46153846153847" x2="25" y2="54.46153846153847" style="visibility: inherit;" fill="rgb(0, 0, 0)" stroke="rgb(204, 204, 204)" stroke-width="1px"></line><line x1="30" y1="40.84615384615384" x2="25" y2="40.84615384615384" style="visibility: inherit;" fill="rgb(0, 0, 0)" stroke="rgb(204, 204, 204)" stroke-width="1px"></line><line x1="30" y1="27.230769230769234" x2="25" y2="27.230769230769234" style="visibility: inherit;" fill="rgb(0, 0, 0)" stroke="rgb(204, 204, 204)" stroke-width="1px"></line><line x1="30" y1="13.615384615384606" x2="25" y2="13.615384615384606" style="visibility: inherit;" fill="rgb(0, 0, 0)" stroke="rgb(204, 204, 204)" stroke-width="1px"></line><line x1="30" y1="0" x2="25" y2="0" style="visibility: inherit;" fill="rgb(0, 0, 0)" stroke="rgb(204, 204, 204)" stroke-width="1px"></line></g><g transform="translate(20, 0)"><text x="0" y="177" dx="0em" dy="0.3em" style="text-anchor: end; visibility: hidden; font-family: Roboto, sans-serif; font-size: 12px; font-weight: 200;" fill="rgb(33, 33, 33)" stroke="none" stroke-width="1px">0</text><text x="0" y="163.3846153846154" dx="0em" dy="0.3em" style="text-anchor: end; visibility: inherit; font-family: Roboto, sans-serif; font-size: 12px; font-weight: 200;" fill="rgb(33, 33, 33)" stroke="none" stroke-width="1px">2</text><text x="0" y="149.76923076923077" dx="0em" dy="0.3em" style="text-anchor: end; visibility: hidden; font-family: Roboto, sans-serif; font-size: 12px; font-weight: 200;" fill="rgb(33, 33, 33)" stroke="none" stroke-width="1px">4</text><text x="0" y="136.15384615384613" dx="0em" dy="0.3em" style="text-anchor: end; visibility: inherit; font-family: Roboto, sans-serif; font-size: 12px; font-weight: 200;" fill="rgb(33, 33, 33)" stroke="none" stroke-width="1px">6</text><text x="0" y="122.53846153846153" dx="0em" dy="0.3em" style="text-anchor: end; visibility: hidden; font-family: Roboto, sans-serif; font-size: 12px; font-weight: 200;" fill="rgb(33, 33, 33)" stroke="none" stroke-width="1px">8</text><text x="0" y="108.92307692307693" dx="0em" dy="0.3em" style="text-anchor: end; visibility: inherit; font-family: Roboto, sans-serif; font-size: 12px; font-weight: 200;" fill="rgb(33, 33, 33)" stroke="none" stroke-width="1px">10</text><text x="0" y="95.3076923076923" dx="0em" dy="0.3em" style="text-anchor: end; visibility: hidden; font-family: Roboto, sans-serif; font-size: 12px; font-weight: 200;" fill="rgb(33, 33, 33)" stroke="none" stroke-width="1px">12</text><text x="0" y="81.6923076923077" dx="0em" dy="0.3em" style="text-anchor: end; visibility: inherit; font-family: Roboto, sans-serif; font-size: 12px; font-weight: 200;" fill="rgb(33, 33, 33)" stroke="none" stroke-width="1px">14</text><text x="0" y="68.07692307692307" dx="0em" dy="0.3em" style="text-anchor: end; visibility: hidden; font-family: Roboto, sans-serif; font-size: 12px; font-weight: 200;" fill="rgb(33, 33, 33)" stroke="none" stroke-width="1px">16</text><text x="0" y="54.46153846153847" dx="0em" dy="0.3em" style="text-anchor: end; visibility: inherit; font-family: Roboto, sans-serif; font-size: 12px; font-weight: 200;" fill="rgb(33, 33, 33)" stroke="none" stroke-width="1px">18</text><text x="0" y="40.84615384615384" dx="0em" dy="0.3em" style="text-anchor: end; visibility: hidden; font-family: Roboto, sans-serif; font-size: 12px; font-weight: 200;" fill="rgb(33, 33, 33)" stroke="none" stroke-width="1px">20</text><text x="0" y="27.230769230769234" dx="0em" dy="0.3em" style="text-anchor: end; visibility: inherit; font-family: Roboto, sans-serif; font-size: 12px; font-weight: 200;" fill="rgb(33, 33, 33)" stroke="none" stroke-width="1px">22</text><text x="0" y="13.615384615384606" dx="0em" dy="0.3em" style="text-anchor: end; visibility: hidden; font-family: Roboto, sans-serif; font-size: 12px; font-weight: 200;" fill="rgb(33, 33, 33)" stroke="none" stroke-width="1px">24</text><text x="0" y="0" dx="0em" dy="0.3em" style="text-anchor: end; visibility: hidden; font-family: Roboto, sans-serif; font-size: 12px; font-weight: 200;" fill="rgb(33, 33, 33)" stroke="none" stroke-width="1px">26</text></g><line x1="30" y1="0" x2="30" y2="177" fill="rgb(0, 0, 0)" stroke="rgb(204, 204, 204)" stroke-width="1px"></line></g></g><g transform="translate(30, 0)" clip-path="url(#clip_0)"><clipPath id="clip_0"><rect width="300" height="177"></rect></clipPath><g><g><g><line x1="0" y1="0" x2="0" y2="177" fill="rgb(0, 0, 0)" stroke="rgb(66, 66, 66)" stroke-width="1px" opacity="0.25"></line><line x1="25" y1="0" x2="25" y2="177" fill="rgb(0, 0, 0)" stroke="rgb(66, 66, 66)" stroke-width="1px" opacity="0.25"></line><line x1="50" y1="0" x2="50" y2="177" fill="rgb(0, 0, 0)" stroke="rgb(66, 66, 66)" stroke-width="1px" opacity="0.25"></line><line x1="75" y1="0" x2="75" y2="177" fill="rgb(0, 0, 0)" stroke="rgb(66, 66, 66)" stroke-width="1px" opacity="0.25"></line><line x1="100" y1="0" x2="100" y2="177" fill="rgb(0, 0, 0)" stroke="rgb(66, 66, 66)" stroke-width="1px" opacity="0.25"></line><line x1="125" y1="0" x2="125" y2="177" fill="rgb(0, 0, 0)" stroke="rgb(66, 66, 66)" stroke-width="1px" opacity="0.25"></line><line x1="150" y1="0" x2="150" y2="177" fill="rgb(0, 0, 0)" stroke="rgb(66, 66, 66)" stroke-width="1px" opacity="0.25"></line><line x1="175" y1="0" x2="175" y2="177" fill="rgb(0, 0, 0)" stroke="rgb(66, 66, 66)" stroke-width="1px" opacity="0.25"></line><line x1="200" y1="0" x2="200" y2="177" fill="rgb(0, 0, 0)" stroke="rgb(66, 66, 66)" stroke-width="1px" opacity="0.25"></line><line x1="225" y1="0" x2="225" y2="177" fill="rgb(0, 0, 0)" stroke="rgb(66, 66, 66)" stroke-width="1px" opacity="0.25"></line><line x1="250" y1="0" x2="250" y2="177" fill="rgb(0, 0, 0)" stroke="rgb(66, 66, 66)" stroke-width="1px" opacity="0.25"></line><line x1="275" y1="0" x2="275" y2="177" fill="rgb(0, 0, 0)" stroke="rgb(66, 66, 66)" stroke-width="1px" opacity="0.25"></line><line x1="300" y1="0" x2="300" y2="177" fill="rgb(0, 0, 0)" stroke="rgb(66, 66, 66)" stroke-width="1px" opacity="0.25"></line></g><g><line x1="0" y1="177" x2="300" y2="177" fill="rgb(0, 0, 0)" stroke="rgb(66, 66, 66)" stroke-width="1px" opacity="0.25"></line><line x1="0" y1="163.3846153846154" x2="300" y2="163.3846153846154" fill="rgb(0, 0, 0)" stroke="rgb(66, 66, 66)" stroke-width="1px" opacity="0.25"></line><line x1="0" y1="149.76923076923077" x2="300" y2="149.76923076923077" fill="rgb(0, 0, 0)" stroke="rgb(66, 66, 66)" stroke-width="1px" opacity="0.25"></line><line x1="0" y1="136.15384615384613" x2="300" y2="136.15384615384613" fill="rgb(0, 0, 0)" stroke="rgb(66, 66, 66)" stroke-width="1px" opacity="0.25"></line><line x1="0" y1="122.53846153846153" x2="300" y2="122.53846153846153" fill="rgb(0, 0, 0)" stroke="rgb(66, 66, 66)" stroke-width="1px" opacity="0.25"></line><line x1="0" y1="108.92307692307693" x2="300" y2="108.92307692307693" fill="rgb(0, 0, 0)" stroke="rgb(66, 66, 66)" stroke-width="1px" opacity="0.25"></line><line x1="0" y1="95.3076923076923" x2="300" y2="95.3076923076923" fill="rgb(0, 0, 0)" stroke="rgb(66, 66, 66)" stroke-width="1px" opacity="0.25"></line><line x1="0" y1="81.6923076923077" x2="300" y2="81.6923076923077" fill="rgb(0, 0, 0)" stroke="rgb(66, 66, 66)" stroke-width="1px" opacity="0.25"></line><line x1="0" y1="68.07692307692307" x2="300" y2="68.07692307692307" fill="rgb(0, 0, 0)" stroke="rgb(66, 66, 66)" stroke-width="1px" opacity="0.25"></line><line x1="0" y1="54.46153846153847" x2="300" y2="54.46153846153847" fill="rgb(0, 0, 0)" stroke="rgb(66, 66, 66)" stroke-width="1px" opacity="0.25"></line><line x1="0" y1="40.84615384615384" x2="300" y2="40.84615384615384" fill="rgb(0, 0, 0)" stroke="rgb(66, 66, 66)" stroke-width="1px" opacity="0.25"></line><line x1="0" y1="27.230769230769234" x2="300" y2="27.230769230769234" fill="rgb(0, 0, 0)" stroke="rgb(66, 66, 66)" stroke-width="1px" opacity="0.25"></line><line x1="0" y1="13.615384615384606" x2="300" y2="13.615384615384606" fill="rgb(0, 0, 0)" stroke="rgb(66, 66, 66)" stroke-width="1px" opacity="0.25"></line><line x1="0" y1="0" x2="300" y2="0" fill="rgb(0, 0, 0)" stroke="rgb(66, 66, 66)" stroke-width="1px" opacity="0.25"></line></g></g></g><g><g><line x1="0" y1="177" x2="300" y2="177" fill="rgb(0, 0, 0)" stroke="rgb(153, 153, 153)" stroke-width="1.5px"></line></g></g><g><g><line x1="25" y1="0" x2="25" y2="177" fill="rgb(0, 0, 0)" stroke="rgb(153, 153, 153)" stroke-width="1.5px"></line></g></g><g><g><g><g><g><path stroke="rgb(255, 112, 67)" stroke-width="2px" d="M33.45,-8.849994806142957L33.95,7.488464135390057L34.2,-6.807692307692323L34.3,-32.676917883066025L34.35,17.70000259692852L34.55,44.25L34.95,-21.78462057847244L35.4,-24.507694904620823L35.65,17.019230769230766L36.2,4.084617981543915L36.5,-10.89231028923622L36.75,31.315387212313148L36.9,15.65768711383526L37.5,-4.084617981543896L38.4,-10.89231028923622L38.6,15.65768711383526L38.7,4.765389809241669L39.65,-16.338458941533034L39.900000000000006,36.76153586460994L39.949999999999996,43.569228172302246L40.2,21.103848750774684L40.45,-2.042302498450634L40.55,14.976928270780114L40.95,22.46537942152756L41,0.6807718276977539L41.35,13.615384615384606L41.550000000000004,20.42307692307693L42.00000000000001,10.211538461538465L42.4,20.42307692307693L43.199999999999996,28.59231288616474L43.4,53.09999480614296L43.7,12.253840959989098L43.900000000000006,37.44230769230769L44,8.849994806142957L46.1,57.18461278768685L46.15,34.03846153846153L46.25,46.29230249845065L46.550000000000004,26.54999740307148L47,50.37692047999455L47.1,31.315387212313148L47.150000000000006,15.65768711383526L47.300000000000004,29.273071729219886L47.6,17.70000259692852L48.050000000000004,49.6961486522968L48.2,66.03462057847244L48.25,32.676917883066025L48.75,19.742305095379177L49.6,-0.6807718276977539L49.699999999999996,8.849994806142957L50.400000000000006,46.97307432614841L50.65,25.869225575373726L50.75,22.46537942152756L50.9,39.48461019075833L51.300000000000004,23.82692307692307L51.599999999999994,23.82692307692307L51.7,6.126920479994549L51.85,42.20769750154935L52.15,36.76153586460994L52.4,38.8038513477032L52.900000000000006,20.42307692307693L53.2,45.61154365539551L53.5,30.634615384615394L53.699999999999996,33.35768971076378L54,75.56538721231314L54.1,37.44230769230769L54.15,75.56538721231314L54.25000000000001,50.37692047999455L54.35,30.634615384615394L54.400000000000006,39.48461019075833L54.65,17.019230769230766L54.699999999999996,54.46153846153847L55.15,81.01153586460994L55.449999999999996,49.01538980924167L55.550000000000004,36.080764036912186L55.8,45.61154365539551L56.05,72.84230639384343L56.150000000000006,52.419235963087814L56.75,50.37692047999455L57.1,77.60768971076378L57.15,42.88845634460449L57.25,66.03462057847244L57.35,52.419235963087814L57.4,61.95000259692852L57.50000000000001,53.09999480614296L58.099999999999994,78.96923336615929L58.24999999999999,66.03462057847244L58.449999999999996,40.84615384615384L58.6,50.37692047999455L58.75,57.865384615384606L58.95,44.930771827697754L59,36.080764036912186L59.2,34.03846153846153L59.449999999999996,67.39615124922531L60,25.869225575373726L60.199999999999996,55.823082116933975L60.35,54.46153846153847L60.75000000000001,66.71537942152756L60.949999999999996,37.44230769230769L61.1,48.334617981543914L61.15,47.65384615384616L61.199999999999996,70.79999740307147L61.55,48.334617981543914L61.85,63.31153326768142L61.949999999999996,55.823082116933975L62,70.11923206769504L62.2,69.43846023999728L62.4,51.73846413539006L62.6,59.90768711383526L62.650000000000006,54.46153846153847L62.849999999999994,76.24615254768959L63.3,42.88845634460449L63.5,59.226928270780114L63.550000000000004,64.67307692307693L63.6,45.61154365539551L63.7,79.64999870153574L63.75,57.18461278768685L64.05,47.65384615384616L64.25,87.13846283692581L64.3,70.11923206769504L64.4,74.88461538461539L64.5,77.60768971076378L64.65,69.43846023999728L64.7,76.24615254768959L64.75,70.79999740307147L64.8,68.07692307692307L64.95,56.5038409599891L65.15,74.88461538461539L65.4,63.31153326768142L65.45,50.37692047999455L65.5,51.05769230769231L65.8,79.64999870153574L66.65,23.82692307692307L66.85,66.03462057847244L66.95,53.09999480614296L67.2,79.64999870153574L68.4,87.81922817230225L68.5,75.56538721231314L68.75,89.86153716307419L68.85000000000001,77.60768971076378L69.05,93.26538331692035L69.15,55.823082116933975L69.55,113.68846023999727L69.85,81.6923076923077L70.05,105.51923076923077L70.4,72.84230639384343L70.5,93.26538331692035L70.8,98.71153846153847L70.9,108.92307692307693L71.05,89.86153716307419L71.2,93.9461551446181L71.6,66.71537942152756L71.65,102.11538461538461L71.8,96.66922947076651L72.14999999999999,74.20384355691763L72.3,107.56153976000273L72.75,79.64999870153574L72.95,91.90384615384615L73.1,94.62692047999455L73.15,108.92307692307693L73.6,103.47692177845882L73.65,101.43461278768686L73.85000000000001,97.35000129846426L73.95,84.41538201845609L74,116.41154105846698L74.2,93.26538331692035L74.25,69.43846023999728L74.4,117.09230639384343L74.45,93.26538331692035L74.85,104.83845894153302L75.05,108.92307692307693L75.15,92.5846179815439L75.25,119.13461538461539L75.3,102.11538461538461L75.75,71.48076923076923L75.9,102.79615644308237L76.30000000000001,110.96538591384888L76.39999999999999,100.75384745231041L76.65,98.71153846153847L76.9,103.47692177845882L77.25,72.16154105846698L77.89999999999999,82.37307952000545L78.2,97.35000129846426L78.35,78.96923336615929L78.45,75.56538721231314L78.64999999999999,97.35000129846426L78.85,118.45384355691763L78.95,110.28461408615112L79.2,91.22307432614839L79.25,89.18077182769775L79.3,79.64999870153574L79.7,117.77307822154118L80,96.66922947076651L80.19999999999999,113.68846023999727L80.25,95.98846413539006L80.3,104.83845894153302L80.75,93.26538331692035L81,115.73076923076923L81.69999999999999,118.45384355691763L81.8,125.9423076923077L82.80000000000001,101.43461278768686L82.85,102.79615644308237L83.05,136.83461473538327L83.10000000000001,123.21923011999863L83.15,106.88076793230498L84.05,98.03076663384071L84.30000000000001,121.17692437538734L84.65,117.77307822154118L84.7,100.75384745231041L85,89.86153716307419L85.10000000000001,84.41538201845609L85.35,109.60384875077469L85.45,91.22307432614839L86.65,91.90384615384615L86.75,111.64615124922531L86.85,113.00769490462082L87.25,89.18077182769775L87.4,114.36923206769502L87.80000000000001,104.15769360615657L87.95,121.17692437538734L88.10000000000001,115.73076923076923L88.75,122.53846153846153L89.1,121.85768971076378L89.39999999999999,102.11538461538461L89.7,116.41154105846698L89.75000000000001,110.96538591384888L90.05000000000001,105.51923076923077L90.55,103.47692177845882L90.8,108.24230509537918L90.85000000000001,108.24230509537918L91,113.00769490462082L91.3,129.34615384615387L91.39999999999999,111.64615124922531L91.55,119.81538721231314L91.69999999999999,102.79615644308237L91.85,117.09230639384343L91.9,93.9461551446181L92.80000000000001,118.45384355691763L93.55000000000001,114.36923206769502L94.30000000000001,130.70769100922806L94.45,111.64615124922531L94.5,125.26153911077058L94.60000000000001,127.98461668307965L94.65,125.9423076923077L95.7,124.58077052923349L95.75,113.00769490462082L96,115.04999740307147L96.15,110.96538591384888L96.35,113.68846023999727L96.45,118.45384355691763L96.64999999999999,110.28461408615112L96.85000000000001,122.53846153846153L97.05,134.1115371630742L98.3,146.3653846153846L98.35,108.92307692307693L98.9,125.9423076923077L99.30000000000001,121.85768971076378L99.35,121.17692437538734L99.5,106.88076793230498L99.60000000000001,113.68846023999727L99.65,129.34615384615387L100.1,129.34615384615387L100.44999999999999,125.26153911077058L101.19999999999999,137.51538331692035L101.25,130.70769100922806L101.4,115.04999740307147L102.35000000000001,125.9423076923077L102.60000000000001,123.21923011999863L102.65,121.17692437538734L102.75000000000001,142.28076988000137L103.10000000000001,117.77307822154118L103.45,126.62307627384479L103.49999999999999,126.62307627384479L103.94999999999999,124.58077052923349L104.15,137.51538331692035L104.24999999999999,117.09230639384343L104.45,127.3038448553819L104.9,125.26153911077058L105.25,136.15384615384613L105.3,134.79230899077194L105.55,113.00769490462082L105.95,110.96538591384888L106.4,117.77307822154118L106.45,125.9423076923077L106.64999999999999,117.09230639384343L106.9,132.0692314184629L107.05,121.85768971076378L107.15,117.77307822154118L107.30000000000001,121.85768971076378L107.45,136.15384615384613L107.65,147.0461531969217L108.05000000000001,121.85768971076378L108.45,140.23846088922943L108.65,144.32307562461267L108.80000000000001,133.4307685815371L108.85000000000001,119.81538721231314L109.15,113.00769490462082L109.2,117.77307822154118L109.60000000000001,136.83461473538327L109.8,115.04999740307147L109.85,132.0692314184629L109.9,115.73076923076923L109.99999999999999,102.11538461538461L110.14999999999999,143.64230704307556L110.5,139.5576923076923L110.55,141.60000129846426L110.95,138.8769237261552L111,132.75L111.45,138.1961551446181L111.64999999999999,127.3038448553819L111.75,138.1961551446181L111.9,145.00384745231042L112.15,121.85768971076378L112.2,127.3038448553819L112.30000000000001,119.81538721231314L112.35,125.26153911077058L112.39999999999999,105.51923076923077L112.65,119.13461538461539L113.35000000000001,134.1115371630742L113.80000000000001,128.66538526461673L114.10000000000001,120.49615254768959L114.45,123.89999870153574L114.5,118.45384355691763L114.95,130.70769100922806L115.30000000000001,122.53846153846153L115.74999999999999,153.85384550461401L115.89999999999999,132.0692314184629L116.25,137.51538331692035L116.35,132.0692314184629L116.55,133.4307685815371L117.05,116.41154105846698L117.1,131.3884628369258L117.25,132.0692314184629L117.5,144.32307562461267L117.69999999999999,131.3884628369258L118.35000000000001,134.79230899077194L118.44999999999999,141.60000129846426L118.5,113.68846023999727L118.80000000000001,142.28076988000137L118.85,151.13076955538529L118.89999999999999,128.66538526461673L119,138.8769237261552L119.7,137.51538331692035L120.60000000000001,130.70769100922806L120.9,144.32307562461267L121.25,142.28076988000137L121.55,146.3653846153846L121.75,118.45384355691763L121.85000000000001,132.75L121.94999999999999,142.28076988000137L122.24999999999999,140.23846088922943L122.39999999999999,132.0692314184629L122.5,125.9423076923077L122.64999999999999,141.60000129846426L122.8,126.62307627384479L122.95,126.62307627384479L123.4,144.32307562461267L123.5,147.72692177845883L124.10000000000001,129.34615384615387L124.15,136.15384615384613L124.19999999999999,134.79230899077194L124.9,132.75L125.1,140.23846088922943L125.30000000000001,148.40769360615658L125.5,151.8115381369224L125.55,150.44999935076785L125.69999999999999,136.83461473538327L125.8,148.40769360615658L125.9,129.34615384615387L126.3,127.3038448553819L126.4,126.62307627384479L126.55,129.34615384615387L126.7,113.00769490462082L126.85000000000001,147.0461531969217L126.95,134.1115371630742L127.10000000000001,137.51538331692035L127.25000000000001,136.15384615384613L128.05,127.98461668307965L128.4,125.9423076923077L128.65,132.75L128.7,135.47307757230905L128.75,120.49615254768959L128.85,147.0461531969217L128.9,147.72692177845883L129,137.51538331692035L129.1,122.53846153846153L129.3,134.1115371630742L129.5,159.30000064923215L129.75,146.3653846153846L129.85,141.60000129846426L130.2,146.3653846153846L130.3,138.1961551446181L130.35,122.53846153846153L130.6,152.49230834153983L130.8,121.17692437538734L131.05,147.72692177845883L131.15,145.6846160338475L131.20000000000002,150.44999935076785L131.7,144.32307562461267L131.75,148.40769360615658L131.95000000000002,139.5576923076923L132.1,132.75L132.25,152.49230834153983L132.3,147.72692177845883L132.45,123.21923011999863L132.5,136.15384615384613L132.6,138.1961551446181L132.85,147.0461531969217L132.9,149.08846218769366L133.25,127.98461668307965L133.3,153.17307692307693L133.5,105.51923076923077L133.6,141.60000129846426L133.7,150.44999935076785L133.9,138.1961551446181L134.4,115.73076923076923L134.5,153.17307692307693L134.6,145.00384745231042L134.65,129.34615384615387L134.85,150.44999935076785L135,136.15384615384613L135.4,136.83461473538327L135.6,157.9384618630776L136.29999999999998,140.23846088922943L136.5,132.75L136.6,147.72692177845883L136.85,132.0692314184629L136.9,114.36923206769502L137,145.6846160338475L137.1,145.00384745231042L137.15,137.51538331692035L137.25,136.83461473538327L137.35,136.83461473538327L137.4,149.76923076923077L137.75,130.70769100922806L137.9,138.8769237261552L138.15,142.28076988000137L138.75,142.28076988000137L138.95,131.3884628369258L139.1,138.1961551446181L139.6,149.08846218769366L139.9,147.72692177845883L139.95000000000002,136.15384615384613L140.04999999999998,138.8769237261552L140.2,148.40769360615658L140.35,144.32307562461267L140.4,153.85384550461401L140.45,138.1961551446181L140.95,139.5576923076923L141,146.3653846153846L141.05,141.60000129846426L141.15,127.3038448553819L141.75,144.32307562461267L141.8,141.60000129846426L141.85,140.23846088922943L141.9,117.09230639384343L142.3,136.83461473538327L142.75,157.25769165846017L143.6,150.44999935076785L144.29999999999998,145.6846160338475L144.5,135.47307757230905L144.55,128.66538526461673L144.65,129.34615384615387L145.04999999999998,141.60000129846426L145.15,132.0692314184629L145.35,159.98076923076923L145.85,152.49230834153983L146.25,162.70384680307828L146.3,136.83461473538327L146.85,153.17307692307693L147.25,128.66538526461673L147.55,134.79230899077194L147.6,152.49230834153983L147.70000000000002,135.47307757230905L147.79999999999998,151.8115381369224L148.05,134.79230899077194L149,150.44999935076785L149.29999999999998,128.66538526461673L149.35,126.62307627384479L149.85,152.49230834153983L149.95000000000002,142.96153846153845L150.1,146.3653846153846L150.14999999999998,153.17307692307693L150.20000000000002,144.32307562461267L150.74999999999997,132.0692314184629L150.9,138.8769237261552L151.2,150.44999935076785L151.45000000000002,139.5576923076923L151.54999999999998,132.0692314184629L151.64999999999998,146.3653846153846L151.75,137.51538331692035L152.2,125.9423076923077L152.4,151.13076955538529L152.60000000000002,153.85384550461401L152.7,145.6846160338475L152.85,132.0692314184629L153.3,130.70769100922806L153.35,147.0461531969217L153.55,157.25769165846017L153.85000000000002,142.96153846153845L153.95,138.8769237261552L154.55,133.4307685815371L154.6,145.6846160338475L154.64999999999998,132.75L154.70000000000002,144.32307562461267L154.85,142.96153846153845L155.05,131.3884628369258L155.35000000000002,143.64230704307556L155.4,138.1961551446181L155.54999999999998,143.64230704307556L155.95000000000002,157.25769165846017L156.20000000000002,149.08846218769366L156.35,133.4307685815371L156.49999999999997,161.34230801692377L156.55,149.08846218769366L156.85000000000002,140.9192294707665L156.95,156.57692307692307L157.25,137.51538331692035L157.39999999999998,133.4307685815371L157.55,140.9192294707665L157.8,139.5576923076923L158.75,152.49230834153983L158.95000000000002,143.64230704307556L159.05,150.44999935076785L159.3,126.62307627384479L159.55,135.47307757230905L160.20000000000002,147.72692177845883L160.39999999999998,147.0461531969217L160.55,146.3653846153846L161.29999999999998,138.8769237261552L161.85,130.02692242769095L161.89999999999998,137.51538331692035L162.05,146.3653846153846L162.35,140.9192294707665L162.7,146.3653846153846L162.75,152.49230834153983L162.79999999999998,138.8769237261552L162.85,128.66538526461673L162.9,135.47307757230905L162.95000000000002,140.9192294707665L163.35,150.44999935076785L164.5,132.75L164.54999999999998,144.32307562461267L164.6,151.13076955538529L164.95,143.64230704307556L165.5,147.0461531969217L165.60000000000002,143.64230704307556L166.20000000000002,155.21538429076855L166.25,152.49230834153983L166.4,149.76923076923077L166.50000000000003,145.6846160338475L166.55,133.4307685815371L166.65,145.6846160338475L167.6,155.89615449538599L167.85,137.51538331692035L168.00000000000003,141.60000129846426L168.15,145.6846160338475L168.60000000000002,148.40769360615658L168.65,153.85384550461401L168.95000000000002,153.17307692307693L169.05,156.57692307692307L169.1,156.57692307692307L169.4,144.32307562461267L169.55,122.53846153846153L169.85000000000002,147.0461531969217L169.95,146.3653846153846L170.04999999999998,159.98076923076923L170.20000000000002,160.66153781230634L170.64999999999998,142.96153846153845L170.9,155.21538429076855L170.99999999999997,160.66153781230634L171.05,139.5576923076923L171.1,139.5576923076923L171.65,137.51538331692035L172.15,147.72692177845883L172.55,164.06538477769266L173.39999999999998,132.0692314184629L173.75000000000003,136.15384615384613L173.8,147.0461531969217L173.95,141.60000129846426L174.45000000000002,159.98076923076923L174.75,147.0461531969217L174.95000000000002,147.0461531969217L175.2,143.64230704307556L175.3,153.17307692307693L175.4,140.9192294707665L175.5,153.17307692307693L175.60000000000002,149.08846218769366L175.79999999999998,169.51153829923044L175.85,139.5576923076923L176,155.21538429076855L176.3,161.34230801692377L176.39999999999998,149.08846218769366L176.55,153.85384550461401L176.95,146.3653846153846L177.04999999999998,153.17307692307693L177.10000000000002,145.00384745231042L177.15,141.60000129846426L177.54999999999998,155.21538429076855L178.3,151.8115381369224L178.4,147.72692177845883L178.5,150.44999935076785L178.60000000000002,158.61923044461471L178.70000000000002,145.00384745231042L179.14999999999998,145.6846160338475L179.35,142.28076988000137L180,155.89615449538599L180.20000000000002,151.8115381369224L181.15,143.64230704307556L181.89999999999998,160.66153781230634L181.95000000000002,157.9384618630776L182.25,164.74615417076993L182.3,137.51538331692035L182.4,146.3653846153846L182.55,156.57692307692307L182.79999999999998,143.64230704307556L182.95,141.60000129846426L183,129.34615384615387L183.1,153.17307692307693L183.9,153.17307692307693L184.25,151.8115381369224L184.45,148.40769360615658L184.8,130.70769100922806L184.85,163.3846153846154L185.2,154.53461570923145L185.35,151.13076955538529L186.55,162.70384680307828L186.7,156.57692307692307L187.05,149.08846218769366L187.2,156.57692307692307L187.25,140.23846088922943L187.35000000000002,164.06538477769266L187.4,155.21538429076855L187.75,155.89615449538599L187.85,160.66153781230634L188.4,157.9384618630776L188.65,150.44999935076785L189.1,150.44999935076785L189.20000000000002,149.08846218769366L189.3,151.8115381369224L189.5,154.53461570923145L189.65,155.89615449538599L190.29999999999998,150.44999935076785L190.35,156.57692307692307L190.4,138.1961551446181L190.70000000000002,148.40769360615658L191.1,140.9192294707665L191.4,147.0461531969217L191.45,158.61923044461471L191.5,154.53461570923145L191.70000000000002,154.53461570923145L191.95000000000002,157.25769165846017L192.3,142.96153846153845L192.7,159.98076923076923L192.9,155.89615449538599L193.10000000000002,157.25769165846017L193.20000000000002,162.70384680307828L193.5,155.89615449538599L193.64999999999998,142.28076988000137L193.75,134.79230899077194L193.85,149.08846218769366L193.95,141.60000129846426L194.1,146.3653846153846L194.35000000000002,151.13076955538529L194.95000000000002,151.8115381369224L195.2,146.3653846153846L195.45,149.08846218769366L196.35,137.51538331692035L196.55,142.96153846153845L196.7,150.44999935076785L196.95,163.3846153846154L197.29999999999998,157.9384618630776L197.5,150.44999935076785L197.6,149.08846218769366L197.89999999999998,147.0461531969217L197.95000000000002,162.70384680307828L198.25000000000003,153.17307692307693L198.60000000000002,147.72692177845883L198.9,153.85384550461401L199.04999999999998,159.30000064923215L199.35,150.44999935076785L199.9,149.08846218769366L200,147.0461531969217L200.35,158.61923044461471L200.5,141.60000129846426L200.64999999999998,145.00384745231042L200.75,159.98076923076923L201,146.3653846153846L201.79999999999998,153.85384550461401L201.9,144.32307562461267L201.95000000000002,157.9384618630776L202.14999999999998,147.72692177845883L202.20000000000002,159.30000064923215L202.39999999999998,159.98076923076923L202.5,161.34230801692377L202.8,151.8115381369224L202.85,152.49230834153983L203.2,146.3653846153846L203.8,145.6846160338475L204.05,143.64230704307556L204.2,162.02307659846085L204.65,150.44999935076785L204.70000000000002,153.85384550461401L205,147.72692177845883L205.05,152.49230834153983L205.75,141.60000129846426L205.95,160.66153781230634L206.04999999999998,147.0461531969217L206.15,140.23846088922943L206.29999999999998,143.64230704307556L206.45000000000002,162.02307659846085L206.9,148.40769360615658L207.2,161.34230801692377L207.29999999999998,142.96153846153845L207.85,158.61923044461471L207.89999999999998,155.21538429076855L208.2,151.8115381369224L208.55,138.1961551446181L209.75,152.49230834153983L209.9,165.426922752307L210.05,153.85384550461401L210.15,157.9384618630776L211.2,151.13076955538529L211.35,141.60000129846426L211.55,153.85384550461401L211.60000000000002,157.25769165846017L211.65,147.0461531969217L211.95000000000002,157.25769165846017L212.1,159.98076923076923L212.20000000000002,155.21538429076855L212.65,164.74615417076993L212.85,153.17307692307693L213,160.66153781230634L213.25,142.96153846153845L213.64999999999998,160.66153781230634L213.85,159.30000064923215L213.95,151.8115381369224L214.05,157.25769165846017L214.7,145.6846160338475L214.79999999999998,152.49230834153983L214.95000000000002,161.34230801692377L215.55,158.61923044461471L215.75,151.13076955538529L216,145.6846160338475L216.10000000000002,151.8115381369224L216.6,157.25769165846017L216.70000000000002,146.3653846153846L216.8,152.49230834153983L217.45,156.57692307692307L217.75,147.72692177845883L218.25,142.96153846153845L218.50000000000003,156.57692307692307L218.85000000000002,150.44999935076785L219,151.8115381369224L219.1,160.66153781230634L220.1,156.57692307692307L220.15,149.08846218769366L220.2,153.17307692307693L220.45,160.66153781230634L220.54999999999998,155.21538429076855L220.85,150.44999935076785L221.05,149.76923076923077L221.45,160.66153781230634L221.5,151.8115381369224L221.75,163.3846153846154L221.79999999999998,157.25769165846017L222,162.02307659846085L222.55,146.3653846153846L222.85,153.85384550461401L223.15,149.76923076923077L223.29999999999998,159.98076923076923L223.85,149.76923076923077L224.05,156.57692307692307L224.25000000000003,160.66153781230634L224.60000000000002,158.61923044461471L224.79999999999998,148.40769360615658L225.04999999999998,154.53461570923145L225.3,161.34230801692377L225.5,157.9384618630776L225.55,166.10769214538428L225.65,147.72692177845883L226.10000000000002,152.49230834153983L226.15,151.8115381369224L226.70000000000002,168.15000032461606L226.8,159.30000064923215L226.85,138.8769237261552L227.2,147.0461531969217L227.3,162.02307659846085L227.35,150.44999935076785L227.4,168.83076890615317L227.45,157.9384618630776L227.65,162.70384680307828L227.75,155.21538429076855L228.85000000000002,154.53461570923145L229,156.57692307692307L229.70000000000002,153.85384550461401L229.95,164.74615417076993L230.00000000000003,153.85384550461401L230.1,156.57692307692307L230.5,151.13076955538529L230.75,165.426922752307L231.1,164.74615417076993L232.5,168.83076890615317L232.85,162.70384680307828L233.4,169.51153829923044L233.65,169.51153829923044L234.1,146.3653846153846L234.14999999999998,153.85384550461401L234.65,160.66153781230634L234.7,156.57692307692307L234.75,155.21538429076855L234.85000000000002,155.21538429076855L234.95000000000002,159.30000064923215L235.04999999999998,167.46923093153882L235.1,144.32307562461267L235.15,164.74615417076993L235.25,151.8115381369224L236.15,161.34230801692377L236.4,159.98076923076923L236.65,163.3846153846154L236.8,164.74615417076993L236.95000000000002,165.426922752307L237.2,154.53461570923145L237.75,160.66153781230634L238.20000000000002,166.78846153846155L238.35,162.70384680307828L238.39999999999998,148.40769360615658L238.85,152.49230834153983L239.15,159.30000064923215L239.89999999999998,158.61923044461471L239.95,155.21538429076855L240.25,157.9384618630776L240.45,152.49230834153983L240.60000000000002,154.53461570923145L240.9,165.426922752307L241,162.02307659846085L241.45,168.15000032461606L241.65,160.66153781230634L241.95,157.25769165846017L242.20000000000002,161.34230801692377L242.5,157.9384618630776L242.70000000000002,155.89615449538599L242.95,157.9384618630776L243.3,152.49230834153983L243.5,157.9384618630776L243.95000000000002,170.87307708538495L244.1,166.10769214538428L244.7,152.49230834153983L245.04999999999998,155.89615449538599L245.20000000000002,149.76923076923077L245.29999999999998,153.17307692307693L245.35,157.25769165846017L245.55,147.72692177845883L245.6,156.57692307692307L245.64999999999998,163.3846153846154L246.25,158.61923044461471L246.54999999999998,157.25769165846017L246.6,167.46923093153882L246.70000000000002,164.74615417076993L246.95000000000002,173.59615384615384L247,155.89615449538599L247.15,147.72692177845883L247.45,163.3846153846154L247.65,153.17307692307693L248,154.53461570923145L248.5,157.25769165846017L248.8,152.49230834153983L249,157.9384618630776L249.15,166.78846153846155L249.54999999999998,150.44999935076785L249.65,164.06538477769266L250.3,170.87307708538495L250.5,164.74615417076993L250.54999999999998,165.426922752307L251.5,163.3846153846154L251.55,160.66153781230634L251.7,150.44999935076785L252.04999999999998,159.30000064923215L252.15,155.89615449538599L252.54999999999998,155.89615449538599L252.64999999999998,159.30000064923215L252.70000000000002,155.89615449538599L253.35000000000002,157.9384618630776L253.45,163.3846153846154L253.5,166.10769214538428L253.95000000000002,155.89615449538599L254.1,157.9384618630776L254.20000000000002,153.85384550461401L254.65,160.66153781230634L254.8,153.17307692307693L254.9,164.74615417076993L255,159.30000064923215L255.6,156.57692307692307L256.45,167.46923093153882L256.7,161.34230801692377L257.2,165.426922752307L257.5,169.51153829923044L257.85,152.49230834153983L258.15000000000003,163.3846153846154L258.25,153.17307692307693L258.45,165.426922752307L258.8,170.1923076923077L258.85,157.25769165846017L258.9,150.44999935076785L259.40000000000003,165.426922752307L260.2,162.70384680307828L260.45,147.0461531969217L260.7,158.61923044461471L260.95,149.76923076923077L261,156.57692307692307L261.09999999999997,158.61923044461471L261.25,158.61923044461471L261.75,157.9384618630776L261.95,164.74615417076993L262,155.21538429076855L262.3,169.51153829923044L262.5,166.10769214538428L262.55,163.3846153846154L262.95,147.72692177845883L263.1,153.85384550461401L263.15,157.9384618630776L263.25,163.3846153846154L263.4,163.3846153846154L263.45,156.57692307692307L263.5,168.83076890615317L263.55,165.426922752307L263.75,158.61923044461471L263.84999999999997,167.46923093153882L264,162.70384680307828L264.05,150.44999935076785L264.09999999999997,154.53461570923145L264.15,164.74615417076993L264.25,153.85384550461401L264.4,170.87307708538495L264.45,166.10769214538428L264.75,157.25769165846017L265.05,173.59615384615384L265.15000000000003,157.9384618630776L265.3,147.0461531969217L265.9,156.57692307692307L266.3,167.46923093153882L266.35,164.06538477769266L266.4,165.426922752307L266.7,156.57692307692307L267.05,162.70384680307828L267.3,165.426922752307L267.65,166.78846153846155L267.85,158.61923044461471L268.3,158.61923044461471L268.6,162.70384680307828L268.7,168.83076890615317L268.85,159.30000064923215L269.2,159.30000064923215L269.5,157.25769165846017L269.65000000000003,165.426922752307L269.75,158.61923044461471L269.8,164.74615417076993L270.25,164.74615417076993L270.75,159.30000064923215L270.8,160.66153781230634L271.2,168.15000032461606L271.8,164.74615417076993L271.95,156.57692307692307L272.1,166.10769214538428L272.75,170.87307708538495L273.15,161.34230801692377L273.55,159.30000064923215L273.6,151.13076955538529L273.75,159.98076923076923L273.85,159.98076923076923L273.90000000000003,147.0461531969217L274.6,158.61923044461471L274.9,159.30000064923215L275,156.57692307692307" style="fill: none;" fill="none"></path></g></g></g></g></g></g><g transform="translate(30, 177)" clip-path="url(#clip_1)"><clipPath id="clip_1"><rect width="300" height="23"></rect></clipPath><g><g><line x1="0" y1="0" x2="0" y2="5" style="visibility: inherit;" fill="rgb(0, 0, 0)" stroke="rgb(204, 204, 204)" stroke-width="1px"></line><line x1="25" y1="0" x2="25" y2="5" style="visibility: inherit;" fill="rgb(0, 0, 0)" stroke="rgb(204, 204, 204)" stroke-width="1px"></line><line x1="50" y1="0" x2="50" y2="5" style="visibility: inherit;" fill="rgb(0, 0, 0)" stroke="rgb(204, 204, 204)" stroke-width="1px"></line><line x1="75" y1="0" x2="75" y2="5" style="visibility: inherit;" fill="rgb(0, 0, 0)" stroke="rgb(204, 204, 204)" stroke-width="1px"></line><line x1="100" y1="0" x2="100" y2="5" style="visibility: inherit;" fill="rgb(0, 0, 0)" stroke="rgb(204, 204, 204)" stroke-width="1px"></line><line x1="125" y1="0" x2="125" y2="5" style="visibility: inherit;" fill="rgb(0, 0, 0)" stroke="rgb(204, 204, 204)" stroke-width="1px"></line><line x1="150" y1="0" x2="150" y2="5" style="visibility: inherit;" fill="rgb(0, 0, 0)" stroke="rgb(204, 204, 204)" stroke-width="1px"></line><line x1="175" y1="0" x2="175" y2="5" style="visibility: inherit;" fill="rgb(0, 0, 0)" stroke="rgb(204, 204, 204)" stroke-width="1px"></line><line x1="200" y1="0" x2="200" y2="5" style="visibility: inherit;" fill="rgb(0, 0, 0)" stroke="rgb(204, 204, 204)" stroke-width="1px"></line><line x1="225" y1="0" x2="225" y2="5" style="visibility: inherit;" fill="rgb(0, 0, 0)" stroke="rgb(204, 204, 204)" stroke-width="1px"></line><line x1="250" y1="0" x2="250" y2="5" style="visibility: inherit;" fill="rgb(0, 0, 0)" stroke="rgb(204, 204, 204)" stroke-width="1px"></line><line x1="275" y1="0" x2="275" y2="5" style="visibility: inherit;" fill="rgb(0, 0, 0)" stroke="rgb(204, 204, 204)" stroke-width="1px"></line><line x1="300" y1="0" x2="300" y2="5" style="visibility: inherit;" fill="rgb(0, 0, 0)" stroke="rgb(204, 204, 204)" stroke-width="1px"></line></g><g transform="translate(0, 8)"><text x="0" y="0" dx="0em" dy="0.95em" style="text-anchor: middle; visibility: hidden; font-family: Roboto, sans-serif; font-size: 12px; font-weight: 200;" fill="rgb(33, 33, 33)" stroke="none" stroke-width="1px">-500</text><text x="25" y="0" dx="0em" dy="0.95em" style="text-anchor: middle; visibility: inherit; font-family: Roboto, sans-serif; font-size: 12px; font-weight: 200;" fill="rgb(33, 33, 33)" stroke="none" stroke-width="1px">0</text><text x="50" y="0" dx="0em" dy="0.95em" style="text-anchor: middle; visibility: inherit; font-family: Roboto, sans-serif; font-size: 12px; font-weight: 200;" fill="rgb(33, 33, 33)" stroke="none" stroke-width="1px">500</text><text x="75" y="0" dx="0em" dy="0.95em" style="text-anchor: middle; visibility: inherit; font-family: Roboto, sans-serif; font-size: 12px; font-weight: 200;" fill="rgb(33, 33, 33)" stroke="none" stroke-width="1px">1k</text><text x="100" y="0" dx="0em" dy="0.95em" style="text-anchor: middle; visibility: inherit; font-family: Roboto, sans-serif; font-size: 12px; font-weight: 200;" fill="rgb(33, 33, 33)" stroke="none" stroke-width="1px">1.5k</text><text x="125" y="0" dx="0em" dy="0.95em" style="text-anchor: middle; visibility: inherit; font-family: Roboto, sans-serif; font-size: 12px; font-weight: 200;" fill="rgb(33, 33, 33)" stroke="none" stroke-width="1px">2k</text><text x="150" y="0" dx="0em" dy="0.95em" style="text-anchor: middle; visibility: inherit; font-family: Roboto, sans-serif; font-size: 12px; font-weight: 200;" fill="rgb(33, 33, 33)" stroke="none" stroke-width="1px">2.5k</text><text x="175" y="0" dx="0em" dy="0.95em" style="text-anchor: middle; visibility: inherit; font-family: Roboto, sans-serif; font-size: 12px; font-weight: 200;" fill="rgb(33, 33, 33)" stroke="none" stroke-width="1px">3k</text><text x="200" y="0" dx="0em" dy="0.95em" style="text-anchor: middle; visibility: inherit; font-family: Roboto, sans-serif; font-size: 12px; font-weight: 200;" fill="rgb(33, 33, 33)" stroke="none" stroke-width="1px">3.5k</text><text x="225" y="0" dx="0em" dy="0.95em" style="text-anchor: middle; visibility: inherit; font-family: Roboto, sans-serif; font-size: 12px; font-weight: 200;" fill="rgb(33, 33, 33)" stroke="none" stroke-width="1px">4k</text><text x="250" y="0" dx="0em" dy="0.95em" style="text-anchor: middle; visibility: inherit; font-family: Roboto, sans-serif; font-size: 12px; font-weight: 200;" fill="rgb(33, 33, 33)" stroke="none" stroke-width="1px">4.5k</text><text x="275" y="0" dx="0em" dy="0.95em" style="text-anchor: middle; visibility: inherit; font-family: Roboto, sans-serif; font-size: 12px; font-weight: 200;" fill="rgb(33, 33, 33)" stroke="none" stroke-width="1px">5k</text><text x="300" y="0" dx="0em" dy="0.95em" style="text-anchor: middle; visibility: hidden; font-family: Roboto, sans-serif; font-size: 12px; font-weight: 200;" fill="rgb(33, 33, 33)" stroke="none" stroke-width="1px">5.5k</text></g><line x1="0" y1="0" x2="300" y2="0" fill="rgb(0, 0, 0)" stroke="rgb(204, 204, 204)" stroke-width="1px"></line></g></g></g></g></svg>