<svg viewBox="0 0 1073 400" xmlns="http://www.w3.org/2000/svg"><g><g><g><g><g><line x1="30" y1="377" x2="25" y2="377" style="visibility: inherit;" fill="rgb(0, 0, 0)" stroke="rgb(204, 204, 204)" stroke-width="1px"></line><line x1="30" y1="342.7272727272727" x2="25" y2="342.7272727272727" style="visibility: inherit;" fill="rgb(0, 0, 0)" stroke="rgb(204, 204, 204)" stroke-width="1px"></line><line x1="30" y1="308.45454545454544" x2="25" y2="308.45454545454544" style="visibility: inherit;" fill="rgb(0, 0, 0)" stroke="rgb(204, 204, 204)" stroke-width="1px"></line><line x1="30" y1="274.1818181818182" x2="25" y2="274.1818181818182" style="visibility: inherit;" fill="rgb(0, 0, 0)" stroke="rgb(204, 204, 204)" stroke-width="1px"></line><line x1="30" y1="239.9090909090909" x2="25" y2="239.9090909090909" style="visibility: inherit;" fill="rgb(0, 0, 0)" stroke="rgb(204, 204, 204)" stroke-width="1px"></line><line x1="30" y1="205.63636363636363" x2="25" y2="205.63636363636363" style="visibility: inherit;" fill="rgb(0, 0, 0)" stroke="rgb(204, 204, 204)" stroke-width="1px"></line><line x1="30" y1="171.36363636363637" x2="25" y2="171.36363636363637" style="visibility: inherit;" fill="rgb(0, 0, 0)" stroke="rgb(204, 204, 204)" stroke-width="1px"></line><line x1="30" y1="137.0909090909091" x2="25" y2="137.0909090909091" style="visibility: inherit;" fill="rgb(0, 0, 0)" stroke="rgb(204, 204, 204)" stroke-width="1px"></line><line x1="30" y1="102.81818181818181" x2="25" y2="102.81818181818181" style="visibility: inherit;" fill="rgb(0, 0, 0)" stroke="rgb(204, 204, 204)" stroke-width="1px"></line><line x1="30" y1="68.54545454545453" x2="25" y2="68.54545454545453" style="visibility: inherit;" fill="rgb(0, 0, 0)" stroke="rgb(204, 204, 204)" stroke-width="1px"></line><line x1="30" y1="34.27272727272729" x2="25" y2="34.27272727272729" style="visibility: inherit;" fill="rgb(0, 0, 0)" stroke="rgb(204, 204, 204)" stroke-width="1px"></line><line x1="30" y1="0" x2="25" y2="0" style="visibility: inherit;" fill="rgb(0, 0, 0)" stroke="rgb(204, 204, 204)" stroke-width="1px"></line></g><g transform="translate(20, 0)"><text x="0" y="377" dx="0em" dy="0.3em" style="text-anchor: end; visibility: hidden; font-family: Roboto, sans-serif; font-size: 12px; font-weight: 200;" fill="rgb(33, 33, 33)" stroke="none" stroke-width="1px">-2</text><text x="0" y="342.7272727272727" dx="0em" dy="0.3em" style="text-anchor: end; visibility: inherit; font-family: Roboto, sans-serif; font-size: 12px; font-weight: 200;" fill="rgb(33, 33, 33)" stroke="none" stroke-width="1px">0</text><text x="0" y="308.45454545454544" dx="0em" dy="0.3em" style="text-anchor: end; visibility: inherit; font-family: Roboto, sans-serif; font-size: 12px; font-weight: 200;" fill="rgb(33, 33, 33)" stroke="none" stroke-width="1px">2</text><text x="0" y="274.1818181818182" dx="0em" dy="0.3em" style="text-anchor: end; visibility: inherit; font-family: Roboto, sans-serif; font-size: 12px; font-weight: 200;" fill="rgb(33, 33, 33)" stroke="none" stroke-width="1px">4</text><text x="0" y="239.9090909090909" dx="0em" dy="0.3em" style="text-anchor: end; visibility: inherit; font-family: Roboto, sans-serif; font-size: 12px; font-weight: 200;" fill="rgb(33, 33, 33)" stroke="none" stroke-width="1px">6</text><text x="0" y="205.63636363636363" dx="0em" dy="0.3em" style="text-anchor: end; visibility: inherit; font-family: Roboto, sans-serif; font-size: 12px; font-weight: 200;" fill="rgb(33, 33, 33)" stroke="none" stroke-width="1px">8</text><text x="0" y="171.36363636363637" dx="0em" dy="0.3em" style="text-anchor: end; visibility: inherit; font-family: Roboto, sans-serif; font-size: 12px; font-weight: 200;" fill="rgb(33, 33, 33)" stroke="none" stroke-width="1px">10</text><text x="0" y="137.0909090909091" dx="0em" dy="0.3em" style="text-anchor: end; visibility: inherit; font-family: Roboto, sans-serif; font-size: 12px; font-weight: 200;" fill="rgb(33, 33, 33)" stroke="none" stroke-width="1px">12</text><text x="0" y="102.81818181818181" dx="0em" dy="0.3em" style="text-anchor: end; visibility: inherit; font-family: Roboto, sans-serif; font-size: 12px; font-weight: 200;" fill="rgb(33, 33, 33)" stroke="none" stroke-width="1px">14</text><text x="0" y="68.54545454545453" dx="0em" dy="0.3em" style="text-anchor: end; visibility: inherit; font-family: Roboto, sans-serif; font-size: 12px; font-weight: 200;" fill="rgb(33, 33, 33)" stroke="none" stroke-width="1px">16</text><text x="0" y="34.27272727272729" dx="0em" dy="0.3em" style="text-anchor: end; visibility: inherit; font-family: Roboto, sans-serif; font-size: 12px; font-weight: 200;" fill="rgb(33, 33, 33)" stroke="none" stroke-width="1px">18</text><text x="0" y="0" dx="0em" dy="0.3em" style="text-anchor: end; visibility: hidden; font-family: Roboto, sans-serif; font-size: 12px; font-weight: 200;" fill="rgb(33, 33, 33)" stroke="none" stroke-width="1px">20</text></g><line x1="30" y1="0" x2="30" y2="377" fill="rgb(0, 0, 0)" stroke="rgb(204, 204, 204)" stroke-width="1px"></line></g></g><g transform="translate(30, 0)" clip-path="url(#clip_0)"><clipPath id="clip_0"><rect width="1043" height="377"></rect></clipPath><g><g><g><line x1="0" y1="0" x2="0" y2="377" fill="rgb(0, 0, 0)" stroke="rgb(66, 66, 66)" stroke-width="1px" opacity="0.25"></line><line x1="86.91666666666666" y1="0" x2="86.91666666666666" y2="377" fill="rgb(0, 0, 0)" stroke="rgb(66, 66, 66)" stroke-width="1px" opacity="0.25"></line><line x1="173.83333333333331" y1="0" x2="173.83333333333331" y2="377" fill="rgb(0, 0, 0)" stroke="rgb(66, 66, 66)" stroke-width="1px" opacity="0.25"></line><line x1="260.75" y1="0" x2="260.75" y2="377" fill="rgb(0, 0, 0)" stroke="rgb(66, 66, 66)" stroke-width="1px" opacity="0.25"></line><line x1="347.66666666666663" y1="0" x2="347.66666666666663" y2="377" fill="rgb(0, 0, 0)" stroke="rgb(66, 66, 66)" stroke-width="1px" opacity="0.25"></line><line x1="434.58333333333337" y1="0" x2="434.58333333333337" y2="377" fill="rgb(0, 0, 0)" stroke="rgb(66, 66, 66)" stroke-width="1px" opacity="0.25"></line><line x1="521.5" y1="0" x2="521.5" y2="377" fill="rgb(0, 0, 0)" stroke="rgb(66, 66, 66)" stroke-width="1px" opacity="0.25"></line><line x1="608.4166666666667" y1="0" x2="608.4166666666667" y2="377" fill="rgb(0, 0, 0)" stroke="rgb(66, 66, 66)" stroke-width="1px" opacity="0.25"></line><line x1="695.3333333333333" y1="0" x2="695.3333333333333" y2="377" fill="rgb(0, 0, 0)" stroke="rgb(66, 66, 66)" stroke-width="1px" opacity="0.25"></line><line x1="782.25" y1="0" x2="782.25" y2="377" fill="rgb(0, 0, 0)" stroke="rgb(66, 66, 66)" stroke-width="1px" opacity="0.25"></line><line x1="869.1666666666667" y1="0" x2="869.1666666666667" y2="377" fill="rgb(0, 0, 0)" stroke="rgb(66, 66, 66)" stroke-width="1px" opacity="0.25"></line><line x1="956.0833333333333" y1="0" x2="956.0833333333333" y2="377" fill="rgb(0, 0, 0)" stroke="rgb(66, 66, 66)" stroke-width="1px" opacity="0.25"></line><line x1="1043" y1="0" x2="1043" y2="377" fill="rgb(0, 0, 0)" stroke="rgb(66, 66, 66)" stroke-width="1px" opacity="0.25"></line></g><g><line x1="0" y1="377" x2="1043" y2="377" fill="rgb(0, 0, 0)" stroke="rgb(66, 66, 66)" stroke-width="1px" opacity="0.25"></line><line x1="0" y1="342.7272727272727" x2="1043" y2="342.7272727272727" fill="rgb(0, 0, 0)" stroke="rgb(66, 66, 66)" stroke-width="1px" opacity="0.25"></line><line x1="0" y1="308.45454545454544" x2="1043" y2="308.45454545454544" fill="rgb(0, 0, 0)" stroke="rgb(66, 66, 66)" stroke-width="1px" opacity="0.25"></line><line x1="0" y1="274.1818181818182" x2="1043" y2="274.1818181818182" fill="rgb(0, 0, 0)" stroke="rgb(66, 66, 66)" stroke-width="1px" opacity="0.25"></line><line x1="0" y1="239.9090909090909" x2="1043" y2="239.9090909090909" fill="rgb(0, 0, 0)" stroke="rgb(66, 66, 66)" stroke-width="1px" opacity="0.25"></line><line x1="0" y1="205.63636363636363" x2="1043" y2="205.63636363636363" fill="rgb(0, 0, 0)" stroke="rgb(66, 66, 66)" stroke-width="1px" opacity="0.25"></line><line x1="0" y1="171.36363636363637" x2="1043" y2="171.36363636363637" fill="rgb(0, 0, 0)" stroke="rgb(66, 66, 66)" stroke-width="1px" opacity="0.25"></line><line x1="0" y1="137.0909090909091" x2="1043" y2="137.0909090909091" fill="rgb(0, 0, 0)" stroke="rgb(66, 66, 66)" stroke-width="1px" opacity="0.25"></line><line x1="0" y1="102.81818181818181" x2="1043" y2="102.81818181818181" fill="rgb(0, 0, 0)" stroke="rgb(66, 66, 66)" stroke-width="1px" opacity="0.25"></line><line x1="0" y1="68.54545454545453" x2="1043" y2="68.54545454545453" fill="rgb(0, 0, 0)" stroke="rgb(66, 66, 66)" stroke-width="1px" opacity="0.25"></line><line x1="0" y1="34.27272727272729" x2="1043" y2="34.27272727272729" fill="rgb(0, 0, 0)" stroke="rgb(66, 66, 66)" stroke-width="1px" opacity="0.25"></line><line x1="0" y1="0" x2="1043" y2="0" fill="rgb(0, 0, 0)" stroke="rgb(66, 66, 66)" stroke-width="1px" opacity="0.25"></line></g></g></g><g><g><line x1="0" y1="342.7272727272727" x2="1043" y2="342.7272727272727" fill="rgb(0, 0, 0)" stroke="rgb(153, 153, 153)" stroke-width="1.5px"></line></g></g><g><g><line x1="86.91666666666666" y1="0" x2="86.91666666666666" y2="377" fill="rgb(0, 0, 0)" stroke="rgb(153, 153, 153)" stroke-width="1.5px"></line></g></g><g><g><g><g><g><path style="fill: none;" stroke="rgb(255, 112, 67)" stroke-width="2px" d="M139.762,-25.704545454545432L140.63116666666667,46.268194892189705L140.9788333333333,56.5499869259921L142.36950000000002,131.94999673149803L142.54333333333332,147.37273380973122L143.76016666666666,173.07727926427668L144.4555,190.2136429006403L146.02,215.91818018393082L147.41066666666669,231.3409090909091L150.19199999999998,243.33636036786166L150.88733333333334,253.6181850866838L151.93033333333332,246.76363799788737L152.6256666666667,260.4727240042253L152.97333333333333,251.9045421860435L160.27433333333335,245.050003268502L160.44816666666665,262.1863669048656L160.79583333333335,258.75908927483994L161.83883333333335,262.1863669048656L163.40333333333334,260.4727240042253L163.751,250.19090745665812L163.92483333333334,257.04545454545456L164.44633333333334,245.050003268502L165.48933333333335,257.04545454545456L167.05383333333336,257.04545454545456L167.57533333333333,269.0409058224071L167.74916666666667,260.4727240042253L169.4875,255.33181981606918L172.44266666666667,257.04545454545456L172.79033333333334,258.75908927483994L175.22400000000002,263.900001634251L176.09316666666666,262.1863669048656L176.44083333333333,263.900001634251L176.96233333333333,267.32727109302175L178.353,260.4727240042253L179.396,257.04545454545456L179.74366666666668,262.1863669048656L180.26516666666666,267.32727109302175L181.30816666666666,267.32727109302175L182.17733333333334,267.32727109302175L183.91566666666668,260.4727240042253L184.9586666666667,260.4727240042253L186.00166666666667,263.900001634251L186.697,269.0409058224071L187.73999999999998,275.89545291120356L188.08766666666668,272.4681834524328L188.26149999999998,269.0409058224071L188.60916666666668,260.4727240042253L188.95683333333335,263.900001634251L189.13066666666668,258.75908927483994L189.99983333333333,267.32727109302175L190.17366666666666,274.1818181818182L191.73816666666664,277.60909172621643L192.78116666666665,262.1863669048656L193.12883333333335,269.0409058224071L193.998,267.32727109302175L194.86716666666666,263.900001634251L195.21483333333333,270.75454872304744L197.30083333333334,270.75454872304744L198.51766666666666,272.4681834524328L198.6915,269.0409058224071L199.03916666666666,269.0409058224071L199.38683333333336,274.1818181818182L199.56066666666666,275.89545291120356L199.90833333333336,269.0409058224071L201.99433333333332,274.1818181818182L202.51583333333332,274.1818181818182L203.21116666666666,281.0363652706146L203.73266666666666,274.1818181818182L204.25416666666666,272.4681834524328L204.9495,270.75454872304744L205.12333333333333,269.0409058224071L205.81866666666667,262.1863669048656L206.68783333333332,274.1818181818182L208.60000000000002,270.75454872304744L209.29533333333333,281.0363652706146L209.81683333333334,270.75454872304744L211.2075,274.1818181818182L211.90283333333332,269.0409058224071L212.42433333333332,274.1818181818182L212.59816666666669,275.89545291120356L212.772,269.0409058224071L213.98883333333333,284.4636347293854L215.03183333333334,269.0409058224071L215.37949999999998,272.4681834524328L215.55333333333334,277.60909172621643L216.24866666666668,286.1772735443982L216.944,274.1818181818182L217.63933333333333,274.1818181818182L217.8131666666667,281.0363652706146L218.5085,269.0409058224071L220.07299999999998,279.3227264556018L220.76833333333335,279.3227264556018L220.94216666666668,275.89545291120356L221.11599999999999,281.0363652706146L221.46366666666668,274.1818181818182L221.6375,275.89545291120356L222.6805,275.89545291120356L223.37583333333333,281.0363652706146L223.54966666666667,281.0363652706146L223.89733333333334,282.75L224.245,286.1772735443982L224.7665,275.89545291120356L224.94033333333334,281.0363652706146L225.11416666666665,277.60909172621643L225.288,279.3227264556018L225.80949999999999,284.4636347293854L226.50483333333335,274.1818181818182L227.374,284.4636347293854L227.54783333333333,281.0363652706146L227.72166666666666,281.0363652706146L228.76466666666667,282.75L231.71983333333336,279.3227264556018L232.41516666666666,282.75L232.76283333333333,282.75L233.632,286.1772735443982L237.804,289.60454708879644L238.15166666666667,286.1772735443982L239.02083333333331,286.1772735443982L239.3685,291.3181818181818L240.06383333333332,289.60454708879644L240.41150000000002,287.89090827378357L241.80216666666666,291.3181818181818L242.84516666666667,282.75L243.5405,289.60454708879644L244.75733333333332,291.3181818181818L245.105,289.60454708879644L246.148,291.3181818181818L246.49566666666666,291.3181818181818L247.01716666666667,291.3181818181818L247.53866666666667,289.60454708879644L248.92933333333335,293.0318165475672L249.10316666666668,291.3181818181818L249.62466666666668,287.89090827378357L250.8415,299.8863636363636L251.363,289.60454708879644L252.92749999999998,289.60454708879644L253.62283333333335,293.0318165475672L254.14433333333335,296.4590900919654L254.31816666666668,294.74545536258L255.88266666666667,294.74545536258L256.05649999999997,299.8863636363636L256.75183333333337,298.17272890697825L257.0995,298.17272890697825L257.2733333333333,294.74545536258L257.96866666666665,294.74545536258L258.1425,293.0318165475672L258.664,291.3181818181818L258.8378333333333,296.4590900919654L260.2285,293.0318165475672L260.92383333333333,293.0318165475672L261.2715,299.8863636363636L261.6191666666667,296.4590900919654L261.793,294.74545536258L263.3575,296.4590900919654L263.879,298.17272890697825L265.2696666666667,298.17272890697825L265.6173333333333,298.17272890697825L266.4865,299.8863636363636L267.3556666666667,301.599998365749L268.5725,301.599998365749L270.83233333333334,299.8863636363636L271.87533333333334,298.17272890697825L272.39683333333335,303.3136371807619L272.7445,299.8863636363636L273.4398333333333,305.02727191014725L274.13516666666663,301.599998365749L274.4828333333333,303.3136371807619L275.35200000000003,301.599998365749L275.5258333333333,303.3136371807619L275.69966666666664,294.74545536258L277.0903333333333,298.17272890697825L278.1333333333333,303.3136371807619L278.82866666666666,305.02727191014725L279.0025,303.3136371807619L279.17633333333333,305.02727191014725L280.74083333333334,305.02727191014725L281.61,303.3136371807619L284.04366666666664,301.599998365749L284.3913333333333,301.599998365749L287.86800000000005,303.3136371807619L288.04183333333333,308.45454545454544L288.73716666666667,306.74091072516006L288.911,311.8818189989437L289.08483333333334,305.02727191014725L292.21383333333335,308.45454545454544L293.083,308.45454545454544L294.29983333333337,306.74091072516006L294.47366666666665,308.45454545454544L295.51666666666665,308.45454545454544L295.8643333333333,303.3136371807619L296.7335,306.74091072516006L297.08116666666666,308.45454545454544L301.2531666666667,311.8818189989437L301.60083333333336,306.74091072516006L301.94849999999997,310.16818222674453L303.33916666666664,310.16818222674453L303.86066666666665,306.74091072516006L305.2513333333334,305.02727191014725L305.7728333333334,310.16818222674453L306.2943333333333,308.45454545454544L308.5541666666667,306.74091072516006L309.77099999999996,310.16818222674453L310.81399999999996,310.16818222674453L311.85699999999997,308.45454545454544L312.03083333333336,310.16818222674453L313.07383333333337,308.45454545454544L314.81216666666666,305.02727191014725L315.6813333333333,311.8818189989437L315.85516666666666,313.59545372832906L316.37666666666667,310.16818222674453L317.41966666666667,311.8818189989437L317.7673333333333,313.59545372832906L318.2888333333333,310.16818222674453L318.8103333333333,313.59545372832906L319.3318333333333,311.8818189989437L319.5056666666667,310.16818222674453L322.6346666666667,315.30909050052816L325.24216666666666,313.59545372832906L327.8496666666667,311.8818189989437L328.3711666666667,311.8818189989437L328.545,311.8818189989437L328.8926666666667,313.59545372832906L329.0665,313.59545372832906L332.717,313.59545372832906L332.8908333333333,313.59545372832906L333.76,308.45454545454544L334.2815,313.59545372832906L334.97683333333333,311.8818189989437L335.3245,313.59545372832906L336.01983333333334,311.8818189989437L336.7151666666667,318.73636404492635L337.4105,310.16818222674453L341.7563333333333,317.0227272727273L341.93016666666665,308.45454545454544L343.84233333333333,310.16818222674453L345.233,313.59545372832906L345.40683333333334,317.0227272727273L345.92833333333334,315.30909050052816L346.276,313.59545372832906L346.44983333333334,313.59545372832906L348.01433333333335,315.30909050052816L349.23116666666664,313.59545372832906L351.83866666666665,318.73636404492635L352.01250000000005,315.30909050052816L352.53400000000005,311.8818189989437L355.83683333333335,313.59545372832906L356.706,317.0227272727273L356.87983333333335,313.59545372832906L357.2275,317.0227272727273L358.44433333333336,317.0227272727273L359.66116666666665,313.59545372832906L359.835,313.59545372832906L361.3995,313.59545372832906L362.0948333333333,313.59545372832906L362.4425,317.0227272727273L363.13783333333333,317.0227272727273L364.70233333333334,317.0227272727273L365.9191666666667,313.59545372832906L366.09299999999996,317.0227272727273L366.9621666666667,315.30909050052816L368.35283333333336,311.8818189989437L369.9173333333334,320.4500008171255L370.09116666666665,317.0227272727273L370.7865,318.73636404492635L371.65566666666666,313.59545372832906L372.17716666666666,318.73636404492635L372.52483333333333,317.0227272727273L373.04633333333334,315.30909050052816L373.56783333333334,317.0227272727273L374.2631666666667,317.0227272727273L375.65383333333335,313.59545372832906L377.04449999999997,317.0227272727273L377.73983333333337,317.0227272727273L378.26133333333337,317.0227272727273L378.4351666666667,313.59545372832906L379.47816666666665,318.73636404492635L379.652,320.4500008171255L381.04266666666666,317.0227272727273L381.738,320.4500008171255L381.91183333333333,317.0227272727273L382.08566666666667,320.4500008171255L382.4333333333333,318.73636404492635L382.9548333333333,318.73636404492635L384.1716666666667,318.73636404492635L384.3455,317.0227272727273L385.7361666666667,317.0227272727273L385.90999999999997,318.73636404492635L387.4745,320.4500008171255L388.1698333333333,320.4500008171255L388.5175,318.73636404492635L389.039,318.73636404492635L389.90816666666666,317.0227272727273L390.082,318.73636404492635L390.42966666666666,320.4500008171255L390.6035,317.0227272727273L390.77733333333333,317.0227272727273L391.6465,320.4500008171255L394.0801666666667,320.4500008171255L395.6446666666667,318.73636404492635L396.6876666666667,317.0227272727273L397.9045,320.4500008171255L398.0783333333333,320.4500008171255L399.64283333333333,318.73636404492635L400.85966666666667,320.4500008171255L402.4241666666666,318.73636404492635L402.9456666666666,318.73636404492635L404.1625,318.73636404492635L404.51016666666663,320.4500008171255L405.20550000000003,315.30909050052816L406.9438333333333,318.73636404492635L407.11766666666665,318.73636404492635L407.63916666666665,318.73636404492635L408.5083333333333,320.4500008171255L409.20366666666666,320.4500008171255L411.4635,320.4500008171255L411.8111666666666,320.4500008171255L411.985,318.73636404492635L413.028,315.30909050052816L413.20183333333335,320.4500008171255L413.37566666666663,320.4500008171255L413.72333333333336,317.0227272727273L416.15700000000004,318.73636404492635L419.286,320.4500008171255L420.329,320.4500008171255L421.54583333333335,318.73636404492635L422.58883333333335,318.73636404492635L423.28416666666664,323.87727231870997L423.63183333333336,323.87727231870997L423.9795,318.73636404492635L425.0225,317.0227272727273L425.544,318.73636404492635L425.89166666666665,322.1636355465109L426.41316666666665,320.4500008171255L426.93466666666666,320.4500008171255L427.45616666666666,320.4500008171255L429.02066666666667,317.0227272727273L429.36833333333334,320.4500008171255L431.45433333333335,322.1636355465109L431.6281666666667,320.4500008171255L431.80199999999996,320.4500008171255L434.23566666666665,318.73636404492635L434.931,323.87727231870997L435.6263333333334,320.4500008171255L436.32166666666666,320.4500008171255L436.4955,322.1636355465109L437.017,323.87727231870997L437.36466666666666,318.73636404492635L437.71233333333333,322.1636355465109L439.103,323.87727231870997L439.4506666666667,320.4500008171255L439.9721666666667,323.87727231870997L440.4936666666667,325.5909090909091L441.0151666666667,322.1636355465109L441.36283333333336,323.87727231870997L441.88433333333336,320.4500008171255L442.40583333333336,322.1636355465109L445.18716666666666,323.87727231870997L446.404,320.4500008171255L447.27316666666667,323.87727231870997L447.447,322.1636355465109L447.6208333333333,320.4500008171255L447.9685,322.1636355465109L448.1423333333333,322.1636355465109L448.49,325.5909090909091L448.8376666666667,323.87727231870997L449.533,322.1636355465109L450.2283333333333,323.87727231870997L451.09749999999997,322.1636355465109L451.4451666666667,322.1636355465109L452.662,320.4500008171255L453.0096666666667,320.4500008171255L453.1835,318.73636404492635L454.0526666666667,322.1636355465109L454.748,322.1636355465109L455.61716666666666,320.4500008171255L455.96483333333333,322.1636355465109L456.13866666666667,320.4500008171255L457.877,323.87727231870997L458.05083333333334,320.4500008171255L458.7461666666667,323.87727231870997L459.2676666666667,323.87727231870997L459.7891666666667,323.87727231870997L459.963,323.87727231870997L460.4845,322.1636355465109L460.6583333333333,322.1636355465109L461.00600000000003,327.3045458631082L461.8751666666667,325.5909090909091L462.049,322.1636355465109L463.2658333333333,320.4500008171255L463.4396666666667,323.87727231870997L464.135,323.87727231870997L464.4826666666667,325.5909090909091L464.83033333333333,323.87727231870997L465.52566666666667,323.87727231870997L467.264,323.87727231870997L467.6116666666666,318.73636404492635L467.95933333333335,322.1636355465109L468.1331666666666,323.87727231870997L468.8285,315.30909050052816L469.35,320.4500008171255L470.74066666666664,322.1636355465109L471.43600000000004,322.1636355465109L473.86966666666666,325.5909090909091L474.565,327.3045458631082L474.91266666666667,320.4500008171255L475.78183333333334,325.5909090909091L475.9556666666667,325.5909090909091L476.30333333333334,322.1636355465109L476.651,323.87727231870997L476.82483333333334,320.4500008171255L477.1725,323.87727231870997L477.5201666666666,322.1636355465109L477.694,323.87727231870997L478.91083333333336,320.4500008171255L479.43233333333336,322.1636355465109L480.30150000000003,325.5909090909091L482.38750000000005,323.87727231870997L483.0828333333333,327.3045458631082L483.60433333333333,322.1636355465109L485.3426666666667,322.1636355465109L486.3856666666667,318.73636404492635L486.5595,327.3045458631082L486.9071666666667,327.3045458631082L487.42866666666663,320.4500008171255L487.95016666666663,320.4500008171255L488.124,325.5909090909091L488.29783333333336,323.87727231870997L490.03616666666665,323.87727231870997L490.21,322.1636355465109L490.38383333333337,323.87727231870997L490.7315,323.87727231870997L492.8175,325.5909090909091L492.99133333333333,323.87727231870997L493.16516666666666,323.87727231870997L493.339,325.5909090909091L494.7296666666667,323.87727231870997L496.2941666666667,325.5909090909091L499.24933333333337,323.87727231870997L501.683,323.87727231870997L502.37833333333333,323.87727231870997L502.55216666666666,327.3045458631082L502.89983333333333,322.1636355465109L504.2905,323.87727231870997L504.6381666666667,323.87727231870997L505.33349999999996,323.87727231870997L507.07183333333336,325.5909090909091L508.4625,323.87727231870997L508.63633333333337,323.87727231870997L510.5485,325.5909090909091L511.93916666666667,329.0181816139005L512.9821666666667,327.3045458631082L513.156,322.1636355465109L513.5036666666667,323.87727231870997L513.8513333333333,323.87727231870997L514.7205,325.5909090909091L518.0233333333333,322.1636355465109L519.0663333333333,323.87727231870997L519.2401666666667,322.1636355465109L520.9785,325.5909090909091L521.3261666666667,325.5909090909091L521.8476666666667,327.3045458631082L522.0215,323.87727231870997L522.1953333333333,327.3045458631082L524.1075,325.5909090909091L524.629,327.3045458631082L525.672,325.5909090909091L526.5411666666666,325.5909090909091L526.8888333333333,322.1636355465109L527.2365,327.3045458631082L527.5841666666666,322.1636355465109L529.1486666666666,325.5909090909091L529.844,322.1636355465109L530.5393333333334,325.5909090909091L530.8870000000001,325.5909090909091L531.4085,325.5909090909091L532.973,327.3045458631082L533.1468333333333,327.3045458631082L533.8421666666667,329.0181816139005L534.8851666666667,323.87727231870997L535.2328333333334,325.5909090909091L537.3188333333334,325.5909090909091L537.4926666666667,327.3045458631082L537.6664999999999,323.87727231870997L537.8403333333334,323.87727231870997L538.3618333333334,327.3045458631082L539.0571666666667,327.3045458631082L540.1001666666667,325.5909090909091L540.274,327.3045458631082L540.7955,329.0181816139005L542.1861666666667,329.0181816139005L543.0553333333334,327.3045458631082L543.5768333333333,329.0181816139005L544.0983333333332,325.5909090909091L544.2721666666667,325.5909090909091L545.3151666666668,325.5909090909091L545.6628333333333,325.5909090909091L546.7058333333333,325.5909090909091L547.2273333333333,323.87727231870997L547.7488333333333,327.3045458631082L548.618,327.3045458631082L551.9208333333333,329.0181816139005L552.6161666666667,327.3045458631082L552.9638333333334,327.3045458631082L553.8330000000001,327.3045458631082L554.7021666666667,329.0181816139005L556.962,325.5909090909091L557.6573333333333,325.5909090909091L558.1788333333334,329.0181816139005L560.7863333333333,325.5909090909091L562.6985,327.3045458631082L562.8723333333332,325.5909090909091L563.3938333333333,327.3045458631082L564.4368333333333,327.3045458631082L565.6536666666667,327.3045458631082L565.8275,323.87727231870997L566.0013333333333,327.3045458631082L566.1751666666667,329.0181816139005L566.349,325.5909090909091L566.5228333333333,327.3045458631082L567.9135,327.3045458631082L571.9116666666666,329.0181816139005L572.0855,327.3045458631082L572.2593333333333,329.0181816139005L573.4761666666666,329.0181816139005L575.3883333333333,323.87727231870997L575.7360000000001,330.7318183860995L577.822,327.3045458631082L577.9958333333334,329.0181816139005L578.5173333333333,327.3045458631082L578.865,329.0181816139005L579.0388333333334,330.7318183860995L579.3865,330.7318183860995L582.6893333333334,329.0181816139005L583.5585,327.3045458631082L584.08,327.3045458631082L584.6015,327.3045458631082L586.166,329.0181816139005L586.3398333333333,329.0181816139005L587.3828333333333,325.5909090909091L587.7305,327.3045458631082L587.9043333333333,329.0181816139005L588.9473333333333,329.0181816139005L589.4688333333334,327.3045458631082L590.5118333333334,329.0181816139005L590.8595,327.3045458631082L591.2071666666666,327.3045458631082L591.7286666666666,327.3045458631082L593.2931666666666,325.5909090909091L594.1623333333333,329.0181816139005L594.51,329.0181816139005L594.6838333333334,329.0181816139005L594.8576666666667,325.5909090909091L596.7698333333334,327.3045458631082L598.5081666666666,327.3045458631082L599.8988333333334,330.7318183860995L602.8539999999999,330.7318183860995L604.0708333333334,327.3045458631082L604.2446666666667,327.3045458631082L604.7661666666667,327.3045458631082L606.5045,329.0181816139005L607.5475,329.0181816139005L608.2428333333334,329.0181816139005L609.112,327.3045458631082L609.4596666666667,329.0181816139005L609.8073333333333,327.3045458631082L610.155,329.0181816139005L610.5026666666668,327.3045458631082L611.198,330.7318183860995L611.3718333333333,327.3045458631082L611.8933333333333,329.0181816139005L612.9363333333333,329.0181816139005L613.284,329.0181816139005L613.8055,327.3045458631082L615.1961666666666,329.0181816139005L615.5438333333333,327.3045458631082L615.7176666666667,327.3045458631082L615.8915000000001,325.5909090909091L617.2821666666666,330.7318183860995L619.8896666666667,327.3045458631082L620.2373333333334,325.5909090909091L620.5849999999999,327.3045458631082L620.9326666666667,327.3045458631082L621.2803333333334,329.0181816139005L622.8448333333333,329.0181816139005L623.5401666666667,330.7318183860995L625.8,329.0181816139005L626.4953333333334,329.0181816139005L629.7981666666667,329.0181816139005L632.4056666666667,330.7318183860995L632.5795,329.0181816139005L633.6225000000001,329.0181816139005L633.7963333333333,329.0181816139005L634.144,327.3045458631082L634.6655000000001,330.7318183860995L635.5346666666666,329.0181816139005L636.0561666666666,330.7318183860995L636.23,330.7318183860995L636.5776666666666,329.0181816139005L639.359,329.0181816139005L640.5758333333333,330.7318183860995L641.2711666666667,327.3045458631082L642.4879999999999,329.0181816139005L642.6618333333333,329.0181816139005L643.8786666666666,329.0181816139005L644.4001666666667,330.7318183860995L648.5721666666667,329.0181816139005L649.0936666666666,330.7318183860995L650.3105,329.0181816139005L650.832,327.3045458631082L651.0058333333333,327.3045458631082L651.3535,329.0181816139005L651.5273333333333,327.3045458631082L652.7441666666667,329.0181816139005L653.0918333333333,330.7318183860995L655.004,327.3045458631082L655.8731666666666,330.7318183860995L657.4376666666666,332.4454541368918L657.7853333333334,329.0181816139005L658.133,330.7318183860995L658.8283333333334,329.0181816139005L659.3498333333333,329.0181816139005L661.6096666666666,327.3045458631082L661.7835,327.3045458631082L661.9573333333334,334.1590909090909L663.0003333333334,327.3045458631082L664.391,330.7318183860995L665.434,330.7318183860995L665.6078333333334,330.7318183860995L665.7816666666666,332.4454541368918L666.477,330.7318183860995L667.3461666666667,330.7318183860995L668.563,329.0181816139005L669.9536666666667,329.0181816139005L670.649,330.7318183860995L671.3443333333333,329.0181816139005L671.692,329.0181816139005L672.735,330.7318183860995L673.2565,329.0181816139005L673.6041666666667,330.7318183860995L673.9518333333333,330.7318183860995L674.2995,329.0181816139005L674.821,332.4454541368918L675.6901666666668,329.0181816139005L677.7761666666667,329.0181816139005L678.6453333333333,329.0181816139005L679.5145,332.4454541368918L682.6435,330.7318183860995L683.3388333333334,330.7318183860995L683.8603333333333,330.7318183860995L684.7294999999999,329.0181816139005L685.9463333333333,330.7318183860995L686.6416666666667,330.7318183860995L686.9893333333333,330.7318183860995L688.0323333333333,330.7318183860995L688.2061666666667,332.4454541368918L689.2491666666667,329.0181816139005L690.466,329.0181816139005L691.509,329.0181816139005L692.0305,329.0181816139005L693.0735,330.7318183860995L694.9856666666667,332.4454541368918L695.3333333333333,330.7318183860995L696.5501666666667,330.7318183860995L697.0716666666667,332.4454541368918L697.5931666666667,325.5909090909091L697.9408333333333,330.7318183860995L698.8100000000001,329.0181816139005L701.5913333333333,327.3045458631082L701.9390000000001,332.4454541368918L702.1128333333334,330.7318183860995L702.8081666666666,330.7318183860995L702.9820000000001,332.4454541368918L703.6773333333333,327.3045458631082L704.0250000000001,330.7318183860995L705.0680000000001,330.7318183860995L705.2418333333334,330.7318183860995L706.4586666666667,332.4454541368918L708.5446666666667,332.4454541368918L709.4138333333334,330.7318183860995L709.9353333333333,330.7318183860995L711.4998333333334,332.4454541368918L711.6736666666667,332.4454541368918L712.7166666666667,330.7318183860995L712.8905,332.4454541368918L715.3241666666667,332.4454541368918L716.0195,330.7318183860995L716.3671666666667,329.0181816139005L716.7148333333333,330.7318183860995L717.2363333333333,330.7318183860995L717.7578333333333,330.7318183860995L719.3223333333333,330.7318183860995L720.3653333333333,332.4454541368918L720.713,330.7318183860995L722.6251666666666,329.0181816139005L722.799,330.7318183860995L723.842,332.4454541368918L725.0588333333334,332.4454541368918L729.2308333333334,330.7318183860995L729.7523333333334,329.0181816139005L730.2738333333334,329.0181816139005L730.6215,330.7318183860995L734.2719999999999,332.4454541368918L734.7935,330.7318183860995L735.4888333333333,332.4454541368918L735.6626666666667,335.8727271705866L735.8365,332.4454541368918L736.8795,332.4454541368918L737.401,329.0181816139005L737.7486666666667,332.4454541368918L739.3131666666667,332.4454541368918L740.0085,330.7318183860995L740.53,334.1590909090909L741.3991666666667,330.7318183860995L742.7898333333333,335.8727271705866L743.4851666666666,330.7318183860995L743.8328333333333,329.0181816139005L744.1805,334.1590909090909L746.4403333333333,329.0181816139005L746.788,332.4454541368918L747.3095000000001,330.7318183860995L749.3955000000001,332.4454541368918L750.0908333333333,330.7318183860995L750.9599999999999,330.7318183860995L751.3076666666667,330.7318183860995L753.0459999999999,330.7318183860995L753.3936666666667,330.7318183860995L753.7413333333334,330.7318183860995L756.0011666666667,329.0181816139005L757.0441666666667,330.7318183860995L758.7825,332.4454541368918L759.6516666666668,330.7318183860995L760.8685,330.7318183860995L761.39,332.4454541368918L761.7376666666667,330.7318183860995L765.2143333333333,329.0181816139005L765.3881666666666,330.7318183860995L765.562,332.4454541368918L766.4311666666666,327.3045458631082L766.7788333333333,330.7318183860995L767.8218333333333,330.7318183860995L768.5171666666666,332.4454541368918L769.9078333333333,332.4454541368918L770.0816666666666,332.4454541368918L770.9508333333333,332.4454541368918L771.1246666666666,330.7318183860995L771.8199999999999,327.3045458631082L773.7321666666667,334.1590909090909L774.7751666666667,332.4454541368918L775.8181666666667,330.7318183860995L776.3396666666666,330.7318183860995L778.2518333333334,332.4454541368918L778.9471666666667,332.4454541368918L779.6425,332.4454541368918L780.8593333333333,332.4454541368918L781.5546666666667,330.7318183860995L782.4238333333333,330.7318183860995L783.293,330.7318183860995L783.9883333333333,332.4454541368918L784.1621666666667,332.4454541368918L784.5098333333333,334.1590909090909L786.0743333333334,332.4454541368918L786.2481666666666,334.1590909090909L788.1603333333334,334.1590909090909L788.508,332.4454541368918L788.6818333333333,332.4454541368918L789.8986666666666,334.1590909090909L790.2463333333334,334.1590909090909L790.4201666666667,334.1590909090909L790.594,332.4454541368918L790.7678333333333,332.4454541368918L791.4631666666667,334.1590909090909L791.8108333333333,332.4454541368918L795.6351666666667,334.1590909090909L796.1566666666666,334.1590909090909L798.5903333333334,332.4454541368918L799.4594999999999,334.1590909090909L799.6333333333334,334.1590909090909L799.981,334.1590909090909L801.3716666666667,334.1590909090909L802.2408333333333,334.1590909090909L803.4576666666667,332.4454541368918L808.325,335.8727271705866L809.5418333333333,332.4454541368918L811.4540000000001,334.1590909090909L812.3231666666667,332.4454541368918L813.8876666666666,334.1590909090909L814.0615,334.1590909090909L815.7998333333334,332.4454541368918L815.9736666666666,334.1590909090909L816.1474999999999,334.1590909090909L816.4951666666667,334.1590909090909L816.8428333333334,332.4454541368918L817.1904999999999,332.4454541368918L817.3643333333333,334.1590909090909L817.5381666666667,334.1590909090909L817.8858333333334,332.4454541368918L821.0148333333334,334.1590909090909L821.884,334.1590909090909L822.7531666666667,334.1590909090909L823.2746666666667,335.8727271705866L823.7961666666667,332.4454541368918L824.6653333333333,335.8727271705866L826.5775,334.1590909090909L828.142,334.1590909090909L828.6635,330.7318183860995L828.8373333333333,335.8727271705866L830.4018333333333,334.1590909090909L831.4448333333333,334.1590909090909L834.0523333333333,334.1590909090909L834.2261666666666,334.1590909090909L835.2691666666666,334.1590909090909L835.9645,332.4454541368918L836.4860000000001,335.8727271705866L837.529,334.1590909090909L837.8766666666667,334.1590909090909L839.4411666666666,334.1590909090909L840.1365,334.1590909090909L841.1795,334.1590909090909L842.0486666666667,332.4454541368918L843.0916666666667,334.1590909090909L843.787,334.1590909090909L844.6561666666666,334.1590909090909L845.873,334.1590909090909L846.5683333333333,332.4454541368918L848.1328333333333,332.4454541368918L848.6543333333333,332.4454541368918L850.7403333333333,334.1590909090909L851.9571666666666,332.4454541368918L852.4786666666666,334.1590909090909L852.8263333333333,334.1590909090909L853.0001666666666,334.1590909090909L853.6955,332.4454541368918L853.8693333333333,335.8727271705866L854.0431666666666,332.4454541368918L856.1291666666666,332.4454541368918L857.1721666666666,334.1590909090909L857.346,332.4454541368918L857.6936666666667,335.8727271705866L858.5628333333334,332.4454541368918L858.7366666666667,332.4454541368918L859.2581666666666,334.1590909090909L860.3011666666666,334.1590909090909L860.9965,335.8727271705866L862.2133333333334,335.8727271705866L863.9516666666667,334.1590909090909L864.9946666666667,332.4454541368918L865.6899999999999,335.8727271705866L866.2115,334.1590909090909L867.6021666666667,334.1590909090909L867.9498333333333,335.8727271705866L870.2096666666667,335.8727271705866L870.905,334.1590909090909L871.0788333333333,335.8727271705866L874.3816666666667,334.1590909090909L874.5555,335.8727271705866L875.077,334.1590909090909L876.2938333333333,334.1590909090909L876.6415000000001,334.1590909090909L878.0321666666666,334.1590909090909L878.3798333333333,332.4454541368918L878.5536666666667,334.1590909090909L880.8135,332.4454541368918L881.1611666666666,335.8727271705866L881.3349999999999,335.8727271705866L882.8995,334.1590909090909L883.4209999999999,334.1590909090909L883.7686666666667,334.1590909090909L885.3331666666667,332.4454541368918L885.8546666666667,334.1590909090909L886.2023333333334,334.1590909090909L886.55,334.1590909090909L888.636,334.1590909090909L891.5911666666667,332.4454541368918L892.4603333333333,334.1590909090909L894.1986666666667,335.8727271705866L895.2416666666666,334.1590909090909L896.4585000000001,335.8727271705866L897.5015000000001,335.8727271705866L897.8491666666666,335.8727271705866L898.5445000000001,335.8727271705866L899.7613333333334,332.4454541368918L899.9351666666666,334.1590909090909L900.109,332.4454541368918L901.8473333333334,334.1590909090909L904.6286666666666,334.1590909090909L905.4978333333333,335.8727271705866L906.367,332.4454541368918L907.2361666666667,337.5863634320823L907.41,334.1590909090909L907.7576666666666,334.1590909090909L908.2791666666667,332.4454541368918L910.0175,330.7318183860995L910.7128333333333,334.1590909090909L910.8866666666667,334.1590909090909L911.9296666666667,335.8727271705866L912.625,334.1590909090909L912.7988333333333,335.8727271705866L914.1895,335.8727271705866L914.711,334.1590909090909L914.8848333333333,334.1590909090909L915.2325,335.8727271705866L915.754,334.1590909090909L915.9278333333333,335.8727271705866L916.1016666666667,337.5863634320823L916.2755,337.5863634320823L916.9708333333333,334.1590909090909L917.3185,334.1590909090909L917.84,332.4454541368918L918.0138333333333,335.8727271705866L918.1876666666666,334.1590909090909L918.3615,334.1590909090909L918.7091666666666,335.8727271705866L919.2306666666666,332.4454541368918L919.4045,332.4454541368918L920.4475,334.1590909090909L921.4905,335.8727271705866L921.8381666666667,335.8727271705866L922.3596666666666,332.4454541368918L924.4456666666666,334.1590909090909L925.8363333333334,334.1590909090909L926.0101666666667,335.8727271705866L926.184,334.1590909090909L927.227,332.4454541368918L928.4438333333334,334.1590909090909L929.313,334.1590909090909L930.5298333333334,335.8727271705866L931.2251666666667,334.1590909090909L932.7896666666667,335.8727271705866L933.8326666666667,335.8727271705866L934.1803333333334,334.1590909090909L934.7018333333333,332.4454541368918L935.9186666666667,334.1590909090909L936.9616666666667,334.1590909090909L937.4831666666668,332.4454541368918L937.8308333333333,335.8727271705866L938.0046666666666,334.1590909090909L939.5691666666667,334.1590909090909L941.3075,334.1590909090909L941.4813333333333,334.1590909090909L942.8720000000001,337.5863634320823L944.9580000000001,334.1590909090909L945.4794999999999,334.1590909090909L946.001,335.8727271705866L948.2608333333334,334.1590909090909L949.6514999999999,335.8727271705866L951.0421666666667,334.1590909090909L951.216,334.1590909090909L951.7375,334.1590909090909L952.0851666666667,330.7318183860995L952.259,332.4454541368918L954.6926666666667,334.1590909090909L955.7356666666667,335.8727271705866L956.0833333333333,335.8727271705866" fill="none"></path></g></g></g></g></g><g><g opacity="0.0291124"><span fill="rgb(0, 0, 0)" stroke="none" stroke-width="1px">Alt + Scroll to Zoom</span></g></g></g><g transform="translate(30, 377)" clip-path="url(#clip_1)"><clipPath id="clip_1"><rect width="1043" height="23"></rect></clipPath><g><g><line x1="0" y1="0" x2="0" y2="5" style="visibility: inherit;" fill="rgb(0, 0, 0)" stroke="rgb(204, 204, 204)" stroke-width="1px"></line><line x1="86.91666666666666" y1="0" x2="86.91666666666666" y2="5" style="visibility: inherit;" fill="rgb(0, 0, 0)" stroke="rgb(204, 204, 204)" stroke-width="1px"></line><line x1="173.83333333333331" y1="0" x2="173.83333333333331" y2="5" style="visibility: inherit;" fill="rgb(0, 0, 0)" stroke="rgb(204, 204, 204)" stroke-width="1px"></line><line x1="260.75" y1="0" x2="260.75" y2="5" style="visibility: inherit;" fill="rgb(0, 0, 0)" stroke="rgb(204, 204, 204)" stroke-width="1px"></line><line x1="347.66666666666663" y1="0" x2="347.66666666666663" y2="5" style="visibility: inherit;" fill="rgb(0, 0, 0)" stroke="rgb(204, 204, 204)" stroke-width="1px"></line><line x1="434.58333333333337" y1="0" x2="434.58333333333337" y2="5" style="visibility: inherit;" fill="rgb(0, 0, 0)" stroke="rgb(204, 204, 204)" stroke-width="1px"></line><line x1="521.5" y1="0" x2="521.5" y2="5" style="visibility: inherit;" fill="rgb(0, 0, 0)" stroke="rgb(204, 204, 204)" stroke-width="1px"></line><line x1="608.4166666666667" y1="0" x2="608.4166666666667" y2="5" style="visibility: inherit;" fill="rgb(0, 0, 0)" stroke="rgb(204, 204, 204)" stroke-width="1px"></line><line x1="695.3333333333333" y1="0" x2="695.3333333333333" y2="5" style="visibility: inherit;" fill="rgb(0, 0, 0)" stroke="rgb(204, 204, 204)" stroke-width="1px"></line><line x1="782.25" y1="0" x2="782.25" y2="5" style="visibility: inherit;" fill="rgb(0, 0, 0)" stroke="rgb(204, 204, 204)" stroke-width="1px"></line><line x1="869.1666666666667" y1="0" x2="869.1666666666667" y2="5" style="visibility: inherit;" fill="rgb(0, 0, 0)" stroke="rgb(204, 204, 204)" stroke-width="1px"></line><line x1="956.0833333333333" y1="0" x2="956.0833333333333" y2="5" style="visibility: inherit;" fill="rgb(0, 0, 0)" stroke="rgb(204, 204, 204)" stroke-width="1px"></line><line x1="1043" y1="0" x2="1043" y2="5" style="visibility: inherit;" fill="rgb(0, 0, 0)" stroke="rgb(204, 204, 204)" stroke-width="1px"></line></g><g transform="translate(0, 8)"><text x="0" y="0" dx="0em" dy="0.95em" style="text-anchor: middle; visibility: hidden; font-family: Roboto, sans-serif; font-size: 12px; font-weight: 200;" fill="rgb(33, 33, 33)" stroke="none" stroke-width="1px">-500</text><text x="86.91666666666666" y="0" dx="0em" dy="0.95em" style="text-anchor: middle; visibility: inherit; font-family: Roboto, sans-serif; font-size: 12px; font-weight: 200;" fill="rgb(33, 33, 33)" stroke="none" stroke-width="1px">0</text><text x="173.83333333333331" y="0" dx="0em" dy="0.95em" style="text-anchor: middle; visibility: inherit; font-family: Roboto, sans-serif; font-size: 12px; font-weight: 200;" fill="rgb(33, 33, 33)" stroke="none" stroke-width="1px">500</text><text x="260.75" y="0" dx="0em" dy="0.95em" style="text-anchor: middle; visibility: inherit; font-family: Roboto, sans-serif; font-size: 12px; font-weight: 200;" fill="rgb(33, 33, 33)" stroke="none" stroke-width="1px">1k</text><text x="347.66666666666663" y="0" dx="0em" dy="0.95em" style="text-anchor: middle; visibility: inherit; font-family: Roboto, sans-serif; font-size: 12px; font-weight: 200;" fill="rgb(33, 33, 33)" stroke="none" stroke-width="1px">1.5k</text><text x="434.58333333333337" y="0" dx="0em" dy="0.95em" style="text-anchor: middle; visibility: inherit; font-family: Roboto, sans-serif; font-size: 12px; font-weight: 200;" fill="rgb(33, 33, 33)" stroke="none" stroke-width="1px">2k</text><text x="521.5" y="0" dx="0em" dy="0.95em" style="text-anchor: middle; visibility: inherit; font-family: Roboto, sans-serif; font-size: 12px; font-weight: 200;" fill="rgb(33, 33, 33)" stroke="none" stroke-width="1px">2.5k</text><text x="608.4166666666667" y="0" dx="0em" dy="0.95em" style="text-anchor: middle; visibility: inherit; font-family: Roboto, sans-serif; font-size: 12px; font-weight: 200;" fill="rgb(33, 33, 33)" stroke="none" stroke-width="1px">3k</text><text x="695.3333333333333" y="0" dx="0em" dy="0.95em" style="text-anchor: middle; visibility: inherit; font-family: Roboto, sans-serif; font-size: 12px; font-weight: 200;" fill="rgb(33, 33, 33)" stroke="none" stroke-width="1px">3.5k</text><text x="782.25" y="0" dx="0em" dy="0.95em" style="text-anchor: middle; visibility: inherit; font-family: Roboto, sans-serif; font-size: 12px; font-weight: 200;" fill="rgb(33, 33, 33)" stroke="none" stroke-width="1px">4k</text><text x="869.1666666666667" y="0" dx="0em" dy="0.95em" style="text-anchor: middle; visibility: inherit; font-family: Roboto, sans-serif; font-size: 12px; font-weight: 200;" fill="rgb(33, 33, 33)" stroke="none" stroke-width="1px">4.5k</text><text x="956.0833333333333" y="0" dx="0em" dy="0.95em" style="text-anchor: middle; visibility: inherit; font-family: Roboto, sans-serif; font-size: 12px; font-weight: 200;" fill="rgb(33, 33, 33)" stroke="none" stroke-width="1px">5k</text><text x="1043" y="0" dx="0em" dy="0.95em" style="text-anchor: middle; visibility: hidden; font-family: Roboto, sans-serif; font-size: 12px; font-weight: 200;" fill="rgb(33, 33, 33)" stroke="none" stroke-width="1px">5.5k</text></g><line x1="0" y1="0" x2="1043" y2="0" fill="rgb(0, 0, 0)" stroke="rgb(204, 204, 204)" stroke-width="1px"></line></g></g></g></g></svg>