<svg viewBox="0 0 330 200" xmlns="http://www.w3.org/2000/svg"><g><g><g><g><g><line x1="40" y1="177" x2="35" y2="177" style="visibility: inherit;" fill="rgb(0, 0, 0)" stroke="rgb(204, 204, 204)" stroke-width="1px"></line><line x1="40" y1="154.875" x2="35" y2="154.875" style="visibility: inherit;" fill="rgb(0, 0, 0)" stroke="rgb(204, 204, 204)" stroke-width="1px"></line><line x1="40" y1="132.75" x2="35" y2="132.75" style="visibility: inherit;" fill="rgb(0, 0, 0)" stroke="rgb(204, 204, 204)" stroke-width="1px"></line><line x1="40" y1="110.625" x2="35" y2="110.625" style="visibility: inherit;" fill="rgb(0, 0, 0)" stroke="rgb(204, 204, 204)" stroke-width="1px"></line><line x1="40" y1="88.5" x2="35" y2="88.5" style="visibility: inherit;" fill="rgb(0, 0, 0)" stroke="rgb(204, 204, 204)" stroke-width="1px"></line><line x1="40" y1="66.375" x2="35" y2="66.375" style="visibility: inherit;" fill="rgb(0, 0, 0)" stroke="rgb(204, 204, 204)" stroke-width="1px"></line><line x1="40" y1="44.25" x2="35" y2="44.25" style="visibility: inherit;" fill="rgb(0, 0, 0)" stroke="rgb(204, 204, 204)" stroke-width="1px"></line><line x1="40" y1="22.125" x2="35" y2="22.125" style="visibility: inherit;" fill="rgb(0, 0, 0)" stroke="rgb(204, 204, 204)" stroke-width="1px"></line><line x1="40" y1="0" x2="35" y2="0" style="visibility: inherit;" fill="rgb(0, 0, 0)" stroke="rgb(204, 204, 204)" stroke-width="1px"></line></g><g transform="translate(30, 0)"><text x="0" y="177" dx="0em" dy="0.3em" style="text-anchor: end; visibility: hidden; font-family: Roboto, sans-serif; font-size: 12px; font-weight: 200;" fill="rgb(33, 33, 33)" stroke="none" stroke-width="1px">0</text><text x="0" y="154.875" dx="0em" dy="0.3em" style="text-anchor: end; visibility: inherit; font-family: Roboto, sans-serif; font-size: 12px; font-weight: 200;" fill="rgb(33, 33, 33)" stroke="none" stroke-width="1px">0.5</text><text x="0" y="132.75" dx="0em" dy="0.3em" style="text-anchor: end; visibility: hidden; font-family: Roboto, sans-serif; font-size: 12px; font-weight: 200;" fill="rgb(33, 33, 33)" stroke="none" stroke-width="1px">1</text><text x="0" y="110.625" dx="0em" dy="0.3em" style="text-anchor: end; visibility: inherit; font-family: Roboto, sans-serif; font-size: 12px; font-weight: 200;" fill="rgb(33, 33, 33)" stroke="none" stroke-width="1px">1.5</text><text x="0" y="88.5" dx="0em" dy="0.3em" style="text-anchor: end; visibility: hidden; font-family: Roboto, sans-serif; font-size: 12px; font-weight: 200;" fill="rgb(33, 33, 33)" stroke="none" stroke-width="1px">2</text><text x="0" y="66.375" dx="0em" dy="0.3em" style="text-anchor: end; visibility: inherit; font-family: Roboto, sans-serif; font-size: 12px; font-weight: 200;" fill="rgb(33, 33, 33)" stroke="none" stroke-width="1px">2.5</text><text x="0" y="44.25" dx="0em" dy="0.3em" style="text-anchor: end; visibility: hidden; font-family: Roboto, sans-serif; font-size: 12px; font-weight: 200;" fill="rgb(33, 33, 33)" stroke="none" stroke-width="1px">3</text><text x="0" y="22.125" dx="0em" dy="0.3em" style="text-anchor: end; visibility: inherit; font-family: Roboto, sans-serif; font-size: 12px; font-weight: 200;" fill="rgb(33, 33, 33)" stroke="none" stroke-width="1px">3.5</text><text x="0" y="0" dx="0em" dy="0.3em" style="text-anchor: end; visibility: hidden; font-family: Roboto, sans-serif; font-size: 12px; font-weight: 200;" fill="rgb(33, 33, 33)" stroke="none" stroke-width="1px">4</text></g><line x1="40" y1="0" x2="40" y2="177" fill="rgb(0, 0, 0)" stroke="rgb(204, 204, 204)" stroke-width="1px"></line></g></g><g transform="translate(40, 0)" clip-path="url(#clip_0)"><clipPath id="clip_0"><rect width="290" height="177"></rect></clipPath><g><g><g><line x1="0" y1="0" x2="0" y2="177" fill="rgb(0, 0, 0)" stroke="rgb(66, 66, 66)" stroke-width="1px" opacity="0.25"></line><line x1="41.42857142857142" y1="0" x2="41.42857142857142" y2="177" fill="rgb(0, 0, 0)" stroke="rgb(66, 66, 66)" stroke-width="1px" opacity="0.25"></line><line x1="82.85714285714285" y1="0" x2="82.85714285714285" y2="177" fill="rgb(0, 0, 0)" stroke="rgb(66, 66, 66)" stroke-width="1px" opacity="0.25"></line><line x1="124.28571428571428" y1="0" x2="124.28571428571428" y2="177" fill="rgb(0, 0, 0)" stroke="rgb(66, 66, 66)" stroke-width="1px" opacity="0.25"></line><line x1="165.7142857142857" y1="0" x2="165.7142857142857" y2="177" fill="rgb(0, 0, 0)" stroke="rgb(66, 66, 66)" stroke-width="1px" opacity="0.25"></line><line x1="207.14285714285714" y1="0" x2="207.14285714285714" y2="177" fill="rgb(0, 0, 0)" stroke="rgb(66, 66, 66)" stroke-width="1px" opacity="0.25"></line><line x1="248.57142857142856" y1="0" x2="248.57142857142856" y2="177" fill="rgb(0, 0, 0)" stroke="rgb(66, 66, 66)" stroke-width="1px" opacity="0.25"></line><line x1="290" y1="0" x2="290" y2="177" fill="rgb(0, 0, 0)" stroke="rgb(66, 66, 66)" stroke-width="1px" opacity="0.25"></line></g><g><line x1="0" y1="177" x2="290" y2="177" fill="rgb(0, 0, 0)" stroke="rgb(66, 66, 66)" stroke-width="1px" opacity="0.25"></line><line x1="0" y1="154.875" x2="290" y2="154.875" fill="rgb(0, 0, 0)" stroke="rgb(66, 66, 66)" stroke-width="1px" opacity="0.25"></line><line x1="0" y1="132.75" x2="290" y2="132.75" fill="rgb(0, 0, 0)" stroke="rgb(66, 66, 66)" stroke-width="1px" opacity="0.25"></line><line x1="0" y1="110.625" x2="290" y2="110.625" fill="rgb(0, 0, 0)" stroke="rgb(66, 66, 66)" stroke-width="1px" opacity="0.25"></line><line x1="0" y1="88.5" x2="290" y2="88.5" fill="rgb(0, 0, 0)" stroke="rgb(66, 66, 66)" stroke-width="1px" opacity="0.25"></line><line x1="0" y1="66.375" x2="290" y2="66.375" fill="rgb(0, 0, 0)" stroke="rgb(66, 66, 66)" stroke-width="1px" opacity="0.25"></line><line x1="0" y1="44.25" x2="290" y2="44.25" fill="rgb(0, 0, 0)" stroke="rgb(66, 66, 66)" stroke-width="1px" opacity="0.25"></line><line x1="0" y1="22.125" x2="290" y2="22.125" fill="rgb(0, 0, 0)" stroke="rgb(66, 66, 66)" stroke-width="1px" opacity="0.25"></line><line x1="0" y1="0" x2="290" y2="0" fill="rgb(0, 0, 0)" stroke="rgb(66, 66, 66)" stroke-width="1px" opacity="0.25"></line></g></g></g><g><g><line x1="0" y1="177" x2="290" y2="177" fill="rgb(0, 0, 0)" stroke="rgb(153, 153, 153)" stroke-width="1.5px"></line></g></g><g><g><line x1="0" y1="0" x2="0" y2="177" fill="rgb(0, 0, 0)" stroke="rgb(153, 153, 153)" stroke-width="1.5px"></line></g></g><g><g><g><g><g><path stroke="rgb(204, 51, 17)" stroke-width="2px" d="M8.285714285714285,25.66499662399292L8.285714285714285,27.280516155773885L8.285714285714285,27.18097575396339L8.285714285714285,26.99460871136951L8.285714285714285,26.936959198256588L8.285714285714285,26.936092647828897L8.285714285714285,27.018246912127132L8.285714285714285,27.12988209863206L8.285714285714285,27.19868893590538L8.285714285714285,27.339409022922233L8.285714285714285,27.37097052543204L8.285714285714285,27.456632933821247L8.285714285714285,27.564825254365932L8.285714285714285,27.671833609425622L8.285714285714285,27.772923309060438L8.285714285714285,27.89890455780838L8.285714285714285,28.097635270063684L8.285714285714285,28.377329070204453L8.285714285714285,28.665709235549077L8.285714285714285,28.98899945725628L8.285714285714285,29.46185702067853L8.285714285714285,29.933577645856673L8.285714285714285,30.37124493476424L8.285714285714285,30.75524060046859L8.285714285714285,31.122089002523808L8.285714285714285,31.574600686231584L8.285714285714285,32.23878452167534L8.285714285714285,32.86965274740306L8.285714285714285,33.56883078351553L8.285714285714285,34.227835698460716L8.285714285714285,34.81670546272681L8.285714285714285,35.3970521087902L16.57142857142857,42.46927994585167L16.57142857142857,47.58257362930482L16.57142857142857,51.91815422562121L16.57142857142857,55.582687634497155L16.57142857142857,59.068980409239714L16.57142857142857,61.78002878668314L16.57142857142857,64.07467000360894L16.57142857142857,66.10352779486055L16.57142857142857,67.77989187547502L16.57142857142857,69.5939264424467L16.57142857142857,71.19509752196487L16.57142857142857,72.54264437394141L16.57142857142857,73.73823351996056L16.57142857142857,74.65490414035048L16.57142857142857,75.42068189513876L16.57142857142857,76.20432141809837L16.57142857142857,76.92249771983352L16.57142857142857,77.59936205596932L16.57142857142857,78.27877839423053L16.57142857142857,79.10745154349104L16.57142857142857,79.88719170547716L16.57142857142857,80.61937268349136L16.57142857142857,81.30590711703641L16.57142857142857,82.072065485259L16.57142857142857,82.90517479321208L16.57142857142857,83.67688871192821L16.57142857142857,84.4710101469967L16.57142857142857,85.16942887792084L16.57142857142857,85.86540412044968L16.57142857142857,86.49068229160665L16.57142857142857,87.07802845690341L16.57142857142857,87.63418772662283L16.57142857142857,88.17189126303768L16.57142857142857,88.66881171888126L16.57142857142857,89.28202533781474L24.857142857142858,94.25120418949211L24.857142857142858,98.51598453461648L24.857142857142858,101.92399025617242L24.857142857142858,104.57011539262507L24.857142857142858,106.45149224746298L24.857142857142858,107.86150193684517L24.857142857142858,109.04619912839323L24.857142857142858,110.05216372346999L24.857142857142858,110.97950341966266L24.857142857142858,111.73331317313138L24.857142857142858,112.32814747186936L24.857142857142858,112.87846912147448L24.857142857142858,113.35570673983969L24.857142857142858,113.95224251038904L24.857142857142858,114.56734746012344L24.857142857142858,115.10134603293811L24.857142857142858,115.56530996699415L24.857142857142858,116.01238657170133L24.857142857142858,116.400842267539L24.857142857142858,116.7277779689039L24.857142857142858,117.0632567041749L24.857142857142858,117.40811947529158L24.857142857142858,117.72376188805079L24.857142857142858,118.03838632502644L24.857142857142858,118.32491922583178L24.857142857142858,118.64975700404472L24.857142857142858,118.92649395770454L24.857142857142858,119.27980544427591L24.857142857142858,119.68410916999488L24.857142857142858,120.02002860947741L33.14285714285714,122.93229314306379L33.14285714285714,125.0033615972523L33.14285714285714,126.52188994557541L33.14285714285714,127.65506690376417L33.14285714285714,128.3517268164156L33.14285714285714,128.80603311168045L33.14285714285714,129.24266749121045L33.14285714285714,129.68774599375794L33.14285714285714,129.9975325266469L33.14285714285714,130.23167735334846L33.14285714285714,130.3991350139126L33.14285714285714,130.4960476569656L33.14285714285714,130.55667242520846L33.14285714285714,130.64560483204016L33.14285714285714,130.8296285677248L33.14285714285714,130.9889645028954L33.14285714285714,131.05681041471962L33.14285714285714,131.1641861672936L33.14285714285714,131.26799248391697L33.14285714285714,131.3909702338371L33.14285714285714,131.5067437463212L33.14285714285714,131.62834976362444L33.14285714285714,131.74855484035794L33.14285714285714,131.8619134950716L33.14285714285714,131.98629133887525L33.14285714285714,132.08388269701143L33.14285714285714,132.2225101646004L33.14285714285714,132.3562978634419L33.14285714285714,132.48097608604274L33.14285714285714,132.52775208695763L33.14285714285714,132.61161140497185L33.14285714285714,132.7135580078456L33.14285714285714,132.8204898341355L41.42857142857142,133.68194008262995L41.42857142857142,134.670527072695L41.42857142857142,135.178632148262L41.42857142857142,135.52680670776127L41.42857142857142,136.11184699170585L41.42857142857142,136.50112189120148L41.42857142857142,136.7722765745607L41.42857142857142,136.9925231044631L41.42857142857142,137.15519871830654L41.42857142857142,137.23539586108765L41.42857142857142,137.27294072913236L41.42857142857142,137.28000816885185L41.42857142857142,137.30697092913303L41.42857142857142,137.32978788668456L41.42857142857142,137.35571300373346L41.42857142857142,137.40671204795996L41.42857142857142,137.45997877929838L41.42857142857142,137.49331210085964L41.42857142857142,137.51950524836283L41.42857142857142,137.5598859561671L41.42857142857142,137.64909440917387L41.42857142857142,137.7200937701105L41.42857142857142,137.78721878909843L41.42857142857142,137.80617705137814L41.42857142857142,137.82034317694524L41.42857142857142,137.84051903608878L41.42857142857142,137.86959219862172L41.42857142857142,137.884817208802L41.42857142857142,137.91311351337964L41.42857142857142,137.95168963489272L49.714285714285715,137.43971495447315L49.714285714285715,137.46909125235845L49.714285714285715,137.96534440065562L49.714285714285715,138.38121182130067L49.714285714285715,138.78988609014388L49.714285714285715,139.26517041219495L49.714285714285715,139.69224496929343L49.714285714285715,139.99962368386605L49.714285714285715,140.17348002674228L49.714285714285715,140.34712923108916L49.714285714285715,140.45274839429214L49.714285714285715,140.49752337545652L49.714285714285715,140.53408062165784L49.714285714285715,140.58150002573902L49.714285714285715,140.67852261610204L49.714285714285715,140.78327694959316L49.714285714285715,140.83220982024505L49.714285714285715,140.8812972778925L49.714285714285715,140.94700532513468L49.714285714285715,141.00992709305166L49.714285714285715,141.0784015842818L49.714285714285715,141.14165795550474L49.714285714285715,141.2135537747335L49.714285714285715,141.272063300619L49.714285714285715,141.29994512581223L49.714285714285715,141.30279687150812L49.714285714285715,141.3082230536559L49.714285714285715,141.31832002590687L49.714285714285715,141.3392578598898L49.714285714285715,141.3528377361439L49.714285714285715,141.37836496625332L49.714285714285715,141.3963850196925L58,141.07965672804076L58,140.69022070686765L58,140.26242985355879L58,140.0341903590272L58,139.83543880295773L58,139.60839604881457L58,139.81112099764673L58,140.11208970815125L58,140.34112370029138L58,140.5561027826749L58,140.71546803264994L58,140.8805012027068L58,140.9925295222492L58,141.10082293223783L58,141.18105647319655L58,141.257648177337L58,141.32559596718914L58,141.3946850297634L58,141.45326738062317L58,141.47606659897286L58,141.49323441039022L58,141.55458052131755L58,141.6156385938817L58,141.6679547174048L58,141.68876835748887L58,141.680504943099L58,141.67154970114458L58,141.67442461647397L58,141.67921287270633L66.28571428571428,141.76610287323635L66.28571428571428,141.80114676891432L66.28571428571428,141.92218600748495L66.28571428571428,141.96676778014503L66.28571428571428,142.1710604757433L66.28571428571428,142.05252365062285L66.28571428571428,142.03966454329196L66.28571428571428,141.99664557797277L66.28571428571428,142.0239289930899L66.28571428571428,142.02676726825274L66.28571428571428,142.17427018217018L66.28571428571428,142.20522480447215L66.28571428571428,142.20787636733115L66.28571428571428,142.16834021829996L66.28571428571428,142.13539947490636L66.28571428571428,142.11912015128456L66.28571428571428,142.1169178168365L66.28571428571428,142.1351512566887L66.28571428571428,142.1813421784241L66.28571428571428,142.24279291878287L66.28571428571428,142.28983014485198L66.28571428571428,142.34667191385927L66.28571428571428,142.41876488427536L66.28571428571428,142.47622091417176L66.28571428571428,142.54396796824068L66.28571428571428,142.6059111092384L66.28571428571428,142.63561297656824L66.28571428571428,142.66114850584074L66.28571428571428,142.67972073526963L66.28571428571428,142.7063844137942L66.28571428571428,142.72143416560363L66.28571428571428,142.73692036232723L66.28571428571428,142.7597293181391L66.28571428571428,142.7942829119611L66.28571428571428,142.808935026571L74.57142857142857,142.2850660719766L74.57142857142857,142.1425235981976L74.57142857142857,141.98983029229166L74.57142857142857,142.01551826533327L74.57142857142857,141.9751846130311L74.57142857142857,142.00492720110432L74.57142857142857,142.06710761677047L74.57142857142857,142.19415398757445L74.57142857142857,142.37419750474447L74.57142857142857,142.49621721890034L74.57142857142857,142.61443870216317L74.57142857142857,142.77122409896185L74.57142857142857,142.85059241227174L74.57142857142857,142.93844591971452L74.57142857142857,143.02165037458985L74.57142857142857,143.09009614580953L74.57142857142857,143.1449146291767L74.57142857142857,143.2208397499501L74.57142857142857,143.30424320993023L74.57142857142857,143.38868699346773L74.57142857142857,143.44560608126437L74.57142857142857,143.4862798416402L74.57142857142857,143.55122695114028L74.57142857142857,143.59827349818343L74.57142857142857,143.6589476817067L74.57142857142857,143.7241994532666L74.57142857142857,143.77278745906744L74.57142857142857,143.82751749611006L74.57142857142857,143.86282760283896L74.57142857142857,143.89728514524606L82.85714285714285,144.2360411705449L82.85714285714285,144.42598328268247L82.85714285714285,144.61524278078093L82.85714285714285,144.69479966920784L82.85714285714285,144.7601704851033L82.85714285714285,144.86819714096654L82.85714285714285,144.89576677945718L82.85714285714285,144.8864701288442L82.85714285714285,144.9528082956739L82.85714285714285,144.88395412147543L82.85714285714285,144.87713806512969L82.85714285714285,144.9027181872111L82.85714285714285,144.92973960524907L82.85714285714285,144.9510704434697L82.85714285714285,144.98265303979898L82.85714285714285,145.03496103460958L82.85714285714285,145.07653526743704L82.85714285714285,145.1156009023307L82.85714285714285,145.12851313981847L82.85714285714285,145.1424985827235L82.85714285714285,145.1727031785274L82.85714285714285,145.15599067864542L82.85714285714285,145.15805237687493L82.85714285714285,145.17621781569463L82.85714285714285,145.20312175907424L82.85714285714285,145.2299380637166L82.85714285714285,145.23471971189267L82.85714285714285,145.24859452960365L82.85714285714285,145.25521687151746L82.85714285714285,145.25058528245748L82.85714285714285,145.25332764484813L82.85714285714285,145.23189369060935L91.14285714285714,145.8608275802375L91.14285714285714,146.1634732864832L91.14285714285714,146.24272099292764L91.14285714285714,146.26042460776208L91.14285714285714,146.18391269940392L91.14285714285714,146.25658158223519L91.14285714285714,146.19730419491032L91.14285714285714,146.0570327752277L91.14285714285714,146.02890067455905L91.14285714285714,145.98039285381412L91.14285714285714,145.89369853538227L91.14285714285714,145.80994675860373L91.14285714285714,145.72305503124588L91.14285714285714,145.68046848955106L91.14285714285714,145.69288473083287L91.14285714285714,145.68201402503792L91.14285714285714,145.61546373579844L91.14285714285714,145.6101636129677L91.14285714285714,145.62628331002685L91.14285714285714,145.64148136769205L91.14285714285714,145.66844598026313L91.14285714285714,145.69137377851845L91.14285714285714,145.71464946769845L91.14285714285714,145.74868024723816L91.14285714285714,145.75441297507612L91.14285714285714,145.76299224721487L91.14285714285714,145.75535345814228L91.14285714285714,145.7246816541595L91.14285714285714,145.70311542291836L99.42857142857143,145.2198481197294L99.42857142857143,145.2336802708117L99.42857142857143,145.35995091161996L99.42857142857143,145.5020306103864L99.42857142857143,145.58901537993643L99.42857142857143,145.71167760835027L99.42857142857143,145.78218239631445L99.42857142857143,145.89309122270745L99.42857142857143,145.95409032630045L99.42857142857143,145.98023964808007L99.42857142857143,146.01348314165327L99.42857142857143,146.03152007331826L99.42857142857143,146.05646862440003L99.42857142857143,146.06290443138857L99.42857142857143,146.09911923067395L99.42857142857143,146.082123307753L99.42857142857143,146.07380679772933L99.42857142857143,145.968083522832L99.42857142857143,145.88880158315902L99.42857142857143,145.79281574523603L99.42857142857143,145.7241449132435L99.42857142857143,145.68511456651777L99.42857142857143,145.6338654968657L99.42857142857143,145.59199547831506L99.42857142857143,145.5523794304471L99.42857142857143,145.51533488701176L99.42857142857143,145.5020865564456L99.42857142857143,145.49768448836878L99.42857142857143,145.4974303083505L99.42857142857143,145.50095486068975L99.42857142857143,145.50054827135762L99.42857142857143,145.51029810582972L99.42857142857143,145.52135568108022L99.42857142857143,145.53525596008333L99.42857142857143,145.5620081639008L99.42857142857143,145.4939495775982L107.71428571428572,145.5288282425478L107.71428571428572,145.83434642376304L107.71428571428572,145.9981672829381L107.71428571428572,145.98402838068122L107.71428571428572,146.02223766846615L107.71428571428572,146.0804104779152L107.71428571428572,146.12694684288527L107.71428571428572,146.17346491317537L107.71428571428572,146.17810874538264L107.71428571428572,146.15351573205047L107.71428571428572,146.1221001628515L107.71428571428572,146.11440184664806L107.71428571428572,146.08412235098993L107.71428571428572,146.0366203353434L107.71428571428572,145.98806373333124L107.71428571428572,145.9758738296435L107.71428571428572,145.96057432914333L107.71428571428572,145.9563769105871L107.71428571428572,145.92709385630596L107.71428571428572,145.901655452864L107.71428571428572,145.8833745995807L107.71428571428572,145.87124885160966L107.71428571428572,145.8350127063051L107.71428571428572,145.78652304297256L107.71428571428572,145.73755042857758L107.71428571428572,145.70122062812194L107.71428571428572,145.67943821321833L107.71428571428572,145.66358263297968L107.71428571428572,145.65328246414745L107.71428571428572,145.6782064704025L107.71428571428572,145.67894042436748L107.71428571428572,145.69862007081574L107.71428571428572,145.7263358747511L107.71428571428572,145.73485542313838L107.71428571428572,145.68771445009477L116,145.898355329725L116,146.11948629347356L116,146.39256306548702L116,146.50244488185663L116,146.6666130096874L116,146.80684458999679L116,146.7664179046005L116,146.65083354049966L116,146.61210781733232L116,146.6130045876476L116,146.60253135455213L116,146.6360689914296L116,146.7187037693362L116,146.77557207265556L116,146.81926816956354L116,146.87588917551324L116,146.92431760969188L116,146.9860317027643L116,147.01676369930348L116,147.0496325511481L116,147.09023095806097L116,147.0997071584777L116,147.0983170297741L116,147.08874520670676L116,147.09071870420388L116,147.07285887684753L116,147.06192442590802L116,147.05871878247012L116,147.07018567355925L116,147.08166192793385L116,147.0901941015484L124.28571428571428,146.66871911994957L124.28571428571428,146.77695305993552L124.28571428571428,146.71352465627933L124.28571428571428,146.70959095139102L124.28571428571428,146.71045491889646L124.28571428571428,146.79908959034617L124.28571428571428,146.81468050956272L124.28571428571428,146.9086117589523L124.28571428571428,146.93278121575906L124.28571428571428,146.91491317124436L124.28571428571428,147.05786328165794L124.28571428571428,147.2043052512084L124.28571428571428,147.27675922830892L124.28571428571428,147.3425743686741L124.28571428571428,147.41738065150497L124.28571428571428,147.48890257130105L124.28571428571428,147.55849729245185L124.28571428571428,147.60161159128205L124.28571428571428,147.6429300522433L124.28571428571428,147.66256666587955L124.28571428571428,147.6559302981704L124.28571428571428,147.64186147894813L124.28571428571428,147.64208847289188L124.28571428571428,147.65821700673493L124.28571428571428,147.67506145304975L124.28571428571428,147.69943974898757L124.28571428571428,147.7511326633278L124.28571428571428,147.8080912505711L124.28571428571428,147.8398332170863L124.28571428571428,147.8629694478294L124.28571428571428,147.8679311316734L124.28571428571428,147.8629233315953L124.28571428571428,147.86254072170482L124.28571428571428,147.83471002712062L124.28571428571428,147.817906596246L124.28571428571428,147.81760406477343L124.28571428571428,147.82590196619202L124.28571428571428,147.8361939221779L124.28571428571428,147.8251444722474L124.28571428571428,147.82425678769954L132.57142857142856,147.5493605099187L132.57142857142856,147.3923126503016L132.57142857142856,147.38881813814956L132.57142857142856,147.60128450399665L132.57142857142856,147.73525872530084L132.57142857142856,147.8802975347962L132.57142857142856,147.96065712078297L132.57142857142856,148.01941936001407L132.57142857142856,148.07831288533185L132.57142857142856,148.0506325619176L132.57142857142856,148.0601742045717L132.57142857142856,148.08298833110507L132.57142857142856,148.12399465929215L132.57142857142856,148.12667315950327L132.57142857142856,148.13317149009802L132.57142857142856,148.14691812697802L132.57142857142856,148.13377039142972L132.57142857142856,148.15589415583432L132.57142857142856,148.17943932349706L132.57142857142856,148.15060806076352L132.57142857142856,148.15567589068286L132.57142857142856,148.1557760167191L132.57142857142856,148.14415633229774L132.57142857142856,148.13158131410597L132.57142857142856,148.12615596162524L132.57142857142856,148.1183547213143L132.57142857142856,148.1220985998812L132.57142857142856,148.12983629263218L132.57142857142856,148.11609866390674L132.57142857142856,148.09679138960487L132.57142857142856,148.05667784359497L140.85714285714286,147.96187709525694L140.85714285714286,148.11269407871734L140.85714285714286,148.32867134142654L140.85714285714286,148.49020906387904L140.85714285714286,148.50397041581226L140.85714285714286,148.52668316579403L140.85714285714286,148.47328900717352L140.85714285714286,148.48893450591225L140.85714285714286,148.4406017382058L140.85714285714286,148.43885461838462L140.85714285714286,148.42223745386914L140.85714285714286,148.38316519862653L140.85714285714286,148.32784028417964L140.85714285714286,148.27120672663574L140.85714285714286,148.2351192930827L140.85714285714286,148.1740634713983L140.85714285714286,148.11814253882417L140.85714285714286,148.1502468858456L140.85714285714286,148.15004824152535L140.85714285714286,148.15241266141197L140.85714285714286,148.15386473179802L140.85714285714286,148.17255548275344L140.85714285714286,148.16400492961242L140.85714285714286,148.14641786195438L140.85714285714286,148.12115203435653L140.85714285714286,148.1151333422647L140.85714285714286,148.1191263232731L140.85714285714286,148.14038575257655L140.85714285714286,148.15344297152802L140.85714285714286,148.19016227408568L140.85714285714286,148.21956108939244L140.85714285714286,148.24158895138888L140.85714285714286,148.26713811988L140.85714285714286,148.30845475418047L140.85714285714286,148.33901960162495L149.14285714285714,148.08201491519964L149.14285714285714,147.9800816456668L149.14285714285714,148.3206236790801L149.14285714285714,148.5286330813102L149.14285714285714,148.58908268744258L149.14285714285714,148.6630180947054L149.14285714285714,148.76459685770845L149.14285714285714,148.77900441711702L149.14285714285714,148.7331277446632L149.14285714285714,148.6731168877744L149.14285714285714,148.64170000720546L149.14285714285714,148.67804747846424L149.14285714285714,148.70782167745236L149.14285714285714,148.73679928456795L149.14285714285714,148.7487829698097L149.14285714285714,148.78830040544744L149.14285714285714,148.84581851567833L149.14285714285714,148.9072729213568L149.14285714285714,148.94983213893968L149.14285714285714,148.98483036109366L149.14285714285714,149.0387266117122L149.14285714285714,149.08237106567154L149.14285714285714,149.1076939937874L149.14285714285714,149.1031537596102L149.14285714285714,149.08432393405516L149.14285714285714,149.0807469983713L149.14285714285714,149.10515967434756L149.14285714285714,149.14441792748732L149.14285714285714,149.1803187869839L149.14285714285714,149.18811570914264L149.14285714285714,149.20010729455146L149.14285714285714,149.22487567390863L149.14285714285714,149.24931908026315L157.42857142857142,148.70648232984897L157.42857142857142,148.18536828377776L157.42857142857142,148.01309513870333L157.42857142857142,148.06524393092653L157.42857142857142,148.2555616864233L157.42857142857142,148.39209442917584L157.42857142857142,148.51654456264092L157.42857142857142,148.5640224254812L157.42857142857142,148.65660761535403L157.42857142857142,148.6569205603391L157.42857142857142,148.6892896631148L157.42857142857142,148.72612349541052L157.42857142857142,148.7314535743778L157.42857142857142,148.73153228208812L157.42857142857142,148.76077387288194L157.42857142857142,148.8151451378107L157.42857142857142,148.87412052304717L157.42857142857142,148.94213738717866L157.42857142857142,148.99269806175639L157.42857142857142,149.03842104135845L157.42857142857142,149.08432728393024L157.42857142857142,149.1071996052602L157.42857142857142,149.12628043816812L157.42857142857142,149.14578509793307L157.42857142857142,149.1336943359784L157.42857142857142,149.14229612864688L157.42857142857142,149.18407675690133L157.42857142857142,149.22395318020094L157.42857142857142,149.25441725919978L157.42857142857142,149.28249350327118L157.42857142857142,149.31620425889204L157.42857142857142,149.29524657575004L165.7142857142857,149.6939215403311L165.7142857142857,150.05751643455613L165.7142857142857,150.06560124620867L165.7142857142857,150.25541820625762L165.7142857142857,150.28555527191088L165.7142857142857,150.35874409808343L165.7142857142857,150.3760378067565L165.7142857142857,150.40971723712173L165.7142857142857,150.4618556189444L165.7142857142857,150.42941701026695L165.7142857142857,150.3927490804224L165.7142857142857,150.3327864336523L165.7142857142857,150.27178639916053L165.7142857142857,150.25416143256768L165.7142857142857,150.24340383178307L165.7142857142857,150.202513879077L165.7142857142857,150.18571393121667L165.7142857142857,150.13371645588504L165.7142857142857,150.10986394025045L165.7142857142857,150.06785746467492L165.7142857142857,150.0172090553834L165.7142857142857,149.96311319578354L165.7142857142857,149.94085061996802L165.7142857142857,149.93250251060294L165.7142857142857,149.93452320000938L165.7142857142857,149.93254706963464L165.7142857142857,149.9262499372019L165.7142857142857,149.91844761923647L165.7142857142857,149.9166167614901L165.7142857142857,149.91654952236982L165.7142857142857,149.91770149360931L165.7142857142857,149.92698453817664L165.7142857142857,149.9394398011097L165.7142857142857,149.95122316722856L165.7142857142857,149.957144910602L165.7142857142857,149.95887174390722L165.7142857142857,149.9547069190122L174,149.7131930111088L174,150.01847165907253L174,150.44814263119673L174,150.6087224899956L174,150.71947433296634L174,150.62526187687195L174,150.47234685060852L174,150.41381795459108L174,150.33750279475845L174,150.27369808452215L174,150.25898919521327L174,150.2214633171307L174,150.18883435692825L174,150.2014262032174L174,150.26271487597148L174,150.32810167159747L174,150.36225458580896L174,150.3739815436828L174,150.34761791051625L174,150.3182573281503L174,150.31538523467088L174,150.33071044430608L174,150.34771480607134L174,150.36521940227547L174,150.40025958178478L174,150.41757320261797L174,150.43574715169063L174,150.4392673446375L174,150.4210425417969L174,150.41617200773618L174,150.3982960686659L174,150.38341464385368L174,150.38423169662147L182.28571428571428,150.36091085198245L182.28571428571428,150.4153774039478L182.28571428571428,150.4910381718395L182.28571428571428,150.55052407765785L182.28571428571428,150.48765930352462L182.28571428571428,150.4421801035488L182.28571428571428,150.42542151052834L182.28571428571428,150.4172837099197L182.28571428571428,150.4244901084755L182.28571428571428,150.46565713721736L182.28571428571428,150.54879060868302L182.28571428571428,150.62778485235435L182.28571428571428,150.6680310927967L182.28571428571428,150.7071899057919L182.28571428571428,150.7603936854914L182.28571428571428,150.817288003517L182.28571428571428,150.89215343426272L182.28571428571428,150.94677857459732L182.28571428571428,150.97862077907288L182.28571428571428,150.9601909186705L182.28571428571428,150.95931970987687L182.28571428571428,150.9493731634589L182.28571428571428,150.92133559220127L182.28571428571428,150.91005975396055L182.28571428571428,150.92080547280742L182.28571428571428,150.94234060744276L182.28571428571428,150.96828422227375L182.28571428571428,150.9947050858437L182.28571428571428,151.0168957547765L182.28571428571428,151.03972583150613L182.28571428571428,151.06150709368507L182.28571428571428,151.0180134477081L190.57142857142858,150.88449039267525L190.57142857142858,151.15512232734153L190.57142857142858,151.26687913108174L190.57142857142858,151.49945827426146L190.57142857142858,151.7364527263495L190.57142857142858,151.82495802397773L190.57142857142858,151.94472092235284L190.57142857142858,151.91205193479044L190.57142857142858,151.8589252359174L190.57142857142858,151.78656913606886L190.57142857142858,151.7186413845393L190.57142857142858,151.66650807719952L190.57142857142858,151.6029872736109L190.57142857142858,151.56171439525008L190.57142857142858,151.5526045823415L190.57142857142858,151.56454418600924L190.57142857142858,151.5745184180091L190.57142857142858,151.58640098871126L190.57142857142858,151.57010043085023L190.57142857142858,151.540994238869L190.57142857142858,151.51044277422406L190.57142857142858,151.48087988606892L190.57142857142858,151.4631004512239L190.57142857142858,151.46512356600527L190.57142857142858,151.47331405264265L190.57142857142858,151.47926259722155L190.57142857142858,151.46931453250784L190.57142857142858,151.47067703372053L190.57142857142858,151.46558184264657L190.57142857142858,151.45289242128962L190.57142857142858,151.45328318585362L190.57142857142858,151.45215658887807L190.57142857142858,151.42179825114283L198.85714285714286,150.70850594250783L198.85714285714286,150.54781721626264L198.85714285714286,150.58060055980775L198.85714285714286,150.56320641198553L198.85714285714286,150.60246220935755L198.85714285714286,150.66677872497002L198.85714285714286,150.77543168394857L198.85714285714286,150.83724611843832L198.85714285714286,150.84575666977904L198.85714285714286,150.87664777849554L198.85714285714286,150.94745326778067L198.85714285714286,150.9290709910224L198.85714285714286,150.92178677190094L198.85714285714286,150.91433433402645L198.85714285714286,150.94096554943846L198.85714285714286,150.99249628573241L198.85714285714286,151.05108193338768L198.85714285714286,151.09771092513188L198.85714285714286,151.1450635619618L198.85714285714286,151.18148556753755L198.85714285714286,151.19830941477701L198.85714285714286,151.20048529471876L198.85714285714286,151.2068233926459L198.85714285714286,151.1917035312296L198.85714285714286,151.18053716744217L198.85714285714286,151.16753802964487L198.85714285714286,151.14791322596727L198.85714285714286,151.14701648939587L198.85714285714286,151.14994775072108L198.85714285714286,151.1729217041629L198.85714285714286,151.19054877742929L198.85714285714286,151.22032614918606L198.85714285714286,151.2168450038697L198.85714285714286,151.2337878128134L207.14285714285714,151.10872205240753L207.14285714285714,150.95421481470615L207.14285714285714,151.1587682844826L207.14285714285714,151.303944304746L207.14285714285714,151.3180634332316L207.14285714285714,151.31426781819965L207.14285714285714,151.3123934305186L207.14285714285714,151.31917938642357L207.14285714285714,151.3547835833346L207.14285714285714,151.3479297997848L207.14285714285714,151.338287480836L207.14285714285714,151.3450170011949L207.14285714285714,151.3673533341913L207.14285714285714,151.37925404074753L207.14285714285714,151.3943357758076L207.14285714285714,151.41509229443375L207.14285714285714,151.39858849775726L207.14285714285714,151.37009408552694L207.14285714285714,151.3618631610659L207.14285714285714,151.3685623051066L207.14285714285714,151.3701090510714L207.14285714285714,151.36362295913787L207.14285714285714,151.36617148316176L207.14285714285714,151.39705395378067L207.14285714285714,151.41681139612274L207.14285714285714,151.40316179896783L207.14285714285714,151.410480342801L207.14285714285714,151.4157729659122L207.14285714285714,151.4087192559016L207.14285714285714,151.40788858073557L207.14285714285714,151.4199418721002L207.14285714285714,151.44082187429007L215.42857142857144,152.029919362919L215.42857142857144,152.43175810413354L215.42857142857144,152.69248221407935L215.42857142857144,152.84257438120966L215.42857142857144,152.88608063414003L215.42857142857144,152.90047868206295L215.42857142857144,152.88902406132704L215.42857142857144,152.8661896535265L215.42857142857144,152.8832056664602L215.42857142857144,152.85459474280097L215.42857142857144,152.82944421332206L215.42857142857144,152.83936050218767L215.42857142857144,152.75403360606103L215.42857142857144,152.62169014705114L215.42857142857144,152.4935085711782L215.42857142857144,152.37589344455722L215.42857142857144,152.2601143511997L215.42857142857144,152.18069293147607L215.42857142857144,152.1306162608748L215.42857142857144,152.0900668425275L215.42857142857144,151.9907848001722L215.42857142857144,151.8823616784549L215.42857142857144,151.8126323875236L215.42857142857144,151.78624862956056L215.42857142857144,151.7688956588742L215.42857142857144,151.74566408124252L215.42857142857144,151.71210364995295L215.42857142857144,151.7100039119861L215.42857142857144,151.69224696149845L215.42857142857144,151.68401277036654L215.42857142857144,151.66895903050207L215.42857142857144,151.67183264277054L215.42857142857144,151.6558532041341L215.42857142857144,151.64677116669105L215.42857142857144,151.6305330718344L215.42857142857144,151.5619085595075L223.71428571428572,151.63559809936015L223.71428571428572,151.52473567609027L223.71428571428572,151.46617606717922L223.71428571428572,151.40065859535585L223.71428571428572,151.4967990777222L223.71428571428572,151.54077535563505L223.71428571428572,151.61170631887444L223.71428571428572,151.696923103071L223.71428571428572,151.7036003068397L223.71428571428572,151.7140933716514L223.71428571428572,151.7451659162488L223.71428571428572,151.75205935674347L223.71428571428572,151.75801558747875L223.71428571428572,151.7906992426724L223.71428571428572,151.83203246101556L223.71428571428572,151.86960456377594L223.71428571428572,151.90970088241065L223.71428571428572,151.96404838757482L223.71428571428572,152.00070887942277L223.71428571428572,152.04339757267923L223.71428571428572,152.09171800649992L223.71428571428572,152.11400431217385L223.71428571428572,152.13854548645705L223.71428571428572,152.1512328254576L223.71428571428572,152.15739812815676L223.71428571428572,152.15963604795894L223.71428571428572,152.1573863598179L223.71428571428572,152.17197763837584L223.71428571428572,152.1717069240576L223.71428571428572,152.18221444506455L223.71428571428572,152.18826863343628L223.71428571428572,152.1833186706887L223.71428571428572,152.17445390469058L223.71428571428572,152.1764132379771L223.71428571428572,152.17384497972412L232,152.20710446224132L232,152.29586983626083L232,152.25865900564654L232,152.15937692079436L232,152.0756553224929L232,152.0656219223035L232,152.06549932321073L232,151.94627250594797L232,151.8536530271646L232,151.79101477310198L232,151.72384692417174L232,151.7005938828687L232,151.67914950101547L232,151.6671556150911L232,151.64533598329584L232,151.62464327247727L232,151.6394465874159L232,151.6505934835647L232,151.66663788800977L232,151.69533230460974L232,151.70415161607923L232,151.72423616595935L232,151.7112700130348L232,151.70576902795938L232,151.70512449569543L232,151.7167713744815L232,151.73614339716656L232,151.78898448847363L232,151.86429554899811L232,151.93160670053214L232,151.98808481433582L232,152.03717046930748L232,152.07424141343068L232,152.10368612297725L232,152.07503468720543L240.2857142857143,152.06559171618628L240.2857142857143,152.0506121269686L240.2857142857143,152.1795607449584L240.2857142857143,152.19282803253387L240.2857142857143,152.18926524580507L240.2857142857143,152.21095633648957L240.2857142857143,152.2210597788222L240.2857142857143,152.29949221658012L240.2857142857143,152.33669262364427L240.2857142857143,152.40711157053605L240.2857142857143,152.43150129184136L240.2857142857143,152.44407393528573L240.2857142857143,152.42785586994532L240.2857142857143,152.35421909318842L240.2857142857143,152.29363315624136L240.2857142857143,152.2620021322476L240.2857142857143,152.28835124912734L240.2857142857143,152.32010610532348L240.2857142857143,152.32915306100332L240.2857142857143,152.34940902697386L240.2857142857143,152.35121816100605L240.2857142857143,152.37454910342942L240.2857142857143,152.3855596677967L240.2857142857143,152.38751122788298L240.2857142857143,152.39204067840762L240.2857142857143,152.40638161540036L240.2857142857143,152.43663500639323L240.2857142857143,152.47581054946852L240.2857142857143,152.50552797379936L240.2857142857143,152.51085508201345L240.2857142857143,152.52142402977614L240.2857142857143,152.5423889235308L240.2857142857143,152.5691050978119L240.2857142857143,152.59446861556032L240.2857142857143,152.6123653935917L240.2857142857143,152.62912048508807L240.2857142857143,152.64446930843982L248.57142857142856,152.1432030859547L248.57142857142856,152.03134296965666L248.57142857142856,152.19314088848677L248.57142857142856,152.19813532842068L248.57142857142856,152.15719399411768L248.57142857142856,152.19052263386195L248.57142857142856,152.24239687034705L248.57142857142856,152.28812525162738L248.57142857142856,152.34365312272013L248.57142857142856,152.38677700641568L248.57142857142856,152.4576133464571L248.57142857142856,152.5284403550696L248.57142857142856,152.61193912688074L248.57142857142856,152.6975478365945L248.57142857142856,152.77676620011533L248.57142857142856,152.79936562045444L248.57142857142856,152.7890586350283L248.57142857142856,152.79364792697854L248.57142857142856,152.79142029304802L248.57142857142856,152.75629803273364L248.57142857142856,152.72427704587741L248.57142857142856,152.71098540612894L248.57142857142856,152.72688030764752L248.57142857142856,152.76759436012475L248.57142857142856,152.80481032838145L248.57142857142856,152.8354567460042L248.57142857142856,152.8594077629826L248.57142857142856,152.87208719432306L248.57142857142856,152.8935487773081L248.57142857142856,152.91932691035305L248.57142857142856,152.93010334245284L248.57142857142856,152.92444670115566L248.57142857142856,152.91996900986368L248.57142857142856,152.9157223923485L248.57142857142856,152.90859049907135L248.57142857142856,152.91065208321967" style="fill: none;" fill="none"></path></g></g></g></g><g opacity="0.2"><g><g><g><path stroke="rgb(204, 51, 17)" stroke-width="2px" d="M8.285714285714285,25.66499662399292L8.285714285714285,28.497002363204956L8.285714285714285,27.04958152770996L8.285714285714285,26.66903167963028L8.285714285714285,26.817713141441345L8.285714285714285,26.934090435504913L8.285714285714285,27.223044991493225L8.285714285714285,27.423495411872864L8.285714285714285,27.38677078485489L8.285714285714285,27.735016465187073L8.285714285714285,27.46154934167862L8.285714285714285,27.706257104873657L8.285714285714285,27.88369792699814L8.285714285714285,27.989894449710846L8.285714285714285,28.075296878814697L8.285714285714285,28.277519702911377L8.285714285714285,28.697009682655334L8.285714285714285,29.22313928604126L8.285714285714285,29.53953444957733L8.285714285714285,29.970080852508545L8.285714285714285,30.898451149463654L8.285714285714285,31.367937684059143L8.285714285714285,31.70291143655777L8.285714285714285,31.92416650056839L8.285714285714285,32.239221811294556L8.285714285714285,32.95297300815582L8.285714285714285,34.26233625411987L8.285714285714285,34.792000114917755L8.285714285714285,35.69957631826401L8.285714285714285,36.236329793930054L8.285714285714285,36.61156243085861L8.285714285714285,37.16601884365082L16.57142857142857,64.02709257602692L16.57142857142857,63.16953402757645L16.57142857142857,65.13467609882355L16.57142857142857,66.75377744436264L16.57142857142857,69.69684326648712L16.57142857142857,70.04465639591217L16.57142857142857,71.06992864608765L16.57142857142857,72.28857225179672L16.57142857142857,72.8903666138649L16.57142857142857,75.12411224842072L16.57142857142857,76.07636779546738L16.57142857142857,76.65073210000992L16.57142857142857,77.38307243585587L16.57142857142857,77.44944262504578L16.57142857142857,77.75521391630173L16.57142857142857,78.59330767393112L16.57142857142857,79.11191511154175L16.57142857142857,79.662837266922L16.57142857142857,80.35003405809402L16.57142857142857,81.63372910022736L16.57142857142857,82.26429337263107L16.57142857142857,82.85148650407791L16.57142857142857,83.39886385202408L16.57142857142857,84.40776246786118L16.57142857142857,85.44497734308243L16.57142857142857,86.02952241897583L16.57142857142857,86.89195507764816L16.57142857142857,87.29861623048782L16.57142857142857,87.98714232444763L16.57142857142857,88.39689463376999L16.57142857142857,88.86860194802284L16.57142857142857,89.32968538999557L16.57142857142857,89.81112509965897L16.57142857142857,90.18371495604515L16.57142857142857,91.15145793557167L24.857142857142858,109.40015825629234L24.857142857142858,111.51752132177353L24.857142857142858,112.31357851624489L24.857142857142858,112.63704746961594L24.857142857142858,112.18702572584152L24.857142857142858,112.16003349423409L24.857142857142858,112.65784683823586L24.857142857142858,113.11893028020859L24.857142857142858,113.80657544732094L24.857142857142858,114.03136476874352L24.857142857142858,114.14154919981956L24.857142857142858,114.55617034435272L24.857142857142858,114.81060522794724L24.857142857142858,115.77083131670952L24.857142857142858,116.44254595041275L24.857142857142858,116.72928500175476L24.857142857142858,116.97974252700806L24.857142857142858,117.37533670663834L24.857142857142858,117.58508169651031L24.857142857142858,117.72446858882904L24.857142857142858,118.08599147200584L24.857142857142858,118.45946225523949L24.857142857142858,118.6860239803791L24.857142857142858,118.99754503369331L24.857142857142858,119.19843855500221L24.857142857142858,119.6400519311428L24.857142857142858,119.77014952898026L24.857142857142858,120.3569048345089L24.857142857142858,120.91666263341904L24.857142857142858,121.04410690069199L33.14285714285714,131.81057327985764L33.14285714285714,131.3171856701374L33.14285714285714,131.1512496471405L33.14285714285714,131.10965090990067L33.14285714285714,130.475552380085L33.14285714285714,130.19102355837822L33.14285714285714,130.57378363609314L33.14285714285714,131.04460474848747L33.14285714285714,130.94194248318672L33.14285714285714,130.9454872906208L33.14285714285714,130.9096435904503L33.14285714285714,130.79149389266968L33.14285714285714,130.74149206280708L33.14285714285714,130.91672265529633L33.14285714285714,131.39064019918442L33.14285714285714,131.4747133255005L33.14285714285714,131.2636443078518L33.14285714285714,131.49153006076813L33.14285714285714,131.58445465564728L33.14285714285714,131.76587811112404L33.14285714285714,131.8596889078617L33.14285714285714,131.99907580018044L33.14285714285714,132.11500999331474L33.14285714285714,132.2074967622757L33.14285714285714,132.36546751856804L33.14285714285714,132.38139805197716L33.14285714285714,132.645127505064L33.14285714285714,132.7641607671976L33.14285714285714,132.86106799542904L33.14285714285714,132.67035260796547L33.14285714285714,132.8672634959221L33.14285714285714,133.02435068786144L33.14285714285714,133.1464803814888L41.42857142857142,136.30814266204834L41.42857142857142,137.68431656062603L41.42857142857142,136.7276326417923L41.42857142857142,136.58824574947357L41.42857142857142,137.8953908532858L41.42857142857142,137.68785873055458L41.42857142857142,137.59891413152218L41.42857142857142,137.6639629304409L41.42857142857142,137.65112882852554L41.42857142857142,137.4798835068941L41.42857142857142,137.3873993754387L41.42857142857142,137.30155384540558L41.42857142857142,137.3891691416502L41.42857142857142,137.39934727549553L41.42857142857142,137.4347478747368L41.42857142857142,137.56218686699867L41.42857142857142,137.6223668307066L41.42857142857142,137.5949314981699L41.42857142857142,137.59935723245144L41.42857142857142,137.68298989534378L41.42857142857142,137.92105378210545L41.42857142857142,137.9365412145853L41.42857142857142,137.99185498058796L41.42857142857142,137.8639728873968L41.42857142857142,137.86352978646755L41.42857142857142,137.90202681720257L41.42857142857142,137.9582241475582L41.42857142857142,137.93123191595078L41.42857142857142,137.99937714636326L41.42857142857142,138.06929214298725L49.714285714285715,135.8789176493883L49.714285714285715,137.55864733457565L49.714285714285715,139.4782133102417L49.714285714285715,139.6490181684494L49.714285714285715,140.03576351702213L49.714285714285715,140.71411411464214L49.714285714285715,140.99421720206738L49.714285714285715,140.93669320642948L49.714285714285715,140.70349551737309L49.714285714285715,140.87651324272156L49.714285714285715,140.77473717927933L49.714285714285715,140.63402362167835L49.714285714285715,140.64552842080593L49.714285714285715,140.72606201469898L49.714285714285715,140.97430403530598L49.714285714285715,141.10262922942638L49.714285714285715,140.98138573765755L49.714285714285715,141.03094446659088L49.714285714285715,141.14732176065445L49.714285714285715,141.20174932479858L49.714285714285715,141.28715175390244L49.714285714285715,141.33450025320053L49.714285714285715,141.4327341467142L49.714285714285715,141.45043444633484L49.714285714285715,141.3849451839924L49.714285714285715,141.31149065494537L49.714285714285715,141.32476522028446L49.714285714285715,141.34910148382187L49.714285714285715,141.40308858454227L49.714285714285715,141.3942371159792L49.714285714285715,141.45618684589863L49.714285714285715,141.45132064819336L58,140.1140842437744L58,139.50299267470837L58,138.95827393233776L58,139.3383833169937L58,139.22952818870544L58,138.91623736917973L58,140.42914482951164L58,141.02961780130863L58,141.0393528342247L58,141.21148435771465L58,141.20130622386932L58,141.38361851871014L58,141.33405715227127L58,141.4309643805027L58,141.42565508186817L58,141.49114434421062L58,141.53274044394493L58,141.60530877113342L58,141.63186053931713L58,141.54557190835476L58,141.54557190835476L58,141.7415992319584L58,141.8017791956663L58,141.8274447619915L58,141.75222046673298L58,141.65531323850155L58,141.6442489027977L58,141.68318903446198L58,141.69381026923656L66.28571428571428,142.03099425137043L66.28571428571428,141.90798099339008L66.28571428571428,142.29118417203426L66.28571428571428,142.10267901420593L66.28571428571428,142.7938637137413L66.28571428571428,141.69115430116653L66.28571428571428,142.00046248733997L66.28571428571428,141.86549869179726L66.28571428571428,142.10710474848747L66.28571428571428,142.03541998565197L66.28571428571428,142.62394505739212L66.28571428571428,142.29959253966808L66.28571428571428,142.21595987677574L66.28571428571428,142.04781098663807L66.28571428571428,142.0349768847227L66.28571428571428,142.06949128210545L66.28571428571428,142.11020381748676L66.28571428571428,142.1907374113798L66.28571428571428,142.32215903699398L66.28571428571428,142.43013060092926L66.28571428571428,142.43322703242302L66.28571428571428,142.51995876431465L66.28571428571428,142.63854628801346L66.28571428571428,142.65138038992882L66.28571428571428,142.75050048530102L66.28571428571428,142.79474991559982L66.28571428571428,142.72616158425808L66.28571428571428,142.73899568617344L66.28571428571428,142.7363397181034L66.28571428571428,142.78767085075378L66.28571428571428,142.76731458306313L66.28571428571428,142.78413131833076L66.28571428571428,142.82926431298256L66.28571428571428,142.8996224105358L66.28571428571428,142.8536032140255L74.57142857142857,140.68800808489323L74.57142857142857,141.70797103643417L74.57142857142857,141.5243320763111L74.57142857142857,142.09383018314838L74.57142857142857,141.85222412645817L74.57142857142857,142.0955999493599L74.57142857142857,142.25666977465153L74.57142857142857,142.58146539330482L74.57142857142857,142.92307510972023L74.57142857142857,142.86820444464684L74.57142857142857,142.97484670579433L74.57142857142857,143.24919739365578L74.57142857142857,143.09255330264568L74.57142857142857,143.20627462863922L74.57142857142857,143.27530606091022L74.57142857142857,143.29875876009464L74.57142857142857,143.31203332543373L74.57142857142857,143.45230378210545L74.57142857142857,143.55850557982922L74.57142857142857,143.64612087607384L74.57142857142857,143.6191286444664L74.57142857142857,143.61027717590332L74.57142857142857,143.74922360479832L74.57142857142857,143.7416988015175L74.57142857142857,143.84391796588898L74.57142857142857,143.92312489449978L74.57142857142857,143.920912027359L74.57142857142857,143.99436655640602L74.57142857142857,143.97047339379787L74.57142857142857,144.00233182311058L82.85714285714285,145.268767029047L82.85714285714285,145.00503757596016L82.85714285714285,145.19221606850624L82.85714285714285,144.93733544647694L82.85714285714285,144.95945884287357L82.85714285714285,145.19752536714077L82.85714285714285,144.97981511056423L82.85714285714285,144.85812851786613L82.85714285714285,145.15504570305347L82.85714285714285,144.6740464568138L82.85714285714285,144.85635875165462L82.85714285714285,144.98070131242275L82.85714285714285,145.0121166408062L82.85714285714285,145.01609927415848L82.85714285714285,145.07893520593643L82.85714285714285,145.19442629814148L82.85714285714285,145.20327776670456L82.85714285714285,145.23469573259354L82.85714285714285,145.1678771674633L82.85714285714285,145.18513436615467L82.85714285714285,145.26478439569473L82.85714285714285,145.10504123568535L82.85714285714285,145.16433763504028L82.85714285714285,145.23159666359425L82.85714285714285,145.2851406633854L82.85714285714285,145.31168979406357L82.85714285714285,145.24929696321487L82.85714285714285,145.29089306294918L82.85714285714285,145.27540563046932L82.85714285714285,145.23646549880505L82.85714285714285,145.26168796420097L82.85714285714285,145.16655050218105L91.14285714285714,147.77818474173546L91.14285714285714,147.08611384034157L91.14285714285714,146.48431420326233L91.14285714285714,146.31439554691315L91.14285714285714,145.95065979659557L91.14285714285714,146.47811870276928L91.14285714285714,146.0165921598673L91.14285714285714,145.6294037103653L91.14285714285714,145.94313763082027L91.14285714285714,145.8325127363205L91.14285714285714,145.6294037103653L91.14285714285714,145.55462251603603L91.14285714285714,145.45815838873386L91.14285714285714,145.55063988268375L91.14285714285714,145.73073667287827L91.14285714285714,145.64887377619743L91.14285714285714,145.41257965564728L91.14285714285714,145.59400574862957L91.14285714285714,145.67542554438114L91.14285714285714,145.6878139078617L91.14285714285714,145.75064983963966L91.14285714285714,145.76127107441425L91.14285714285714,145.78560733795166L91.14285714285714,145.8524259030819L91.14285714285714,145.7718896716833L91.14285714285714,145.78914687037468L91.14285714285714,145.73206597566605L91.14285714285714,145.63117611408234L91.14285714285714,145.63736897706985L99.42857142857143,143.7465676367283L99.42857142857143,145.27584873139858L99.42857142857143,145.74489744007587L99.42857142857143,145.93517236411572L99.42857142857143,145.8541956692934L99.42857142857143,146.0856235921383L99.42857142857143,145.99712209403515L99.42857142857143,146.23120598495007L99.42857142857143,146.14005115628242L99.42857142857143,146.0599580258131L99.42857142857143,146.1148286908865L99.42857142857143,146.08650715649128L99.42857142857143,146.1325263530016L99.42857142857143,146.082524523139L99.42857142857143,146.20952305197716L99.42857142857143,146.03030982613564L99.42857142857143,146.04845322668552L99.42857142857143,145.64577734470367L99.42857142857143,145.64710400998592L99.42857142857143,145.5001949518919L99.42857142857143,145.51479618251324L99.42857142857143,145.5661273151636L99.42857142857143,145.477628454566L99.42857142857143,145.46435125172138L99.42857142857143,145.43160662055016L99.42857142857143,145.40240152180195L99.42857142857143,145.46169792115688L99.42857142857143,145.48426441848278L99.42857142857143,145.49665541946888L99.42857142857143,145.51169975101948L99.42857142857143,145.49930875003338L99.42857142857143,145.5400212854147L99.42857142857143,145.5550656169653L99.42857142857143,145.5776321142912L99.42857142857143,145.6435644775629L99.42857142857143,145.28646732866764L107.71428571428572,145.63515874743462L107.71428571428572,146.7657439559698L107.71428571428572,146.49758876860142L107.71428571428572,145.9409247636795L107.71428571428572,146.13872185349464L107.71428571428572,146.25775511562824L107.71428571428572,146.26881681382656L107.71428571428572,146.31527911126614L107.71428571428572,146.1922658532858L107.71428571428572,146.07854188978672L107.71428571428572,146.02632719278336L107.71428571428572,146.09093289077282L107.71428571428572,145.99181279540062L107.71428571428572,145.8918064981699L107.71428571428572,145.8400349020958L107.71428571428572,145.93871189653873L107.71428571428572,145.91393253207207L107.71428571428572,145.94358073174953L107.71428571428572,145.83782203495502L107.71428571428572,145.82410436868668L107.71428571428572,145.8276439011097L107.71428571428572,145.834282502532L107.71428571428572,145.72454380989075L107.71428571428572,145.63869827985764L107.71428571428572,145.58825334906578L107.71428571428572,145.59046621620655L107.71428571428572,145.61303271353245L107.71428571428572,145.61524558067322L107.71428571428572,145.62188154459L107.71428571428572,145.75418937206268L107.71428571428572,145.68117794394493L107.71428571428572,145.75861510634422L107.71428571428572,145.8108298033476L107.71428571428572,145.760827973485L107.71428571428572,145.54400128126144L116,146.54051153361797L116,146.79362238943577L116,147.22506026923656L116,146.8374287188053L116,147.1670931726694L116,147.23435220122337L116,146.64317379891872L116,146.29846501350403L116,146.4940492361784L116,146.61573846638203L116,146.5706028342247L116,146.73831126093864L116,146.97062274813652L116,146.9489398151636L116,146.95247934758663L116,147.04850301146507L116,147.0719557106495L116,147.17417223751545L116,147.1104527413845L116,147.14983597397804L116,147.21399857103825L116,147.1285961419344L116,147.09407910704613L116,147.0595647096634L116,147.09673507511616L116,147.01841171085835L116,147.02858984470367L116,147.04894611239433L116,147.10514344274998L116,147.11664824187756L116,147.1162051409483L124.28571428571428,145.38381765782833L124.28571428571428,147.1069132089615L124.28571428571428,146.52015790343285L124.28571428571428,146.69759872555733L124.28571428571428,146.71308879554272L124.28571428571428,147.06929974257946L124.28571428571428,146.8622107207775L124.28571428571428,147.19496896862984L124.28571428571428,147.0064638108015L124.28571428571428,146.860440954566L124.28571428571428,147.49365855753422L124.28571428571428,147.65074574947357L124.28571428571428,147.4976411908865L124.28571428571428,147.54321728646755L124.28571428571428,147.6454338133335L124.28571428571428,147.70694307982922L124.28571428571428,147.77066257596016L124.28571428571428,147.73304910957813L124.28571428571428,147.76889280974865L124.28571428571428,147.72243051230907L124.28571428571428,147.63569878041744L124.28571428571428,147.59897151589394L124.28571428571428,147.642780482769L124.28571428571428,147.70738618075848L124.28571428571428,147.72641314566135L124.28571428571428,147.77375900745392L124.28571428571428,147.90872280299664L124.28571428571428,147.9817342311144L124.28571428571428,147.9366012364626L124.28571428571428,147.9335021674633L124.28571428571428,147.88305723667145L124.28571428571428,147.8476566374302L124.28571428571428,147.86137430369854L124.28571428571428,147.74986584484577L124.28571428571428,147.76667994260788L124.28571428571428,147.81668177247047L124.28571428571428,147.85119880735874L124.28571428571428,147.8675698041916L124.28571428571428,147.79145930707455L124.28571428571428,147.82155060768127L132.57142857142856,146.71131639182568L132.57142857142856,146.91353921592236L132.57142857142856,147.37816482782364L132.57142857142856,148.2490058541298L132.57142857142856,148.14369025826454L132.57142857142856,148.3224603831768L132.57142857142856,148.20563998818398L132.57142857142856,148.19856092333794L132.57142857142856,148.25785468518734L132.57142857142856,147.96624679863453L132.57142857142856,148.0892626941204L132.57142857142856,148.1525390893221L132.57142857142856,148.2490058541298L132.57142857142856,148.13483878970146L132.57142857142856,148.15298219025135L132.57142857142856,148.18882589042187L132.57142857142856,148.09368842840195L132.57142857142856,148.2233402878046L132.57142857142856,148.25121872127056L132.57142857142856,148.06271356344223L132.57142857142856,148.17112559080124L132.57142857142856,148.15608125925064L132.57142857142856,148.10873275995255L132.57142857142856,148.0932453274727L132.57142857142856,148.10961632430553L132.57142857142856,148.09457199275494L132.57142857142856,148.1335121244192L132.57142857142856,148.1534252911806L132.57142857142856,148.0742183625698L132.57142857142856,148.03793156147003L132.57142857142856,147.93438836932182L140.85714285714286,147.6728691458702L140.85714285714286,148.5724721699953L140.85714285714286,148.987095952034L140.85714285714286,148.98267021775246L140.85714285714286,148.54592303931713L140.85714285714286,148.59592486917973L140.85714285714286,148.31051248311996L140.85714285714286,148.53663110733032L140.85714285714286,148.2932552844286L140.85714285714286,148.43352837860584L140.85714285714286,148.3715786486864L140.85714285714286,148.2640501856804L140.85714285714286,148.1591776907444L140.85714285714286,148.09855462610722L140.85714285714286,148.1251037567854L140.85714285714286,147.98792973160744L140.85714285714286,147.9476629346609L140.85714285714286,148.24811965227127L140.85714285714286,148.14944265782833L140.85714285714286,148.15962079167366L140.85714285714286,148.15829148888588L140.85714285714286,148.22953578829765L140.85714285714286,148.13793785870075L140.85714285714286,148.09280222654343L140.85714285714286,148.04412706196308L140.85714285714286,148.0967848598957L140.85714285714286,148.13129925727844L140.85714285714286,148.20519688725471L140.85714285714286,148.19324898719788L140.85714285714286,148.30210411548615L140.85714285714286,148.30918581783772L140.85714285714286,148.30874271690845L140.85714285714286,148.3450268805027L140.85714285714286,148.43441194295883L140.85714285714286,148.43219907581806L149.14285714285714,147.29851479828358L149.14285714285714,147.6693296134472L149.14285714285714,149.3587943315506L149.14285714285714,149.16276700794697L149.14285714285714,148.77336832880974L149.14285714285714,148.88841632008553L149.14285714285714,149.07426814734936L149.14285714285714,148.82292705774307L149.14285714285714,148.5932689011097L149.14285714285714,148.49016880989075L149.14285714285714,148.54592303931713L149.14285714285714,148.7888557612896L149.14285714285714,148.79859079420567L149.14285714285714,148.82513992488384L149.14285714285714,148.78531622886658L149.14285714285714,148.90877258777618L149.14285714285714,149.02116724848747L149.14285714285714,149.09462177753448L149.14285714285714,149.0795774459839L149.14285714285714,149.09152534604073L149.14285714285714,149.2030338048935L149.14285714285714,149.2154248058796L149.14285714285714,149.18489304184914L149.14285714285714,149.08931247889996L149.14285714285714,149.02691964805126L149.14285714285714,149.06984241306782L149.14285714285714,149.1795837432146L149.14285714285714,149.26409997045994L149.14285714285714,149.28976553678513L149.14285714285714,149.21188527345657L149.14285714285714,149.23666463792324L149.14285714285714,149.30038413405418L149.14285714285714,149.3238368332386L157.42857142857142,147.05159944295883L157.42857142857142,146.59670886397362L157.42857142857142,147.48790615797043L157.42857142857142,148.2242238521576L157.42857142857142,148.83576115965843L157.42857142857142,148.80832582712173L157.42857142857142,148.89594112336636L157.42857142857142,148.70876263082027L157.42857142857142,148.93886125087738L157.42857142857142,148.65787459909916L157.42857142857142,148.78796955943108L157.42857142857142,148.83841449022293L157.42857142857142,148.74770276248455L157.42857142857142,148.73177222907543L157.42857142857142,148.8499192893505L157.42857142857142,148.98090045154095L157.42857142857142,149.0539118796587L157.42857142857142,149.14949244260788L157.42857142857142,149.14683647453785L157.42857142857142,149.17781133949757L157.42857142857142,149.22427627444267L157.42857142857142,149.17692777514458L157.42857142857142,149.18444994091988L157.42857142857142,149.20524667203426L157.42857142857142,149.09683464467525L157.42857142857142,149.16851940751076L157.42857142857142,149.31144846975803L157.42857142857142,149.3455197662115L157.42857142857142,149.34728953242302L157.42857142857142,149.3680862635374L157.42857142857142,149.41897429525852L157.42857142857142,149.2313553392887L165.7142857142857,150.90931525826454L165.7142857142857,151.16596564650536L165.7142857142857,150.09024846553802L165.7142857142857,150.83409096300602L165.7142857142857,150.3774306178093L165.7142857142857,150.58186630904675L165.7142857142857,150.42875911295414L165.7142857142857,150.51239177584648L165.7142857142857,150.6208038032055L165.7142857142857,150.33052521944046L165.7142857142857,150.2809638530016L165.7142857142857,150.1499853283167L165.7142857142857,150.08582273125648L165.7142857142857,150.20043025910854L165.7142857142857,150.21060839295387L165.7142857142857,150.07785746455193L165.7142857142857,150.13449789583683L165.7142857142857,149.9751978367567L165.7142857142857,150.03714756667614L165.7142857142857,149.93979723751545L165.7142857142857,149.86280317604542L165.7142857142857,149.79819747805595L165.7142857142857,149.87298130989075L165.7142857142857,149.90705260634422L165.7142857142857,149.94068343937397L165.7142857142857,149.92652267217636L165.7142857142857,149.90705260634422L165.7142857142857,149.89466160535812L165.7142857142857,149.9110352396965L165.7142857142857,149.91634453833103L165.7142857142857,149.92121337354183L165.7142857142857,149.9552846699953L165.7142857142857,149.97741070389748L165.7142857142857,149.98714573681355L165.7142857142857,149.9751978367567L165.7142857142857,149.9641361385584L165.7142857142857,149.94201010465622L174,148.97691781818867L174,150.9491389542818L174,151.75803025066853L174,151.09826351702213L174,151.0571105182171L174,150.33804738521576L174,150.00617270171642L174,150.23538775742054L174,150.10484969615936L174,150.07918412983418L174,150.2141479253769L174,150.10706256330013L174,150.0893622636795L174,150.23981349170208L174,150.44955848157406L174,150.5274387449026L174,150.46637257933617L174,150.40973214805126L174,150.26724618673325L174,150.22874915599823L174,150.30662941932678L174,150.3774306178093L174,150.39955401420593L174,150.41858361661434L174,150.50708247721195L174,150.47035521268845L174,150.49115194380283L174,150.4499989449978L174,150.36548271775246L174,150.40132378041744L174,150.34379978477955L174,150.33804738521576L174,150.3867225497961L182.28571428571428,150.28981532156467L182.28571428571428,150.58142320811749L182.28571428571428,150.72169630229473L182.28571428571428,150.73187179863453L182.28571428571428,150.29601082205772L182.28571428571428,150.30353298783302L182.28571428571428,150.37433154881L182.28571428571428,150.3924749493599L182.28571428571428,150.44645941257477L182.28571428571428,150.59115824103355L182.28571428571428,150.80222989618778L182.28571428571428,150.86860536038876L182.28571428571428,150.7907250970602L182.28571428571428,150.82656879723072L182.28571428571428,150.92258982360363L182.28571428571428,150.9907350540161L182.28571428571428,151.12038691341877L182.28571428571428,151.11330784857273L182.28571428571428,151.0756943821907L182.28571428571428,150.90400595963L182.28571428571428,150.95666375756264L182.28571428571428,150.9190502911806L182.28571428571428,150.83586072921753L182.28571428571428,150.8756844252348L182.28571428571428,150.95356468856335L182.28571428571428,151.00799225270748L182.28571428571428,151.04737548530102L182.28571428571428,151.07525128126144L182.28571428571428,151.08454585075378L182.28571428571428,151.10932521522045L182.28571428571428,151.12790907919407L182.28571428571428,150.88541945815086L190.57142857142858,150.47743427753448L190.57142857142858,151.9801662415266L190.57142857142858,151.60757902264595L190.57142857142858,152.2084950953722L190.57142857142858,152.45894998311996L190.57142857142858,152.09477376937866L190.57142857142858,152.30982805788517L190.57142857142858,151.81245781481266L190.57142857142858,151.69696408510208L190.57142857142858,151.56598556041718L190.57142857142858,151.51155799627304L190.57142857142858,151.50757536292076L190.57142857142858,151.40933883190155L190.57142857142858,151.43589060008526L190.57142857142858,151.52483256161213L190.57142857142858,151.60094305872917L190.57142857142858,151.60492569208145L190.57142857142858,151.62262599170208L190.57142857142858,151.5204068273306L190.57142857142858,151.4522615969181L190.57142857142858,151.4173040986061L190.57142857142858,151.39075496792793L190.57142857142858,151.40889836847782L190.57142857142858,151.47129119932652L190.57142857142858,151.49828343093395L190.57142857142858,151.49739722907543L190.57142857142858,151.43898703157902L190.57142857142858,151.47483073174953L190.57142857142858,151.45004872977734L190.57142857142858,151.41420766711235L190.57142857142858,151.45447446405888L190.57142857142858,151.4487220644951L190.57142857142858,151.32924833893776L198.85714285714286,148.5339751392603L198.85714285714286,150.05794429779053L198.85714285714286,150.68054330348969L198.85714285714286,150.5101789087057L198.85714285714286,150.72213676571846L198.85714285714286,150.86285296082497L198.85714285714286,151.10666924715042L198.85714285714286,151.0256925523281L198.85714285714286,150.87170179188251L198.85714285714286,150.97082188725471L198.85714285714286,151.16330967843533L198.85714285714286,150.8730310946703L198.85714285714286,150.89958022534847L198.85714285714286,150.8916149586439L198.85714285714286,151.0221530199051L198.85714285714286,151.14959201216698L198.85714285714286,151.2296851426363L198.85714285714286,151.23986327648163L198.85714285714286,151.28942200541496L198.85714285714286,151.29252107441425L198.85714285714286,151.2495983093977L198.85714285714286,151.2071186453104L198.85714285714286,151.22614561021328L198.85714285714286,151.1456093788147L198.85714285714286,151.14649558067322L198.85714285714286,151.12790907919407L198.85714285714286,151.0880853831768L198.85714285714286,151.14428271353245L198.85714285714286,151.15888394415379L198.85714285714286,151.2429597079754L198.85714285714286,151.24428637325764L198.85714285714286,151.31110493838787L198.85714285714286,151.20623244345188L198.85714285714286,151.28543937206268L207.14285714285714,150.72744870185852L207.14285714285714,150.48318667709827L207.14285714285714,151.78236651420593L207.14285714285714,151.74652545154095L207.14285714285714,151.36110676825047L207.14285714285714,151.30269657075405L207.14285714285714,151.30667920410633L207.14285714285714,151.33986693620682L207.14285714285714,151.46332593262196L207.14285714285714,151.327035471797L207.14285714285714,151.3088920712471L207.14285714285714,151.365532502532L207.14285714285714,151.435447499156L207.14285714285714,151.4155343323946L207.14285714285714,151.44031369686127L207.14285714285714,151.47837026417255L207.14285714285714,151.34827530384064L207.14285714285714,151.2832265049219L207.14285714285714,151.33677050471306L207.14285714285714,151.38898520171642L207.14285714285714,151.3748244345188L207.14285714285714,151.3438495695591L207.14285714285714,151.37394087016582L207.14285714285714,151.49120172858238L207.14285714285714,151.4770435988903L207.14285714285714,151.36154986917973L207.14285714285714,151.43279153108597L207.14285714285714,151.43190796673298L207.14285714285714,151.3872154355049L207.14285714285714,151.40535619854927L207.14285714285714,151.45668733119965L207.14285714285714,151.50447629392147L215.42857142857144,153.82583194971085L215.42857142857144,153.65679685771465L215.42857142857144,153.48732130229473L215.42857142857144,153.30014280974865L215.42857142857144,153.01871305704117L215.42857142857144,152.94437232613564L215.42857142857144,152.85410369932652L215.42857142857144,152.7965770661831L215.42857142857144,152.93508039414883L215.42857142857144,152.76737196743488L215.42857142857144,152.75277073681355L215.42857142857144,152.86959113180637L215.42857142857144,152.49390748143196L215.42857142857144,152.21823012828827L215.42857142857144,152.1027363985777L215.42857142857144,152.01733396947384L215.42857142857144,151.90715217590332L215.42857142857144,151.9385701417923L215.42857142857144,151.97795337438583L215.42857142857144,151.96644857525826L215.42857142857144,151.68811525404453L215.42857142857144,151.55182479321957L215.42857142857144,151.60005685687065L215.42857142857144,151.70581555366516L215.42857142857144,151.7159936875105L215.42857142857144,151.67484068870544L215.42857142857144,151.60979188978672L215.42857142857144,151.7036026865244L215.42857142857144,151.63811342418194L215.42857142857144,151.65891015529633L215.42857142857144,151.6230664551258L215.42857142857144,151.68059308826923L215.42857142857144,151.60713855922222L215.42857142857144,151.61908382177353L215.42857142857144,151.58102989196777L215.42857142857144,151.35270103812218L223.71428571428572,151.86024677753448L223.71428571428572,151.18676237761974L223.71428571428572,151.28765223920345L223.71428571428572,151.20092314481735L223.71428571428572,151.78989131748676L223.71428571428572,151.67484068870544L223.71428571428572,151.82794524729252L223.71428571428572,151.9567135423422L223.71428571428572,151.72395631670952L223.71428571428572,151.7460823506117L223.71428571428572,151.83989314734936L223.71428571428572,151.77307458221912L223.71428571428572,151.77617365121841L223.71428571428572,151.8903380781412L223.71428571428572,151.95804020762444L223.71428571428572,151.98414623737335L223.71428571428572,152.0319378376007L223.71428571428572,152.12973126769066L223.71428571428572,152.11247143149376L223.71428571428572,152.1735375970602L223.71428571428572,152.23902685940266L223.71428571428572,152.18194596469402L223.71428571428572,152.21336129307747L223.71428571428572,152.18991123139858L223.71428571428572,152.17619356513023L223.71428571428572,152.16645853221416L223.71428571428572,152.15052799880505L223.71428571428572,152.21646036207676L223.71428571428572,152.17088162899017L223.71428571428572,152.214247494936L223.71428571428572,152.2067253291607L223.71428571428572,152.16822829842567L223.71428571428572,152.14742892980576L223.71428571428572,152.18238642811775L223.71428571428572,152.1660154312849L232,152.3084987550974L232,152.56647844612598L232,152.14521870017052L232,151.85670724511147L232,151.82042308151722L232,152.03503426909447L232,152.0651255697012L232,151.58279965817928L232,151.5712948590517L232,151.60005685687065L232,151.51908016204834L232,151.62970505654812L232,151.613774523139L232,151.63059125840664L232,151.578817024827L232,151.56155982613564L232,151.6845757216215L232,151.6845757216215L232,151.71555058658123L232,151.7828096151352L232,151.7310380190611L232,151.78546558320522L232,151.67174161970615L232,151.68899881839752L232,151.70315958559513L232,151.75227785110474L232,151.7952006161213L232,151.95007494091988L232,152.09388756752014L232,152.1368103325367L232,152.16026303172112L232,152.1868121623993L232,152.18725526332855L232,152.1934507638216L232,151.9876884073019L240.2857142857143,152.03680403530598L240.2857142857143,152.00494560599327L240.2857142857143,152.5726713091135L240.2857142857143,152.23327445983887L240.2857142857143,152.17840379476547L240.2857142857143,152.27708342671394L240.2857142857143,152.25186096131802L240.2857142857143,152.53860001266003L240.2857142857143,152.45010115206242L240.2857142857143,152.6217895746231L240.2857142857143,152.5058553814888L240.2857142857143,152.48240268230438L240.2857142857143,152.37841375172138L240.2857142857143,152.12973126769066L240.2857142857143,152.10893189907074L240.2857142857143,152.16557233035564L240.2857142857143,152.3686787188053L240.2857142857143,152.41691341996193L240.2857142857143,152.356733456254L240.2857142857143,152.41116102039814L240.2857142857143,152.356733456254L240.2857142857143,152.44567541778088L240.2857142857143,152.4191262871027L240.2857142857143,152.3934607207775L240.2857142857143,152.40584908425808L240.2857142857143,152.45010115206242L240.2857142857143,152.52886497974396L240.2857142857143,152.59524044394493L240.2857142857143,152.59612400829792L240.2857142857143,152.52709521353245L240.2857142857143,152.55364434421062L240.2857142857143,152.60630214214325L240.2857142857143,152.65055157244205L240.2857142857143,152.6717914044857L240.2857142857143,152.66692520678043L240.2857142857143,152.68019977211952L240.2857142857143,152.69126147031784L248.57142857142856,150.6150514036417L248.57142857142856,151.6903281211853L248.57142857142856,152.68639527261257L248.57142857142856,152.21336129307747L248.57142857142856,152.03238093852997L248.57142857142856,152.29212775826454L248.57142857142856,152.40053978562355L248.57142857142856,152.427532017231L248.57142857142856,152.51293444633484L248.57142857142856,152.51824374496937L248.57142857142856,152.67356380820274L248.57142857142856,152.74436236917973L248.57142857142856,152.86649206280708L248.57142857142856,152.95853309333324L248.57142857142856,153.0182699561119L248.57142857142856,152.8682618290186L248.57142857142856,152.7576369345188L248.57142857142856,152.8076387643814L248.57142857142856,152.78462916612625L248.57142857142856,152.6492249071598L248.57142857142856,152.6266584098339L248.57142857142856,152.67046473920345L248.57142857142856,152.77533723413944L248.57142857142856,152.891714528203L248.57142857142856,152.91826629638672L248.57142857142856,152.92888489365578L248.57142857142856,152.9324244260788L248.57142857142856,152.9107414931059L248.57142857142856,152.9589761942625L248.57142857142856,152.99791368842125L248.57142857142856,152.96295619010925L248.57142857142856,152.90720196068287L248.57142857142856,152.90631839632988L248.57142857142856,152.90277622640133L248.57142857142856,152.88684833049774L248.57142857142856,152.91693699359894" style="fill: none;" fill="none"></path></g></g></g></g></g></g><g transform="translate(40, 177)" clip-path="url(#clip_1)"><clipPath id="clip_1"><rect width="290" height="23"></rect></clipPath><g><g><line x1="0" y1="0" x2="0" y2="5" style="visibility: inherit;" fill="rgb(0, 0, 0)" stroke="rgb(204, 204, 204)" stroke-width="1px"></line><line x1="41.42857142857142" y1="0" x2="41.42857142857142" y2="5" style="visibility: inherit;" fill="rgb(0, 0, 0)" stroke="rgb(204, 204, 204)" stroke-width="1px"></line><line x1="82.85714285714285" y1="0" x2="82.85714285714285" y2="5" style="visibility: inherit;" fill="rgb(0, 0, 0)" stroke="rgb(204, 204, 204)" stroke-width="1px"></line><line x1="124.28571428571428" y1="0" x2="124.28571428571428" y2="5" style="visibility: inherit;" fill="rgb(0, 0, 0)" stroke="rgb(204, 204, 204)" stroke-width="1px"></line><line x1="165.7142857142857" y1="0" x2="165.7142857142857" y2="5" style="visibility: inherit;" fill="rgb(0, 0, 0)" stroke="rgb(204, 204, 204)" stroke-width="1px"></line><line x1="207.14285714285714" y1="0" x2="207.14285714285714" y2="5" style="visibility: inherit;" fill="rgb(0, 0, 0)" stroke="rgb(204, 204, 204)" stroke-width="1px"></line><line x1="248.57142857142856" y1="0" x2="248.57142857142856" y2="5" style="visibility: inherit;" fill="rgb(0, 0, 0)" stroke="rgb(204, 204, 204)" stroke-width="1px"></line><line x1="290" y1="0" x2="290" y2="5" style="visibility: inherit;" fill="rgb(0, 0, 0)" stroke="rgb(204, 204, 204)" stroke-width="1px"></line></g><g transform="translate(0, 8)"><text x="0" y="0" dx="0em" dy="0.95em" style="text-anchor: middle; visibility: hidden; font-family: Roboto, sans-serif; font-size: 12px; font-weight: 200;" fill="rgb(33, 33, 33)" stroke="none" stroke-width="1px">0</text><text x="41.42857142857142" y="0" dx="0em" dy="0.95em" style="text-anchor: middle; visibility: inherit; font-family: Roboto, sans-serif; font-size: 12px; font-weight: 200;" fill="rgb(33, 33, 33)" stroke="none" stroke-width="1px">5</text><text x="82.85714285714285" y="0" dx="0em" dy="0.95em" style="text-anchor: middle; visibility: inherit; font-family: Roboto, sans-serif; font-size: 12px; font-weight: 200;" fill="rgb(33, 33, 33)" stroke="none" stroke-width="1px">10</text><text x="124.28571428571428" y="0" dx="0em" dy="0.95em" style="text-anchor: middle; visibility: inherit; font-family: Roboto, sans-serif; font-size: 12px; font-weight: 200;" fill="rgb(33, 33, 33)" stroke="none" stroke-width="1px">15</text><text x="165.7142857142857" y="0" dx="0em" dy="0.95em" style="text-anchor: middle; visibility: inherit; font-family: Roboto, sans-serif; font-size: 12px; font-weight: 200;" fill="rgb(33, 33, 33)" stroke="none" stroke-width="1px">20</text><text x="207.14285714285714" y="0" dx="0em" dy="0.95em" style="text-anchor: middle; visibility: inherit; font-family: Roboto, sans-serif; font-size: 12px; font-weight: 200;" fill="rgb(33, 33, 33)" stroke="none" stroke-width="1px">25</text><text x="248.57142857142856" y="0" dx="0em" dy="0.95em" style="text-anchor: middle; visibility: inherit; font-family: Roboto, sans-serif; font-size: 12px; font-weight: 200;" fill="rgb(33, 33, 33)" stroke="none" stroke-width="1px">30</text><text x="290" y="0" dx="0em" dy="0.95em" style="text-anchor: middle; visibility: hidden; font-family: Roboto, sans-serif; font-size: 12px; font-weight: 200;" fill="rgb(33, 33, 33)" stroke="none" stroke-width="1px">35</text></g><line x1="0" y1="0" x2="290" y2="0" fill="rgb(0, 0, 0)" stroke="rgb(204, 204, 204)" stroke-width="1px"></line></g></g></g></g></svg>