<svg viewBox="0 0 330 200" xmlns="http://www.w3.org/2000/svg"><g><g><g><g><g><line x1="51.5625" y1="174.5638320917101" x2="46.5625" y2="174.5638320917101" style="visibility: inherit;" fill="rgb(0, 0, 0)" stroke="rgb(204, 204, 204)" stroke-width="1px"></line><line x1="51.5625" y1="154.2318712082625" x2="46.5625" y2="154.2318712082625" style="visibility: inherit;" fill="rgb(0, 0, 0)" stroke="rgb(204, 204, 204)" stroke-width="1px"></line><line x1="51.5625" y1="133.89991032481487" x2="46.5625" y2="133.89991032481487" style="visibility: inherit;" fill="rgb(0, 0, 0)" stroke="rgb(204, 204, 204)" stroke-width="1px"></line><line x1="51.5625" y1="113.56794944136749" x2="46.5625" y2="113.56794944136749" style="visibility: inherit;" fill="rgb(0, 0, 0)" stroke="rgb(204, 204, 204)" stroke-width="1px"></line><line x1="51.5625" y1="93.23598855791987" x2="46.5625" y2="93.23598855791987" style="visibility: inherit;" fill="rgb(0, 0, 0)" stroke="rgb(204, 204, 204)" stroke-width="1px"></line><line x1="51.5625" y1="72.90402767447225" x2="46.5625" y2="72.90402767447225" style="visibility: inherit;" fill="rgb(0, 0, 0)" stroke="rgb(204, 204, 204)" stroke-width="1px"></line><line x1="51.5625" y1="52.572066791024646" x2="46.5625" y2="52.572066791024646" style="visibility: inherit;" fill="rgb(0, 0, 0)" stroke="rgb(204, 204, 204)" stroke-width="1px"></line><line x1="51.5625" y1="32.24010590757702" x2="46.5625" y2="32.24010590757702" style="visibility: inherit;" fill="rgb(0, 0, 0)" stroke="rgb(204, 204, 204)" stroke-width="1px"></line><line x1="51.5625" y1="11.908145024129416" x2="46.5625" y2="11.908145024129416" style="visibility: inherit;" fill="rgb(0, 0, 0)" stroke="rgb(204, 204, 204)" stroke-width="1px"></line></g><g transform="translate(41.5625, 0)"><text x="0" y="174.5638320917101" dx="0em" dy="0.3em" style="text-anchor: end; visibility: hidden; font-family: Roboto, sans-serif; font-size: 12px; font-weight: 200;" fill="rgb(33, 33, 33)" stroke="none" stroke-width="1px">0.79</text><text x="0" y="154.2318712082625" dx="0em" dy="0.3em" style="text-anchor: end; visibility: inherit; font-family: Roboto, sans-serif; font-size: 12px; font-weight: 200;" fill="rgb(33, 33, 33)" stroke="none" stroke-width="1px">0.8</text><text x="0" y="133.89991032481487" dx="0em" dy="0.3em" style="text-anchor: end; visibility: hidden; font-family: Roboto, sans-serif; font-size: 12px; font-weight: 200;" fill="rgb(33, 33, 33)" stroke="none" stroke-width="1px">0.81</text><text x="0" y="113.56794944136749" dx="0em" dy="0.3em" style="text-anchor: end; visibility: inherit; font-family: Roboto, sans-serif; font-size: 12px; font-weight: 200;" fill="rgb(33, 33, 33)" stroke="none" stroke-width="1px">0.82</text><text x="0" y="93.23598855791987" dx="0em" dy="0.3em" style="text-anchor: end; visibility: hidden; font-family: Roboto, sans-serif; font-size: 12px; font-weight: 200;" fill="rgb(33, 33, 33)" stroke="none" stroke-width="1px">0.83</text><text x="0" y="72.90402767447225" dx="0em" dy="0.3em" style="text-anchor: end; visibility: inherit; font-family: Roboto, sans-serif; font-size: 12px; font-weight: 200;" fill="rgb(33, 33, 33)" stroke="none" stroke-width="1px">0.84</text><text x="0" y="52.572066791024646" dx="0em" dy="0.3em" style="text-anchor: end; visibility: hidden; font-family: Roboto, sans-serif; font-size: 12px; font-weight: 200;" fill="rgb(33, 33, 33)" stroke="none" stroke-width="1px">0.85</text><text x="0" y="32.24010590757702" dx="0em" dy="0.3em" style="text-anchor: end; visibility: inherit; font-family: Roboto, sans-serif; font-size: 12px; font-weight: 200;" fill="rgb(33, 33, 33)" stroke="none" stroke-width="1px">0.86</text><text x="0" y="11.908145024129416" dx="0em" dy="0.3em" style="text-anchor: end; visibility: hidden; font-family: Roboto, sans-serif; font-size: 12px; font-weight: 200;" fill="rgb(33, 33, 33)" stroke="none" stroke-width="1px">0.87</text></g><line x1="51.5625" y1="0" x2="51.5625" y2="177" fill="rgb(0, 0, 0)" stroke="rgb(204, 204, 204)" stroke-width="1px"></line></g></g><g transform="translate(51, 0)" clip-path="url(#clip_0)"><clipPath id="clip_0"><rect width="278" height="177"></rect></clipPath><g><g><g><line x1="8.682952251794873" y1="0" x2="8.682952251794873" y2="177" fill="rgb(0, 0, 0)" stroke="rgb(66, 66, 66)" stroke-width="1px" opacity="0.25"></line><line x1="40.6670220737435" y1="0" x2="40.6670220737435" y2="177" fill="rgb(0, 0, 0)" stroke="rgb(66, 66, 66)" stroke-width="1px" opacity="0.25"></line><line x1="72.65109189569212" y1="0" x2="72.65109189569212" y2="177" fill="rgb(0, 0, 0)" stroke="rgb(66, 66, 66)" stroke-width="1px" opacity="0.25"></line><line x1="104.63516171764074" y1="0" x2="104.63516171764074" y2="177" fill="rgb(0, 0, 0)" stroke="rgb(66, 66, 66)" stroke-width="1px" opacity="0.25"></line><line x1="136.61923153958938" y1="0" x2="136.61923153958938" y2="177" fill="rgb(0, 0, 0)" stroke="rgb(66, 66, 66)" stroke-width="1px" opacity="0.25"></line><line x1="168.603301361538" y1="0" x2="168.603301361538" y2="177" fill="rgb(0, 0, 0)" stroke="rgb(66, 66, 66)" stroke-width="1px" opacity="0.25"></line><line x1="200.58737118348662" y1="0" x2="200.58737118348662" y2="177" fill="rgb(0, 0, 0)" stroke="rgb(66, 66, 66)" stroke-width="1px" opacity="0.25"></line><line x1="232.57144100543525" y1="0" x2="232.57144100543525" y2="177" fill="rgb(0, 0, 0)" stroke="rgb(66, 66, 66)" stroke-width="1px" opacity="0.25"></line><line x1="264.5555108273839" y1="0" x2="264.5555108273839" y2="177" fill="rgb(0, 0, 0)" stroke="rgb(66, 66, 66)" stroke-width="1px" opacity="0.25"></line></g><g><line x1="0" y1="174.5638320917101" x2="278.4375" y2="174.5638320917101" fill="rgb(0, 0, 0)" stroke="rgb(66, 66, 66)" stroke-width="1px" opacity="0.25"></line><line x1="0" y1="154.2318712082625" x2="278.4375" y2="154.2318712082625" fill="rgb(0, 0, 0)" stroke="rgb(66, 66, 66)" stroke-width="1px" opacity="0.25"></line><line x1="0" y1="133.89991032481487" x2="278.4375" y2="133.89991032481487" fill="rgb(0, 0, 0)" stroke="rgb(66, 66, 66)" stroke-width="1px" opacity="0.25"></line><line x1="0" y1="113.56794944136749" x2="278.4375" y2="113.56794944136749" fill="rgb(0, 0, 0)" stroke="rgb(66, 66, 66)" stroke-width="1px" opacity="0.25"></line><line x1="0" y1="93.23598855791987" x2="278.4375" y2="93.23598855791987" fill="rgb(0, 0, 0)" stroke="rgb(66, 66, 66)" stroke-width="1px" opacity="0.25"></line><line x1="0" y1="72.90402767447225" x2="278.4375" y2="72.90402767447225" fill="rgb(0, 0, 0)" stroke="rgb(66, 66, 66)" stroke-width="1px" opacity="0.25"></line><line x1="0" y1="52.572066791024646" x2="278.4375" y2="52.572066791024646" fill="rgb(0, 0, 0)" stroke="rgb(66, 66, 66)" stroke-width="1px" opacity="0.25"></line><line x1="0" y1="32.24010590757702" x2="278.4375" y2="32.24010590757702" fill="rgb(0, 0, 0)" stroke="rgb(66, 66, 66)" stroke-width="1px" opacity="0.25"></line><line x1="0" y1="11.908145024129416" x2="278.4375" y2="11.908145024129416" fill="rgb(0, 0, 0)" stroke="rgb(66, 66, 66)" stroke-width="1px" opacity="0.25"></line></g></g></g><g><g><line x1="0" y1="1780.7887418840703" x2="278.4375" y2="1780.7887418840703" fill="rgb(0, 0, 0)" stroke="rgb(153, 153, 153)" stroke-width="1.5px"></line></g></g><g><g><line x1="40.6670220737435" y1="0" x2="40.6670220737435" y2="177" fill="rgb(0, 0, 0)" stroke="rgb(153, 153, 153)" stroke-width="1.5px"></line></g></g><g><g><g><g><g><path stroke="rgb(255, 112, 67)" stroke-width="2px" d="M72.84299631462382,174.56378846405516L73.1628370128433,174.56378846405516L73.25878922230915,174.56378846405516L73.45069364124083,174.56378846405516L73.96243875839201,174.56378846405516L74.02640689803592,174.56378846405516L74.0903750376798,174.56378846405516L74.12235910750177,174.56378846405516L74.18632724714566,174.56378846405516L74.37823166607734,174.56378846405516L74.41021573589929,174.56378846405516L74.47418387554319,174.56378846405516L74.76204050394072,174.56378846405516L74.95394492287241,174.56378846405516L74.98592899269437,174.56378846405516L75.01791306251631,174.56378846405516L75.04989713233826,174.56378846405516L75.20981748144801,174.56378846405516L75.4656900400236,174.56378846405516L75.68957852877723,174.56378846405516L75.94545108735282,93.23602249054035L76.04140329681867,93.23602249054035L76.07338736664063,93.23602249054035L76.29727585539426,93.23602249054035L76.457196204504,93.23602249054035L76.71306876307959,93.23602249054035L76.80902097254544,93.23602249054035L76.8410050423674,93.23602249054035L77.12886167076492,93.23602249054035L77.19282981040882,93.23602249054035L77.22481388023077,93.23602249054035L77.48068643880637,93.23602249054035L77.6406067879161,93.23602249054035L77.73655899738195,93.23602249054035L78.0244156257795,93.23602249054035L78.05639969560144,93.23602249054035L78.34425632399896,93.23602249054035L78.37624039382092,93.23602249054035L78.53616074293066,93.23602249054035L78.60012888257457,93.23602249054035L78.63211295239651,93.23602249054035L78.7600492316843,93.23602249054035L79.0159217902599,93.23602249054035L79.27179434883548,72.90408099716164L79.30377841865743,72.90408099716164L79.33576248847939,72.90408099716164L79.46369876776718,72.90408099716164L79.81552353580861,72.90408099716164L80.00742795474031,72.90408099716164L80.16734830385003,72.90408099716164L80.26330051331588,72.90408099716164L80.64710935117928,72.90408099716164L80.83901377011097,72.90408099716164L80.9989341192207,72.90408099716164L81.09488632868656,72.90408099716164L81.22282260797435,72.90408099716164L81.35075888726215,72.90408099716164L81.41472702690605,72.90408099716164L82.02242435352306,72.90408099716164L82.1823447026328,72.90408099716164L82.21432877245475,72.90408099716164L82.3742491215645,72.90408099716164L82.5021854008523,72.90408099716164L82.53416947067424,72.90408099716164L82.59813761031815,72.90408099716164L82.85401016889372,72.90408099716164L82.88599423871567,72.90408099716164L83.07789865764737,72.90408099716164L83.10988272746931,72.90408099716164L83.14186679729127,72.90408099716164L83.23781900675712,72.90408099716164L83.52567563515464,72.90408099716164L83.78154819373025,72.90408099716164L84.29329331088141,72.90408099716164L84.42122959016922,72.90408099716164L84.6131340091009,72.90408099716164L84.74107028838871,72.90408099716164L84.80503842803259,72.90408099716164L85.18884726589599,72.90408099716164L85.22083133571793,72.90408099716164L85.73257645286911,11.908135329094943L86.14836936055443,11.908135329094943L86.18035343037639,11.908135329094943L86.24432157002028,11.908135329094943L86.43622598895197,11.908135329094943L86.72408261734951,11.908135329094943L86.7880507569934,11.908135329094943L86.82003482681536,11.908135329094943L86.91598703628121,11.908135329094943L87.1078914552129,11.908135329094943L87.39574808361043,11.908135329094943L87.49170029307628,11.908135329094943L87.52368436289822,11.908135329094943L87.81154099129577,11.908135329094943L87.84352506111772,11.908135329094943L88.32328610844695,11.908135329094943L88.38725424809084,11.908135329094943L88.45122238773475,11.908135329094943L88.89899936524202,52.57201831585236L89.05891971435176,52.57201831585236L89.12288785399566,52.57201831585236L89.21884006346151,52.57201831585236L89.47471262203709,52.57201831585236L89.66661704096879,52.57201831585236L89.73058518061269,52.57201831585236L89.82653739007853,52.57201831585236L90.01844180901021,52.57201831585236L90.17836215811997,52.57201831585236L90.49820285633946,52.57201831585236L90.56217099598335,52.57201831585236L90.69010727527113,52.57201831585236L90.88201169420283,52.57201831585236L91.00994797349063,52.57201831585236L91.04193204331258,52.57201831585236L91.20185239242232,52.57201831585236L91.26582053206623,52.57201831585236L91.29780460188816,52.57201831585236L91.36177274153206,52.57201831585236L91.42574088117595,52.57201831585236L91.4577249509979,52.57201831585236L91.61764530010765,52.57201831585236L91.6496293699296,52.57201831585236L91.93748599832713,72.90408099716164L92.12939041725883,72.90408099716164L92.19335855690272,72.90408099716164L92.35327890601248,72.90408099716164L92.51319925512222,72.90408099716164L92.57716739476612,72.90408099716164L92.96097623262949,72.90408099716164L93.18486472138314,72.90408099716164L93.2168487912051,72.90408099716164L93.28081693084897,72.90408099716164L93.31280100067093,72.90408099716164L93.34478507049288,72.90408099716164L93.37676914031482,72.90408099716164L93.44073727995873,72.90408099716164L93.53668948942457,72.90408099716164L93.66462576871237,72.90408099716164L93.82454611782211,72.90408099716164L93.92049832728794,72.90408099716164L94.04843460657574,72.90408099716164L94.14438681604159,72.90408099716164L94.17637088586355,72.90408099716164L94.24033902550744,72.90408099716164L94.27232309532938,72.90408099716164L94.36827530479523,72.90408099716164L94.40025937461719,72.90408099716164L94.49621158408303,72.90408099716164L94.52819565390499,72.90408099716164L94.68811600301471,72.90408099716164L94.72010007283667,72.90408099716164L94.94398856159032,72.90408099716164L95.03994077105617,72.90408099716164L95.16787705034396,72.90408099716164L95.2638292598098,72.90408099716164L95.32779739945369,72.90408099716164L95.39176553909759,72.90408099716164L95.51970181838539,72.90408099716164L95.64763809767318,72.90408099716164L95.74359030713903,72.90408099716164L95.77557437696098,72.90408099716164L95.80755844678293,72.90408099716164L96.03144693553656,72.90408099716164L96.22335135446825,72.90408099716164L96.28731949411215,72.90408099716164L96.3193035639341,72.90408099716164L96.4472398432219,72.90408099716164L96.57517612250969,72.90408099716164L96.67112833197554,72.90408099716164L96.70311240179748,72.90408099716164L96.73509647161943,72.90408099716164L96.79906461126333,72.90408099716164L96.86303275090722,72.90408099716164L97.15088937930477,72.90408099716164L97.1828734491267,72.90408099716164L97.27882565859255,72.90408099716164L97.3108097284145,72.90408099716164L97.34279379823646,72.90408099716164L97.40676193788035,72.90408099716164L97.4387460077023,72.90408099716164L97.63065042663399,72.90408099716164L97.7585867059218,72.90408099716164L97.79057077574375,72.90408099716164L97.85453891538762,72.90408099716164L97.91850705503153,72.90408099716164L98.01445926449738,72.90408099716164L98.04644333431932,72.90408099716164L98.07842740414128,72.90408099716164L98.11041147396323,72.90408099716164L98.20636368342907,72.90408099716164L98.33429996271687,133.89990547729775L98.4942203118266,133.89990547729775L98.52620438164855,133.89990547729775L98.5581884514705,133.89990547729775L98.7500928704022,133.89990547729775L98.9419972893339,133.89990547729775L99.06993356862169,133.89990547729775L99.16588577808753,133.89990547729775L99.29382205737532,133.89990547729775L99.42175833666312,133.89990547729775L99.48572647630702,133.89990547729775L99.64564682541676,133.89990547729775L99.74159903488261,133.89990547729775L100.41326450114353,133.89990547729775L100.47723264078742,133.89990547729775L100.50921671060937,133.89990547729775L100.63715298989716,133.89990547729775L100.70112112954106,133.89990547729775L100.82905740882886,133.89990547729775L100.89302554847276,133.89990547729775L101.14889810704834,133.89990547729775L101.34080252598004,133.89990547729775L101.46873880526783,113.56796398391907L101.69262729402148,113.56796398391907L101.72461136384342,113.56796398391907L101.75659543366535,113.56796398391907L101.78857950348731,113.56796398391907L101.94849985259705,113.56796398391907L102.01246799224096,113.56796398391907L102.1084202017068,113.56796398391907L102.14040427152875,113.56796398391907L102.20437241117266,113.56796398391907L102.46024496974823,113.56796398391907L102.49222903957018,113.56796398391907L102.58818124903603,113.56796398391907L102.81206973778967,113.56796398391907L102.90802194725552,113.56796398391907L103.19587857565305,113.56796398391907L103.25984671529694,113.56796398391907L103.2918307851189,113.56796398391907L103.32381485494085,113.56796398391907L103.4197670644067,113.56796398391907L103.45175113422864,113.56796398391907L103.57968741351644,113.56796398391907L103.73960776262618,113.56796398391907L103.77159183244812,113.56796398391907L103.89952811173592,113.56796398391907L103.93151218155788,113.56796398391907L103.96349625137982,113.56796398391907L103.99548032120177,113.56796398391907L104.12341660048956,113.56796398391907L104.15540067031152,113.56796398391907L104.25135287977736,113.56796398391907L104.28333694959932,113.56796398391907L104.53920950817489,113.56796398391907L104.66714578746269,72.90408099716164L104.73111392710659,72.90408099716164L104.7950820667505,72.90408099716164L104.82706613657244,72.90408099716164L105.05095462532607,72.90408099716164L105.08293869514802,72.90408099716164L105.11492276496996,72.90408099716164L105.21087497443581,72.90408099716164L105.46674753301141,72.90408099716164L105.5307156726553,72.90408099716164L105.65865195194309,72.90408099716164L105.69063602176504,72.90408099716164L105.7865882312309,72.90408099716164L105.85055637087478,72.90408099716164L106.07444485962843,72.90408099716164L106.42626962766987,72.90408099716164L106.49023776731376,72.90408099716164L106.68214218624546,72.90408099716164L106.7141262560674,72.90408099716164L106.7780943957113,72.90408099716164L106.8420625353552,72.90408099716164L106.969998814643,72.90408099716164L107.09793509393079,72.90408099716164L107.16190323357468,72.90408099716164L107.32182358268443,72.90408099716164L107.35380765250638,72.90408099716164L107.38579172232832,72.90408099716164L107.64166428090392,72.90408099716164L107.83356869983561,72.90408099716164L107.9615049791234,113.56796398391907L107.99348904894535,113.56796398391907L108.0254731187673,113.56796398391907L108.31332974716483,113.56796398391907L108.37729788680873,113.56796398391907L108.47325009627457,113.56796398391907L108.66515451520627,113.56796398391907L108.69713858502821,113.56796398391907L108.92102707378187,113.56796398391907L108.98499521342575,113.56796398391907L109.62467660986472,113.56796398391907L109.65666067968667,113.56796398391907L109.78459695897448,113.56796398391907L109.81658102879642,113.56796398391907L109.84856509861837,113.56796398391907L110.42427835541343,113.56796398391907L110.52023056487928,113.56796398391907L110.58419870452319,113.56796398391907L110.80808719327683,113.56796398391907L110.84007126309878,113.56796398391907L111.03197568203046,113.56796398391907L111.09594382167437,72.90408099716164L111.25586417078411,72.90408099716164L111.31983231042801,72.90408099716164L111.3838004500719,72.90408099716164L111.5117367293597,72.90408099716164L111.83157742757918,72.90408099716164L112.08744998615478,72.90408099716164L112.11943405597673,72.90408099716164L112.15141812579867,72.90408099716164L112.21538626544258,72.90408099716164L112.31133847490841,72.90408099716164L112.47125882401815,72.90408099716164L112.567211033484,72.90408099716164L112.7591154524157,72.90408099716164L112.8230835920596,72.90408099716164L112.88705173170348,72.90408099716164L112.91903580152542,72.90408099716164L113.01498801099127,72.90408099716164L113.07895615063518,72.90408099716164L113.17490836010103,72.90408099716164L113.43078091867662,72.90408099716164L113.65466940743025,72.90408099716164L113.84657382636195,72.90408099716164L113.97451010564974,72.90408099716164L114.00649417547169,72.90408099716164L114.03847824529365,72.90408099716164L114.07046231511559,72.90408099716164L114.26236673404728,154.23184697067646L114.35831894351313,154.23184697067646L114.58220743226677,154.23184697067646L114.64617557191066,154.23184697067646L114.74212778137651,154.23184697067646L114.77411185119847,154.23184697067646L114.87006406066429,154.23184697067646L115.06196847959599,154.23184697067646L115.1259366192399,154.23184697067646L115.22188882870574,154.23184697067646L115.3178410381716,154.23184697067646L115.34982510799354,154.23184697067646L115.41379324763743,154.23184697067646L115.44577731745939,154.23184697067646L115.63768173639107,154.23184697067646L116.02149057425446,154.23184697067646L116.37331534229588,154.23184697067646L116.50125162158368,154.23184697067646L116.78910824998123,154.23184697067646L116.94902859909097,154.23184697067646L116.98101266891291,154.23184697067646L117.07696487837876,154.23184697067646L117.1089489482007,154.23184697067646L117.17291708784461,154.23184697067646L117.20490115766655,154.23184697067646L117.3008533671324,154.23184697067646L117.84458255410553,93.23602249054035L117.87656662392747,93.23602249054035L117.90855069374942,93.23602249054035L118.06847104285917,93.23602249054035L118.16442325232501,93.23602249054035L118.2923595316128,93.23602249054035L118.32434360143475,93.23602249054035L118.35632767125671,93.23602249054035L118.4842639505445,93.23602249054035L118.51624802036645,93.23602249054035L118.6122002298323,93.23602249054035L118.74013650912009,93.23602249054035L118.80410464876398,93.23602249054035L119.25188162627127,93.23602249054035L119.5397382546688,93.23602249054035L119.57172232449075,93.23602249054035L119.92354709253219,93.23602249054035L120.17941965110776,93.23602249054035L120.21140372092972,93.23602249054035L120.30735593039557,93.23602249054035L120.37132407003946,93.23602249054035L120.40330813986141,93.23602249054035L120.65918069843701,113.56796398391907L120.69116476825896,113.56796398391907L120.72314883808089,113.56796398391907L120.8510851173687,113.56796398391907L120.91505325701259,113.56796398391907L120.97902139665649,113.56796398391907L121.23489395523208,113.56796398391907L121.39481430434184,113.56796398391907L121.42679837416377,113.56796398391907L121.52275058362962,113.56796398391907L121.74663907238326,113.56796398391907L122.13044791024663,113.56796398391907L122.29036825935638,113.56796398391907L122.32235232917833,113.56796398391907L122.38632046882223,113.56796398391907L122.41830453864418,113.56796398391907L122.61020895757588,113.56796398391907L122.83409744632951,113.56796398391907L122.86608151615145,113.56796398391907L123.153938144549,113.56796398391907L123.2818744238368,113.56796398391907L123.3458425634807,113.56796398391907L123.47377884276848,113.56796398391907L123.76163547116602,113.56796398391907L123.98552395991968,93.23602249054035L124.0175080297416,93.23602249054035L124.17742837885135,93.23602249054035L124.43330093742695,93.23602249054035L124.49726907707084,93.23602249054035L124.72115756582447,93.23602249054035L124.75314163564643,93.23602249054035L124.88107791493422,93.23602249054035L125.04099826404396,93.23602249054035L125.13695047350981,93.23602249054035L125.20091861315372,93.23602249054035L125.29687082261957,93.23602249054035L125.3928230320854,93.23602249054035L125.5207593113732,93.23602249054035L125.77663186994879,93.23602249054035L126.03250442852436,93.23602249054035L126.09647256816827,93.23602249054035L126.16044070781217,93.23602249054035L126.256392917278,93.23602249054035L126.28837698709997,93.23602249054035L126.48028140603166,93.23602249054035L126.51226547585361,93.23602249054035L126.76813803442919,93.23602249054035L126.86409024389503,93.23602249054035L126.89607431371698,93.23602249054035L126.92805838353894,93.23602249054035L126.96004245336088,93.23602249054035L127.02401059300479,93.23602249054035L127.11996280247062,113.56796398391907L127.34385129122427,113.56796398391907L127.37583536104621,113.56796398391907L127.59972384979986,113.56796398391907L127.6317079196218,113.56796398391907L127.66369198944375,113.56796398391907L127.95154861784128,113.56796398391907L128.07948489712908,113.56796398391907L128.143453036773,113.56796398391907L128.17543710659493,113.56796398391907L128.23940524623885,113.56796398391907L128.39932559534856,113.56796398391907L128.43130966517052,113.56796398391907L128.4952778048144,113.56796398391907L128.52726187463637,113.56796398391907L128.55924594445833,113.56796398391907L128.71916629356807,113.56796398391907L129.16694327107533,113.56796398391907L129.45479989947287,113.56796398391907L129.64670431840457,113.56796398391907L129.8705928071582,113.56796398391907L129.90257687698016,113.56796398391907L130.1904335053777,113.56796398391907L130.41432199413134,93.23602249054035L130.67019455270693,93.23602249054035L130.70217862252886,93.23602249054035L130.7981308319947,93.23602249054035L131.02201932074834,93.23602249054035L131.08598746039226,93.23602249054035L131.21392373968004,93.23602249054035L131.53376443789952,93.23602249054035L131.56574850772148,93.23602249054035L131.66170071718733,93.23602249054035L131.82162106629707,93.23602249054035L131.94955734558488,93.23602249054035L132.3653502532702,93.23602249054035L132.4293183929141,93.23602249054035L132.46130246273606,93.23602249054035L132.65320688166773,93.23602249054035L132.6851909514897,93.23602249054035L132.71717502131165,93.23602249054035L132.78114316095554,93.23602249054035L132.84511130059943,93.23602249054035L133.22892013846283,93.23602249054035L133.51677676686035,113.56796398391907L133.64471304614815,113.56796398391907L133.8046333952579,113.56796398391907L133.9965378141896,113.56796398391907L134.18844223312126,113.56796398391907L134.22042630294322,113.56796398391907L134.41233072187492,113.56796398391907L134.5402670011627,113.56796398391907L134.6042351408066,113.56796398391907L134.6682032804505,113.56796398391907L134.86010769938218,113.56796398391907L134.95605990884803,113.56796398391907L135.02002804849192,113.56796398391907L135.11598025795777,113.56796398391907L135.21193246742362,113.56796398391907L135.30788467688947,113.56796398391907L135.3718528165334,113.56796398391907L135.59574130528702,113.56796398391907L135.6597094449309,113.56796398391907L136.0435182827943,113.56796398391907L136.07550235261624,113.56796398391907L136.10748642243817,113.56796398391907L136.55526339994546,113.56796398391907L136.68319967923327,133.89990547729775L136.81113595852105,133.89990547729775L136.93907223780886,133.89990547729775L136.9710563076308,133.89990547729775L137.06700851709664,133.89990547729775L137.13097665674056,133.89990547729775L137.19494479638445,133.89990547729775L137.45081735496004,133.89990547729775L137.51478549460393,133.89990547729775L137.61073770406978,133.89990547729775L137.70668991353563,133.89990547729775L137.80264212300148,133.89990547729775L137.86661026264537,133.89990547729775L137.96256247211122,133.89990547729775L138.05851468157707,133.89990547729775L138.09049875139902,133.89990547729775L138.57025979872824,133.89990547729775L138.79414828748187,133.89990547729775L138.95406863659161,133.89990547729775L138.98605270641357,133.89990547729775L139.0180367762355,133.89990547729775L139.08200491587942,133.89990547729775L139.11398898570135,133.89990547729775L139.17795712534527,133.89990547729775L139.24192526498916,133.89990547729775L139.36986154427697,133.89990547729775L139.49779782356472,133.89990547729775L139.6577181726745,133.89990547729775L139.72168631231838,133.89990547729775L139.945574801072,154.23184697067646L140.00954294071593,154.23184697067646L140.0415270105379,154.23184697067646L140.1374792200037,154.23184697067646L140.20144735964763,154.23184697067646L140.3293836389354,154.23184697067646L140.42533584840126,154.23184697067646L140.48930398804515,154.23184697067646L140.55327212768904,154.23184697067646L140.585256197511,154.23184697067646L140.90509689573048,154.23184697067646L140.93708096555244,154.23184697067646L141.06501724484025,154.23184697067646L141.16096945430607,154.23184697067646L141.25692166377192,154.23184697067646L141.28890573359388,154.23184697067646L141.3848579430597,154.23184697067646L141.41684201288166,154.23184697067646L141.48081015252555,154.23184697067646L141.6407305016353,154.23184697067646L141.67271457145725,154.23184697067646L141.89660306021088,154.23184697067646L141.92858713003287,154.23184697067646L142.05652340932062,154.23184697067646L142.1204915489645,154.23184697067646L142.18445968860843,154.23184697067646L142.3123959678962,154.23184697067646L142.63223666611572,154.23184697067646L142.6962048057596,154.23184697067646L142.7601729454035,154.23184697067646L142.79215701522546,154.23184697067646L142.92009329451324,154.23184697067646L143.01604550397911,154.23184697067646L143.2719180625547,113.56796398391907L143.39985434184246,113.56796398391907L143.49580655130833,113.56796398391907L143.84763131934974,113.56796398391907L143.97556759863755,113.56796398391907L144.03953573828144,113.56796398391907L144.1354879477473,113.56796398391907L144.19945608739118,113.56796398391907L144.23144015721314,113.56796398391907L144.29540829685703,113.56796398391907L144.35937643650095,113.56796398391907L144.39136050632288,113.56796398391907L144.45532864596677,113.56796398391907L144.51929678561066,113.56796398391907L144.55128085543265,113.56796398391907L144.6792171347204,113.56796398391907L144.71120120454236,113.56796398391907L144.77516934418628,113.56796398391907L144.8711215536521,113.56796398391907L145.03104190276187,113.56796398391907L145.41485074062524,113.56796398391907L145.54278701991302,113.56796398391907L145.6387392293789,113.56796398391907L145.95857992759835,113.56796398391907L146.15048434653005,113.56796398391907L146.182468416352,113.56796398391907L146.2464365559959,154.23184697067646L146.34238876546175,154.23184697067646L146.4383409749276,154.23184697067646L146.47032504474953,154.23184697067646L146.50230911457152,154.23184697067646L146.82214981279097,154.23184697067646L146.85413388261293,154.23184697067646L146.88611795243486,154.23184697067646L146.95008609207878,154.23184697067646L147.33389492994215,154.23184697067646L147.3658789997641,154.23184697067646L147.39786306958607,154.23184697067646L147.429847139408,154.23184697067646L147.6857196979836,154.23184697067646L147.9735763263811,154.23184697067646L148.13349667549087,154.23184697067646L148.38936923406646,154.23184697067646L148.4213533038884,154.23184697067646L148.51730551335427,154.23184697067646L148.8691302813957,154.23184697067646L148.96508249086153,154.23184697067646L149.06103470032738,154.23184697067646L149.09301877014934,154.23184697067646L149.1250028399713,154.23184697067646L149.1889709796152,154.23184697067646L149.44484353819075,93.23602249054035L149.50881167783464,93.23602249054035L149.57277981747856,93.23602249054035L149.63674795712245,93.23602249054035L149.95658865534196,93.23602249054035L150.21246121391755,93.23602249054035L150.24444528373948,93.23602249054035L150.40436563284925,93.23602249054035L150.59627005178092,93.23602249054035L150.8521426103565,93.23602249054035L151.0440470292882,93.23602249054035L151.07603109911017,93.23602249054035L151.1080151689321,93.23602249054035L151.13999923875406,93.23602249054035L151.20396737839792,93.23602249054035L151.3638877275077,93.23602249054035L151.97158505412472,93.23602249054035L152.0355531937686,93.23602249054035L152.16348947305642,93.23602249054035L152.19547354287835,93.23602249054035L152.51531424109783,93.23602249054035L152.57928238074174,93.23602249054035L152.67523459020757,154.23184697067646L152.70721866002953,154.23184697067646L152.73920272985146,154.23184697067646L153.05904342807096,154.23184697067646L153.09102749789292,154.23184697067646L153.18697970735874,154.23184697067646L153.25094784700266,154.23184697067646L153.37888412629044,154.23184697067646L153.44285226593436,154.23184697067646L153.53880447540018,154.23184697067646L153.60277261504407,154.23184697067646L153.666740754688,154.23184697067646L153.73070889433188,154.23184697067646L154.0185655227294,154.23184697067646L154.1465018020172,154.23184697067646L154.274438081305,154.23184697067646L154.3384062209489,154.23184697067646L154.43435843041473,154.23184697067646L154.5303106398806,154.23184697067646L154.7222150588123,154.23184697067646L154.75419912863424,154.23184697067646L154.88213540792202,154.23184697067646L154.9780876173879,154.23184697067646L155.07403982685372,154.23184697067646L155.1380079664976,154.23184697067646L155.29792831560735,154.23184697067646L155.42586459489516,154.23184697067646L155.521816804361,154.23184697067646L155.55380087418294,154.23184697067646L155.58578494400493,154.23184697067646L155.61776901382686,154.23184697067646L155.7137212232927,154.23184697067646L155.8416575025805,154.23184697067646L156.0335619215122,154.23184697067646L156.06554599133415,154.23184697067646L156.16149820079997,154.23184697067646L156.41737075937556,154.23184697067646L156.5772911084853,154.23184697067646L156.67324331795118,154.23184697067646L156.769195527417,154.23184697067646L156.80117959723896,154.23184697067646L156.86514773688285,154.23184697067646L156.9610999463487,154.23184697067646L156.99308401617066,154.23184697067646L157.05705215581452,154.23184697067646L157.24895657474622,154.23184697067646L157.3449087842121,154.23184697067646L157.44086099367792,154.23184697067646L157.47284506349988,154.23184697067646L157.60078134278768,154.23184697067646L157.79268576171935,154.23184697067646L158.2084786694047,154.23184697067646L158.3364149486925,154.23184697067646L158.4003830883364,154.23184697067646L158.56030343744612,154.23184697067646L158.72022378655586,154.23184697067646L159.00808041495338,154.23184697067646L159.1360166942412,93.23602249054035L159.26395297352897,93.23602249054035L159.35990518299485,93.23602249054035L159.83966623032407,93.23602249054035L160.15950692854358,93.23602249054035L160.1914909983655,93.23602249054035L160.22347506818747,93.23602249054035L160.3194272776533,93.23602249054035L160.511331696585,93.23602249054035L160.7032361155167,93.23602249054035L160.73522018533862,93.23602249054035L160.76720425516058,93.23602249054035L160.79918832498254,93.23602249054035L160.8311723948045,93.23602249054035L160.86315646462643,93.23602249054035L160.8951405344484,93.23602249054035L161.15101309302395,93.23602249054035L161.88664669892879,93.23602249054035L161.91863076875075,93.23602249054035L161.95061483857268,93.23602249054035L162.17450332732633,93.23602249054035L162.52632809536777,72.90408099716164L162.59029623501166,72.90408099716164L162.71823251429944,72.90408099716164L162.97410507287506,72.90408099716164L163.006089142697,72.90408099716164L163.10204135216281,72.90408099716164L163.1660094918067,72.90408099716164L163.1979935616287,72.90408099716164L163.26196170127258,72.90408099716164L163.8696590278896,72.90408099716164L164.02957937699932,72.90408099716164L164.1255315864652,72.90408099716164L164.22148379593102,72.90408099716164L164.50934042432857,72.90408099716164L164.54132449415053,72.90408099716164L164.73322891308223,72.90408099716164L164.79719705272612,72.90408099716164L164.82918112254805,72.90408099716164L165.02108554147975,72.90408099716164L165.11703775094557,72.90408099716164L165.14902182076756,72.90408099716164L165.30894216987727,72.90408099716164L165.3729103095212,72.90408099716164L165.43687844916508,113.56796398391907L165.53283065863093,113.56796398391907L165.5648147284529,113.56796398391907L165.82068728702848,113.56796398391907L165.9806076361382,113.56796398391907L166.0445757757821,113.56796398391907L166.07655984560407,113.56796398391907L166.108543915426,113.56796398391907L166.46036868346744,113.56796398391907L166.78020938168692,113.56796398391907L167.0360819402625,113.56796398391907L167.57981112723564,113.56796398391907L167.73973147634538,113.56796398391907L167.80369961598927,113.56796398391907L167.83568368581123,113.56796398391907L167.93163589527705,113.56796398391907L168.25147659349656,113.56796398391907L168.44338101242826,113.56796398391907L168.57131729171604,113.56796398391907L168.73123764082578,133.89990547729775L168.79520578046967,133.89990547729775L168.8591739201136,133.89990547729775L168.92314205975748,133.89990547729775L168.98711019940137,133.89990547729775L169.11504647868918,133.89990547729775L169.1470305485111,133.89990547729775L169.242982757977,133.89990547729775L169.27496682779892,133.89990547729775L169.30695089762088,133.89990547729775L169.43488717690866,133.89990547729775L169.49885531655258,133.89990547729775L169.5948075260184,133.89990547729775L169.62679159584033,133.89990547729775L169.69075973548425,133.89990547729775L169.850680084594,133.89990547729775L169.9146482242379,133.89990547729775L169.94663229405984,133.89990547729775L169.9786163638818,133.89990547729775L170.1705207828135,133.89990547729775L170.23448892245736,133.89990547729775L170.33044113192324,133.89990547729775L170.61829776032076,133.89990547729775L170.7142499697866,133.89990547729775L170.77821810943053,133.89990547729775L170.8421862490744,133.89990547729775L170.90615438871828,133.89990547729775L170.97012252836217,133.89990547729775L171.25797915675975,133.89990547729775L171.38591543604753,133.89990547729775L171.44988357569144,133.89990547729775L171.54583578515727,133.89990547729775L171.80170834373286,133.89990547729775L171.92964462302066,93.23602249054035L172.05758090230844,93.23602249054035L172.24948532124012,93.23602249054035L172.47337380999377,93.23602249054035L172.5373419496377,93.23602249054035L172.6972622987474,93.23602249054035L172.92115078750103,93.23602249054035L173.0171029969669,93.23602249054035L173.04908706678884,93.23602249054035L173.2090074158986,93.23602249054035L173.24099148572054,93.23602249054035L173.2729755555425,93.23602249054035L173.3369436951864,93.23602249054035L173.43289590465224,93.23602249054035L173.59281625376198,93.23602249054035L173.68876846322783,93.23602249054035L173.72075253304976,93.23602249054035L173.78472067269365,93.23602249054035L173.97662509162535,93.23602249054035L174.29646578984486,93.23602249054035L174.5203542785985,93.23602249054035L174.61630648806434,93.23602249054035L174.64829055788627,93.23602249054035L174.8721790466399,93.23602249054035L174.9041631164619,93.23602249054035L174.93614718628382,93.23602249054035L174.96813125610578,93.23602249054035L175.12805160521552,113.56796398391907L175.22400381468137,113.56796398391907L175.99162149040814,113.56796398391907L176.08757369987396,113.56796398391907L176.15154183951785,113.56796398391907L176.31146218862762,113.56796398391907L176.40741439809347,113.56796398391907L176.43939846791542,113.56796398391907L176.50336660755931,113.56796398391907L176.53535067738125,113.56796398391907L176.75923916613488,113.56796398391907L176.82320730577877,113.56796398391907L176.88717544542268,113.56796398391907L177.17503207382023,113.56796398391907L177.33495242292997,113.56796398391907L177.36693649275193,113.56796398391907L177.5588409116836,113.56796398391907L177.6228090513275,113.56796398391907L177.68677719097138,113.56796398391907L177.7507453306153,113.56796398391907L177.87868160990308,113.56796398391907L177.97463381936896,113.56796398391907L178.1025700986567,113.56796398391907L178.3904267270543,93.23602249054035L178.42241079687622,93.23602249054035L178.45439486669818,93.23602249054035L178.64629928562988,93.23602249054035L178.90217184420544,93.23602249054035L179.03010812349325,93.23602249054035L179.09407626313714,93.23602249054035L179.1260603329591,93.23602249054035L179.15804440278103,93.23602249054035L179.28598068206884,93.23602249054035L179.44590103117858,93.23602249054035L179.66978951993224,93.23602249054035L179.92566207850783,93.23602249054035L180.05359835779558,93.23602249054035L180.1815346370834,93.23602249054035L180.24550277672728,93.23602249054035L180.43740719565898,93.23602249054035L180.53335940512486,93.23602249054035L180.59732754476875,93.23602249054035L180.6612956844126,93.23602249054035L180.7252638240565,93.23602249054035L180.82121603352238,93.23602249054035L180.88518417316627,93.23602249054035L180.98113638263212,93.23602249054035L181.1090726619199,93.23602249054035L181.17304080156381,93.23602249054035L181.36494522049549,93.23602249054035L181.52486556960523,113.56796398391907L181.55684963942718,113.56796398391907L181.684785918715,113.56796398391907L181.90867440746862,113.56796398391907L182.26049917551006,113.56796398391907L182.3564513849759,113.56796398391907L182.38843545479784,113.56796398391907L182.48438766426372,113.56796398391907L182.64430801337343,113.56796398391907L182.83621243230513,113.56796398391907L182.86819650212706,113.56796398391907L182.99613278141487,113.56796398391907L183.06010092105876,113.56796398391907L183.25200533999046,113.56796398391907L183.2839894098124,113.56796398391907L183.3479575494563,113.56796398391907L183.4758938287441,113.56796398391907L183.69978231749775,113.56796398391907L183.89168673642945,113.56796398391907L183.9876389458953,113.56796398391907L184.17954336482697,113.56796398391907L184.4354159234026,113.56796398391907L184.5313681328684,113.56796398391907L184.5953362725123,113.56796398391907L184.62732034233423,93.23602249054035L184.787240691444,93.23602249054035L184.81922476126593,93.23602249054035L184.9151769707318,93.23602249054035L184.9791451103757,93.23602249054035L185.01112918019763,93.23602249054035L185.07509731984155,93.23602249054035L185.23501766895126,93.23602249054035L185.55485836717077,93.23602249054035L185.74676278610247,93.23602249054035L185.81073092574636,93.23602249054035L185.84271499556831,93.23602249054035L185.9706512748561,93.23602249054035L186.00263534467805,93.23602249054035L186.13057162396584,93.23602249054035L186.19453976360975,93.23602249054035L186.38644418254145,93.23602249054035L186.41842825236338,93.23602249054035L186.51438046182923,93.23602249054035L186.642316741117,93.23602249054035L187.0261255789804,93.23602249054035L187.18604592809012,93.23602249054035L187.21802999791208,93.23602249054035L187.281998137556,93.23602249054035L187.56985476595352,93.23602249054035L187.60183883577548,93.23602249054035L187.79374325470718,93.23602249054035L187.8257273245291,93.23602249054035L187.88969546417303,93.23602249054035L188.2735043020364,93.23602249054035L188.4014405813242,93.23602249054035L188.4654087209681,93.23602249054035L188.52937686061196,93.23602249054035L188.62532907007784,93.23602249054035L188.72128127954366,93.23602249054035L189.00913790794124,93.23602249054035L189.20104232687294,93.23602249054035L189.2650104665168,93.23602249054035L189.61683523455824,93.23602249054035L189.6488193043802,93.23602249054035L189.8407237233119,93.23602249054035L190.06461221206553,93.23602249054035L190.8322298877923,93.23602249054035L190.86421395761423,93.23602249054035L190.92818209725814,93.23602249054035L191.024134306724,93.23602249054035L191.08810244636788,93.23602249054035L191.75976791262877,93.23602249054035L191.85572012209465,93.23602249054035L191.98365640138243,93.23602249054035L192.0156404712044,93.23602249054035L192.04762454102635,93.23602249054035L192.11159268067024,93.23602249054035L192.23952895995805,93.23602249054035L192.33548116942387,93.23602249054035L192.39944930906776,93.23602249054035L192.46341744871168,93.23602249054035L192.6873059374653,93.23602249054035L192.78325814693116,93.23602249054035L192.8152422167531,93.23602249054035L192.91119442621897,93.23602249054035L193.07111477532868,93.23602249054035L193.3269873339043,93.23602249054035L193.45492361319208,93.23602249054035L193.51889175283597,93.23602249054035L193.5828598924799,93.23602249054035L193.61484396230182,93.23602249054035L193.80674838123352,93.23602249054035L193.9346846605213,93.23602249054035L193.99865280016522,93.23602249054035L194.0626209398091,93.23602249054035L194.15857314927493,93.23602249054035L194.44642977767248,93.23602249054035L194.51039791731637,93.23602249054035L194.54238198713833,93.23602249054035L194.67031826642614,93.23602249054035L194.83023861553588,93.23602249054035L194.89420675517977,93.23602249054035L195.21404745339925,93.23602249054035L195.27801559304316,93.23602249054035L195.34198373268705,93.23602249054035L195.75777664037238,93.23602249054035L195.88571291966016,93.23602249054035L195.94968105930408,93.23602249054035L196.26952175752356,93.23602249054035L196.4294421066333,93.23602249054035L196.65333059538693,93.23602249054035L196.74928280485278,93.23602249054035L196.8132509444967,93.23602249054035L197.0051553634284,93.23602249054035L197.22904385218203,93.23602249054035L197.45293234093566,113.56796398391907L197.48491641075762,113.56796398391907L197.51690048057955,113.56796398391907L197.58086862022344,113.56796398391907L197.67682082968932,113.56796398391907L197.74078896933318,113.56796398391907L197.93269338826488,113.56796398391907L198.06062966755266,113.56796398391907L198.09261373737465,113.56796398391907L198.2845181563063,113.56796398391907L198.31650222612828,113.56796398391907L198.34848629595024,113.56796398391907L198.50840664505998,113.56796398391907L198.5403907148819,113.56796398391907L198.6683269941697,113.56796398391907L199.02015176221113,113.56796398391907L199.21205618114283,113.56796398391907L199.3399924604306,113.56796398391907L199.40396060007453,113.56796398391907L199.49991280954038,113.56796398391907L199.56388094918427,113.56796398391907L199.75578536811594,113.56796398391907L199.85173757758182,113.56796398391907L199.9796738568696,113.56796398391907L200.1076101361574,113.56796398391907L200.1715782758013,113.56796398391907L200.26753048526714,113.56796398391907L200.33149862491103,113.56796398391907L200.45943490419882,113.56796398391907L200.52340304384273,113.56796398391907L200.58737118348662,113.56796398391907" style="fill: none;" fill="none"></path></g></g></g></g></g></g><g transform="translate(51, 177)" clip-path="url(#clip_1)"><clipPath id="clip_1"><rect width="278" height="23"></rect></clipPath><g><g><line x1="8.682952251794873" y1="0" x2="8.682952251794873" y2="5" style="visibility: inherit;" fill="rgb(0, 0, 0)" stroke="rgb(204, 204, 204)" stroke-width="1px"></line><line x1="40.6670220737435" y1="0" x2="40.6670220737435" y2="5" style="visibility: inherit;" fill="rgb(0, 0, 0)" stroke="rgb(204, 204, 204)" stroke-width="1px"></line><line x1="72.65109189569212" y1="0" x2="72.65109189569212" y2="5" style="visibility: inherit;" fill="rgb(0, 0, 0)" stroke="rgb(204, 204, 204)" stroke-width="1px"></line><line x1="104.63516171764074" y1="0" x2="104.63516171764074" y2="5" style="visibility: inherit;" fill="rgb(0, 0, 0)" stroke="rgb(204, 204, 204)" stroke-width="1px"></line><line x1="136.61923153958938" y1="0" x2="136.61923153958938" y2="5" style="visibility: inherit;" fill="rgb(0, 0, 0)" stroke="rgb(204, 204, 204)" stroke-width="1px"></line><line x1="168.603301361538" y1="0" x2="168.603301361538" y2="5" style="visibility: inherit;" fill="rgb(0, 0, 0)" stroke="rgb(204, 204, 204)" stroke-width="1px"></line><line x1="200.58737118348662" y1="0" x2="200.58737118348662" y2="5" style="visibility: inherit;" fill="rgb(0, 0, 0)" stroke="rgb(204, 204, 204)" stroke-width="1px"></line><line x1="232.57144100543525" y1="0" x2="232.57144100543525" y2="5" style="visibility: inherit;" fill="rgb(0, 0, 0)" stroke="rgb(204, 204, 204)" stroke-width="1px"></line><line x1="264.5555108273839" y1="0" x2="264.5555108273839" y2="5" style="visibility: inherit;" fill="rgb(0, 0, 0)" stroke="rgb(204, 204, 204)" stroke-width="1px"></line></g><g transform="translate(0, 8)"><text x="8.682952251794873" y="0" dx="0em" dy="0.95em" style="text-anchor: middle; visibility: inherit; font-family: Roboto, sans-serif; font-size: 12px; font-weight: 200;" fill="rgb(33, 33, 33)" stroke="none" stroke-width="1px">-1k</text><text x="40.6670220737435" y="0" dx="0em" dy="0.95em" style="text-anchor: middle; visibility: inherit; font-family: Roboto, sans-serif; font-size: 12px; font-weight: 200;" fill="rgb(33, 33, 33)" stroke="none" stroke-width="1px">0</text><text x="72.65109189569212" y="0" dx="0em" dy="0.95em" style="text-anchor: middle; visibility: inherit; font-family: Roboto, sans-serif; font-size: 12px; font-weight: 200;" fill="rgb(33, 33, 33)" stroke="none" stroke-width="1px">1k</text><text x="104.63516171764074" y="0" dx="0em" dy="0.95em" style="text-anchor: middle; visibility: inherit; font-family: Roboto, sans-serif; font-size: 12px; font-weight: 200;" fill="rgb(33, 33, 33)" stroke="none" stroke-width="1px">2k</text><text x="136.61923153958938" y="0" dx="0em" dy="0.95em" style="text-anchor: middle; visibility: inherit; font-family: Roboto, sans-serif; font-size: 12px; font-weight: 200;" fill="rgb(33, 33, 33)" stroke="none" stroke-width="1px">3k</text><text x="168.603301361538" y="0" dx="0em" dy="0.95em" style="text-anchor: middle; visibility: inherit; font-family: Roboto, sans-serif; font-size: 12px; font-weight: 200;" fill="rgb(33, 33, 33)" stroke="none" stroke-width="1px">4k</text><text x="200.58737118348662" y="0" dx="0em" dy="0.95em" style="text-anchor: middle; visibility: inherit; font-family: Roboto, sans-serif; font-size: 12px; font-weight: 200;" fill="rgb(33, 33, 33)" stroke="none" stroke-width="1px">5k</text><text x="232.57144100543525" y="0" dx="0em" dy="0.95em" style="text-anchor: middle; visibility: inherit; font-family: Roboto, sans-serif; font-size: 12px; font-weight: 200;" fill="rgb(33, 33, 33)" stroke="none" stroke-width="1px">6k</text><text x="264.5555108273839" y="0" dx="0em" dy="0.95em" style="text-anchor: middle; visibility: inherit; font-family: Roboto, sans-serif; font-size: 12px; font-weight: 200;" fill="rgb(33, 33, 33)" stroke="none" stroke-width="1px">7k</text></g><line x1="0" y1="0" x2="278.4375" y2="0" fill="rgb(0, 0, 0)" stroke="rgb(204, 204, 204)" stroke-width="1px"></line></g></g></g></g></svg>