<svg viewBox="0 0 330 200" xmlns="http://www.w3.org/2000/svg"><g><g><g><g><g><line x1="40" y1="177" x2="35" y2="177" style="visibility: inherit;" fill="rgb(0, 0, 0)" stroke="rgb(204, 204, 204)" stroke-width="1px"></line><line x1="40" y1="163.3846153846154" x2="35" y2="163.3846153846154" style="visibility: inherit;" fill="rgb(0, 0, 0)" stroke="rgb(204, 204, 204)" stroke-width="1px"></line><line x1="40" y1="149.76923076923077" x2="35" y2="149.76923076923077" style="visibility: inherit;" fill="rgb(0, 0, 0)" stroke="rgb(204, 204, 204)" stroke-width="1px"></line><line x1="40" y1="136.15384615384616" x2="35" y2="136.15384615384616" style="visibility: inherit;" fill="rgb(0, 0, 0)" stroke="rgb(204, 204, 204)" stroke-width="1px"></line><line x1="40" y1="122.53846153846153" x2="35" y2="122.53846153846153" style="visibility: inherit;" fill="rgb(0, 0, 0)" stroke="rgb(204, 204, 204)" stroke-width="1px"></line><line x1="40" y1="108.9230769230769" x2="35" y2="108.9230769230769" style="visibility: inherit;" fill="rgb(0, 0, 0)" stroke="rgb(204, 204, 204)" stroke-width="1px"></line><line x1="40" y1="95.3076923076923" x2="35" y2="95.3076923076923" style="visibility: inherit;" fill="rgb(0, 0, 0)" stroke="rgb(204, 204, 204)" stroke-width="1px"></line><line x1="40" y1="81.69230769230768" x2="35" y2="81.69230769230768" style="visibility: inherit;" fill="rgb(0, 0, 0)" stroke="rgb(204, 204, 204)" stroke-width="1px"></line><line x1="40" y1="68.07692307692307" x2="35" y2="68.07692307692307" style="visibility: inherit;" fill="rgb(0, 0, 0)" stroke="rgb(204, 204, 204)" stroke-width="1px"></line><line x1="40" y1="54.461538461538446" x2="35" y2="54.461538461538446" style="visibility: inherit;" fill="rgb(0, 0, 0)" stroke="rgb(204, 204, 204)" stroke-width="1px"></line><line x1="40" y1="40.84615384615384" x2="35" y2="40.84615384615384" style="visibility: inherit;" fill="rgb(0, 0, 0)" stroke="rgb(204, 204, 204)" stroke-width="1px"></line><line x1="40" y1="27.230769230769194" x2="35" y2="27.230769230769194" style="visibility: inherit;" fill="rgb(0, 0, 0)" stroke="rgb(204, 204, 204)" stroke-width="1px"></line><line x1="40" y1="13.615384615384567" x2="35" y2="13.615384615384567" style="visibility: inherit;" fill="rgb(0, 0, 0)" stroke="rgb(204, 204, 204)" stroke-width="1px"></line><line x1="40" y1="0" x2="35" y2="0" style="visibility: inherit;" fill="rgb(0, 0, 0)" stroke="rgb(204, 204, 204)" stroke-width="1px"></line></g><g transform="translate(30, 0)"><text x="0" y="177" dx="0em" dy="0.3em" style="text-anchor: end; visibility: hidden; font-family: Roboto, sans-serif; font-size: 12px; font-weight: 200;" fill="rgb(33, 33, 33)" stroke="none" stroke-width="1px">0.8</text><text x="0" y="163.3846153846154" dx="0em" dy="0.3em" style="text-anchor: end; visibility: inherit; font-family: Roboto, sans-serif; font-size: 12px; font-weight: 200;" fill="rgb(33, 33, 33)" stroke="none" stroke-width="1px">1</text><text x="0" y="149.76923076923077" dx="0em" dy="0.3em" style="text-anchor: end; visibility: hidden; font-family: Roboto, sans-serif; font-size: 12px; font-weight: 200;" fill="rgb(33, 33, 33)" stroke="none" stroke-width="1px">1.2</text><text x="0" y="136.15384615384616" dx="0em" dy="0.3em" style="text-anchor: end; visibility: inherit; font-family: Roboto, sans-serif; font-size: 12px; font-weight: 200;" fill="rgb(33, 33, 33)" stroke="none" stroke-width="1px">1.4</text><text x="0" y="122.53846153846153" dx="0em" dy="0.3em" style="text-anchor: end; visibility: hidden; font-family: Roboto, sans-serif; font-size: 12px; font-weight: 200;" fill="rgb(33, 33, 33)" stroke="none" stroke-width="1px">1.6</text><text x="0" y="108.9230769230769" dx="0em" dy="0.3em" style="text-anchor: end; visibility: inherit; font-family: Roboto, sans-serif; font-size: 12px; font-weight: 200;" fill="rgb(33, 33, 33)" stroke="none" stroke-width="1px">1.8</text><text x="0" y="95.3076923076923" dx="0em" dy="0.3em" style="text-anchor: end; visibility: hidden; font-family: Roboto, sans-serif; font-size: 12px; font-weight: 200;" fill="rgb(33, 33, 33)" stroke="none" stroke-width="1px">2</text><text x="0" y="81.69230769230768" dx="0em" dy="0.3em" style="text-anchor: end; visibility: inherit; font-family: Roboto, sans-serif; font-size: 12px; font-weight: 200;" fill="rgb(33, 33, 33)" stroke="none" stroke-width="1px">2.2</text><text x="0" y="68.07692307692307" dx="0em" dy="0.3em" style="text-anchor: end; visibility: hidden; font-family: Roboto, sans-serif; font-size: 12px; font-weight: 200;" fill="rgb(33, 33, 33)" stroke="none" stroke-width="1px">2.4</text><text x="0" y="54.461538461538446" dx="0em" dy="0.3em" style="text-anchor: end; visibility: inherit; font-family: Roboto, sans-serif; font-size: 12px; font-weight: 200;" fill="rgb(33, 33, 33)" stroke="none" stroke-width="1px">2.6</text><text x="0" y="40.84615384615384" dx="0em" dy="0.3em" style="text-anchor: end; visibility: hidden; font-family: Roboto, sans-serif; font-size: 12px; font-weight: 200;" fill="rgb(33, 33, 33)" stroke="none" stroke-width="1px">2.8</text><text x="0" y="27.230769230769194" dx="0em" dy="0.3em" style="text-anchor: end; visibility: inherit; font-family: Roboto, sans-serif; font-size: 12px; font-weight: 200;" fill="rgb(33, 33, 33)" stroke="none" stroke-width="1px">3</text><text x="0" y="13.615384615384567" dx="0em" dy="0.3em" style="text-anchor: end; visibility: hidden; font-family: Roboto, sans-serif; font-size: 12px; font-weight: 200;" fill="rgb(33, 33, 33)" stroke="none" stroke-width="1px">3.2</text><text x="0" y="0" dx="0em" dy="0.3em" style="text-anchor: end; visibility: hidden; font-family: Roboto, sans-serif; font-size: 12px; font-weight: 200;" fill="rgb(33, 33, 33)" stroke="none" stroke-width="1px">3.4</text></g><line x1="40" y1="0" x2="40" y2="177" fill="rgb(0, 0, 0)" stroke="rgb(204, 204, 204)" stroke-width="1px"></line></g></g><g transform="translate(40, 0)" clip-path="url(#clip_0)"><clipPath id="clip_0"><rect width="290" height="177"></rect></clipPath><g><g><g><line x1="0" y1="0" x2="0" y2="177" fill="rgb(0, 0, 0)" stroke="rgb(66, 66, 66)" stroke-width="1px" opacity="0.25"></line><line x1="41.42857142857142" y1="0" x2="41.42857142857142" y2="177" fill="rgb(0, 0, 0)" stroke="rgb(66, 66, 66)" stroke-width="1px" opacity="0.25"></line><line x1="82.85714285714285" y1="0" x2="82.85714285714285" y2="177" fill="rgb(0, 0, 0)" stroke="rgb(66, 66, 66)" stroke-width="1px" opacity="0.25"></line><line x1="124.28571428571428" y1="0" x2="124.28571428571428" y2="177" fill="rgb(0, 0, 0)" stroke="rgb(66, 66, 66)" stroke-width="1px" opacity="0.25"></line><line x1="165.7142857142857" y1="0" x2="165.7142857142857" y2="177" fill="rgb(0, 0, 0)" stroke="rgb(66, 66, 66)" stroke-width="1px" opacity="0.25"></line><line x1="207.14285714285714" y1="0" x2="207.14285714285714" y2="177" fill="rgb(0, 0, 0)" stroke="rgb(66, 66, 66)" stroke-width="1px" opacity="0.25"></line><line x1="248.57142857142856" y1="0" x2="248.57142857142856" y2="177" fill="rgb(0, 0, 0)" stroke="rgb(66, 66, 66)" stroke-width="1px" opacity="0.25"></line><line x1="290" y1="0" x2="290" y2="177" fill="rgb(0, 0, 0)" stroke="rgb(66, 66, 66)" stroke-width="1px" opacity="0.25"></line></g><g><line x1="0" y1="177" x2="290" y2="177" fill="rgb(0, 0, 0)" stroke="rgb(66, 66, 66)" stroke-width="1px" opacity="0.25"></line><line x1="0" y1="163.3846153846154" x2="290" y2="163.3846153846154" fill="rgb(0, 0, 0)" stroke="rgb(66, 66, 66)" stroke-width="1px" opacity="0.25"></line><line x1="0" y1="149.76923076923077" x2="290" y2="149.76923076923077" fill="rgb(0, 0, 0)" stroke="rgb(66, 66, 66)" stroke-width="1px" opacity="0.25"></line><line x1="0" y1="136.15384615384616" x2="290" y2="136.15384615384616" fill="rgb(0, 0, 0)" stroke="rgb(66, 66, 66)" stroke-width="1px" opacity="0.25"></line><line x1="0" y1="122.53846153846153" x2="290" y2="122.53846153846153" fill="rgb(0, 0, 0)" stroke="rgb(66, 66, 66)" stroke-width="1px" opacity="0.25"></line><line x1="0" y1="108.9230769230769" x2="290" y2="108.9230769230769" fill="rgb(0, 0, 0)" stroke="rgb(66, 66, 66)" stroke-width="1px" opacity="0.25"></line><line x1="0" y1="95.3076923076923" x2="290" y2="95.3076923076923" fill="rgb(0, 0, 0)" stroke="rgb(66, 66, 66)" stroke-width="1px" opacity="0.25"></line><line x1="0" y1="81.69230769230768" x2="290" y2="81.69230769230768" fill="rgb(0, 0, 0)" stroke="rgb(66, 66, 66)" stroke-width="1px" opacity="0.25"></line><line x1="0" y1="68.07692307692307" x2="290" y2="68.07692307692307" fill="rgb(0, 0, 0)" stroke="rgb(66, 66, 66)" stroke-width="1px" opacity="0.25"></line><line x1="0" y1="54.461538461538446" x2="290" y2="54.461538461538446" fill="rgb(0, 0, 0)" stroke="rgb(66, 66, 66)" stroke-width="1px" opacity="0.25"></line><line x1="0" y1="40.84615384615384" x2="290" y2="40.84615384615384" fill="rgb(0, 0, 0)" stroke="rgb(66, 66, 66)" stroke-width="1px" opacity="0.25"></line><line x1="0" y1="27.230769230769194" x2="290" y2="27.230769230769194" fill="rgb(0, 0, 0)" stroke="rgb(66, 66, 66)" stroke-width="1px" opacity="0.25"></line><line x1="0" y1="13.615384615384567" x2="290" y2="13.615384615384567" fill="rgb(0, 0, 0)" stroke="rgb(66, 66, 66)" stroke-width="1px" opacity="0.25"></line><line x1="0" y1="0" x2="290" y2="0" fill="rgb(0, 0, 0)" stroke="rgb(66, 66, 66)" stroke-width="1px" opacity="0.25"></line></g></g></g><g><g><line x1="0" y1="231.46153846153845" x2="290" y2="231.46153846153845" fill="rgb(0, 0, 0)" stroke="rgb(153, 153, 153)" stroke-width="1.5px"></line></g></g><g><g><line x1="0" y1="0" x2="0" y2="177" fill="rgb(0, 0, 0)" stroke="rgb(153, 153, 153)" stroke-width="1.5px"></line></g></g><g><g><g><g><g><path stroke="rgb(204, 51, 17)" stroke-width="2px" d="M8.285714285714285,14.383293133515544L8.285714285714285,18.073351905608373L8.285714285714285,17.59962335880138L8.285714285714285,17.077814093059818L8.285714285714285,16.64451115435542L8.285714285714285,15.965797536537574L8.285714285714285,15.532606884988152L8.285714285714285,15.246758579074836L8.285714285714285,15.096625705756665L8.285714285714285,14.964476030153154L8.285714285714285,14.700304850830689L8.285714285714285,14.657922435892232L8.285714285714285,14.611111532141893L8.285714285714285,14.646303510432281L8.285714285714285,14.714472111329073L8.285714285714285,14.857160346454151L8.285714285714285,15.157524012136598L8.285714285714285,15.38044698697972L8.285714285714285,15.69265388797846L8.285714285714285,16.0673425257798L8.285714285714285,16.60028585486175L8.285714285714285,17.17065308983543L8.285714285714285,17.746836003952037L8.285714285714285,18.223596340196448L8.285714285714285,18.63437272430597L8.285714285714285,19.13265845893215L8.285714285714285,19.837292028242928L8.285714285714285,20.502640124709245L8.285714285714285,21.158285918814908L8.285714285714285,21.804789522692868L8.285714285714285,22.40859909297238L8.285714285714285,22.93217885260857L16.57142857142857,27.11549169080027L16.57142857142857,30.84535526872112L16.57142857142857,34.935035216908744L16.57142857142857,38.44899420363904L16.57142857142857,41.30144317852244L16.57142857142857,43.63427059741277L16.57142857142857,45.657728443226276L16.57142857142857,47.628833190252486L16.57142857142857,49.15981044894934L16.57142857142857,50.697357501146364L16.57142857142857,52.22489071299532L16.57142857142857,53.61675176114392L16.57142857142857,54.95757150158559L16.57142857142857,56.1220754358392L16.57142857142857,57.27639369909743L16.57142857142857,58.34535565644964L16.57142857142857,59.42352568285541L16.57142857142857,60.44893929158383L16.57142857142857,61.48708931434129L16.57142857142857,62.60124716393631L16.57142857142857,63.68301751044413L16.57142857142857,64.75183379479785L16.57142857142857,65.71353690631585L16.57142857142857,66.86849935934963L16.57142857142857,68.10811730937235L16.57142857142857,69.28502869981614L16.57142857142857,70.47576322642111L16.57142857142857,71.52708591990988L16.57142857142857,72.64695743602223L16.57142857142857,73.65635398508681L16.57142857142857,74.54270933450582L16.57142857142857,75.37593145984273L16.57142857142857,76.17318134035813L16.57142857142857,76.8999586321177L16.57142857142857,77.75493738153293L24.857142857142858,86.62900416406875L24.857142857142858,92.75661831846989L24.857142857142858,97.56778259512593L24.857142857142858,100.58272739862066L24.857142857142858,102.97219872099895L24.857142857142858,104.83267816128158L24.857142857142858,106.47054155354617L24.857142857142858,108.02064854093845L24.857142857142858,109.5394811665823L24.857142857142858,110.82709756231212L24.857142857142858,111.81584178182052L24.857142857142858,112.67134555426895L24.857142857142858,113.3863309653253L24.857142857142858,114.0979101565464L24.857142857142858,114.72570596290204L24.857142857142858,115.26620047418396L24.857142857142858,115.70598252093254L24.857142857142858,116.09212395694183L24.857142857142858,116.40726924288262L24.857142857142858,116.72495025275795L24.857142857142858,117.07446991502373L24.857142857142858,117.46629326897931L24.857142857142858,117.85970328929972L24.857142857142858,118.2112633461205L24.857142857142858,118.5588863447582L24.857142857142858,118.88555230885089L24.857142857142858,119.16028438811148L24.857142857142858,119.54068957722161L24.857142857142858,119.95728313356547L24.857142857142858,120.30410251345994L33.14285714285714,123.79945488170135L33.14285714285714,125.6574600157819L33.14285714285714,127.01668633366832L33.14285714285714,127.75432942454984L33.14285714285714,127.93261517901385L33.14285714285714,128.32766438056865L33.14285714285714,128.63757838693235L33.14285714285714,129.14385287206272L33.14285714285714,129.35036898197131L33.14285714285714,129.58608384394321L33.14285714285714,129.74961977223703L33.14285714285714,129.8749492403286L33.14285714285714,129.9915182048502L33.14285714285714,130.10703897781968L33.14285714285714,130.30365846828397L33.14285714285714,130.44986479172763L33.14285714285714,130.54028394452047L33.14285714285714,130.6675585667032L33.14285714285714,130.75213104358141L33.14285714285714,130.80219351260595L33.14285714285714,130.86814002952553L33.14285714285714,131.01381150362357L33.14285714285714,131.11660662915838L33.14285714285714,131.232517884441L33.14285714285714,131.31929592911365L33.14285714285714,131.3700089205687L33.14285714285714,131.49563428100808L33.14285714285714,131.61730301119542L33.14285714285714,131.73178694898343L33.14285714285714,131.80302973025644L33.14285714285714,131.86138212042553L33.14285714285714,131.95879362436335L33.14285714285714,132.01633897118157L41.42857142857142,134.01071469401685L41.42857142857142,135.83415042091187L41.42857142857142,136.606565879134L41.42857142857142,137.01298301122563L41.42857142857142,137.39098282611957L41.42857142857142,137.53235276678515L41.42857142857142,137.65158304640553L41.42857142857142,137.55101773227136L41.42857142857142,137.4939579938741L41.42857142857142,137.37381058099803L41.42857142857142,137.268710707423L41.42857142857142,137.15291413424617L41.42857142857142,137.1018705479595L41.42857142857142,137.01803471177385L41.42857142857142,136.9597832858539L41.42857142857142,137.0126052179021L41.42857142857142,137.1182942444678L41.42857142857142,137.1908162131618L41.42857142857142,137.25416890292536L41.42857142857142,137.31297241809372L41.42857142857142,137.3589332440425L41.42857142857142,137.37403591557478L41.42857142857142,137.40777248064035L41.42857142857142,137.34035754697794L41.42857142857142,137.26891162755535L41.42857142857142,137.22604140714927L41.42857142857142,137.1939285095366L41.42857142857142,137.1502416672271L41.42857142857142,137.13550628305444L41.42857142857142,137.0075459391869L49.714285714285715,136.42355806710134L49.714285714285715,135.53754441051285L49.714285714285715,135.8770902553576L49.714285714285715,136.40096692998523L49.714285714285715,136.63267631562314L49.714285714285715,137.1138606667272L49.714285714285715,137.71664679388334L49.714285714285715,138.20787262491504L49.714285714285715,138.52732232739334L49.714285714285715,138.83361368673982L49.714285714285715,139.09939404802867L49.714285714285715,139.29078301274225L49.714285714285715,139.4890445707245L49.714285714285715,139.65498092679346L49.714285714285715,139.78430282658186L49.714285714285715,139.93649939358377L49.714285714285715,139.98586080571104L49.714285714285715,140.04489107188948L49.714285714285715,140.08042883663177L49.714285714285715,140.13291458043423L49.714285714285715,140.17142807990294L49.714285714285715,140.1874816523506L49.714285714285715,140.2698559278056L49.714285714285715,140.36770023833662L49.714285714285715,140.37882444598284L49.714285714285715,140.3365872431946L49.714285714285715,140.23853176105536L49.714285714285715,140.14956398077004L49.714285714285715,140.1126688728352L49.714285714285715,140.07681672263578L49.714285714285715,140.05217334147088L49.714285714285715,140.04118387882303L58,139.37207990357524L58,138.64157727935256L58,137.8502146052767L58,137.72883677384547L58,137.7812083217866L58,137.74548120325656L58,138.00123782978918L58,138.34179506989253L58,138.55871988032087L58,138.7018849187538L58,138.77807716139992L58,138.89749734323675L58,138.97867709282295L58,139.03778690852812L58,139.07641137541177L58,139.11054093605614L58,139.18147213257998L58,139.2306798782471L58,139.25495259193102L58,139.24481409374198L58,139.20270834581297L58,139.3320906889521L58,139.47558912246012L58,139.60096235921247L58,139.69402338416623L58,139.74862757251154L58,139.78991290468866L58,139.86219733021446L58,139.91040752609098L66.28571428571428,140.3078954025555L66.28571428571428,140.1434456899513L66.28571428571428,140.15514359458749L66.28571428571428,140.0294318441659L66.28571428571428,140.0175007935976L66.28571428571428,139.89501567098807L66.28571428571428,140.11386137654605L66.28571428571428,140.2813442419769L66.28571428571428,140.43974338435268L66.28571428571428,140.6084530212357L66.28571428571428,140.83083361575794L66.28571428571428,140.915387927581L66.28571428571428,141.0483349941712L66.28571428571428,141.13936373127038L66.28571428571428,141.18705751757818L66.28571428571428,141.2340698784444L66.28571428571428,141.24407913142716L66.28571428571428,141.25699618820616L66.28571428571428,141.30842443741653L66.28571428571428,141.35169011109355L66.28571428571428,141.3467709032319L66.28571428571428,141.3210392430166L66.28571428571428,141.33176293799866L66.28571428571428,141.3432014383741L66.28571428571428,141.31818305762556L66.28571428571428,141.31430984530743L66.28571428571428,141.30416306976878L66.28571428571428,141.3066112174459L66.28571428571428,141.26776323730968L66.28571428571428,141.2401924872941L66.28571428571428,141.22077673485313L66.28571428571428,141.20682818217333L66.28571428571428,141.21145892874412L66.28571428571428,141.25816098704155L66.28571428571428,141.20622591577197L74.57142857142857,141.01141092505927L74.57142857142857,141.15376474324003L74.57142857142857,141.0563193386688L74.57142857142857,141.09963917025905L74.57142857142857,140.91601910345358L74.57142857142857,140.9282473597617L74.57142857142857,140.97579338416352L74.57142857142857,141.224137130275L74.57142857142857,141.43955582268998L74.57142857142857,141.62614888721345L74.57142857142857,141.8335778466518L74.57142857142857,142.0667829001145L74.57142857142857,142.18420757536092L74.57142857142857,142.30239123423945L74.57142857142857,142.49681243247784L74.57142857142857,142.74662396662524L74.57142857142857,142.92245646809414L74.57142857142857,143.02745075572173L74.57142857142857,143.11323656590906L74.57142857142857,143.15294736128996L74.57142857142857,143.191929994255L74.57142857142857,143.2281774068345L74.57142857142857,143.29515688273366L74.57142857142857,143.29010173821203L74.57142857142857,143.34195227810983L74.57142857142857,143.3593049946636L74.57142857142857,143.39204579898887L74.57142857142857,143.42746180771596L74.57142857142857,143.44538441044628L74.57142857142857,143.40692338133985L82.85714285714285,144.15481384411657L82.85714285714285,144.88158700470973L82.85714285714285,145.36831317218594L82.85714285714285,145.51319598251538L82.85714285714285,145.67492300106832L82.85714285714285,145.67798868907306L82.85714285714285,145.6010991910486L82.85714285714285,145.51074847597675L82.85714285714285,145.4102614644682L82.85714285714285,145.2115081641681L82.85714285714285,145.07714931413395L82.85714285714285,145.05080323748172L82.85714285714285,144.96320037264906L82.85714285714285,144.90093573019027L82.85714285714285,144.8794415091683L82.85714285714285,144.83937870666313L82.85714285714285,144.8462045414578L82.85714285714285,144.89220420874838L82.85714285714285,144.86832647150092L82.85714285714285,144.79065240016456L82.85714285714285,144.75688136578532L82.85714285714285,144.66604280022364L82.85714285714285,144.6368193950189L82.85714285714285,144.6346567580131L82.85714285714285,144.6582509687441L82.85714285714285,144.6644133345888L82.85714285714285,144.67443568985703L82.85714285714285,144.71023200111813L82.85714285714285,144.7407165554006L82.85714285714285,144.74769753077524L82.85714285714285,144.76220298762868L82.85714285714285,144.71881355523746L91.14285714285714,144.78972005836962L91.14285714285714,144.86816895777562L91.14285714285714,144.86670695657787L91.14285714285714,145.18088651787428L91.14285714285714,145.47076750331783L91.14285714285714,145.6971180192813L91.14285714285714,145.69150836259078L91.14285714285714,145.40260460407967L91.14285714285714,145.37893772501616L91.14285714285714,145.42787256858037L91.14285714285714,145.26798443169423L91.14285714285714,145.07797423812534L91.14285714285714,145.03208895769743L91.14285714285714,145.04360886615527L91.14285714285714,144.96249159141493L91.14285714285714,144.88543638953544L91.14285714285714,144.8255636651401L91.14285714285714,144.8152877191693L91.14285714285714,144.8479046104841L91.14285714285714,144.84135722890548L91.14285714285714,144.8396222302776L91.14285714285714,144.84857282432162L91.14285714285714,144.87128651563683L91.14285714285714,144.90352393193584L91.14285714285714,144.90408943068653L91.14285714285714,144.9339413729575L91.14285714285714,144.94195939216132L91.14285714285714,144.88662305091L91.14285714285714,144.8671506609964L99.42857142857143,144.2666535572941L99.42857142857143,143.99540779214516L99.42857142857143,144.2085075287394L99.42857142857143,143.9674293482904L99.42857142857143,143.98969542081227L99.42857142857143,144.0942370080013L99.42857142857143,144.18422213677997L99.42857142857143,144.34816306396104L99.42857142857143,144.54946352089965L99.42857142857143,144.5925870605238L99.42857142857143,144.671298988834L99.42857142857143,144.63018350032544L99.42857142857143,144.64899738136296L99.42857142857143,144.6670309223933L99.42857142857143,144.7651902336684L99.42857142857143,144.8443159059884L99.42857142857143,144.90473942901093L99.42857142857143,144.92249199465797L99.42857142857143,144.9933668976929L99.42857142857143,144.9838483892925L99.42857142857143,145.05806582764532L99.42857142857143,145.14438594605124L99.42857142857143,145.15675473283605L99.42857142857143,145.12268494480222L99.42857142857143,145.12040291342902L99.42857142857143,145.11582612081037L99.42857142857143,145.06933507269622L99.42857142857143,145.0503012074663L99.42857142857143,145.0371453509158L99.42857142857143,145.04321288493335L99.42857142857143,145.07451781511878L99.42857142857143,145.1194464153357L99.42857142857143,145.1542859169135L99.42857142857143,145.17278467987913L99.42857142857143,145.21328194710938L99.42857142857143,145.19787123856264L107.71428571428572,145.37140097878535L107.71428571428572,145.7063699461282L107.71428571428572,145.6001060242094L107.71428571428572,145.4213854995054L107.71428571428572,145.43024124270593L107.71428571428572,145.43573297336832L107.71428571428572,145.51133082592662L107.71428571428572,145.5642209419408L107.71428571428572,145.60018051069034L107.71428571428572,145.7089776933391L107.71428571428572,145.7557590041727L107.71428571428572,145.76626778989336L107.71428571428572,145.73550600143298L107.71428571428572,145.65180835227187L107.71428571428572,145.5729785068066L107.71428571428572,145.57650694355698L107.71428571428572,145.5630215840768L107.71428571428572,145.5829667435125L107.71428571428572,145.5714177498504L107.71428571428572,145.52354131845547L107.71428571428572,145.47588829528348L107.71428571428572,145.4410138344495L107.71428571428572,145.3933993821585L107.71428571428572,145.2650638891328L107.71428571428572,145.16775374947196L107.71428571428572,145.12121529137758L107.71428571428572,145.065826114764L107.71428571428572,145.00696552230207L107.71428571428572,144.96937061228618L107.71428571428572,145.0244630514516L107.71428571428572,145.03332635673053L107.71428571428572,145.079180464773L107.71428571428572,145.12278901217218L107.71428571428572,145.12266819024492L107.71428571428572,145.05464456386704L116,145.20318564864226L116,145.38448313361852L116,145.8303953636616L116,146.22249785001912L116,146.66807681050588L116,146.88421150187844L116,146.71755473515952L116,146.46880923533718L116,146.27393687060163L116,146.18874026802067L116,146.21807930684648L116,146.3619111568915L116,146.52015675770878L116,146.62367855783037L116,146.67825795430568L116,146.74390540283545L116,146.79283480102325L116,146.83909379410386L116,146.87275017192596L116,146.8728707480296L116,146.83613679510773L116,146.7824135648998L116,146.73102941112992L116,146.68729180626025L116,146.62207284508702L116,146.60491275982793L116,146.60056648461165L116,146.59376180296672L116,146.61419731079064L116,146.64253234083444L116,146.69009956046827L124.28571428571428,145.5424784399732L124.28571428571428,145.463243492363L124.28571428571428,145.3363204427583L124.28571428571428,145.47884840924556L124.28571428571428,145.5402668172393L124.28571428571428,145.86228053528748L124.28571428571428,146.154528704358L124.28571428571428,146.572841050432L124.28571428571428,146.84646529827617L124.28571428571428,147.04880404214262L124.28571428571428,147.29953415557117L124.28571428571428,147.56097515882422L124.28571428571428,147.7067213680686L124.28571428571428,147.84286758399355L124.28571428571428,147.96808669469308L124.28571428571428,148.10323649874002L124.28571428571428,148.23157199990445L124.28571428571428,148.33644914906307L124.28571428571428,148.40449108095623L124.28571428571428,148.43723109538334L124.28571428571428,148.40521699240563L124.28571428571428,148.33402857812465L124.28571428571428,148.292530907562L124.28571428571428,148.27389349757442L124.28571428571428,148.2731433772123L124.28571428571428,148.32235037595993L124.28571428571428,148.43120458659683L124.28571428571428,148.5410845282443L124.28571428571428,148.60482342895708L124.28571428571428,148.64626008343896L124.28571428571428,148.61776975357898L124.28571428571428,148.5843777081566L124.28571428571428,148.56999367651952L124.28571428571428,148.53780851741377L124.28571428571428,148.4913772175585L124.28571428571428,148.4421223337944L124.28571428571428,148.4302560827164L124.28571428571428,148.41005347752514L124.28571428571428,148.38609726847915L124.28571428571428,148.35998810914302L132.57142857142856,147.70253476459902L132.57142857142856,147.2232779118043L132.57142857142856,147.15632396656514L132.57142857142856,147.63574821946855L132.57142857142856,147.95891966505815L132.57142857142856,148.23926088866818L132.57142857142856,148.28573992681396L132.57142857142856,148.36075856896653L132.57142857142856,148.35536856173624L132.57142857142856,148.265553187445L132.57142857142856,148.22028646400545L132.57142857142856,148.2122631849132L132.57142857142856,148.20067318812067L132.57142857142856,148.1519259941071L132.57142857142856,148.13472518742202L132.57142857142856,148.0940266327992L132.57142857142856,148.11735791036804L132.57142857142856,148.1503951213181L132.57142857142856,148.1557683152605L132.57142857142856,148.12988307352808L132.57142857142856,148.17546571097563L132.57142857142856,148.1852382694855L132.57142857142856,148.20789939113524L132.57142857142856,148.23858382180228L132.57142857142856,148.2786713577091L132.57142857142856,148.28598988829006L132.57142857142856,148.33774264929488L132.57142857142856,148.36443689458747L132.57142857142856,148.3581383409288L132.57142857142856,148.3478470623877L132.57142857142856,148.3570798892608L140.85714285714286,148.90783014433578L140.85714285714286,149.18079456713158L140.85714285714286,149.420134722877L140.85714285714286,149.5589929114038L140.85714285714286,149.51860742838795L140.85714285714286,149.37923632016705L140.85714285714286,149.31767135565528L140.85714285714286,149.3405906071653L140.85714285714286,149.2705807085359L140.85714285714286,149.19415397914543L140.85714285714286,149.09507132481176L140.85714285714286,149.01642501463203L140.85714285714286,148.99133904515318L140.85714285714286,148.98472489387964L140.85714285714286,149.01135747376873L140.85714285714286,149.03275682874596L140.85714285714286,149.04651525060436L140.85714285714286,149.1157275856872L140.85714285714286,149.17591661243327L140.85714285714286,149.20307814148666L140.85714285714286,149.2465685396781L140.85714285714286,149.30941444013624L140.85714285714286,149.33370164087123L140.85714285714286,149.3269356049814L140.85714285714286,149.3132655109725L140.85714285714286,149.30398019579832L140.85714285714286,149.3201924941353L140.85714285714286,149.340809249918L140.85714285714286,149.35969522057212L140.85714285714286,149.4178049760168L140.85714285714286,149.4729953138451L140.85714285714286,149.49891449643178L140.85714285714286,149.52667215770137L140.85714285714286,149.575149640969L140.85714285714286,149.61484836557037L149.14285714285714,146.65150357585102L149.14285714285714,145.68459230454383L149.14285714285714,146.00710886054324L149.14285714285714,146.39978648491515L149.14285714285714,146.8646308413214L149.14285714285714,147.23971293973852L149.14285714285714,147.68323773117635L149.14285714285714,148.05773696061715L149.14285714285714,148.24237611120768L149.14285714285714,148.37485065384752L149.14285714285714,148.46350704918314L149.14285714285714,148.6457828876314L149.14285714285714,148.83146541554672L149.14285714285714,148.9711159807138L149.14285714285714,149.03944810955667L149.14285714285714,149.11965481087458L149.14285714285714,149.06066419109308L149.14285714285714,148.99472189276145L149.14285714285714,148.88856838662954L149.14285714285714,148.85571659125097L149.14285714285714,148.82778400963005L149.14285714285714,148.87081673452704L149.14285714285714,148.90271524131512L149.14285714285714,148.9564976953445L149.14285714285714,148.9702598061584L149.14285714285714,149.00500546473623L149.14285714285714,149.06883357963468L149.14285714285714,149.15187073950105L149.14285714285714,149.18480322081558L149.14285714285714,149.187742260903L149.14285714285714,149.1985306270727L149.14285714285714,149.20850442417859L149.14285714285714,149.20172257842623L157.42857142857142,149.57007703128824L157.42857142857142,149.81583489849524L157.42857142857142,149.97112769408415L157.42857142857142,150.21686659578597L157.42857142857142,150.46630869982698L157.42857142857142,150.72190487778758L157.42857142857142,150.91151037679734L157.42857142857142,151.01459814332492L157.42857142857142,151.14956407877398L157.42857142857142,151.1817473800266L157.42857142857142,151.2318755911745L157.42857142857142,151.26794035514183L157.42857142857142,151.16713558755148L157.42857142857142,151.03691755615412L157.42857142857142,150.87462904130123L157.42857142857142,150.82624366142602L157.42857142857142,150.76795035203756L157.42857142857142,150.71817026572572L157.42857142857142,150.68152574799433L157.42857142857142,150.6971475322722L157.42857142857142,150.76086948930003L157.42857142857142,150.7575668828879L157.42857142857142,150.7520532189118L157.42857142857142,150.74991796116683L157.42857142857142,150.70207020911167L157.42857142857142,150.64619826470076L157.42857142857142,150.6426332163143L157.42857142857142,150.65171918356396L157.42857142857142,150.67133963120216L157.42857142857142,150.65584781930062L157.42857142857142,150.67680378635131L157.42857142857142,150.71175270324142L165.7142857142857,151.59277579862902L165.7142857142857,152.27670028547752L165.7142857142857,152.59966793035917L165.7142857142857,152.74281375313515L165.7142857142857,152.4581406796242L165.7142857142857,152.2479853005858L165.7142857142857,151.95673142823117L165.7142857142857,151.7954296185102L165.7142857142857,151.67901268836707L165.7142857142857,151.63069915748983L165.7142857142857,151.71841191048367L165.7142857142857,151.7713441424826L165.7142857142857,151.772863965776L165.7142857142857,151.77602692844914L165.7142857142857,151.78009041836899L165.7142857142857,151.74380180875812L165.7142857142857,151.7743204635301L165.7142857142857,151.70784600147056L165.7142857142857,151.76591168378832L165.7142857142857,151.77852724183484L165.7142857142857,151.73657313863666L165.7142857142857,151.744999620853L165.7142857142857,151.74999973964117L165.7142857142857,151.80084662382743L165.7142857142857,151.85679200515094L165.7142857142857,151.91741443757596L165.7142857142857,151.96121297181188L165.7142857142857,151.98175131049857L165.7142857142857,152.00411016948652L165.7142857142857,152.0278398802613L165.7142857142857,152.0554622699304L165.7142857142857,152.0845004416288L165.7142857142857,152.11628647622229L165.7142857142857,152.13635467166208L165.7142857142857,152.15012100050745L165.7142857142857,152.14585817444873L165.7142857142857,152.11019534336705L174,151.97622854492852L174,152.81783334125367L174,153.62173012825937L174,153.8628500040533L174,153.99749985414047L174,153.6672512785316L174,153.37115554965314L174,153.19864081860038L174,152.926986706842L174,152.6684538714881L174,152.49160269784676L174,152.2612433732696L174,152.10695187556385L174,152.0430638834601L174,152.1138393607247L174,152.19555115120218L174,152.2860011160841L174,152.34940135926547L174,152.3155904933538L174,152.28323541686123L174,152.24962326186602L174,152.21792495425714L174,152.19287948465998L174,152.22110204079212L174,152.22419281747324L174,152.19675729389613L174,152.18786879332728L174,152.20253174018617L174,152.19591726614388L174,152.20825548351084L174,152.1916519758835L174,152.18032617860774L174,152.20677244260693L182.28571428571428,151.90568718070662L182.28571428571428,151.56715071599106L182.28571428571428,151.74757298554496L182.28571428571428,152.00281722039296L182.28571428571428,152.25286010704247L182.28571428571428,152.3920420702175L182.28571428571428,152.4734735694721L182.28571428571428,152.62290347969704L182.28571428571428,152.70868812502624L182.28571428571428,152.78454927658444L182.28571428571428,152.96660745721775L182.28571428571428,153.11832814341818L182.28571428571428,153.19927900530203L182.28571428571428,153.27906732129523L182.28571428571428,153.30585511291724L182.28571428571428,153.36100090935648L182.28571428571428,153.4393504408032L182.28571428571428,153.500702930422L182.28571428571428,153.5053680280023L182.28571428571428,153.38814955828562L182.28571428571428,153.29786551485574L182.28571428571428,153.2307215174144L182.28571428571428,153.21328852381302L182.28571428571428,153.19948796621873L182.28571428571428,153.1933015961698L182.28571428571428,153.20444877516985L182.28571428571428,153.20376219691371L182.28571428571428,153.2202293676056L182.28571428571428,153.24473434802334L182.28571428571428,153.26655015633185L182.28571428571428,153.26296849902587L182.28571428571428,153.2870055836405L190.57142857142858,154.35469798603455L190.57142857142858,154.8570105229038L190.57142857142858,154.82042573170324L190.57142857142858,154.60471657882306L190.57142857142858,154.38780716694933L190.57142857142858,154.2125355527706L190.57142857142858,153.9934543061264L190.57142857142858,153.63276032343208L190.57142857142858,153.40655777017503L190.57142857142858,153.21268635020306L190.57142857142858,153.04349703030104L190.57142857142858,152.92013253937708L190.57142857142858,152.69456896247883L190.57142857142858,152.51446254106366L190.57142857142858,152.4188623321668L190.57142857142858,152.43532211835583L190.57142857142858,152.45091151705697L190.57142857142858,152.47626893583956L190.57142857142858,152.45887508216111L190.57142857142858,152.44140568667277L190.57142857142858,152.44035843726098L190.57142857142858,152.4753863395673L190.57142857142858,152.52833004872113L190.57142857142858,152.57290323758446L190.57142857142858,152.5624118554075L190.57142857142858,152.52071389924805L190.57142857142858,152.48612015855915L190.57142857142858,152.4884889279176L190.57142857142858,152.4919543902715L190.57142857142858,152.46177420365828L190.57142857142858,152.47183820290425L190.57142857142858,152.45638063202642L190.57142857142858,152.41195140138973L198.85714285714286,151.96921852689334L198.85714285714286,152.34963860585682L198.85714285714286,152.91085031202653L198.85714285714286,153.12493820850182L198.85714285714286,153.42268319838928L198.85714285714286,153.59105973369884L198.85714285714286,153.77972630955813L198.85714285714286,153.8975778303983L198.85714285714286,154.02095986273676L198.85714285714286,154.14093936686407L198.85714285714286,154.23515062208108L198.85714285714286,154.3101267642217L198.85714285714286,154.40492194665546L198.85714285714286,154.51985458186394L198.85714285714286,154.6016902758012L198.85714285714286,154.69139365272696L198.85714285714286,154.69521109340073L198.85714285714286,154.66142925785326L198.85714285714286,154.63935509374L198.85714285714286,154.62054633407635L198.85714285714286,154.5887276650226L198.85714285714286,154.53416544154575L198.85714285714286,154.50888560291463L198.85714285714286,154.47488425603984L198.85714285714286,154.41161660785383L198.85714285714286,154.34783379641655L198.85714285714286,154.34907204372522L198.85714285714286,154.3819542364529L198.85714285714286,154.37627813574645L198.85714285714286,154.44044181444048L198.85714285714286,154.40787732437815L198.85714285714286,154.43699479135054L198.85714285714286,154.44042468369236L198.85714285714286,154.4682300690221L207.14285714285714,153.6527901496456L207.14285714285714,153.4535880173139L207.14285714285714,153.88303485086797L207.14285714285714,154.2795526749307L207.14285714285714,154.47539173798856L207.14285714285714,154.52768469287489L207.14285714285714,154.57109835937075L207.14285714285714,154.609000561172L207.14285714285714,154.5833972560796L207.14285714285714,154.49399840579198L207.14285714285714,154.37001574218834L207.14285714285714,154.18635989562637L207.14285714285714,154.09481208119772L207.14285714285714,154.04302911940482L207.14285714285714,154.02303724452258L207.14285714285714,154.03824937170938L207.14285714285714,153.93536317468806L207.14285714285714,153.81433800549516L207.14285714285714,153.73379985780994L207.14285714285714,153.73604194298866L207.14285714285714,153.7071274674489L207.14285714285714,153.64466343203043L207.14285714285714,153.60435312496398L207.14285714285714,153.61586954755188L207.14285714285714,153.62319639143982L207.14285714285714,153.63056165776334L207.14285714285714,153.63963963971204L207.14285714285714,153.65000729652652L207.14285714285714,153.65176053941235L207.14285714285714,153.67107316103863L207.14285714285714,153.72681213551965L207.14285714285714,153.84327296402114L215.42857142857144,154.74330131448806L215.42857142857144,155.64751961039343L215.42857142857144,156.64670524126043L215.42857142857144,157.20639101417552L215.42857142857144,157.3174309117101L215.42857142857144,157.41584120458606L215.42857142857144,157.4057008569487L215.42857142857144,157.39688652670594L215.42857142857144,157.30752144303824L215.42857142857144,157.09578696661515L215.42857142857144,157.01958593842696L215.42857142857144,156.9643934782876L215.42857142857144,156.85826246188577L215.42857142857144,156.6508894067368L215.42857142857144,156.4360516266351L215.42857142857144,156.23123405494619L215.42857142857144,156.08928000270427L215.42857142857144,155.9887789607678L215.42857142857144,155.85021236129975L215.42857142857144,155.67491426759014L215.42857142857144,155.48103375375138L215.42857142857144,155.2447468304666L215.42857142857144,155.0738846455431L215.42857142857144,155.02576840370847L215.42857142857144,154.9767581593078L215.42857142857144,154.9134541249101L215.42857142857144,154.83450990791675L215.42857142857144,154.79742916592255L215.42857142857144,154.76261387724406L215.42857142857144,154.73723785213056L215.42857142857144,154.6976156091984L215.42857142857144,154.69266597996065L215.42857142857144,154.68036364016078L215.42857142857144,154.64688556750963L215.42857142857144,154.60133086113476L215.42857142857144,154.52465495287043L223.71428571428572,154.12607811264647L223.71428571428572,153.2238047071542L223.71428571428572,152.6007214054494L223.71428571428572,152.45522902259893L223.71428571428572,152.34903681636652L223.71428571428572,152.48665900738717L223.71428571428572,152.6982410911212L223.71428571428572,152.92885860569356L223.71428571428572,153.03289916767287L223.71428571428572,153.2175125057118L223.71428571428572,153.48465626246596L223.71428571428572,153.67757699902424L223.71428571428572,153.77862294190848L223.71428571428572,153.90347411066605L223.71428571428572,154.01951453743604L223.71428571428572,154.1450627478425L223.71428571428572,154.22345827792543L223.71428571428572,154.3421842472669L223.71428571428572,154.46941791452352L223.71428571428572,154.6186970201082L223.71428571428572,154.770787356336L223.71428571428572,154.8673189497823L223.71428571428572,154.94740586466355L223.71428571428572,154.9483539330863L223.71428571428572,154.94536951835263L223.71428571428572,154.92176626627096L223.71428571428572,154.89945281543186L223.71428571428572,154.89307621331395L223.71428571428572,154.85430830818584L223.71428571428572,154.82158614372148L223.71428571428572,154.7821491038474L223.71428571428572,154.7351320919972L223.71428571428572,154.71772071180726L223.71428571428572,154.69452127286655L223.71428571428572,154.66814006965413L232,154.4390969919522L232,154.39206742301204L232,154.81856208380188L232,154.9542438074162L232,155.00008156816267L232,155.19837541797597L232,155.41125151068354L232,155.50647298402032L232,155.43020225311864L232,155.31307625756062L232,155.2383326106171L232,155.21669048161448L232,155.18744686582315L232,155.18644364970908L232,155.09623321887238L232,155.03099480909384L232,155.0681321204368L232,155.06246694885093L232,155.0610594976414L232,155.06806982080508L232,155.07957057519593L232,155.1228684758938L232,155.15614530853182L232,155.15581170875873L232,155.14412681615116L232,155.12944286767532L232,155.15924566816318L232,155.21935381542409L232,155.33052936204498L232,155.43290848729208L232,155.49940816839026L232,155.5301449762032L232,155.53798740739452L232,155.4890755816204L232,155.3730470157205L240.2857142857143,156.0275545339439L240.2857142857143,156.45431620507958L240.2857142857143,156.69394611156014L240.2857142857143,156.8030932301236L240.2857142857143,156.8551813752777L240.2857142857143,156.81604567474812L240.2857142857143,156.67711051768003L240.2857142857143,156.74182083251924L240.2857142857143,156.73959721174106L240.2857142857143,156.65435304053466L240.2857142857143,156.64346795540357L240.2857142857143,156.57389557208379L240.2857142857143,156.49376322475928L240.2857142857143,156.37423456709422L240.2857142857143,156.19241918633017L240.2857142857143,156.08981528505436L240.2857142857143,155.99557238777913L240.2857142857143,155.9392363578102L240.2857142857143,155.8916016118095L240.2857142857143,155.82092643707628L240.2857142857143,155.76854791776356L240.2857142857143,155.77164848543822L240.2857142857143,155.7617096336574L240.2857142857143,155.72580782216923L240.2857142857143,155.67859641880324L240.2857142857143,155.6253905590416L240.2857142857143,155.62669149539062L240.2857142857143,155.64667179580923L240.2857142857143,155.66138020531818L240.2857142857143,155.63815255723887L240.2857142857143,155.61191849089818L240.2857142857143,155.63739587630232L240.2857142857143,155.68953840563043L240.2857142857143,155.77672541671888L240.2857142857143,155.8142961366775L240.2857142857143,155.83434637202453L240.2857142857143,155.8807204783327L248.57142857142856,153.910955571208L248.57142857142856,153.1309267248853L248.57142857142856,153.31402826640075L248.57142857142856,153.55548447738886L248.57142857142856,153.77042543623062L248.57142857142856,153.9416931389879L248.57142857142856,154.10092372813725L248.57142857142856,154.40679825278656L248.57142857142856,154.85958565539318L248.57142857142856,155.16454971008943L248.57142857142856,155.43723437105226L248.57142857142856,155.68561264853375L248.57142857142856,155.98126557428105L248.57142857142856,156.1766530197434L248.57142857142856,156.26627054056962L248.57142857142856,156.31845215316417L248.57142857142856,156.3305036953183L248.57142857142856,156.37018327674392L248.57142857142856,156.3462530907107L248.57142857142856,156.33109208362228L248.57142857142856,156.33531298257856L248.57142857142856,156.37565282292675L248.57142857142856,156.42099435109455L248.57142857142856,156.42386024271303L248.57142857142856,156.45073780494297L248.57142857142856,156.4598776695257L248.57142857142856,156.45364451655104L248.57142857142856,156.44794268674664L248.57142857142856,156.45693305826248L248.57142857142856,156.47379147767163L248.57142857142856,156.4602549254758L248.57142857142856,156.43375125096605L248.57142857142856,156.42926274300092L248.57142857142856,156.37274749906894L248.57142857142856,156.31472276144748L248.57142857142856,156.2454707009159" style="fill: none;" fill="none"></path></g></g></g></g><g opacity="0.2"><g><g><g><path stroke="rgb(204, 51, 17)" stroke-width="2px" d="M8.285714285714285,14.383293133515544L8.285714285714285,20.851966160994287L8.285714285714285,16.97429741345916L8.285714285714285,16.16623064187854L8.285714285714285,15.748238765276366L8.285714285714285,14.397592471196061L8.285714285714285,14.452728509902915L8.285714285714285,14.494944829207157L8.285714285714285,14.686241076542741L8.285714285714285,14.592962650152316L8.285714285714285,13.942156131450913L8.285714285714285,14.534418142758854L8.285714285714285,14.473146860416094L8.285714285714285,14.750904596768864L8.285714285714285,14.918374024904661L8.285714285714285,15.285985488157962L8.285714285714285,16.063424733968844L8.285714285714285,16.054578946186904L8.285714285714285,16.638676863450236L8.285714285714285,17.204401511412378L8.285714285714285,18.219427255483737L8.285714285714285,18.9049676931821L8.285714285714285,19.49995647943934L8.285714285714285,19.67490830788242L8.285714285714285,19.885275749059787L8.285714285714285,20.650460738402124L8.285714285714285,21.98408091985259L8.285714285714285,22.53005268023562L8.285714285714285,23.156366916803172L8.285714285714285,23.7751825222602L8.285714285714285,24.248992131306533L8.285714285714285,24.528113255133963L16.57142857142857,39.86721242391143L16.57142857142857,42.21517665569597L16.57142857142857,47.40195707174447L16.57142857142857,49.16106776090768L16.57142857142857,49.99705151411202L16.57142857142857,50.74589208456185L16.57142857142857,51.82627927339993L16.57142857142857,53.63781545712396L16.57142857142857,53.827066623247575L16.57142857142857,55.38465565901536L16.57142857142857,56.88167133698095L16.57142857142857,57.85993431164667L16.57142857142857,59.045156258803146L16.57142857142857,59.672152189108026L16.57142857142857,60.79542116018441L16.57142857142857,61.604169625502365L16.57142857142857,62.710412483948915L16.57142857142857,63.57499491251431L16.57142857142857,64.65197363266576L16.57142857142857,65.99784807058481L16.57142857142857,66.98088290141179L16.57142857142857,68.01020798316368L16.57142857142857,68.64536800751317L16.57142857142857,70.38949766525853L16.57142857142857,71.88719503696146L16.57142857142857,72.87294041193448L16.57142857142857,74.10581599749051L16.57142857142857,74.73213023405808L16.57142857142857,76.06097855934728L16.57142857142857,76.73358304683977L16.57142857142857,77.2448371190291L16.57142857142857,77.91607821904695L16.57142857142857,78.60366373795728L16.57142857142857,79.11559950388394L16.57142857142857,80.36141103964584L24.857142857142858,113.682333111763L24.857142857142858,111.43715855708489L24.857142857142858,112.23501615340894L24.857142857142858,109.77403683845812L24.857142857142858,110.25670035068804L24.857142857142858,110.50450413960678L24.857142857142858,111.46370403583234L24.857142857142858,112.74627834099991L24.857142857142858,114.16976848015419L24.857142857142858,114.75250300994286L24.857142857142858,114.83011059577649L24.857142857142858,115.27941980728737L24.857142857142858,115.56602333142206L24.857142857142858,116.26721837887398L24.857142857142858,116.6395935828869L24.857142857142858,116.91394285055307L24.857142857142858,117.04669459049516L24.857142857142858,117.26930817273947L24.857142857142858,117.36801580282358L24.857142857142858,117.69342717757591L24.857142857142858,118.1400096141375L24.857142857142858,118.66079928324773L24.857142857142858,119.05904638767242L24.857142857142858,119.28302335739136L24.857142857142858,119.61864390740028L24.857142857142858,119.8814206123352L24.857142857142858,119.99782793338483L24.857142857142858,120.70038636831137L24.857142857142858,121.22730316565587L24.857142857142858,121.36141017767099L33.14285714285714,134.4553266763687L33.14285714285714,131.32174287392542L33.14285714285714,131.1604005740239L33.14285714285714,130.00309560849115L33.14285714285714,128.47613409849313L33.14285714285714,129.53200465899246L33.14285714285714,129.5823769569397L33.14285714285714,130.68727265871487L33.14285714285714,129.97995048302872L33.14285714285714,130.30468016404373L33.14285714285714,130.24817262246057L33.14285714285714,130.25702652564416L33.14285714285714,130.34688836794632L33.14285714285714,130.45921364197363L33.14285714285714,130.90306930358594L33.14285714285714,130.89558690327866L33.14285714285714,130.81593423623306L33.14285714285714,131.0555658157055L33.14285714285714,131.00995725851791L33.14285714285714,130.95481310440942L33.14285714285714,131.0691834596487L33.14285714285714,131.45790308255417L33.14285714285714,131.42998610093042L33.14285714285714,131.585882966335L33.14285714285714,131.58384600052466L33.14285714285714,131.52461168399225L33.14285714285714,131.87861361870398L33.14285714285714,131.98822023318363L33.14285714285714,132.08080073503348L33.14285714285714,132.02021926182968L33.14285714285714,132.03927422486817L33.14285714285714,132.25576067887818L33.14285714285714,132.19177073698776L41.42857142857142,140.09073461019074L41.42857142857142,141.39304557213416L41.42857142857142,138.9613385108801L41.42857142857142,138.25197936938358L41.42857142857142,138.54334663427792L41.42857142857142,137.9633307640369L41.42857142857142,138.01506644945877L41.42857142857142,137.2444360256195L41.42857142857142,137.3200066456428L41.42857142857142,137.00753122109634L41.42857142857142,136.94830501996552L41.42857142857142,136.7998986702699L41.42857142857142,136.94625993875357L41.42857142857142,136.76245420712692L41.42857142857142,136.78219897930438L41.42857142857142,137.17363726175748L41.42857142857142,137.44049601371472L41.42857142857142,137.4119054537553L41.42857142857142,137.4473048356863L41.42857142857142,137.49223981453824L41.42857142857142,137.49904863650983L41.42857142857142,137.42007766320157L41.42857142857142,137.51062119924103L41.42857142857142,137.13483752654147L41.42857142857142,137.0511028124736L41.42857142857142,137.09534798218655L41.42857142857142,137.09602967592386L41.42857142857142,137.0170587026156L41.42857142857142,137.0905842414269L41.42857142857142,136.61744821071625L49.714285714285715,134.6432225704193L49.714285714285715,132.83645824285654L49.714285714285715,136.91222394429718L49.714285714285715,137.9980484522306L49.714285714285715,137.3390616086813L49.714285714285715,138.58079109742093L49.714285714285715,139.554290331327L49.714285714285715,139.7054153405703L49.714285714285715,139.50119125843048L49.714285714285715,139.7673683166504L49.714285714285715,139.90964753811176L49.714285714285715,139.87424815618073L49.714285714285715,140.09346138514005L49.714285714285715,140.16085168031546L49.714285714285715,140.17855137128097L49.714285714285715,140.4004832597879L49.714285714285715,140.13634316737836L49.714285714285715,140.2248497376075L49.714285714285715,140.18876866193918L49.714285714285715,140.29292172652023L49.714285714285715,140.28883967949795L49.714285714285715,140.23642230033875L49.714285714285715,140.52098074326148L49.714285714285715,140.66598673967215L49.714285714285715,140.41273751625647L49.714285714285715,140.2078236249777L49.714285714285715,139.9396014855458L49.714285714285715,139.8783383186047L49.714285714285715,140.00019107415127L49.714285714285715,139.96751846716953L49.714285714285715,139.9770459486888L49.714285714285715,140.0076815898602L58,137.33226090211136L58,136.41457940064942L58,135.43767981345837L58,137.35880638085877L58,137.94086733231177L58,137.63656411721158L58,138.78093313253842L58,139.3800120812196L58,139.22003316879272L58,139.13833542053516L58,139.0103555367543L58,139.261559678958L58,139.22616029702698L58,139.21798808758075L58,139.19416126838098L58,139.21458773429578L58,139.3977117721851L58,139.38069377495694L58,139.32894997413342L58,139.21390604055844L58,139.07434547864472L58,139.72652350022244L58,139.91305600679837L58,139.98317307692307L58,139.97772764242612L58,139.9150929726087L58,139.91577466634604L58,140.0825624007445L58,140.0573803094717L66.28571428571428,141.519670183842L66.28571428571428,139.6421070924172L66.28571428571428,140.1908056277495L66.28571428571428,139.6461891394395L66.28571428571428,139.9811279957111L66.28571428571428,139.52160960894363L66.28571428571428,140.7810306732471L66.28571428571428,140.79192965764267L66.28571428571428,140.9226363163728L66.28571428571428,141.12277835149033L66.28571428571428,141.50877931484808L66.28571428571428,141.17315876483917L66.28571428571428,141.4536351607396L66.28571428571428,141.41687239133392L66.28571428571428,141.33245598352872L66.28571428571428,141.37739096238064L66.28571428571428,141.2745931698726L66.28571428571428,141.29637490786038L66.28571428571428,141.46520772347083L66.28571428571428,141.48358910817367L66.28571428571428,141.3317742897914L66.28571428571428,141.24259414122653L66.28571428571428,141.36445501217474L66.28571428571428,141.37807265611795L66.28571428571428,141.24191244748923L66.28571428571428,141.30250203609467L66.28571428571428,141.27322978239792L66.28571428571428,141.3140745988259L66.28571428571428,141.14933194563937L66.28571428571428,141.156140767611L66.28571428571428,141.16158620210794L66.28571428571428,141.16430486165558L66.28571428571428,141.22557614399838L66.28571428571428,141.40053608784308L66.28571428571428,141.047897540606L74.57142857142857,140.4175012570161L74.57142857142857,141.58774217275473L74.57142857142857,140.7592489352593L74.57142857142857,141.23170327223264L74.57142857142857,140.35623809007498L74.57142857142857,140.96552621401273L74.57142857142857,141.12074138567996L74.57142857142857,141.98123365182144L74.57142857142857,142.0962775853964L74.57142857142857,142.19499333088214L74.57142857142857,142.46594224526334L74.57142857142857,142.7777278606708L74.57142857142857,142.54218644362228L74.57142857142857,142.66268392709586L74.57142857142857,143.08952159147995L74.57142857142857,143.50819516181946L74.57142857142857,143.45849644220792L74.57142857142857,143.34753455565524L74.57142857142857,143.37476172814002L74.57142857142857,143.27400901684393L74.57142857142857,143.3107717862496L74.57142857142857,143.33868065247168L74.57142857142857,143.4993493740375L74.57142857142857,143.27469071058127L74.57142857142857,143.5000229523732L74.57142857142857,143.412206191283L74.57142857142857,143.49185885832858L74.57142857142857,143.53543044970584L74.57142857142857,143.5000229523732L74.57142857142857,143.28967174199911L82.85714285714285,146.434819991772L82.85714285714285,147.09721530400788L82.85714285714285,146.85213829003845L82.85714285714285,145.95488325449136L82.85714285714285,146.16796123981476L82.85714285714285,145.68733469339517L82.85714285714285,145.36669517480408L82.85714285714285,145.23530682233664L82.85714285714285,145.10391846986917L82.85714285714285,144.6055922324841L82.85714285714285,144.66754520856415L82.85714285714285,144.97048503618973L82.85714285714285,144.69613576852356L82.85714285714285,144.7111167999414L82.85714285714285,144.8139145924495L82.85714285714285,144.7172439281757L82.85714285714285,144.867013665346L82.85714285714285,145.03243801226984L82.85714285714285,144.79553320774664L82.85714285714285,144.55385654706222L82.85714285714285,144.65392756462097L82.85714285714285,144.3891138938757L82.85714285714285,144.54772941882794L82.85714285714285,144.62806377961087L82.85714285714285,144.7301798783816L82.85714285714285,144.68319981831772L82.85714285714285,144.70498967170715L82.85714285714285,144.8193600269464L82.85714285714285,144.8336512492253L82.85714285714285,144.76897961359757L82.85714285714285,144.80642407674057L82.85714285714285,144.58653726944556L91.14285714285714,145.00588441812073L91.14285714285714,145.1073269385558L91.14285714285714,144.86224992458637L91.14285714285714,146.138688986118L91.14285714285714,146.3544937463907L91.14285714285714,146.38716635337244L91.14285714285714,145.67440685859094L91.14285714285714,144.52185751841617L91.14285714285714,145.30678727993597L91.14285714285714,145.57705450057983L91.14285714285714,144.7805521763288L91.14285714285714,144.49871239295373L91.14285714285714,144.89220387202042L91.14285714285714,145.07872826319473L91.14285714285714,144.71519884696374L91.14285714285714,144.650527211336L91.14285714285714,144.64303669562707L91.14285714285714,144.7839606450154L91.14285714285714,144.94733991072727L91.14285714285714,144.82139699275677L91.14285714285714,144.83433294296265L91.14285714285714,144.87585945312793L91.14285714285714,144.94053108875568L91.14285714285714,145.00180237109845L91.14285714285714,144.90581340056198L91.14285714285714,145.0249474965609L91.14285714285714,144.96640298916745L91.14285714285714,144.71792562191303L91.14285714285714,144.8077874642152L99.42857142857143,142.43598829782925L99.42857142857143,143.1684925647882L99.42857142857143,144.85815976216244L99.42857142857143,143.23248250667865L99.42857142857143,144.0575753908891L99.42857142857143,144.4129407130755L99.42857142857143,144.45854927026306L99.42857142857143,144.84795058690582L99.42857142857143,145.16314467099997L99.42857142857143,144.7240527501473L99.42857142857143,144.91125883505893L99.42857142857143,144.50483952118802L99.42857142857143,144.7063530591818L99.42857142857143,144.72200766893533L99.42857142857143,145.06443704091583L99.42857142857143,145.08553708516632L99.42857142857143,145.08894555385297L99.42857142857143,144.976612164424L99.42857142857143,145.2094349219249L99.42857142857143,144.9548304264362L99.42857142857143,145.28432384821085L99.42857142857143,145.40753999123206L99.42857142857143,145.19446200590866L99.42857142857143,145.01882036832663L99.42857142857143,145.11344595138843L99.42857142857143,145.1018733886572L99.42857142857143,144.92760325395142L99.42857142857143,144.99227488957916L99.42857142857143,144.9970386303388L99.42857142857143,145.06171026596655L99.42857142857143,145.16995349297156L99.42857142857143,145.25641498198877L99.42857142857143,145.26049702901108L99.42857142857143,145.22917969410236L99.42857142857143,145.33674122737003L99.42857142857143,145.1508904145314L107.71428571428572,145.90042079412018L107.71428571428572,146.72755064414096L107.71428571428572,145.27615163876462L107.71428571428572,144.87654114686524L107.71428571428572,145.4572387108436L107.71428571428572,145.45247497008395L107.71428571428572,145.74179715376633L107.71428571428572,145.72546085027548L107.71428571428572,145.70980624052194L107.71428571428572,146.0406549343696L107.71428571428572,145.89837571290823L107.71428571428572,145.79830469534946L107.71428571428572,145.64172613620758L107.71428571428572,145.39664912223816L107.71428571428572,145.33265918034775L107.71428571428572,145.58726367583643L107.71428571428572,145.52191034647134L107.71428571428572,145.64377121741956L107.71428571428572,145.53620968415188L107.71428571428572,145.377586043798L107.71428571428572,145.33061409913574L107.71428571428572,145.33469614615808L107.71428571428572,145.2482427725425L107.71428571428572,144.8738224873176L107.71428571428572,144.87109571236832L107.71428571428572,144.97933893937332L107.71428571428572,144.89696761278006L107.71428571428572,144.82752412099106L107.71428571428572,144.85475940887744L107.71428571428572,145.1924169246967L107.71428571428572,145.0603468784919L107.71428571428572,145.2189705188458L107.71428571428572,145.25573328825143L107.71428571428572,145.122299854572L107.71428571428572,144.84726889316852L116,145.6560254738881L116,145.93718356352585L116,147.18979580585773L116,147.41785482259897L116,148.02646125279938L116,147.54311604683215L116,146.20948774998004L116,145.71048793425928L116,145.6798522930879L116,145.9290113540796L116,146.30752180172848L116,146.80039448921497L116,147.00258160554444L116,146.93927335739136L116,146.84464777432953L116,146.94403709815097L116,146.94200013234067L116,146.9801181738193L116,146.9753544330597L116,146.87323833428894L116,146.724150290856L116,146.6186338388003L116,146.5743805536857L116,146.5539540877709L116,146.42324742904077L116,146.5525988156979L116,146.58731650389157L116,146.57301716621106L116,146.67649665245642L116,146.7289140316156L116,146.83511217740866L124.28571428571428,142.04386020623718L124.28571428571428,145.22168917839343L124.28571428571428,144.94938499193924L124.28571428571428,145.91335674432608L124.28571428571428,145.72750593148743L124.28571428571428,146.84396608059222L124.28571428571428,147.0454715031844L124.28571428571428,147.8481009556697L124.28571428571428,147.68063152753388L124.28571428571428,147.66565049611603L124.28571428571428,148.06390571594238L124.28571428571428,148.357999755786L124.28571428571428,148.15104078329526L124.28571428571428,148.25792062282562L124.28571428571428,148.34982754633975L124.28571428571428,148.51525189326358L124.28571428571428,148.62281342653128L124.28571428571428,148.65617584265195L124.28571428571428,148.61192255753738L124.28571428571428,148.53704174665305L124.28571428571428,148.30761934243714L124.28571428571428,148.1170047888389L124.28571428571428,148.1660218147131L124.28571428571428,148.21707580639767L124.28571428571428,148.2708565730315L124.28571428571428,148.47236199562366L124.28571428571428,148.7630556821823L124.28571428571428,148.87606264994693L124.28571428571428,148.79913675785065L124.28571428571428,148.77258316370157L124.28571428571428,148.53091461841876L124.28571428571428,148.4825792862819L124.28571428571428,148.5261427622575L124.28571428571428,148.43968938864194L124.28571428571428,148.34982754633975L124.28571428571428,148.29196473268362L124.28571428571428,148.39408083145435L124.28571428571428,148.3484641588651L124.28571428571428,148.3130647769341L124.28571428571428,148.2803921699524L132.57142857142856,145.6982336777907L132.57142857142856,145.76222361968112L132.57142857142856,146.95220930759723L132.57142857142856,149.09731284471658L132.57142857142856,148.94413463885968L132.57142857142856,149.09390437602997L132.57142857142856,148.4274351321734L132.57142857142856,148.58945912581223L132.57142857142856,148.33893667734586L132.57142857142856,147.9917435646057L132.57142857142856,148.0822871006452L132.57142857142856,148.18780355270093L132.57142857142856,148.1653401209758L132.57142857142856,148.00331612733694L132.57142857142856,148.0822871006452L132.57142857142856,147.96995371121628L132.57142857142856,148.18848524643826L132.57142857142856,148.25111180085403L132.57142857142856,148.1721489429474L132.57142857142856,148.0509697657365L132.57142857142856,148.31442816440875L132.57142857142856,148.2150307251857L132.57142857142856,148.27698370126578L132.57142857142856,148.33212785537427L132.57142857142856,148.4008815380243L132.57142857142856,148.30830103617447L132.57142857142856,148.49551523648773L132.57142857142856,148.44581651687622L132.57142857142856,148.33893667734586L132.57142857142856,148.31647324562073L132.57142857142856,148.38522692827078L140.85714285714286,150.58683800697327L140.85714285714286,150.01294926496652L140.85714285714286,150.14978305193094L140.85714285714286,149.98231362379514L140.85714285714286,149.39548893158252L140.85714285714286,148.95435192951788L140.85714285714286,149.1299854516983L140.85714285714286,149.41046184759873L140.85714285714286,149.05714972202594L140.85714285714286,148.9611607514895L140.85714285714286,148.79300962961636L140.85714285714286,148.77666521072388L140.85714285714286,148.91486238516293L140.85714285714286,148.96456110477448L140.85714285714286,149.09254910395694L140.85714285714286,149.09799453845392L140.85714285714286,149.08845894153302L140.85714285714286,149.32672713353085L140.85714285714286,149.35940785591418L140.85714285714286,149.28588231710287L140.85714285714286,149.37915262809167L140.85714285714286,149.50100538363824L140.85714285714286,149.40774318805109L140.85714285714286,149.30630878301767L140.85714285714286,149.27159109482398L140.85714285714286,149.27567314184628L140.85714285714286,149.36961703117078L140.85714285714286,149.40366114102875L140.85714285714286,149.4172706695703L140.85714285714286,149.59495738836435L140.85714285714286,149.64124763928925L140.85714285714286,149.57793127573453L140.85714285714286,149.6112936918552L140.85714285714286,149.7229372721452L140.85714285714286,149.73587322235107L149.14285714285714,137.6175010387714L149.14285714285714,142.73688304424286L149.14285714285714,146.9903273490759L149.14285714285714,147.596896813466L149.14285714285714,148.28174744202542L149.14285714285714,148.3831818470588L149.14285714285714,149.03535986863648L149.14285714285714,149.1994289434873L149.14285714285714,148.8052638860849L149.14285714285714,148.77871029193585L149.14285714285714,148.73378342848557L149.14285714285714,149.20146590929764L149.14285714285714,149.3975340127945L149.14285714285714,149.39685231905716L149.14285714285714,149.2477642756242L149.14285714285714,149.36417159667383L149.14285714285714,148.88082639070657L149.14285714285714,148.7936913233537L149.14285714285714,148.56495061287512L149.14285714285714,148.7555651664734L149.14285714285714,148.74262921626752L149.14285714285714,149.00200556791745L149.14285714285714,148.99996048670548L149.14285714285714,149.12045797017905L149.14285714285714,149.01221474317404L149.14285714285714,149.1109304886598L149.14285714285714,149.26341888537775L149.14285714285714,149.40501641310178L149.14285714285714,149.28520062336554L149.14285714285714,149.19670216853802L149.14285714285714,149.23141985673172L149.14285714285714,149.23891037244064L149.14285714285714,149.18104755878448L157.42857142857142,150.6930361527663L157.42857142857142,150.56504815358383L157.42857142857142,150.44455067011026L157.42857142857142,150.9660220329578L157.42857142857142,151.22675365668076L157.42857142857142,151.50111103974854L157.42857142857142,151.48953847701733L157.42857142857142,151.3288697554515L157.42857142857142,151.56101893461667L157.42857142857142,151.2798608449789L157.42857142857142,151.3846956032973L157.42857142857142,151.37788678132569L157.42857142857142,150.85982388716477L157.42857142857142,150.63993707986978L157.42857142857142,150.3798790344825L157.42857142857142,150.67873681508576L157.42857142857142,150.59023836025824L157.42857142857142,150.56641154105847L157.42857142857142,150.56981189434345L157.42857142857142,150.74477183818817L157.42857142857142,150.9551311639639L157.42857142857142,150.74749861313748L157.42857142857142,150.73524435666891L157.42857142857142,150.7434084507135L157.42857142857142,150.55620236580188L157.42857142857142,150.47586800501895L157.42857142857142,150.63176487042355L157.42857142857142,150.6794185088231L157.42857142857142,150.73115419424497L157.42857142857142,150.6086197449611L157.42857142857142,150.74068979116586L157.42857142857142,150.81829737699948L165.7142857142857,154.27864782626813L165.7142857142857,154.3617008465987L165.7142857142857,153.5842616007878L165.7142857142857,153.1792056743915L165.7142857142857,151.59029118831342L165.7142857142857,151.6073091855416L165.7142857142857,151.06881982546585L165.7142857142857,151.3036876641787L165.7142857142857,151.32410601469186L165.7142857142857,151.48341134878305L165.7142857142857,151.98581151778882L165.7142857142857,151.93271244489227L165.7142857142857,151.77749727322507L165.7142857142857,151.7856694826713L165.7142857142857,151.7924783046429L165.7142857142857,151.63317297055173L165.7142857142857,151.86735911552722L165.7142857142857,151.50519308677087L165.7142857142857,151.9429297355505L165.7142857142857,151.81698681758L165.7142857142857,151.60867257301624L165.7142857142857,151.77068845125345L165.7142857142857,151.7652430167565L165.7142857142857,151.95585757035477L165.7142857142857,152.02734614335571L165.7142857142857,152.10222695424008L165.7142857142857,152.09473643853116L165.7142857142857,152.04436414058392L165.7142857142857,152.072273006806L165.7142857142857,152.1001818730281L165.7142857142857,152.13967141738306L165.7142857142857,152.17302571810208L165.7142857142857,152.21318884079272L165.7142857142857,152.19753423103919L165.7142857142857,152.19208879654224L165.7142857142857,152.13286259541144L165.7142857142857,152.001474242944L174,151.56781964118665L174,155.38353541264166L174,156.07247620362503L174,154.59792395738455L174,154.40799109752362L174,152.66046108649326L174,152.46848314542038L174,152.67271534296182L174,152.09882660095508L174,151.8802950657331L174,151.95245721706976L174,151.5589738534047L174,151.6365814392383L174,151.84829603708707L174,152.32960427724396L174,152.44465632622058L174,152.56174534100754L174,152.54268226256738L174,152.21251526245703L174,152.1845982808333L174,152.14715381769034L174,152.1212900326802L174,152.1165262919206L174,152.30714084551883L174,152.23361530670752L174,152.11311782323395L174,152.16077146163354L174,152.24723295065073L174,152.1757524930514L174,152.2458695631761L174,152.1410348048577L174,152.14579854561734L174,152.28739607334137L182.28571428571428,150.98780377094562L182.28571428571428,150.53509420614975L182.28571428571428,152.29760524859796L182.28571428571428,152.7809504545652L182.28571428571428,153.0151365995407L182.28571428571428,152.81634983649622L182.28571428571428,152.72172425343442L182.28571428571428,153.07845296309543L182.28571428571428,152.97020973609042L182.28571428571428,153.01581829327804L182.28571428571428,153.52162693097043L182.28571428571428,153.58086124750284L182.28571428571428,153.44606442634876L182.28571428571428,153.52230862470773L182.28571428571428,153.3875199189553L182.28571428571428,153.52911744667935L182.28571428571428,153.6782054901123L182.28571428571428,153.6877410870332L182.28571428571428,153.51958996516007L182.28571428571428,153.0307993246959L182.28571428571428,153.02262711524963L182.28571428571428,153.0260274685346L182.28571428571428,153.16014259595138L182.28571428571428,153.15741582100208L182.28571428571428,153.1744419336319L182.28571428571428,153.2384318755223L182.28571428571428,153.20166910611664L182.28571428571428,153.27043090416836L182.28571428571428,153.31943981464093L182.28571428571428,153.33305745858414L182.28571428571428,153.25204951946552L182.28571428571428,153.36028463106888L190.57142857142858,157.60964688887964L190.57142857142858,156.38835198145645L190.57142857142858,154.70889395933884L190.57142857142858,153.94710932328152L190.57142857142858,153.72654082224918L190.57142857142858,153.6782054901123L190.57142857142858,153.3255669428752L190.57142857142858,152.53315478104813L190.57142857142858,152.71696051267477L190.57142857142858,152.62165323587564L190.57142857142858,152.52770934655118L190.57142857142858,152.54404565004202L190.57142857142858,152.00691967744095L190.57142857142858,151.96539316727566L190.57142857142858,152.1274171609145L190.57142857142858,152.48550114264856L190.57142857142858,152.49843709285443L190.57142857142858,152.55357313156128L190.57142857142858,152.40584847560297L190.57142857142858,152.38814878463745L190.57142857142858,152.43716581051166L190.57142857142858,152.5821718069223L190.57142857142858,152.68973334019L190.57142857142858,152.70878830322852L190.57142857142858,152.53042800609882L190.57142857142858,152.3935942191344L190.57142857142858,152.38065826892853L190.57142857142858,152.49571031790512L190.57142857142858,152.5025191398767L190.57142857142858,152.36976739993463L190.57142857142858,152.5025191398767L190.57142857142858,152.40925694428955L190.57142857142858,152.27650520434747L198.85714285714286,150.619510613955L198.85714285714286,153.5093807899035L198.85714285714286,154.62175077658432L198.85714285714286,153.77760292933536L198.85714285714286,154.33038351169L198.85714285714286,154.10436957616074L198.85714285714286,154.35489202462708L198.85714285714286,154.2568579728787L198.85714285714286,154.3971002285297L198.85714285714286,154.50670684300934L198.85714285714286,154.5223614527629L198.85714285714286,154.53869775625375L198.85714285714286,154.693912927921L198.85714285714286,154.8702362592404L198.85714285714286,154.8511731808002L198.85714285714286,154.96486184230218L198.85714285714286,154.70684887812686L198.85714285714286,154.55844252843124L198.85714285714286,154.57206017237442L198.85714285714286,154.56320626919086L198.85714285714286,154.4917258115915L198.85714285714286,154.36782797483298L198.85714285714286,154.4318179167234L198.85714285714286,154.37122832811798L198.85714285714286,154.2187399314L198.85714285714286,154.1533866020349L198.85714285714286,154.35284694341513L198.85714285714286,154.48219833007226L198.85714285714286,154.3589740716494L198.85714285714286,154.63605011426483L198.85714285714286,154.30860177370218L198.85714285714286,154.52576180604788L198.85714285714286,154.45088099516357L198.85714285714286,154.5529970939343L207.14285714285714,151.1668538772143L207.14285714285714,152.84630378393027L207.14285714285714,155.1922391653061L207.14285714285714,155.48837017096005L207.14285714285714,155.07242337556985L207.14285714285714,154.6871041059494L207.14285714285714,154.70344852484192L207.14285714285714,154.7245485690924L207.14285714285714,154.5053434555347L207.14285714285714,154.22145859094766L207.14285714285714,153.99204430213342L207.14285714285714,153.62646980469043L207.14285714285714,153.81572097081406L207.14285714285714,153.88516446260306L207.14285714285714,153.96209035469937L207.14285714285714,154.08462480398325L207.14285714285714,153.62170606393082L207.14285714285714,153.44538273261142L207.14285714285714,153.48827263025137L207.14285714285714,153.74287712574005L207.14285714285714,153.6189792889815L207.14285714285714,153.45423663579498L207.14285714285714,153.48146380827976L207.14285714285714,153.65097831762756L207.14285714285714,153.64553288313058L207.14285714285714,153.65301528343787L207.14285714285714,153.6673146211184L207.14285714285714,153.68161395879892L207.14285714285714,153.65710544586182L207.14285714285714,153.72994929093582L207.14285714285714,153.8967370253343L207.14285714285714,154.19831346548523L215.42857142857144,157.48711243959573L215.42857142857144,158.40410413191867L215.42857142857144,159.69280556532053L215.42857142857144,158.91263954456036L215.42857142857144,157.65594525520618L215.42857142857144,157.7158531500743L215.42857142857144,157.37478716556842L215.42857142857144,157.37001530940717L215.42857142857144,157.0350845685372L215.42857142857144,156.45029684213492L215.42857142857144,156.7872807796185L215.42857142857144,156.79613468280206L215.42857142857144,156.53471324994015L215.42857142857144,156.01869543699118L215.42857142857144,155.78110082332904L215.42857142857144,155.6068306886233L215.42857142857144,155.6565212928332L215.42857142857144,155.68239319324493L215.42857142857144,155.42778058235461L215.42857142857144,155.14050347988422L215.42857142857144,154.8899729160162L215.42857142857144,154.52440653397488L215.42857142857144,154.5529970939343L215.42857142857144,154.8790820470223L215.42857142857144,154.82734636160043L215.42857142857144,154.72046652207007L215.42857142857144,154.59384191036224L215.42857142857144,154.68438544640173L215.42857142857144,154.65647658017966L215.42857142857144,154.65987693346466L215.42857142857144,154.57682391313406L215.42857142857144,154.67757662443015L215.42857142857144,154.64285893623645L215.42857142857144,154.54482488448804L215.42857142857144,154.46245355789478L215.42857142857144,154.29090208273666L223.71428571428572,152.91098353495966L223.71428571428572,150.4731493454713L223.71428571428572,150.7012002468109L223.71428571428572,152.01168341820056L223.71428571428572,152.02530106214377L223.71428571428572,152.90621167879837L223.71428571428572,153.3432666338407L223.71428571428572,153.63191523918738L223.71428571428572,153.35007545581232L223.71428571428572,153.78032158888306L223.71428571428572,154.2990661767813L223.71428571428572,154.26571187606226L223.71428571428572,154.08666988519522L223.71428571428572,154.28409326076508L223.71428571428572,154.37327340932993L223.71428571428572,154.52780688725983L223.71428571428572,154.46245355789478L223.71428571428572,154.70413021857922L223.71428571428572,154.85730030903449L223.71428571428572,155.0737867630445L223.71428571428572,155.2344473692087L223.71428571428572,155.1616035241347L223.71428571428572,155.19155747156876L223.71428571428572,154.95124419835898L223.71428571428572,154.93627128234277L223.71428571428572,154.84980979332556L223.71428571428572,154.83142840862274L223.71428571428572,154.87363661252533L223.71428571428572,154.7361211318236L223.71428571428572,154.7218299095447L223.71428571428572,154.6619220146766L223.71428571428572,154.59179682915027L223.71428571428572,154.66464067422424L223.71428571428572,154.62379585779632L223.71428571428572,154.587714782128L232,153.74084015992972L232,154.24869387883408L232,156.11876645454993L232,155.36788080288815L232,155.13982178614688L232,155.80289067671848L232,156.06022194715646L232,155.79676354848422L232,155.19768459980304L232,154.95600793911862L232,155.01047039948978L232,155.1507126551408L232,155.0982952759816L232,155.18338526212253L232,154.82121923336615L232,154.83211010236008L232,155.1813482963122L232,155.04519620308508L232,155.05676876581632L232,155.08944137279803L232,155.11463157947247L232,155.25486571972186L232,155.25759249467117L232,155.15479470216312L232,155.1085044512382L232,155.08467763203842L232,155.25010197896225L232,155.40259849108182L232,155.66945724303906L232,155.7450197476607L232,155.7021379654224L232,155.62384868585147L232,155.5618957097714L232,155.3399638212644L232,155.01932430267334L240.2857142857143,158.02287502472217L240.2857142857143,157.75533457902762L240.2857142857143,157.42447776977832L240.2857142857143,157.13583727983328L240.2857142857143,157.01397640888507L240.2857142857143,156.69673724357898L240.2857142857143,156.2535551603024L240.2857142857143,156.93909559800076L240.2857142857143,156.73281831924731L240.2857142857143,156.39447910969074L240.2857142857143,156.6102838699634L240.2857142857143,156.3617983873074L240.2857142857143,156.24947311328006L240.2857142857143,156.00984153380762L240.2857142857143,155.63813990813034L240.2857142857143,155.77701877630673L240.2857142857143,155.70826509365668L240.2857142857143,155.76749129478748L240.2857142857143,155.74638313513535L240.2857142857143,155.60546730114865L240.2857142857143,155.60886765443362L240.2857142857143,155.78110082332904L240.2857142857143,155.73141021911914L240.2857142857143,155.61635817014255L240.2857142857143,155.53466853728662L240.2857142857143,155.46318807968726L240.2857142857143,155.63065750782306L240.2857142857143,155.70758339991937L240.2857142857143,155.70622001244473L240.2857142857143,155.56734114426834L240.2857142857143,155.5319417623373L240.2857142857143,155.71506580022665L240.2857142857143,155.8484992339061L240.2857142857143,156.04252225619095L240.2857142857143,155.928833594689L240.2857142857143,155.89547117856833L240.2857142857143,156.02209579027615L248.57142857142856,147.90596376932584L248.57142857142856,150.75294404763443L248.57142857142856,153.87222851239716L248.57142857142856,154.291583776474L248.57142857142856,154.4256907884891L248.57142857142856,154.46381694536942L248.57142857142856,154.58635139465332L248.57142857142856,155.3392821275271L248.57142857142856,156.23994563176083L248.57142857142856,156.09425794161282L248.57142857142856,156.26853619172024L248.57142857142856,156.44281444182764L248.57142857142856,156.8825880564176L248.57142857142856,156.77230786360226L248.57142857142856,156.53947699069977L248.57142857142856,156.47753213002133L248.57142857142856,156.36724382180435L248.57142857142856,156.4911497739645L248.57142857142856,156.27329993247986L248.57142857142856,156.2848724952111L248.57142857142856,156.3481807433642L248.57142857142856,156.49863217427182L248.57142857142856,156.55922176287723L248.57142857142856,156.4325971511694L248.57142857142856,156.5326762841298L248.57142857142856,156.4877413052779L248.57142857142856,156.43464223238138L248.57142857142856,156.43056018535907L248.57142857142856,156.48434095199292L248.57142857142856,156.52518576842087L248.57142857142856,156.41898762262784L248.57142857142856,156.35295259952545L248.57142857142856,156.41557915394122L248.57142857142856,156.20045608740585L248.57142857142856,156.13782953299008L248.57142857142856,156.03435004674472" style="fill: none;" fill="none"></path></g></g></g></g></g></g><g transform="translate(40, 177)" clip-path="url(#clip_1)"><clipPath id="clip_1"><rect width="290" height="23"></rect></clipPath><g><g><line x1="0" y1="0" x2="0" y2="5" style="visibility: inherit;" fill="rgb(0, 0, 0)" stroke="rgb(204, 204, 204)" stroke-width="1px"></line><line x1="41.42857142857142" y1="0" x2="41.42857142857142" y2="5" style="visibility: inherit;" fill="rgb(0, 0, 0)" stroke="rgb(204, 204, 204)" stroke-width="1px"></line><line x1="82.85714285714285" y1="0" x2="82.85714285714285" y2="5" style="visibility: inherit;" fill="rgb(0, 0, 0)" stroke="rgb(204, 204, 204)" stroke-width="1px"></line><line x1="124.28571428571428" y1="0" x2="124.28571428571428" y2="5" style="visibility: inherit;" fill="rgb(0, 0, 0)" stroke="rgb(204, 204, 204)" stroke-width="1px"></line><line x1="165.7142857142857" y1="0" x2="165.7142857142857" y2="5" style="visibility: inherit;" fill="rgb(0, 0, 0)" stroke="rgb(204, 204, 204)" stroke-width="1px"></line><line x1="207.14285714285714" y1="0" x2="207.14285714285714" y2="5" style="visibility: inherit;" fill="rgb(0, 0, 0)" stroke="rgb(204, 204, 204)" stroke-width="1px"></line><line x1="248.57142857142856" y1="0" x2="248.57142857142856" y2="5" style="visibility: inherit;" fill="rgb(0, 0, 0)" stroke="rgb(204, 204, 204)" stroke-width="1px"></line><line x1="290" y1="0" x2="290" y2="5" style="visibility: inherit;" fill="rgb(0, 0, 0)" stroke="rgb(204, 204, 204)" stroke-width="1px"></line></g><g transform="translate(0, 8)"><text x="0" y="0" dx="0em" dy="0.95em" style="text-anchor: middle; visibility: hidden; font-family: Roboto, sans-serif; font-size: 12px; font-weight: 200;" fill="rgb(33, 33, 33)" stroke="none" stroke-width="1px">0</text><text x="41.42857142857142" y="0" dx="0em" dy="0.95em" style="text-anchor: middle; visibility: inherit; font-family: Roboto, sans-serif; font-size: 12px; font-weight: 200;" fill="rgb(33, 33, 33)" stroke="none" stroke-width="1px">5</text><text x="82.85714285714285" y="0" dx="0em" dy="0.95em" style="text-anchor: middle; visibility: inherit; font-family: Roboto, sans-serif; font-size: 12px; font-weight: 200;" fill="rgb(33, 33, 33)" stroke="none" stroke-width="1px">10</text><text x="124.28571428571428" y="0" dx="0em" dy="0.95em" style="text-anchor: middle; visibility: inherit; font-family: Roboto, sans-serif; font-size: 12px; font-weight: 200;" fill="rgb(33, 33, 33)" stroke="none" stroke-width="1px">15</text><text x="165.7142857142857" y="0" dx="0em" dy="0.95em" style="text-anchor: middle; visibility: inherit; font-family: Roboto, sans-serif; font-size: 12px; font-weight: 200;" fill="rgb(33, 33, 33)" stroke="none" stroke-width="1px">20</text><text x="207.14285714285714" y="0" dx="0em" dy="0.95em" style="text-anchor: middle; visibility: inherit; font-family: Roboto, sans-serif; font-size: 12px; font-weight: 200;" fill="rgb(33, 33, 33)" stroke="none" stroke-width="1px">25</text><text x="248.57142857142856" y="0" dx="0em" dy="0.95em" style="text-anchor: middle; visibility: inherit; font-family: Roboto, sans-serif; font-size: 12px; font-weight: 200;" fill="rgb(33, 33, 33)" stroke="none" stroke-width="1px">30</text><text x="290" y="0" dx="0em" dy="0.95em" style="text-anchor: middle; visibility: hidden; font-family: Roboto, sans-serif; font-size: 12px; font-weight: 200;" fill="rgb(33, 33, 33)" stroke="none" stroke-width="1px">35</text></g><line x1="0" y1="0" x2="290" y2="0" fill="rgb(0, 0, 0)" stroke="rgb(204, 204, 204)" stroke-width="1px"></line></g></g></g></g></svg>