<svg viewBox="0 0 330 200" xmlns="http://www.w3.org/2000/svg"><g><g><g><g><g><line x1="40" y1="177" x2="35" y2="177" style="visibility: inherit;" fill="rgb(0, 0, 0)" stroke="rgb(204, 204, 204)" stroke-width="1px"></line><line x1="40" y1="157.33333333333334" x2="35" y2="157.33333333333334" style="visibility: inherit;" fill="rgb(0, 0, 0)" stroke="rgb(204, 204, 204)" stroke-width="1px"></line><line x1="40" y1="137.66666666666666" x2="35" y2="137.66666666666666" style="visibility: inherit;" fill="rgb(0, 0, 0)" stroke="rgb(204, 204, 204)" stroke-width="1px"></line><line x1="40" y1="117.99999999999997" x2="35" y2="117.99999999999997" style="visibility: inherit;" fill="rgb(0, 0, 0)" stroke="rgb(204, 204, 204)" stroke-width="1px"></line><line x1="40" y1="98.33333333333331" x2="35" y2="98.33333333333331" style="visibility: inherit;" fill="rgb(0, 0, 0)" stroke="rgb(204, 204, 204)" stroke-width="1px"></line><line x1="40" y1="78.66666666666666" x2="35" y2="78.66666666666666" style="visibility: inherit;" fill="rgb(0, 0, 0)" stroke="rgb(204, 204, 204)" stroke-width="1px"></line><line x1="40" y1="58.999999999999964" x2="35" y2="58.999999999999964" style="visibility: inherit;" fill="rgb(0, 0, 0)" stroke="rgb(204, 204, 204)" stroke-width="1px"></line><line x1="40" y1="39.33333333333333" x2="35" y2="39.33333333333333" style="visibility: inherit;" fill="rgb(0, 0, 0)" stroke="rgb(204, 204, 204)" stroke-width="1px"></line><line x1="40" y1="19.666666666666636" x2="35" y2="19.666666666666636" style="visibility: inherit;" fill="rgb(0, 0, 0)" stroke="rgb(204, 204, 204)" stroke-width="1px"></line><line x1="40" y1="0" x2="35" y2="0" style="visibility: inherit;" fill="rgb(0, 0, 0)" stroke="rgb(204, 204, 204)" stroke-width="1px"></line></g><g transform="translate(30, 0)"><text x="0" y="177" dx="0em" dy="0.3em" style="text-anchor: end; visibility: hidden; font-family: Roboto, sans-serif; font-size: 12px; font-weight: 200;" fill="rgb(33, 33, 33)" stroke="none" stroke-width="1px">1</text><text x="0" y="157.33333333333334" dx="0em" dy="0.3em" style="text-anchor: end; visibility: inherit; font-family: Roboto, sans-serif; font-size: 12px; font-weight: 200;" fill="rgb(33, 33, 33)" stroke="none" stroke-width="1px">1.2</text><text x="0" y="137.66666666666666" dx="0em" dy="0.3em" style="text-anchor: end; visibility: hidden; font-family: Roboto, sans-serif; font-size: 12px; font-weight: 200;" fill="rgb(33, 33, 33)" stroke="none" stroke-width="1px">1.4</text><text x="0" y="117.99999999999997" dx="0em" dy="0.3em" style="text-anchor: end; visibility: inherit; font-family: Roboto, sans-serif; font-size: 12px; font-weight: 200;" fill="rgb(33, 33, 33)" stroke="none" stroke-width="1px">1.6</text><text x="0" y="98.33333333333331" dx="0em" dy="0.3em" style="text-anchor: end; visibility: hidden; font-family: Roboto, sans-serif; font-size: 12px; font-weight: 200;" fill="rgb(33, 33, 33)" stroke="none" stroke-width="1px">1.8</text><text x="0" y="78.66666666666666" dx="0em" dy="0.3em" style="text-anchor: end; visibility: inherit; font-family: Roboto, sans-serif; font-size: 12px; font-weight: 200;" fill="rgb(33, 33, 33)" stroke="none" stroke-width="1px">2</text><text x="0" y="58.999999999999964" dx="0em" dy="0.3em" style="text-anchor: end; visibility: hidden; font-family: Roboto, sans-serif; font-size: 12px; font-weight: 200;" fill="rgb(33, 33, 33)" stroke="none" stroke-width="1px">2.2</text><text x="0" y="39.33333333333333" dx="0em" dy="0.3em" style="text-anchor: end; visibility: inherit; font-family: Roboto, sans-serif; font-size: 12px; font-weight: 200;" fill="rgb(33, 33, 33)" stroke="none" stroke-width="1px">2.4</text><text x="0" y="19.666666666666636" dx="0em" dy="0.3em" style="text-anchor: end; visibility: hidden; font-family: Roboto, sans-serif; font-size: 12px; font-weight: 200;" fill="rgb(33, 33, 33)" stroke="none" stroke-width="1px">2.6</text><text x="0" y="0" dx="0em" dy="0.3em" style="text-anchor: end; visibility: hidden; font-family: Roboto, sans-serif; font-size: 12px; font-weight: 200;" fill="rgb(33, 33, 33)" stroke="none" stroke-width="1px">2.8</text></g><line x1="40" y1="0" x2="40" y2="177" fill="rgb(0, 0, 0)" stroke="rgb(204, 204, 204)" stroke-width="1px"></line></g></g><g transform="translate(40, 0)" clip-path="url(#clip_0)"><clipPath id="clip_0"><rect width="290" height="177"></rect></clipPath><g><g><g><line x1="0" y1="0" x2="0" y2="177" fill="rgb(0, 0, 0)" stroke="rgb(66, 66, 66)" stroke-width="1px" opacity="0.25"></line><line x1="41.42857142857142" y1="0" x2="41.42857142857142" y2="177" fill="rgb(0, 0, 0)" stroke="rgb(66, 66, 66)" stroke-width="1px" opacity="0.25"></line><line x1="82.85714285714285" y1="0" x2="82.85714285714285" y2="177" fill="rgb(0, 0, 0)" stroke="rgb(66, 66, 66)" stroke-width="1px" opacity="0.25"></line><line x1="124.28571428571428" y1="0" x2="124.28571428571428" y2="177" fill="rgb(0, 0, 0)" stroke="rgb(66, 66, 66)" stroke-width="1px" opacity="0.25"></line><line x1="165.7142857142857" y1="0" x2="165.7142857142857" y2="177" fill="rgb(0, 0, 0)" stroke="rgb(66, 66, 66)" stroke-width="1px" opacity="0.25"></line><line x1="207.14285714285714" y1="0" x2="207.14285714285714" y2="177" fill="rgb(0, 0, 0)" stroke="rgb(66, 66, 66)" stroke-width="1px" opacity="0.25"></line><line x1="248.57142857142856" y1="0" x2="248.57142857142856" y2="177" fill="rgb(0, 0, 0)" stroke="rgb(66, 66, 66)" stroke-width="1px" opacity="0.25"></line><line x1="290" y1="0" x2="290" y2="177" fill="rgb(0, 0, 0)" stroke="rgb(66, 66, 66)" stroke-width="1px" opacity="0.25"></line></g><g><line x1="0" y1="177" x2="290" y2="177" fill="rgb(0, 0, 0)" stroke="rgb(66, 66, 66)" stroke-width="1px" opacity="0.25"></line><line x1="0" y1="157.33333333333334" x2="290" y2="157.33333333333334" fill="rgb(0, 0, 0)" stroke="rgb(66, 66, 66)" stroke-width="1px" opacity="0.25"></line><line x1="0" y1="137.66666666666666" x2="290" y2="137.66666666666666" fill="rgb(0, 0, 0)" stroke="rgb(66, 66, 66)" stroke-width="1px" opacity="0.25"></line><line x1="0" y1="117.99999999999997" x2="290" y2="117.99999999999997" fill="rgb(0, 0, 0)" stroke="rgb(66, 66, 66)" stroke-width="1px" opacity="0.25"></line><line x1="0" y1="98.33333333333331" x2="290" y2="98.33333333333331" fill="rgb(0, 0, 0)" stroke="rgb(66, 66, 66)" stroke-width="1px" opacity="0.25"></line><line x1="0" y1="78.66666666666666" x2="290" y2="78.66666666666666" fill="rgb(0, 0, 0)" stroke="rgb(66, 66, 66)" stroke-width="1px" opacity="0.25"></line><line x1="0" y1="58.999999999999964" x2="290" y2="58.999999999999964" fill="rgb(0, 0, 0)" stroke="rgb(66, 66, 66)" stroke-width="1px" opacity="0.25"></line><line x1="0" y1="39.33333333333333" x2="290" y2="39.33333333333333" fill="rgb(0, 0, 0)" stroke="rgb(66, 66, 66)" stroke-width="1px" opacity="0.25"></line><line x1="0" y1="19.666666666666636" x2="290" y2="19.666666666666636" fill="rgb(0, 0, 0)" stroke="rgb(66, 66, 66)" stroke-width="1px" opacity="0.25"></line><line x1="0" y1="0" x2="290" y2="0" fill="rgb(0, 0, 0)" stroke="rgb(66, 66, 66)" stroke-width="1px" opacity="0.25"></line></g></g></g><g><g><line x1="0" y1="275.3333333333333" x2="290" y2="275.3333333333333" fill="rgb(0, 0, 0)" stroke="rgb(153, 153, 153)" stroke-width="1.5px"></line></g></g><g><g><line x1="0" y1="0" x2="0" y2="177" fill="rgb(0, 0, 0)" stroke="rgb(153, 153, 153)" stroke-width="1.5px"></line></g></g><g><g><g><g><g><path stroke="rgb(204, 51, 17)" stroke-width="2px" d="M8.285714285714285,13.024241447448723L8.285714285714285,16.640644861051932L8.285714285714285,16.693335645294574L8.285714285714285,16.64276491071543L8.285714285714285,16.821633603312645L8.285714285714285,16.657749832290953L8.285714285714285,16.310883439235937L8.285714285714285,16.17616111310658L8.285714285714285,16.246399034732033L8.285714285714285,16.35482360171096L8.285714285714285,16.403607108505952L8.285714285714285,16.537855775988977L8.285714285714285,16.705718408579237L8.285714285714285,16.954537744908517L8.285714285714285,17.29825899178278L8.285714285714285,17.634739219673254L8.285714285714285,18.078502521180198L8.285714285714285,18.40230371146425L8.285714285714285,18.72603473400323L8.285714285714285,19.026927249196312L8.285714285714285,19.38065066074821L8.285714285714285,19.764877285742173L8.285714285714285,20.168927656704586L8.285714285714285,20.49675299143137L8.285714285714285,20.751226297884948L8.285714285714285,21.244845002701588L8.285714285714285,21.900954804927736L8.285714285714285,22.563495465138367L8.285714285714285,23.22214366293651L8.285714285714285,23.84873077574335L8.285714285714285,24.47669173834888L8.285714285714285,24.92715591418492L16.57142857142857,28.26644604716692L16.57142857142857,30.678303623477806L16.57142857142857,34.05618219815466L16.57142857142857,37.0579881638933L16.57142857142857,39.958559365997665L16.57142857142857,42.16669863673763L16.57142857142857,44.1840237721082L16.57142857142857,46.13806518451382L16.57142857142857,47.55868587068582L16.57142857142857,49.20914682576699L16.57142857142857,50.90880581662474L16.57142857142857,52.38003745336746L16.57142857142857,53.77665997781547L16.57142857142857,54.83487599065613L16.57142857142857,55.918066688282345L16.57142857142857,56.986552092753335L16.57142857142857,58.080637636942775L16.57142857142857,59.10122004956475L16.57142857142857,60.146361851704725L16.57142857142857,61.27169200852592L16.57142857142857,62.37555116853028L16.57142857142857,63.54242018736318L16.57142857142857,64.6467106133142L16.57142857142857,65.83090616551468L16.57142857142857,67.11899075027088L16.57142857142857,68.36823716151173L16.57142857142857,69.58920549941043L16.57142857142857,70.71358860094637L16.57142857142857,71.8354389837485L16.57142857142857,72.82251834515158L16.57142857142857,73.73071079430211L16.57142857142857,74.61519583038294L16.57142857142857,75.48062470127537L16.57142857142857,76.24717611949404L16.57142857142857,77.15810966463161L24.857142857142858,85.52959930646443L24.857142857142858,92.28849576707796L24.857142857142858,97.37843121904439L24.857142857142858,100.78246332583795L24.857142857142858,103.30756714792943L24.857142857142858,105.3520259988721L24.857142857142858,107.10840044482634L24.857142857142858,108.74426977714829L24.857142857142858,110.12083755051428L24.857142857142858,111.32498143939536L24.857142857142858,112.25550482953338L24.857142857142858,113.24157644199097L24.857142857142858,114.09144382047297L24.857142857142858,114.95411642303004L24.857142857142858,115.91751469401355L24.857142857142858,116.71047709792158L24.857142857142858,117.3413380932912L24.857142857142858,117.88462667281618L24.857142857142858,118.29080731046474L24.857142857142858,118.62823561266039L24.857142857142858,119.0637532586571L24.857142857142858,119.53499982889821L24.857142857142858,120.00351880706391L24.857142857142858,120.43427789773742L24.857142857142858,120.84462114177683L24.857142857142858,121.20339881628787L24.857142857142858,121.50003389671797L24.857142857142858,121.94709543157688L24.857142857142858,122.45690923534019L24.857142857142858,122.88500302444393L33.14285714285714,127.54865494432549L33.14285714285714,129.61547272942656L33.14285714285714,131.42049805336552L33.14285714285714,132.46174748780425L33.14285714285714,133.2805414698891L33.14285714285714,134.03456379575408L33.14285714285714,134.49450362180642L33.14285714285714,135.04996110727987L33.14285714285714,135.2811983471229L33.14285714285714,135.59983783741507L33.14285714285714,135.94931195577112L33.14285714285714,136.18356413439213L33.14285714285714,136.36748405179245L33.14285714285714,136.54581059346884L33.14285714285714,136.8661369779677L33.14285714285714,137.14280554297815L33.14285714285714,137.26102649045356L33.14285714285714,137.3245442250857L33.14285714285714,137.39787571808057L33.14285714285714,137.46499440559552L33.14285714285714,137.5077635372189L33.14285714285714,137.5970456141982L33.14285714285714,137.68224963008183L33.14285714285714,137.82728821688383L33.14285714285714,138.00086690272965L33.14285714285714,138.14225855597275L33.14285714285714,138.31673350770967L33.14285714285714,138.48138702525983L33.14285714285714,138.64107713463468L33.14285714285714,138.72173215629667L33.14285714285714,138.81744175873752L33.14285714285714,138.9145273018388L33.14285714285714,138.9827742430495L41.42857142857142,140.41155568985678L41.42857142857142,142.06379123103707L41.42857142857142,142.86903483456157L41.42857142857142,143.50307193002797L41.42857142857142,144.09587177053174L41.42857142857142,144.55050771685993L41.42857142857142,144.9557539353686L41.42857142857142,145.18172397190605L41.42857142857142,145.3934138501349L41.42857142857142,145.39931406918674L41.42857142857142,145.33186427725022L41.42857142857142,145.2803449443918L41.42857142857142,145.24592293314058L41.42857142857142,145.1563681682147L41.42857142857142,145.0221395638693L41.42857142857142,145.00000257762002L41.42857142857142,144.98527623699317L41.42857142857142,144.96860208562134L41.42857142857142,144.94924516687485L41.42857142857142,144.90430829549726L41.42857142857142,144.83816690976965L41.42857142857142,144.78447682627905L41.42857142857142,144.78388014188963L41.42857142857142,144.7773591953111L41.42857142857142,144.78532184853424L41.42857142857142,144.81512076838598L41.42857142857142,144.84144497507205L41.42857142857142,144.82435081695343L41.42857142857142,144.81366493908567L41.42857142857142,144.7606848386509L49.714285714285715,144.3746811001708L49.714285714285715,143.64197165020855L49.714285714285715,144.20823449990309L49.714285714285715,144.77768899535306L49.714285714285715,144.9531614391007L49.714285714285715,145.16519929937746L49.714285714285715,145.4837109665184L49.714285714285715,145.60915030156988L49.714285714285715,145.6207833480031L49.714285714285715,145.82385009240775L49.714285714285715,145.96437285130108L49.714285714285715,146.11803289047896L49.714285714285715,146.2849873907903L49.714285714285715,146.45612419027853L49.714285714285715,146.57187406111967L49.714285714285715,146.74185648672358L49.714285714285715,146.80743432863324L49.714285714285715,146.84466826172965L49.714285714285715,146.8960220289725L49.714285714285715,146.94295197753024L49.714285714285715,146.98606146886962L49.714285714285715,147.03625431458957L49.714285714285715,147.10877978997436L49.714285714285715,147.20735515002755L49.714285714285715,147.21794740569388L49.714285714285715,147.25288239669285L49.714285714285715,147.23231200049582L49.714285714285715,147.21779244947146L49.714285714285715,147.23406435860403L49.714285714285715,147.2460738930041L49.714285714285715,147.25171498332813L49.714285714285715,147.23143293823222L58,146.62571135005513L58,146.53562724355254L58,146.4510353653216L58,146.7196016251627L58,147.09403563413085L58,147.27130143806752L58,147.57917512233016L58,147.9210290150994L58,148.1019370799042L58,148.32584209830733L58,148.50172739088686L58,148.65263005447085L58,148.73031343170825L58,148.80240868490003L58,148.8355658181278L58,148.91833969984546L58,149.0326465631194L58,149.1345053244923L58,149.1908040189106L58,149.16324708894385L58,149.12743777148648L58,149.2279865495253L58,149.32094475177644L58,149.41425889369282L58,149.47286468704775L58,149.46380354861475L58,149.46378179413819L58,149.4943697377555L58,149.51570286245723L66.28571428571428,150.2868886065916L66.28571428571428,150.70413194939934L66.28571428571428,150.83688205208995L66.28571428571428,151.25113510704182L66.28571428571428,151.57326813386834L66.28571428571428,151.56809272862233L66.28571428571428,151.4109366023944L66.28571428571428,151.09367571933643L66.28571428571428,150.68451746910483L66.28571428571428,150.49300438478673L66.28571428571428,150.3784293997214L66.28571428571428,150.30284133876842L66.28571428571428,150.24130826930292L66.28571428571428,150.21926044092862L66.28571428571428,150.20484444935835L66.28571428571428,150.14638601915144L66.28571428571428,150.0894938952089L66.28571428571428,150.0294091534922L66.28571428571428,150.0052959354052L66.28571428571428,149.97693820573795L66.28571428571428,149.94684074251617L66.28571428571428,150.01695738884172L66.28571428571428,150.06635602984056L66.28571428571428,150.12978548485972L66.28571428571428,150.12046804822725L66.28571428571428,150.17514419887783L66.28571428571428,150.19445800375686L66.28571428571428,150.21215727933827L66.28571428571428,150.2194131906178L66.28571428571428,150.2076319194233L66.28571428571428,150.19657459901828L66.28571428571428,150.21982271880344L66.28571428571428,150.2681760909166L66.28571428571428,150.33276126848364L66.28571428571428,150.32091489724544L74.57142857142857,148.42600668695619L74.57142857142857,148.4149078694976L74.57142857142857,147.95332849590994L74.57142857142857,148.06820881538061L74.57142857142857,148.09423758139084L74.57142857142857,148.18815913545143L74.57142857142857,148.37303590739302L74.57142857142857,148.79326357000363L74.57142857142857,149.14588454156743L74.57142857142857,149.32858536029445L74.57142857142857,149.60557523956493L74.57142857142857,149.91640238709962L74.57142857142857,150.0273140815003L74.57142857142857,150.15479136907743L74.57142857142857,150.35643472875134L74.57142857142857,150.49880134166824L74.57142857142857,150.65336627196734L74.57142857142857,150.79015461737805L74.57142857142857,150.93250465899283L74.57142857142857,151.03289295756525L74.57142857142857,151.0569936424032L74.57142857142857,151.11861870882115L74.57142857142857,151.18930895676704L74.57142857142857,151.22408057059369L74.57142857142857,151.26337973497863L74.57142857142857,151.28884317254608L74.57142857142857,151.34323382994546L74.57142857142857,151.40362099055076L74.57142857142857,151.45516416571985L74.57142857142857,151.46070229772988L82.85714285714285,152.21708164503664L82.85714285714285,153.07809443652172L82.85714285714285,153.576093685158L82.85714285714285,153.81118453025869L82.85714285714285,153.9192309424627L82.85714285714285,153.97678684887757L82.85714285714285,153.992924210749L82.85714285714285,154.00313283421934L82.85714285714285,154.05283789936715L82.85714285714285,153.89134349341512L82.85714285714285,153.75759491926667L82.85714285714285,153.67801283535857L82.85714285714285,153.60448496064876L82.85714285714285,153.51633101845349L82.85714285714285,153.47302450242495L82.85714285714285,153.43919862997186L82.85714285714285,153.43000276309067L82.85714285714285,153.44323601504786L82.85714285714285,153.42186958489827L82.85714285714285,153.38222083419762L82.85714285714285,153.38078362646263L82.85714285714285,153.37168695578603L82.85714285714285,153.3886373093463L82.85714285714285,153.41645987476954L82.85714285714285,153.44615435931559L82.85714285714285,153.43718323730533L82.85714285714285,153.4231402733147L82.85714285714285,153.4536139357924L82.85714285714285,153.46854615038595L82.85714285714285,153.49606222765595L82.85714285714285,153.53038439936722L82.85714285714285,153.5494277119023L91.14285714285714,152.15747399366447L91.14285714285714,152.26958419880393L91.14285714285714,152.5507394800866L91.14285714285714,153.19065226307555L91.14285714285714,153.6100876640961L91.14285714285714,154.08161080351462L91.14285714285714,154.12018947667534L91.14285714285714,154.00448105109325L91.14285714285714,154.15367763874494L91.14285714285714,154.34593267477635L91.14285714285714,154.36075828645153L91.14285714285714,154.37823682845297L91.14285714285714,154.38969567834297L91.14285714285714,154.44787308627838L91.14285714285714,154.46059281875708L91.14285714285714,154.434464766654L91.14285714285714,154.39171694097587L91.14285714285714,154.38090163384263L91.14285714285714,154.35017073148023L91.14285714285714,154.31075534692536L91.14285714285714,154.25605934989213L91.14285714285714,154.18111295888042L91.14285714285714,154.0986892612783L91.14285714285714,154.07451335544405L91.14285714285714,154.08667000991235L91.14285714285714,154.10286846666716L91.14285714285714,154.12477995469786L91.14285714285714,154.14662420428303L91.14285714285714,154.16331613739737L99.42857142857143,153.65198371259717L99.42857142857143,152.70564912957556L99.42857142857143,152.186150183117L99.42857142857143,151.71894598633668L99.42857142857143,151.491255226561L99.42857142857143,151.6615388655165L99.42857142857143,151.75794495042314L99.42857142857143,151.84754049156905L99.42857142857143,151.93905218920335L99.42857142857143,151.9950875715252L99.42857142857143,152.03971145078586L99.42857142857143,152.05558183312775L99.42857142857143,152.11416546227366L99.42857142857143,152.17916920966445L99.42857142857143,152.30802414158447L99.42857142857143,152.46577412844317L99.42857142857143,152.59573030230746L99.42857142857143,152.6318951207924L99.42857142857143,152.7312630991709L99.42857142857143,152.77669892803533L99.42857142857143,152.8755199503309L99.42857142857143,152.96450470295838L99.42857142857143,152.9484442356496L99.42857142857143,152.9157065376939L99.42857142857143,152.92335897271357L99.42857142857143,152.92183354716644L99.42857142857143,152.89566868926607L99.42857142857143,152.8752369117369L99.42857142857143,152.8950713675635L99.42857142857143,152.92724878979396L99.42857142857143,152.94686602456053L99.42857142857143,152.98908325117546L99.42857142857143,153.02062960963977L99.42857142857143,153.03879880068357L99.42857142857143,153.04009080650127L99.42857142857143,152.96649858045032L107.71428571428572,152.6740289625888L107.71428571428572,152.91527897080937L107.71428571428572,153.08941220010072L107.71428571428572,153.17924329421777L107.71428571428572,153.2034088573529L107.71428571428572,153.13586998620235L107.71428571428572,153.20766793756553L107.71428571428572,153.32463714586552L107.71428571428572,153.28811742835703L107.71428571428572,153.2496879650952L107.71428571428572,153.18431782446427L107.71428571428572,153.16594164648413L107.71428571428572,153.16934935685302L107.71428571428572,153.13985465435724L107.71428571428572,153.07441110581965L107.71428571428572,153.09265272426228L107.71428571428572,152.99490727076468L107.71428571428572,152.97449624511026L107.71428571428572,152.95645429324344L107.71428571428572,152.93461103705883L107.71428571428572,152.8980024300381L107.71428571428572,152.90565573325756L107.71428571428572,152.88688598907694L107.71428571428572,152.7967308816119L107.71428571428572,152.72374239976938L107.71428571428572,152.68116857258525L107.71428571428572,152.63016591148556L107.71428571428572,152.6036638763623L107.71428571428572,152.596823983088L107.71428571428572,152.59191386123422L107.71428571428572,152.59526103541853L107.71428571428572,152.60506916669627L107.71428571428572,152.65349980851607L107.71428571428572,152.67466881483227L107.71428571428572,152.71125324266058L116,153.6153676642951L116,154.58470930402322L116,155.34109905026222L116,155.81059278393172L116,156.18598179734073L116,156.208521650348L116,156.10477935294685L116,155.733989089552L116,155.48830111328468L116,155.4543710900375L116,155.4633117273083L116,155.51837685525783L116,155.57757229534525L116,155.56166745178487L116,155.56620933283662L116,155.55723997423033L116,155.5315414779697L116,155.48012980188187L116,155.42392862422304L116,155.40152655938294L116,155.34798183658683L116,155.29139054064038L116,155.1584235996385L116,155.10833481338577L116,155.100006216192L116,155.14085444010112L116,155.14878296343684L116,155.139937405493L116,155.14663315731656L116,155.1645479844365L116,155.16225215593022L124.28571428571428,154.4083142631618L124.28571428571428,154.90369830235701L124.28571428571428,155.39865046107528L124.28571428571428,155.56951145385614L124.28571428571428,155.64595133329775L124.28571428571428,155.76228708022637L124.28571428571428,155.52563840676677L124.28571428571428,155.35400002523846L124.28571428571428,155.22208676979358L124.28571428571428,155.00131453759272L124.28571428571428,154.86300202653965L124.28571428571428,154.82856223479865L124.28571428571428,154.73534877890802L124.28571428571428,154.68167727487509L124.28571428571428,154.66603563162496L124.28571428571428,154.67660123717195L124.28571428571428,154.73556531117745L124.28571428571428,154.83631254024036L124.28571428571428,154.87865811165577L124.28571428571428,154.9022866605027L124.28571428571428,154.94169597656355L124.28571428571428,154.96359705608697L124.28571428571428,154.9754733094002L124.28571428571428,154.9856321940287L124.28571428571428,155.00323909742502L124.28571428571428,155.05973113324063L124.28571428571428,155.14015877466997L124.28571428571428,155.18882071537638L124.28571428571428,155.21720549029945L124.28571428571428,155.265295035122L124.28571428571428,155.2718749903421L124.28571428571428,155.25618553055065L124.28571428571428,155.24364172779747L124.28571428571428,155.23783865118534L124.28571428571428,155.24391262412087L124.28571428571428,155.24241468250804L124.28571428571428,155.27091820450485L124.28571428571428,155.28412369013955L124.28571428571428,155.28095128164898L124.28571428571428,155.25500262925763L132.57142857142856,154.43151924293986L132.57142857142856,154.11285555467168L132.57142857142856,153.96689789942093L132.57142857142856,154.23856140995764L132.57142857142856,154.5113742834134L132.57142857142856,154.82901340884067L132.57142857142856,154.9297523602253L132.57142857142856,155.058073347312L132.57142857142856,155.08280349831068L132.57142857142856,155.06693825263173L132.57142857142856,155.06057693951536L132.57142857142856,155.08347553275115L132.57142857142856,155.04096880304166L132.57142857142856,155.00701842555162L132.57142857142856,154.96663805528593L132.57142857142856,154.981408484053L132.57142857142856,154.99908868650132L132.57142857142856,155.02162950268576L132.57142857142856,155.00120002516593L132.57142857142856,154.91999561494418L132.57142857142856,154.89212257293948L132.57142857142856,154.94618570509505L132.57142857142856,155.019682696147L132.57142857142856,155.07794159313485L132.57142857142856,155.1439139876993L132.57142857142856,155.1620169187562L132.57142857142856,155.22300840121974L132.57142857142856,155.30366814546747L132.57142857142856,155.3554176269269L132.57142857142856,155.37301118086347L132.57142857142856,155.46325346978165L140.85714285714286,155.1588668075323L140.85714285714286,155.48537970112574L140.85714285714286,155.75407409926942L140.85714285714286,155.99283373586633L140.85714285714286,156.2352847753656L140.85714285714286,156.3644158941026L140.85714285714286,156.3244214869381L140.85714285714286,156.41672010190103L140.85714285714286,156.36016414854936L140.85714285714286,156.35522344095895L140.85714285714286,156.336447034346L140.85714285714286,156.3363944966519L140.85714285714286,156.35797195454737L140.85714285714286,156.37203375714705L140.85714285714286,156.3865079145423L140.85714285714286,156.42120999703567L140.85714285714286,156.42402404953188L140.85714285714286,156.4224977288056L140.85714285714286,156.45438197040926L140.85714285714286,156.47644799431788L140.85714285714286,156.49403366763306L140.85714285714286,156.532051574321L140.85714285714286,156.49510125758445L140.85714285714286,156.46484843270952L140.85714285714286,156.45251174520314L140.85714285714286,156.4903418771068L140.85714285714286,156.49478171127885L140.85714285714286,156.5187690724826L140.85714285714286,156.5399904313715L140.85714285714286,156.5863312261763L140.85714285714286,156.62292544150645L140.85714285714286,156.6023883753472L140.85714285714286,156.59664091001852L140.85714285714286,156.63165859075158L140.85714285714286,156.67454513259634L149.14285714285714,154.69284829002586L149.14285714285714,154.1813934935131L149.14285714285714,154.25434557313002L149.14285714285714,154.2937360089307L149.14285714285714,154.55947882602686L149.14285714285714,154.9548601850526L149.14285714285714,155.42260283590622L149.14285714285714,155.81367214777103L149.14285714285714,156.03018303948937L149.14285714285714,156.2444642317637L149.14285714285714,156.29919215471097L149.14285714285714,156.42808352629544L149.14285714285714,156.47486019560014L149.14285714285714,156.55866196424287L149.14285714285714,156.55181195377213L149.14285714285714,156.61320454906715L149.14285714285714,156.5540234243727L149.14285714285714,156.49002904189427L149.14285714285714,156.36946218865194L149.14285714285714,156.3510544313965L149.14285714285714,156.33913620020206L149.14285714285714,156.4139545022851L149.14285714285714,156.44382008762486L149.14285714285714,156.4680084702278L149.14285714285714,156.48719517503474L149.14285714285714,156.51062717431847L149.14285714285714,156.55231772493053L149.14285714285714,156.6177142279639L149.14285714285714,156.68565915080134L149.14285714285714,156.67464596630458L149.14285714285714,156.69574129723307L149.14285714285714,156.6730073034319L149.14285714285714,156.65831784247192L157.42857142857142,156.35118227583806L157.42857142857142,156.89349213366833L157.42857142857142,157.37714620257637L157.42857142857142,157.66798578052115L157.42857142857142,158.09732394965826L157.42857142857142,158.4757497018666L157.42857142857142,158.58971674385535L157.42857142857142,158.59975275415755L157.42857142857142,158.6959639682272L157.42857142857142,158.74169230772117L157.42857142857142,158.8327191372686L157.42857142857142,158.7686474599123L157.42857142857142,158.51686390728682L157.42857142857142,158.29399701326759L157.42857142857142,158.0499135387973L157.42857142857142,157.93315286665919L157.42857142857142,157.9013390440942L157.42857142857142,157.87738323570278L157.42857142857142,157.8770759107254L157.42857142857142,157.8778144523294L157.42857142857142,157.94686403735557L157.42857142857142,157.9240500552719L157.42857142857142,157.89011258072838L157.42857142857142,157.8283681207791L157.42857142857142,157.72163874566783L157.42857142857142,157.64175795256247L157.42857142857142,157.6224125165401L157.42857142857142,157.64962016171313L157.42857142857142,157.69026815364214L157.42857142857142,157.6973162627667L157.42857142857142,157.72181127134428L157.42857142857142,157.6406717985132L165.7142857142857,157.31167446130632L165.7142857142857,156.8625908054039L165.7142857142857,156.9798359043514L165.7142857142857,157.10843983869134L165.7142857142857,156.87131506025815L165.7142857142857,156.80157194012878L165.7142857142857,156.6409702767758L165.7142857142857,156.68908485907124L165.7142857142857,156.66702215278912L165.7142857142857,156.8498176813204L165.7142857142857,157.01879378317787L165.7142857142857,157.08701305699074L165.7142857142857,157.17870054500426L165.7142857142857,157.26522940904314L165.7142857142857,157.44696872177067L165.7142857142857,157.60203624934937L165.7142857142857,157.78607949493085L165.7142857142857,157.86758713798667L165.7142857142857,157.98555288772127L165.7142857142857,158.03503557514583L165.7142857142857,158.0635519459942L165.7142857142857,158.13238764401572L165.7142857142857,158.1543462394179L165.7142857142857,158.23670207540505L165.7142857142857,158.3375751156755L165.7142857142857,158.43005074325183L165.7142857142857,158.53417483559275L165.7142857142857,158.64366813282214L165.7142857142857,158.7615764877237L165.7142857142857,158.86396404449155L165.7142857142857,158.94737673114776L165.7142857142857,159.0033852014364L165.7142857142857,159.0322002272135L165.7142857142857,159.03956863196152L165.7142857142857,159.06406160996684L165.7142857142857,159.07764924505514L165.7142857142857,159.07136250602395L174,158.40695917598003L174,158.40117376464278L174,158.6858472564966L174,158.90895048864485L174,158.87195325921093L174,158.72410917826173L174,158.82142185080448L174,158.8861974136236L174,158.86866597242363L174,158.8880090365621L174,158.96378301333476L174,158.9010988638358L174,158.86944307480894L174,158.90098358969655L174,159.02431491630196L174,159.17984843837758L174,159.34529800858516L174,159.36981378970296L174,159.2588181687817L174,159.16139268752426L174,159.12106486124793L174,159.10915615093845L174,159.10553089577854L174,159.10984557458332L174,159.120625450017L174,159.12704020398147L174,159.1209403977388L174,159.093760267547L174,159.02131549917198L174,158.9738090845258L174,158.93123547153377L174,158.87998975854393L174,158.87394887141966L182.28571428571428,159.18830467521383L182.28571428571428,158.84452554591698L182.28571428571428,158.85671805162406L182.28571428571428,158.9807824896856L182.28571428571428,159.18787042692642L182.28571428571428,159.21362200003554L182.28571428571428,159.21844041174782L182.28571428571428,159.25024376413302L182.28571428571428,159.26350478567792L182.28571428571428,159.24142962649762L182.28571428571428,159.28917166161875L182.28571428571428,159.27897460917592L182.28571428571428,159.3138006267145L182.28571428571428,159.31330591322063L182.28571428571428,159.32143427356533L182.28571428571428,159.30156586373462L182.28571428571428,159.29243627658363L182.28571428571428,159.25131496585973L182.28571428571428,159.22010740570792L182.28571428571428,159.064966085615L182.28571428571428,158.93575527654676L182.28571428571428,158.8481764828076L182.28571428571428,158.7951025771188L182.28571428571428,158.77602530538408L182.28571428571428,158.7422291241843L182.28571428571428,158.72746750254205L182.28571428571428,158.72242364467874L182.28571428571428,158.74777356078044L182.28571428571428,158.7989227560086L182.28571428571428,158.85735262655746L182.28571428571428,158.90863802819766L182.28571428571428,158.96109881894148L190.57142857142858,159.65808808212435L190.57142857142858,160.05516459004016L190.57142857142858,159.93518796805856L190.57142857142858,159.61264937280586L190.57142857142858,159.43317248325252L190.57142857142858,159.36117494951915L190.57142857142858,159.32833461222032L190.57142857142858,159.2028084534556L190.57142857142858,159.15346410348286L190.57142857142858,159.16464063603806L190.57142857142858,159.14051232569003L190.57142857142858,159.11699880889987L190.57142857142858,158.94287520877666L190.57142857142858,158.85086534222768L190.57142857142858,158.8527478254637L190.57142857142858,158.83473433975686L190.57142857142858,158.8065976621807L190.57142857142858,158.77156496526217L190.57142857142858,158.7541726504416L190.57142857142858,158.68569891335687L190.57142857142858,158.66352644818662L190.57142857142858,158.64731700826684L190.57142857142858,158.66037072564737L190.57142857142858,158.67627181806822L190.57142857142858,158.59182000227364L190.57142857142858,158.49835309977232L190.57142857142858,158.38206893047646L190.57142857142858,158.3302100662613L190.57142857142858,158.2722157722772L190.57142857142858,158.2533190681938L190.57142857142858,158.24637755913596L190.57142857142858,158.24285019965754L190.57142857142858,158.21469145915344L198.85714285714286,157.97877991421797L198.85714285714286,158.39328732594356L198.85714285714286,158.86668780169776L198.85714285714286,159.03978141547825L198.85714285714286,159.21213887832954L198.85714285714286,159.1770052462707L198.85714285714286,159.21199858858856L198.85714285714286,159.26239483050534L198.85714285714286,159.29548472792405L198.85714285714286,159.34153201310602L198.85714285714286,159.3266596202747L198.85714285714286,159.32250230901798L198.85714285714286,159.3694071739634L198.85714285714286,159.4394596952199L198.85714285714286,159.47423463180792L198.85714285714286,159.52908167377805L198.85714285714286,159.44432468596278L198.85714285714286,159.3950751969768L198.85714285714286,159.35094583583015L198.85714285714286,159.3116447836534L198.85714285714286,159.25411921617516L198.85714285714286,159.19938881692764L198.85714285714286,159.14700349713962L198.85714285714286,159.12601549421586L198.85714285714286,159.05362103350075L198.85714285714286,158.97992022217548L198.85714285714286,158.9780983430353L198.85714285714286,158.97308406118174L198.85714285714286,158.9617802800473L198.85714285714286,159.01617388377662L198.85714285714286,159.03162962856794L198.85714285714286,159.07168610593843L198.85714285714286,159.1018486333984L198.85714285714286,159.18649641018735L207.14285714285714,159.97961513074483L207.14285714285714,160.55011482262412L207.14285714285714,161.01710669811092L207.14285714285714,160.66900410774835L207.14285714285714,160.49602048647589L207.14285714285714,160.42696957373914L207.14285714285714,160.45366817609445L207.14285714285714,160.37322094746102L207.14285714285714,160.31458699431892L207.14285714285714,160.18494040519332L207.14285714285714,160.05598545470835L207.14285714285714,159.87047149185784L207.14285714285714,159.74705159751247L207.14285714285714,159.60821282535807L207.14285714285714,159.51799653958798L207.14285714285714,159.46245017604645L207.14285714285714,159.32711408863793L207.14285714285714,159.15428331524868L207.14285714285714,159.04648840119586L207.14285714285714,158.99203464021963L207.14285714285714,159.02413968097076L207.14285714285714,159.0351986374828L207.14285714285714,159.08214480972677L207.14285714285714,159.107051587802L207.14285714285714,159.14499417409945L207.14285714285714,159.22044138600063L207.14285714285714,159.25442294729444L207.14285714285714,159.27733861339965L207.14285714285714,159.29532374950702L207.14285714285714,159.32052341710903L207.14285714285714,159.32881186401215L207.14285714285714,159.42783599605673L215.42857142857144,160.0146428624135L215.42857142857144,160.7431091029986L215.42857142857144,161.58116051510342L215.42857142857144,161.96520129350216L215.42857142857144,162.0520624859439L215.42857142857144,162.2044205699275L215.42857142857144,162.3662658647631L215.42857142857144,162.45680430290088L215.42857142857144,162.46085833001146L215.42857142857144,162.32692408602904L215.42857142857144,162.25886194824406L215.42857142857144,162.25910286247907L215.42857142857144,162.21313457061405L215.42857142857144,162.190906946483L215.42857142857144,162.09936412129895L215.42857142857144,162.0241175175253L215.42857142857144,161.91985074093432L215.42857142857144,161.80709112656217L215.42857142857144,161.68259440163763L215.42857142857144,161.46789034787707L215.42857142857144,161.2396675422159L215.42857142857144,160.89682822012887L215.42857142857144,160.62385447458166L215.42857142857144,160.45400835944923L215.42857142857144,160.30692645234768L215.42857142857144,160.21050308596242L215.42857142857144,160.14324119017238L215.42857142857144,160.08919089356328L215.42857142857144,160.056265155687L215.42857142857144,160.0494437915893L215.42857142857144,160.03702249070182L215.42857142857144,160.06604481594712L215.42857142857144,160.1012550838121L215.42857142857144,160.1180543654202L215.42857142857144,160.15742003377656L215.42857142857144,160.08480861360485L223.71428571428572,160.72113559403735L223.71428571428572,160.43059249083512L223.71428571428572,160.21108678998863L223.71428571428572,160.07688685294792L223.71428571428572,160.0146962915233L223.71428571428572,160.07619221044794L223.71428571428572,160.21892397578569L223.71428571428572,160.36234732352634L223.71428571428572,160.10116197907777L223.71428571428572,159.9268360730173L223.71428571428572,159.913121701172L223.71428571428572,159.9873200442701L223.71428571428572,160.10439715070436L223.71428571428572,160.23287458668182L223.71428571428572,160.33957535924387L223.71428571428572,160.47019957448154L223.71428571428572,160.55374387253988L223.71428571428572,160.71259164101184L223.71428571428572,160.87300881185715L223.71428571428572,160.99501611199233L223.71428571428572,161.07134223344835L223.71428571428572,161.07878337797794L223.71428571428572,161.05232585140516L223.71428571428572,160.99062568000298L223.71428571428572,160.95096673370062L223.71428571428572,160.91235945435264L223.71428571428572,160.88183178933818L223.71428571428572,160.87244702310926L223.71428571428572,160.86586382509736L223.71428571428572,160.84924981688127L223.71428571428572,160.83989544920206L223.71428571428572,160.82216470753843L223.71428571428572,160.82217281141598L223.71428571428572,160.84428235876834L223.71428571428572,160.85097358465364L232,161.68302953125686L232,162.3098108722258L232,162.145664739825L232,161.88483256255378L232,161.64762113188266L232,161.43742664253713L232,161.3835899836996L232,161.2956881088223L232,161.21006989685108L232,160.8572962207812L232,160.6062301655395L232,160.46526704085042L232,160.2466675630677L232,160.16634420821822L232,160.08812932327515L232,160.02971994126648L232,160.05908671716193L232,160.0588561364969L232,160.03876508731912L232,160.0705129717075L232,160.11045093055122L232,160.14659585679382L232,160.1417522778509L232,160.15267758574583L232,160.14584539339833L232,160.09916631184456L232,160.09947976091738L232,160.13590532968723L232,160.2702028109829L232,160.39027338362862L232,160.48700138124087L232,160.5622667998152L232,160.6191848731784L232,160.59719312608354L232,160.56654724403566L240.2857142857143,161.2551184407476L240.2857142857143,161.29610401489708L240.2857142857143,161.3182220594493L240.2857142857143,161.24840887188066L240.2857142857143,161.1171456019954L240.2857142857143,161.0600820136646L240.2857142857143,160.8966415381126L240.2857142857143,160.86781017521383L240.2857142857143,160.8662607940648L240.2857142857143,160.91925536820077L240.2857142857143,160.93924575598314L240.2857142857143,161.0057873265754L240.2857142857143,160.96311309309985L240.2857142857143,160.8705003853466L240.2857142857143,160.68806555833982L240.2857142857143,160.63400133281772L240.2857142857143,160.5923210136876L240.2857142857143,160.5487895515211L240.2857142857143,160.54078625519134L240.2857142857143,160.55176153226626L240.2857142857143,160.4883735768028L240.2857142857143,160.48242010023168L240.2857142857143,160.4946956784081L240.2857142857143,160.5061252119705L240.2857142857143,160.47732604324136L240.2857142857143,160.4646275751474L240.2857142857143,160.4657525314738L240.2857142857143,160.50376201791255L240.2857142857143,160.49692036371812L240.2857142857143,160.45242307598417L240.2857142857143,160.4089564596545L240.2857142857143,160.42018977464667L240.2857142857143,160.44467736734012L240.2857142857143,160.51072260858768L240.2857142857143,160.50799301394804L240.2857142857143,160.49403466049955L240.2857142857143,160.50902665916965L248.57142857142856,158.04557813004362L248.57142857142856,157.50824351727135L248.57142857142856,157.8648269937161L248.57142857142856,157.90283774942057L248.57142857142856,157.5632495758757L248.57142857142856,157.5101044080657L248.57142857142856,157.51671932794724L248.57142857142856,157.59407944585413L248.57142857142856,157.85003786876266L248.57142857142856,158.05831993675858L248.57142857142856,158.33975386531793L248.57142857142856,158.58130798094936L248.57142857142856,158.90285471057058L248.57142857142856,159.14255016160305L248.57142857142856,159.28539491094708L248.57142857142856,159.45052035442353L248.57142857142856,159.59526076625679L248.57142857142856,159.80674727798802L248.57142857142856,159.9380647461325L248.57142857142856,160.0318480091189L248.57142857142856,160.1330682354909L248.57142857142856,160.23381974745388L248.57142857142856,160.35826167722337L248.57142857142856,160.4213621256016L248.57142857142856,160.47567804599393L248.57142857142856,160.5029782639173L248.57142857142856,160.5279073744048L248.57142857142856,160.5544502346773L248.57142857142856,160.60333884096357L248.57142857142856,160.64962569380967L248.57142857142856,160.671606768006L248.57142857142856,160.66872752129228L248.57142857142856,160.6767599249646L248.57142857142856,160.65511966291749L248.57142857142856,160.63882454559598L248.57142857142856,160.5379031193358" style="fill: none;" fill="none"></path></g></g></g></g><g opacity="0.2"><g><g><g><path stroke="rgb(204, 51, 17)" stroke-width="2px" d="M8.285714285714285,13.024241447448723L8.285714285714285,19.36379663149515L8.285714285714285,16.762887954711893L8.285714285714285,16.55441951751707L8.285714285714285,17.191617409388208L8.285714285714285,16.279087384541807L8.285714285714285,15.446198304494207L8.285714285714285,15.821825981140117L8.285714285714285,16.438392718632993L8.285714285714285,16.659638404846177L8.285714285714285,16.543611605962102L8.285714285714285,16.929062525431306L8.285714285714285,17.200455983479802L8.285714285714285,17.69410324096679L8.285714285714285,18.326377789179467L8.285714285714285,18.645973126093537L8.285714285714285,19.41689840952553L8.285714285714285,19.381497224171948L8.285714285714285,19.706977128982523L8.285714285714285,19.940038839975983L8.285714285714285,20.455301920572907L8.285714285714285,20.933194478352856L8.285714285714285,21.398309787114446L8.285714285714285,21.49469010035196L8.285714285714285,21.526152610778794L8.285714285714285,22.748431285222363L8.285714285714285,23.899907588958726L8.285714285714285,24.582353353500345L8.285714285714285,25.229374488194775L8.285714285714285,25.758422931035344L8.285714285714285,26.39069747924804L8.285714285714285,26.300225178400666L16.57142857142857,38.44538720448811L16.57142857142857,38.03041966756184L16.57142857142857,44.353258927663155L16.57142857142857,46.208796819051095L16.57142857142857,48.800866921742745L16.57142857142857,48.89820845921833L16.57142857142857,50.33387891451516L16.57142857142857,52.09502927462259L16.57142857142857,51.889514843622834L16.57142857142857,54.24066932996113L16.57142857142857,56.090322653452546L16.57142857142857,56.8651866118113L16.57142857142857,58.034363508224466L16.57142857142857,58.060926119486474L16.57142857142857,59.22025632858276L16.57142857142857,60.243913253148385L16.57142857142857,61.416044155756616L16.57142857142857,62.21254738171894L16.57142857142857,63.33256117502847L16.57142857142857,64.70235260327655L16.57142857142857,65.74075611432393L16.57142857142857,67.09971618652342L16.57142857142857,68.01323088010152L16.57142857142857,69.44102398554482L16.57142857142857,71.04582301775613L16.57142857142857,72.17666816711424L16.57142857142857,73.3114285469055L16.57142857142857,74.14136362075806L16.57142857142857,75.25549284617105L16.57142857142857,75.83171161015828L16.57142857142857,76.49941078821816L16.57142857142857,77.3116218249003L16.57142857142857,78.11895640691121L16.57142857142857,78.58407171567279L16.57142857142857,79.9351661602656L24.857142857142858,111.05078013737996L24.857142857142858,112.89355250199635L24.857142857142858,112.89552183945973L24.857142857142858,111.15993769963582L24.857142857142858,111.0055557092031L24.857142857142858,111.58472847938536L24.857142857142858,112.46285370985665L24.857142857142858,113.7313532034556L24.857142857142858,114.31741865475973L24.857142857142858,114.99591402212776L24.857142857142858,115.09228261311848L24.857142857142858,116.24769759178162L24.857142857142858,116.68233505884804L24.857142857142858,117.58404544989266L24.857142857142858,118.854514280955L24.857142857142858,119.12788879871367L24.857142857142858,119.26457019646962L24.857142857142858,119.54088699817657L24.857142857142858,119.52908269564311L24.857142857142858,119.65691379706062L24.857142857142858,120.39146494865416L24.857142857142858,120.97163410981497L24.857142857142858,121.43183779716492L24.857142857142858,121.74748273690543L24.857142857142858,122.09558657805125L24.857142857142858,122.29716233412422L24.857142857142858,122.4043505589167L24.857142857142858,123.3099996248881L24.857142857142858,124.01111892859139L24.857142857142858,124.19008247057597L33.14285714285714,141.76618488629657L33.14285714285714,135.9163382848104L33.14285714285714,136.9232675631841L33.14285714285714,135.63608280817667L33.14285714285714,135.77670288085938L33.14285714285714,136.33326343695322L33.14285714285714,135.8966683546702L33.14285714285714,136.74331935246784L33.14285714285714,135.98614426453906L33.14285714285714,136.5712367693583L33.14285714285714,137.01471281051636L33.14285714285714,136.8977013429006L33.14285714285714,136.92817918459573L33.14285714285714,137.0894538561503L33.14285714285714,137.84267854690552L33.14285714285714,137.9862526257833L33.14285714285714,137.62143286069235L33.14285714285714,137.51818331082663L33.14285714285714,137.62143286069235L33.14285714285714,137.66961129506427L33.14285714285714,137.63814878463745L33.14285714285714,137.86922943592072L33.14285714285714,137.94200114409128L33.14285714285714,138.26945038636526L33.14285714285714,138.5300359328588L33.14285714285714,138.5733027458191L33.14285714285714,138.84863487879434L33.14285714285714,138.9833469390869L33.14285714285714,139.12790568669638L33.14285714285714,138.9676156838735L33.14285714285714,139.10922042528787L33.14285714285714,139.21050063769022L33.14285714285714,139.19083070755005L41.42857142857142,144.76731451352438L41.42857142857142,147.10076840718588L41.42857142857142,145.32388679186505L41.42857142857142,145.43598663806915L41.42857142857142,145.90307128429413L41.42857142857142,145.93650313218433L41.42857142857142,146.19118066628772L41.42857142857142,145.8706123828888L41.42857142857142,146.0387680133184L41.42857142857142,145.41730137666067L41.42857142857142,145.12623798847198L41.42857142857142,145.12328398227692L41.42857142857142,145.1409845749537L41.42857142857142,144.88335303465524L41.42857142857142,144.61293252309164L41.42857142857142,144.93251613775888L41.42857142857142,144.9403817653656L41.42857142857142,144.91776955127716L41.42857142857142,144.89023399353027L41.42857142857142,144.76731451352438L41.42857142857142,144.63652940591174L41.42857142857142,144.62079815069833L41.42857142857142,144.7820611000061L41.42857142857142,144.75747954845428L41.42857142857142,144.809596657753L41.42857142857142,144.90596524874368L41.42857142857142,144.9216965039571L41.42857142857142,144.77223785718283L41.42857142857142,144.78108815352124L41.42857142857142,144.59917060534158L49.714285714285715,143.19791666666666L49.714285714285715,141.4082460800807L49.714285714285715,145.93453379472098L49.714285714285715,146.51371828715008L49.714285714285715,145.48810374736786L49.714285714285715,145.8116143147151L49.714285714285715,146.45472021897632L49.714285714285715,145.9915625254313L49.714285714285715,145.65624765555063L49.714285714285715,146.44291591644287L49.714285714285715,146.39276814460754L49.714285714285715,146.58647827307382L49.714285714285715,146.79396204153696L49.714285714285715,146.97784892717996L49.714285714285715,146.9247471491496L49.714285714285715,147.26006201903024L49.714285714285715,147.00735382239026L49.714285714285715,146.9581789970398L49.714285714285715,147.0525782505671L49.714285714285715,147.08602182070413L49.714285714285715,147.11748433113098L49.714285714285715,147.18927137056986L49.714285714285715,147.32987972100577L49.714285714285715,147.50787031650543L49.714285714285715,147.25023877620697L49.714285714285715,147.359384616216L49.714285714285715,147.1696014404297L49.714285714285715,147.17352839310965L49.714285714285715,147.2836706240972L49.714285714285715,147.28268595536548L49.714285714285715,147.26891231536865L49.714285714285715,147.1696014404297L58,144.77911881605783L58,146.26099836826324L58,146.19315000375113L58,147.5383481582006L58,148.23552878697714L58,147.81171095371246L58,148.51775360107422L58,148.96319897969562L58,148.65345033009845L58,149.00843513011932L58,149.0379283030828L58,149.11266934871674L58,148.9671376546224L58,149.02219704786938L58,148.93664809068045L58,149.17068274815878L58,149.38112052281699L58,149.44503021240234L58,149.3624352614085L58,149.0792375008265L58,149.0182700951894L58,149.53451784451804L58,149.60433554649353L58,149.69873480002084L58,149.6515293121338L58,149.43617991606396L58,149.46371547381085L58,149.58761962254843L58,149.5807386636734L66.28571428571428,152.63791235287985L66.28571428571428,151.97613290945688L66.28571428571428,151.24158175786334L66.28571428571428,152.51401992638904L66.28571428571428,152.555317401886L66.28571428571428,151.55231507619223L66.28571428571428,150.93183310826618L66.28571428571428,150.12647958596548L66.28571428571428,149.43716458479562L66.28571428571428,149.90916085243225L66.28571428571428,150.0291380484899L66.28571428571428,150.0724048614502L66.28571428571428,150.05371960004172L66.28571428571428,150.152045806249L66.28571428571428,150.16089610258737L66.28571428571428,149.96817064285278L66.28571428571428,149.91605353355408L66.28571428571428,149.84623583157855L66.28571428571428,149.9317847887675L66.28571428571428,149.89048731327057L66.28571428571428,149.85508612791696L66.28571428571428,150.2307138045629L66.28571428571428,150.21695188681284L66.28571428571428,150.32315544287363L66.28571428571428,150.09206306934357L66.28571428571428,150.3418289820353L66.28571428571428,150.25333774089813L66.28571428571428,150.26611498991647L66.28571428571428,150.24153343836466L66.28571428571428,150.17171573638916L66.28571428571428,150.16286544005078L66.28571428571428,150.2906965414683L66.28571428571428,150.4155853589376L66.28571428571428,150.52965454260507L66.28571428571428,150.28480025132495L74.57142857142857,142.6492217381795L74.57142857142857,148.3810722033183L74.57142857142857,146.5461654663086L74.57142857142857,148.41843100388846L74.57142857142857,148.17358843485513L74.57142857142857,148.47448678811392L74.57142857142857,148.93664809068045L74.57142857142857,150.07436247666678L74.57142857142857,150.2208788394928L74.57142857142857,149.88556396961212L74.57142857142857,150.45000187555948L74.57142857142857,150.86398474375406L74.57142857142857,150.36543758710226L74.57142857142857,150.54341646035513L74.57142857142857,150.97116124629974L74.57142857142857,150.9328177769979L74.57142857142857,151.1245702902476L74.57142857142857,151.20716524124146L74.57142857142857,151.36647057533264L74.57142857142857,151.33893501758575L74.57142857142857,151.13046658039093L74.57142857142857,151.30648783842724L74.57142857142857,151.40481404463452L74.57142857142857,151.33008472124735L74.57142857142857,151.38318649927777L74.57142857142857,151.36647057533264L74.57142857142857,151.50904826323193L74.57142857142857,151.5877162615458L74.57142857142857,151.61229781309763L74.57142857142857,151.47758575280506L82.85714285714285,154.52296686172485L82.85714285714285,155.7029633919398L82.85714285714285,155.09428572654724L82.85714285714285,154.5278784831365L82.85714285714285,154.2486193974813L82.85714285714285,154.1522508064906L82.85714285714285,154.04212029774985L82.85714285714285,154.03425467014313L82.85714285714285,154.2043679157893L82.85714285714285,153.39901439348856L82.85714285714285,153.34985129038492L82.85714285714285,153.43540024757385L82.85714285714285,153.38032913208008L82.85714285714285,153.2475864092509L82.85714285714285,153.34100099404654L82.85714285714285,153.33607765038806L82.85714285714285,153.40196839968362L82.85714285714285,153.4835786819458L82.85714285714285,153.35673224925995L82.85714285714285,153.26134832700095L82.85714285714285,153.37640217940015L82.85714285714285,153.3439550002416L82.85714285714285,153.44031186898548L82.85714285714285,153.5012792746226L82.85714285714285,153.5366804599762L82.85714285714285,153.40983402729034L82.85714285714285,153.38032913208008L82.85714285714285,153.5465154250463L82.85714285714285,153.51406824588776L82.85714285714285,153.5799472729365L82.85714285714285,153.63501838843027L82.85714285714285,153.60748283068338L91.14285714285714,147.9139875570933L91.14285714285714,152.61136146386465L91.14285714285714,153.40786468982697L91.14285714285714,155.1414794921875L91.14285714285714,154.88877129554749L91.14285714285714,155.51908822854358L91.14285714285714,154.2377997636795L91.14285714285714,153.65173431237537L91.14285714285714,154.60851581891376L91.14285714285714,154.93203810850778L91.14285714285714,154.40595539410907L91.14285714285714,154.4315216143926L91.14285714285714,154.42462893327075L91.14285714285714,154.6252317428589L91.14285714285714,154.49936997890472L91.14285714285714,154.3548112312953L91.14285714285714,154.26139664649963L91.14285714285714,154.34793027242023L91.14285714285714,154.256485025088L91.14285714285714,154.19059427579245L91.14285714285714,154.0893140633901L91.14285714285714,153.95263266563416L91.14285714285714,153.84741377830505L91.14285714285714,154.0008111000061L91.14285714285714,154.123730580012L91.14285714285714,154.1522508064906L91.14285714285714,154.1915789445241L91.14285714285714,154.21321821212769L91.14285714285714,154.21420288085938L99.42857142857143,152.09314437707266L99.42857142857143,149.82066961129507L99.42857142857143,150.60241452852884L99.42857142857143,150.29463521639508L99.42857142857143,150.79712104797363L99.42857142857143,152.18066267172497L99.42857142857143,152.05184690157574L99.42857142857143,152.12067993481955L99.42857142857143,152.21803319454193L99.42857142857143,152.16591608524323L99.42857142857143,152.17575105031332L99.42857142857143,152.10396401087445L99.42857142857143,152.29276251792908L99.42857142857143,152.37733852863312L99.42857142857143,152.70084909598032L99.42857142857143,152.94668805599213L99.42857142857143,152.991912484169L99.42857142857143,152.74214657147726L99.42857142857143,153.03419462839761L99.42857142857143,152.91521382331848L99.42857142857143,153.1767840385437L99.42857142857143,153.23578210671744L99.42857142857143,152.89948256810507L99.42857142857143,152.81590294837952L99.42857142857143,152.94668805599213L99.42857142857143,152.91718316078186L99.42857142857143,152.81590294837952L99.42857142857143,152.81294894218445L99.42857142857143,152.9555383523305L99.42857142857143,153.02534433205923L99.42857142857143,153.00667079289755L99.42857142857143,153.11778597036997L99.42857142857143,153.11680130163828L99.42857142857143,153.09418908754986L99.42857142857143,153.0440295934677L99.42857142857143,152.74214657147726L107.71428571428572,151.7824110587438L107.71428571428572,153.6507496436437L107.71428571428572,153.62027180194855L107.71428571428572,153.45310084025067L107.71428571428572,153.27707958221436L107.71428571428572,152.92997213204703L107.71428571428572,153.42654995123544L107.71428571428572,153.68122748533884L107.71428571428572,153.1767840385437L107.71428571428572,153.13253255685171L107.71428571428572,152.98503152529398L107.71428571428572,153.10992034276327L107.71428571428572,153.17973804473877L107.71428571428572,153.04993760585785L107.71428571428572,152.87490101655325L107.71428571428572,153.14826381206512L107.71428571428572,152.69692214330038L107.71428571428572,152.9122715393702L107.71428571428572,152.90145190556845L107.71428571428572,152.86802005767822L107.71428571428572,152.78639805316925L107.71428571428572,152.92898746331534L107.71428571428572,152.82966486612955L107.71428571428572,152.52188555399576L107.71428571428572,152.5012309551239L107.71428571428572,152.55137872695923L107.71428571428572,152.4746800661087L107.71428571428572,152.52287022272745L107.71428571428572,152.57597200075787L107.71428571428572,152.57694494724274L107.71428571428572,152.6054651737213L107.71428571428572,152.63497006893158L107.71428571428572,152.80114463965097L107.71428571428572,152.739204287529L107.71428571428572,152.82278390725455L116,156.37163551648456L116,157.53982774416605L116,157.64701596895853L116,157.24188339710236L116,157.33038636048636L116,156.27723626295727L116,155.78851234912872L116,154.60360419750214L116,154.7393009265264L116,155.350932598114L116,155.49056800206503L116,155.6862474679947L116,155.75803450743356L116,155.51318021615344L116,155.5800556341807L116,155.52989614009857L116,155.45319747924805L116,155.32339704036713L116,155.2525946696599L116,155.33323200543722L116,155.1847463051478L116,155.11886727809906L116,154.75306284427643L116,154.95563499132794L116,155.07461579640704L116,155.2653836409251L116,155.17295372486115L116,155.11297098795572L116,155.167045712471L116,155.21916282176971L116,155.15525313218436L124.28571428571428,152.1098720232646L124.28571428571428,156.4139176607132L124.28571428571428,156.90755319595337L124.28571428571428,156.0903953711192L124.28571428571428,155.8789846499761L124.28571428571428,156.11694626013437L124.28571428571428,154.80419528484344L124.28571428571428,154.83074617385864L124.28571428571428,154.81993826230365L124.28571428571428,154.32827206452689L124.28571428571428,154.44134485721588L124.28571428571428,154.72356967131296L124.28571428571428,154.45117982228598L124.28571428571428,154.5180552403132L124.28571428571428,154.61835078398389L124.28571428571428,154.70881136258444L124.28571428571428,154.91532218456268L124.28571428571428,155.14344882965088L124.28571428571428,155.00775210062665L124.28571428571428,154.97432025273642L124.28571428571428,155.0618385473887L124.28571428571428,155.03036431471506L124.28571428571428,155.01167905330658L124.28571428571428,155.01660239696503L124.28571428571428,155.05691520373028L124.28571428571428,155.23195179303488L124.28571428571428,155.38534911473593L124.28571428571428,155.33717068036398L124.28571428571428,155.30373883247375L124.28571428571428,155.4119000037511L124.28571428571428,155.29193452994028L124.28571428571428,155.20835491021475L124.28571428571428,155.20540090401968L124.28571428571428,155.2201474905014L124.28571428571428,155.26242963473004L124.28571428571428,155.23784808317822L124.28571428571428,155.35781355698904L124.28571428571428,155.32438170909882L124.28571428571428,155.27127993106842L124.28571428571428,155.1758960088094L132.57142857142856,151.9210617939631L132.57142857142856,153.1413828531901L132.57142857142856,153.52193387349448L132.57142857142856,155.06675016880035L132.57142857142856,155.3430669705073L132.57142857142856,155.79736264546713L132.57142857142856,155.2368634144465L132.57142857142856,155.4492705265681L132.57142857142856,155.15819541613263L132.57142857142856,155.0185717344284L132.57142857142856,155.04118394851685L132.57142857142856,155.15328379472098L132.57142857142856,154.91138350963593L132.57142857142856,154.90351788202923L132.57142857142856,154.8435351451238L132.57142857142856,155.02643736203513L132.57142857142856,155.0529882510503L132.57142857142856,155.09034705162048L132.57142857142856,154.9389190673828L132.57142857142856,154.67243723074594L132.57142857142856,154.8071492910385L132.57142857142856,155.11100165049234L132.57142857142856,155.24374437332153L132.57142857142856,155.25554867585498L132.57142857142856,155.3450363079707L132.57142857142856,155.21720520655313L132.57142857142856,155.40894599755603L132.57142857142856,155.54956607023874L132.57142857142856,155.51318021615344L132.57142857142856,155.42664659023285L132.57142857142856,155.7383645772934L140.85714285714286,154.23091880480447L140.85714285714286,156.48078135649362L140.85714285714286,156.5732112725576L140.85714285714286,156.7207123041153L140.85714285714286,156.9744168917338L140.85714285714286,156.75808282693225L140.85714285714286,156.2024952173233L140.85714285714286,156.69810009002686L140.85714285714286,156.18774863084155L140.85714285714286,156.34016128381094L140.85714285714286,156.27920560042062L140.85714285714286,156.33623433113098L140.85714285714286,156.42375262578327L140.85714285714286,156.41490232944489L140.85714285714286,156.43063358465832L140.85714285714286,156.52700217564902L140.85714285714286,156.43260292212167L140.85714285714286,156.41784461339313L140.85714285714286,156.55158372720084L140.85714285714286,156.54371809959412L140.85714285714286,156.54764505227408L140.85714285714286,156.64795231819153L140.85714285714286,156.38245515028635L140.85714285714286,156.37262018521628L140.85714285714286,156.41490232944489L140.85714285714286,156.60567017396292L140.85714285714286,156.5083169142405L140.85714285714286,156.59189653396606L140.85714285714286,156.6046855052312L140.85714285714286,156.72760498523712L140.85714285714286,156.73448594411215L140.85714285714286,156.53977942466736L140.85714285714286,156.57911928494772L140.85714285714286,156.73841289679208L140.85714285714286,156.80528831481934L149.14285714285714,148.6514809926351L149.14285714285714,152.62218109766644L149.14285714285714,154.47674604256946L149.14285714285714,154.4138210217158L149.14285714285714,155.36961785952252L149.14285714285714,156.16021307309467L149.14285714285714,156.84855512777963L149.14285714285714,157.00587940216064L149.14285714285714,156.69023446242014L149.14285714285714,156.89771823088327L149.14285714285714,156.4660347700119L149.14285714285714,156.82101957003275L149.14285714285714,156.61746275424957L149.14285714285714,156.81413861115774L149.14285714285714,156.53092912832895L149.14285714285714,156.8003649711609L149.14285714285714,156.37360485394797L149.14285714285714,156.29493685563403L149.14285714285714,156.001904129982L149.14285714285714,156.29493685563403L149.14285714285714,156.30280248324075L149.14285714285714,156.6420443058014L149.14285714285714,156.53486780325574L149.14285714285714,156.54174876213074L149.14285714285714,156.5456874370575L149.14285714285714,156.58206156889597L149.14285714285714,156.67941482861838L149.14285714285714,156.81708089510602L149.14285714285714,156.89279488722482L149.14285714285714,156.6410713593165L149.14285714285714,156.76005216439566L149.14285714285714,156.60370083649954L149.14285714285714,156.6135358015696L157.42857142857142,155.41485400994617L157.42857142857142,158.5467687447866L157.42857142857142,158.8516057729721L157.42857142857142,158.55463437239328L157.42857142857142,159.40619699160257L157.42857142857142,159.62941201527914L157.42857142857142,158.93715473016104L157.42857142857142,158.63034836451212L157.42857142857142,158.98927183945975L157.42857142857142,158.88109894593558L157.42857142857142,159.11022198200226L157.42857142857142,158.57331963380176L157.42857142857142,157.7492808500926L157.42857142857142,157.61456878980002L157.42857142857142,157.30580480893454L157.42857142857142,157.57719826698303L157.42857142857142,157.80435196558636L157.42857142857142,157.80435196558636L157.42857142857142,157.87613900502524L157.42857142857142,157.88006595770517L157.42857142857142,158.15736742814383L157.42857142857142,157.85449973742166L157.42857142857142,157.78665137290955L157.42857142857142,157.64013501008353L157.42857142857142,157.3962653875351L157.42857142857142,157.39823472499847L157.42857142857142,157.563436349233L157.42857142857142,157.73256492614746L157.42857142857142,157.81418693065643L157.42857142857142,157.71880300839743L157.42857142857142,157.79648633797964L157.42857142857142,157.39331138134003L165.7142857142857,156.3086987733841L165.7142857142857,155.4935220082601L165.7142857142857,157.33726731936136L165.7142857142857,157.5004996061325L165.7142857142857,156.14842049280804L165.7142857142857,156.5889542500178L165.7142857142857,156.1513627767563L165.7142857142857,156.8357661565145L165.7142857142857,156.59976216157278L165.7142857142857,157.40708502133688L165.7142857142857,157.5339314540227L165.7142857142857,157.29498517513275L165.7142857142857,157.4582174619039L165.7142857142857,157.52901983261108L165.7142857142857,158.0010161002477L165.7142857142857,158.07477247714996L165.7142857142857,158.34715060393017L165.7142857142857,158.11606995264688L165.7142857142857,158.34518126646677L165.7142857142857,158.1858876546224L165.7142857142857,158.1504864692688L165.7142857142857,158.34223898251852L165.7142857142857,158.221288839976L165.7142857142857,158.48777067661285L165.7142857142857,158.64509495099387L165.7142857142857,158.71197036902112L165.7142857142857,158.8516057729721L165.7142857142857,158.97746753692627L165.7142857142857,159.12102989355722L165.7142857142857,159.176101009051L165.7142857142857,159.2016672293345L165.7142857142857,159.17413167158762L165.7142857142857,159.12004522482556L165.7142857142857,159.0620318253835L165.7142857142857,159.13873048623404L165.7142857142857,159.11907227834064L165.7142857142857,159.05219686031342L174,156.3814704815547L174,158.38353645801544L174,159.5536980231603L174,159.58909920851391L174,158.75916413466135L174,158.2733942270279L174,159.11808760960898L174,159.08367109298706L174,158.8152199188868L174,158.9469779729843L174,159.1947862704595L174,158.7100010315577L174,158.7729377746582L174,158.99713746706647L174,159.40030070145926L174,159.65400528907776L174,159.84968475500744L174,159.44455218315125L174,158.92043880621594L174,158.86438302199045L174,158.99812213579813L174,159.07285145918527L174,159.09447900454202L174,159.12299923102063L174,159.15348879496258L174,159.14659611384073L174,159.10234463214874L174,159.0108993848165L174,158.80046161015827L174,158.82898183663687L174,158.80144627888998L174,158.72376294930774L174,158.85553272565204L182.28571428571428,160.14664443333942L182.28571428571428,157.79648633797964L182.28571428571428,158.89388791720071L182.28571428571428,159.35900322596234L182.28571428571428,159.8191951910655L182.28571428571428,159.2921278079351L182.28571428571428,159.23312973976135L182.28571428571428,159.34719892342886L182.28571428571428,159.30393211046857L182.28571428571428,159.17413167158762L182.28571428571428,159.43471721808115L182.28571428571428,159.24788804848987L182.28571428571428,159.41997063159943L182.28571428571428,159.31179773807526L182.28571428571428,159.34621425469714L182.28571428571428,159.24099536736807L182.28571428571428,159.264603972435L182.28571428571428,159.1259532372157L182.28571428571428,159.12496856848398L182.28571428571428,158.59200489521027L182.28571428571428,158.54184540112814L182.28571428571428,158.58118526140848L182.28571428571428,158.63330237070718L182.28571428571428,158.71786665916443L182.28571428571428,158.63919866085052L182.28571428571428,158.68246547381082L182.28571428571428,158.70704702536264L182.28571428571428,158.8250548839569L182.28571428571428,158.95485532283783L182.28571428571428,159.03548093636832L182.28571428571428,159.06498583157858L182.28571428571428,159.12102989355722L190.57142857142858,161.7829176982244L190.57142857142858,161.26568528016406L190.57142857142858,159.56942927837372L190.57142857142858,158.62936369578046L190.57142857142858,158.886022289594L190.57142857142858,159.1416844924291L190.57142857142858,159.2282181183497L190.57142857142858,158.82013154029846L190.57142857142858,159.00303375720978L190.57142857142858,159.19871322313944L190.57142857142858,159.06695516904193L190.57142857142858,159.04531590143839L190.57142857142858,158.41204496224722L190.57142857142858,158.5703656276067L190.57142857142858,158.8584867318471L190.57142857142858,158.77981873353323L190.57142857142858,158.7208206653595L190.57142857142858,158.66476488113403L190.57142857142858,158.70115073521933L190.57142857142858,158.47695104281107L190.57142857142858,158.59593184789023L190.57142857142858,158.59790118535358L190.57142857142858,158.70016606648764L190.57142857142858,158.72474761803946L190.57142857142858,158.33436163266498L190.57142857142858,158.21341149012247L190.57142857142858,158.02756698926288L190.57142857142858,158.17211401462555L190.57142857142858,158.09541535377502L190.57142857142858,158.19571089744568L190.57142857142858,158.22521579265594L190.57142857142858,158.23209675153097L190.57142857142858,158.12884720166522L198.85714285714286,157.25958398977914L198.85714285714286,159.65694757302603L198.85714285714286,160.3098884423574L198.85714285714286,159.56747166315716L198.85714285714286,159.7375849088033L198.85714285714286,159.0698974529902L198.85714285714286,159.31867869695026L198.85714285714286,159.41603195667267L198.85714285714286,159.3963620265325L198.85714285714286,159.48191098372143L198.85714285714286,159.2813198963801L198.85714285714286,159.30982840061188L198.85714285714286,159.5124005476634L198.85714285714286,159.65302062034607L198.85714285714286,159.5802489121755L198.85714285714286,159.6962874333064L198.85714285714286,159.1859359741211L198.85714285714286,159.2449340422948L198.85714285714286,159.21641381581625L198.85714285714286,159.19183226426443L198.85714285714286,159.0787477493286L198.85714285714286,159.03253865242004L198.85714285714286,158.98730250199634L198.85714285714286,159.0620318253835L198.85714285714286,158.83292051156363L198.85714285714286,158.7552371819814L198.85714285714286,158.97254419326782L198.85714285714286,158.9577976067861L198.85714285714286,158.92731976509094L198.85714285714286,159.18199729919434L198.85714285714286,159.0787477493286L198.85714285714286,159.1938016017278L198.85714285714286,159.1938016017278L198.85714285714286,159.44455218315125L207.14285714285714,162.39750337600708L207.14285714285714,162.2893304824829L207.14285714285714,162.4407701889674L207.14285714285714,159.6077844699224L207.14285714285714,159.96866556008655L207.14285714285714,160.21646213531494L207.14285714285714,160.53506108125052L207.14285714285714,160.12797089417774L207.14285714285714,160.13583652178446L207.14285714285714,159.78970201810202L207.14285714285714,159.66285558541617L207.14285714285714,159.30491677920023L207.14285714285714,159.37079580624896L207.14285714285714,159.1849513053894L207.14285714285714,159.24296470483145L207.14285714285714,159.29311247666678L207.14285714285714,158.9145307938258L207.14285714285714,158.62739435831705L207.14285714285714,158.71786665916443L207.14285714285714,158.8260278304418L207.14285714285714,159.1220145622889L207.14285714285714,159.06891278425852L207.14285714285714,159.22526411215463L207.14285714285714,159.18298196792603L207.14285714285714,159.26066529750824L207.14285714285714,159.45044847329456L207.14285714285714,159.35801855723062L207.14285714285714,159.34719892342886L207.14285714285714,159.35015292962393L207.14285714285714,159.3973466952642L207.14285714285714,159.35407988230386L207.14285714285714,159.7297192811966L215.42857142857144,161.80357229709625L215.42857142857144,162.96389889717102L215.42857142857144,164.13602979977924L215.42857142857144,163.13598148028055L215.42857142857144,162.3168660402298L215.42857142857144,162.66889683405557L215.42857142857144,162.8596646785736L215.42857142857144,162.73281824588776L215.42857142857144,162.47321736812592L215.42857142857144,161.91861442724863L215.42857142857144,162.05136887232464L215.42857142857144,162.25983730951947L215.42857142857144,162.0729964176814L215.42857142857144,162.1231441895167L215.42857142857144,161.82028822104135L215.42857142857144,161.79472200075784L215.42857142857144,161.60198481877646L215.42857142857144,161.46333408355713L215.42857142857144,161.30305580298108L215.42857142857144,160.81334722042084L215.42857142857144,160.5439113775889L215.42857142857144,159.8516540924708L215.42857142857144,159.7916713555654L215.42857142857144,159.93621838092804L215.42857142857144,159.85853505134583L215.42857142857144,159.91654845078784L215.42857142857144,159.93818771839142L215.42857142857144,159.92441407839456L215.42857142857144,159.9558883110682L215.42857142857144,160.02864829699197L215.42857142857144,159.9991551240285L215.42857142857144,160.15452178319296L215.42857142857144,160.20859650770825L215.42857142857144,160.16926836967468L215.42857142857144,160.27742954095206L215.42857142857144,159.86344667275748L223.71428571428572,162.66103120644885L223.71428571428572,159.5448477268219L223.71428571428572,159.54190544287363L223.71428571428572,159.6677672068278L223.71428571428572,159.82510320345563L223.71428571428572,160.26366762320202L223.71428571428572,160.65405360857645L223.71428571428572,160.79958530267078L223.71428571428572,159.30491677920023L223.71428571428572,159.3953890800476L223.71428571428572,159.8713123003642L223.71428571428572,160.21351985136667L223.71428571428572,160.46131642659506L223.71428571428572,160.62454871336618L223.71428571428572,160.6648615201314L223.71428571428572,160.8684183359146L223.71428571428572,160.8084355990092L223.71428571428572,161.19685224692026L223.71428571428572,161.36205387115479L223.71428571428572,161.3669654925664L223.71428571428572,161.30402874946594L223.71428571428572,161.10146832466125L223.71428571428572,160.97166788578033L223.71428571428572,160.80252758661905L223.71428571428572,160.83006314436594L223.71428571428572,160.79466195901236L223.71428571428572,160.78876566886902L223.71428571428572,160.8438367843628L223.71428571428572,160.84579439957935L223.71428571428572,160.79860063393912L223.71428571428572,160.81137788295746L223.71428571428572,160.76811106999716L223.71428571428572,160.82219751675925L223.71428571428572,160.9116851488749L223.71428571428572,160.87137234210968L232,164.21962114175162L232,164.2206058104833L232,161.64525163173676L232,161.08966402212778L232,160.92446239789328L232,160.7966312964757L232,161.2194644610087L232,161.027711947759L232,160.9490556716919L232,159.7818363904953L232,159.84083445866904L232,160.035529255867L232,159.5802489121755L232,159.92147179444632L232,159.84968475500744L232,159.8516540924708L232,160.14861377080283L232,160.05815319220227L232,159.97751585642496L232,160.1672990322113L232,160.23220511277515L232,160.25678666432697L232,160.12698622544607L232,160.18598429361978L232,160.12501688798267L232,159.9568612575531L232,160.10043533643085L232,160.2469516992569L232,160.67961982885996L232,160.75631848971048L232,160.78188470999402L232,160.7917196750641L232,160.79270434379578L232,160.53014945983887L232,160.4731207291285L240.2857142857143,163.35428488254547L240.2857142857143,161.42105193932852L240.2857142857143,161.38565075397491L240.2857142857143,161.0355775753657L240.2857142857143,160.71697862943012L240.2857142857143,160.88611892859143L240.2857142857143,160.39837968349457L240.2857142857143,160.7799153725306L240.2857142857143,160.8615373770396L240.2857142857143,161.0808137257894L240.2857142857143,161.0001881122589L240.2857142857143,161.20864482720694L240.2857142857143,160.833017150561L240.2857142857143,160.58816285928089L240.2857142857143,160.13189784685773L240.2857142857143,160.46918205420178L240.2857142857143,160.4652551015218L240.2857142857143,160.41608027617136L240.2857142857143,160.51638754208884L240.2857142857143,160.58522057533264L240.2857142857143,160.29513013362885L240.2857142857143,160.46427043279013L240.2857142857143,160.53211879730225L240.2857142857143,160.54096909364065L240.2857142857143,160.3895293871562L240.2857142857143,160.42591524124146L240.2857142857143,160.46918205420178L240.2857142857143,160.61963709195456L240.2857142857143,160.47606301307678L240.2857142857143,160.3167694012324L240.2857142857143,160.27644487222037L240.2857142857143,160.45443546772003L240.2857142857143,160.51932982603708L240.2857142857143,160.7120670080185L240.2857142857143,160.49967161814374L240.2857142857143,160.45148146152496L240.2857142857143,160.5547310113907L248.57142857142856,150.5355508327484L248.57142857142856,155.8701343536377L248.57142857142856,158.95190131664276L248.57142857142856,158.0187166929245L248.57142857142856,156.52798684438068L248.57142857142856,157.34808695316315L248.57142857142856,157.53688546021777L248.57142857142856,157.82991818586984L248.57142857142856,158.63034836451212L248.57142857142856,158.6932851076126L248.57142857142856,159.19772855440775L248.57142857142856,159.3177057504654L248.57142857142856,159.88311660289764L248.57142857142856,159.87328163782755L248.57142857142856,159.7208689848582L248.57142857142856,159.95391897360486L248.57142857142856,160.0365139245987L248.57142857142856,160.45148146152496L248.57142857142856,160.33839694658914L248.57142857142856,160.31775406996408L248.57142857142856,160.4416464964549L248.57142857142856,160.54096909364065L248.57142857142856,160.737633228302L248.57142857142856,160.61372907956442L248.57142857142856,160.6412646373113L248.57142857142856,160.58620524406433L248.57142857142856,160.60390583674115L248.57142857142856,160.63536834716797L248.57142857142856,160.75237981478372L248.57142857142856,160.7907350063324L248.57142857142856,160.7386178970337L248.57142857142856,160.6599498987198L248.57142857142856,160.7012473742167L248.57142857142856,160.5891475280126L248.57142857142856,160.5891475280126L248.57142857142856,160.2302357753118" style="fill: none;" fill="none"></path></g></g></g></g></g></g><g transform="translate(40, 177)" clip-path="url(#clip_1)"><clipPath id="clip_1"><rect width="290" height="23"></rect></clipPath><g><g><line x1="0" y1="0" x2="0" y2="5" style="visibility: inherit;" fill="rgb(0, 0, 0)" stroke="rgb(204, 204, 204)" stroke-width="1px"></line><line x1="41.42857142857142" y1="0" x2="41.42857142857142" y2="5" style="visibility: inherit;" fill="rgb(0, 0, 0)" stroke="rgb(204, 204, 204)" stroke-width="1px"></line><line x1="82.85714285714285" y1="0" x2="82.85714285714285" y2="5" style="visibility: inherit;" fill="rgb(0, 0, 0)" stroke="rgb(204, 204, 204)" stroke-width="1px"></line><line x1="124.28571428571428" y1="0" x2="124.28571428571428" y2="5" style="visibility: inherit;" fill="rgb(0, 0, 0)" stroke="rgb(204, 204, 204)" stroke-width="1px"></line><line x1="165.7142857142857" y1="0" x2="165.7142857142857" y2="5" style="visibility: inherit;" fill="rgb(0, 0, 0)" stroke="rgb(204, 204, 204)" stroke-width="1px"></line><line x1="207.14285714285714" y1="0" x2="207.14285714285714" y2="5" style="visibility: inherit;" fill="rgb(0, 0, 0)" stroke="rgb(204, 204, 204)" stroke-width="1px"></line><line x1="248.57142857142856" y1="0" x2="248.57142857142856" y2="5" style="visibility: inherit;" fill="rgb(0, 0, 0)" stroke="rgb(204, 204, 204)" stroke-width="1px"></line><line x1="290" y1="0" x2="290" y2="5" style="visibility: inherit;" fill="rgb(0, 0, 0)" stroke="rgb(204, 204, 204)" stroke-width="1px"></line></g><g transform="translate(0, 8)"><text x="0" y="0" dx="0em" dy="0.95em" style="text-anchor: middle; visibility: hidden; font-family: Roboto, sans-serif; font-size: 12px; font-weight: 200;" fill="rgb(33, 33, 33)" stroke="none" stroke-width="1px">0</text><text x="41.42857142857142" y="0" dx="0em" dy="0.95em" style="text-anchor: middle; visibility: inherit; font-family: Roboto, sans-serif; font-size: 12px; font-weight: 200;" fill="rgb(33, 33, 33)" stroke="none" stroke-width="1px">5</text><text x="82.85714285714285" y="0" dx="0em" dy="0.95em" style="text-anchor: middle; visibility: inherit; font-family: Roboto, sans-serif; font-size: 12px; font-weight: 200;" fill="rgb(33, 33, 33)" stroke="none" stroke-width="1px">10</text><text x="124.28571428571428" y="0" dx="0em" dy="0.95em" style="text-anchor: middle; visibility: inherit; font-family: Roboto, sans-serif; font-size: 12px; font-weight: 200;" fill="rgb(33, 33, 33)" stroke="none" stroke-width="1px">15</text><text x="165.7142857142857" y="0" dx="0em" dy="0.95em" style="text-anchor: middle; visibility: inherit; font-family: Roboto, sans-serif; font-size: 12px; font-weight: 200;" fill="rgb(33, 33, 33)" stroke="none" stroke-width="1px">20</text><text x="207.14285714285714" y="0" dx="0em" dy="0.95em" style="text-anchor: middle; visibility: inherit; font-family: Roboto, sans-serif; font-size: 12px; font-weight: 200;" fill="rgb(33, 33, 33)" stroke="none" stroke-width="1px">25</text><text x="248.57142857142856" y="0" dx="0em" dy="0.95em" style="text-anchor: middle; visibility: inherit; font-family: Roboto, sans-serif; font-size: 12px; font-weight: 200;" fill="rgb(33, 33, 33)" stroke="none" stroke-width="1px">30</text><text x="290" y="0" dx="0em" dy="0.95em" style="text-anchor: middle; visibility: hidden; font-family: Roboto, sans-serif; font-size: 12px; font-weight: 200;" fill="rgb(33, 33, 33)" stroke="none" stroke-width="1px">35</text></g><line x1="0" y1="0" x2="290" y2="0" fill="rgb(0, 0, 0)" stroke="rgb(204, 204, 204)" stroke-width="1px"></line></g></g></g></g></svg>