<svg viewBox="0 0 330 200" xmlns="http://www.w3.org/2000/svg"><g><g><g><g><g><line x1="40" y1="177" x2="35" y2="177" style="visibility: inherit;" fill="rgb(0, 0, 0)" stroke="rgb(204, 204, 204)" stroke-width="1px"></line><line x1="40" y1="165.2" x2="35" y2="165.2" style="visibility: inherit;" fill="rgb(0, 0, 0)" stroke="rgb(204, 204, 204)" stroke-width="1px"></line><line x1="40" y1="153.4" x2="35" y2="153.4" style="visibility: inherit;" fill="rgb(0, 0, 0)" stroke="rgb(204, 204, 204)" stroke-width="1px"></line><line x1="40" y1="141.6" x2="35" y2="141.6" style="visibility: inherit;" fill="rgb(0, 0, 0)" stroke="rgb(204, 204, 204)" stroke-width="1px"></line><line x1="40" y1="129.8" x2="35" y2="129.8" style="visibility: inherit;" fill="rgb(0, 0, 0)" stroke="rgb(204, 204, 204)" stroke-width="1px"></line><line x1="40" y1="118.00000000000001" x2="35" y2="118.00000000000001" style="visibility: inherit;" fill="rgb(0, 0, 0)" stroke="rgb(204, 204, 204)" stroke-width="1px"></line><line x1="40" y1="106.19999999999997" x2="35" y2="106.19999999999997" style="visibility: inherit;" fill="rgb(0, 0, 0)" stroke="rgb(204, 204, 204)" stroke-width="1px"></line><line x1="40" y1="94.40000000000002" x2="35" y2="94.40000000000002" style="visibility: inherit;" fill="rgb(0, 0, 0)" stroke="rgb(204, 204, 204)" stroke-width="1px"></line><line x1="40" y1="82.6" x2="35" y2="82.6" style="visibility: inherit;" fill="rgb(0, 0, 0)" stroke="rgb(204, 204, 204)" stroke-width="1px"></line><line x1="40" y1="70.8" x2="35" y2="70.8" style="visibility: inherit;" fill="rgb(0, 0, 0)" stroke="rgb(204, 204, 204)" stroke-width="1px"></line><line x1="40" y1="59.00000000000001" x2="35" y2="59.00000000000001" style="visibility: inherit;" fill="rgb(0, 0, 0)" stroke="rgb(204, 204, 204)" stroke-width="1px"></line><line x1="40" y1="47.20000000000001" x2="35" y2="47.20000000000001" style="visibility: inherit;" fill="rgb(0, 0, 0)" stroke="rgb(204, 204, 204)" stroke-width="1px"></line><line x1="40" y1="35.40000000000001" x2="35" y2="35.40000000000001" style="visibility: inherit;" fill="rgb(0, 0, 0)" stroke="rgb(204, 204, 204)" stroke-width="1px"></line><line x1="40" y1="23.599999999999994" x2="35" y2="23.599999999999994" style="visibility: inherit;" fill="rgb(0, 0, 0)" stroke="rgb(204, 204, 204)" stroke-width="1px"></line><line x1="40" y1="11.800000000000017" x2="35" y2="11.800000000000017" style="visibility: inherit;" fill="rgb(0, 0, 0)" stroke="rgb(204, 204, 204)" stroke-width="1px"></line><line x1="40" y1="0" x2="35" y2="0" style="visibility: inherit;" fill="rgb(0, 0, 0)" stroke="rgb(204, 204, 204)" stroke-width="1px"></line></g><g transform="translate(30, 0)"><text x="0" y="177" dx="0em" dy="0.3em" style="text-anchor: end; visibility: hidden; font-family: Roboto, sans-serif; font-size: 12px; font-weight: 200;" fill="rgb(33, 33, 33)" stroke="none" stroke-width="1px">0.6</text><text x="0" y="165.2" dx="0em" dy="0.3em" style="text-anchor: end; visibility: inherit; font-family: Roboto, sans-serif; font-size: 12px; font-weight: 200;" fill="rgb(33, 33, 33)" stroke="none" stroke-width="1px">0.8</text><text x="0" y="153.4" dx="0em" dy="0.3em" style="text-anchor: end; visibility: hidden; font-family: Roboto, sans-serif; font-size: 12px; font-weight: 200;" fill="rgb(33, 33, 33)" stroke="none" stroke-width="1px">1</text><text x="0" y="141.6" dx="0em" dy="0.3em" style="text-anchor: end; visibility: inherit; font-family: Roboto, sans-serif; font-size: 12px; font-weight: 200;" fill="rgb(33, 33, 33)" stroke="none" stroke-width="1px">1.2</text><text x="0" y="129.8" dx="0em" dy="0.3em" style="text-anchor: end; visibility: hidden; font-family: Roboto, sans-serif; font-size: 12px; font-weight: 200;" fill="rgb(33, 33, 33)" stroke="none" stroke-width="1px">1.4</text><text x="0" y="118.00000000000001" dx="0em" dy="0.3em" style="text-anchor: end; visibility: inherit; font-family: Roboto, sans-serif; font-size: 12px; font-weight: 200;" fill="rgb(33, 33, 33)" stroke="none" stroke-width="1px">1.6</text><text x="0" y="106.19999999999997" dx="0em" dy="0.3em" style="text-anchor: end; visibility: hidden; font-family: Roboto, sans-serif; font-size: 12px; font-weight: 200;" fill="rgb(33, 33, 33)" stroke="none" stroke-width="1px">1.8</text><text x="0" y="94.40000000000002" dx="0em" dy="0.3em" style="text-anchor: end; visibility: inherit; font-family: Roboto, sans-serif; font-size: 12px; font-weight: 200;" fill="rgb(33, 33, 33)" stroke="none" stroke-width="1px">2</text><text x="0" y="82.6" dx="0em" dy="0.3em" style="text-anchor: end; visibility: hidden; font-family: Roboto, sans-serif; font-size: 12px; font-weight: 200;" fill="rgb(33, 33, 33)" stroke="none" stroke-width="1px">2.2</text><text x="0" y="70.8" dx="0em" dy="0.3em" style="text-anchor: end; visibility: inherit; font-family: Roboto, sans-serif; font-size: 12px; font-weight: 200;" fill="rgb(33, 33, 33)" stroke="none" stroke-width="1px">2.4</text><text x="0" y="59.00000000000001" dx="0em" dy="0.3em" style="text-anchor: end; visibility: hidden; font-family: Roboto, sans-serif; font-size: 12px; font-weight: 200;" fill="rgb(33, 33, 33)" stroke="none" stroke-width="1px">2.6</text><text x="0" y="47.20000000000001" dx="0em" dy="0.3em" style="text-anchor: end; visibility: inherit; font-family: Roboto, sans-serif; font-size: 12px; font-weight: 200;" fill="rgb(33, 33, 33)" stroke="none" stroke-width="1px">2.8</text><text x="0" y="35.40000000000001" dx="0em" dy="0.3em" style="text-anchor: end; visibility: hidden; font-family: Roboto, sans-serif; font-size: 12px; font-weight: 200;" fill="rgb(33, 33, 33)" stroke="none" stroke-width="1px">3</text><text x="0" y="23.599999999999994" dx="0em" dy="0.3em" style="text-anchor: end; visibility: inherit; font-family: Roboto, sans-serif; font-size: 12px; font-weight: 200;" fill="rgb(33, 33, 33)" stroke="none" stroke-width="1px">3.2</text><text x="0" y="11.800000000000017" dx="0em" dy="0.3em" style="text-anchor: end; visibility: hidden; font-family: Roboto, sans-serif; font-size: 12px; font-weight: 200;" fill="rgb(33, 33, 33)" stroke="none" stroke-width="1px">3.4</text><text x="0" y="0" dx="0em" dy="0.3em" style="text-anchor: end; visibility: hidden; font-family: Roboto, sans-serif; font-size: 12px; font-weight: 200;" fill="rgb(33, 33, 33)" stroke="none" stroke-width="1px">3.6</text></g><line x1="40" y1="0" x2="40" y2="177" fill="rgb(0, 0, 0)" stroke="rgb(204, 204, 204)" stroke-width="1px"></line></g></g><g transform="translate(40, 0)" clip-path="url(#clip_0)"><clipPath id="clip_0"><rect width="290" height="177"></rect></clipPath><g><g><g><line x1="0" y1="0" x2="0" y2="177" fill="rgb(0, 0, 0)" stroke="rgb(66, 66, 66)" stroke-width="1px" opacity="0.25"></line><line x1="24.166666666666664" y1="0" x2="24.166666666666664" y2="177" fill="rgb(0, 0, 0)" stroke="rgb(66, 66, 66)" stroke-width="1px" opacity="0.25"></line><line x1="48.33333333333333" y1="0" x2="48.33333333333333" y2="177" fill="rgb(0, 0, 0)" stroke="rgb(66, 66, 66)" stroke-width="1px" opacity="0.25"></line><line x1="72.5" y1="0" x2="72.5" y2="177" fill="rgb(0, 0, 0)" stroke="rgb(66, 66, 66)" stroke-width="1px" opacity="0.25"></line><line x1="96.66666666666666" y1="0" x2="96.66666666666666" y2="177" fill="rgb(0, 0, 0)" stroke="rgb(66, 66, 66)" stroke-width="1px" opacity="0.25"></line><line x1="120.83333333333334" y1="0" x2="120.83333333333334" y2="177" fill="rgb(0, 0, 0)" stroke="rgb(66, 66, 66)" stroke-width="1px" opacity="0.25"></line><line x1="145" y1="0" x2="145" y2="177" fill="rgb(0, 0, 0)" stroke="rgb(66, 66, 66)" stroke-width="1px" opacity="0.25"></line><line x1="169.16666666666669" y1="0" x2="169.16666666666669" y2="177" fill="rgb(0, 0, 0)" stroke="rgb(66, 66, 66)" stroke-width="1px" opacity="0.25"></line><line x1="193.33333333333331" y1="0" x2="193.33333333333331" y2="177" fill="rgb(0, 0, 0)" stroke="rgb(66, 66, 66)" stroke-width="1px" opacity="0.25"></line><line x1="217.5" y1="0" x2="217.5" y2="177" fill="rgb(0, 0, 0)" stroke="rgb(66, 66, 66)" stroke-width="1px" opacity="0.25"></line><line x1="241.66666666666669" y1="0" x2="241.66666666666669" y2="177" fill="rgb(0, 0, 0)" stroke="rgb(66, 66, 66)" stroke-width="1px" opacity="0.25"></line><line x1="265.8333333333333" y1="0" x2="265.8333333333333" y2="177" fill="rgb(0, 0, 0)" stroke="rgb(66, 66, 66)" stroke-width="1px" opacity="0.25"></line><line x1="290" y1="0" x2="290" y2="177" fill="rgb(0, 0, 0)" stroke="rgb(66, 66, 66)" stroke-width="1px" opacity="0.25"></line></g><g><line x1="0" y1="177" x2="290" y2="177" fill="rgb(0, 0, 0)" stroke="rgb(66, 66, 66)" stroke-width="1px" opacity="0.25"></line><line x1="0" y1="165.2" x2="290" y2="165.2" fill="rgb(0, 0, 0)" stroke="rgb(66, 66, 66)" stroke-width="1px" opacity="0.25"></line><line x1="0" y1="153.4" x2="290" y2="153.4" fill="rgb(0, 0, 0)" stroke="rgb(66, 66, 66)" stroke-width="1px" opacity="0.25"></line><line x1="0" y1="141.6" x2="290" y2="141.6" fill="rgb(0, 0, 0)" stroke="rgb(66, 66, 66)" stroke-width="1px" opacity="0.25"></line><line x1="0" y1="129.8" x2="290" y2="129.8" fill="rgb(0, 0, 0)" stroke="rgb(66, 66, 66)" stroke-width="1px" opacity="0.25"></line><line x1="0" y1="118.00000000000001" x2="290" y2="118.00000000000001" fill="rgb(0, 0, 0)" stroke="rgb(66, 66, 66)" stroke-width="1px" opacity="0.25"></line><line x1="0" y1="106.19999999999997" x2="290" y2="106.19999999999997" fill="rgb(0, 0, 0)" stroke="rgb(66, 66, 66)" stroke-width="1px" opacity="0.25"></line><line x1="0" y1="94.40000000000002" x2="290" y2="94.40000000000002" fill="rgb(0, 0, 0)" stroke="rgb(66, 66, 66)" stroke-width="1px" opacity="0.25"></line><line x1="0" y1="82.6" x2="290" y2="82.6" fill="rgb(0, 0, 0)" stroke="rgb(66, 66, 66)" stroke-width="1px" opacity="0.25"></line><line x1="0" y1="70.8" x2="290" y2="70.8" fill="rgb(0, 0, 0)" stroke="rgb(66, 66, 66)" stroke-width="1px" opacity="0.25"></line><line x1="0" y1="59.00000000000001" x2="290" y2="59.00000000000001" fill="rgb(0, 0, 0)" stroke="rgb(66, 66, 66)" stroke-width="1px" opacity="0.25"></line><line x1="0" y1="47.20000000000001" x2="290" y2="47.20000000000001" fill="rgb(0, 0, 0)" stroke="rgb(66, 66, 66)" stroke-width="1px" opacity="0.25"></line><line x1="0" y1="35.40000000000001" x2="290" y2="35.40000000000001" fill="rgb(0, 0, 0)" stroke="rgb(66, 66, 66)" stroke-width="1px" opacity="0.25"></line><line x1="0" y1="23.599999999999994" x2="290" y2="23.599999999999994" fill="rgb(0, 0, 0)" stroke="rgb(66, 66, 66)" stroke-width="1px" opacity="0.25"></line><line x1="0" y1="11.800000000000017" x2="290" y2="11.800000000000017" fill="rgb(0, 0, 0)" stroke="rgb(66, 66, 66)" stroke-width="1px" opacity="0.25"></line><line x1="0" y1="0" x2="290" y2="0" fill="rgb(0, 0, 0)" stroke="rgb(66, 66, 66)" stroke-width="1px" opacity="0.25"></line></g></g></g><g><g><line x1="0" y1="212.4" x2="290" y2="212.4" fill="rgb(0, 0, 0)" stroke="rgb(153, 153, 153)" stroke-width="1.5px"></line></g></g><g><g><line x1="24.166666666666664" y1="0" x2="24.166666666666664" y2="177" fill="rgb(0, 0, 0)" stroke="rgb(153, 153, 153)" stroke-width="1.5px"></line></g></g><g><g><g><g><g><path stroke="rgb(255, 112, 67)" stroke-width="2px" d="M26.583333333333332,13.256122493743902L26.583333333333332,21.27921053323979L26.583333333333332,28.366150076947232L26.583333333333332,38.38881797926451L26.583333333333332,44.87230099847728L26.583333333333332,49.60476856538L26.583333333333332,53.20262155366328L29,62.64661894418931L29,70.13998953859722L29,76.35751695471953L29,81.54912683999359L29,85.92067433577625L29,89.61141721182841L29,92.74249336992789L29,95.52438145551552L29,97.98203793853102L31.416666666666668,100.57481027726837L31.416666666666668,102.83802564236139L31.416666666666668,104.8461720745506L31.416666666666668,106.62181798318684L31.416666666666668,108.18088122474019L31.416666666666668,109.58659757030206L31.416666666666668,110.83650016688176L31.416666666666668,111.97067093326922L33.833333333333336,112.35169146145626L33.833333333333336,112.86249414202864L33.833333333333336,113.47262317164697L33.833333333333336,114.08898347850023L33.833333333333336,114.6701628456608L33.833333333333336,115.19952111759335L33.833333333333336,115.71232263733279L33.833333333333336,116.17890042507906L36.25,116.93918612483537L36.25,117.7254351466382L36.25,118.31716981443233L36.25,118.79967408755361L36.25,119.22964587348932L36.25,119.62487567287944L36.25,120.00491492226858L36.25,120.35745900967682L36.25,120.67292846186572L38.666666666666664,121.04145789788822L38.666666666666664,121.4858387858784L38.666666666666664,121.84062562255093L38.666666666666664,122.16192538305077L38.666666666666664,122.48144220857336L38.666666666666664,122.79293112624961L38.666666666666664,123.05771199751791L38.666666666666664,123.3068588210989L38.666666666666664,123.54940674108052L41.083333333333336,123.6961973705617L41.083333333333336,123.84527123764846L41.083333333333336,123.98663195016056L41.083333333333336,124.13122163425078L41.083333333333336,124.27118686901521L41.083333333333336,124.42464901517693L41.083333333333336,124.57384612881107L41.083333333333336,124.7173708320041L43.5,125.01769025139158L43.5,125.2460261081779L43.5,125.47637238205373L43.5,125.71535201037842L43.5,125.95203168291256L43.5,126.15704980637098L43.5,126.33461206070798L45.916666666666664,126.56458048960536L45.916666666666664,126.69353694679505L45.916666666666664,126.84922301269582L45.916666666666664,126.98905125041848L45.916666666666664,127.11253178582585L45.916666666666664,127.24943059701496L48.33333333333333,127.56016039014733L48.33333333333333,127.85210386725196L48.33333333333333,128.08841341181093L48.33333333333333,128.2718959971274L48.33333333333333,128.43509517007917L48.33333333333333,128.5961822979809L48.33333333333333,128.73412232118991L48.33333333333333,128.85134514944806L48.33333333333333,128.97561271280708L50.75,129.16224542328138L50.75,129.31943204494863L50.75,129.47163963521848L50.75,129.54763758489912L50.75,129.62448592860918L50.75,129.69566268331994L50.75,129.76806017407617L53.166666666666664,129.8168905183202L53.166666666666664,129.92779598639513L53.166666666666664,130.05467329334655L53.166666666666664,130.16820401644372L53.166666666666664,130.23276359450844L53.166666666666664,130.297608691109L53.166666666666664,130.36876329082924L53.166666666666664,130.44501413278468L53.166666666666664,130.50999571789896L53.166666666666664,130.58585131573497L55.583333333333336,130.63146394811434L55.583333333333336,130.68079269113747L55.583333333333336,130.72605201947007L55.583333333333336,130.78833529158808L55.583333333333336,130.85239333618355L55.583333333333336,130.9046756568218L55.583333333333336,130.94702568675987L55.583333333333336,130.9899348427166L55.583333333333336,131.02632392513175L55.583333333333336,131.06546941093134L55.583333333333336,131.10427077178767L55.583333333333336,131.15062231709555L55.583333333333336,131.20278048453022L58,131.35404694679846L58,131.40305636198778L58,131.45439370201237L58,131.53868094569407L58,131.6198538807781L58,131.69996348369182L58,131.7641292318717L58,131.83485858344238L58,131.90546495140492L60.41666666666667,131.91869167203177L60.41666666666667,131.86631212314987L60.41666666666667,131.83222665561806L60.41666666666667,131.83437067392506L60.41666666666667,131.93546230060645L60.41666666666667,132.04099714493677L60.41666666666667,132.11553317859386L60.41666666666667,132.18030403816172L60.41666666666667,132.25113254370464L60.41666666666667,132.34369589250548L60.41666666666667,132.4273358610476L60.41666666666667,132.4913952545024L60.41666666666667,132.55484311897376L60.41666666666667,132.61339875973502L62.833333333333336,132.74901855672772L62.833333333333336,132.8557562223923L62.833333333333336,132.92729431492313L62.833333333333336,132.98810344033498L62.833333333333336,133.03473597794041L62.833333333333336,133.08700470372568L62.833333333333336,133.13715776810318L62.833333333333336,133.18716085116176L62.833333333333336,133.21883771891243L65.25,133.19496733343811L65.25,133.2440213775971L65.25,133.2557598923771L65.25,133.2187986554937L65.25,133.24596571835013L65.25,133.26716877621843L65.25,133.2943938019643L65.25,133.32497853408972L65.25,133.35766274584077L65.25,133.40382169474586L65.25,133.44365710404847L65.25,133.47754466468368L65.25,133.51150753884474L65.25,133.54766641925602L65.25,133.5847899545805L65.25,133.6200561613011L67.66666666666667,133.56762944014613L67.66666666666667,133.54349721236375L67.66666666666667,133.54462126657202L67.66666666666667,133.50213631723653L67.66666666666667,133.478684186327L67.66666666666667,133.4751711735932L67.66666666666667,133.4613298269856L67.66666666666667,133.4659727922173L67.66666666666667,133.47805484569997L67.66666666666667,133.4715049488009L67.66666666666667,133.46773139174334L67.66666666666667,133.4773355540111L67.66666666666667,133.49115027115676L67.66666666666667,133.51383377247296L67.66666666666667,133.53449750189975L70.08333333333333,133.5301412068033L70.08333333333333,133.61675604641277L70.08333333333333,133.6924009092734L70.08333333333333,133.77727371129563L70.08333333333333,133.85315179477118L70.08333333333333,133.89012636022156L70.08333333333333,133.932686802227L70.08333333333333,133.9699324136742L72.5,134.2377662708843L72.5,134.4226098884605L72.5,134.48385886386941L72.5,134.56667932203388L72.5,134.65789634212672L72.5,134.71918014958501L72.5,134.78920032390482L72.5,134.86439240264502L72.5,134.93417219543664L72.5,135.0050946692611L72.5,135.0688419387817L72.5,135.13037498065066L72.5,135.1867068968597L74.91666666666667,135.2245569245266L74.91666666666667,135.33724684176408L74.91666666666667,135.4387557685723L74.91666666666667,135.54893640883884L74.91666666666667,135.62525688597955L74.91666666666667,135.67162317200652L74.91666666666667,135.7398619365543L74.91666666666667,135.8131552019118L74.91666666666667,135.88918517207486L74.91666666666667,135.9617675601277L74.91666666666667,136.0297176440852L74.91666666666667,136.08872375460405L74.91666666666667,136.14050197601114L77.33333333333333,136.25320588297922L77.33333333333333,136.34286923137674L77.33333333333333,136.37185053356933L77.33333333333333,136.40658078329122L77.33333333333333,136.42476510644988L77.33333333333333,136.45791156707574L77.33333333333333,136.50583223519592L77.33333333333333,136.54796419949733L77.33333333333333,136.59232632820775L77.33333333333333,136.64184520897408L77.33333333333333,136.65823702055886L77.33333333333333,136.66687670807514L77.33333333333333,136.67608736811312L77.33333333333333,136.69044277753324L77.33333333333333,136.70455234278228L79.75,136.83690181009348L79.75,136.92864923424568L79.75,137.0045694444419L79.75,137.0664276024637L79.75,137.09932110225319L79.75,137.12868178087658L79.75,137.17987958514746L79.75,137.2197854923293L79.75,137.2510878454546L79.75,137.27321422146997L82.16666666666667,137.25325841711768L82.16666666666667,137.27813778443974L82.16666666666667,137.3076140464501L82.16666666666667,137.30909568633493L82.16666666666667,137.33377917619967L82.16666666666667,137.37407307999632L82.16666666666667,137.39972594264302L82.16666666666667,137.427754211114L82.16666666666667,137.44051615543995L82.16666666666667,137.46948458269867L82.16666666666667,137.5041139128123L82.16666666666667,137.53990283171737L84.58333333333334,137.35501142818046L84.58333333333334,137.20302386395093L84.58333333333334,137.2444274761029L84.58333333333334,137.30983886923892L84.58333333333334,137.35419087918194L84.58333333333334,137.39656159748367L87,137.54649489311402L87,137.67185095910878L87,137.76925673644158L87,137.86642367283372L87,137.95005905030396L87,137.96694314994434L87,137.97967911985376L87,138.01071737086886L87,138.04144263028923L89.41666666666667,138.0129295891206L89.41666666666667,138.00221445728567L89.41666666666667,138.02596013590158L89.41666666666667,138.07754660161348L89.41666666666667,138.13056591576745L89.41666666666667,138.1966281382708L89.41666666666667,138.25605378231924L89.41666666666667,138.31215400781196L89.41666666666667,138.3669831907221L91.83333333333333,138.46942762228448L91.83333333333333,138.55188166154605L91.83333333333333,138.6253455580594L91.83333333333333,138.71858897281734L91.83333333333333,138.79914620709147L91.83333333333333,138.86151532229266L91.83333333333333,138.91710792986981L91.83333333333333,138.96216241122767L91.83333333333333,139.00118830992733L91.83333333333333,139.04684746963272L91.83333333333333,139.06783299122907L94.25,139.19066541919068L94.25,139.33485029493502L94.25,139.472238776909L94.25,139.59027925542227L94.25,139.70235897581333L94.25,139.77791855468007L94.25,139.84285599737083L94.25,139.90094759956344L94.25,139.96020587445835L94.25,140.01201712068288L94.25,140.06055943609528L94.25,140.10997855044673L94.25,140.1627084730947L94.25,140.21492596975446L96.66666666666666,140.20119621769305L96.66666666666666,140.14936051185387L96.66666666666666,140.15026648727977L96.66666666666666,140.17505180654368L96.66666666666666,140.2028456508113L99.08333333333333,140.32008023757183L99.08333333333333,140.4112163875244L99.08333333333333,140.46177618716126L99.08333333333333,140.48505728763547L99.08333333333333,140.48283683395707L99.08333333333333,140.54075985238057L99.08333333333333,140.60357474651178L99.08333333333333,140.66732014911213L99.08333333333333,140.73513529023862L99.08333333333333,140.78457336485826L101.5,140.58922659521718L101.5,140.56400928111603L101.5,140.5968699838878L101.5,140.67000711375616L101.5,140.7461838377551L101.5,140.81471679133222L101.5,140.86684305141816L101.5,140.91671677545202L103.91666666666667,140.93984793654843L103.91666666666667,140.98766446905296L103.91666666666667,141.05105580863193L103.91666666666667,141.13248805014138L103.91666666666667,141.2168106390771L103.91666666666667,141.30564900021696L103.91666666666667,141.3925827232012L103.91666666666667,141.47325211702443L103.91666666666667,141.53873701831895L103.91666666666667,141.61077115198665L106.33333333333333,141.6236257074762L106.33333333333333,141.66766800845127L106.33333333333333,141.73936194484065L106.33333333333333,141.77723376432274L106.33333333333333,141.8063091128976L106.33333333333333,141.83785424730985L106.33333333333333,141.87257139335262L106.33333333333333,141.89867934229997L106.33333333333333,141.9280542734543L108.75,141.93144607407189L108.75,141.92785367347767L108.75,141.96898590099246L108.75,141.9821309685708L108.75,142.01441343810833L108.75,142.04596693096377L108.75,142.0817540530924L108.75,142.13849626058308L108.75,142.18299108929997L111.16666666666667,142.17227896428045L111.16666666666667,142.25729916537728L111.16666666666667,142.34293578488862L111.16666666666667,142.41207751577318L111.16666666666667,142.4861694727672L111.16666666666667,142.568150602956L111.16666666666667,142.64918924317553L111.16666666666667,142.7176796666569L111.16666666666667,142.7730402517147L111.16666666666667,142.8280223874881L111.16666666666667,142.891229197886L111.16666666666667,142.94862057875517L113.58333333333333,143.033026031853L113.58333333333333,143.10303360575213L113.58333333333333,143.1675939701149L113.58333333333333,143.2324957403827L113.58333333333333,143.29146779308869L113.58333333333333,143.3538634565258L113.58333333333333,143.43131139833088L113.58333333333333,143.50131716713625L113.58333333333333,143.57817714257328L113.58333333333333,143.64190165962984L113.58333333333333,143.70589156638488L113.58333333333333,143.77181491522444L113.58333333333333,143.83399969898412L113.58333333333333,143.89280973462763L116,143.9303007781466L116,144.0265988870432L116,144.13256656756073L116,144.2174825708908L116,144.30160438960303L116,144.36609176492246L116,144.41700027635952L116,144.45866691146915L116,144.49647992108888L116,144.53181253397548L116,144.5698035471671L116,144.59503903688662L116,144.6221689670743L116,144.6498009629811L116,144.6777330326162L116,144.71603880680976L118.41666666666667,144.7446117258707L118.41666666666667,144.7484510000443L118.41666666666667,144.75516660861638L118.41666666666667,144.754879174429L118.41666666666667,144.76826487395584L118.41666666666667,144.785819176992L120.83333333333334,144.68620673912346L120.83333333333334,144.70104933793542L120.83333333333334,144.72346885093071L120.83333333333334,144.74907425897825L120.83333333333334,144.75189387982127L120.83333333333334,144.75233063991712L120.83333333333334,144.75970752161757L123.25,144.7435287205767L123.25,144.6287438909832L123.25,144.66138685851857L123.25,144.6645790276371L123.25,144.67758241421993L123.25,144.67851945251974L123.25,144.6855455317781L123.25,144.68393080301456L123.25,144.68761836831078L123.25,144.69631357290118L123.25,144.7045740172614L123.25,144.71318842601204L123.25,144.72709514966394L125.66666666666667,144.76275592922676L125.66666666666667,144.73837117258768L125.66666666666667,144.72954278219098L125.66666666666667,144.72561003065826L125.66666666666667,144.73786317857622L128.08333333333334,144.7834874003841L128.08333333333334,144.85992969886306L128.08333333333334,144.9273870532517L128.08333333333334,145.00409780640277L128.08333333333334,145.09074924078976L128.08333333333334,145.17398279037266L128.08333333333334,145.2781591434642L128.08333333333334,145.36488408155176L128.08333333333334,145.43414538019744L128.08333333333334,145.52112454166857L128.08333333333334,145.59714691453715L130.5,145.74120045609166L130.5,145.8468995668923L130.5,145.96752123453393L130.5,146.06231716393967L130.5,146.1456473060991L130.5,146.2304748963616L130.5,146.30389271874105L130.5,146.37585198964015L130.5,146.43365237317624L130.5,146.4866159067846L130.5,146.53707861235404L132.91666666666666,146.57472276771793L132.91666666666666,146.63980779847975L132.91666666666666,146.71234685016117L132.91666666666666,146.75830807945573L132.91666666666666,146.80306282290766L132.91666666666666,146.82610976335198L132.91666666666666,146.84375621453083L132.91666666666666,146.84925151284992L132.91666666666666,146.87099197423325L132.91666666666666,146.90450729618874L135.33333333333334,146.9428368739908L135.33333333333334,146.98099037488586L135.33333333333334,146.98870999590892L135.33333333333334,147.03740253595433L135.33333333333334,147.07545956513107L135.33333333333334,147.13636409475632L135.33333333333334,147.1700040637727L135.33333333333334,147.22219873511256L135.33333333333334,147.26974822194964L135.33333333333334,147.3174571630984L135.33333333333334,147.36614365257577L135.33333333333334,147.4075283890376L135.33333333333334,147.44575231305348L135.33333333333334,147.48020683030464L135.33333333333334,147.5074220151235L135.33333333333334,147.52967747648682L137.75,147.51639368424878L137.75,147.55451406136865L137.75,147.59417968353708L137.75,147.69764703922863L137.75,147.78313822361844L137.75,147.84099076978916L137.75,147.89385615759184L137.75,147.92850222333803L137.75,147.96011798140802L137.75,147.99555174956342L137.75,148.0296857669674L137.75,148.0632929276421L137.75,148.09719645276192L137.75,148.13350524355843L140.16666666666666,148.31953981595993L140.16666666666666,148.43060580535814L140.16666666666666,148.4641089676017L140.16666666666666,148.51877003295166L140.16666666666666,148.57099309398612L140.16666666666666,148.6339388232657L140.16666666666666,148.67583071352777L140.16666666666666,148.71403530760313L140.16666666666666,148.74074216353452L140.16666666666666,148.7666446944496L140.16666666666666,148.7886560900413L140.16666666666666,148.81390332661425L140.16666666666666,148.844525571945L142.58333333333331,148.88538736469448L142.58333333333331,148.91919093895544L142.58333333333331,148.9868223906579L142.58333333333331,149.06169227371396L142.58333333333331,149.14231755087138L142.58333333333331,149.21725978237345L142.58333333333331,149.29290912164166L142.58333333333331,149.35725382817105L142.58333333333331,149.41991527259094L142.58333333333331,149.48174460461533L142.58333333333331,149.53567376995375L142.58333333333331,149.58649361949273L142.58333333333331,149.6379877716311L142.58333333333331,149.68369192108614L145,149.66902525458573L145,149.71860551627645L145,149.75903985423426L145,149.79615447090535L145,149.83793291874886L145,149.8608071156021L145,149.90003129763343L145,149.93130572633746L145,149.95824353612437L147.41666666666666,149.67219629686107L147.41666666666666,149.67901983043532L147.41666666666666,149.70461847575444L147.41666666666666,149.73179870647542L147.41666666666666,149.73871041767035L147.41666666666666,149.7413529900772L147.41666666666666,149.74356838491155L147.41666666666666,149.74107109035316L147.41666666666666,149.73914105811716L147.41666666666666,149.76727943701601L147.41666666666666,149.7918280973922L147.41666666666666,149.81467703542577L147.41666666666666,149.83325685166713L147.41666666666666,149.8436211284819L149.83333333333334,149.9195469033701L149.83333333333334,149.9627960556134L149.83333333333334,150.02308730718653L149.83333333333334,150.08425800934745L149.83333333333334,150.14216374763402L149.83333333333334,150.19375212349624L152.25,150.06856368690939L152.25,150.14194504712728L152.25,150.18903070688225L152.25,150.2474795740841L152.25,150.3273730323612L152.25,150.41176775054188L152.25,150.48211925554529L152.25,150.54936639449843L154.66666666666666,150.6657020181692L154.66666666666666,150.7262774075829L154.66666666666666,150.7893993625517L154.66666666666666,150.83780134052057L154.66666666666666,150.89525883032405L154.66666666666666,150.95704137406597L154.66666666666666,151.01246041542055L154.66666666666666,151.06708487551882L157.08333333333331,151.1057620998959L157.08333333333331,151.10424404947986L157.08333333333331,151.15666890788657L157.08333333333331,151.20995332733943L157.08333333333331,151.27001368561736L157.08333333333331,151.3279853612322L157.08333333333331,151.38878148840186L157.08333333333331,151.46429701312388L157.08333333333331,151.539340676872L157.08333333333331,151.6118415416357L157.08333333333331,151.68334291200074L157.08333333333331,151.7578183159155L157.08333333333331,151.82352528072164L157.08333333333331,151.8913748836709L159.5,152.00379908873472L159.5,152.03307630096023L159.5,152.03077004274164L159.5,152.04161786977863L159.5,152.05838413901324L159.5,152.05504845772023L159.5,152.046009176514L159.5,152.04777635441656L159.5,152.0655327038081L159.5,152.07930339756666L159.5,152.09745976561211L159.5,152.10609422219008L159.5,152.12075743782123L161.91666666666666,152.04792797905424L161.91666666666666,152.099011652123L161.91666666666666,152.10582811239215L161.91666666666666,152.1155781248481L161.91666666666666,152.11953081054563L161.91666666666666,152.13080837940097L161.91666666666666,152.14904458725627L161.91666666666666,152.1770772571759L161.91666666666666,152.21072933332388L161.91666666666666,152.25101784977767L161.91666666666666,152.28563389607052L161.91666666666666,152.32138065771653L161.91666666666666,152.36070898753974L164.33333333333334,152.35744944734816L164.33333333333334,152.31974951493018L164.33333333333334,152.32845004582313L164.33333333333334,152.34662764762555L164.33333333333334,152.3628638738392L164.33333333333334,152.38492565932853L164.33333333333334,152.42674104595017L164.33333333333334,152.46327955655894L164.33333333333334,152.4964276283583L164.33333333333334,152.53358225177934L164.33333333333334,152.57280269725769L166.75,152.6674101065642L166.75,152.78295218422952L166.75,152.88519464056884L166.75,152.96288444832103L166.75,153.03320878588536L166.75,153.11034186155808L166.75,153.19232082086455L166.75,153.27087919862836L169.16666666666669,153.3571032526511L169.16666666666669,153.40261307679586L169.16666666666669,153.44953499413353L169.16666666666669,153.51809418090167L169.16666666666669,153.59759190096042L169.16666666666669,153.67001724852028L169.16666666666669,153.74094539982335L169.16666666666669,153.81118866122907L169.16666666666669,153.87721167724618L169.16666666666669,153.93972711369616L169.16666666666669,153.99849731619122L171.58333333333334,154.04438737104547L171.58333333333334,154.10249694026214L171.58333333333334,154.1496770358569L171.58333333333334,154.19803818659608L171.58333333333334,154.2410608578403L174,154.30255276543352L174,154.35713514460454L174,154.44356240982478L174,154.5168773300144L174,154.58210147324786L174,154.64096692282365L174,154.69417510672892L174,154.741625394943L174,154.78460863768706L176.41666666666666,154.74222326460148L176.41666666666666,154.7645265280558L176.41666666666666,154.83229526185846L176.41666666666666,154.9184759488569L176.41666666666666,154.9986365637504L176.41666666666666,155.06062925987013L176.41666666666666,155.1237113833024L176.41666666666666,155.19127972658617L176.41666666666666,155.2441712823444L176.41666666666666,155.3030321775463L176.41666666666666,155.36083813028114L176.41666666666666,155.40094471932198L178.83333333333334,155.3626409603428L178.83333333333334,155.45059495008064L178.83333333333334,155.54406316195198L178.83333333333334,155.6279314545647L178.83333333333334,155.7311473002496L178.83333333333334,155.8140984144747L178.83333333333334,155.88175095126954L178.83333333333334,155.9489414590163L178.83333333333334,156.01312639461804L178.83333333333334,156.08342408298955L178.83333333333334,156.15312730890045L181.25,156.21102650523636L181.25,156.30476409298612L181.25,156.37652788676132L181.25,156.44665049743102L181.25,156.5112608908601L181.25,156.57547291805724L181.25,156.6079182473407L183.66666666666666,156.64806330970993L183.66666666666666,156.68950521005655L183.66666666666666,156.72745902658295L183.66666666666666,156.7700640785173L183.66666666666666,156.79457933188493L183.66666666666666,156.81919636703495L183.66666666666666,156.84892504789548L183.66666666666666,156.87937981018632L183.66666666666666,156.90025829913964L183.66666666666666,156.91702491721125L183.66666666666666,156.91354221867107L183.66666666666666,156.9107351327762L183.66666666666666,156.90033945496717L183.66666666666666,156.8919975342656L186.08333333333334,156.94991662851868L186.08333333333334,156.9865612778495L186.08333333333334,157.00057626026458L186.08333333333334,157.02282899980452L186.08333333333334,157.08096205161482L186.08333333333334,157.10922540762172L186.08333333333334,157.1377866335833L186.08333333333334,157.1643298761763L186.08333333333334,157.18190545478282L186.08333333333334,157.1997527343718L188.5,157.3499591769331L188.5,157.47221164032575L188.5,157.55829112667362L188.5,157.59251258980822L188.5,157.62133539538596L188.5,157.65237510502303L188.5,157.6698563764986L188.5,157.69150807747957L190.91666666666666,157.70366970494618L190.91666666666666,157.70746476476856L190.91666666666666,157.69634944989477L190.91666666666666,157.6866159674971L190.91666666666666,157.6765726325488L190.91666666666666,157.6938469830848L190.91666666666666,157.7147121871027L190.91666666666666,157.74182050370047L190.91666666666666,157.76005106285933L190.91666666666666,157.7812050271028L190.91666666666666,157.80026879763543L193.33333333333331,157.89631837142647L193.33333333333331,157.95307990587239L193.33333333333331,158.00195887051683L193.33333333333331,158.0475973602586L193.33333333333331,158.0895085724821L193.33333333333331,158.14251069674876L193.33333333333331,158.19177113917954L195.75,158.29470716138795L195.75,158.38892678249982L195.75,158.45406838812085L195.75,158.5117049470521L195.75,158.5601171805688L195.75,158.61534235760737L195.75,158.66671470017144L195.75,158.71454501023257L195.75,158.76434975561347L195.75,158.81231326591973L195.75,158.85510552739504L198.16666666666666,158.89885583812628L198.16666666666666,158.9274681294948L198.16666666666666,159.0004632773738L198.16666666666666,159.07210962768434L198.16666666666666,159.12282766576843L198.16666666666666,159.2051412335279L198.16666666666666,159.2751676032623L198.16666666666666,159.32977464618247L198.16666666666666,159.3838049481398L198.16666666666666,159.4347207016331L200.58333333333334,159.5182841345919L200.58333333333334,159.52866891036336L200.58333333333334,159.53201488534023L200.58333333333334,159.544574641242L200.58333333333334,159.55423498958513L200.58333333333334,159.55028475214698L200.58333333333334,159.55836159055605L200.58333333333334,159.57532704653258L200.58333333333334,159.5974916782262L200.58333333333334,159.62111454705078L203,159.79076125864876L203,159.90381120376247L203,160.0281711530272L203,160.1190845527256L203,160.1960418385371L203,160.26472622911126L203,160.32858995141578L203,160.39828743820283L203,160.4755919922456L203,160.5432493789605L203,160.57852540219136L205.41666666666669,160.5228296263426L205.41666666666669,160.52865307412932L205.41666666666669,160.54309449154408L205.41666666666669,160.5520053138371L205.41666666666669,160.55805147494218L205.41666666666669,160.57181932315302L205.41666666666669,160.5789988549135L205.41666666666669,160.59257494092014L207.83333333333334,160.57346468633438L207.83333333333334,160.5461943736943L207.83333333333334,160.5310257408727L207.83333333333334,160.5330763875468L207.83333333333334,160.56151560744368L207.83333333333334,160.57926977108605L207.83333333333334,160.59625421096038L207.83333333333334,160.61823044859065L210.25,160.74849384457428L210.25,160.86843867777816L210.25,160.99896527742425L210.25,161.12060550713863L210.25,161.24852430712292L210.25,161.37526854889148L210.25,161.49502657637723L210.25,161.5870847569549L210.25,161.6433290188821L210.25,161.69811815222565L210.25,161.7505217821443L212.66666666666666,161.71198220367148L212.66666666666666,161.7244576262352L212.66666666666666,161.75642816986354L212.66666666666666,161.80559170988624L212.66666666666666,161.86002619495048L212.66666666666666,161.91294833996446L212.66666666666666,161.95947788903737L212.66666666666666,162.0164250357165L212.66666666666666,162.06185182770625L212.66666666666666,162.10733777998396L212.66666666666666,162.144619970546L215.08333333333334,162.22284248051497L215.08333333333334,162.31001592445952L215.08333333333334,162.36858164618565L215.08333333333334,162.4015630851452L215.08333333333334,162.4191484216602L215.08333333333334,162.43405500924226L215.08333333333334,162.4509598006989L215.08333333333334,162.4712377789295L215.08333333333334,162.47746291007027L215.08333333333334,162.48877523097548L217.5,162.56571998383097L217.5,162.63395007050255L217.5,162.69581851498694L217.5,162.74217405120123L217.5,162.77302533795046L217.5,162.80436951129764L217.5,162.8321994693942L219.91666666666666,162.91961441996432L219.91666666666666,163.0011541898509L219.91666666666666,163.07967900680376L219.91666666666666,163.15728662505276L219.91666666666666,163.2271198492229L219.91666666666666,163.2798028260401L222.33333333333334,163.46041872783846L222.33333333333334,163.47001932233698L222.33333333333334,163.4856003689927L222.33333333333334,163.49311581470113L222.33333333333334,163.49665652390982L222.33333333333334,163.48860366704892L222.33333333333334,163.49608693226864L222.33333333333334,163.5002756122694L222.33333333333334,163.5083553002028L222.33333333333334,163.52871599867552L222.33333333333334,163.55348664860804L222.33333333333334,163.57046983980968L224.75,163.71469292090976L224.75,163.85878479196936L224.75,163.97696899025237L224.75,164.0465279940383L224.75,164.05095401500023L224.75,164.05120581745743L224.75,164.04327351015465L224.75,164.03771436486218L224.75,164.04827456255651L224.75,164.06220076353253L224.75,164.08640478747444L227.16666666666666,164.26197250269342L227.16666666666666,164.3123843622542L227.16666666666666,164.36213419106798L227.16666666666666,164.3796310476843L227.16666666666666,164.40179903226738L227.16666666666666,164.41554252894483L227.16666666666666,164.4316963372844L229.58333333333331,164.3415504981385L229.58333333333331,164.38857355583121L229.58333333333331,164.46115237916501L229.58333333333331,164.53429132345062L229.58333333333331,164.61663520416224L229.58333333333331,164.6869265158631L229.58333333333331,164.7483637199476L229.58333333333331,164.8033956085037L229.58333333333331,164.84234190550163L232,165.02400876937685L232,165.0327493914511L232,165.02574243864603L232,165.03961775904028L232,165.05158992921184L232,165.06455636838206L232,165.07879212794873L232,165.09700646354023L232,165.12457613304852L232,165.1482303904277L234.41666666666666,165.31271490359734L234.41666666666666,165.3146016406934L234.41666666666666,165.32152697836605L234.41666666666666,165.32846017823104L234.41666666666666,165.39212919531477L234.41666666666666,165.43866130228142L234.41666666666666,165.47177468647098L234.41666666666666,165.50455994590183L234.41666666666666,165.5392460022852L234.41666666666666,165.5735546645285L234.41666666666666,165.6078589314146L234.41666666666666,165.63295500757565L236.83333333333334,165.69529383816476L236.83333333333334,165.78572656101235L236.83333333333334,165.86411530610857L236.83333333333334,165.91572201266973L236.83333333333334,165.9345698697799L236.83333333333334,165.95008592985687L236.83333333333334,165.97261421326286L236.83333333333334,165.99130208930683L236.83333333333334,166.0084654736444L236.83333333333334,166.0257736442018L236.83333333333334,166.03879450655498L236.83333333333334,166.04827326806083L236.83333333333334,166.04763167876115L239.25,165.85595054238243L239.25,165.73002142895007L239.25,165.68419778097973L239.25,165.69709896625918L239.25,165.70593301676462L239.25,165.73527032367002L239.25,165.75788984338473L239.25,165.78076483585465L241.66666666666669,165.83355956384665L241.66666666666669,165.8942461150256L241.66666666666669,165.94641127213825L241.66666666666669,166.00396262649434L241.66666666666669,166.04780998042776L241.66666666666669,166.0874884200193L244.08333333333334,166.06606500948394L244.08333333333334,166.0772188280491L244.08333333333334,166.11637087640608L244.08333333333334,166.15692831773137L244.08333333333334,166.18575239413624L244.08333333333334,166.21124734026156L246.5,166.3364460208502L246.5,166.43892374372106L246.5,166.51400507707237L246.5,166.58574537712235L246.5,166.64829361124836L246.5,166.69293490767282L246.5,166.74277821236663L246.5,166.7899818273497L246.5,166.85007672523525L246.5,166.8819444128306L246.5,166.91608318915067L248.91666666666666,167.09424494394256L248.91666666666666,167.1805151261306L248.91666666666666,167.26427145715013L248.91666666666666,167.3149594618845L248.91666666666666,167.34977906925178L248.91666666666666,167.37176557882194L248.91666666666666,167.39395076730236L248.91666666666666,167.41246022764312L248.91666666666666,167.42402613067918L251.33333333333334,167.4836298230199L251.33333333333334,167.54228878167893L251.33333333333334,167.59763129910075L251.33333333333334,167.65634275935324L251.33333333333334,167.69111460754394L251.33333333333334,167.72621285432245L251.33333333333334,167.76224064189176L251.33333333333334,167.78466719200296L253.75,167.78844935535966L253.75,167.80558283644515L253.75,167.8156942105464L253.75,167.8435900618L253.75,167.86914706934445L253.75,167.88619875802104L253.75,167.90702932197678L253.75,167.93375077727325L253.75,167.95158427813394L256.1666666666667,168.05428248629775L256.1666666666667,168.12328986333327L256.1666666666667,168.16347688164504L256.1666666666667,168.1965509758381L256.1666666666667,168.22599499451007L256.1666666666667,168.24417269920846L256.1666666666667,168.26141197861L256.1666666666667,168.2841613315714L256.1666666666667,168.306156710189L256.1666666666667,168.3284094043884L258.58333333333337,168.3012284283735L258.58333333333337,168.25803096638646L258.58333333333337,168.21395497112673L258.58333333333337,168.17618321756265L258.58333333333337,168.14375149141503L258.58333333333337,168.1200803757133L258.58333333333337,168.09605884257957L258.58333333333337,168.08804745215977L258.58333333333337,168.0872806064473L258.58333333333337,168.10330799982717L261,168.14180965818448L261,168.17841559785217L261,168.20133231233288L261,168.21829466683857L261,168.2485985075437L261,168.26712110551728L261,168.2781391072959L263.4166666666667,168.42005807799657L263.4166666666667,168.46198569367758L263.4166666666667,168.48659482915113L263.4166666666667,168.5106225100454L263.4166666666667,168.5332128380668L263.4166666666667,168.55172368766713L263.4166666666667,168.57756895877677L263.4166666666667,168.6095855794834L263.4166666666667,168.6552232927444L263.4166666666667,168.69772368938172L263.4166666666667,168.73143197970512L265.8333333333333,168.77852943045968L265.8333333333333,168.81315348245622L265.8333333333333,168.83347932133105L265.8333333333333,168.83207987816508L265.8333333333333,168.81903882759616L265.8333333333333,168.80275581638926L265.8333333333333,168.7903255379485L265.8333333333333,168.78574424192038L265.8333333333333,168.7798875775386L265.8333333333333,168.78163965921865L265.8333333333333,168.783658090057L265.8333333333333,168.78955823270573L265.8333333333333,168.79613678359675" style="fill: none;" fill="none"></path></g></g></g></g><g opacity="0.2"><g><g><g><path stroke="rgb(255, 112, 67)" stroke-width="2px" d="M26.583333333333332,13.256122493743902L26.583333333333332,28.90114417076112L26.583333333333332,41.49470558166505L26.583333333333332,65.54899516105652L26.583333333333332,67.72256698608399L26.583333333333332,69.9456817150116L26.583333333333332,71.31152977943421L29,116.77575292587282L29,118.06018295288085L29,120.03727116584778L29,121.12995102405549L29,121.73588099479676L29,121.8432591199875L29,121.69399037361144L29,122.60376801490784L29,123.04390790462493L31.416666666666668,128.155667924881L31.416666666666668,127.85948660373687L31.416666666666668,127.84532847404479L31.416666666666668,127.62820901870727L31.416666666666668,127.18394055366517L31.416666666666668,127.19928028583527L31.416666666666668,126.90132656097413L31.416666666666668,126.89660718441009L33.833333333333336,117.47725906372071L33.833333333333336,119.87560966014861L33.833333333333336,122.01023080348969L33.833333333333336,122.86808826923371L33.833333333333336,123.08638932704926L33.833333333333336,122.98491218090057L33.833333333333336,123.36427690982819L33.833333333333336,123.23624887466431L36.25,128.58636906147004L36.25,129.91505291461945L36.25,127.59458258152009L36.25,126.44467236995698L36.25,126.11013820171357L36.25,126.00866105556489L36.25,126.19745721817016L36.25,126.1496726512909L36.25,125.89655652046204L38.666666666666664,127.18865993022919L38.666666666666664,128.94981029033661L38.666666666666664,127.83883669376374L38.666666666666664,127.62761821746825L38.666666666666664,127.94857802391053L38.666666666666664,128.152130150795L38.666666666666664,127.63705697059632L38.666666666666664,127.63705697059632L38.666666666666664,127.78456034660339L41.083333333333336,126.2706181049347L41.083333333333336,126.47063245773316L41.083333333333336,126.48597218990326L41.083333333333336,126.69719066619872L41.083333333333336,126.7638597726822L41.083333333333336,127.16682841777802L41.083333333333336,127.24825348854066L41.083333333333336,127.29781045913697L43.5,130.4324822664261L43.5,129.3740196466446L43.5,129.6513234615326L43.5,130.0572390794754L43.5,130.2619728088379L43.5,129.89853157997132L43.5,129.58170034885407L45.916666666666664,130.7782205581665L45.916666666666664,129.06073322296143L45.916666666666664,129.712091588974L45.916666666666664,129.56458821296692L45.916666666666664,129.39054098129273L45.916666666666664,129.77876069545746L48.33333333333333,133.30931856632233L48.33333333333333,133.26094319820405L48.33333333333333,132.47211101055146L48.33333333333333,131.67974104881287L48.33333333333333,131.46969714164734L48.33333333333333,131.59477820396424L48.33333333333333,131.3044978618622L48.33333333333333,131.03782143592835L48.33333333333333,131.29564990997315L50.75,132.64970304965973L50.75,132.25912013053895L50.75,132.32047905921937L50.75,130.9711523294449L50.75,131.06496312618256L50.75,131.03073885440827L50.75,131.126912856102L53.166666666666664,130.73396673202515L53.166666666666664,132.01191201210023L53.166666666666664,132.44024994373322L53.166666666666664,132.30395772457123L53.166666666666664,131.44787266254426L53.166666666666664,131.51867034435273L53.166666666666664,131.70923891067505L53.166666666666664,131.8821115732193L53.166666666666664,131.73519899845124L53.166666666666664,132.01663138866425L55.583333333333336,131.49211945533753L55.583333333333336,131.61189033985139L55.583333333333336,131.58062007427216L55.583333333333336,131.96471121311188L55.583333333333336,132.06265058517457L55.583333333333336,131.89273192882538L55.583333333333336,131.74759175777436L55.583333333333336,131.80127730369568L55.583333333333336,131.7145490884781L55.583333333333336,131.8059966802597L55.583333333333336,131.83844854831696L55.583333333333336,132.02784254550934L55.583333333333336,132.19008781909943L58,134.21792163848878L58,132.33109941482545L58,132.42668261528016L58,133.13527133464814L58,133.15768661499024L58,133.21787097454072L58,132.98010160923005L58,133.1753895521164L58,133.2438310623169L60.41666666666667,132.1694379091263L60.41666666666667,130.8732129573822L60.41666666666667,131.18590857982636L60.41666666666667,131.87502899169922L60.41666666666667,133.85270800590516L60.41666666666667,134.04269280433655L60.41666666666667,133.52939202785493L60.41666666666667,133.40903034210206L60.41666666666667,133.59487953186036L60.41666666666667,134.09992315769196L60.41666666666667,134.01436951160431L60.41666666666667,133.70697703361512L60.41666666666667,133.7588972091675L60.41666666666667,133.72467997074128L62.833333333333336,135.32298722267151L62.833333333333336,134.88167276382447L62.833333333333336,134.28518154621125L62.833333333333336,134.1423975467682L62.833333333333336,133.91996791362763L62.833333333333336,134.07927324771882L62.833333333333336,134.08930280208588L62.833333333333336,134.13649656772614L62.833333333333336,133.820263171196L65.25,132.74174144268036L65.25,134.17544021606446L65.25,133.47865345478058L65.25,132.51694860458375L65.25,133.76185121536255L65.25,133.66981282234192L65.25,133.81140818595887L65.25,133.90580978393555L65.25,133.97837986946107L65.25,134.28046216964722L65.25,134.20021870136262L65.25,134.12115683555604L65.25,134.15656270980836L65.25,134.2344429731369L65.25,134.28990092277527L65.25,134.28990092277527L67.66666666666667,132.57182278633118L67.66666666666667,133.08511652946473L67.66666666666667,133.5659724712372L67.66666666666667,132.69513144493104L67.66666666666667,133.03320338726044L67.66666666666667,133.40843954086304L67.66666666666667,133.1984026670456L67.66666666666667,133.55417051315308L67.66666666666667,133.70756783485413L67.66666666666667,133.34708061218262L67.66666666666667,133.39604678153992L67.66666666666667,133.65978326797486L67.66666666666667,133.75358703136445L67.66666666666667,133.94475343227387L67.66666666666667,133.9270504951477L70.08333333333333,133.44738318920136L70.08333333333333,135.2622190952301L70.08333333333333,135.1294716835022L70.08333333333333,135.38966336250306L70.08333333333333,135.29467096328736L70.08333333333333,134.59256699085236L70.08333333333333,134.74125196933747L70.08333333333333,134.677529835701L72.5,139.32613685131074L72.5,137.93432869911194L72.5,135.64749183654786L72.5,136.14014270305634L72.5,136.39088859558106L72.5,135.88348879814149L72.5,136.1194927930832L72.5,136.29294922351838L72.5,136.2599065542221L72.5,136.35254278182984L72.5,136.27997269630433L72.5,136.29944100379944L72.5,136.25695958137513L74.91666666666667,135.94367315769196L74.91666666666667,137.47825827598572L74.91666666666667,137.367342376709L74.91666666666667,137.64228298664094L74.91666666666667,137.0752896308899L74.91666666666667,136.55255010128022L74.91666666666667,137.03635301589966L74.91666666666667,137.20568087100983L74.91666666666667,137.3337089061737L74.91666666666667,137.3407914876938L74.91666666666667,137.32073237895966L74.91666666666667,137.20980944633484L74.91666666666667,137.12426283359528L77.33333333333333,138.39452769756318L77.33333333333333,138.0464332342148L77.33333333333333,136.92248311042786L77.33333333333333,137.06644167900086L77.33333333333333,136.77026035785676L77.33333333333333,137.08768239021302L77.33333333333333,137.4163085460663L77.33333333333333,137.3484578371048L77.33333333333333,137.43519308567048L77.33333333333333,137.58268942832947L77.33333333333333,136.96967687606812L77.33333333333333,136.83102848529816L77.33333333333333,136.8510875940323L77.33333333333333,136.96319212913514L77.33333333333333,136.9726308822632L79.75,139.351513171196L79.75,138.67183151245118L79.75,138.44703867435456L79.75,138.24172117710114L79.75,137.7242918252945L79.75,137.6865297794342L79.75,138.1526297569275L79.75,137.9779917240143L79.75,137.8458280801773L79.75,137.6936123609543L82.16666666666667,136.8741007089615L82.16666666666667,137.7508427143097L82.16666666666667,137.86765959262848L82.16666666666667,137.3372466802597L82.16666666666667,137.80276288986207L82.16666666666667,138.13965322971345L82.16666666666667,137.8871279001236L82.16666666666667,137.96028878688813L82.16666666666667,137.6829920053482L82.16666666666667,138.0198823451996L82.16666666666667,138.16206851005555L82.16666666666667,138.21988966464997L84.58333333333334,133.84208765029908L84.58333333333334,134.31527020931244L84.58333333333334,138.03109350204468L84.58333333333334,138.55265142917634L84.58333333333334,138.19687654972077L84.58333333333334,138.20160295963288L87,140.3952198266983L87,140.0536101102829L87,139.61996200084687L87,139.7125911951065L87,139.53912773132325L87,138.28774037361146L87,138.221662068367L87,138.6004430294037L87,138.62522151470185L89.41666666666667,137.47118272781373L89.41666666666667,137.79862728118897L89.41666666666667,138.47712733745576L89.41666666666667,139.05768802165986L89.41666666666667,139.13793148994446L89.41666666666667,139.45180871486664L89.41666666666667,139.38513960838318L89.41666666666667,139.3780570268631L89.41666666666667,139.4087364912033L91.83333333333333,140.41586973667145L91.83333333333333,140.11850681304932L91.83333333333333,140.02115824222565L91.83333333333333,140.490212225914L91.83333333333333,140.32973232269288L91.83333333333333,140.04652752876282L91.83333333333333,139.9733666419983L91.83333333333333,139.8181969165802L91.83333333333333,139.7426798582077L91.83333333333333,139.91437091827393L91.83333333333333,139.46655764579774L94.25,141.52448012828827L94.25,142.07436134815217L94.25,142.0826184988022L94.25,141.83304717540742L94.25,141.83187260627747L94.25,141.21354987621308L94.25,141.07666685581208L94.25,141.00468757152558L94.25,141.0861126422882L94.25,140.99643042087556L94.25,140.9828630924225L94.25,141.04894139766694L94.25,141.1645766735077L94.25,141.207058095932L96.66666666666666,139.94033100605012L96.66666666666666,139.16448237895966L96.66666666666666,140.1674800157547L96.66666666666666,140.6459727525711L96.66666666666666,140.73092856407166L99.08333333333333,142.54753687381745L99.08333333333333,142.14280285835267L99.08333333333333,141.42241218090058L99.08333333333333,140.92739810943604L99.08333333333333,140.4406482219696L99.08333333333333,141.64129700660706L99.08333333333333,141.79705753326417L99.08333333333333,141.8784826040268L99.08333333333333,142.02362277507783L99.08333333333333,141.72389664649964L101.5,136.8776384830475L101.5,140.08488037586213L101.5,141.22122325897217L101.5,142.05961241722108L101.5,142.193541431427L101.5,142.11684277057648L101.5,141.85724189281464L101.5,141.86431744098664L103.91666666666667,141.37933995723725L103.91666666666667,141.89617850780488L103.91666666666667,142.25549116134644L103.91666666666667,142.67970051765442L103.91666666666667,142.8189397096634L103.91666666666667,142.9935777425766L103.91666666666667,143.04432334899903L103.91666666666667,143.00597050189972L103.91666666666667,142.78295006752015L103.91666666666667,142.97941961288453L106.33333333333333,141.86786224842072L106.33333333333333,142.5044716835022L106.33333333333333,143.10154666900635L106.33333333333333,142.4967983007431L106.33333333333333,142.35874071121216L106.33333333333333,142.43721177577973L106.33333333333333,142.53219714164734L106.33333333333333,142.3947303533554L106.33333333333333,142.48617794513703L108.75,141.9958902835846L108.75,141.8595980644226L108.75,142.7504981994629L108.75,142.23188724517823L108.75,142.62778034210206L108.75,142.64548327922822L108.75,142.761709356308L108.75,143.21659817695618L108.75,143.0283928155899L111.16666666666667,141.9687485933304L111.16666666666667,143.87268295288087L111.16666666666667,143.97003152370453L111.16666666666667,143.7257703781128L111.16666666666667,143.89391663074494L111.16666666666667,144.12579205036164L111.16666666666667,144.1889233827591L111.16666666666667,144.01899769306183L111.16666666666667,143.8248913526535L111.16666666666667,143.87268295288087L111.16666666666667,144.09215857982636L111.16666666666667,144.03905680179597L113.58333333333333,144.6367296218872L113.58333333333333,144.43317749500275L113.58333333333333,144.39424088001252L113.58333333333333,144.46562936306L113.58333333333333,144.4119367837906L113.58333333333333,144.53938105106354L113.58333333333333,144.90282227993012L113.58333333333333,144.83142676353455L113.58333333333333,145.038516664505L113.58333333333333,144.8526674747467L113.58333333333333,144.92169978618622L113.58333333333333,145.02435853481293L113.58333333333333,145.0155105829239L113.58333333333333,145.01020040512086L116,144.64263060092927L116,145.85626294612885L116,146.1459524869919L116,145.8308866262436L116,145.8999189376831L116,145.59135189056397L116,145.3842619895935L116,145.25033297538758L116,145.21492710113526L116,145.20313217639924L116,145.29163279533387L116,145.07451333999634L116,145.13763763904572L116,145.174808883667L116,145.20844235420228L116,145.4438485145569L118.41666666666667,145.28749718666077L118.41666666666667,144.8213972091675L118.41666666666667,144.882763171196L118.41666666666667,144.749417924881L118.41666666666667,145.02259316444398L118.41666666666667,145.11935093402863L120.83333333333334,142.79357042312623L120.83333333333334,144.98305871486664L120.83333333333334,145.14943959712983L120.83333333333334,145.2355770111084L120.83333333333334,144.80546667575837L120.83333333333334,144.76062908172608L120.83333333333334,144.89986827373505L123.25,144.43613150119782L123.25,142.4478321313858L123.25,145.2816032409668L123.25,144.72523024082184L123.25,144.9246467590332L123.25,144.69632318019868L123.25,144.81904103755951L123.25,144.65325095653535L123.25,144.7576821088791L123.25,144.86152245998383L123.25,144.86152245998383L123.25,144.87686219215394L123.25,144.99132289886475L125.66666666666667,145.4403107404709L125.66666666666667,144.27506079673768L125.66666666666667,144.56180336475373L125.66666666666667,144.6508877515793L125.66666666666667,144.9706729888916L128.08333333333334,145.65034761428834L128.08333333333334,146.31233336925507L128.08333333333334,146.20907678604127L128.08333333333334,146.4616021156311L128.08333333333334,146.73712649345399L128.08333333333334,146.75542023181916L128.08333333333334,147.2575098514557L128.08333333333334,147.01265790462494L128.08333333333334,146.75011005401612L128.08333333333334,147.1737286090851L128.08333333333334,147.0415719985962L130.5,148.47821774482728L130.5,147.85518267154694L130.5,148.2593329191208L130.5,147.86343982219697L130.5,147.72892000675202L130.5,147.8421991109848L130.5,147.69883134365082L130.5,147.7430781364441L130.5,147.53185966014863L130.5,147.4929230451584L130.5,147.49587001800538L132.91666666666666,147.28996171951295L132.91666666666666,147.8764233827591L132.91666666666666,148.09058883190156L132.91666666666666,147.63157143592835L132.91666666666666,147.65340294837952L132.91666666666666,147.26400163173676L132.91666666666666,147.17903878688813L132.91666666666666,146.95366218090058L132.91666666666666,147.2840607404709L132.91666666666666,147.54129841327668L135.33333333333334,147.6710988521576L135.33333333333334,147.70590689182282L135.33333333333334,147.13538279533387L135.33333333333334,147.96256079673768L135.33333333333334,147.79854311943055L135.33333333333334,148.293550157547L135.33333333333334,147.80916347503663L135.33333333333334,148.2138974905014L135.33333333333334,148.17318847179413L135.33333333333334,148.22392704486847L135.33333333333334,148.29118695259095L135.33333333333334,148.19383838176728L135.33333333333334,148.1720068693161L135.33333333333334,148.1348426580429L135.33333333333334,148.0245105266571L135.33333333333334,147.9525312423706L137.75,147.26400163173676L137.75,148.2788012266159L137.75,148.34782650470734L137.75,149.66352679729462L137.75,149.40747072696686L137.75,148.94018914699555L137.75,148.89829852581025L137.75,148.58677747249604L137.75,148.56081738471985L137.75,148.6687933444977L137.75,148.67823209762574L137.75,148.70182898044587L137.75,148.7413634300232L137.75,148.82337226867676L140.16666666666666,151.85419669151307L140.16666666666666,150.54085960388184L140.16666666666666,149.10066905021668L140.16666666666666,149.55733027458191L140.16666666666666,149.56323125362397L140.16666666666666,149.8299076795578L140.16666666666666,149.47177662849427L140.16666666666666,149.43992259502411L140.16666666666666,149.24817242622376L140.16666666666666,149.25879278182984L140.16666666666666,149.20687260627747L140.16666666666666,149.29360082149506L140.16666666666666,149.42634823322297L142.58333333333331,149.66176142692566L142.58333333333331,149.56145884990693L142.58333333333331,150.27181997299195L142.58333333333331,150.48422005176545L142.58333333333331,150.67419781684876L142.58333333333331,150.64116218090058L142.58333333333331,150.73024656772614L142.58333333333331,150.57980325222016L142.58333333333331,150.61048271656037L142.58333333333331,150.65650191307068L142.58333333333331,150.56032791137696L142.58333333333331,150.55207076072693L142.58333333333331,150.61637666225434L142.58333333333331,150.55207076072693L145,149.39035859107972L145,150.6606304883957L145,150.52729227542878L145,150.5013321876526L145,150.63172342777253L145,150.29541685581208L145,150.6452907562256L145,150.52551987171174L145,150.47006192207337L147.41666666666666,144.2372987508774L147.41666666666666,149.80866696834565L147.41666666666666,150.1909927368164L147.41666666666666,150.24822309017182L147.41666666666666,149.87003293037415L147.41666666666666,149.79156186580659L147.41666666666666,149.78566088676453L147.41666666666666,149.6936224937439L147.41666666666666,149.70247044563294L147.41666666666666,150.30190863609315L147.41666666666666,150.25825264453889L147.41666666666666,150.24880685806275L147.41666666666666,150.1862733602524L147.41666666666666,150.04054238796235L149.83333333333334,151.3621366262436L149.83333333333334,150.78452994823456L149.83333333333334,151.16862108707429L149.83333333333334,151.24650135040284L149.83333333333334,151.24237277507783L149.83333333333334,151.17393126487733L152.25,147.68998339176179L152.25,151.53619089126587L152.25,151.08365824222565L152.25,151.35800805091858L152.25,151.84534873962403L152.25,152.0152673959732L152.25,151.81879785060883L152.25,151.82706203460694L154.66666666666666,152.8760788679123L154.66666666666666,151.87720980644227L154.66666666666666,151.988716506958L154.66666666666666,151.7574389219284L154.66666666666666,151.98695113658906L154.66666666666666,152.13090970516205L154.66666666666666,152.06542220115662L154.66666666666666,152.10494961738587L157.08333333333331,151.84062936306L157.08333333333331,151.07540109157563L157.08333333333331,152.15274121761323L157.08333333333331,152.22235729694367L157.08333333333331,152.41116049289704L157.08333333333331,152.42944719791413L157.08333333333331,152.54390790462494L157.08333333333331,152.8990919828415L157.08333333333331,152.96517028808594L157.08333333333331,152.9893579721451L157.08333333333331,153.04186894893647L157.08333333333331,153.17285099029542L157.08333333333331,153.07195761203766L157.08333333333331,153.18051733970643L159.5,154.1398589849472L159.5,152.58934333324433L159.5,151.98695113658906L159.5,152.24772658348084L159.5,152.37694325447083L159.5,151.99167051315308L159.5,151.87426283359528L159.5,152.08135273456574L159.5,152.40290334224701L159.5,152.3409465789795L159.5,152.44243075847626L159.5,152.27014889717103L159.5,152.39935853481293L161.91666666666666,150.6641682624817L161.91666666666666,153.0696014404297L161.91666666666666,152.2353408575058L161.91666666666666,152.30082836151124L161.91666666666666,152.19463183879853L161.91666666666666,152.3450821876526L161.91666666666666,152.49553253650666L161.91666666666666,152.70969798564911L161.91666666666666,152.8501187801361L161.91666666666666,153.0164996623993L161.91666666666666,152.94333877563477L161.91666666666666,153.00056912899018L161.91666666666666,153.1079472541809L164.33333333333334,152.2955181837082L164.33333333333334,151.60345079898835L164.33333333333334,152.49376013278962L164.33333333333334,152.69200208187104L164.33333333333334,152.6713521718979L164.33333333333334,152.8040995836258L164.33333333333334,153.22123339176179L164.33333333333334,153.1575112581253L164.33333333333334,153.1262409925461L164.33333333333334,153.23952009677888L164.33333333333334,153.31799116134644L166.75,154.46495088338852L166.75,154.97825165987015L166.75,154.8278013110161L166.75,154.43899079561234L166.75,154.36937119960785L166.75,154.5758702993393L166.75,154.74992104768754L166.75,154.7634883761406L169.16666666666669,154.99536027908326L169.16666666666669,154.26729973554612L169.16666666666669,154.34105142354966L169.16666666666669,154.820718729496L169.16666666666669,155.10804858207703L169.16666666666669,155.0460988521576L169.16666666666669,155.08858027458191L169.16666666666669,155.14581062793732L169.16666666666669,155.1316489815712L169.16666666666669,155.1275204062462L169.16666666666669,155.1151311635971L171.58333333333334,154.91629841327668L171.58333333333334,155.20657875537873L171.58333333333334,155.0460988521576L171.58333333333334,155.1169000506401L171.58333333333334,155.05849161148072L174,155.4708990097046L174,155.39420034885407L174,156.08568044900895L174,155.9098608136177L174,155.82136019468308L174,155.75941046476365L174,155.70513060092927L174,155.64318087100983L174,155.60129024982453L176.41666666666666,153.9369011759758L176.41666666666666,155.1882885336876L176.41666666666666,156.1199012041092L176.41666666666666,156.55590900182725L176.41666666666666,156.521688246727L176.41666666666666,156.23849048614503L176.41666666666666,156.32227172851563L176.41666666666666,156.47507824897767L176.41666666666666,156.2491108417511L176.41666666666666,156.4213891863823L176.41666666666666,156.4591512322426L176.41666666666666,156.1629699110985L178.83333333333334,154.6348695397377L178.83333333333334,157.12172075510026L178.83333333333334,157.31995918750764L178.83333333333334,157.22142901420594L178.83333333333334,157.69224836826325L178.83333333333334,157.39016958475113L178.83333333333334,157.16714915037156L178.83333333333334,157.225561106205L178.83333333333334,157.23264017105103L178.83333333333334,157.41908016204835L178.83333333333334,157.47748860120774L181.25,157.3111112356186L181.25,158.08577826023102L181.25,157.7400399684906L181.25,157.77898010015488L181.25,157.73885836601258L181.25,157.79550143480301L181.25,157.22437950372696L183.66666666666666,157.41081949472428L183.66666666666666,157.47690131664277L183.66666666666666,157.44858154058457L183.66666666666666,157.57956006526948L183.66666666666666,157.26036914587021L183.66666666666666,157.2869200348854L183.66666666666666,157.4137699842453L183.66666666666666,157.45802029371262L183.66666666666666,157.29694958925248L183.66666666666666,157.23559066057206L183.66666666666666,156.84737094640732L183.66666666666666,156.8574005007744L183.66666666666666,156.7028215765953L183.66666666666666,156.73350104093552L186.08333333333334,158.0503794193268L186.08333333333334,157.6828096151352L186.08333333333334,157.26686092615128L186.08333333333334,157.44563105106354L186.08333333333334,158.18549003601075L186.08333333333334,157.64622917175294L186.08333333333334,157.68044992685319L186.08333333333334,157.66865148544312L186.08333333333334,157.51584144830704L186.08333333333334,157.5388510465622L188.5,160.203881585598L188.5,159.79500844478608L188.5,159.19380136728287L188.5,158.24272038936616L188.5,158.16896870136262L188.5,158.24212958812714L188.5,158.00200053453446L188.5,158.10289039611817L190.91666666666666,157.934740626812L190.91666666666666,157.7795709013939L190.91666666666666,157.4851584672928L190.91666666666666,157.50167980194092L190.91666666666666,157.4857492685318L190.91666666666666,158.0220596432686L190.91666666666666,158.11115106344224L190.91666666666666,158.25687851905823L190.91666666666666,158.1064316868782L190.91666666666666,158.18313034772873L190.91666666666666,158.1624804377556L193.33333333333331,159.72126027345658L193.33333333333331,159.0315490603447L193.33333333333331,158.930659198761L193.33333333333331,158.91472866535187L193.33333333333331,158.8858216047287L193.33333333333331,159.14955105781556L193.33333333333331,159.12771954536439L195.75,160.25049158334733L195.75,160.1790995836258L195.75,159.69175889492035L195.75,159.60679956674576L195.75,159.47994961738587L195.75,159.66462072134019L195.75,159.642789208889L195.75,159.6233209013939L195.75,159.7106399178505L195.75,159.7236199617386L195.75,159.66815849542618L198.16666666666666,159.73011174201966L198.16666666666666,159.47110166549683L198.16666666666666,160.38737108707429L198.16666666666666,160.4333902835846L198.16666666666666,160.08647038936616L198.16666666666666,160.76909902095795L198.16666666666666,160.6056686282158L198.16666666666666,160.3673084616661L198.16666666666666,160.41038068532944L198.16666666666666,160.40212001800538L200.58333333333334,161.10598936080933L200.58333333333334,159.7259796500206L200.58333333333334,159.59558840990067L200.58333333333334,159.783210003376L200.58333333333334,159.7377816081047L200.58333333333334,159.47523024082184L200.58333333333334,159.71182152032853L200.58333333333334,159.89767071008683L200.58333333333334,160.01861968040467L200.58333333333334,160.06994905471802L203,163.01404877901078L203,162.051760160923L203,162.3910101890564L203,161.84643914699555L203,161.65823026895524L203,161.5697296500206L203,161.54200067520142L203,161.72253968715668L203,161.94437851905823L203,161.82873972654343L203,161.24876984357834L205.41666666666669,159.46460988521576L205.41666666666669,160.63929858207703L205.41666666666669,160.81748142242432L205.41666666666669,160.72131093740464L205.41666666666669,160.67292853593827L205.41666666666669,160.8334084391594L205.41666666666669,160.71540995836259L205.41666666666669,160.85052057504654L207.83333333333334,160.21036984920502L207.83333333333334,160.02805843353272L207.83333333333334,160.24282171726227L207.83333333333334,160.57203867435456L207.83333333333334,161.10186078548432L207.83333333333334,160.916598880291L207.83333333333334,160.918958568573L207.83333333333334,161.03577896356583L210.25,163.22349836826325L210.25,163.14739050865174L210.25,163.47897067070008L210.25,163.43176987171174L210.25,163.6789815068245L210.25,163.7834091424942L210.25,163.77042909860612L210.25,163.33619018793107L210.25,162.71196999549866L210.25,162.73911168575287L210.25,162.7461907505989L212.66666666666666,160.97973021268845L212.66666666666666,161.96149065494538L212.66666666666666,162.3638684988022L212.66666666666666,162.73969897031785L212.66666666666666,162.89428141117097L212.66666666666666,162.9184690952301L212.66666666666666,162.84353932142258L212.66666666666666,163.0984208226204L212.66666666666666,162.92496087551118L212.66666666666666,162.9715708732605L212.66666666666666,162.85298159122468L215.08333333333334,163.7090701699257L215.08333333333334,163.96631135940552L215.08333333333334,163.4813303589821L215.08333333333334,163.0282104253769L215.08333333333334,162.75326981544495L215.08333333333334,162.7172801733017L215.08333333333334,162.7721508383751L215.08333333333334,162.85651936531067L215.08333333333334,162.59574040174485L215.08333333333334,162.7037093281746L217.5,164.02767028808594L217.5,163.93032171726227L217.5,163.87131896018983L217.5,163.62292923927308L217.5,163.35919978618622L217.5,163.3999088048935L217.5,163.36096867322922L219.91666666666666,164.58049848079682L219.91666666666666,164.55040981769562L219.91666666666666,164.57165052890778L219.91666666666666,164.63183137178422L219.91666666666666,164.55395110845566L219.91666666666666,164.28077938556672L222.33333333333334,166.89212086200715L222.33333333333334,163.6524306178093L222.33333333333334,163.7816402554512L222.33333333333334,163.63590928316117L222.33333333333334,163.56392999887467L222.33333333333334,163.33559938669205L222.33333333333334,163.63826897144318L222.33333333333334,163.5798605322838L222.33333333333334,163.66186937093735L222.33333333333334,163.91556926965714L222.33333333333334,164.0241289973259L222.33333333333334,163.893150472641L224.75,166.45493146181107L224.75,166.59653034210206L224.75,166.2224687576294L224.75,165.36814906597138L224.75,164.13504841327668L224.75,164.05599006414414L224.75,163.89255967140198L224.75,163.93209060430527L224.75,164.24891831874848L224.75,164.32679858207703L224.75,164.5462812423706L227.16666666666666,167.5977590918541L227.16666666666666,165.2702096939087L227.16666666666666,165.30738093852997L227.16666666666666,164.71207132339478L227.16666666666666,164.82299073934556L227.16666666666666,164.6766689658165L227.16666666666666,164.73861869573594L229.58333333333331,162.62877955436707L229.58333333333331,165.2820116519928L229.58333333333331,165.84015002250672L229.58333333333331,165.92393126487733L229.58333333333331,166.1811689376831L229.58333333333331,166.02246143817902L229.58333333333331,165.91567059755326L229.58333333333331,165.8490014910698L229.58333333333331,165.58232154846192L232,168.4756791830063L232,165.1988212108612L232,164.89261033535004L232,165.30324884653092L232,165.27906116247178L232,165.31091871261597L232,165.34927155971528L232,165.4430788397789L232,165.64839985370637L232,165.59766128063202L234.41666666666666,168.43792065382004L234.41666666666666,165.35044964551926L234.41666666666666,165.45310839414597L234.41666666666666,165.46019097566605L234.41666666666666,166.6018405199051L234.41666666666666,166.32277133464814L234.41666666666666,166.10092898607255L234.41666666666666,166.12747987508774L234.41666666666666,166.19828107357026L234.41666666666666,166.22541924715043L234.41666666666666,166.25964000225068L234.41666666666666,166.10978045463563L236.83333333333334,166.87973161935807L236.83333333333334,167.50394829511643L236.83333333333334,167.3535014629364L236.83333333333334,166.89624943733216L236.83333333333334,166.2926791548729L236.83333333333334,166.24489107131959L236.83333333333334,166.4006515979767L236.83333333333334,166.3463717341423L236.83333333333334,166.3345697760582L236.83333333333334,166.35462888479233L236.83333333333334,166.28619089126587L236.83333333333334,166.22836973667145L236.83333333333334,166.0354414820671L239.25,162.21400895118714L239.25,163.33736827373505L239.25,164.81354846954346L239.25,165.94222148656846L239.25,165.87377997636796L239.25,166.2926791548729L239.25,166.18766071796418L239.25,166.21538969278336L241.66666666666669,166.83665939569474L241.66666666666669,167.04729058742524L241.66666666666669,166.93754925727845L241.66666666666669,167.09743835926056L241.66666666666669,166.88090970516205L241.66666666666669,166.84137877225876L244.08333333333334,165.65902020931244L244.08333333333334,166.2891413807869L244.08333333333334,166.8602597951889L244.08333333333334,166.92751970291138L244.08333333333334,166.73340984582902L244.08333333333334,166.69565131664277L246.5,168.715220952034L246.5,168.38600047826768L246.5,167.94055041074753L246.5,167.9488110780716L246.5,167.8367100596428L246.5,167.5411195397377L246.5,167.68980100154877L246.5,167.68685051202775L246.5,167.9918797850609L246.5,167.48743047714234L246.5,167.56471993923188L248.91666666666666,170.4793182849884L248.91666666666666,168.8196485877037L248.91666666666666,168.855641746521L248.91666666666666,168.27803155183793L248.91666666666666,168.01135160923005L248.91666666666666,167.78950926065446L248.91666666666666,167.81546934843064L248.91666666666666,167.76413997411728L248.91666666666666,167.64377828836442L251.33333333333334,168.6160999774933L251.33333333333334,168.65680899620057L251.33333333333334,168.64913913011551L251.33333333333334,168.7718605041504L251.33333333333334,168.35177972316743L251.33333333333334,168.3930795431137L251.33333333333334,168.44676860570908L251.33333333333334,168.21077164411545L253.75,167.86031045913697L253.75,168.13111897706986L253.75,168.00781031847L253.75,168.3736112356186L253.75,168.35473021268845L253.75,168.21018084287644L253.75,168.30281003713608L253.75,168.44145842790604L253.75,168.290420794487L256.1666666666667,170.00554844141007L256.1666666666667,169.43443002700806L256.1666666666667,168.9270302295685L256.1666666666667,168.82495876550675L256.1666666666667,168.7854313492775L256.1666666666667,168.5895490884781L256.1666666666667,168.58895828723908L256.1666666666667,168.716399037838L256.1666666666667,168.72406890392304L256.1666666666667,168.75121059417725L258.58333333333337,167.78478988409043L258.58333333333337,167.43727918863297L258.58333333333337,167.37651106119156L258.58333333333337,167.45851989984513L258.58333333333337,167.5275486946106L258.58333333333337,167.6703291773796L258.58333333333337,167.6396497130394L258.58333333333337,167.9358310341835L258.58333333333337,168.07271053791047L258.58333333333337,168.4078284740448L261,168.87334116697312L261,168.8739284515381L261,168.63674988746644L261,168.54057940244675L261,168.82437148094178L261,168.61905046701432L261,168.4874811410904L263.4166666666667,171.1165185213089L263.4166666666667,169.25861039161683L263.4166666666667,168.95416840314866L263.4166666666667,168.96714844703675L263.4166666666667,168.96242907047272L263.4166666666667,168.90342983007432L263.4166666666667,169.06862910985947L263.4166666666667,169.21790137290955L263.4166666666667,169.52233984470368L263.4166666666667,169.50523122549058L263.4166666666667,169.37188949584962L265.8333333333333,169.67338099479676L265.8333333333333,169.47101047039033L265.8333333333333,169.21967025995255L265.8333333333333,168.80549045801163L265.8333333333333,168.57125886678696L265.8333333333333,168.4933786034584L265.8333333333333,168.55415024757386L265.8333333333333,168.69869961738587L265.8333333333333,168.66861095428467L265.8333333333333,168.81492921113968L265.8333333333333,168.82200827598572L265.8333333333333,168.90166094303132L265.8333333333333,168.92112925052643" style="fill: none;" fill="none"></path></g></g></g></g></g></g><g transform="translate(40, 177)" clip-path="url(#clip_1)"><clipPath id="clip_1"><rect width="290" height="23"></rect></clipPath><g><g><line x1="0" y1="0" x2="0" y2="5" style="visibility: inherit;" fill="rgb(0, 0, 0)" stroke="rgb(204, 204, 204)" stroke-width="1px"></line><line x1="24.166666666666664" y1="0" x2="24.166666666666664" y2="5" style="visibility: inherit;" fill="rgb(0, 0, 0)" stroke="rgb(204, 204, 204)" stroke-width="1px"></line><line x1="48.33333333333333" y1="0" x2="48.33333333333333" y2="5" style="visibility: inherit;" fill="rgb(0, 0, 0)" stroke="rgb(204, 204, 204)" stroke-width="1px"></line><line x1="72.5" y1="0" x2="72.5" y2="5" style="visibility: inherit;" fill="rgb(0, 0, 0)" stroke="rgb(204, 204, 204)" stroke-width="1px"></line><line x1="96.66666666666666" y1="0" x2="96.66666666666666" y2="5" style="visibility: inherit;" fill="rgb(0, 0, 0)" stroke="rgb(204, 204, 204)" stroke-width="1px"></line><line x1="120.83333333333334" y1="0" x2="120.83333333333334" y2="5" style="visibility: inherit;" fill="rgb(0, 0, 0)" stroke="rgb(204, 204, 204)" stroke-width="1px"></line><line x1="145" y1="0" x2="145" y2="5" style="visibility: inherit;" fill="rgb(0, 0, 0)" stroke="rgb(204, 204, 204)" stroke-width="1px"></line><line x1="169.16666666666669" y1="0" x2="169.16666666666669" y2="5" style="visibility: inherit;" fill="rgb(0, 0, 0)" stroke="rgb(204, 204, 204)" stroke-width="1px"></line><line x1="193.33333333333331" y1="0" x2="193.33333333333331" y2="5" style="visibility: inherit;" fill="rgb(0, 0, 0)" stroke="rgb(204, 204, 204)" stroke-width="1px"></line><line x1="217.5" y1="0" x2="217.5" y2="5" style="visibility: inherit;" fill="rgb(0, 0, 0)" stroke="rgb(204, 204, 204)" stroke-width="1px"></line><line x1="241.66666666666669" y1="0" x2="241.66666666666669" y2="5" style="visibility: inherit;" fill="rgb(0, 0, 0)" stroke="rgb(204, 204, 204)" stroke-width="1px"></line><line x1="265.8333333333333" y1="0" x2="265.8333333333333" y2="5" style="visibility: inherit;" fill="rgb(0, 0, 0)" stroke="rgb(204, 204, 204)" stroke-width="1px"></line><line x1="290" y1="0" x2="290" y2="5" style="visibility: inherit;" fill="rgb(0, 0, 0)" stroke="rgb(204, 204, 204)" stroke-width="1px"></line></g><g transform="translate(0, 8)"><text x="0" y="0" dx="0em" dy="0.95em" style="text-anchor: middle; visibility: hidden; font-family: Roboto, sans-serif; font-size: 12px; font-weight: 200;" fill="rgb(33, 33, 33)" stroke="none" stroke-width="1px">-10</text><text x="24.166666666666664" y="0" dx="0em" dy="0.95em" style="text-anchor: middle; visibility: inherit; font-family: Roboto, sans-serif; font-size: 12px; font-weight: 200;" fill="rgb(33, 33, 33)" stroke="none" stroke-width="1px">0</text><text x="48.33333333333333" y="0" dx="0em" dy="0.95em" style="text-anchor: middle; visibility: inherit; font-family: Roboto, sans-serif; font-size: 12px; font-weight: 200;" fill="rgb(33, 33, 33)" stroke="none" stroke-width="1px">10</text><text x="72.5" y="0" dx="0em" dy="0.95em" style="text-anchor: middle; visibility: inherit; font-family: Roboto, sans-serif; font-size: 12px; font-weight: 200;" fill="rgb(33, 33, 33)" stroke="none" stroke-width="1px">20</text><text x="96.66666666666666" y="0" dx="0em" dy="0.95em" style="text-anchor: middle; visibility: inherit; font-family: Roboto, sans-serif; font-size: 12px; font-weight: 200;" fill="rgb(33, 33, 33)" stroke="none" stroke-width="1px">30</text><text x="120.83333333333334" y="0" dx="0em" dy="0.95em" style="text-anchor: middle; visibility: inherit; font-family: Roboto, sans-serif; font-size: 12px; font-weight: 200;" fill="rgb(33, 33, 33)" stroke="none" stroke-width="1px">40</text><text x="145" y="0" dx="0em" dy="0.95em" style="text-anchor: middle; visibility: inherit; font-family: Roboto, sans-serif; font-size: 12px; font-weight: 200;" fill="rgb(33, 33, 33)" stroke="none" stroke-width="1px">50</text><text x="169.16666666666669" y="0" dx="0em" dy="0.95em" style="text-anchor: middle; visibility: inherit; font-family: Roboto, sans-serif; font-size: 12px; font-weight: 200;" fill="rgb(33, 33, 33)" stroke="none" stroke-width="1px">60</text><text x="193.33333333333331" y="0" dx="0em" dy="0.95em" style="text-anchor: middle; visibility: inherit; font-family: Roboto, sans-serif; font-size: 12px; font-weight: 200;" fill="rgb(33, 33, 33)" stroke="none" stroke-width="1px">70</text><text x="217.5" y="0" dx="0em" dy="0.95em" style="text-anchor: middle; visibility: inherit; font-family: Roboto, sans-serif; font-size: 12px; font-weight: 200;" fill="rgb(33, 33, 33)" stroke="none" stroke-width="1px">80</text><text x="241.66666666666669" y="0" dx="0em" dy="0.95em" style="text-anchor: middle; visibility: inherit; font-family: Roboto, sans-serif; font-size: 12px; font-weight: 200;" fill="rgb(33, 33, 33)" stroke="none" stroke-width="1px">90</text><text x="265.8333333333333" y="0" dx="0em" dy="0.95em" style="text-anchor: middle; visibility: inherit; font-family: Roboto, sans-serif; font-size: 12px; font-weight: 200;" fill="rgb(33, 33, 33)" stroke="none" stroke-width="1px">100</text><text x="290" y="0" dx="0em" dy="0.95em" style="text-anchor: middle; visibility: hidden; font-family: Roboto, sans-serif; font-size: 12px; font-weight: 200;" fill="rgb(33, 33, 33)" stroke="none" stroke-width="1px">110</text></g><line x1="0" y1="0" x2="290" y2="0" fill="rgb(0, 0, 0)" stroke="rgb(204, 204, 204)" stroke-width="1px"></line></g></g></g></g></svg>