<svg viewBox="0 0 330 200" xmlns="http://www.w3.org/2000/svg"><g><g><g><g><g><line x1="40" y1="177" x2="35" y2="177" style="visibility: inherit;" fill="rgb(0, 0, 0)" stroke="rgb(204, 204, 204)" stroke-width="1px"></line><line x1="40" y1="159.3" x2="35" y2="159.3" style="visibility: inherit;" fill="rgb(0, 0, 0)" stroke="rgb(204, 204, 204)" stroke-width="1px"></line><line x1="40" y1="141.6" x2="35" y2="141.6" style="visibility: inherit;" fill="rgb(0, 0, 0)" stroke="rgb(204, 204, 204)" stroke-width="1px"></line><line x1="40" y1="123.89999999999999" x2="35" y2="123.89999999999999" style="visibility: inherit;" fill="rgb(0, 0, 0)" stroke="rgb(204, 204, 204)" stroke-width="1px"></line><line x1="40" y1="106.19999999999997" x2="35" y2="106.19999999999997" style="visibility: inherit;" fill="rgb(0, 0, 0)" stroke="rgb(204, 204, 204)" stroke-width="1px"></line><line x1="40" y1="88.49999999999999" x2="35" y2="88.49999999999999" style="visibility: inherit;" fill="rgb(0, 0, 0)" stroke="rgb(204, 204, 204)" stroke-width="1px"></line><line x1="40" y1="70.79999999999998" x2="35" y2="70.79999999999998" style="visibility: inherit;" fill="rgb(0, 0, 0)" stroke="rgb(204, 204, 204)" stroke-width="1px"></line><line x1="40" y1="53.099999999999966" x2="35" y2="53.099999999999966" style="visibility: inherit;" fill="rgb(0, 0, 0)" stroke="rgb(204, 204, 204)" stroke-width="1px"></line><line x1="40" y1="35.39999999999999" x2="35" y2="35.39999999999999" style="visibility: inherit;" fill="rgb(0, 0, 0)" stroke="rgb(204, 204, 204)" stroke-width="1px"></line><line x1="40" y1="17.699999999999978" x2="35" y2="17.699999999999978" style="visibility: inherit;" fill="rgb(0, 0, 0)" stroke="rgb(204, 204, 204)" stroke-width="1px"></line><line x1="40" y1="0" x2="35" y2="0" style="visibility: inherit;" fill="rgb(0, 0, 0)" stroke="rgb(204, 204, 204)" stroke-width="1px"></line></g><g transform="translate(30, 0)"><text x="0" y="177" dx="0em" dy="0.3em" style="text-anchor: end; visibility: hidden; font-family: Roboto, sans-serif; font-size: 12px; font-weight: 200;" fill="rgb(33, 33, 33)" stroke="none" stroke-width="1px">0.8</text><text x="0" y="159.3" dx="0em" dy="0.3em" style="text-anchor: end; visibility: inherit; font-family: Roboto, sans-serif; font-size: 12px; font-weight: 200;" fill="rgb(33, 33, 33)" stroke="none" stroke-width="1px">1</text><text x="0" y="141.6" dx="0em" dy="0.3em" style="text-anchor: end; visibility: hidden; font-family: Roboto, sans-serif; font-size: 12px; font-weight: 200;" fill="rgb(33, 33, 33)" stroke="none" stroke-width="1px">1.2</text><text x="0" y="123.89999999999999" dx="0em" dy="0.3em" style="text-anchor: end; visibility: inherit; font-family: Roboto, sans-serif; font-size: 12px; font-weight: 200;" fill="rgb(33, 33, 33)" stroke="none" stroke-width="1px">1.4</text><text x="0" y="106.19999999999997" dx="0em" dy="0.3em" style="text-anchor: end; visibility: hidden; font-family: Roboto, sans-serif; font-size: 12px; font-weight: 200;" fill="rgb(33, 33, 33)" stroke="none" stroke-width="1px">1.6</text><text x="0" y="88.49999999999999" dx="0em" dy="0.3em" style="text-anchor: end; visibility: inherit; font-family: Roboto, sans-serif; font-size: 12px; font-weight: 200;" fill="rgb(33, 33, 33)" stroke="none" stroke-width="1px">1.8</text><text x="0" y="70.79999999999998" dx="0em" dy="0.3em" style="text-anchor: end; visibility: hidden; font-family: Roboto, sans-serif; font-size: 12px; font-weight: 200;" fill="rgb(33, 33, 33)" stroke="none" stroke-width="1px">2</text><text x="0" y="53.099999999999966" dx="0em" dy="0.3em" style="text-anchor: end; visibility: inherit; font-family: Roboto, sans-serif; font-size: 12px; font-weight: 200;" fill="rgb(33, 33, 33)" stroke="none" stroke-width="1px">2.2</text><text x="0" y="35.39999999999999" dx="0em" dy="0.3em" style="text-anchor: end; visibility: hidden; font-family: Roboto, sans-serif; font-size: 12px; font-weight: 200;" fill="rgb(33, 33, 33)" stroke="none" stroke-width="1px">2.4</text><text x="0" y="17.699999999999978" dx="0em" dy="0.3em" style="text-anchor: end; visibility: inherit; font-family: Roboto, sans-serif; font-size: 12px; font-weight: 200;" fill="rgb(33, 33, 33)" stroke="none" stroke-width="1px">2.6</text><text x="0" y="0" dx="0em" dy="0.3em" style="text-anchor: end; visibility: hidden; font-family: Roboto, sans-serif; font-size: 12px; font-weight: 200;" fill="rgb(33, 33, 33)" stroke="none" stroke-width="1px">2.8</text></g><line x1="40" y1="0" x2="40" y2="177" fill="rgb(0, 0, 0)" stroke="rgb(204, 204, 204)" stroke-width="1px"></line></g></g><g transform="translate(40, 0)" clip-path="url(#clip_0)"><clipPath id="clip_0"><rect width="290" height="177"></rect></clipPath><g><g><g><line x1="0" y1="0" x2="0" y2="177" fill="rgb(0, 0, 0)" stroke="rgb(66, 66, 66)" stroke-width="1px" opacity="0.25"></line><line x1="24.166666666666664" y1="0" x2="24.166666666666664" y2="177" fill="rgb(0, 0, 0)" stroke="rgb(66, 66, 66)" stroke-width="1px" opacity="0.25"></line><line x1="48.33333333333333" y1="0" x2="48.33333333333333" y2="177" fill="rgb(0, 0, 0)" stroke="rgb(66, 66, 66)" stroke-width="1px" opacity="0.25"></line><line x1="72.5" y1="0" x2="72.5" y2="177" fill="rgb(0, 0, 0)" stroke="rgb(66, 66, 66)" stroke-width="1px" opacity="0.25"></line><line x1="96.66666666666666" y1="0" x2="96.66666666666666" y2="177" fill="rgb(0, 0, 0)" stroke="rgb(66, 66, 66)" stroke-width="1px" opacity="0.25"></line><line x1="120.83333333333334" y1="0" x2="120.83333333333334" y2="177" fill="rgb(0, 0, 0)" stroke="rgb(66, 66, 66)" stroke-width="1px" opacity="0.25"></line><line x1="145" y1="0" x2="145" y2="177" fill="rgb(0, 0, 0)" stroke="rgb(66, 66, 66)" stroke-width="1px" opacity="0.25"></line><line x1="169.16666666666669" y1="0" x2="169.16666666666669" y2="177" fill="rgb(0, 0, 0)" stroke="rgb(66, 66, 66)" stroke-width="1px" opacity="0.25"></line><line x1="193.33333333333331" y1="0" x2="193.33333333333331" y2="177" fill="rgb(0, 0, 0)" stroke="rgb(66, 66, 66)" stroke-width="1px" opacity="0.25"></line><line x1="217.5" y1="0" x2="217.5" y2="177" fill="rgb(0, 0, 0)" stroke="rgb(66, 66, 66)" stroke-width="1px" opacity="0.25"></line><line x1="241.66666666666669" y1="0" x2="241.66666666666669" y2="177" fill="rgb(0, 0, 0)" stroke="rgb(66, 66, 66)" stroke-width="1px" opacity="0.25"></line><line x1="265.8333333333333" y1="0" x2="265.8333333333333" y2="177" fill="rgb(0, 0, 0)" stroke="rgb(66, 66, 66)" stroke-width="1px" opacity="0.25"></line><line x1="290" y1="0" x2="290" y2="177" fill="rgb(0, 0, 0)" stroke="rgb(66, 66, 66)" stroke-width="1px" opacity="0.25"></line></g><g><line x1="0" y1="177" x2="290" y2="177" fill="rgb(0, 0, 0)" stroke="rgb(66, 66, 66)" stroke-width="1px" opacity="0.25"></line><line x1="0" y1="159.3" x2="290" y2="159.3" fill="rgb(0, 0, 0)" stroke="rgb(66, 66, 66)" stroke-width="1px" opacity="0.25"></line><line x1="0" y1="141.6" x2="290" y2="141.6" fill="rgb(0, 0, 0)" stroke="rgb(66, 66, 66)" stroke-width="1px" opacity="0.25"></line><line x1="0" y1="123.89999999999999" x2="290" y2="123.89999999999999" fill="rgb(0, 0, 0)" stroke="rgb(66, 66, 66)" stroke-width="1px" opacity="0.25"></line><line x1="0" y1="106.19999999999997" x2="290" y2="106.19999999999997" fill="rgb(0, 0, 0)" stroke="rgb(66, 66, 66)" stroke-width="1px" opacity="0.25"></line><line x1="0" y1="88.49999999999999" x2="290" y2="88.49999999999999" fill="rgb(0, 0, 0)" stroke="rgb(66, 66, 66)" stroke-width="1px" opacity="0.25"></line><line x1="0" y1="70.79999999999998" x2="290" y2="70.79999999999998" fill="rgb(0, 0, 0)" stroke="rgb(66, 66, 66)" stroke-width="1px" opacity="0.25"></line><line x1="0" y1="53.099999999999966" x2="290" y2="53.099999999999966" fill="rgb(0, 0, 0)" stroke="rgb(66, 66, 66)" stroke-width="1px" opacity="0.25"></line><line x1="0" y1="35.39999999999999" x2="290" y2="35.39999999999999" fill="rgb(0, 0, 0)" stroke="rgb(66, 66, 66)" stroke-width="1px" opacity="0.25"></line><line x1="0" y1="17.699999999999978" x2="290" y2="17.699999999999978" fill="rgb(0, 0, 0)" stroke="rgb(66, 66, 66)" stroke-width="1px" opacity="0.25"></line><line x1="0" y1="0" x2="290" y2="0" fill="rgb(0, 0, 0)" stroke="rgb(66, 66, 66)" stroke-width="1px" opacity="0.25"></line></g></g></g><g><g><line x1="0" y1="247.8" x2="290" y2="247.8" fill="rgb(0, 0, 0)" stroke="rgb(153, 153, 153)" stroke-width="1.5px"></line></g></g><g><g><line x1="24.166666666666664" y1="0" x2="24.166666666666664" y2="177" fill="rgb(0, 0, 0)" stroke="rgb(153, 153, 153)" stroke-width="1.5px"></line></g></g><g><g><g><g><g><path stroke="rgb(255, 112, 67)" stroke-width="2px" d="M26.583333333333332,9.331435489654526L26.583333333333332,19.07823844322777L26.583333333333332,26.681223708678505L26.583333333333332,37.183432887266356L26.583333333333332,43.9832814041708L26.583333333333332,48.97580950980876L26.583333333333332,52.75638844955788L29,62.88984116154777L29,71.21768794160717L29,78.01680642544254L29,83.78659072626442L29,88.70159976400599L29,92.87640795569946L29,96.43877016767308L29,99.59876655617092L29,102.42477029945225L31.416666666666668,105.435897645363L31.416666666666668,108.12196803866749L31.416666666666668,110.48775799480458L31.416666666666668,112.60537075388262L31.416666666666668,114.51982670822841L31.416666666666668,116.26094061019296L31.416666666666668,117.85557337106975L31.416666666666668,119.29679240674595L33.833333333333336,120.49422985358659L33.833333333333336,121.3972385038158L33.833333333333336,122.36032294644669L33.833333333333336,123.31791161722177L33.833333333333336,124.23552106167652L33.833333333333336,125.07999054339328L33.833333333333336,125.88443894006106L33.833333333333336,126.63365892684737L36.25,127.39168796322808L36.25,128.19722012261698L36.25,128.9148626405163L36.25,129.5747336827712L36.25,130.17462722397977L36.25,130.72150774446237L36.25,131.23062588339315L36.25,131.6958184999969L36.25,132.1091362973414L38.666666666666664,132.56364791605677L38.666666666666664,133.03824292111526L38.666666666666664,133.46858708203828L38.666666666666664,133.82713518716812L38.666666666666664,134.1629394649663L38.666666666666664,134.48181244675195L38.666666666666664,134.75910122173576L38.666666666666664,135.0140467587238L38.666666666666664,135.2610627220601L41.083333333333336,135.5230885224025L41.083333333333336,135.77647358066307L41.083333333333336,136.0144998397287L41.083333333333336,136.24862153968039L41.083333333333336,136.46965732265397L41.083333333333336,136.69099189137856L41.083333333333336,136.88851299482994L41.083333333333336,137.07791198221236L43.5,137.32823581012926L43.5,137.5155396716532L43.5,137.69190453141502L43.5,137.84121375457755L43.5,137.96888313106732L43.5,138.09085352811277L43.5,138.19607587721782L45.916666666666664,138.35135242344992L45.916666666666664,138.42742237469025L45.916666666666664,138.54549854562038L45.916666666666664,138.6421326704379L45.916666666666664,138.73210665374705L45.916666666666664,138.8153340495913L48.33333333333333,139.0286872370347L48.33333333333333,139.23990662400328L48.33333333333333,139.4447297100781L48.33333333333333,139.61176923507264L48.33333333333333,139.7573199258361L48.33333333333333,139.89525450160716L48.33333333333333,140.01719415268252L48.33333333333333,140.13186950505084L48.33333333333333,140.24511296912695L50.75,140.23584958462675L50.75,140.3537819491709L50.75,140.4520432427446L50.75,140.54628592252888L50.75,140.62278239831414L50.75,140.6842037114359L50.75,140.7386306135543L53.166666666666664,140.6790948387041L53.166666666666664,140.71981129586578L53.166666666666664,140.76510927982142L53.166666666666664,140.7940274077069L53.166666666666664,140.81441844892245L53.166666666666664,140.83087151702875L53.166666666666664,140.85438362059222L53.166666666666664,140.88267687304742L53.166666666666664,140.90240224011103L53.166666666666664,140.93480645848342L55.583333333333336,140.9125635140664L55.583333333333336,140.8742594316981L55.583333333333336,140.83615770368598L55.583333333333336,140.8134224831841L55.583333333333336,140.7943720892633L55.583333333333336,140.7922954713413L55.583333333333336,140.78970142989849L55.583333333333336,140.7890607409798L55.583333333333336,140.7828083410653L55.583333333333336,140.7806924170596L55.583333333333336,140.78290337812663L55.583333333333336,140.79197615073159L55.583333333333336,140.80538813382222L58,140.98329096478676L58,141.08139048768265L58,141.19443879461534L58,141.30490754561933L58,141.40733665893046L58,141.5007570910454L58,141.58393813324278L58,141.67420595981963L58,141.75883047561163L60.41666666666667,141.67060942267358L60.41666666666667,141.72914702762904L60.41666666666667,141.74227329449553L60.41666666666667,141.77890105245655L60.41666666666667,141.83465734687545L60.41666666666667,141.89506271542848L60.41666666666667,141.95195048378295L60.41666666666667,142.0007118652408L60.41666666666667,142.05176964739624L60.41666666666667,142.11174336132214L60.41666666666667,142.17265389207876L60.41666666666667,142.2221377013253L60.41666666666667,142.27215433807444L60.41666666666667,142.31789231940644L62.833333333333336,142.334938266905L62.833333333333336,142.38727371329756L62.833333333333336,142.41590455178286L62.833333333333336,142.44589155793838L62.833333333333336,142.4628621104634L62.833333333333336,142.4911614162823L62.833333333333336,142.52140892541945L62.833333333333336,142.5519572020981L62.833333333333336,142.5754407331097L65.25,142.51729378415715L65.25,142.57416859609273L65.25,142.63709566444555L65.25,142.65521010838447L65.25,142.67755368391292L65.25,142.71055552672593L65.25,142.747660811775L65.25,142.7852554357531L65.25,142.82999969284126L65.25,142.8848555620228L65.25,142.94077331781148L65.25,142.98650054957304L65.25,143.03321564647655L65.25,143.07905399464298L65.25,143.1225102799018L65.25,143.1706092495827L67.66666666666667,143.14756191027868L67.66666666666667,143.12619839418818L67.66666666666667,143.13268176957766L67.66666666666667,143.13729168777394L67.66666666666667,143.16260608407183L67.66666666666667,143.2032963203921L67.66666666666667,143.23035476903718L67.66666666666667,143.27039956606404L67.66666666666667,143.30839754932433L67.66666666666667,143.32418034903614L67.66666666666667,143.3347034449208L67.66666666666667,143.35828716448304L67.66666666666667,143.37591194847627L67.66666666666667,143.39336323746403L67.66666666666667,143.4116674089349L70.08333333333333,143.34647486153483L70.08333333333333,143.4220892017446L70.08333333333333,143.52583004562536L70.08333333333333,143.61159296499824L70.08333333333333,143.68417162478087L70.08333333333333,143.69333273071248L70.08333333333333,143.71199271887966L70.08333333333333,143.73100305914602L72.5,143.7903069138443L72.5,143.83965297967765L72.5,143.83918012339012L72.5,143.86333595430628L72.5,143.93164320339093L72.5,143.9846307359921L72.5,144.0424911929327L72.5,144.10471606853844L72.5,144.16683836893648L72.5,144.23182848199707L72.5,144.29206422431812L72.5,144.34167617367368L72.5,144.39309976393847L74.91666666666667,144.3114528002537L74.91666666666667,144.3358889664274L74.91666666666667,144.3621127386065L74.91666666666667,144.41959440091244L74.91666666666667,144.45942169107687L74.91666666666667,144.49827505875206L74.91666666666667,144.55496599292078L74.91666666666667,144.61249530271556L74.91666666666667,144.66170504957896L74.91666666666667,144.7113307105605L74.91666666666667,144.7542706524966L74.91666666666667,144.7771416994047L74.91666666666667,144.80032982282637L77.33333333333333,144.85510387738753L77.33333333333333,144.91098942066256L77.33333333333333,144.91969674681957L77.33333333333333,144.92310081158672L77.33333333333333,144.92009526523233L77.33333333333333,144.92719676428905L77.33333333333333,144.95363460134067L77.33333333333333,144.987069857525L77.33333333333333,145.02586921626198L77.33333333333333,145.06657830819603L77.33333333333333,145.0701166594737L77.33333333333333,145.06741596548565L77.33333333333333,145.06648716618128L77.33333333333333,145.07427808470726L77.33333333333333,145.084776969863L79.75,145.12767312538833L79.75,145.1412103674696L79.75,145.18663949641348L79.75,145.22594738720835L79.75,145.24837726092647L79.75,145.2725621092801L79.75,145.30159978628103L79.75,145.3226365815034L79.75,145.32487678498913L79.75,145.3207218683998L82.16666666666667,145.3232793584909L82.16666666666667,145.32690376979642L82.16666666666667,145.327072212439L82.16666666666667,145.32586072239224L82.16666666666667,145.32935606165677L82.16666666666667,145.33718995416024L82.16666666666667,145.33839283555577L82.16666666666667,145.33851801810764L82.16666666666667,145.32850360186043L82.16666666666667,145.3241230447378L82.16666666666667,145.32841317257433L82.16666666666667,145.340232537056L84.58333333333334,145.34137190776025L84.58333333333334,145.35311883472147L84.58333333333334,145.4042362185394L84.58333333333334,145.46770969082533L84.58333333333334,145.4748208559498L84.58333333333334,145.4833467593369L87,145.56645035728917L87,145.65221303046047L87,145.7124919786547L87,145.78157143407972L87,145.8408689854603L87,145.82432194987084L87,145.80939879743022L87,145.81690424962102L87,145.82394580755633L89.41666666666667,145.84320249307783L89.41666666666667,145.84397325515974L89.41666666666667,145.86638791609448L89.41666666666667,145.9098068503305L89.41666666666667,145.963843585635L89.41666666666667,146.0401351132674L89.41666666666667,146.09849663636493L89.41666666666667,146.1590288854637L89.41666666666667,146.216445895171L91.83333333333333,146.27802786531157L91.83333333333333,146.3254236568015L91.83333333333333,146.37797235443517L91.83333333333333,146.43842518125751L91.83333333333333,146.48700546819927L91.83333333333333,146.52545679715536L91.83333333333333,146.54800254692492L91.83333333333333,146.5635799836603L91.83333333333333,146.56806853139608L91.83333333333333,146.59056362887736L91.83333333333333,146.6009155202557L94.25,146.66292076106384L94.25,146.71797603114103L94.25,146.7763405806426L94.25,146.82652138103978L94.25,146.86158163659354L94.25,146.8982079162051L94.25,146.93503850787178L94.25,146.96471721264342L94.25,146.99817802657293L94.25,147.03208951878167L94.25,147.0601903976173L94.25,147.08949683539606L94.25,147.12017010467045L94.25,147.15280546041564L96.66666666666666,147.09805264087115L96.66666666666666,147.002981756968L96.66666666666666,146.96815438525672L96.66666666666666,146.95002462548226L96.66666666666666,146.94103195577802L99.08333333333333,147.02705089873095L99.08333333333333,147.09752942430043L99.08333333333333,147.15151909741957L99.08333333333333,147.176303405293L99.08333333333333,147.16767883663078L99.08333333333333,147.21621403011002L99.08333333333333,147.26718971660452L99.08333333333333,147.32256380860548L99.08333333333333,147.37769170583846L99.08333333333333,147.41749601934495L101.5,147.29286823972606L101.5,147.35762289503484L101.5,147.38210237724766L101.5,147.4513781417414L101.5,147.50953449288224L101.5,147.5588539128275L101.5,147.6092917316505L101.5,147.65928706861035L103.91666666666667,147.53500399812145L103.91666666666667,147.53012680642215L103.91666666666667,147.5454061151667L103.91666666666667,147.56726691180856L103.91666666666667,147.58750347480822L103.91666666666667,147.6181892268237L103.91666666666667,147.65844722753832L103.91666666666667,147.6931965779238L103.91666666666667,147.72855373063817L103.91666666666667,147.7736040426809L106.33333333333333,147.77936440178308L106.33333333333333,147.779438296313L106.33333333333333,147.8257940828553L106.33333333333333,147.8725313031396L106.33333333333333,147.9180821421681L106.33333333333333,147.96033736188122L106.33333333333333,148.00530329074297L106.33333333333333,148.0472687063893L106.33333333333333,148.07355111464713L108.75,148.08745664884094L108.75,148.09464917347324L108.75,148.10188033519916L108.75,148.1241487515442L108.75,148.15981794033695L108.75,148.18498618609436L108.75,148.2094272131285L108.75,148.25304518450034L108.75,148.29337608736242L111.16666666666667,148.36297548125182L111.16666666666667,148.48861074628866L111.16666666666667,148.59814112204973L111.16666666666667,148.6744500026469L111.16666666666667,148.7472973923308L111.16666666666667,148.8226087653147L111.16666666666667,148.89304839969554L111.16666666666667,148.95788664286232L111.16666666666667,149.01465950359798L111.16666666666667,149.07394785751924L111.16666666666667,149.14447634363424L111.16666666666667,149.2062566718463L113.58333333333333,149.16817315704412L113.58333333333333,149.18478401929298L113.58333333333333,149.20091881915926L113.58333333333333,149.21943245822754L113.58333333333333,149.2407820257481L113.58333333333333,149.26354178759118L113.58333333333333,149.31578447329142L113.58333333333333,149.36678705505292L113.58333333333333,149.42448765715105L113.58333333333333,149.4670462133114L113.58333333333333,149.51044139787155L113.58333333333333,149.55520688312203L113.58333333333333,149.598884574002L113.58333333333333,149.63865239668272L116,149.6340845666673L116,149.6891728755925L116,149.74655126214762L116,149.8200001291551L116,149.88654613598973L116,149.9393219030093L116,149.98406043531313L116,150.029615217399L116,150.0747063366747L116,150.11683499348368L116,150.15690152753123L116,150.17744167556057L116,150.20239757261263L116,150.22464555173875L116,150.2401168250084L116,150.26224860771993L118.41666666666667,150.23995330033603L118.41666666666667,150.27036816914847L118.41666666666667,150.2693492892161L118.41666666666667,150.26696554030846L118.41666666666667,150.2717362611146L118.41666666666667,150.28135724906107L120.83333333333334,150.27775328835986L120.83333333333334,150.30455217412702L120.83333333333334,150.3151434968979L120.83333333333334,150.3193199236771L120.83333333333334,150.31271165942215L120.83333333333334,150.30161033825863L120.83333333333334,150.3001355196909L123.25,150.36577350272674L123.25,150.3352044641142L123.25,150.34731634878534L123.25,150.35289299927993L123.25,150.3479689008018L123.25,150.3593539434501L123.25,150.3791525503116L123.25,150.3921645171666L123.25,150.4135087020236L123.25,150.43621904024113L123.25,150.4591215818315L123.25,150.4840651030248L123.25,150.50603546453587L125.66666666666667,150.59319415202685L125.66666666666667,150.60488511846572L125.66666666666667,150.62169962605603L125.66666666666667,150.63479694473187L125.66666666666667,150.66980694981297L128.08333333333334,150.67496805319726L128.08333333333334,150.67075535479057L128.08333333333334,150.67949719053618L128.08333333333334,150.6965637278728L128.08333333333334,150.72529928710847L128.08333333333334,150.76007645156753L128.08333333333334,150.79939835098241L128.08333333333334,150.82573571231381L128.08333333333334,150.85009260918588L128.08333333333334,150.8814622609771L128.08333333333334,150.90068756049527L130.5,151.01165569447943L130.5,151.07216134005688L130.5,151.1438900357387L130.5,151.21751936314334L130.5,151.26405936258035L130.5,151.3187153014474L130.5,151.36506275667563L130.5,151.41059727229685L130.5,151.44504948616773L130.5,151.48074364556217L130.5,151.51969759006627L132.91666666666666,151.67122274502884L132.91666666666666,151.81844636910913L132.91666666666666,151.93578556974484L132.91666666666666,152.03190278064287L132.91666666666666,152.12480718433582L132.91666666666666,152.201561568714L132.91666666666666,152.27695643406986L132.91666666666666,152.3319874263544L132.91666666666666,152.3684697933933L132.91666666666666,152.40799529478784L135.33333333333334,152.5017423789743L135.33333333333334,152.58013761908435L135.33333333333334,152.64629440474172L135.33333333333334,152.7151167736435L135.33333333333334,152.7731968812873L135.33333333333334,152.84686928233978L135.33333333333334,152.87902462899316L135.33333333333334,152.89828843214883L135.33333333333334,152.9247310247223L135.33333333333334,152.95325861731246L135.33333333333334,152.98385558010435L135.33333333333334,153.00894006140396L135.33333333333334,153.0322839626185L135.33333333333334,153.0490179123575L135.33333333333334,153.06168474783453L135.33333333333334,153.07101901837683L137.75,153.02461817448216L137.75,153.03213278348906L137.75,153.03263464312633L137.75,153.07837891721724L137.75,153.0992241151817L137.75,153.1140268702614L137.75,153.1206554144963L137.75,153.1319084044129L137.75,153.14330717881936L137.75,153.15833967082142L137.75,153.16691244875227L137.75,153.17638378057L137.75,153.18856765247872L137.75,153.2020450272823L140.16666666666666,153.2954718024284L140.16666666666666,153.34754428438572L140.16666666666666,153.382498949306L140.16666666666666,153.4200424675749L140.16666666666666,153.45504521353857L140.16666666666666,153.49971400114592L140.16666666666666,153.52763568393493L140.16666666666666,153.5452227763387L140.16666666666666,153.53927434160798L140.16666666666666,153.53623393158873L140.16666666666666,153.53352278244216L140.16666666666666,153.53196474038694L140.16666666666666,153.53327244378104L142.58333333333331,153.5573919574832L142.58333333333331,153.58782818877668L142.58333333333331,153.6340884273829L142.58333333333331,153.68449648760827L142.58333333333331,153.73393288807034L142.58333333333331,153.78178208786449L142.58333333333331,153.8305135545366L142.58333333333331,153.86999366108319L142.58333333333331,153.90577430618382L142.58333333333331,153.93410161215036L142.58333333333331,153.9552601532547L142.58333333333331,153.97261723405012L142.58333333333331,153.99047849118318L142.58333333333331,154.0048798650765L145,153.9757275529453L145,153.97768000109605L145,153.97360571440487L145,153.98898365741584L145,154.0131948059136L145,154.0317707177071L145,154.07269329272376L145,154.109268779164L145,154.1423781278484L147.41666666666666,154.05895914818967L147.41666666666666,154.13883393622282L147.41666666666666,154.16373886044826L147.41666666666666,154.197930098049L147.41666666666666,154.22895165070756L147.41666666666666,154.21262342468515L147.41666666666666,154.1941908363385L147.41666666666666,154.17300741470737L147.41666666666666,154.14305951105587L147.41666666666666,154.1443009848563L147.41666666666666,154.1394178147524L147.41666666666666,154.1364604766805L147.41666666666666,154.13431460190387L147.41666666666666,154.1196207418257L149.83333333333334,154.1929667003457L149.83333333333334,154.21127097319854L149.83333333333334,154.24728926147753L149.83333333333334,154.28571029165838L149.83333333333334,154.32013086096927L149.83333333333334,154.34844950512712L152.25,154.1289242727742L152.25,154.14746611078843L152.25,154.15729283056905L152.25,154.16105252766747L152.25,154.20343144129652L152.25,154.24147906960442L152.25,154.27138503341203L152.25,154.3143098919681L154.66666666666666,154.3724786365665L154.66666666666666,154.4105698379284L154.66666666666666,154.46034121521174L154.66666666666666,154.49926102109222L154.66666666666666,154.53459747324484L154.66666666666666,154.59321285531516L154.66666666666666,154.6379233352673L154.66666666666666,154.6795131443655L157.08333333333331,154.7265461562852L157.08333333333331,154.8041493891519L157.08333333333331,154.84512730170286L157.08333333333331,154.88454320214737L157.08333333333331,154.92694418046298L157.08333333333331,154.961472710299L157.08333333333331,154.9945401466997L157.08333333333331,155.05038015000585L157.08333333333331,155.10581773315803L157.08333333333331,155.15697900399758L157.08333333333331,155.2044760414753L157.08333333333331,155.2441554706647L157.08333333333331,155.2783108684705L157.08333333333331,155.31797154651304L159.5,155.44565353940837L159.5,155.49234589619806L159.5,155.5121890762369L159.5,155.52254416445635L159.5,155.52441623156028L159.5,155.51389336951095L159.5,155.49367473412696L159.5,155.48468894694932L159.5,155.48668400871705L159.5,155.49194213694884L159.5,155.4980878386818L159.5,155.50211217902367L159.5,155.50730733272584L161.91666666666666,155.5746350320905L161.91666666666666,155.5770443524016L161.91666666666666,155.57853668002667L161.91666666666666,155.54539515629372L161.91666666666666,155.50669818612153L161.91666666666666,155.47228133437636L161.91666666666666,155.44693077812317L161.91666666666666,155.43992823550343L161.91666666666666,155.4396480333783L161.91666666666666,155.4479220842698L161.91666666666666,155.4520651323209L161.91666666666666,155.45803665473855L161.91666666666666,155.46304600464362L164.33333333333334,155.44780362760727L164.33333333333334,155.360177956024L164.33333333333334,155.33684819867136L164.33333333333334,155.3191101359668L164.33333333333334,155.2867715439176L164.33333333333334,155.25565161813566L164.33333333333334,155.2544519506276L164.33333333333334,155.2566750860474L164.33333333333334,155.27201784744346L164.33333333333334,155.29354066033918L164.33333333333334,155.31934146881872L166.75,155.38580123484863L166.75,155.48119628772832L166.75,155.56929960517502L166.75,155.6494576968252L166.75,155.70989890094842L166.75,155.7677606182936L166.75,155.83706620233863L166.75,155.90812824063232L169.16666666666669,155.9672736469715L169.16666666666669,156.03151566988416L169.16666666666669,156.09298763757826L169.16666666666669,156.1585104368288L169.16666666666669,156.22819116920738L169.16666666666669,156.2868651716906L169.16666666666669,156.34543762748922L169.16666666666669,156.40276313402464L169.16666666666669,156.4579302717179L169.16666666666669,156.51126850947574L169.16666666666669,156.56078882793182L171.58333333333334,156.57840700875337L171.58333333333334,156.58731194410808L171.58333333333334,156.58829377701264L171.58333333333334,156.59409377097947L171.58333333333334,156.60610838138928L174,156.6622591025996L174,156.70369922528658L174,156.78952963927878L174,156.8621300263258L174,156.92490542102846L174,156.96755018036112L174,157.01071761479494L174,157.03539840826383L174,157.0557476755633L176.41666666666666,157.02932508854283L176.41666666666666,157.0607306043784L176.41666666666666,157.12592160606943L176.41666666666666,157.1570997431808L176.41666666666666,157.18171826294923L176.41666666666666,157.19780471391752L176.41666666666666,157.22043229524206L176.41666666666666,157.24241538102143L176.41666666666666,157.25683900646345L176.41666666666666,157.28235589291035L176.41666666666666,157.30708381855595L176.41666666666666,157.32539792456134L178.83333333333334,157.37452393430482L178.83333333333334,157.4743377975137L178.83333333333334,157.56424940476174L178.83333333333334,157.64276202466974L178.83333333333334,157.70588852454762L178.83333333333334,157.75267222677732L178.83333333333334,157.79986027714918L178.83333333333334,157.84486563787303L178.83333333333334,157.891603363913L178.83333333333334,157.93507474670173L178.83333333333334,157.97765597054257L181.25,158.05111862492012L181.25,158.1122792834826L181.25,158.1632136965839L181.25,158.20801701901314L181.25,158.25080119828442L181.25,158.29029568867935L181.25,158.3011328660965L183.66666666666666,158.26062930060866L183.66666666666666,158.27162207714488L183.66666666666666,158.28339293513875L183.66666666666666,158.29563710995984L183.66666666666666,158.29921571665054L183.66666666666666,158.30164215346568L183.66666666666666,158.30562841446573L183.66666666666666,158.30901709908053L183.66666666666666,158.30900646019097L183.66666666666666,158.31408462891687L183.66666666666666,158.29957175365314L183.66666666666666,158.29051937208237L183.66666666666666,158.28422056941568L183.66666666666666,158.2800070005949L186.08333333333334,158.29768651568702L186.08333333333334,158.30625145526352L186.08333333333334,158.27889945593517L186.08333333333334,158.25592445038444L186.08333333333334,158.2807815155144L186.08333333333334,158.2784653555073L186.08333333333334,158.28759308975756L186.08333333333334,158.30042378351817L186.08333333333334,158.30942683590894L186.08333333333334,158.31559068316986L188.5,158.2921526191337L188.5,158.2544433359124L188.5,158.2443288657692L188.5,158.24095940221804L188.5,158.22926195152584L188.5,158.22173374338533L188.5,158.21267924916154L188.5,158.20969747643505L190.91666666666666,158.18319107019695L190.91666666666666,158.16770070709393L190.91666666666666,158.14993115824186L190.91666666666666,158.1392893699173L190.91666666666666,158.1228079851464L190.91666666666666,158.11741636864303L190.91666666666666,158.1227377998666L190.91666666666666,158.14505035822037L190.91666666666666,158.16938908524534L190.91666666666666,158.19565267250795L190.91666666666666,158.22418745042452L193.33333333333331,158.34913217462588L193.33333333333331,158.3976490691862L193.33333333333331,158.4564840182447L193.33333333333331,158.49547371065063L193.33333333333331,158.52875283554863L193.33333333333331,158.56935082054025L193.33333333333331,158.60398058302297L195.75,158.69674917794006L195.75,158.78461374630433L195.75,158.84095992436414L195.75,158.889311370163L195.75,158.92980248725752L195.75,158.97247296856366L195.75,159.0156648388723L195.75,159.05514837241756L195.75,159.09371958901244L195.75,159.1332827546524L195.75,159.16861111227777L198.16666666666666,159.2092088617772L198.16666666666666,159.2408295342322L198.16666666666666,159.27153276945612L198.16666666666666,159.29786895322988L198.16666666666666,159.31824209807098L198.16666666666666,159.34312769851974L198.16666666666666,159.36172452586686L198.16666666666666,159.3747895921956L198.16666666666666,159.38950236503342L198.16666666666666,159.4070195591535L200.58333333333334,159.49769119007206L200.58333333333334,159.4866561506557L200.58333333333334,159.4791376831779L200.58333333333334,159.47849975521532L200.58333333333334,159.47342447052807L200.58333333333334,159.44585868487644L200.58333333333334,159.4254235880712L200.58333333333334,159.41291312558278L200.58333333333334,159.40027596964123L200.58333333333334,159.390748871694L203,159.42869135594714L203,159.47991450531813L203,159.54658617623997L203,159.59386159117952L203,159.64076455204824L203,159.69372994125567L203,159.74825071731854L203,159.80066500462758L203,159.85576840370678L203,159.9184712157974L203,159.93095677604404L205.41666666666669,159.95242042466623L205.41666666666669,159.9849795501271L205.41666666666669,160.01551245597972L205.41666666666669,160.03761583706313L205.41666666666669,160.057773212329L205.41666666666669,160.07993184889224L205.41666666666669,160.09602641698345L205.41666666666669,160.11746718331966L207.83333333333334,160.04999932838038L207.83333333333334,160.0052868393354L207.83333333333334,159.98387283016524L207.83333333333334,159.982822346914L207.83333333333334,160.0139499964483L207.83333333333334,160.04139728030157L207.83333333333334,160.06809175001146L207.83333333333334,160.10031006561948L210.25,160.19499144232145L210.25,160.30511698625563L210.25,160.39004490044687L210.25,160.47400088204566L210.25,160.5631401442383L210.25,160.6479107997566L210.25,160.73724876221638L210.25,160.80703065740852L210.25,160.84637500882545L210.25,160.88977013904233L210.25,160.93254425599633L212.66666666666666,160.93742590587075L212.66666666666666,160.95153290936054L212.66666666666666,161.02135317974552L212.66666666666666,161.0934350999256L212.66666666666666,161.1089897931076L212.66666666666666,161.12133312527678L212.66666666666666,161.13651073057576L212.66666666666666,161.1506638588028L212.66666666666666,161.14720582141888L212.66666666666666,161.1423278963138L212.66666666666666,161.13618917055834L215.08333333333334,161.16642131297303L215.08333333333334,161.22076257699814L215.08333333333334,161.2684041444697L215.08333333333334,161.3058315608925L215.08333333333334,161.30359795474263L215.08333333333334,161.30036985908038L215.08333333333334,161.30155113461L215.08333333333334,161.3076735293494L215.08333333333334,161.30605573126127L215.08333333333334,161.30120031361807L217.5,161.4018584251282L217.5,161.44880846648252L217.5,161.48920734945332L217.5,161.51634682220444L217.5,161.53358907840763L217.5,161.55240284815437L217.5,161.56394828989363L219.91666666666666,161.63567166321022L219.91666666666666,161.69951659135936L219.91666666666666,161.74755804040305L219.91666666666666,161.80333071324583L219.91666666666666,161.8527746925224L219.91666666666666,161.8737274807687L222.33333333333334,161.98987626144248L222.33333333333334,161.99282286160695L222.33333333333334,162.01155213767123L222.33333333333334,162.0362037830665L222.33333333333334,162.02754154766185L222.33333333333334,162.01227661427214L222.33333333333334,162.0113156171991L222.33333333333334,161.99544616736333L222.33333333333334,161.9952380724499L222.33333333333334,161.9954829557103L222.33333333333334,161.99611385814285L222.33333333333334,161.98781901930113L224.75,162.0292333732806L224.75,162.13720859599354L224.75,162.22385505166284L224.75,162.24222813795308L224.75,162.24238079739396L224.75,162.24425154373193L224.75,162.23377147329734L224.75,162.22806337279323L224.75,162.23224304370214L224.75,162.23811642755592L224.75,162.2465723419989L227.16666666666666,162.27164163644755L227.16666666666666,162.29045728318755L227.16666666666666,162.3428913825673L227.16666666666666,162.36522466184954L227.16666666666666,162.39161843677508L227.16666666666666,162.40031994361817L227.16666666666666,162.40513493538083L229.58333333333331,162.29399547988348L229.58333333333331,162.33660625669822L229.58333333333331,162.40014066677085L229.58333333333331,162.4651445860838L229.58333333333331,162.51667665674452L229.58333333333331,162.54686996452466L229.58333333333331,162.57241207407745L229.58333333333331,162.59185360803696L229.58333333333331,162.59842000283567L232,162.76816179329037L232,162.74369917974062L232,162.70824672750558L232,162.69965669675003L232,162.69074395095473L232,162.6777189691405L232,162.67499164914722L232,162.67412667877332L232,162.6711809737137L232,162.67351540342156L234.41666666666666,162.62148252412106L234.41666666666666,162.54771397024598L234.41666666666666,162.50033406292096L234.41666666666666,162.44917248806317L234.41666666666666,162.44809341286532L234.41666666666666,162.45051973116563L234.41666666666666,162.43441679119624L234.41666666666666,162.41575591492236L234.41666666666666,162.40444434216818L234.41666666666666,162.39272484476012L234.41666666666666,162.38176829884358L234.41666666666666,162.37503230667525L236.83333333333334,162.43045044125708L236.83333333333334,162.51256810091448L236.83333333333334,162.5985005704501L236.83333333333334,162.66628634746291L236.83333333333334,162.68908779089298L236.83333333333334,162.71039520890926L236.83333333333334,162.7433811552509L236.83333333333334,162.76869980790468L236.83333333333334,162.78841594133118L236.83333333333334,162.8086952750849L236.83333333333334,162.82557106213955L236.83333333333334,162.8349655134214L236.83333333333334,162.84344766871098L239.25,162.71561404624745L239.25,162.63727158279426L239.25,162.60324649724012L239.25,162.60194184101636L239.25,162.598003194443L239.25,162.60448339663552L239.25,162.60913489181274L239.25,162.61169542583377L241.66666666666669,162.68598993636095L241.66666666666669,162.7559944814054L241.66666666666669,162.79183357738728L241.66666666666669,162.8321200016549L241.66666666666669,162.88729561390883L241.66666666666669,162.93046403240447L244.08333333333334,162.90067415024558L244.08333333333334,162.8690106788917L244.08333333333334,162.8731799729329L244.08333333333334,162.87762742204254L244.08333333333334,162.87079000924672L244.08333333333334,162.8626130573145L246.5,162.98732949332216L246.5,163.10249133431938L246.5,163.1984430138054L246.5,163.270392640292L246.5,163.3298946356439L246.5,163.36823487558766L246.5,163.4125347500529L246.5,163.45895595363896L246.5,163.50973795355873L246.5,163.54267039762377L246.5,163.57063744627553L248.91666666666666,163.5657443940139L248.91666666666666,163.56339695419086L248.91666666666666,163.56820269611433L248.91666666666666,163.58493681021142L248.91666666666666,163.57331079338218L248.91666666666666,163.56469970374818L248.91666666666666,163.55036850569687L248.91666666666666,163.53600165097055L248.91666666666666,163.52018484568327L251.33333333333334,163.55250632495625L251.33333333333334,163.57524672731157L251.33333333333334,163.59831049636182L251.33333333333334,163.6283630565347L251.33333333333334,163.64943460551547L251.33333333333334,163.67343521039948L251.33333333333334,163.69304967835745L251.33333333333334,163.702966203386L253.75,163.69698782611857L253.75,163.7107341234537L253.75,163.7048985437969L253.75,163.72780736154303L253.75,163.7474467551975L253.75,163.76234283253103L253.75,163.7830432959827L253.75,163.80031915625042L253.75,163.82031532977126L256.1666666666667,163.86404754024144L256.1666666666667,163.8886896309885L256.1666666666667,163.90015224464247L256.1666666666667,163.9005985244625L256.1666666666667,163.90270416381833L256.1666666666667,163.89660658797357L256.1666666666667,163.8931151144971L256.1666666666667,163.89395756091736L256.1666666666667,163.89307647524038L256.1666666666667,163.8879471673456L258.58333333333337,163.86696734231637L258.58333333333337,163.83716880909432L258.58333333333337,163.80903717915456L258.58333333333337,163.77881638088056L258.58333333333337,163.7559476422699L258.58333333333337,163.73948812038304L258.58333333333337,163.72566565089494L258.58333333333337,163.71483526470678L258.58333333333337,163.70649340441125L258.58333333333337,163.71343678331158L261,163.7522026482323L261,163.79593336313408L261,163.82960089577207L261,163.85906280523858L261,163.88612242603307L261,163.90041262309558L261,163.90447456410294L263.4166666666667,164.05165915113915L263.4166666666667,164.11409112901603L263.4166666666667,164.10884091135424L263.4166666666667,164.1007114079866L263.4166666666667,164.08763397980826L263.4166666666667,164.0770247630938L263.4166666666667,164.0751766069761L263.4166666666667,164.07904059169982L263.4166666666667,164.08426012043535L263.4166666666667,164.08731597624381L263.4166666666667,164.08694431239417L265.8333333333333,164.08212197861423L265.8333333333333,164.08333773493052L265.8333333333333,164.0882537863187L265.8333333333333,164.08885304534985L265.8333333333333,164.0798642851345L265.8333333333333,164.0669000199001L265.8333333333333,164.0584779810938L265.8333333333333,164.05074264103484L265.8333333333333,164.0469781742453L265.8333333333333,164.04769420729693L265.8333333333333,164.05014446865803L265.8333333333333,164.05375536339204L265.8333333333333,164.0506367871551" style="fill: none;" fill="none"></path></g></g></g></g><g opacity="0.2"><g><g><g><path stroke="rgb(255, 112, 67)" stroke-width="2px" d="M26.583333333333332,9.331435489654526L26.583333333333332,28.337701249122603L26.583333333333332,40.7657539129257L26.583333333333332,65.64310698509215L26.583333333333332,67.948540019989L26.583333333333332,70.43450503349302L26.583333333333332,71.7850028157234L29,120.97065131664274L29,124.47436641454695L29,125.7823898077011L29,127.77541558742521L29,128.9692771911621L29,129.3356689095497L29,129.37815384864805L29,130.35872565507887L29,131.2428491592407L31.416666666666668,137.46704571247102L31.416666666666668,137.81839309930803L31.416666666666668,137.58297990560533L31.416666666666668,137.65732591152192L31.416666666666668,137.85468517541887L31.416666666666668,138.07592968940736L31.416666666666668,138.35116921663285L31.416666666666668,138.2635512828827L33.833333333333336,136.6024080991745L33.833333333333336,133.79518436193467L33.833333333333336,135.83687739372255L33.833333333333336,136.95728974342347L33.833333333333336,137.52368878126146L33.833333333333336,137.49979298114778L33.833333333333336,137.88830809593202L33.833333333333336,137.96618835926057L36.25,139.00429998636247L36.25,140.68579416275026L36.25,140.1663005232811L36.25,140.03000478744508L36.25,139.7742406010628L36.25,139.55476849079133L36.25,139.52644168138505L36.25,139.3388200879097L36.25,138.95296357870103L38.666666666666664,140.145063328743L38.666666666666664,141.0097009420395L38.666666666666664,140.74420963525773L38.666666666666664,139.92646687030793L38.666666666666664,139.90876393318177L38.666666666666664,139.96805505752565L38.666666666666664,139.55476849079133L38.666666666666664,139.44502716064454L38.666666666666664,139.5742332816124L41.083333333333336,140.11850892305375L41.083333333333336,140.23887412548066L41.083333333333336,140.22294359207154L41.083333333333336,140.40347557067872L41.083333333333336,140.40613417625428L41.083333333333336,140.64596782922746L41.083333333333336,140.42914377450944L41.083333333333336,140.48312823772432L43.5,141.84160183668138L43.5,140.90173201560975L43.5,140.8884600877762L43.5,140.55392943620683L43.5,140.29374479055406L43.5,140.31675438880922L43.5,140.1202813267708L45.916666666666664,141.19643633365632L45.916666666666664,139.82380460500718L45.916666666666664,140.71676902770997L45.916666666666664,140.4220647096634L45.916666666666664,140.3919760465622L45.916666666666664,140.35303591489793L48.33333333333333,142.97617231607438L48.33333333333333,143.1531700372696L48.33333333333333,143.24433277845384L48.33333333333333,142.71421526670457L48.33333333333333,142.46375774145127L48.33333333333333,142.46287153959275L48.33333333333333,142.28941862583162L48.33333333333333,142.27082948684694L48.33333333333333,142.3593336224556L50.75,140.06275205612184L50.75,142.559340941906L50.75,142.29118047952653L50.75,142.31154202222825L50.75,142.05666403770448L50.75,141.83629517555238L50.75,141.76018731594087L53.166666666666664,139.56096135377885L53.166666666666664,141.48494778871537L53.166666666666664,141.6168125152588L53.166666666666664,141.33803873062135L53.166666666666664,141.19820873737336L53.166666666666664,141.14069001674653L53.166666666666664,141.29732619524003L53.166666666666664,141.4159189939499L53.166666666666664,141.27431659698487L53.166666666666664,141.5460113167763L55.583333333333336,140.49286590814592L55.583333333333336,140.1512561917305L55.583333333333336,140.1167365193367L55.583333333333336,140.38401077985765L55.583333333333336,140.43445043563844L55.583333333333336,140.7530505537987L55.583333333333336,140.74066482782365L55.583333333333336,140.77694635391236L55.583333333333336,140.66455696821214L55.583333333333336,140.74066482782365L55.583333333333336,140.82473795413972L55.583333333333336,140.9636817455292L55.583333333333336,141.0592649459839L58,144.35146265029908L58,142.93900458812715L58,143.33548496961595L58,143.39743469953538L58,143.34787069559098L58,143.27087663412095L58,143.16025965213777L58,143.38504897356034L58,143.36291502714158L60.41666666666667,139.99815427064897L60.41666666666667,142.83900092840196L60.41666666666667,141.99116950035096L60.41666666666667,142.47349541187288L60.41666666666667,142.8920991897583L60.41666666666667,143.04078065156938L60.41666666666667,143.03104298114778L60.41666666666667,142.9257326602936L60.41666666666667,143.02042965888978L60.41666666666667,143.24963943958284L60.41666666666667,143.3284059047699L60.41666666666667,143.16113530397416L60.41666666666667,143.22132318019868L60.41666666666667,143.18591730594636L62.833333333333336,142.65845839977266L62.833333333333336,143.38061796426774L62.833333333333336,142.95935558080674L62.833333333333336,143.01511244773866L62.833333333333336,142.78501646518708L62.833333333333336,143.02839492559434L62.833333333333336,143.09565131664277L62.833333333333336,143.1319328427315L62.833333333333336,143.02130531072618L65.25,141.41326038837434L65.25,143.6540850877762L65.25,143.83196901082994L65.25,142.99918191432954L65.25,143.1018441796303L65.25,143.337257373333L65.25,143.45230536460878L65.25,143.4992107629776L65.25,143.67975329160691L65.25,143.92666600942613L65.25,144.00277386903764L65.25,143.8549786090851L65.25,143.9204731464386L65.25,143.94967560768129L65.25,143.94790320396424L65.25,144.08419893980027L67.66666666666667,142.7097948074341L67.66666666666667,142.7204081296921L67.66666666666667,143.25583230257035L67.66666666666667,143.22485743761064L67.66666666666667,143.64346121549607L67.66666666666667,143.97623001337053L67.66666666666667,143.74435107707978L67.66666666666667,144.0310901284218L67.66666666666667,144.0302144765854L67.66666666666667,143.623996424675L67.66666666666667,143.5346060872078L67.66666666666667,143.80630080699922L67.66666666666667,143.71072815656663L67.66666666666667,143.7248862862587L67.66666666666667,143.75939540863038L70.08333333333333,142.1079898953438L70.08333333333333,144.8585705637932L70.08333333333333,145.4966570019722L70.08333333333333,145.24089281558992L70.08333333333333,145.06300889253617L70.08333333333333,143.86737488508226L70.08333333333333,144.0664960026741L70.08333333333333,144.09216420650483L72.5,144.91697548627855L72.5,144.77714549303056L72.5,143.8301966071129L72.5,144.3222601890564L72.5,145.22938274145127L72.5,144.99132149219514L72.5,145.14176480770112L72.5,145.28691201210023L72.5,145.34708933830262L72.5,145.466568338871L72.5,145.43647967576982L72.5,145.28425340652467L72.5,145.37009893655778L74.91666666666667,142.76023446321489L74.91666666666667,144.80015509128572L74.91666666666667,144.86034296751023L74.91666666666667,145.5117013335228L74.91666666666667,145.21611081361772L74.91666666666667,145.2364618062973L74.91666666666667,145.6320559859276L74.91666666666667,145.70551578998567L74.91666666666667,145.5966606616974L74.91666666666667,145.65418993234636L74.91666666666667,145.57010625600816L74.91666666666667,145.21167980432512L74.91666666666667,145.24089281558992L77.33333333333333,145.89578543901445L77.33333333333333,145.9727900505066L77.33333333333333,145.0851322889328L77.33333333333333,144.98777668476106L77.33333333333333,144.86299102306367L77.33333333333333,145.06212269067765L77.33333333333333,145.4559444665909L77.33333333333333,145.62232886552812L77.33333333333333,145.76304506063462L77.33333333333333,145.84003912210466L77.33333333333333,145.13734434843064L77.33333333333333,145.01610349416734L77.33333333333333,145.04884021282197L77.33333333333333,145.22230367660524L77.33333333333333,145.28425340652467L79.75,145.94269083738328L79.75,145.39841519594194L79.75,146.04978411197663L79.75,145.9727900505066L79.75,145.67454092502595L79.75,145.7320701956749L79.75,145.8533110499382L79.75,145.7223325252533L79.75,145.36744033098222L79.75,145.24177901744844L82.16666666666667,145.37187134027482L82.16666666666667,145.3957671403885L82.16666666666667,145.33027260303498L82.16666666666667,145.30284254550935L82.16666666666667,145.3957671403885L82.16666666666667,145.4860331296921L82.16666666666667,145.3612474679947L82.16666666666667,145.3408964753151L82.16666666666667,145.13823055028917L82.16666666666667,145.24089281558992L82.16666666666667,145.40992527008058L82.16666666666667,145.56479959487916L84.58333333333334,145.36301987171174L84.58333333333334,145.5763096690178L84.58333333333334,146.37546329498292L84.58333333333334,146.67370187044145L84.58333333333334,145.60993258953096L84.58333333333334,145.64533846378328L87,147.14541445970536L87,147.28169964551927L87,146.85778920650483L87,147.09407805204393L87,146.9675199866295L87,145.50992892980577L87,145.52585946321489L87,145.95950757265092L87,145.95773516893388L89.41666666666667,146.2090788960457L89.41666666666667,145.8586177110672L89.41666666666667,146.29226582050325L89.41666666666667,146.73476539850236L89.41666666666667,146.99054013490678L89.41666666666667,147.4896722316742L89.41666666666667,147.2073641896248L89.41666666666667,147.30914025306703L89.41666666666667,147.30736784935L91.83333333333333,147.4480840444565L91.83333333333333,147.22594277858735L91.83333333333333,147.37639664411546L91.83333333333333,147.58702783584596L91.83333333333333,147.41003011465074L91.83333333333333,147.25603144168855L91.83333333333333,146.97637145519258L91.83333333333333,146.85955106019975L91.83333333333333,146.65335087776185L91.83333333333333,147.01797019243241L91.83333333333333,146.79760133028032L94.25,147.8410196185112L94.25,147.76402555704118L94.25,147.88526641130449L94.25,147.7799560904503L94.25,147.52772616147996L94.25,147.594106900692L94.25,147.63481943607331L94.25,147.52861236333848L94.25,147.6339332342148L94.25,147.67640762329103L94.25,147.594106900692L94.25,147.64631896018983L94.25,147.70296202898027L94.25,147.77287702560426L96.66666666666666,146.0577493786812L96.66666666666666,145.19663547277452L96.66666666666666,146.30643450021745L96.66666666666666,146.6055592775345L96.66666666666666,146.77017127275468L99.08333333333333,148.66141043901445L99.08333333333333,148.43662111759187L99.08333333333333,148.17732267379762L99.08333333333333,147.64720516204835L99.08333333333333,147.00381206274034L99.08333333333333,148.13838254213334L99.08333333333333,148.23572759628297L99.08333333333333,148.37467138767244L99.08333333333333,148.42512159347535L99.08333333333333,148.17377786636354L101.5,144.9249407529831L101.5,148.5879611849785L101.5,147.84721248149873L101.5,148.76761751174928L101.5,148.6145050406456L101.5,148.49592279195787L101.5,148.5676101922989L101.5,148.6091983795166L103.91666666666667,145.17362587451936L103.91666666666667,147.43746017217637L103.91666666666667,147.8357129573822L103.91666666666667,147.98262201547624L103.91666666666667,147.97199814319612L103.91666666666667,148.2012184739113L103.91666666666667,148.4233491897583L103.91666666666667,148.35343419313432L103.91666666666667,148.40033959150315L103.91666666666667,148.62955992221833L106.33333333333333,147.88881121873857L106.33333333333333,147.78084229230882L106.33333333333333,148.70655398368837L106.33333333333333,148.76053844690324L106.33333333333333,148.7835480451584L106.33333333333333,148.76318650245668L106.33333333333333,148.8596559047699L106.33333333333333,148.8446115732193L106.33333333333333,148.5729168534279L108.75,148.35166178941728L108.75,148.2313071370125L108.75,148.23927240371705L108.75,148.54724864959718L108.75,148.83753250837327L108.75,148.6631828427315L108.75,148.6738067150116L108.75,149.08178662061692L108.75,149.0596632242203L111.16666666666667,149.68536393642427L111.16666666666667,150.87568073272706L111.16666666666667,150.67921822071077L111.16666666666667,150.1243187069893L111.16666666666667,150.13139777183534L111.16666666666667,150.25352482795716L111.16666666666667,150.23140143156053L111.16666666666667,150.18981324434282L111.16666666666667,150.09334384202958L111.16666666666667,150.2004265666008L111.16666666666667,150.48451756238939L111.16666666666667,150.3800828933716L113.58333333333333,148.44458638429643L113.58333333333333,149.50039039850236L113.58333333333333,149.50748001337053L113.58333333333333,149.57119159698487L113.58333333333333,149.64642380476L113.58333333333333,149.69597725868226L113.58333333333333,150.30839549303056L113.58333333333333,150.33583610057832L113.58333333333333,150.5207990884781L113.58333333333333,150.27565877437593L113.58333333333333,150.3349498987198L113.58333333333333,150.4057510972023L113.58333333333333,150.42876069545747L113.58333333333333,150.39424102306367L116,149.5472957968712L116,150.73585073947908L116,150.8367406010628L116,151.21552859544755L116,151.15092025995256L116,150.9420614719391L116,150.83409254550935L116,150.89515607357026L116,150.93143759965898L116,150.9172794699669L116,150.91816567182542L116,150.56770448684694L116,150.6765596151352L116,150.64735715389253L116,150.53407101631166L116,150.68275247812272L118.41666666666667,149.81634246110917L118.41666666666667,150.84825067520143L118.41666666666667,150.2499905705452L118.41666666666667,150.22167431116105L118.41666666666667,150.36237995624543L118.41666666666667,150.46415601968766L120.83333333333334,150.2092780351639L120.83333333333334,150.81373100280763L120.83333333333334,150.51637862920762L120.83333333333334,150.39867203235627L120.83333333333334,150.18715463876725L120.83333333333334,150.09068523645402L120.83333333333334,150.27211396694184L123.25,151.61289517879487L123.25,149.75439273118974L123.25,150.57744215726854L123.25,150.45884935855867L123.25,150.25441102981569L123.25,150.5756697535515L123.25,150.75532608032228L123.25,150.63939188718797L123.25,150.81904821395875L123.25,150.8677154660225L123.25,150.89426987171174L123.25,150.95799200534822L123.25,150.92347233295442L125.66666666666667,152.24920921325685L125.66666666666667,150.8270134806633L125.66666666666667,150.94117527008058L125.66666666666667,150.88364599943162L125.66666666666667,151.33499704599382L128.08333333333334,150.77302901744844L128.08333333333334,150.5907140851021L128.08333333333334,150.84559206962587L128.08333333333334,151.02082793712617L128.08333333333334,151.27127491235734L128.08333333333334,151.42084257602693L128.08333333333334,151.54651443958284L128.08333333333334,151.32614557743074L128.08333333333334,151.31287364959718L128.08333333333334,151.47748564481736L128.08333333333334,151.26596825122834L130.5,153.120050239563L130.5,152.2217686057091L130.5,152.50673525333406L130.5,152.61647658348085L130.5,152.14831935167314L130.5,152.3571781396866L130.5,152.24566440582277L130.5,152.27575306892396L130.5,152.09964154958726L130.5,152.15893267393113L130.5,152.25982253551484L132.91666666666666,154.55020068883897L132.91666666666666,154.61569522619249L132.91666666666666,154.1652303814888L132.91666666666666,153.85812978744508L132.91666666666666,153.88999085426332L132.91666666666666,153.65989487171174L132.91666666666666,153.70945887565614L132.91666666666666,153.3775762796402L132.91666666666666,153.06163476705552L132.91666666666666,153.15897982120515L135.33333333333334,154.28293697834016L135.33333333333334,154.0696471810341L135.33333333333334,153.903273332119L135.33333333333334,154.02274178266526L135.33333333333334,153.87671892642976L135.33333333333334,154.24664490222932L135.33333333333334,153.48997621536256L135.33333333333334,153.26430069208146L135.33333333333334,153.4271402835846L135.33333333333334,153.49528287649156L135.33333333333334,153.56519787311555L135.33333333333334,153.48554520606996L135.33333333333334,153.47581808567048L135.33333333333334,153.3669629573822L135.33333333333334,153.30235462188722L135.33333333333334,153.24837015867234L137.75,152.14300214052201L137.75,153.17491035461427L137.75,153.04216997623445L137.75,153.94752012491227L137.75,153.49528287649156L137.75,153.39527921676637L137.75,153.2465977549553L137.75,153.34571521282197L137.75,153.35988389253617L137.75,153.44395701885225L137.75,153.32979522943498L137.75,153.3563390851021L137.75,153.42006121873857L137.75,153.45811514854432L140.16666666666666,155.07058053016664L140.16666666666666,154.33692144155503L140.16666666666666,154.04663758277894L140.16666666666666,154.13336931467057L140.16666666666666,154.12009738683702L140.16666666666666,154.34842096567155L140.16666666666666,154.05814765691758L140.16666666666666,153.87937753200532L140.16666666666666,153.42625408172609L140.16666666666666,153.47846614122392L140.16666666666666,153.482010948658L140.16666666666666,153.5023619413376L140.16666666666666,153.5581188082695L142.58333333333331,154.01566271781923L142.58333333333331,154.16611658334733L142.58333333333331,154.51303296089174L142.58333333333331,154.64224963188173L142.58333333333331,154.67322449684144L142.58333333333331,154.69091688394548L142.58333333333331,154.756411421299L142.58333333333331,154.62011568546296L142.58333333333331,154.5856065630913L142.58333333333331,154.47232042551042L142.58333333333331,154.35727243423463L142.58333333333331,154.30240176916124L142.58333333333331,154.329842376709L142.58333333333331,154.27850596904756L145,153.4218336224556L145,154.0147765159607L145,153.89619426727296L145,154.28116457462312L145,154.47320662736894L145,154.3847130417824L145,154.85022221803666L145,154.80420302152635L145,154.7714557528496L147.41666666666666,152.47399853467942L147.41666666666666,155.65645490884782L147.41666666666666,154.6369324207306L147.41666666666666,154.8475636124611L147.41666666666666,154.81836115121843L147.41666666666666,153.90238713026048L147.41666666666666,153.843971657753L147.41666666666666,153.77052240371705L147.41666666666666,153.57404934167863L147.41666666666666,154.16788898706437L147.41666666666666,154.04663758277894L147.41666666666666,154.08027105331422L147.41666666666666,154.09354298114778L147.41666666666666,153.84043740034105L149.83333333333334,155.58653991222383L149.83333333333334,154.55905215740205L149.83333333333334,154.93163673877717L149.83333333333334,155.01570986509324L149.83333333333334,154.97412167787553L149.83333333333334,154.88650374412538L152.25,149.9579448580742L152.25,154.49976103305818L152.25,154.34400050640107L152.25,154.23248677253724L152.25,155.0086308002472L152.25,154.96438400745393L152.25,154.83959834575654L152.25,155.12988220453263L154.66666666666666,155.47768478393556L154.66666666666666,155.1343026638031L154.66666666666666,155.40599738359452L154.66666666666666,155.2387373328209L154.66666666666666,155.20599006414415L154.66666666666666,155.70690511465074L154.66666666666666,155.48742245435716L154.66666666666666,155.469719517231L157.08333333333331,155.6201733827591L157.08333333333331,156.27861081361772L157.08333333333331,155.62370764017106L157.08333333333331,155.63344531059266L157.08333333333331,155.73256276845933L157.08333333333331,155.61751477718354L157.08333333333331,155.62282143831254L157.08333333333331,156.11134021282197L157.08333333333331,156.15913181304933L157.08333333333331,156.12904314994813L157.08333333333331,156.1069197535515L157.08333333333331,155.99806462526323L157.08333333333331,155.9272634267807L157.08333333333331,156.0715244293213L159.5,157.87161140441896L159.5,156.37950067520143L159.5,155.88920949697496L159.5,155.71929084062577L159.5,155.5599855065346L159.5,155.3139589905739L159.5,155.1095206618309L159.5,155.3139589905739L159.5,155.5245901823044L159.5,155.59184657335283L159.5,155.61485617160798L159.5,155.57857464551927L159.5,155.60601525306703L161.91666666666666,156.85386132001878L161.91666666666666,155.62282143831254L161.91666666666666,155.60689090490342L161.91666666666666,154.91570620536805L161.91666666666666,154.7714557528496L161.91666666666666,154.81836115121843L161.91666666666666,154.96527020931245L161.91666666666666,155.30687992572786L161.91666666666666,155.4343241930008L161.91666666666666,155.6051290512085L161.91666666666666,155.5307830452919L161.91666666666666,155.57149558067323L161.91666666666666,155.55822365283967L164.33333333333334,155.1581984639168L164.33333333333334,153.69529019594194L164.33333333333334,154.89358280897142L164.33333333333334,154.9820869445801L164.33333333333334,154.67233829498292L164.33333333333334,154.66437302827836L164.33333333333334,155.23165826797486L164.33333333333334,155.2989146590233L164.33333333333334,155.56353031396867L164.33333333333334,155.70247410535814L164.33333333333334,155.80955682992936L166.75,156.64853678941728L166.75,157.29370229244233L166.75,157.24326263666154L166.75,157.17246143817903L166.75,156.85828177928926L166.75,156.86713324785234L166.75,157.15387229919435L166.75,157.25830696821214L169.16666666666669,157.0910363674164L169.16666666666669,157.25211410522462L169.16666666666669,157.26095502376558L169.16666666666669,157.40344362258912L169.16666666666669,157.5521250844002L169.16666666666669,157.40167121887208L169.16666666666669,157.45831428766252L169.16666666666669,157.4919477581978L169.16666666666669,157.50610588788987L169.16666666666669,157.52469502687455L169.16666666666669,157.50167487859727L171.58333333333334,156.91315244436265L171.58333333333334,156.75650571584703L171.58333333333334,156.60694860219957L171.58333333333334,156.7042936563492L171.58333333333334,156.83438597917558L174,157.7291228055954L174,157.49106155633928L174,158.42030750513078L174,158.24153738021852L174,158.11763792037965L174,157.77780060768129L174,157.83089886903764L174,157.50433348417283L174,157.4423837542534L176.41666666666666,156.52729593515397L176.41666666666666,157.65743540525438L176.41666666666666,158.36455063819886L176.41666666666666,157.74948434829713L176.41666666666666,157.64947013854982L176.41666666666666,157.5034472823143L176.41666666666666,157.65035634040834L176.41666666666666,157.66009401082994L176.41666666666666,157.53088788986207L176.41666666666666,157.76717673540116L176.41666666666666,157.77691440582277L176.41666666666666,157.6733659386635L178.83333333333334,158.30791811943055L178.83333333333334,159.37080119848252L178.83333333333334,159.27256994247438L178.83333333333334,159.1345018029213L178.83333333333334,158.90529202222825L178.83333333333334,158.6415625691414L178.83333333333334,158.6964332342148L178.83333333333334,158.69996749162675L178.83333333333334,158.77962015867234L178.83333333333334,158.76103101968766L178.83333333333334,158.78669922351838L181.25,159.44690905809404L181.25,159.2743317961693L181.25,159.13096754550935L181.25,159.05928014516832L181.25,159.0637006044388L181.25,159.04069100618364L181.25,158.5070392370224L183.66666666666666,157.49106155633928L183.66666666666666,158.48048483133317L183.66666666666666,158.5070392370224L183.66666666666666,158.52827643156053L183.66666666666666,158.36720924377443L183.66666666666666,158.34774445295335L183.66666666666666,158.3813673734665L183.66666666666666,158.37340210676194L183.66666666666666,158.30880432128907L183.66666666666666,158.41056983470918L183.66666666666666,158.02382712364198L183.66666666666666,158.11852412223817L183.66666666666666,158.16454331874849L183.66666666666666,158.1999491930008L186.08333333333334,158.63359730243684L186.08333333333334,158.46898530721666L186.08333333333334,157.7592114686966L186.08333333333334,157.81939934492112L186.08333333333334,158.7530657529831L186.08333333333334,158.23445831537248L186.08333333333334,158.4610200405121L186.08333333333334,158.54420696496965L186.08333333333334,158.48048483133317L186.08333333333334,158.43270378112794L188.5,157.84682940244676L188.5,157.5379669547081L188.5,158.05215393304826L188.5,158.17693959474565L188.5,158.00701038837434L188.5,158.07869778871537L188.5,158.04064385890962L188.5,158.15304379463197L190.91666666666666,157.67956935167314L190.91666666666666,157.873383808136L190.91666666666666,157.81230973005296L190.91666666666666,157.93709539175035L190.91666666666666,157.80966167449952L190.91666666666666,158.0149756550789L190.91666666666666,158.22384499311448L190.91666666666666,158.56898896694184L190.91666666666666,158.6318248987198L190.91666666666666,158.69466083049775L190.91666666666666,158.7663482308388L193.33333333333331,160.72308193445207L193.33333333333331,159.31947006583215L193.33333333333331,159.57434805035592L193.33333333333331,159.23627786636354L193.33333333333331,159.16105620861055L193.33333333333331,159.34071253538133L193.33333333333331,159.26194607019426L195.75,160.45935248136522L195.75,160.45404054522515L195.75,159.91153730750085L195.75,159.80798884034158L195.75,159.6991337120533L195.75,159.78321211338044L195.75,159.8363103747368L195.75,159.80533550977708L195.75,159.8265727043152L195.75,159.8849829018116L195.75,159.83984990715982L198.16666666666666,159.98056610226632L198.16666666666666,159.84162231087686L198.16666666666666,159.85489423871041L198.16666666666666,159.79825644493104L198.16666666666666,159.7053318500519L198.16666666666666,159.81595410704614L198.16666666666666,159.71506424546243L198.16666666666666,159.6230258524418L198.16666666666666,159.6690450489521L198.16666666666666,159.73984624743463L200.58333333333334,161.22045217752458L200.58333333333334,159.27699040174485L200.58333333333334,159.3362868010998L200.58333333333334,159.46637912392617L200.58333333333334,159.37699406147004L200.58333333333334,158.9221087574959L200.58333333333334,159.03715674877168L200.58333333333334,159.17521433830262L200.58333333333334,159.16017000675203L200.58333333333334,159.20973401069642L203,160.14959855675698L203,160.45315434336663L203,160.81334792375566L203,160.4920944750309L203,160.5319208085537L203,160.7000723361969L203,160.78414546251298L203,160.79653646349908L203,160.9027329862118L203,161.10982464551927L203,160.1681824207306L205.41666666666669,160.36022974848748L205.41666666666669,160.60360293388368L205.41666666666669,160.59563766717912L205.41666666666669,160.45758007764817L205.41666666666669,160.44076334238054L205.41666666666669,160.500945943594L205.41666666666669,160.40182321071626L205.41666666666669,160.52484174370767L207.83333333333334,158.7681100845337L207.83333333333334,159.15574954748155L207.83333333333334,159.57700665593148L207.83333333333334,159.96286316514016L207.83333333333334,160.60537533760072L207.83333333333334,160.56289567351342L207.83333333333334,160.57528667449952L207.83333333333334,160.71245806217195L210.25,161.99393759965898L210.25,162.39750232100488L210.25,162.00367527008058L210.25,162.06916453242303L210.25,162.25678612589837L210.25,162.25855325460435L210.25,162.4346700489521L210.25,162.1328866660595L210.25,161.59391768574716L210.25,161.714277613163L210.25,161.74525247812272L212.66666666666666,161.03017725348474L212.66666666666666,161.21956597566606L212.66666666666666,162.34793831706048L212.66666666666666,162.46299158334733L212.66666666666666,161.40452896356584L212.66666666666666,161.35585643649102L212.66666666666666,161.4248852312565L212.66666666666666,161.41957329511644L212.66666666666666,161.08150311112405L212.66666666666666,161.04964731931688L212.66666666666666,161.01955338120462L215.08333333333334,161.74083201885225L215.08333333333334,162.25324659347535L215.08333333333334,162.17359392642976L215.08333333333334,162.0169524729252L215.08333333333334,161.26115943789483L215.08333333333334,161.2390360414982L215.08333333333334,161.3239953696728L215.08333333333334,161.42399902939798L215.08333333333334,161.2753175675869L215.08333333333334,161.208947378397L217.5,163.31436254382135L217.5,162.34085925221444L217.5,162.25678612589837L217.5,162.0319968044758L217.5,161.8611919462681L217.5,161.9098644733429L217.5,161.78331168293954L219.91666666666666,162.9984157562256L219.91666666666666,162.91257022619249L219.91666666666666,162.6603455722332L219.91666666666666,162.86301149725915L219.91666666666666,162.79221029877664L219.91666666666666,162.27183045744897L222.33333333333334,164.19670309424401L222.33333333333334,162.04880826473237L222.33333333333334,162.36740838289262L222.33333333333334,162.5045850455761L222.33333333333334,161.86295907497407L222.33333333333334,161.72224287986757L222.33333333333334,161.99305667281152L222.33333333333334,161.6939266204834L222.33333333333334,161.99128426909448L222.33333333333334,162.00013573765756L222.33333333333334,162.00810100436212L222.33333333333334,161.83021708130838L224.75,162.81610609889032L224.75,164.18873782753946L224.75,163.8701377093792L224.75,162.59131677746774L224.75,162.2452813267708L224.75,162.27979572415353L224.75,162.0346501350403L224.75,162.11960946321489L224.75,162.31165679097177L224.75,162.34971072077752L224.75,162.40723471641542L227.16666666666666,162.7479582309723L227.16666666666666,162.6479545712471L227.16666666666666,163.33913927078248L227.16666666666666,162.78955696821214L227.16666666666666,162.89310016036035L227.16666666666666,162.56564857363702L227.16666666666666,162.49661977887155L229.58333333333331,160.18234582543374L229.58333333333331,163.14621101617814L229.58333333333331,163.60729445815088L229.58333333333331,163.70021905303003L229.58333333333331,163.4957859992981L229.58333333333331,163.12054281234742L229.58333333333331,163.05771215558053L229.58333333333331,162.9612427532673L229.58333333333331,162.72318150401117L232,165.9932558119297L232,162.278909522295L232,162.0346501350403L232,162.53644611239434L232,162.52140178084375L232,162.43024431467057L232,162.6231725692749L232,162.6576922416687L232,162.61521257758142L232,162.7178695678711L234.41666666666666,161.63285781741143L234.41666666666666,161.14611144661905L234.41666666666666,161.60011582374574L234.41666666666666,161.4771025657654L234.41666666666666,162.42759098410608L234.41666666666666,162.49661977887155L234.41666666666666,162.12846093177797L234.41666666666666,162.06119926571847L234.41666666666666,162.18952445983888L234.41666666666666,162.17005439400674L234.41666666666666,162.17359392642976L234.41666666666666,162.24704845547677L236.83333333333334,163.483394998312L236.83333333333334,164.07280363440515L236.83333333333334,164.23121749162675L236.83333333333334,163.95421611070634L236.83333333333334,163.12231521606446L236.83333333333334,163.11523615121843L236.83333333333334,163.3701141357422L236.83333333333334,163.24975420832635L236.83333333333334,163.16302247643472L236.83333333333334,163.1940026164055L236.83333333333334,163.14621101617814L236.83333333333334,163.0134600877762L236.83333333333334,163.00460861921312L239.25,160.28677521944047L239.25,161.14876477718354L239.25,161.95676987171174L239.25,162.5771533727646L239.25,162.52316890954972L239.25,162.7276072382927L239.25,162.69751330018045L239.25,162.6603455722332L241.66666666666669,164.09758563637735L241.66666666666669,164.08608083724977L241.66666666666669,163.47277640104295L241.66666666666669,163.59756206274034L241.66666666666669,163.93563224673272L241.66666666666669,163.75066398382188L244.08333333333334,162.33466638922692L244.08333333333334,162.26740472316743L244.08333333333334,162.95239655971528L244.08333333333334,162.96212895512582L244.08333333333334,162.74087916612626L244.08333333333334,162.70725097060205L246.5,165.35694177746774L246.5,165.29056631326677L246.5,165.02152492403985L246.5,164.63743554353715L246.5,164.46043254733087L246.5,164.09669943451883L246.5,164.25423236489297L246.5,164.34095882177354L246.5,164.474595952034L246.5,164.16838683485986L246.5,164.1020113706589L248.91666666666666,163.47277640104295L248.91666666666666,163.51879559755326L248.91666666666666,163.65951179265977L248.91666666666666,163.90288497805597L248.91666666666666,163.3524164736271L248.91666666666666,163.40108900070192L248.91666666666666,163.27807574272157L248.91666666666666,163.26303141117097L248.91666666666666,163.21966554522515L251.33333333333334,164.16661443114282L251.33333333333334,164.0073143720627L251.33333333333334,164.03652210831643L251.33333333333334,164.19936169981958L251.33333333333334,164.04979403615L251.33333333333334,164.12944670319558L251.33333333333334,164.0657245695591L251.33333333333334,163.8913801789284L253.75,163.5833986580372L253.75,163.97191377282144L253.75,163.59402253031732L253.75,164.1630748987198L253.75,164.1205952346325L253.75,164.04536830186845L253.75,164.17635210156442L253.75,164.12856050133706L253.75,164.20024262666703L256.1666666666667,164.69495953917504L256.1666666666667,164.35688935518266L256.1666666666667,164.117941904068L256.1666666666667,163.90907784104348L256.1666666666667,163.94271131157876L256.1666666666667,163.78075264692308L256.1666666666667,163.82677711844445L256.1666666666667,163.909964042902L256.1666666666667,163.8763358473778L256.1666666666667,163.79049031734468L258.58333333333337,163.4683506667614L258.58333333333337,163.27099667787553L258.58333333333337,163.27453621029855L258.58333333333337,163.20462121367456L258.58333333333337,163.32144160866739L258.58333333333337,163.42675720453263L258.58333333333337,163.46303873062135L258.58333333333337,163.50905792713166L258.58333333333337,163.54799805879594L258.58333333333337,163.84536098241807L261,164.48875408172609L261,164.6268169462681L261,164.46928401589395L261,164.4188390851021L261,164.40025522112848L261,164.17192636728288L261,163.98165144324304L263.4166666666667,166.84816630482675L263.4166666666667,165.3002987086773L263.4166666666667,164.00908677577974L263.4166666666667,163.94625084400178L263.4166666666667,163.8391628444195L263.4166666666667,163.87544964551927L263.4166666666667,164.04006164073945L263.4166666666667,164.15245630145074L263.4166666666667,164.18343116641046L263.4166666666667,164.1453772366047L263.4166666666667,164.0798826992512L265.8333333333333,163.99049763679506L265.8333333333333,164.10643710494043L265.8333333333333,164.18165876269342L265.8333333333333,164.10023896694184L265.8333333333333,163.90907784104348L265.8333333333333,163.82057898044587L265.8333333333333,163.89845924377443L265.8333333333333,163.9037711799145L265.8333333333333,163.97545330524446L265.8333333333333,164.06129883527757L265.8333333333333,164.09669943451883L265.8333333333333,164.12236236333848L265.8333333333333,163.99138383865358" style="fill: none;" fill="none"></path></g></g></g></g></g><g><g><span fill="rgb(0, 0, 0)" stroke="none" stroke-width="1px">Alt + Scroll to Zoom</span></g></g></g><g transform="translate(40, 177)" clip-path="url(#clip_1)"><clipPath id="clip_1"><rect width="290" height="23"></rect></clipPath><g><g><line x1="0" y1="0" x2="0" y2="5" style="visibility: inherit;" fill="rgb(0, 0, 0)" stroke="rgb(204, 204, 204)" stroke-width="1px"></line><line x1="24.166666666666664" y1="0" x2="24.166666666666664" y2="5" style="visibility: inherit;" fill="rgb(0, 0, 0)" stroke="rgb(204, 204, 204)" stroke-width="1px"></line><line x1="48.33333333333333" y1="0" x2="48.33333333333333" y2="5" style="visibility: inherit;" fill="rgb(0, 0, 0)" stroke="rgb(204, 204, 204)" stroke-width="1px"></line><line x1="72.5" y1="0" x2="72.5" y2="5" style="visibility: inherit;" fill="rgb(0, 0, 0)" stroke="rgb(204, 204, 204)" stroke-width="1px"></line><line x1="96.66666666666666" y1="0" x2="96.66666666666666" y2="5" style="visibility: inherit;" fill="rgb(0, 0, 0)" stroke="rgb(204, 204, 204)" stroke-width="1px"></line><line x1="120.83333333333334" y1="0" x2="120.83333333333334" y2="5" style="visibility: inherit;" fill="rgb(0, 0, 0)" stroke="rgb(204, 204, 204)" stroke-width="1px"></line><line x1="145" y1="0" x2="145" y2="5" style="visibility: inherit;" fill="rgb(0, 0, 0)" stroke="rgb(204, 204, 204)" stroke-width="1px"></line><line x1="169.16666666666669" y1="0" x2="169.16666666666669" y2="5" style="visibility: inherit;" fill="rgb(0, 0, 0)" stroke="rgb(204, 204, 204)" stroke-width="1px"></line><line x1="193.33333333333331" y1="0" x2="193.33333333333331" y2="5" style="visibility: inherit;" fill="rgb(0, 0, 0)" stroke="rgb(204, 204, 204)" stroke-width="1px"></line><line x1="217.5" y1="0" x2="217.5" y2="5" style="visibility: inherit;" fill="rgb(0, 0, 0)" stroke="rgb(204, 204, 204)" stroke-width="1px"></line><line x1="241.66666666666669" y1="0" x2="241.66666666666669" y2="5" style="visibility: inherit;" fill="rgb(0, 0, 0)" stroke="rgb(204, 204, 204)" stroke-width="1px"></line><line x1="265.8333333333333" y1="0" x2="265.8333333333333" y2="5" style="visibility: inherit;" fill="rgb(0, 0, 0)" stroke="rgb(204, 204, 204)" stroke-width="1px"></line><line x1="290" y1="0" x2="290" y2="5" style="visibility: inherit;" fill="rgb(0, 0, 0)" stroke="rgb(204, 204, 204)" stroke-width="1px"></line></g><g transform="translate(0, 8)"><text x="0" y="0" dx="0em" dy="0.95em" style="text-anchor: middle; visibility: hidden; font-family: Roboto, sans-serif; font-size: 12px; font-weight: 200;" fill="rgb(33, 33, 33)" stroke="none" stroke-width="1px">-10</text><text x="24.166666666666664" y="0" dx="0em" dy="0.95em" style="text-anchor: middle; visibility: inherit; font-family: Roboto, sans-serif; font-size: 12px; font-weight: 200;" fill="rgb(33, 33, 33)" stroke="none" stroke-width="1px">0</text><text x="48.33333333333333" y="0" dx="0em" dy="0.95em" style="text-anchor: middle; visibility: inherit; font-family: Roboto, sans-serif; font-size: 12px; font-weight: 200;" fill="rgb(33, 33, 33)" stroke="none" stroke-width="1px">10</text><text x="72.5" y="0" dx="0em" dy="0.95em" style="text-anchor: middle; visibility: inherit; font-family: Roboto, sans-serif; font-size: 12px; font-weight: 200;" fill="rgb(33, 33, 33)" stroke="none" stroke-width="1px">20</text><text x="96.66666666666666" y="0" dx="0em" dy="0.95em" style="text-anchor: middle; visibility: inherit; font-family: Roboto, sans-serif; font-size: 12px; font-weight: 200;" fill="rgb(33, 33, 33)" stroke="none" stroke-width="1px">30</text><text x="120.83333333333334" y="0" dx="0em" dy="0.95em" style="text-anchor: middle; visibility: inherit; font-family: Roboto, sans-serif; font-size: 12px; font-weight: 200;" fill="rgb(33, 33, 33)" stroke="none" stroke-width="1px">40</text><text x="145" y="0" dx="0em" dy="0.95em" style="text-anchor: middle; visibility: inherit; font-family: Roboto, sans-serif; font-size: 12px; font-weight: 200;" fill="rgb(33, 33, 33)" stroke="none" stroke-width="1px">50</text><text x="169.16666666666669" y="0" dx="0em" dy="0.95em" style="text-anchor: middle; visibility: inherit; font-family: Roboto, sans-serif; font-size: 12px; font-weight: 200;" fill="rgb(33, 33, 33)" stroke="none" stroke-width="1px">60</text><text x="193.33333333333331" y="0" dx="0em" dy="0.95em" style="text-anchor: middle; visibility: inherit; font-family: Roboto, sans-serif; font-size: 12px; font-weight: 200;" fill="rgb(33, 33, 33)" stroke="none" stroke-width="1px">70</text><text x="217.5" y="0" dx="0em" dy="0.95em" style="text-anchor: middle; visibility: inherit; font-family: Roboto, sans-serif; font-size: 12px; font-weight: 200;" fill="rgb(33, 33, 33)" stroke="none" stroke-width="1px">80</text><text x="241.66666666666669" y="0" dx="0em" dy="0.95em" style="text-anchor: middle; visibility: inherit; font-family: Roboto, sans-serif; font-size: 12px; font-weight: 200;" fill="rgb(33, 33, 33)" stroke="none" stroke-width="1px">90</text><text x="265.8333333333333" y="0" dx="0em" dy="0.95em" style="text-anchor: middle; visibility: inherit; font-family: Roboto, sans-serif; font-size: 12px; font-weight: 200;" fill="rgb(33, 33, 33)" stroke="none" stroke-width="1px">100</text><text x="290" y="0" dx="0em" dy="0.95em" style="text-anchor: middle; visibility: hidden; font-family: Roboto, sans-serif; font-size: 12px; font-weight: 200;" fill="rgb(33, 33, 33)" stroke="none" stroke-width="1px">110</text></g><line x1="0" y1="0" x2="290" y2="0" fill="rgb(0, 0, 0)" stroke="rgb(204, 204, 204)" stroke-width="1px"></line></g></g></g></g></svg>