<svg viewBox="0 0 330 200" xmlns="http://www.w3.org/2000/svg"><g><g><g><g><g><line x1="40" y1="177" x2="35" y2="177" style="visibility: inherit;" fill="rgb(0, 0, 0)" stroke="rgb(204, 204, 204)" stroke-width="1px"></line><line x1="40" y1="154.875" x2="35" y2="154.875" style="visibility: inherit;" fill="rgb(0, 0, 0)" stroke="rgb(204, 204, 204)" stroke-width="1px"></line><line x1="40" y1="132.75" x2="35" y2="132.75" style="visibility: inherit;" fill="rgb(0, 0, 0)" stroke="rgb(204, 204, 204)" stroke-width="1px"></line><line x1="40" y1="110.625" x2="35" y2="110.625" style="visibility: inherit;" fill="rgb(0, 0, 0)" stroke="rgb(204, 204, 204)" stroke-width="1px"></line><line x1="40" y1="88.5" x2="35" y2="88.5" style="visibility: inherit;" fill="rgb(0, 0, 0)" stroke="rgb(204, 204, 204)" stroke-width="1px"></line><line x1="40" y1="66.375" x2="35" y2="66.375" style="visibility: inherit;" fill="rgb(0, 0, 0)" stroke="rgb(204, 204, 204)" stroke-width="1px"></line><line x1="40" y1="44.25" x2="35" y2="44.25" style="visibility: inherit;" fill="rgb(0, 0, 0)" stroke="rgb(204, 204, 204)" stroke-width="1px"></line><line x1="40" y1="22.125" x2="35" y2="22.125" style="visibility: inherit;" fill="rgb(0, 0, 0)" stroke="rgb(204, 204, 204)" stroke-width="1px"></line><line x1="40" y1="0" x2="35" y2="0" style="visibility: inherit;" fill="rgb(0, 0, 0)" stroke="rgb(204, 204, 204)" stroke-width="1px"></line></g><g transform="translate(30, 0)"><text x="0" y="177" dx="0em" dy="0.3em" style="text-anchor: end; visibility: hidden; font-family: Roboto, sans-serif; font-size: 12px; font-weight: 200;" fill="rgb(33, 33, 33)" stroke="none" stroke-width="1px">0</text><text x="0" y="154.875" dx="0em" dy="0.3em" style="text-anchor: end; visibility: inherit; font-family: Roboto, sans-serif; font-size: 12px; font-weight: 200;" fill="rgb(33, 33, 33)" stroke="none" stroke-width="1px">0.5</text><text x="0" y="132.75" dx="0em" dy="0.3em" style="text-anchor: end; visibility: hidden; font-family: Roboto, sans-serif; font-size: 12px; font-weight: 200;" fill="rgb(33, 33, 33)" stroke="none" stroke-width="1px">1</text><text x="0" y="110.625" dx="0em" dy="0.3em" style="text-anchor: end; visibility: inherit; font-family: Roboto, sans-serif; font-size: 12px; font-weight: 200;" fill="rgb(33, 33, 33)" stroke="none" stroke-width="1px">1.5</text><text x="0" y="88.5" dx="0em" dy="0.3em" style="text-anchor: end; visibility: hidden; font-family: Roboto, sans-serif; font-size: 12px; font-weight: 200;" fill="rgb(33, 33, 33)" stroke="none" stroke-width="1px">2</text><text x="0" y="66.375" dx="0em" dy="0.3em" style="text-anchor: end; visibility: inherit; font-family: Roboto, sans-serif; font-size: 12px; font-weight: 200;" fill="rgb(33, 33, 33)" stroke="none" stroke-width="1px">2.5</text><text x="0" y="44.25" dx="0em" dy="0.3em" style="text-anchor: end; visibility: hidden; font-family: Roboto, sans-serif; font-size: 12px; font-weight: 200;" fill="rgb(33, 33, 33)" stroke="none" stroke-width="1px">3</text><text x="0" y="22.125" dx="0em" dy="0.3em" style="text-anchor: end; visibility: inherit; font-family: Roboto, sans-serif; font-size: 12px; font-weight: 200;" fill="rgb(33, 33, 33)" stroke="none" stroke-width="1px">3.5</text><text x="0" y="0" dx="0em" dy="0.3em" style="text-anchor: end; visibility: hidden; font-family: Roboto, sans-serif; font-size: 12px; font-weight: 200;" fill="rgb(33, 33, 33)" stroke="none" stroke-width="1px">4</text></g><line x1="40" y1="0" x2="40" y2="177" fill="rgb(0, 0, 0)" stroke="rgb(204, 204, 204)" stroke-width="1px"></line></g></g><g transform="translate(40, 0)" clip-path="url(#clip_0)"><clipPath id="clip_0"><rect width="290" height="177"></rect></clipPath><g><g><g><line x1="0" y1="0" x2="0" y2="177" fill="rgb(0, 0, 0)" stroke="rgb(66, 66, 66)" stroke-width="1px" opacity="0.25"></line><line x1="24.166666666666664" y1="0" x2="24.166666666666664" y2="177" fill="rgb(0, 0, 0)" stroke="rgb(66, 66, 66)" stroke-width="1px" opacity="0.25"></line><line x1="48.33333333333333" y1="0" x2="48.33333333333333" y2="177" fill="rgb(0, 0, 0)" stroke="rgb(66, 66, 66)" stroke-width="1px" opacity="0.25"></line><line x1="72.5" y1="0" x2="72.5" y2="177" fill="rgb(0, 0, 0)" stroke="rgb(66, 66, 66)" stroke-width="1px" opacity="0.25"></line><line x1="96.66666666666666" y1="0" x2="96.66666666666666" y2="177" fill="rgb(0, 0, 0)" stroke="rgb(66, 66, 66)" stroke-width="1px" opacity="0.25"></line><line x1="120.83333333333334" y1="0" x2="120.83333333333334" y2="177" fill="rgb(0, 0, 0)" stroke="rgb(66, 66, 66)" stroke-width="1px" opacity="0.25"></line><line x1="145" y1="0" x2="145" y2="177" fill="rgb(0, 0, 0)" stroke="rgb(66, 66, 66)" stroke-width="1px" opacity="0.25"></line><line x1="169.16666666666669" y1="0" x2="169.16666666666669" y2="177" fill="rgb(0, 0, 0)" stroke="rgb(66, 66, 66)" stroke-width="1px" opacity="0.25"></line><line x1="193.33333333333331" y1="0" x2="193.33333333333331" y2="177" fill="rgb(0, 0, 0)" stroke="rgb(66, 66, 66)" stroke-width="1px" opacity="0.25"></line><line x1="217.5" y1="0" x2="217.5" y2="177" fill="rgb(0, 0, 0)" stroke="rgb(66, 66, 66)" stroke-width="1px" opacity="0.25"></line><line x1="241.66666666666669" y1="0" x2="241.66666666666669" y2="177" fill="rgb(0, 0, 0)" stroke="rgb(66, 66, 66)" stroke-width="1px" opacity="0.25"></line><line x1="265.8333333333333" y1="0" x2="265.8333333333333" y2="177" fill="rgb(0, 0, 0)" stroke="rgb(66, 66, 66)" stroke-width="1px" opacity="0.25"></line><line x1="290" y1="0" x2="290" y2="177" fill="rgb(0, 0, 0)" stroke="rgb(66, 66, 66)" stroke-width="1px" opacity="0.25"></line></g><g><line x1="0" y1="177" x2="290" y2="177" fill="rgb(0, 0, 0)" stroke="rgb(66, 66, 66)" stroke-width="1px" opacity="0.25"></line><line x1="0" y1="154.875" x2="290" y2="154.875" fill="rgb(0, 0, 0)" stroke="rgb(66, 66, 66)" stroke-width="1px" opacity="0.25"></line><line x1="0" y1="132.75" x2="290" y2="132.75" fill="rgb(0, 0, 0)" stroke="rgb(66, 66, 66)" stroke-width="1px" opacity="0.25"></line><line x1="0" y1="110.625" x2="290" y2="110.625" fill="rgb(0, 0, 0)" stroke="rgb(66, 66, 66)" stroke-width="1px" opacity="0.25"></line><line x1="0" y1="88.5" x2="290" y2="88.5" fill="rgb(0, 0, 0)" stroke="rgb(66, 66, 66)" stroke-width="1px" opacity="0.25"></line><line x1="0" y1="66.375" x2="290" y2="66.375" fill="rgb(0, 0, 0)" stroke="rgb(66, 66, 66)" stroke-width="1px" opacity="0.25"></line><line x1="0" y1="44.25" x2="290" y2="44.25" fill="rgb(0, 0, 0)" stroke="rgb(66, 66, 66)" stroke-width="1px" opacity="0.25"></line><line x1="0" y1="22.125" x2="290" y2="22.125" fill="rgb(0, 0, 0)" stroke="rgb(66, 66, 66)" stroke-width="1px" opacity="0.25"></line><line x1="0" y1="0" x2="290" y2="0" fill="rgb(0, 0, 0)" stroke="rgb(66, 66, 66)" stroke-width="1px" opacity="0.25"></line></g></g></g><g><g><line x1="0" y1="177" x2="290" y2="177" fill="rgb(0, 0, 0)" stroke="rgb(153, 153, 153)" stroke-width="1.5px"></line></g></g><g><g><line x1="24.166666666666664" y1="0" x2="24.166666666666664" y2="177" fill="rgb(0, 0, 0)" stroke="rgb(153, 153, 153)" stroke-width="1.5px"></line></g></g><g><g><g><g><g><path stroke="rgb(204, 51, 17)" stroke-width="2px" d="M26.583333333333332,27.049581527709982L26.583333333333332,32.70836452337406L26.583333333333332,38.89650483553499L26.583333333333332,48.46810096929469L26.583333333333332,54.71163441777871L26.583333333333332,59.27229239525127L26.583333333333332,62.65748460277087L29,72.0634917664138L29,79.76110388860258L29,85.82841756770955L29,90.73606777024399L29,94.88095566295677L29,98.418341074422L29,101.4412668073254L29,103.99531644455118L29,106.20228420578232L31.416666666666668,108.66352787517447L31.416666666666668,110.98823893708358L31.416666666666668,113.07756022724824L31.416666666666668,114.9353810871368L31.416666666666668,116.57258370980848L31.416666666666668,117.9155259471594L31.416666666666668,118.96485636891835L31.416666666666668,119.89321296345058L33.833333333333336,120.51273731520563L33.833333333333336,121.04666084150985L33.833333333333336,121.54780751389514L33.833333333333336,122.06593434944868L33.833333333333336,122.61592023411843L33.833333333333336,123.12500828593363L33.833333333333336,123.65931998744463L33.833333333333336,124.19923780000366L36.25,125.0510707493125L36.25,125.82050079029597L36.25,126.56624319263133L36.25,127.12320541775401L36.25,127.65161019891717L36.25,128.14415172102926L36.25,128.61743743648765L36.25,129.0707365487978L36.25,129.50483051237222L38.666666666666664,129.94538732892812L38.666666666666664,130.36652284178754L38.666666666666664,130.785568260252L38.666666666666664,131.19060683423135L38.666666666666664,131.58078127353096L38.666666666666664,131.96050280255423L38.666666666666664,132.30575417586013L38.666666666666664,132.62554027846673L38.666666666666664,132.92609789479732L41.083333333333336,133.07891351566352L41.083333333333336,133.24693181451514L41.083333333333336,133.4175540406217L41.083333333333336,133.602881133332L41.083333333333336,133.76969195741754L41.083333333333336,133.93618810057146L41.083333333333336,134.10975613402522L41.083333333333336,134.27242846290468L43.5,134.51117444315307L43.5,134.70439837557703L43.5,134.89642424864977L43.5,135.1025791503356L43.5,135.27742373499711L43.5,135.455400781092L43.5,135.63949665593987L45.916666666666664,135.83900758290386L45.916666666666664,136.04155579026417L45.916666666666664,136.2496621609209L45.916666666666664,136.44904865257666L45.916666666666664,136.64250416557852L45.916666666666664,136.84561024791083L48.33333333333333,137.06768445614344L48.33333333333333,137.28372285736913L48.33333333333333,137.47052394116574L48.33333333333333,137.64978243317637L48.33333333333333,137.83758282593632L48.33333333333333,138.02053270605683L48.33333333333333,138.19236233729006L48.33333333333333,138.3671546560285L48.33333333333333,138.5328161365401L50.75,138.7644819178175L50.75,138.973289250323L50.75,139.14327247831997L50.75,139.29951754413247L50.75,139.47046794473744L50.75,139.63256563106933L50.75,139.79220625376698L53.166666666666664,139.90782403890884L53.166666666666664,140.0101357980015L53.166666666666664,140.1314277471499L53.166666666666664,140.260764343557L53.166666666666664,140.3652756700377L53.166666666666664,140.44755560660295L53.166666666666664,140.51873845716247L53.166666666666664,140.58220345701264L53.166666666666664,140.64480995657897L53.166666666666664,140.71088053450524L55.583333333333336,140.79714347010338L55.583333333333336,140.87923798569307L55.583333333333336,140.9489649692125L55.583333333333336,140.99453921298462L55.583333333333336,141.01843516062598L55.583333333333336,141.0379882403171L55.583333333333336,141.0497731850994L55.583333333333336,141.0560511410296L55.583333333333336,141.05519032425374L55.583333333333336,141.05612804665944L55.583333333333336,141.05795149311388L55.583333333333336,141.06887703386946L55.583333333333336,141.08629091403463L58,141.14116710998238L58,141.19372528177456L58,141.23940027473984L58,141.31126877759598L58,141.37517518585295L58,141.44886819686064L58,141.5191018340214L58,141.5842986860444L58,141.6484381383759L60.41666666666667,141.66745147686208L60.41666666666667,141.70324600256617L60.41666666666667,141.73034955770476L60.41666666666667,141.77236225057615L60.41666666666667,141.83347713943246L60.41666666666667,141.90608596193252L60.41666666666667,141.97890854951973L60.41666666666667,142.04714820916615L60.41666666666667,142.11905611365398L60.41666666666667,142.19564446732505L60.41666666666667,142.2691245243219L60.41666666666667,142.3317443224552L60.41666666666667,142.39804796691246L60.41666666666667,142.4571529257394L62.833333333333336,142.56498970954624L62.833333333333336,142.65885293513875L62.833333333333336,142.72963305775403L62.833333333333336,142.81810437688836L62.833333333333336,142.90500105355804L62.833333333333336,142.99126576384674L62.833333333333336,143.07148333135476L62.833333333333336,143.1479498542588L62.833333333333336,143.22432928736657L65.25,143.23234813666414L65.25,143.30210899214265L65.25,143.38332073237095L65.25,143.4450153247201L65.25,143.4806217617222L65.25,143.52188372688005L65.25,143.56606111023987L65.25,143.608558729848L65.25,143.6440379234314L65.25,143.70029633001963L65.25,143.75617426940454L65.25,143.80985366792964L65.25,143.8637686935684L65.25,143.9173543323351L65.25,143.96956478781382L65.25,144.0282591774542L67.66666666666667,144.141492204935L67.66666666666667,144.24005311406523L67.66666666666667,144.322285983139L67.66666666666667,144.41423671328621L67.66666666666667,144.48060829436648L67.66666666666667,144.53401109453893L67.66666666666667,144.5817772837718L67.66666666666667,144.63346106131212L67.66666666666667,144.68844595859468L67.66666666666667,144.7509927285614L67.66666666666667,144.82446280449187L67.66666666666667,144.89470079072646L67.66666666666667,144.95806215394737L67.66666666666667,145.01458122257895L67.66666666666667,145.07865158472248L70.08333333333333,145.0628664585877L70.08333333333333,145.09243615788574L70.08333333333333,145.1556657011147L70.08333333333333,145.2051339253865L70.08333333333333,145.2528584608528L70.08333333333333,145.3216954295606L70.08333333333333,145.38534181312738L70.08333333333333,145.4441235728193L72.5,145.52218113974033L72.5,145.55827698127715L72.5,145.60814502894917L72.5,145.66569753153314L72.5,145.72623544877027L72.5,145.77467425364046L72.5,145.8211775789822L72.5,145.86497931244935L72.5,145.90402398914637L72.5,145.94122685863724L72.5,145.97508689459096L72.5,146.00406761957416L72.5,146.03131153277698L74.91666666666667,146.09365683881683L74.91666666666667,146.18240061630942L74.91666666666667,146.2219903180956L74.91666666666667,146.25964468878936L74.91666666666667,146.2903715191362L74.91666666666667,146.31825641829846L74.91666666666667,146.3614297552216L74.91666666666667,146.39901489194023L74.91666666666667,146.4465578727124L74.91666666666667,146.49533006128772L74.91666666666667,146.54261487871355L74.91666666666667,146.58120739577322L74.91666666666667,146.61623291838583L77.33333333333333,146.72524270380472L77.33333333333333,146.792161903378L77.33333333333333,146.85192939410283L77.33333333333333,146.911540466019L77.33333333333333,146.9650733232894L77.33333333333333,147.0247796160177L77.33333333333333,147.0740442656374L77.33333333333333,147.11759310790055L77.33333333333333,147.16385418603758L77.33333333333333,147.21176254515632L77.33333333333333,147.25145647213517L77.33333333333333,147.28870104613375L77.33333333333333,147.32350809621423L77.33333333333333,147.3578579129043L77.33333333333333,147.39243722744305L79.75,147.4354209434448L79.75,147.54048501620818L79.75,147.62518417748754L79.75,147.6989001801712L79.75,147.7598367768368L79.75,147.82144355906482L79.75,147.87990361831723L79.75,147.93119263109665L79.75,147.9751822718411L79.75,148.01113134048163L82.16666666666667,147.9908329933404L82.16666666666667,148.01672913605995L82.16666666666667,148.06042439299745L82.16666666666667,148.09897015779694L82.16666666666667,148.12799967903334L82.16666666666667,148.15858672254132L82.16666666666667,148.189591414804L82.16666666666667,148.22134682830992L82.16666666666667,148.25120468084296L82.16666666666667,148.2818042639375L82.16666666666667,148.31917082081776L82.16666666666667,148.35365121866403L84.58333333333334,148.38295613251415L84.58333333333334,148.40187940998794L84.58333333333334,148.4663190929551L84.58333333333334,148.53665241399344L84.58333333333334,148.58769381936563L84.58333333333334,148.6330856454901L87,148.7105017262868L87,148.77886967961837L87,148.83948275431038L87,148.90109185014228L87,148.94877925262512L87,148.9650320723861L87,148.98436626851804L87,149.0047692498288L87,149.0270282831856L89.41666666666667,149.06098474623803L89.41666666666667,149.09337617939866L89.41666666666667,149.13598491438148L89.41666666666667,149.18887532477606L89.41666666666667,149.2407584412231L89.41666666666667,149.29562295697897L89.41666666666667,149.3414164613558L89.41666666666667,149.3851637272487L89.41666666666667,149.42898027718704L91.83333333333333,149.43947614495886L91.83333333333333,149.44931441976865L91.83333333333333,149.4791485460707L91.83333333333333,149.51010183238944L91.83333333333333,149.5400605371272L91.83333333333333,149.56610969912487L91.83333333333333,149.58545781878675L91.83333333333333,149.61014415188487L91.83333333333333,149.64350818284726L91.83333333333333,149.68038130486875L91.83333333333333,149.7056757296347L94.25,149.77720785690488L94.25,149.83191042869163L94.25,149.89005082200177L94.25,149.9485144791875L94.25,150.0107145234161L94.25,150.05664023906894L94.25,150.09883143455505L94.25,150.1375634563903L94.25,150.1767706115912L94.25,150.2151014227328L94.25,150.2602993796692L94.25,150.30881286200986L94.25,150.35802031119428L94.25,150.4085065791216L96.66666666666666,150.45217625447629L96.66666666666666,150.4966714438536L96.66666666666666,150.5504689615848L96.66666666666666,150.61151076908135L96.66666666666666,150.67235466202945L99.08333333333333,150.7615296259898L99.08333333333333,150.83761697496584L99.08333333333333,150.9032846941509L99.08333333333333,150.95905363350172L99.08333333333333,150.993272094056L99.08333333333333,151.06440986228313L99.08333333333333,151.13035350910502L99.08333333333333,151.19550006442785L99.08333333333333,151.25424762584666L99.08333333333333,151.3032432843849L101.5,151.2522179263277L101.5,151.23976333121385L101.5,151.26474735506181L101.5,151.30020852833707L101.5,151.33113095396607L101.5,151.37267605036905L101.5,151.42475512545244L101.5,151.4741639130233L103.91666666666667,151.52577064597108L103.91666666666667,151.58079288365346L103.91666666666667,151.6357190541605L103.91666666666667,151.68674830384919L103.91666666666667,151.73692978750162L103.91666666666667,151.78787665996265L103.91666666666667,151.83740464528063L103.91666666666667,151.88518629260003L103.91666666666667,151.92781316881178L103.91666666666667,151.97184876109142L106.33333333333333,152.01463392181685L106.33333333333333,152.05782422600092L106.33333333333333,152.09279270801997L106.33333333333333,152.1164105308379L106.33333333333333,152.14190077081992L106.33333333333333,152.16242161705028L106.33333333333333,152.18342085410123L106.33333333333333,152.20447643095667L106.33333333333333,152.23193532541362L108.75,152.26147284678197L108.75,152.30406957667452L108.75,152.35973641476937L108.75,152.4152969789885L108.75,152.47153095467493L108.75,152.52464358827362L108.75,152.58441520481972L108.75,152.64688430682796L108.75,152.70417230361153L111.16666666666667,152.8281347902049L111.16666666666667,152.91465868983997L111.16666666666667,152.99705552599926L111.16666666666667,153.05619438410127L111.16666666666667,153.1115576174655L111.16666666666667,153.16459526250603L111.16666666666667,153.2228132298812L111.16666666666667,153.27210230234408L111.16666666666667,153.31505506294152L111.16666666666667,153.3542892871369L111.16666666666667,153.39470359670045L111.16666666666667,153.42632697770938L113.58333333333333,153.47041852237723L113.58333333333333,153.50907520483005L113.58333333333333,153.54909567131708L113.58333333333333,153.59120825931362L113.58333333333333,153.60285095562867L113.58333333333333,153.61997382363364L113.58333333333333,153.63851935302174L113.58333333333333,153.65589429603844L113.58333333333333,153.667333843728L113.58333333333333,153.67278081261873L113.58333333333333,153.6803891913065L113.58333333333333,153.68985177763048L113.58333333333333,153.6999917145521L113.58333333333333,153.71174863783824L116,153.7795134408274L116,153.8199065063347L116,153.86772733153052L116,153.92649847567253L116,153.98772957486378L116,154.04277947751345L116,154.0910722284686L116,154.13002530730782L116,154.16992902109186L116,154.20896593998043L116,154.24919274357308L116,154.28656750208253L116,154.32322400257146L116,154.36083545544213L116,154.39665482396987L116,154.43380286561222L118.41666666666667,154.5007764744964L118.41666666666667,154.54097105654245L118.41666666666667,154.5794435294561L118.41666666666667,154.61289482627598L118.41666666666667,154.6452931082987L118.41666666666667,154.67689009199492L120.83333333333334,154.65230268563926L120.83333333333334,154.69715608152094L120.83333333333334,154.75423655859478L120.83333333333334,154.80144935708665L120.83333333333334,154.838513489303L120.83333333333334,154.87255184588014L120.83333333333334,154.90387047123806L123.25,155.0341370506179L123.25,155.0064004890731L123.25,155.0048307135416L123.25,155.01798615439404L123.25,155.04327209847204L123.25,155.07260376929727L123.25,155.09670757587458L123.25,155.11732732140223L123.25,155.13397348066573L123.25,155.15226533435097L123.25,155.16824867367626L123.25,155.1794724996008L123.25,155.18947140596097L125.66666666666667,155.21133822388535L125.66666666666667,155.20843791281237L125.66666666666667,155.21366977529826L125.66666666666667,155.22321994114188L125.66666666666667,155.24501447475433L128.08333333333334,155.3155004842343L128.08333333333334,155.38215248414974L128.08333333333334,155.43684308690396L128.08333333333334,155.47295770785175L128.08333333333334,155.5154749765308L128.08333333333334,155.56004794898286L128.08333333333334,155.61102106997234L128.08333333333334,155.6555957658981L128.08333333333334,155.6920564631193L128.08333333333334,155.723309019003L128.08333333333334,155.75014483641777L130.5,155.79641423028633L130.5,155.82614377930878L130.5,155.85029370604428L130.5,155.87381137639892L130.5,155.88973690352782L130.5,155.90878232251364L130.5,155.93419883434714L130.5,155.95953924465675L130.5,155.97792650221206L130.5,155.99552719529277L130.5,156.0133098453215L132.91666666666666,156.11067200818056L132.91666666666666,156.15787613665745L132.91666666666666,156.1988703556358L132.91666666666666,156.23529261712468L132.91666666666666,156.2694512580481L132.91666666666666,156.29493255637047L132.91666666666666,156.31692731826124L132.91666666666666,156.3333088447786L132.91666666666666,156.35570790712075L132.91666666666666,156.3805048552859L135.33333333333334,156.4125137106432L135.33333333333334,156.43931579598137L135.33333333333334,156.4487813719413L135.33333333333334,156.47396920588184L135.33333333333334,156.5055749651639L135.33333333333334,156.54245920367867L135.33333333333334,156.5766585253793L135.33333333333334,156.61485610234118L135.33333333333334,156.64373194834778L135.33333333333334,156.6657654897944L135.33333333333334,156.68941873237597L135.33333333333334,156.71534081850442L135.33333333333334,156.73417002473164L135.33333333333334,156.74384939187013L135.33333333333334,156.75262443820756L135.33333333333334,156.7567569440368L137.75,156.7328274692809L137.75,156.72945382480106L137.75,156.72824011328382L137.75,156.74941126384843L137.75,156.76306335302326L137.75,156.76868731889667L137.75,156.77832229704057L137.75,156.78349302480012L137.75,156.7867237404578L137.75,156.78850970795392L137.75,156.78790535131202L137.75,156.78907908741783L137.75,156.79479612230716L137.75,156.80184244790178L140.16666666666666,156.84325057970642L140.16666666666666,156.8913055244525L140.16666666666666,156.91346097643392L140.16666666666666,156.94484108373533L140.16666666666666,156.97011653334698L140.16666666666666,157.00884133727178L140.16666666666666,157.032797381588L140.16666666666666,157.05683890200467L140.16666666666666,157.0809173146238L140.16666666666666,157.10562816983818L140.16666666666666,157.13328511543645L140.16666666666666,157.1610416237387L140.16666666666666,157.18778641491457L142.58333333333331,157.22633619503077L142.58333333333331,157.26444089612502L142.58333333333331,157.30039698634164L142.58333333333331,157.33307286206352L142.58333333333331,157.36274324331L142.58333333333331,157.39090795044774L142.58333333333331,157.4174432014521L142.58333333333331,157.44163394245933L142.58333333333331,157.46501334381375L142.58333333333331,157.48759994932686L142.58333333333331,157.50726510549342L142.58333333333331,157.52707532871793L142.58333333333331,157.54737745076505L142.58333333333331,157.56666446670985L145,157.58629249928245L145,157.60549228107402L145,157.62284705879492L145,157.64789642964902L145,157.67704760006427L145,157.70779445429946L145,157.73744647331335L145,157.76318213314755L145,157.78769740919176L147.41666666666666,157.74310741970336L147.41666666666666,157.77922432427047L147.41666666666666,157.8027826032462L147.41666666666666,157.82087069177146L147.41666666666666,157.82648304566584L147.41666666666666,157.83805399901271L147.41666666666666,157.8512367870984L147.41666666666666,157.8644905632485L147.41666666666666,157.88267929451783L147.41666666666666,157.91571155257296L147.41666666666666,157.9481542552651L147.41666666666666,157.9796827952449L147.41666666666666,158.009679152381L147.41666666666666,158.02799821719134L149.83333333333334,158.09356745477405L149.83333333333334,158.12368844363684L149.83333333333334,158.15436103299677L149.83333333333334,158.18850024181262L149.83333333333334,158.22181750516867L149.83333333333334,158.2506589729015L152.25,158.26184074136148L152.25,158.30857146556087L152.25,158.35491266013352L152.25,158.38794063879163L152.25,158.4201137451873L152.25,158.45775818423618L152.25,158.49228136717164L152.25,158.52498990264974L154.66666666666666,158.57093102565977L154.66666666666666,158.60302585142352L154.66666666666666,158.6328079634768L154.66666666666666,158.6573396892269L154.66666666666666,158.68391935774423L154.66666666666666,158.72370612707041L154.66666666666666,158.75902555554597L154.66666666666666,158.79328705095764L157.08333333333331,158.8436903290435L157.08333333333331,158.90588830668335L157.08333333333331,158.94751979133164L157.08333333333331,158.98859628994907L157.08333333333331,159.03122535682382L157.08333333333331,159.06968747546108L157.08333333333331,159.10677957307638L157.08333333333331,159.14018070258473L157.08333333333331,159.17100467152784L157.08333333333331,159.20011046540262L157.08333333333331,159.22765032622658L157.08333333333331,159.25480878640982L157.08333333333331,159.2810960752297L157.08333333333331,159.30735227792482L159.5,159.3228261684385L159.5,159.32540188337433L159.5,159.30494939610176L159.5,159.30251153070304L159.5,159.31085985062663L159.5,159.31303822311497L159.5,159.31630246698458L159.5,159.32185934599858L159.5,159.3279349077323L159.5,159.33554305460552L159.5,159.34343452240202L159.5,159.35093141680875L159.5,159.36115095299107L161.91666666666666,159.3245076604688L161.91666666666666,159.32664528162317L161.91666666666666,159.34004828619445L161.91666666666666,159.34269215437882L161.91666666666666,159.34593389068502L161.91666666666666,159.34903569522237L161.91666666666666,159.35377452860374L161.91666666666666,159.3640510408639L161.91666666666666,159.37790687234514L161.91666666666666,159.40051725925255L161.91666666666666,159.41923150445209L161.91666666666666,159.43683306077048L161.91666666666666,159.44747014370043L164.33333333333334,159.41354663546042L164.33333333333334,159.37459333383933L164.33333333333334,159.37404969470404L164.33333333333334,159.38452932777372L164.33333333333334,159.40220660632102L164.33333333333334,159.42457550982124L164.33333333333334,159.4539016144575L164.33333333333334,159.4811197747038L164.33333333333334,159.51051702092428L164.33333333333334,159.53831167236785L164.33333333333334,159.56394221961529L166.75,159.60466375289886L166.75,159.6477963075946L166.75,159.68722349130758L166.75,159.70253218188847L166.75,159.72829281490263L166.75,159.76466867654182L166.75,159.8003319808565L166.75,159.83828310974303L169.16666666666669,159.86829659670562L169.16666666666669,159.89869001670155L169.16666666666669,159.93254185957508L169.16666666666669,159.9738829923735L169.16666666666669,160.02063531984018L169.16666666666669,160.06617842173745L169.16666666666669,160.11055060429732L169.16666666666669,160.1533237277785L169.16666666666669,160.19378115252687L169.16666666666669,160.2314413344138L169.16666666666669,160.2682362546533L171.58333333333334,160.28319043318518L171.58333333333334,160.30994180222436L171.58333333333334,160.33252358124736L171.58333333333334,160.35519315043368L171.58333333333334,160.37564509451204L174,160.41996510858658L174,160.4486834516978L174,160.47912976335118L174,160.50250042558807L174,160.528353126119L174,160.55415222578435L174,160.57870561462175L174,160.5989338475213L174,160.62472175005658L176.41666666666666,160.6179133964966L176.41666666666666,160.6269772031874L176.41666666666666,160.65627469855272L176.41666666666666,160.6718501056317L176.41666666666666,160.68598294815217L176.41666666666666,160.70084731437518L176.41666666666666,160.71819868124888L176.41666666666666,160.73601000225048L176.41666666666666,160.7516032347304L176.41666666666666,160.76907185052946L176.41666666666666,160.7869724029636L176.41666666666666,160.8020087661464L178.83333333333334,160.86072031152875L178.83333333333334,160.8929110458046L178.83333333333334,160.93123602554425L178.83333333333334,160.9667375862694L178.83333333333334,160.99860555068565L178.83333333333334,161.0303182827097L178.83333333333334,161.0582992398817L178.83333333333334,161.08401828926054L178.83333333333334,161.11168160513228L178.83333333333334,161.1357050395402L178.83333333333334,161.16290806703995L181.25,161.1931316420393L181.25,161.2288797821064L181.25,161.25591541470945L181.25,161.28064791743722L181.25,161.3037012875381L181.25,161.3304473505455L181.25,161.3485548357155L183.66666666666666,161.35385368635124L183.66666666666666,161.36311347175513L183.66666666666666,161.36385677662423L183.66666666666666,161.36657632203483L183.66666666666666,161.37190335749094L183.66666666666666,161.37371166716594L183.66666666666666,161.37788547463265L183.66666666666666,161.38450557073153L183.66666666666666,161.3909716386466L183.66666666666666,161.39815430565926L183.66666666666666,161.4004643420432L183.66666666666666,161.40212788080686L183.66666666666666,161.40373033174114L183.66666666666666,161.40587221017802L186.08333333333334,161.47985748621085L186.08333333333334,161.52060660149797L186.08333333333334,161.5512205256009L186.08333333333334,161.5771620228474L186.08333333333334,161.62028078678802L186.08333333333334,161.6394947419204L186.08333333333334,161.65772591018737L186.08333333333334,161.67581989166493L186.08333333333334,161.6913940316189L186.08333333333334,161.7069195920439L188.5,161.7231733735403L188.5,161.71876835777866L188.5,161.70608759405L188.5,161.69315585352672L188.5,161.68598159231055L188.5,161.68668853961867L188.5,161.69510385580134L188.5,161.7063286910743L190.91666666666666,161.75825539924466L190.91666666666666,161.79966501320774L190.91666666666666,161.83449064919458L190.91666666666666,161.86514124515304L190.91666666666666,161.89195828555046L190.91666666666666,161.9240941094569L190.91666666666666,161.95333992978942L190.91666666666666,161.97632227591137L190.91666666666666,161.99877505477653L190.91666666666666,162.02247255372572L190.91666666666666,162.04348067863472L193.33333333333331,162.0706953618924L193.33333333333331,162.08809762232508L193.33333333333331,162.1061121137823L193.33333333333331,162.12103549826057L193.33333333333331,162.13061072792624L193.33333333333331,162.1435790542286L193.33333333333331,162.15623082834935L195.75,162.165041883911L195.75,162.17115567102437L195.75,162.17154316741411L195.75,162.18394728172595L195.75,162.19887292097346L195.75,162.21298587905684L195.75,162.22798624257697L195.75,162.2400019613597L195.75,162.2549347331433L195.75,162.2684349830243L195.75,162.27922472551748L198.16666666666666,162.27102272843837L198.16666666666666,162.29161724824453L198.16666666666666,162.32837310530053L198.16666666666666,162.36649929935675L198.16666666666666,162.39935623228246L198.16666666666666,162.43517230415054L198.16666666666666,162.46775940659666L198.16666666666666,162.49444703246527L198.16666666666666,162.51988883128865L198.16666666666666,162.54124860771546L200.58333333333334,162.5769615604743L200.58333333333334,162.5850026059947L200.58333333333334,162.59938972307856L200.58333333333334,162.61914187988074L200.58333333333334,162.63777363043934L200.58333333333334,162.6541905810914L200.58333333333334,162.6731497015762L200.58333333333334,162.69589558409126L200.58333333333334,162.70816740289973L200.58333333333334,162.72183903655275L203,162.7251363657L203,162.73362303055606L203,162.75582324900643L203,162.78018798558907L203,162.80470618603178L203,162.82921535556682L203,162.85229993495753L203,162.8758454278284L203,162.89781538272055L203,162.92273574054684L203,162.93450682020608L205.41666666666669,162.9485877007107L205.41666666666669,162.95908833740822L205.41666666666669,162.97178532047806L205.41666666666669,162.9861705692664L205.41666666666669,162.9980886806997L205.41666666666669,163.0055611175502L205.41666666666669,163.01049170519852L205.41666666666669,163.01676875086773L207.83333333333334,163.01697941281438L207.83333333333334,163.037910664828L207.83333333333334,163.06020702336113L207.83333333333334,163.07636615999726L207.83333333333334,163.09660694536842L207.83333333333334,163.1181367172342L207.83333333333334,163.13836877973023L207.83333333333334,163.15907158314772L210.25,163.23051176559537L210.25,163.2807241472058L210.25,163.33355895706316L210.25,163.37928277330482L210.25,163.42486653698526L210.25,163.46706481078655L210.25,163.50489645522754L210.25,163.53475212187394L210.25,163.55612350552562L210.25,163.57565194837073L210.25,163.59471287576582L212.66666666666666,163.62370620368236L212.66666666666666,163.60246425507864L212.66666666666666,163.61135663831215L212.66666666666666,163.62852168785315L212.66666666666666,163.6481251030807L212.66666666666666,163.66668194834511L212.66666666666666,163.6829834948124L212.66666666666666,163.69968684307082L212.66666666666666,163.7096697600114L212.66666666666666,163.71862253530387L212.66666666666666,163.7275701793222L215.08333333333334,163.77080665273755L215.08333333333334,163.81210258919623L215.08333333333334,163.8357798312127L215.08333333333334,163.85156933144415L215.08333333333334,163.85656885881622L215.08333333333334,163.8631105288906L215.08333333333334,163.868926852126L215.08333333333334,163.87416473922147L215.08333333333334,163.87763623286946L215.08333333333334,163.88327942175349L217.5,163.91934998309657L217.5,163.92965560830874L217.5,163.94559668109696L217.5,163.97069695393827L217.5,163.99383424071527L217.5,164.0139119007255L217.5,164.0340698243839L219.91666666666666,164.060255595677L219.91666666666666,164.08148144106195L219.91666666666666,164.10317264831681L219.91666666666666,164.1267218941926L219.91666666666666,164.14643869876912L219.91666666666666,164.1613419832145L222.33333333333334,164.15423798447222L222.33333333333334,164.15777730349305L222.33333333333334,164.15532079185965L222.33333333333334,164.15617314655208L222.33333333333334,164.16322210065718L222.33333333333334,164.17297184939767L222.33333333333334,164.18840699458426L222.33333333333334,164.19610103789557L222.33333333333334,164.20721583795955L222.33333333333334,164.21629255397409L222.33333333333334,164.22427379502977L222.33333333333334,164.23358175983944L224.75,164.31590140612795L224.75,164.38877295704464L224.75,164.43667241224836L224.75,164.46286178230972L224.75,164.47333833209916L224.75,164.48729564498495L224.75,164.49832046566507L224.75,164.51051983111796L224.75,164.5231490648539L224.75,164.53578847606119L224.75,164.54938890411137L227.16666666666666,164.60133786479628L227.16666666666666,164.6251349819799L227.16666666666666,164.6462819883669L227.16666666666666,164.6599332956197L227.16666666666666,164.67365425408744L227.16666666666666,164.68547228551725L227.16666666666666,164.69406652547895L229.58333333333331,164.66506108361563L229.58333333333331,164.6658480207838L229.58333333333331,164.6800697696638L229.58333333333331,164.69450962429843L229.58333333333331,164.70612565804345L229.58333333333331,164.717957350834L229.58333333333331,164.72729476249478L229.58333333333331,164.73543517610378L229.58333333333331,164.74084538822274L232,164.75954773661647L232,164.7543713729113L232,164.75336992966666L232,164.76325982725777L232,164.77409332986025L232,164.78232750739238L232,164.7937785242826L232,164.80450210281597L232,164.81298587166236L232,164.82179773458162L234.41666666666666,164.80746871956092L234.41666666666666,164.79805987754472L234.41666666666666,164.79823702643372L234.41666666666666,164.80028592525974L234.41666666666666,164.80937876631918L234.41666666666666,164.8179063219686L234.41666666666666,164.82235686249203L234.41666666666666,164.82910712252888L234.41666666666666,164.83633848534316L234.41666666666666,164.84444731417773L234.41666666666666,164.8514648182571L234.41666666666666,164.8594147254488L236.83333333333334,164.89634914671265L236.83333333333334,164.93210057518024L236.83333333333334,164.9627899031697L236.83333333333334,164.98541792763424L236.83333333333334,164.99653787880138L236.83333333333334,165.00603984080797L236.83333333333334,165.0146241972237L236.83333333333334,165.0246820982466L236.83333333333334,165.03321935677144L236.83333333333334,165.04168377154997L236.83333333333334,165.05027805049951L236.83333333333334,165.0582656388804L236.83333333333334,165.06238025305754L239.25,165.04330123175365L239.25,165.03159242122098L239.25,165.0294960457711L239.25,165.03500489544842L239.25,165.0422073983339L239.25,165.05152777845942L239.25,165.059408636287L239.25,165.0672494704032L241.66666666666669,165.10562901549326L241.66666666666669,165.14509858151425L241.66666666666669,165.1729038804734L241.66666666666669,165.19383191391486L241.66666666666669,165.21243033330566L241.66666666666669,165.22525347031532L244.08333333333334,165.2428781409513L244.08333333333334,165.26504224536106L244.08333333333334,165.29058948678198L244.08333333333334,165.31196101130345L244.08333333333334,165.32626811827456L244.08333333333334,165.33948369567068L246.5,165.36745965935043L246.5,165.3909171833037L246.5,165.40375441812145L246.5,165.41152484816845L246.5,165.41731370337214L246.5,165.42352115417557L246.5,165.43160861484492L246.5,165.43789778080753L246.5,165.45039939153506L246.5,165.46189981343744L246.5,165.4733119658905L248.91666666666666,165.50990700488674L248.91666666666666,165.54115442002436L248.91666666666666,165.58364982877063L248.91666666666666,165.61563507871273L248.91666666666666,165.63436121467373L248.91666666666666,165.65029252556403L248.91666666666666,165.66476350967406L248.91666666666666,165.6784667004233L248.91666666666666,165.69283437618424L251.33333333333334,165.70095242343214L251.33333333333334,165.7064077867098L251.33333333333334,165.71030716944497L251.33333333333334,165.72033928850118L251.33333333333334,165.72617492010576L251.33333333333334,165.73094439850613L251.33333333333334,165.73921452864056L251.33333333333334,165.7450356573745L253.75,165.771473862426L253.75,165.80561718474993L253.75,165.8277209460076L253.75,165.84624151681803L253.75,165.85741983235076L253.75,165.86671170963533L253.75,165.87801699543994L253.75,165.8895756327336L253.75,165.90000322028388L256.1666666666667,165.9448669267686L256.1666666666667,165.9839916980979L256.1666666666667,166.0178857347748L256.1666666666667,166.04920008760564L256.1666666666667,166.0782407174039L256.1666666666667,166.1009175550989L256.1666666666667,166.12358894171308L256.1666666666667,166.14455148607135L256.1666666666667,166.16360304327716L256.1666666666667,166.18125951513215L258.58333333333337,166.15944714981651L258.58333333333337,166.13461016882377L258.58333333333337,166.10758568625124L258.58333333333337,166.0840585001205L258.58333333333337,166.06234931245447L258.58333333333337,166.04484522571417L258.58333333333337,166.02890222662427L258.58333333333337,166.0192433780586L258.58333333333337,166.0123684317467L258.58333333333337,166.0091781280381L261,166.01110334428353L261,166.0228221871763L261,166.03559231948296L261,166.0439405753649L261,166.055190158694L261,166.06481527125442L261,166.07108289543612L263.4166666666667,166.11137511964026L263.4166666666667,166.13255012473576L263.4166666666667,166.13651511992325L263.4166666666667,166.14110048113062L263.4166666666667,166.14607609135808L263.4166666666667,166.1492984219815L263.4166666666667,166.15244812438434L263.4166666666667,166.15745371448315L263.4166666666667,166.16557204244236L263.4166666666667,166.1737048064477L263.4166666666667,166.18125395563158L265.8333333333333,166.2013466221101L265.8333333333333,166.2202134015194L265.8333333333333,166.2378713440577L265.8333333333333,166.24455740331072L265.8333333333333,166.25152864371276L265.8333333333333,166.25427946397474L265.8333333333333,166.25622898198782L265.8333333333333,166.25905452739187L265.8333333333333,166.26514605704634L265.8333333333333,166.2692957456907L265.8333333333333,166.2709812012638L265.8333333333333,166.27213987656773L265.8333333333333,166.27306364148532" style="fill: none;" fill="none"></path></g></g></g></g><g opacity="0.2"><g><g><g><path stroke="rgb(204, 51, 17)" stroke-width="2px" d="M26.583333333333332,27.04958152770996L26.583333333333332,38.084208369255066L26.583333333333332,50.36003476381302L26.583333333333332,74.40593004226685L26.583333333333332,76.71622663736343L26.583333333333332,78.87474006414413L26.583333333333332,79.69601708650589L29,125.97488129138947L29,128.98742428421974L29,128.45288103818893L29,128.15198385715485L29,128.83918592333794L29,129.31088796257973L29,129.39275085926056L29,128.85688358545303L29,128.70776429772377L31.416666666666668,134.84523703157902L31.416666666666668,136.68957871198654L31.416666666666668,137.00640642642975L31.416666666666668,136.91392493247986L31.416666666666668,136.52806578576565L31.416666666666668,134.74169120192528L31.416666666666668,132.4517561495304L31.416666666666668,132.11058953404427L33.833333333333336,128.84670808911324L33.833333333333336,128.37721627950668L33.833333333333336,128.56041213870049L33.833333333333336,129.44585439562798L33.833333333333336,130.58042487502098L33.833333333333336,130.61228066682816L33.833333333333336,131.63224625587463L33.833333333333336,132.3659106194973L36.25,138.10071010887623L36.25,137.74936535954475L36.25,138.25824040174484L36.25,135.94794644415379L36.25,136.1072465032339L36.25,136.0997243374586L36.25,136.329382494092L36.25,136.51833075284958L36.25,136.6926751434803L38.666666666666664,137.29403167963028L38.666666666666664,137.44005717337132L38.666666666666664,137.87016838788986L38.666666666666664,138.08079694211483L38.666666666666664,138.2569137364626L38.666666666666664,138.493650957942L38.666666666666664,138.27682426571846L38.666666666666664,138.18345656991005L38.666666666666664,138.17416463792324L41.083333333333336,135.75900082290173L41.083333333333336,136.20592613518238L41.083333333333336,136.43425498902798L41.083333333333336,136.8917988985777L41.083333333333336,136.74046410620213L41.083333333333336,136.91126896440983L41.083333333333336,137.22102025151253L41.083333333333336,137.19712445139885L43.5,138.81579060852528L43.5,138.19761733710766L43.5,138.37683056294918L43.5,138.84809213876724L43.5,138.4613467901945L43.5,138.703395947814L43.5,139.00606553256512L45.916666666666664,139.49458430707455L45.916666666666664,139.75964306294918L45.916666666666664,140.07647341489792L45.916666666666664,140.1216064095497L45.916666666666664,140.2114345729351L45.916666666666664,140.59817992150784L48.33333333333333,141.17652685940266L48.33333333333333,141.28626818954945L48.33333333333333,140.93580700457096L48.33333333333333,140.97917287051678L48.33333333333333,141.32963141798973L48.33333333333333,141.42609818279743L48.33333333333333,141.3942371159792L48.33333333333333,141.6274348050356L48.33333333333333,141.62566503882408L50.75,143.09343686699867L50.75,142.87838257849216L50.75,142.324815005064L50.75,142.22613801062107L50.75,142.67483308911324L50.75,142.67306332290173L50.75,142.78855441510677L53.166666666666664,142.07922631502151L53.166666666666664,141.93276035785675L53.166666666666664,142.41198720037937L53.166666666666664,142.6938600540161L53.166666666666664,142.3323371708393L53.166666666666664,141.99692295491695L53.166666666666664,141.85974629223347L53.166666666666664,141.7783264964819L53.166666666666664,141.82523189485073L53.166666666666664,141.95709662139416L55.583333333333336,142.42482130229473L55.583333333333336,142.42880129814148L55.583333333333336,142.2655212432146L55.583333333333336,141.85532319545746L55.583333333333336,141.46990451216698L55.583333333333336,141.40751168131828L55.583333333333336,141.2725505232811L55.583333333333336,141.17475709319115L55.583333333333336,141.03890973329544L55.583333333333336,141.07386723160744L55.583333333333336,141.0924537330866L55.583333333333336,141.27564695477486L55.583333333333336,141.4159200489521L58,142.18011881411076L58,142.1889676451683L58,142.10444878041744L58,142.67262022197247L58,142.58589112758636L58,142.84519484639168L58,142.85006368160248L58,142.81997238099575L58,142.86422181129456L60.41666666666667,142.02789781987667L60.41666666666667,142.38189853727818L60.41666666666667,142.24427877366543L60.41666666666667,142.56907439231873L60.41666666666667,142.99254700541496L60.41666666666667,143.28326869010925L60.41666666666667,143.36026538908482L60.41666666666667,143.34167888760567L60.41666666666667,143.4832812845707L60.41666666666667,143.64877420663834L60.41666666666667,143.6633780747652L60.41666666666667,143.5200085490942L60.41666666666667,143.65629637241364L60.41666666666667,143.57885921001434L62.833333333333336,144.61165626347065L62.833333333333336,144.4404083043337L62.833333333333336,144.0731330215931L62.833333333333336,144.49748919904232L62.833333333333336,144.55457273125648L62.833333333333336,144.62891346216202L62.833333333333336,144.59439642727375L62.833333333333336,144.5997083634138L62.833333333333336,144.67448955774307L65.25,143.38460165262222L65.25,144.62670059502125L65.25,144.9253875464201L65.25,144.61652246117592L65.25,144.15676568448544L65.25,144.30544450879097L65.25,144.40500770509243L65.25,144.4156263023615L65.25,144.31783550977707L65.25,144.76874345541L65.25,144.81741861999035L65.25,144.82936388254166L65.25,144.88777408003807L65.25,144.93512257933617L65.25,144.96123124659061L65.25,145.14309780299664L67.66666666666667,146.29226951301098L67.66666666666667,146.11217272281647L67.66666666666667,145.8842843323946L67.66666666666667,146.1608478873968L67.66666666666667,145.74135790765285L67.66666666666667,145.54842701554298L67.66666666666667,145.48913325369358L67.66666666666667,145.61524558067322L67.66666666666667,145.73294954001904L67.66666666666667,145.939154997468L67.66666666666667,146.22014164924622L67.66666666666667,146.2289931178093L67.66666666666667,146.1617314517498L67.66666666666667,146.0882769227028L67.66666666666667,146.295809045434L70.08333333333333,144.76299105584621L70.08333333333333,145.6541857123375L70.08333333333333,146.35687521100044L70.08333333333333,146.1449173539877L70.08333333333333,146.15952122211456L70.08333333333333,146.62945613265038L70.08333333333333,146.59449863433838L70.08333333333333,146.56086780130863L72.5,147.00513714551926L72.5,146.2440374493599L72.5,146.5555585026741L72.5,146.75910799205303L72.5,146.8763688504696L72.5,146.69494539499283L72.5,146.7046804279089L72.5,146.6971582621336L72.5,146.64582712948322L72.5,146.648039996624L72.5,146.61839179694653L72.5,146.55467230081558L72.5,146.5489199012518L74.91666666666667,147.27816116809845L74.91666666666667,147.8684560060501L74.91666666666667,146.97416228055954L74.91666666666667,146.97504848241806L74.91666666666667,146.87415862083435L74.91666666666667,146.8480499535799L74.91666666666667,147.18169440329075L74.91666666666667,147.11310870945454L74.91666666666667,147.34984593093395L74.91666666666667,147.42197379469872L74.91666666666667,147.4410007596016L74.91666666666667,147.3144453316927L74.91666666666667,147.28170070052147L77.33333333333333,148.7963779270649L77.33333333333333,148.06359712779522L77.33333333333333,147.98748663067818L77.33333333333333,148.04412706196308L77.33333333333333,147.98217733204365L77.33333333333333,148.1591776907444L77.33333333333333,148.0100557655096L77.33333333333333,147.94500696659088L77.33333333333333,148.04280039668083L77.33333333333333,148.12200732529163L77.33333333333333,148.00563003122807L77.33333333333333,147.99633809924126L77.33333333333333,147.98483330011368L77.33333333333333,148.01049622893333L77.33333333333333,148.0494363605976L79.75,148.25210228562355L79.75,149.53668089210987L79.75,149.23445177078247L79.75,149.09949061274529L79.75,148.91762141883373L79.75,148.99196214973927L79.75,148.99063548445702L79.75,148.90567615628242L79.75,148.81097915768623L79.75,148.6941587626934L82.16666666666667,147.60516701638699L82.16666666666667,148.50875267386436L82.16666666666667,148.8906291872263L82.16666666666667,148.8313354253769L82.16666666666667,148.67955753207207L82.16666666666667,148.73973749578L82.16666666666667,148.77867762744427L82.16666666666667,148.82469682395458L82.16666666666667,148.81850132346153L82.16666666666667,148.8631938546896L82.16666666666667,149.02913251519203L82.16666666666667,149.00877624750137L84.58333333333334,148.9397474527359L84.58333333333334,148.7614204287529L84.58333333333334,149.69066901504993L84.58333333333334,149.87298130989075L84.58333333333334,149.55747762322426L84.58333333333334,149.49552789330482L87,150.18140329420567L87,150.07785746455193L87,149.99112837016582L87,150.07166196405888L87,149.85483790934086L87,149.273835003376L87,149.35171526670456L87,149.39242516458035L87,149.44994916021824L89.41666666666667,149.7061564475298L89.41666666666667,149.70881241559982L89.41666666666667,149.94554963707924L89.41666666666667,150.19379165768623L89.41666666666667,150.22653628885746L89.41666666666667,150.33804738521576L89.41666666666667,150.21149195730686L89.41666666666667,150.21636079251766L89.41666666666667,150.26149378716946L91.83333333333333,149.63889741897583L91.83333333333333,149.6362414509058L91.83333333333333,150.0459963977337L91.83333333333333,150.09821373224258L91.83333333333333,150.1092754304409L91.83333333333333,150.06104336678982L91.83333333333333,149.95307180285454L91.83333333333333,150.07918412983418L91.83333333333333,150.27742432057858L91.83333333333333,150.38097015023232L91.83333333333333,150.18626949191093L94.25,151.1363174468279L94.25,150.87125869095325L94.25,150.9947176873684L94.25,151.05932338535786L94.25,151.19251477718353L94.25,150.92922842502594L94.25,150.90046378970146L94.25,150.87347155809402L94.25,150.92170625925064L94.25,150.94338655471802L94.25,151.11906024813652L94.25,151.2305687069893L94.25,151.29296153783798L94.25,151.36774536967278L96.66666666666666,151.28189983963966L96.66666666666666,151.3420798033476L96.66666666666666,151.57262152433395L96.66666666666666,151.7713048160076L96.66666666666666,151.82838834822178L99.08333333333333,152.4558535516262L99.08333333333333,152.28327628970146L99.08333333333333,152.1509710997343L99.08333333333333,152.01866327226162L99.08333333333333,151.64342272281647L99.08333333333333,152.4160272181034L99.08333333333333,152.38328258693218L99.08333333333333,152.43328441679478L99.08333333333333,152.37045112252235L99.08333333333333,152.2341606616974L101.5,150.28273625671864L101.5,151.0031260550022L101.5,151.73944374918938L101.5,151.97397074103355L101.5,151.9186569750309L101.5,152.16203279793262L101.5,152.4142574518919L101.5,152.41293078660965L103.91666666666667,152.50629848241806L103.91666666666667,152.62621530890465L103.91666666666667,152.67931620776653L103.91666666666667,152.65630397200584L103.91666666666667,152.69037790596485L103.91666666666667,152.7558671683073L103.91666666666667,152.77843630313873L103.91666666666667,152.79303753376007L103.91666666666667,152.73772376775742L103.91666666666667,152.80852496623993L106.33333333333333,152.8275519311428L106.33333333333333,152.87843996286392L106.33333333333333,152.75719383358955L106.33333333333333,152.5651491433382L106.33333333333333,152.62621530890465L106.33333333333333,152.55231767892838L106.33333333333333,152.58240634202957L106.33333333333333,152.60453237593174L106.33333333333333,152.75365430116653L108.75,152.82268573343754L108.75,153.11340741813183L108.75,153.41740630567074L108.75,153.47094766795635L108.75,153.53997646272182L108.75,153.5337835997343L108.75,153.72007589042187L108.75,153.8337972164154L108.75,153.79264421761036L111.16666666666667,155.18342198431492L111.16666666666667,154.55861274898052L111.16666666666667,154.5625953823328L111.16666666666667,154.17983266711235L111.16666666666667,154.16345903277397L111.16666666666667,154.17231050133705L111.16666666666667,154.32895459234715L111.16666666666667,154.2085946649313L111.16666666666667,154.131157502532L111.16666666666667,154.09973953664303L111.16666666666667,154.16257546842098L111.16666666666667,154.02717120945454L113.58333333333333,154.30815786123276L113.58333333333333,154.2435521632433L113.58333333333333,154.309484526515L113.58333333333333,154.39134742319584L113.58333333333333,153.82406218349934L113.58333333333333,153.9453083127737L113.58333333333333,153.99088440835476L113.58333333333333,153.9860182106495L113.58333333333333,153.88468524813652L113.58333333333333,153.7762732207775L113.58333333333333,153.82494838535786L113.58333333333333,153.86964091658592L113.58333333333333,153.89265051484108L113.58333333333333,153.93513017892838L116,155.06704469025135L116,154.58737474679947L116,154.77632300555706L116,155.04315020889044L116,155.15112045407295L116,155.08872762322426L116,155.00863449275494L116,154.87013380229473L116,154.92809958010912L116,154.95066739618778L116,155.01350200921297L116,154.99668791145086L116,155.01969750970602L116,155.07545305788517L116,155.07722282409668L116,155.13961565494537L118.41666666666667,155.77327504009008L118.41666666666667,155.3046681135893L118.41666666666667,155.31042051315308L118.41666666666667,155.24846946448088L118.41666666666667,155.26086046546698L118.41666666666667,155.2772327810526L120.83333333333334,154.18514196574688L120.83333333333334,155.54937060177326L120.83333333333334,155.8387656211853L120.83333333333334,155.69849252700806L120.83333333333334,155.54273200035095L120.83333333333334,155.5192806199193L120.83333333333334,155.49892435222864L123.25,157.50920205563307L123.25,154.47940582036972L123.25,154.97500497847795L123.25,155.26793953031301L123.25,155.52370503544807L123.25,155.62990551441908L123.25,155.5546799004078L123.25,155.50910248607397L123.25,155.45025050640106L123.25,155.49981055408716L123.25,155.4719321206212L123.25,155.3927251920104L123.25,155.37945062667131L125.66666666666667,155.62680776417255L125.66666666666667,155.15333200246096L125.66666666666667,155.31307516247034L125.66666666666667,155.40467309206724L125.66666666666667,155.6591106131673L128.08333333333334,156.6547346636653L128.08333333333334,156.648540481925L128.08333333333334,156.47596453875303L128.08333333333334,156.15913550555706L128.08333333333334,156.32330308109522L128.08333333333334,156.4069344252348L128.08333333333334,156.57951036840677L128.08333333333334,156.50251498818398L128.08333333333334,156.3848097100854L128.08333333333334,156.31710758060217L128.08333333333334,156.26002536714077L130.5,156.67553271353245L130.5,156.39100521057844L130.5,156.3091423138976L130.5,156.3206471130252L130.5,156.19232191890478L130.5,156.2706452831626L130.5,156.41711255908012L130.5,156.44100704044104L130.5,156.32728439569473L130.5,156.32994036376476L130.5,156.3511801958084L132.91666666666666,157.96055310219526L132.91666666666666,157.0547545775771L132.91666666666666,156.97776051610708L132.91666666666666,156.92731558531523L132.91666666666666,156.9184654355049L132.91666666666666,156.77907722443342L132.91666666666666,156.73482779413462L132.91666666666666,156.64455784857273L132.91666666666666,156.7812900915742L132.91666666666666,156.85164687037468L135.33333333333334,157.02068196237087L135.33333333333334,156.94855541735888L135.33333333333334,156.6286273151636L135.33333333333334,156.95253805071115L135.33333333333334,157.10608439147472L135.33333333333334,157.24325973540545L135.33333333333334,157.22644563764334L135.33333333333334,157.34061006456614L135.33333333333334,157.1923730224371L135.33333333333334,157.08440277725458L135.33333333333334,157.13883034139872L135.33333333333334,157.20786045491695L135.33333333333334,157.09192494302988L135.33333333333334,156.92775736749172L135.33333333333334,156.91935031861067L135.33333333333334,156.83527455478907L137.75,156.2781674489379L137.75,156.66535457968712L137.75,156.70517959445715L137.75,157.1516631245613L137.75,157.02245304733515L137.75,156.87554267048836L137.75,156.9613868817687L137.75,156.88173685222864L137.75,156.84810733795166L137.75,156.82244309037924L137.75,156.77642257511616L137.75,156.81138007342815L137.75,156.90341978520155L137.75,156.93572263419628L140.16666666666666,157.63000508397818L140.16666666666666,157.8043494746089L140.16666666666666,157.33441456407309L140.16666666666666,157.5410631224513L140.16666666666666,157.45035007596016L140.16666666666666,157.74461261183023L140.16666666666666,157.48796222358942L140.16666666666666,157.5136277899146L140.16666666666666,157.53840715438128L140.16666666666666,157.57513441890478L140.16666666666666,157.65876708179712L140.16666666666666,157.6884152814746L140.16666666666666,157.6959374472499L142.58333333333331,157.958782017231L142.58333333333331,157.98843021690845L142.58333333333331,157.98356270045042L142.58333333333331,157.95391450077295L142.58333333333331,157.92648048698902L142.58333333333331,157.92603738605976L142.58333333333331,157.921612970531L142.58333333333331,157.9012580215931L142.58333333333331,157.9092219695449L142.58333333333331,157.91674545407295L142.58333333333331,157.8809030726552L142.58333333333331,157.9034695699811L142.58333333333331,157.93311776965857L142.58333333333331,157.93311776965857L145,157.95922511816025L145,157.97028813511133L145,157.9525878354907L145,158.1238344758749L145,158.23091983795166L145,158.29198468476534L145,158.30083483457565L145,158.2521596699953L145,158.25348765403032L147.41666666666666,156.89589761942625L147.41666666666666,158.46544551104307L147.41666666666666,158.2503899037838L147.41666666666666,158.1645443737507L147.41666666666666,157.93311776965857L147.41666666666666,158.0579021126032L147.41666666666666,158.1017097607255L147.41666666666666,158.1163123100996L147.41666666666666,158.2282651886344L147.41666666666666,158.54332445561886L147.41666666666666,158.56456560641527L147.41666666666666,158.57872505486012L147.41666666666666,158.57960993796587L147.41666666666666,158.37606044858694L149.83333333333334,159.33938296884298L149.83333333333334,158.69598723202944L149.83333333333334,158.73714023083448L149.83333333333334,158.83714520931244L149.83333333333334,158.85484550893307L149.83333333333334,158.79864685982466L152.25,158.47429434210062L152.25,159.19645522534847L152.25,159.23539535701275L152.25,159.01547223329544L152.25,159.03140276670456L152.25,159.17300252616405L152.25,159.14822184294462L152.25,159.1464520767331L154.66666666666666,159.4438123628497L154.66666666666666,159.2128275409341L154.66666666666666,159.19866809248924L154.66666666666666,159.12344247847795L154.66666666666666,159.18893305957317L154.66666666666666,159.47965474426746L154.66666666666666,159.43009469658136L154.66666666666666,159.44425546377897L157.08333333333331,159.80135261267424L157.08333333333331,160.08764988183975L157.08333333333331,159.73851799964905L157.08333333333331,159.7690497636795L157.08333333333331,159.84117762744427L157.08333333333331,159.80046772956848L157.08333333333331,159.8115294277668L157.08333333333331,159.7748021632433L157.08333333333331,159.75666008144617L157.08333333333331,159.75312054902315L157.08333333333331,159.75090768188238L157.08333333333331,159.770819529891L157.08333333333331,159.78055456280708L157.08333333333331,159.80622012913227L159.5,159.61683008819818L159.5,159.37434046715498L159.5,158.91635213792324L159.5,159.25619208812714L159.5,159.4694779291749L159.5,159.35442730039358L159.5,159.37832310050726L159.5,159.4274400472641L159.5,159.44337058067322L159.5,159.48009784519672L159.5,159.4933724105358L159.5,159.4933724105358L159.5,159.55532214045525L161.91666666666666,158.62828510254622L161.91666666666666,159.36726008355618L161.91666666666666,159.59470537304878L161.91666666666666,159.39292564988136L161.91666666666666,159.4075268805027L161.91666666666666,159.40796998143196L161.91666666666666,159.4438123628497L161.91666666666666,159.55930477380753L161.91666666666666,159.64116767048836L161.91666666666666,159.83011461049318L161.91666666666666,159.7748021632433L161.91666666666666,159.77126263082027L161.91666666666666,159.6495747193694L164.33333333333334,158.76899997889996L164.33333333333334,158.63448060303926L164.33333333333334,159.36372055113316L164.33333333333334,159.5836423560977L164.33333333333334,159.7380748987198L164.33333333333334,159.84958467632532L164.33333333333334,160.01109760254622L164.33333333333334,159.99826481938362L164.33333333333334,160.06906469911337L164.33333333333334,160.0664100497961L164.33333333333334,160.05092261731625L166.75,160.3783728852868L166.75,160.46731484681368L166.75,160.43633998185396L166.75,159.9933973029256L166.75,160.21774484217167L166.75,160.4558100476861L166.75,160.4779347628355L166.75,160.55935455858707L169.16666666666669,160.43855284899473L169.16666666666669,160.476164996624L169.16666666666669,160.5757268741727L169.16666666666669,160.75936451554298L169.16666666666669,160.90892954170704L169.16666666666669,160.9314973577857L169.16666666666669,160.9536220729351L169.16666666666669,160.9660130739212L169.16666666666669,160.96247222274542L169.16666666666669,160.94698479026556L169.16666666666669,160.96733973920345L171.58333333333334,160.56731982529163L171.58333333333334,160.81821781396866L171.58333333333334,160.76157738268375L171.58333333333334,160.78591496497393L171.58333333333334,160.76423203200102L174,161.2620453760028L174,160.9943319708109L174,161.05760968476534L174,160.94654300808907L174,161.01955443620682L174,161.04433511942625L174,161.045220002532L174,160.98327027261257L174,161.11469189822674L176.41666666666666,160.48855467885733L176.41666666666666,160.79918953031301L176.41666666666666,161.21292711049318L176.41666666666666,160.9677828401327L176.41666666666666,160.95450695604086L176.41666666666666,160.98327027261257L176.41666666666666,161.04787465184927L176.41666666666666,161.0744251012802L176.41666666666666,161.04787465184927L176.41666666666666,161.10097555071115L176.41666666666666,161.12708289921284L176.41666666666666,161.0876996666193L178.83333333333334,161.97623967379332L178.83333333333334,161.504534997046L178.83333333333334,161.65941064059734L178.83333333333334,161.64126724004745L178.83333333333334,161.6040968745947L178.83333333333334,161.6328601911664L178.83333333333334,161.58993742614985L178.83333333333334,161.57268022745848L178.83333333333334,161.63728460669518L178.83333333333334,161.59215029329062L178.83333333333334,161.67976558953524L181.25,161.7673795670271L181.25,161.90809444338083L181.25,161.76959243416786L181.25,161.75056546926498L181.25,161.74171531945467L181.25,161.8386225476861L181.25,161.69259705394506L183.66666666666666,161.45453184843063L183.66666666666666,161.53904939442873L183.66666666666666,161.3779795691371L183.66666666666666,161.4182476848364L183.66666666666666,161.47311703115702L183.66666666666666,161.40806955099106L183.66666666666666,161.45718781650066L183.66666666666666,161.51028739660978L183.66666666666666,161.5138269290328L183.66666666666666,161.53462497889996L183.66666666666666,161.44435503333807L183.66666666666666,161.43373511731625L183.66666666666666,161.43417689949274L183.66666666666666,161.44656790047884L186.08333333333334,162.88557773083448L186.08333333333334,162.29483979195356L186.08333333333334,162.13288508355618L186.08333333333334,162.070050470531L186.08333333333334,162.43953730165958L186.08333333333334,162.00455988943577L186.08333333333334,162.00411810725927L186.08333333333334,162.01960553973913L186.08333333333334,161.9873026907444L186.08333333333334,162.0019052401185L188.5,162.03199522197247L188.5,161.63507305830717L188.5,161.46515308320522L188.5,161.4474527835846L188.5,161.54967062920332L188.5,161.70012053847313L188.5,161.8549948632717L188.5,161.91960056126118L190.91666666666666,162.74486285448074L190.91666666666666,162.58644767850637L190.91666666666666,162.4961777329445L190.91666666666666,162.44750256836414L190.91666666666666,162.40148205310106L190.91666666666666,162.5346747636795L190.91666666666666,162.50901051610708L190.91666666666666,162.41298685222864L190.91666666666666,162.42537785321474L190.91666666666666,162.47272503376007L190.91666666666666,162.4426350519061L193.33333333333331,162.58777434378862L193.33333333333331,162.4187405705452L193.33333333333331,162.4483874514699L193.33333333333331,162.4045798033476L193.33333333333331,162.3125400915742L193.33333333333331,162.38997725397348L193.33333333333331,162.39661453664303L195.75,162.33245193958282L195.75,162.28731762617826L195.75,162.17890559881926L195.75,162.41962545365095L195.75,162.48246006667614L195.75,162.48113208264112L195.75,162.51299314945936L195.75,162.4683006182313L195.75,162.53865739703178L195.75,162.52493973076344L195.75,162.48422983288765L198.16666666666666,162.11518478393555L198.16666666666666,162.6829131245613L198.16666666666666,163.02673438936472L198.16666666666666,163.09089698642492L198.16666666666666,163.02363795787096L198.16666666666666,163.11567766964436L198.16666666666666,163.08691435307264L198.16666666666666,163.0015119239688L198.16666666666666,163.00328300893307L198.16666666666666,162.94708435982466L200.58333333333334,163.25550766289234L200.58333333333334,162.73778247088194L200.58333333333334,162.8727449476719L200.58333333333334,162.99443285912275L200.58333333333334,162.99177689105272L200.58333333333334,162.9661126434803L200.58333333333334,163.03337299078703L200.58333333333334,163.1280673518777L200.58333333333334,162.94133196026087L200.58333333333334,162.98160007596016L203,162.7877856194973L203,162.8948696628213L203,163.1776273995638L203,163.243117980659L203,163.27055199444294L203,163.2948895767331L203,163.29090694338083L203,163.32320979237556L203,163.315244525671L203,163.39622253924608L203,163.15815733373165L205.41666666666669,163.2161244302988L205.41666666666669,163.1586004346609L205.41666666666669,163.21302799880505L205.41666666666669,163.25949029624462L205.41666666666669,163.22453279793262L205.41666666666669,163.14753741770983L205.41666666666669,163.10417287051678L205.41666666666669,163.13603261858225L207.83333333333334,163.02098198980093L207.83333333333334,163.43560445308685L207.83333333333334,163.4838378354907L207.83333333333334,163.3833897560835L207.83333333333334,163.48118186742067L207.83333333333334,163.52720238268375L207.83333333333334,163.52277796715498L207.83333333333334,163.55242484807968L210.25,164.5878752321005L210.25,164.23475939780474L210.25,164.33742034435272L210.25,164.2480352818966L210.25,164.29095804691315L210.25,164.26883201301098L210.25,164.22369769960642L210.25,164.10200978815556L210.25,163.96217979490757L210.25,163.9466923624277L210.25,163.95687049627304L212.66666666666666,164.1745794340968L212.66666666666666,163.19886723160744L212.66666666666666,163.78031191974878L212.66666666666666,163.95465762913227L212.66666666666666,164.02058999240398L212.66666666666666,164.01926200836897L212.66666666666666,163.9927128776908L212.66666666666666,164.01705045998096L212.66666666666666,163.89934518188238L212.66666666666666,163.88872526586056L212.66666666666666,163.89757541567087L215.08333333333334,164.59229964762926L215.08333333333334,164.5967253819108L215.08333333333334,164.28564742952585L215.08333333333334,164.15156983584166L215.08333333333334,163.95155987888575L215.08333333333334,163.9874022603035L215.08333333333334,163.97943699359894L215.08333333333334,163.97368459403515L215.08333333333334,163.9435946121812L215.08333333333334,163.99050001055002L217.5,164.60469064861536L217.5,164.12546248733997L217.5,164.24847706407309L217.5,164.44760213792324L217.5,164.4334426894784L217.5,164.39538744091988L217.5,164.41707037389278L219.91666666666666,164.55778525024652L219.91666666666666,164.484772503376L219.91666666666666,164.51530558615923L219.91666666666666,164.57415756583214L219.91666666666666,164.52105798572302L219.91666666666666,164.44450438767672L222.33333333333334,164.01926200836897L222.33333333333334,164.22502436488867L222.33333333333334,164.1086470708251L222.33333333333334,164.1723678857088L222.33333333333334,164.29715222865343L222.33333333333334,164.3582170754671L222.33333333333334,164.48167475312948L222.33333333333334,164.34228786081076L222.33333333333334,164.41839703917503L222.33333333333334,164.38875015825033L222.33333333333334,164.37591737508774L222.33333333333334,164.41043309122324L224.75,165.87997468560934L224.75,165.77333242446184L224.75,165.34676206111908L224.75,164.9604598134756L224.75,164.67239277809858L224.75,164.75248458981514L224.75,164.70779205858707L224.75,164.74230777472258L224.75,164.76310450583696L224.75,164.77593728899956L224.75,164.80779703706503L227.16666666666666,165.5883681178093L227.16666666666666,165.07728020846844L227.16666666666666,165.04807510972023L227.16666666666666,164.91930813342333L227.16666666666666,164.93435246497393L227.16666666666666,164.91001488268375L227.16666666666666,164.85735708475113L229.58333333333331,164.1139576882124L229.58333333333331,164.68079982697964L229.58333333333331,164.95028299838305L229.58333333333331,164.96886686235666L229.58333333333331,164.92683029919863L229.58333333333331,164.94275951385498L229.58333333333331,164.90470558404922L229.58333333333331,164.89010303467512L229.58333333333331,164.84363941848278L232,165.1148923560977L232,164.65602046251297L232,164.73434250801802L232,164.9511678814888L232,164.97992987930775L232,164.9387768805027L232,165.01134784519672L232,165.0082500949502L232,164.97417747974396L232,164.98922313004732L234.41666666666666,164.53521743416786L234.41666666666666,164.6192918792367L234.41666666666666,164.80160285532475L234.41666666666666,164.839215002954L234.41666666666666,164.98214274644852L234.41666666666666,164.97992987930775L234.41666666666666,164.90691713243723L234.41666666666666,164.95736206322908L234.41666666666666,164.9737343788147L234.41666666666666,164.99851506203413L234.41666666666666,164.98479739576578L234.41666666666666,165.01046296209097L236.83333333333334,165.59810315072536L236.83333333333334,165.61137771606445L236.83333333333334,165.54588713496923L236.83333333333334,165.41535039246082L236.83333333333334,165.20781695097685L236.83333333333334,165.1865771189332L236.83333333333334,165.1777269691229L236.83333333333334,165.2157822176814L236.83333333333334,165.19542726874352L236.83333333333334,165.20250765234232L236.83333333333334,165.21356935054064L236.83333333333334,165.21002981811762L236.83333333333334,165.1405579224229L239.25,164.68079982697964L239.25,164.80912502110004L239.25,164.98966491222382L239.25,165.13967303931713L239.25,165.1790549531579L239.25,165.228615000844L239.25,165.20914493501186L239.25,165.21622531861067L241.66666666666669,165.83484037220478L241.66666666666669,165.8950203359127L241.66666666666669,165.70120456069708L241.66666666666669,165.59146454930305L241.66666666666669,165.56580030173063L241.66666666666669,165.4688930734992L244.08333333333334,165.5777468830347L244.08333333333334,165.68616022914648L244.08333333333334,165.7759870737791L244.08333333333334,165.71801997721195L244.08333333333334,165.59810315072536L244.08333333333334,165.5905796661973L246.5,165.89900296926498L246.5,165.8366101384163L246.5,165.6476618796587L246.5,165.5591630190611L246.5,165.52730195224285L246.5,165.54146271944046L246.5,165.58527036756277L246.5,165.5573919340968L246.5,165.687929995358L246.5,165.6804078295827L246.5,165.69014286249876L248.91666666666666,166.20521274581552L248.91666666666666,166.13485530763865L248.91666666666666,166.3910625949502L248.91666666666666,166.22335482761264L248.91666666666666,165.99015779793262L248.91666666666666,165.95298743247986L248.91666666666666,165.9397122077644L248.91666666666666,165.93882732465863L248.91666666666666,165.96582021564245L251.33333333333334,165.85519532114267L251.33333333333334,165.81005968898535L251.33333333333334,165.78439544141293L251.33333333333334,165.91094955056906L251.33333333333334,165.83705192059278L251.33333333333334,165.82156448811293L251.33333333333334,165.89634700119495L251.33333333333334,165.85563710331917L253.75,166.2737997584045L253.75,166.45434030890465L253.75,166.2476924099028L253.75,166.1981323622167L253.75,166.0698078274727L253.75,166.04325737804174L253.75,166.09281742572784L253.75,166.10918974131346L253.75,166.09812738373876L256.1666666666667,166.79727734997869L256.1666666666667,166.7273623533547L256.1666666666667,166.66187243163586L256.1666666666667,166.6441727913916L256.1666666666667,166.63001268357038L256.1666666666667,166.53177747130394L256.1666666666667,166.5543452873826L256.1666666666667,166.54283982887864L256.1666666666667,166.52558263018727L256.1666666666667,166.51673248037696L258.58333333333337,165.7450122088194L258.58333333333337,165.66270752996206L258.58333333333337,165.59412051737309L258.58333333333337,165.63704196363688L258.58333333333337,165.64987474679947L258.58333333333337,165.71226757764816L258.58333333333337,165.7259852439165L258.58333333333337,165.83572525531054L258.58333333333337,165.88174445182085L258.58333333333337,165.9485623575747L261,166.0476824529469L261,166.24548020213842L261,166.27822483330965L261,166.20255743712187L261,166.26893224194646L261,166.2476924099028L261,166.19016775488853L263.4166666666667,166.87692737951875L263.4166666666667,166.53487522155046L263.4166666666667,166.21185002848506L263.4166666666667,166.22822234407067L263.4166666666667,166.2406126856804L263.4166666666667,166.21052270382643L263.4166666666667,166.21229247003794L263.4166666666667,166.25255992636085L263.4166666666667,166.31982027366757L263.4166666666667,166.32822732254863L263.4166666666667,166.3246877901256L265.8333333333333,166.58310728520155L265.8333333333333,166.5786822102964L265.8333333333333,166.57337225228548L265.8333333333333,166.37159252911806L265.8333333333333,166.3839822113514L265.8333333333333,166.3065450489521L265.8333333333333,166.29326982423663L265.8333333333333,166.31273989006877L265.8333333333333,166.38088512048125L265.8333333333333,166.34813982993364L265.8333333333333,166.3030048571527L265.8333333333333,166.2941547073424L265.8333333333333,166.29061517491937" style="fill: none;" fill="none"></path></g></g></g></g></g></g><g transform="translate(40, 177)" clip-path="url(#clip_1)"><clipPath id="clip_1"><rect width="290" height="23"></rect></clipPath><g><g><line x1="0" y1="0" x2="0" y2="5" style="visibility: inherit;" fill="rgb(0, 0, 0)" stroke="rgb(204, 204, 204)" stroke-width="1px"></line><line x1="24.166666666666664" y1="0" x2="24.166666666666664" y2="5" style="visibility: inherit;" fill="rgb(0, 0, 0)" stroke="rgb(204, 204, 204)" stroke-width="1px"></line><line x1="48.33333333333333" y1="0" x2="48.33333333333333" y2="5" style="visibility: inherit;" fill="rgb(0, 0, 0)" stroke="rgb(204, 204, 204)" stroke-width="1px"></line><line x1="72.5" y1="0" x2="72.5" y2="5" style="visibility: inherit;" fill="rgb(0, 0, 0)" stroke="rgb(204, 204, 204)" stroke-width="1px"></line><line x1="96.66666666666666" y1="0" x2="96.66666666666666" y2="5" style="visibility: inherit;" fill="rgb(0, 0, 0)" stroke="rgb(204, 204, 204)" stroke-width="1px"></line><line x1="120.83333333333334" y1="0" x2="120.83333333333334" y2="5" style="visibility: inherit;" fill="rgb(0, 0, 0)" stroke="rgb(204, 204, 204)" stroke-width="1px"></line><line x1="145" y1="0" x2="145" y2="5" style="visibility: inherit;" fill="rgb(0, 0, 0)" stroke="rgb(204, 204, 204)" stroke-width="1px"></line><line x1="169.16666666666669" y1="0" x2="169.16666666666669" y2="5" style="visibility: inherit;" fill="rgb(0, 0, 0)" stroke="rgb(204, 204, 204)" stroke-width="1px"></line><line x1="193.33333333333331" y1="0" x2="193.33333333333331" y2="5" style="visibility: inherit;" fill="rgb(0, 0, 0)" stroke="rgb(204, 204, 204)" stroke-width="1px"></line><line x1="217.5" y1="0" x2="217.5" y2="5" style="visibility: inherit;" fill="rgb(0, 0, 0)" stroke="rgb(204, 204, 204)" stroke-width="1px"></line><line x1="241.66666666666669" y1="0" x2="241.66666666666669" y2="5" style="visibility: inherit;" fill="rgb(0, 0, 0)" stroke="rgb(204, 204, 204)" stroke-width="1px"></line><line x1="265.8333333333333" y1="0" x2="265.8333333333333" y2="5" style="visibility: inherit;" fill="rgb(0, 0, 0)" stroke="rgb(204, 204, 204)" stroke-width="1px"></line><line x1="290" y1="0" x2="290" y2="5" style="visibility: inherit;" fill="rgb(0, 0, 0)" stroke="rgb(204, 204, 204)" stroke-width="1px"></line></g><g transform="translate(0, 8)"><text x="0" y="0" dx="0em" dy="0.95em" style="text-anchor: middle; visibility: hidden; font-family: Roboto, sans-serif; font-size: 12px; font-weight: 200;" fill="rgb(33, 33, 33)" stroke="none" stroke-width="1px">-10</text><text x="24.166666666666664" y="0" dx="0em" dy="0.95em" style="text-anchor: middle; visibility: inherit; font-family: Roboto, sans-serif; font-size: 12px; font-weight: 200;" fill="rgb(33, 33, 33)" stroke="none" stroke-width="1px">0</text><text x="48.33333333333333" y="0" dx="0em" dy="0.95em" style="text-anchor: middle; visibility: inherit; font-family: Roboto, sans-serif; font-size: 12px; font-weight: 200;" fill="rgb(33, 33, 33)" stroke="none" stroke-width="1px">10</text><text x="72.5" y="0" dx="0em" dy="0.95em" style="text-anchor: middle; visibility: inherit; font-family: Roboto, sans-serif; font-size: 12px; font-weight: 200;" fill="rgb(33, 33, 33)" stroke="none" stroke-width="1px">20</text><text x="96.66666666666666" y="0" dx="0em" dy="0.95em" style="text-anchor: middle; visibility: inherit; font-family: Roboto, sans-serif; font-size: 12px; font-weight: 200;" fill="rgb(33, 33, 33)" stroke="none" stroke-width="1px">30</text><text x="120.83333333333334" y="0" dx="0em" dy="0.95em" style="text-anchor: middle; visibility: inherit; font-family: Roboto, sans-serif; font-size: 12px; font-weight: 200;" fill="rgb(33, 33, 33)" stroke="none" stroke-width="1px">40</text><text x="145" y="0" dx="0em" dy="0.95em" style="text-anchor: middle; visibility: inherit; font-family: Roboto, sans-serif; font-size: 12px; font-weight: 200;" fill="rgb(33, 33, 33)" stroke="none" stroke-width="1px">50</text><text x="169.16666666666669" y="0" dx="0em" dy="0.95em" style="text-anchor: middle; visibility: inherit; font-family: Roboto, sans-serif; font-size: 12px; font-weight: 200;" fill="rgb(33, 33, 33)" stroke="none" stroke-width="1px">60</text><text x="193.33333333333331" y="0" dx="0em" dy="0.95em" style="text-anchor: middle; visibility: inherit; font-family: Roboto, sans-serif; font-size: 12px; font-weight: 200;" fill="rgb(33, 33, 33)" stroke="none" stroke-width="1px">70</text><text x="217.5" y="0" dx="0em" dy="0.95em" style="text-anchor: middle; visibility: inherit; font-family: Roboto, sans-serif; font-size: 12px; font-weight: 200;" fill="rgb(33, 33, 33)" stroke="none" stroke-width="1px">80</text><text x="241.66666666666669" y="0" dx="0em" dy="0.95em" style="text-anchor: middle; visibility: inherit; font-family: Roboto, sans-serif; font-size: 12px; font-weight: 200;" fill="rgb(33, 33, 33)" stroke="none" stroke-width="1px">90</text><text x="265.8333333333333" y="0" dx="0em" dy="0.95em" style="text-anchor: middle; visibility: inherit; font-family: Roboto, sans-serif; font-size: 12px; font-weight: 200;" fill="rgb(33, 33, 33)" stroke="none" stroke-width="1px">100</text><text x="290" y="0" dx="0em" dy="0.95em" style="text-anchor: middle; visibility: hidden; font-family: Roboto, sans-serif; font-size: 12px; font-weight: 200;" fill="rgb(33, 33, 33)" stroke="none" stroke-width="1px">110</text></g><line x1="0" y1="0" x2="290" y2="0" fill="rgb(0, 0, 0)" stroke="rgb(204, 204, 204)" stroke-width="1px"></line></g></g></g></g></svg>