<svg viewBox="0 0 330 200" xmlns="http://www.w3.org/2000/svg"><g><g><g><g><g><line x1="40" y1="177" x2="35" y2="177" style="visibility: inherit;" fill="rgb(0, 0, 0)" stroke="rgb(204, 204, 204)" stroke-width="1px"></line><line x1="40" y1="159.3" x2="35" y2="159.3" style="visibility: inherit;" fill="rgb(0, 0, 0)" stroke="rgb(204, 204, 204)" stroke-width="1px"></line><line x1="40" y1="141.6" x2="35" y2="141.6" style="visibility: inherit;" fill="rgb(0, 0, 0)" stroke="rgb(204, 204, 204)" stroke-width="1px"></line><line x1="40" y1="123.89999999999999" x2="35" y2="123.89999999999999" style="visibility: inherit;" fill="rgb(0, 0, 0)" stroke="rgb(204, 204, 204)" stroke-width="1px"></line><line x1="40" y1="106.19999999999997" x2="35" y2="106.19999999999997" style="visibility: inherit;" fill="rgb(0, 0, 0)" stroke="rgb(204, 204, 204)" stroke-width="1px"></line><line x1="40" y1="88.49999999999999" x2="35" y2="88.49999999999999" style="visibility: inherit;" fill="rgb(0, 0, 0)" stroke="rgb(204, 204, 204)" stroke-width="1px"></line><line x1="40" y1="70.79999999999998" x2="35" y2="70.79999999999998" style="visibility: inherit;" fill="rgb(0, 0, 0)" stroke="rgb(204, 204, 204)" stroke-width="1px"></line><line x1="40" y1="53.099999999999966" x2="35" y2="53.099999999999966" style="visibility: inherit;" fill="rgb(0, 0, 0)" stroke="rgb(204, 204, 204)" stroke-width="1px"></line><line x1="40" y1="35.39999999999999" x2="35" y2="35.39999999999999" style="visibility: inherit;" fill="rgb(0, 0, 0)" stroke="rgb(204, 204, 204)" stroke-width="1px"></line><line x1="40" y1="17.699999999999978" x2="35" y2="17.699999999999978" style="visibility: inherit;" fill="rgb(0, 0, 0)" stroke="rgb(204, 204, 204)" stroke-width="1px"></line><line x1="40" y1="0" x2="35" y2="0" style="visibility: inherit;" fill="rgb(0, 0, 0)" stroke="rgb(204, 204, 204)" stroke-width="1px"></line></g><g transform="translate(30, 0)"><text x="0" y="177" dx="0em" dy="0.3em" style="text-anchor: end; visibility: hidden; font-family: Roboto, sans-serif; font-size: 12px; font-weight: 200;" fill="rgb(33, 33, 33)" stroke="none" stroke-width="1px">0.8</text><text x="0" y="159.3" dx="0em" dy="0.3em" style="text-anchor: end; visibility: inherit; font-family: Roboto, sans-serif; font-size: 12px; font-weight: 200;" fill="rgb(33, 33, 33)" stroke="none" stroke-width="1px">1</text><text x="0" y="141.6" dx="0em" dy="0.3em" style="text-anchor: end; visibility: hidden; font-family: Roboto, sans-serif; font-size: 12px; font-weight: 200;" fill="rgb(33, 33, 33)" stroke="none" stroke-width="1px">1.2</text><text x="0" y="123.89999999999999" dx="0em" dy="0.3em" style="text-anchor: end; visibility: inherit; font-family: Roboto, sans-serif; font-size: 12px; font-weight: 200;" fill="rgb(33, 33, 33)" stroke="none" stroke-width="1px">1.4</text><text x="0" y="106.19999999999997" dx="0em" dy="0.3em" style="text-anchor: end; visibility: hidden; font-family: Roboto, sans-serif; font-size: 12px; font-weight: 200;" fill="rgb(33, 33, 33)" stroke="none" stroke-width="1px">1.6</text><text x="0" y="88.49999999999999" dx="0em" dy="0.3em" style="text-anchor: end; visibility: inherit; font-family: Roboto, sans-serif; font-size: 12px; font-weight: 200;" fill="rgb(33, 33, 33)" stroke="none" stroke-width="1px">1.8</text><text x="0" y="70.79999999999998" dx="0em" dy="0.3em" style="text-anchor: end; visibility: hidden; font-family: Roboto, sans-serif; font-size: 12px; font-weight: 200;" fill="rgb(33, 33, 33)" stroke="none" stroke-width="1px">2</text><text x="0" y="53.099999999999966" dx="0em" dy="0.3em" style="text-anchor: end; visibility: inherit; font-family: Roboto, sans-serif; font-size: 12px; font-weight: 200;" fill="rgb(33, 33, 33)" stroke="none" stroke-width="1px">2.2</text><text x="0" y="35.39999999999999" dx="0em" dy="0.3em" style="text-anchor: end; visibility: hidden; font-family: Roboto, sans-serif; font-size: 12px; font-weight: 200;" fill="rgb(33, 33, 33)" stroke="none" stroke-width="1px">2.4</text><text x="0" y="17.699999999999978" dx="0em" dy="0.3em" style="text-anchor: end; visibility: inherit; font-family: Roboto, sans-serif; font-size: 12px; font-weight: 200;" fill="rgb(33, 33, 33)" stroke="none" stroke-width="1px">2.6</text><text x="0" y="0" dx="0em" dy="0.3em" style="text-anchor: end; visibility: hidden; font-family: Roboto, sans-serif; font-size: 12px; font-weight: 200;" fill="rgb(33, 33, 33)" stroke="none" stroke-width="1px">2.8</text></g><line x1="40" y1="0" x2="40" y2="177" fill="rgb(0, 0, 0)" stroke="rgb(204, 204, 204)" stroke-width="1px"></line></g></g><g transform="translate(40, 0)" clip-path="url(#clip_0)"><clipPath id="clip_0"><rect width="290" height="177"></rect></clipPath><g><g><g><line x1="0" y1="0" x2="0" y2="177" fill="rgb(0, 0, 0)" stroke="rgb(66, 66, 66)" stroke-width="1px" opacity="0.25"></line><line x1="24.166666666666664" y1="0" x2="24.166666666666664" y2="177" fill="rgb(0, 0, 0)" stroke="rgb(66, 66, 66)" stroke-width="1px" opacity="0.25"></line><line x1="48.33333333333333" y1="0" x2="48.33333333333333" y2="177" fill="rgb(0, 0, 0)" stroke="rgb(66, 66, 66)" stroke-width="1px" opacity="0.25"></line><line x1="72.5" y1="0" x2="72.5" y2="177" fill="rgb(0, 0, 0)" stroke="rgb(66, 66, 66)" stroke-width="1px" opacity="0.25"></line><line x1="96.66666666666666" y1="0" x2="96.66666666666666" y2="177" fill="rgb(0, 0, 0)" stroke="rgb(66, 66, 66)" stroke-width="1px" opacity="0.25"></line><line x1="120.83333333333334" y1="0" x2="120.83333333333334" y2="177" fill="rgb(0, 0, 0)" stroke="rgb(66, 66, 66)" stroke-width="1px" opacity="0.25"></line><line x1="145" y1="0" x2="145" y2="177" fill="rgb(0, 0, 0)" stroke="rgb(66, 66, 66)" stroke-width="1px" opacity="0.25"></line><line x1="169.16666666666669" y1="0" x2="169.16666666666669" y2="177" fill="rgb(0, 0, 0)" stroke="rgb(66, 66, 66)" stroke-width="1px" opacity="0.25"></line><line x1="193.33333333333331" y1="0" x2="193.33333333333331" y2="177" fill="rgb(0, 0, 0)" stroke="rgb(66, 66, 66)" stroke-width="1px" opacity="0.25"></line><line x1="217.5" y1="0" x2="217.5" y2="177" fill="rgb(0, 0, 0)" stroke="rgb(66, 66, 66)" stroke-width="1px" opacity="0.25"></line><line x1="241.66666666666669" y1="0" x2="241.66666666666669" y2="177" fill="rgb(0, 0, 0)" stroke="rgb(66, 66, 66)" stroke-width="1px" opacity="0.25"></line><line x1="265.8333333333333" y1="0" x2="265.8333333333333" y2="177" fill="rgb(0, 0, 0)" stroke="rgb(66, 66, 66)" stroke-width="1px" opacity="0.25"></line><line x1="290" y1="0" x2="290" y2="177" fill="rgb(0, 0, 0)" stroke="rgb(66, 66, 66)" stroke-width="1px" opacity="0.25"></line></g><g><line x1="0" y1="177" x2="290" y2="177" fill="rgb(0, 0, 0)" stroke="rgb(66, 66, 66)" stroke-width="1px" opacity="0.25"></line><line x1="0" y1="159.3" x2="290" y2="159.3" fill="rgb(0, 0, 0)" stroke="rgb(66, 66, 66)" stroke-width="1px" opacity="0.25"></line><line x1="0" y1="141.6" x2="290" y2="141.6" fill="rgb(0, 0, 0)" stroke="rgb(66, 66, 66)" stroke-width="1px" opacity="0.25"></line><line x1="0" y1="123.89999999999999" x2="290" y2="123.89999999999999" fill="rgb(0, 0, 0)" stroke="rgb(66, 66, 66)" stroke-width="1px" opacity="0.25"></line><line x1="0" y1="106.19999999999997" x2="290" y2="106.19999999999997" fill="rgb(0, 0, 0)" stroke="rgb(66, 66, 66)" stroke-width="1px" opacity="0.25"></line><line x1="0" y1="88.49999999999999" x2="290" y2="88.49999999999999" fill="rgb(0, 0, 0)" stroke="rgb(66, 66, 66)" stroke-width="1px" opacity="0.25"></line><line x1="0" y1="70.79999999999998" x2="290" y2="70.79999999999998" fill="rgb(0, 0, 0)" stroke="rgb(66, 66, 66)" stroke-width="1px" opacity="0.25"></line><line x1="0" y1="53.099999999999966" x2="290" y2="53.099999999999966" fill="rgb(0, 0, 0)" stroke="rgb(66, 66, 66)" stroke-width="1px" opacity="0.25"></line><line x1="0" y1="35.39999999999999" x2="290" y2="35.39999999999999" fill="rgb(0, 0, 0)" stroke="rgb(66, 66, 66)" stroke-width="1px" opacity="0.25"></line><line x1="0" y1="17.699999999999978" x2="290" y2="17.699999999999978" fill="rgb(0, 0, 0)" stroke="rgb(66, 66, 66)" stroke-width="1px" opacity="0.25"></line><line x1="0" y1="0" x2="290" y2="0" fill="rgb(0, 0, 0)" stroke="rgb(66, 66, 66)" stroke-width="1px" opacity="0.25"></line></g></g></g><g><g><line x1="0" y1="247.8" x2="290" y2="247.8" fill="rgb(0, 0, 0)" stroke="rgb(153, 153, 153)" stroke-width="1.5px"></line></g></g><g><g><line x1="24.166666666666664" y1="0" x2="24.166666666666664" y2="177" fill="rgb(0, 0, 0)" stroke="rgb(153, 153, 153)" stroke-width="1.5px"></line></g></g><g><g><g><g><g><path stroke="rgb(204, 51, 17)" stroke-width="2px" d="M26.583333333333332,15.086599159240707L26.583333333333332,20.387525404416483L26.583333333333332,26.32276476551627L26.583333333333332,36.136040201411724L26.583333333333332,42.55298297979523L26.583333333333332,47.332057946985685L26.583333333333332,50.91862206917809L29,60.974056769386195L29,69.32616436273389L29,76.18321334559488L29,82.01558083077002L29,86.97517669397651L29,91.18687917939985L29,94.79156871045235L29,97.96098419832676L29,100.78545474097899L31.416666666666668,103.60360189052967L31.416666666666668,105.95869944572915L31.416666666666668,108.0097573059842L31.416666666666668,109.81303982612845L31.416666666666668,111.40534795681377L31.416666666666668,112.87160700447458L31.416666666666668,114.21240627139191L31.416666666666668,115.42922711171909L33.833333333333336,116.99617214416652L33.833333333333336,118.14393563474508L33.833333333333336,119.13429335023946L33.833333333333336,120.047771735145L33.833333333333336,120.88055135600659L33.833333333333336,121.65148872603586L33.833333333333336,122.33793302947431L33.833333333333336,122.96160425896647L36.25,123.60462362207512L36.25,124.2801781707717L36.25,124.8972684303438L36.25,125.48419668765716L36.25,125.9728588344136L36.25,126.42143435924193L36.25,126.83899729849438L36.25,127.19051940064013L36.25,127.51914549998827L38.666666666666664,127.82110931650229L38.666666666666664,128.14660585301297L38.666666666666664,128.4337837377855L38.666666666666664,128.65514586965494L38.666666666666664,128.86849375010794L38.666666666666664,129.0838908382519L38.666666666666664,129.2681727206751L38.666666666666664,129.41894287899598L38.666666666666664,129.56615820376064L41.083333333333336,129.66070963950676L41.083333333333336,129.73259532881457L41.083333333333336,129.8093198901404L41.083333333333336,129.91288626032323L41.083333333333336,130.00349653165543L41.083333333333336,130.1028554571846L41.083333333333336,130.19474973554378L41.083333333333336,130.28611182998546L43.5,130.49724844221637L43.5,130.68523113586465L43.5,130.82878045531172L43.5,130.93122479301633L43.5,131.02802227652498L43.5,131.11899517652535L43.5,131.20874521497595L45.916666666666664,131.28544040520734L45.916666666666664,131.3224684844825L45.916666666666664,131.41595095165204L45.916666666666664,131.50857412043706L45.916666666666664,131.59092662672467L45.916666666666664,131.68252088673324L48.33333333333333,131.89018720985587L48.33333333333333,132.09193911082315L48.33333333333333,132.2929956392246L48.33333333333333,132.44430270615268L48.33333333333333,132.56396585871155L48.33333333333333,132.6818715796391L48.33333333333333,132.79095204368124L48.33333333333333,132.89145306440426L48.33333333333333,132.98032165841272L50.75,132.717006910022L50.75,132.87365413470613L50.75,133.02003837628445L50.75,133.13274935657319L50.75,133.22909639278723L50.75,133.30679772421587L50.75,133.37998408449207L53.166666666666664,133.3019191538127L53.166666666666664,133.2948258095374L53.166666666666664,133.27964734548488L53.166666666666664,133.28722005813825L53.166666666666664,133.30784647572435L53.166666666666664,133.30711765595697L53.166666666666664,133.31936259796504L53.166666666666664,133.33169896778995L53.166666666666664,133.33048276848618L53.166666666666664,133.35169630687415L55.583333333333336,133.40804739926088L55.583333333333336,133.4681346640353L55.583333333333336,133.5249139237737L55.583333333333336,133.57748602892482L55.583333333333336,133.61022830210266L55.583333333333336,133.63922629833226L55.583333333333336,133.6732070592759L55.583333333333336,133.70298312617686L55.583333333333336,133.7248129903511L55.583333333333336,133.74700824477074L55.583333333333336,133.76977305876906L55.583333333333336,133.80116237575876L55.583333333333336,133.83554458947512L58,134.08064752768132L58,134.20323372301402L58,134.35990899922373L58,134.51465076011135L58,134.66378627321373L58,134.80728826391436L58,134.92148756098257L58,135.03105804236162L58,135.13818483259465L60.41666666666667,135.139226560558L60.41666666666667,135.33739309550046L60.41666666666667,135.44616401279433L60.41666666666667,135.52518260011894L60.41666666666667,135.54846320923124L60.41666666666667,135.57571688629997L60.41666666666667,135.61742579746368L60.41666666666667,135.65686540553847L60.41666666666667,135.70221507865125L60.41666666666667,135.75322207202314L60.41666666666667,135.8090273822181L60.41666666666667,135.8428075587865L60.41666666666667,135.8822486327372L60.41666666666667,135.9143532617812L62.833333333333336,135.8853599235835L62.833333333333336,135.88271217058735L62.833333333333336,135.8595128816413L62.833333333333336,135.87507714191665L62.833333333333336,135.87825863986683L62.833333333333336,135.9008995100342L62.833333333333336,135.92488612665437L62.833333333333336,135.94807018315183L62.833333333333336,135.9804553638412L65.25,136.06484082295282L65.25,136.1968502041116L65.25,136.30865839651926L65.25,136.41455994126542L65.25,136.5142306796204L65.25,136.62688742074297L65.25,136.74417692961035L65.25,136.85183315195297L65.25,136.95396931928033L65.25,137.03957296453405L65.25,137.12607244103094L65.25,137.19730976847012L65.25,137.26471722481324L65.25,137.32972555641834L65.25,137.3915256724207L65.25,137.44231051389897L67.66666666666667,137.31978934940912L67.66666666666667,137.19317296857778L67.66666666666667,137.0980316620903L67.66666666666667,137.03743723271864L67.66666666666667,137.03723520398893L67.66666666666667,137.04771014094746L67.66666666666667,137.04898610002505L67.66666666666667,137.06166154983916L67.66666666666667,137.0806071738892L67.66666666666667,137.07696315325973L67.66666666666667,137.08151182429515L67.66666666666667,137.09725155673735L67.66666666666667,137.09697959048353L67.66666666666667,137.1007925527558L67.66666666666667,137.11154023974242L70.08333333333333,136.8750680879148L70.08333333333333,136.9338794996654L70.08333333333333,137.0217907147975L70.08333333333333,137.10357915960114L70.08333333333333,137.21619424386085L70.08333333333333,137.27573643678824L70.08333333333333,137.34097494382044L70.08333333333333,137.4001628011547L72.5,137.4107209285625L72.5,137.47947582252294L72.5,137.475756534312L72.5,137.50342201532175L72.5,137.62170629647042L72.5,137.74412089656215L72.5,137.86395424118638L72.5,137.99452272404355L72.5,138.12564253256485L72.5,138.25874632009752L72.5,138.3831584621077L72.5,138.49289730910095L72.5,138.5977236802861L74.91666666666667,138.6788554209053L74.91666666666667,138.72946751180586L74.91666666666667,138.7987457018467L74.91666666666667,138.8871719193882L74.91666666666667,138.96909700509434L74.91666666666667,139.03957983138704L74.91666666666667,139.13822210198933L74.91666666666667,139.2277281494814L74.91666666666667,139.2986865760951L74.91666666666667,139.36560997602783L74.91666666666667,139.42746151674564L74.91666666666667,139.46489131504453L74.91666666666667,139.49982970041978L77.33333333333333,139.56643061512938L77.33333333333333,139.62209037899223L77.33333333333333,139.62850323467876L77.33333333333333,139.6356578428686L77.33333333333333,139.6471010244906L77.33333333333333,139.66518467830883L77.33333333333333,139.68745300787253L77.33333333333333,139.7231666233027L77.33333333333333,139.75076650051628L77.33333333333333,139.7685789065001L77.33333333333333,139.74116147139168L77.33333333333333,139.72042484163023L77.33333333333333,139.6966542929104L77.33333333333333,139.6750012412874L77.33333333333333,139.66013902165355L79.75,139.7635051865678L79.75,139.8451972561055L79.75,139.95001868732493L79.75,140.03880195523436L79.75,140.0820817683221L79.75,140.13063168879063L79.75,140.17002785389855L79.75,140.20289653648223L79.75,140.22385546091724L79.75,140.23947411887772L82.16666666666667,140.28289783044627L82.16666666666667,140.34043438806574L82.16666666666667,140.37102195780366L82.16666666666667,140.39777915914152L82.16666666666667,140.41788810444632L82.16666666666667,140.44221335169908L82.16666666666667,140.44629474212246L82.16666666666667,140.44862331091312L82.16666666666667,140.44264912554038L82.16666666666667,140.4415312800161L82.16666666666667,140.46131150391756L82.16666666666667,140.4989973406269L84.58333333333334,140.74003127779338L84.58333333333334,140.88630995638138L84.58333333333334,140.96881128527718L84.58333333333334,141.06679004961578L84.58333333333334,141.1186291661141L84.58333333333334,141.16699116319415L87,141.30833808722718L87,141.46182240927013L87,141.57816197883068L87,141.69788840320413L87,141.8069379310886L87,141.8076535781531L87,141.8108554302653L87,141.8302254876438L87,141.8506183588352L89.41666666666667,141.73047100768107L89.41666666666667,141.66752879641612L89.41666666666667,141.62746913278053L89.41666666666667,141.63052067614652L89.41666666666667,141.64996895590667L89.41666666666667,141.72070441908335L89.41666666666667,141.77679602400494L89.41666666666667,141.83729610044978L89.41666666666667,141.89786865623464L91.83333333333333,142.0536033162617L91.83333333333333,142.15084091495424L91.83333333333333,142.2169760579115L91.83333333333333,142.2949379302412L91.83333333333333,142.36829379525L91.83333333333333,142.43156586007106L91.83333333333333,142.50326774477986L91.83333333333333,142.58213712021538L91.83333333333333,142.65374450971342L91.83333333333333,142.73571022319527L91.83333333333333,142.81008189391537L94.25,142.890956371534L94.25,142.9718140663667L94.25,143.0465932442895L94.25,143.1237841254587L94.25,143.19897437360896L94.25,143.2582361774235L94.25,143.31988902696608L94.25,143.3720432329242L94.25,143.4275631513501L94.25,143.48499761332403L94.25,143.546021185945L94.25,143.61085214951467L94.25,143.67456581044388L94.25,143.74106721068588L96.66666666666666,143.7147260484826L96.66666666666666,143.66288641918572L96.66666666666666,143.70820075511597L96.66666666666666,143.78005621550977L96.66666666666666,143.85584159619435L99.08333333333333,143.97173372029238L99.08333333333333,144.0478469698934L99.08333333333333,144.1157298753226L99.08333333333333,144.1444646024964L99.08333333333333,144.11494543852177L99.08333333333333,144.16628641565913L99.08333333333333,144.21970710108474L99.08333333333333,144.28231550558164L99.08333333333333,144.34285534880328L99.08333333333333,144.39001387836797L101.5,144.4681346200577L101.5,144.56257160858908L101.5,144.6626410669869L101.5,144.78885916013795L101.5,144.91429772444096L101.5,145.0007635073369L101.5,145.08126863664359L101.5,145.16137718917165L103.91666666666667,145.10189827475583L103.91666666666667,145.12075106581446L103.91666666666667,145.1519363110484L103.91666666666667,145.19328864424713L103.91666666666667,145.23606911056427L103.91666666666667,145.2940120632167L103.91666666666667,145.3680853614749L103.91666666666667,145.43823397138257L103.91666666666667,145.5050518632612L103.91666666666667,145.58321976678366L106.33333333333333,145.65716963154776L106.33333333333333,145.72277577272578L106.33333333333333,145.83174114652732L106.33333333333333,145.90826601833086L106.33333333333333,145.986097232193L106.33333333333333,146.03950495865647L106.33333333333333,146.09586229558818L106.33333333333333,146.1471008055544L106.33333333333333,146.19210439951158L108.75,146.2401681674303L108.75,146.2952979194527L108.75,146.3741327499833L108.75,146.45486685867385L108.75,146.54364456486556L108.75,146.62125721874045L108.75,146.68410372663908L108.75,146.74500269902828L108.75,146.80126366928673L111.16666666666667,146.97051391116065L111.16666666666667,147.04404082338831L111.16666666666667,147.1236707330552L111.16666666666667,147.16927321105092L111.16666666666667,147.2139670679676L111.16666666666667,147.26111677187689L111.16666666666667,147.30320976731565L111.16666666666667,147.34222487336513L111.16666666666667,147.3679168275517L111.16666666666667,147.40143993073056L111.16666666666667,147.4486856911922L111.16666666666667,147.48808209700212L113.58333333333333,147.44723068244087L113.58333333333333,147.4834256392428L113.58333333333333,147.51904942077718L113.58333333333333,147.54780320997915L113.58333333333333,147.5926866791956L113.58333333333333,147.64607908505542L113.58333333333333,147.72494458232825L113.58333333333333,147.80380512796438L113.58333333333333,147.88403247243377L113.58333333333333,147.95347850037652L113.58333333333333,148.0241427667427L113.58333333333333,148.09795514879883L113.58333333333333,148.17135163859396L113.58333333333333,148.24196345071758L116,148.40342991815126L116,148.5463358125799L116,148.6855478519703L116,148.82625091208857L116,148.95235234323513L116,149.06307726620742L116,149.1331755142546L116,149.1914501573947L116,149.24959891171292L116,149.3114772472365L116,149.3726069358893L116,149.41731695452378L116,149.46594213513015L116,149.5135075595724L116,149.55608410979772L116,149.59936398594746L118.41666666666667,149.54197905896984L118.41666666666667,149.57450317109013L118.41666666666667,149.58070980576193L118.41666666666667,149.5962525214488L118.41666666666667,149.6168148110163L118.41666666666667,149.64002197631117L120.83333333333334,149.67419286878481L120.83333333333334,149.73232025549586L120.83333333333334,149.76271707076177L120.83333333333334,149.77637247331444L120.83333333333334,149.78850426897284L120.83333333333334,149.79653372501068L120.83333333333334,149.8182328002733L123.25,149.96566768289128L123.25,149.91766823674095L123.25,149.9557014258887L123.25,149.99639056513783L123.25,150.04163848375413L123.25,150.10851927907046L123.25,150.18187916022447L123.25,150.24347337782515L123.25,150.31012986412244L123.25,150.37779011269748L123.25,150.44122651207468L123.25,150.49551766894697L123.25,150.53957157469057L125.66666666666667,150.67417066721117L125.66666666666667,150.69181317386688L125.66666666666667,150.72591937407586L125.66666666666667,150.757258404545L125.66666666666667,150.81371307196085L128.08333333333334,150.93438406662838L128.08333333333334,150.9736637584835L128.08333333333334,150.99168611277403L128.08333333333334,151.0106662632485L128.08333333333334,151.04024651542358L128.08333333333334,151.08374656728856L128.08333333333334,151.1298507765832L128.08333333333334,151.167675825381L128.08333333333334,151.2021051885821L128.08333333333334,151.2565841092864L128.08333333333334,151.3007726080834L130.5,151.46280196623914L130.5,151.5185386905327L130.5,151.59246307760262L130.5,151.69052484119578L130.5,151.7501861413496L130.5,151.82540498538123L130.5,151.88965036458237L130.5,151.95479851095288L130.5,151.98841360819947L130.5,152.0248612500491L130.5,152.06466393316444L132.91666666666666,152.22628784929708L132.91666666666666,152.35974121748666L132.91666666666666,152.45536981192896L132.91666666666666,152.53325205445634L132.91666666666666,152.61423168451964L132.91666666666666,152.67899341005688L132.91666666666666,152.75396885502886L132.91666666666666,152.8095313823992L132.91666666666666,152.86771422972248L132.91666666666666,152.91648279103595L135.33333333333334,152.98250454058186L135.33333333333334,153.07602282724068L135.33333333333334,153.17291908645683L135.33333333333334,153.26032430296704L135.33333333333334,153.34265082466527L135.33333333333334,153.4236931737177L135.33333333333334,153.46439871421907L135.33333333333334,153.47337699542385L135.33333333333334,153.48018090644962L135.33333333333334,153.49828235133114L135.33333333333334,153.5200363335268L135.33333333333334,153.54782651905305L135.33333333333334,153.57148418955012L135.33333333333334,153.58639197315253L135.33333333333334,153.60466940370486L135.33333333333334,153.6091123506322L137.75,153.5624899560839L137.75,153.56567852833865L137.75,153.5735311420965L137.75,153.63599366551836L137.75,153.6644911280869L137.75,153.68545683721953L137.75,153.69621473168607L137.75,153.71232006127198L137.75,153.72523054436712L137.75,153.73222998726462L137.75,153.72573676795437L137.75,153.7177984433981L137.75,153.716850271397L137.75,153.71515298132542L140.16666666666666,153.85155647270383L140.16666666666666,153.95246588437828L140.16666666666666,154.0652330709182L140.16666666666666,154.1440419462385L140.16666666666666,154.2121399010937L140.16666666666666,154.2941349944917L140.16666666666666,154.324727199016L140.16666666666666,154.34409907049076L140.16666666666666,154.34820917841628L140.16666666666666,154.35959216412908L140.16666666666666,154.37075995379857L140.16666666666666,154.38650246724964L140.16666666666666,154.39552821509258L142.58333333333331,154.44751179658036L142.58333333333331,154.47649720371322L142.58333333333331,154.52350340632174L142.58333333333331,154.58546080758424L142.58333333333331,154.64551512878924L142.58333333333331,154.71566511390367L142.58333333333331,154.78571472940766L142.58333333333331,154.83920779425966L142.58333333333331,154.88599978992488L142.58333333333331,154.92483218902063L142.58333333333331,154.95986458176424L142.58333333333331,154.99522529173265L142.58333333333331,155.02926053963077L142.58333333333331,155.06553182089223L145,155.0956534789971L145,155.15984583880763L145,155.18467629230975L145,155.21516810261332L145,155.24860483927512L145,155.28616644876053L145,155.33459387699787L145,155.3782546639049L145,155.42150217767806L147.41666666666666,155.37129955681587L147.41666666666666,155.45949926448694L147.41666666666666,155.54023581037134L147.41666666666666,155.61680259868277L147.41666666666666,155.66210571504183L147.41666666666666,155.6666904274396L147.41666666666666,155.66201930528715L147.41666666666666,155.6576260493352L147.41666666666666,155.64522185641985L147.41666666666666,155.6738824379697L147.41666666666666,155.69615359004757L147.41666666666666,155.71244393181408L147.41666666666666,155.72619377287253L147.41666666666666,155.7326628855509L149.83333333333334,155.80938766311223L149.83333333333334,155.80492713208082L149.83333333333334,155.84069161899222L149.83333333333334,155.88126111788523L149.83333333333334,155.91365147893455L149.83333333333334,155.9407493317285L152.25,155.78758976419263L152.25,155.7653683485738L152.25,155.74009865751302L152.25,155.713658560901L152.25,155.72889641375312L152.25,155.746824341202L152.25,155.75889947188398L152.25,155.79568193161367L154.66666666666666,155.84421000434645L154.66666666666666,155.8826565773885L154.66666666666666,155.940509274008L154.66666666666666,155.9876369993707L154.66666666666666,156.0174964096923L154.66666666666666,156.08449281051168L154.66666666666666,156.13995310162198L154.66666666666666,156.18595852166376L157.08333333333331,156.2465231335607L157.08333333333331,156.36866468535112L157.08333333333331,156.42496124177114L157.08333333333331,156.4680443410624L157.08333333333331,156.5169385520937L157.08333333333331,156.5594054192211L157.08333333333331,156.59850984289355L157.08333333333331,156.6437124047717L157.08333333333331,156.68687638902054L157.08333333333331,156.72350127736945L157.08333333333331,156.75475486137677L157.08333333333331,156.77347163316904L157.08333333333331,156.79036794701648L157.08333333333331,156.81699478734993L159.5,156.93742827518773L159.5,157.0445827284137L159.5,157.07894266255155L159.5,157.1161865196336L159.5,157.1639581298454L159.5,157.1948712767007L159.5,157.22238037981592L159.5,157.2484254075895L159.5,157.27896489363113L159.5,157.31213727909466L159.5,157.34179265888764L159.5,157.3700533623757L159.5,157.3969453407823L161.91666666666666,157.39850935497125L161.91666666666666,157.3809676760468L161.91666666666666,157.42616471830323L161.91666666666666,157.4265774067655L161.91666666666666,157.39422430213233L161.91666666666666,157.36194010948284L161.91666666666666,157.34109377956773L161.91666666666666,157.341025165037L161.91666666666666,157.35812908723938L161.91666666666666,157.38942267238335L161.91666666666666,157.41561204584715L161.91666666666666,157.4430582435197L161.91666666666666,157.47143309113412L164.33333333333334,157.34448758360918L164.33333333333334,157.29407020864204L164.33333333333334,157.3228143381521L164.33333333333334,157.35255515129097L164.33333333333334,157.38120718710812L164.33333333333334,157.41329387384187L164.33333333333334,157.4578478457496L164.33333333333334,157.49906794924212L164.33333333333334,157.55614837014417L164.33333333333334,157.6166583631789L164.33333333333334,157.66900974329687L166.75,157.75343545591392L166.75,157.83306464294373L166.75,157.91008413724893L166.75,157.96714567430965L166.75,157.9971049086625L166.75,158.02746940528908L166.75,158.06618311277808L166.75,158.11052813826194L169.16666666666669,158.18159515066228L169.16666666666669,158.25579066895563L169.16666666666669,158.33154219112754L169.16666666666669,158.4145686266409L169.16666666666669,158.4961872736322L169.16666666666669,158.57562768476424L169.16666666666669,158.65463613526381L169.16666666666669,158.73274733964146L169.16666666666669,158.80774951047067L169.16666666666669,158.8803290292923L169.16666666666669,158.9486600221236L171.58333333333334,158.9546779117969L171.58333333333334,158.96964305638153L171.58333333333334,158.97987731038464L171.58333333333334,158.99663566144295L171.58333333333334,159.01742361140637L174,159.11549473687776L174,159.16781947792106L174,159.2485914670577L174,159.30386373797984L174,159.3556201787783L174,159.4004965210352L174,159.44981063894173L174,159.4782067985053L174,159.51305979660944L176.41666666666666,159.52178825242524L176.41666666666666,159.58968500920182L176.41666666666666,159.67578097717606L176.41666666666666,159.72283593515368L176.41666666666666,159.76253796224614L176.41666666666666,159.79759971116562L176.41666666666666,159.84267903232427L176.41666666666666,159.88616798381662L176.41666666666666,159.9258453880511L176.41666666666666,159.97296404809L176.41666666666666,160.0181250384622L176.41666666666666,160.05257635659123L178.83333333333334,160.19668221989113L178.83333333333334,160.2864566324442L178.83333333333334,160.40886811597892L178.83333333333334,160.52648648187085L178.83333333333334,160.58751340186927L178.83333333333334,160.63840885601954L178.83333333333334,160.6935300141612L178.83333333333334,160.7414699076153L178.83333333333334,160.79603993282817L178.83333333333334,160.84058031396864L178.83333333333334,160.89453140545845L181.25,160.96945866452168L181.25,161.02948845099593L181.25,161.09142857469743L181.25,161.14376681232199L181.25,161.1955680749273L181.25,161.24646068417857L181.25,161.27737422390422L183.66666666666666,161.2914756771272L183.66666666666666,161.30695199455107L183.66666666666666,161.30745021006484L183.66666666666666,161.31655211414864L183.66666666666666,161.32227841315338L183.66666666666666,161.30931045485326L183.66666666666666,161.3093367941096L183.66666666666666,161.3183886790841L183.66666666666666,161.3295102163494L183.66666666666666,161.35436858297624L183.66666666666666,161.35528354866477L183.66666666666666,161.36323288591717L183.66666666666666,161.37189092612678L183.66666666666666,161.38162076123152L186.08333333333334,161.40630722696795L186.08333333333334,161.41613032333504L186.08333333333334,161.40223111616402L186.08333333333334,161.38561947595565L186.08333333333334,161.44409000097627L186.08333333333334,161.48237953730393L186.08333333333334,161.52592307309874L186.08333333333334,161.56596197556993L186.08333333333334,161.60435288615986L186.08333333333334,161.63631068800456L188.5,161.61206605899173L188.5,161.56801511609996L188.5,161.53134387996022L188.5,161.51367531163407L188.5,161.49565107162562L188.5,161.49534293263136L188.5,161.4997850505166L188.5,161.50971341572904L190.91666666666666,161.53277414501278L190.91666666666666,161.56556735066115L190.91666666666666,161.59707511301997L190.91666666666666,161.62585674359755L190.91666666666666,161.65647401951392L190.91666666666666,161.69781744733956L190.91666666666666,161.7451916370067L190.91666666666666,161.80183484659685L190.91666666666666,161.86223913203466L190.91666666666666,161.92174718640496L190.91666666666666,161.98283744761483L193.33333333333331,162.075963624355L193.33333333333331,162.1481935794502L193.33333333333331,162.2178741602681L193.33333333333331,162.25013102711767L193.33333333333331,162.27028780113113L193.33333333333331,162.30726943884224L193.33333333333331,162.3398797481282L195.75,162.42502150928698L195.75,162.5067027090583L195.75,162.55575861023505L195.75,162.60320255311638L195.75,162.6538054117033L195.75,162.70174546083268L195.75,162.75295255063406L195.75,162.79699710254383L195.75,162.82848510764325L195.75,162.86419542214446L195.75,162.89940336736154L198.16666666666666,162.840722319608L198.16666666666666,162.81258736964944L198.16666666666666,162.8191795658175L198.16666666666666,162.83123886183387L198.16666666666666,162.84937704956246L198.16666666666666,162.87421911386573L198.16666666666666,162.89410203840862L198.16666666666666,162.9295846827746L198.16666666666666,162.96585975155477L198.16666666666666,163.00297597996374L200.58333333333334,163.12116088960948L200.58333333333334,163.12453737914228L200.58333333333334,163.13544445034543L200.58333333333334,163.1533729076072L200.58333333333334,163.1731927853525L200.58333333333334,163.17865821993504L200.58333333333334,163.1926559587553L200.58333333333334,163.21467103016604L200.58333333333334,163.23102773844815L200.58333333333334,163.25351380088563L203,163.24469722191196L203,163.27627915318527L203,163.3577890421642L203,163.43703751299864L203,163.515332690352L203,163.60639533132326L203,163.69967505319426L203,163.7852376125687L203,163.86293767395733L203,163.94179722535574L203,163.99556232357585L205.41666666666669,163.97344970714386L205.41666666666669,163.98390447001427L205.41666666666669,163.9898098150465L205.41666666666669,163.9960834892188L205.41666666666669,164.0116458460703L205.41666666666669,164.02704963512858L205.41666666666669,164.03601919160542L205.41666666666669,164.05259362964773L207.83333333333334,164.0791808122744L207.83333333333334,164.10023471570335L207.83333333333334,164.12505913032598L207.83333333333334,164.15435067743888L207.83333333333334,164.20806397273432L207.83333333333334,164.26024208317773L207.83333333333334,164.30604994146077L207.83333333333334,164.3550987834299L210.25,164.46041476019582L210.25,164.5771031142666L210.25,164.6515391655092L210.25,164.73265230724795L210.25,164.81488695150716L210.25,164.89632863676349L210.25,164.9773266541164L210.25,165.04179620443193L210.25,165.0816254685669L210.25,165.1271626756421L210.25,165.17272398218907L212.66666666666666,165.14626920340586L212.66666666666666,165.1249868666353L212.66666666666666,165.2439350435596L212.66666666666666,165.34529808223127L212.66666666666666,165.38097043183333L212.66666666666666,165.41339904089315L212.66666666666666,165.45274646241035L212.66666666666666,165.4908344193363L212.66666666666666,165.4877682036023L212.66666666666666,165.48569613541835L212.66666666666666,165.4807628506759L215.08333333333334,165.53404359048827L215.08333333333334,165.59045726671727L215.08333333333334,165.63250088616377L215.08333333333334,165.66071597504575L215.08333333333334,165.6624748207088L215.08333333333334,165.66476527413806L215.08333333333334,165.66658725165354L215.08333333333334,165.67460172347103L215.08333333333334,165.6686307357081L215.08333333333334,165.6649493502589L217.5,165.7688467755577L217.5,165.78347435702165L217.5,165.79838837279695L217.5,165.81136189777777L217.5,165.82134147659113L217.5,165.83900836613188L217.5,165.84539328188788L219.91666666666666,165.91101936551468L219.91666666666666,165.96871791521616L219.91666666666666,166.02242536761275L219.91666666666666,166.07919984695332L219.91666666666666,166.127161916049L219.91666666666666,166.15325581585773L222.33333333333334,166.2711028095845L222.33333333333334,166.26420195936416L222.33333333333334,166.26525720136655L222.33333333333334,166.27665831057655L222.33333333333334,166.26872746872908L222.33333333333334,166.25747613242868L222.33333333333334,166.25050439948862L222.33333333333334,166.2253403805621L222.33333333333334,166.2132492686094L222.33333333333334,166.20158573563316L222.33333333333334,166.19209843264667L222.33333333333334,166.18737777131116L224.75,166.28719039802203L224.75,166.4533875130835L224.75,166.5705648745161L224.75,166.59267528204208L224.75,166.58527186086457L224.75,166.58580535036472L224.75,166.5731256927355L224.75,166.56333666772034L224.75,166.5619134767241L224.75,166.56295102528904L224.75,166.56840594954855L227.16666666666666,166.61991802225694L227.16666666666666,166.62637429974157L227.16666666666666,166.65773022874785L227.16666666666666,166.67981895515686L227.16666666666666,166.7075291481008L227.16666666666666,166.71566717575692L227.16666666666666,166.71507934583394L229.58333333333331,166.75978867859155L229.58333333333331,166.7935010150868L229.58333333333331,166.84774133384312L229.58333333333331,166.8921008966275L229.58333333333331,166.91410881904886L229.58333333333331,166.94249472853264L229.58333333333331,166.96494777932648L229.58333333333331,166.98008320458868L229.58333333333331,166.9850364688211L232,167.1808135205522L232,167.14241013410827L232,167.10185592719895L232,167.09771168899073L232,167.09271253921543L232,167.08066220411717L232,167.07518807205165L232,167.074058636377L232,167.06873770607734L232,167.06855033875073L234.41666666666666,166.951640828734L234.41666666666666,166.90394286460787L234.41666666666666,166.87495806793126L234.41666666666666,166.8394131980416L234.41666666666666,166.8266200706336L234.41666666666666,166.8203959757809L234.41666666666666,166.79616376350205L234.41666666666666,166.76907217204953L234.41666666666666,166.746742289815L234.41666666666666,166.72654671507675L234.41666666666666,166.7010773258976L234.41666666666666,166.67931529628171L236.83333333333334,166.7028470158536L236.83333333333334,166.7423712554535L236.83333333333334,166.78770730940624L236.83333333333334,166.82741347735842L236.83333333333334,166.83955791827472L236.83333333333334,166.85113918348762L236.83333333333334,166.871832108263L236.83333333333334,166.88976466693046L236.83333333333334,166.90272960787698L236.83333333333334,166.91478096871973L236.83333333333334,166.9259198546204L236.83333333333334,166.9328733798666L236.83333333333334,166.9412935689055L239.25,166.95464688472103L239.25,166.8804697188292L239.25,166.85433998921778L239.25,166.8450927987526L239.25,166.84002500435597L239.25,166.84330826916138L239.25,166.84434769761512L239.25,166.844892581218L241.66666666666669,166.90943988742217L241.66666666666669,166.9742112680544L241.66666666666669,166.99587501854262L241.66666666666669,167.02477453770274L241.66666666666669,167.07059271316658L241.66666666666669,167.10788069677238L244.08333333333334,167.09524893041743L244.08333333333334,167.08718707563955L244.08333333333334,167.10868910225585L244.08333333333334,167.13663845706716L244.08333333333334,167.15748199091652L244.08333333333334,167.17648682140296L246.5,167.28131560609575L246.5,167.38218636174543L246.5,167.46584492034282L246.5,167.5357624947154L246.5,167.58439553431347L246.5,167.6161716129292L246.5,167.6533503872766L246.5,167.69455528899857L246.5,167.7416649485885L246.5,167.78548993200025L246.5,167.82553061290048L248.91666666666666,167.8879511521388L248.91666666666666,167.96893306988702L248.91666666666666,168.01812117981228L248.91666666666666,168.0615754211242L248.91666666666666,168.05860699257056L248.91666666666666,168.06499082474667L248.91666666666666,168.06189567235432L248.91666666666666,168.05798177428997L248.91666666666666,168.05669746123314L251.33333333333334,168.02211291885803L251.33333333333334,168.00886033596208L251.33333333333334,168.00211140196052L251.33333333333334,168.00406318094832L251.33333333333334,167.99963377780892L251.33333333333334,167.99679761145333L251.33333333333334,167.9956963067564L251.33333333333334,167.99031348069977L253.75,168.0281666073049L253.75,168.0671359438899L253.75,168.08030611487652L253.75,168.11078340999092L253.75,168.12641743741645L253.75,168.1387032068382L253.75,168.15484394091166L253.75,168.17057590161667L253.75,168.1894152774529L256.1666666666667,168.25634180231992L256.1666666666667,168.30664690810343L256.1666666666667,168.3399228294095L256.1666666666667,168.36680010472043L256.1666666666667,168.39357261636445L256.1666666666667,168.41232464591323L256.1666666666667,168.43204203422542L256.1666666666667,168.4525433193335L256.1666666666667,168.4713116337016L256.1666666666667,168.4879910524385L258.58333333333337,168.49419008750837L258.58333333333337,168.46631646251842L258.58333333333337,168.4387300852076L258.58333333333337,168.40951416045218L258.58333333333337,168.3871131681631L258.58333333333337,168.36990321527605L258.58333333333337,168.3571381300504L258.58333333333337,168.34417046232267L258.58333333333337,168.33132024811783L258.58333333333337,168.33021934416618L261,168.31837632901858L261,168.35080018247186L261,168.37660266026623L261,168.39213219783235L261,168.42139945145897L261,168.4373883726262L261,168.44173664499917L263.4166666666667,168.60897295581418L263.4166666666667,168.6536381865716L263.4166666666667,168.6619978043355L263.4166666666667,168.66631102485175L263.4166666666667,168.66293020115873L263.4166666666667,168.66131147199124L263.4166666666667,168.6716326954026L263.4166666666667,168.68050866444466L263.4166666666667,168.68951607499102L263.4166666666667,168.69391350503665L263.4166666666667,168.6977814204306L265.8333333333333,168.68902168397804L265.8333333333333,168.6903020369854L265.8333333333333,168.69673984204275L265.8333333333333,168.69312072393114L265.8333333333333,168.67446072605225L265.8333333333333,168.65036177845425L265.8333333333333,168.63189272126598L265.8333333333333,168.61284268378208L265.8333333333333,168.60098443125727L265.8333333333333,168.59989643395235L265.8333333333333,168.60257987305795L265.8333333333333,168.60592566687873L265.8333333333333,168.61144944092692" style="fill: none;" fill="none"></path></g></g></g></g><g opacity="0.2"><g><g><g><path stroke="rgb(204, 51, 17)" stroke-width="2px" d="M26.583333333333332,15.086599159240707L26.583333333333332,25.423405337333662L26.583333333333332,37.31779568195341L26.583333333333332,62.728789973258955L26.583333333333332,65.16873579025267L26.583333333333332,67.87329726219176L26.583333333333332,68.97071056365965L29,118.60769956111906L29,122.73799102306364L29,124.35577361583708L29,126.48153977394102L29,127.60814498662947L29,127.96834384202955L29,128.12233196496962L29,128.81263046264647L29,129.58789883852003L31.416666666666668,133.58190511465074L31.416666666666668,131.9959835886955L31.416666666666668,131.50037519931792L31.416666666666668,131.14637975692747L31.416666666666668,130.81362150907515L31.416666666666668,131.2428491592407L31.416666666666668,131.44551508426665L31.416666666666668,131.44285647869108L33.833333333333336,138.07504348754884L33.833333333333336,133.9022670865059L33.833333333333336,132.99248592853547L33.833333333333336,133.0588666677475L33.833333333333336,132.94027386903764L33.833333333333336,132.98983787298204L33.833333333333336,132.58096121549605L33.833333333333336,132.39511202573775L36.25,133.4553470492363L36.25,134.75364332199098L36.25,134.57221459150315L36.25,134.78373198509217L36.25,133.7925257563591L36.25,133.66686444282533L36.25,133.64296864271165L36.25,132.96594207286836L36.25,132.96062486171724L38.666666666666664,132.8579731464386L38.666666666666664,133.61375563144685L38.666666666666664,133.28896265029908L38.666666666666664,132.42078022956846L38.666666666666664,132.5190114855766L38.666666666666664,132.78982000350953L38.666666666666664,132.45529990196226L38.666666666666664,132.03934417963026L38.666666666666664,132.13669978380202L41.083333333333336,131.31895701885222L41.083333333333336,130.99858449697493L41.083333333333336,131.16585509777067L41.083333333333336,131.7508327245712L41.083333333333336,131.61719559431074L41.083333333333336,131.87827699184416L41.083333333333336,131.84198491573332L41.083333333333336,131.92871664762495L43.5,134.30406467914582L43.5,134.08369581699372L43.5,133.4305650472641L43.5,132.7924786090851L43.5,132.79070620536805L43.5,132.77920668125154L43.5,132.85000787973405L45.916666666666664,132.69070254564284L45.916666666666664,132.00217645168303L45.916666666666664,133.13497452735902L45.916666666666664,133.2146271944046L45.916666666666664,133.11019252538682L45.916666666666664,133.3748081803322L48.33333333333333,135.73245327472688L48.33333333333333,135.8297983288765L48.33333333333333,136.02272658348085L48.33333333333333,135.25454782247544L48.33333333333333,134.78903864622117L48.33333333333333,134.87665657997132L48.33333333333333,134.82355831861497L48.33333333333333,134.76602904796601L48.33333333333333,134.6394709825516L50.75,127.79665278196333L50.75,135.8032544732094L50.75,135.7598833322525L50.75,135.24393450021745L50.75,135.03506516218187L50.75,134.76425664424897L50.75,134.75364332199098L53.166666666666664,131.8357920527458L53.166666666666664,133.16152893304826L53.166666666666664,132.9942583322525L53.166666666666664,133.4296788454056L53.166666666666664,133.696066904068L53.166666666666664,133.2933936595917L53.166666666666664,133.5500440478325L53.166666666666664,133.56420217752458L53.166666666666664,133.30755178928376L53.166666666666664,133.75182377099992L55.583333333333336,134.47132472991944L55.583333333333336,134.60230325460435L55.583333333333336,134.59699659347535L55.583333333333336,134.5704421877861L55.583333333333336,134.2288324713707L55.583333333333336,134.187244284153L55.583333333333336,134.31556420326234L55.583333333333336,134.26600019931794L55.583333333333336,134.1376802802086L55.583333333333336,134.16688274145127L55.583333333333336,134.20051621198655L55.583333333333336,134.39521687030793L55.583333333333336,134.48636906147004L58,138.72109519243241L58,136.52452783584596L58,137.32721571922303L58,137.4458085179329L58,137.48917965888978L58,137.52634738683702L58,137.08562021255494L58,137.10774360895158L58,137.1688071370125L60.41666666666667,135.15897517204286L60.41666666666667,139.09456597566606L60.41666666666667,137.50864444971086L60.41666666666667,137.02365993261338L60.41666666666667,135.9899898648262L60.41666666666667,136.09264158010484L60.41666666666667,136.40859364271165L60.41666666666667,136.40504883527757L60.41666666666667,136.56258176565171L60.41666666666667,136.72099034786226L60.41666666666667,136.8679099559784L60.41666666666667,136.48381530046464L60.41666666666667,136.63072435855867L60.41666666666667,136.52364163398744L62.833333333333336,135.33508669137956L62.833333333333336,135.83245693445207L62.833333333333336,135.41915981769563L62.833333333333336,136.1705218434334L62.833333333333336,135.93865345716478L62.833333333333336,136.3307133793831L62.833333333333336,136.38026683330537L62.833333333333336,136.38823210000993L62.833333333333336,136.59532903432847L65.25,137.66706358194352L65.25,138.70339225530626L65.25,138.43169753551484L65.25,138.42550467252732L65.25,138.40691553354264L65.25,138.7662281870842L65.25,138.9715527176857L65.25,138.8963205099106L65.25,138.89367245435716L65.25,138.6653383255005L65.25,138.76888679265977L65.25,138.5502903342247L65.25,138.54498367309571L65.25,138.5644484639168L65.25,138.5653346657753L65.25,138.40691553354264L67.66666666666667,134.99259077310563L67.66666666666667,134.78815244436265L67.66666666666667,135.29083989858628L67.66666666666667,135.88644139766694L67.66666666666667,137.03339760303498L67.66666666666667,137.24668740034105L67.66666666666667,137.07322393655778L67.66666666666667,137.30244426727296L67.66666666666667,137.4405018568039L67.66666666666667,137.0077399492264L67.66666666666667,137.16792093515397L67.66666666666667,137.39625506401063L67.66666666666667,137.09181307554246L67.66666666666667,137.17322759628297L67.66666666666667,137.31571619510652L70.08333333333333,132.3827262997627L70.08333333333333,138.05114768743516L70.08333333333333,138.69189273118974L70.08333333333333,138.65737305879594L70.08333333333333,139.35563682317735L70.08333333333333,138.40691553354264L70.08333333333333,138.5803789973259L70.08333333333333,138.524622130394L72.5,137.6113067150116L72.5,138.7857035279274L72.5,137.4050959825516L72.5,138.02902429103852L72.5,139.86893759965898L72.5,140.06983112096788L72.5,140.1406323194504L72.5,140.47516297101976L72.5,140.61676536798478L72.5,140.78757022619249L72.5,140.74685769081117L72.5,140.5778252363205L72.5,140.58932476043702L74.91666666666667,140.22028498649598L74.91666666666667,139.69105367660524L74.91666666666667,140.1149746656418L74.91666666666667,140.5672013640404L74.91666666666667,140.52561317682267L74.91666666666667,140.37870411872865L74.91666666666667,141.01235954761506L74.91666666666667,140.928286421299L74.91666666666667,140.64685403108598L74.91666666666667,140.63711636066438L74.91666666666667,140.6026072382927L74.91666666666667,140.1760381937027L74.91666666666667,140.16364191770555L77.33333333333333,140.83181701898576L77.33333333333333,140.67960129976274L77.33333333333333,139.7503448009491L77.33333333333333,139.77159254550935L77.33333333333333,139.8645171403885L77.33333333333333,140.00876759290696L77.33333333333333,140.1105436563492L77.33333333333333,140.4017137169838L77.33333333333333,140.27515565156938L77.33333333333333,140.10700939893724L77.33333333333333,139.22023783922197L77.33333333333333,139.32643436193467L77.33333333333333,139.24501984119416L77.33333333333333,139.26359843015672L77.33333333333333,139.377760219574L79.75,141.7274400472641L79.75,141.39732985496522L79.75,141.94160549640657L79.75,141.72566764354707L79.75,140.9043906211853L79.75,141.05307208299638L79.75,140.9185487508774L79.75,140.82739655971528L79.75,140.62207202911378L79.75,140.53622649908067L82.16666666666667,141.10794274806977L82.16666666666667,141.43362193107606L82.16666666666667,140.95218222141267L82.16666666666667,140.90616302490236L82.16666666666667,140.79995595216752L82.16666666666667,140.9043906211853L82.16666666666667,140.52384077310563L82.16666666666667,140.49286590814592L82.16666666666667,140.32914011478425L82.16666666666667,140.42029230594636L82.16666666666667,140.83713423013688L82.16666666666667,141.215025472641L84.58333333333334,145.319659280777L84.58333333333334,143.66559516191484L84.58333333333334,142.53633134365083L84.58333333333334,142.92838071584703L84.58333333333334,142.10356943607331L84.58333333333334,142.08586649894715L87,143.99392240047456L87,144.37801705598832L87,143.78860841989518L87,143.97268520593644L87,143.87887440919877L87,141.82125084400178L87,141.87169049978257L87,142.19825588464738L87,142.23808221817018L89.41666666666667,139.44767521619798L89.41666666666667,140.4716287136078L89.41666666666667,140.86633669137956L89.41666666666667,141.68849991559983L89.41666666666667,142.01948575973512L89.41666666666667,143.06467645168306L89.41666666666667,142.84253518581392L89.41666666666667,142.9867961883545L89.41666666666667,143.04874591827394L91.83333333333333,145.01255868673326L91.83333333333333,143.99835340976716L91.83333333333333,143.4735425591469L91.83333333333333,143.77621214389802L91.83333333333333,143.76205401420594L91.83333333333333,143.6337340950966L91.83333333333333,143.86560248136522L91.83333333333333,144.0806541323662L91.83333333333333,144.01428394317628L91.83333333333333,144.29305772781373L91.83333333333333,144.22314273118974L94.25,144.4275705099106L94.25,144.5081093788147L94.25,144.4673968434334L94.25,144.59041010141374L94.25,144.6275883793831L94.25,144.38420991897584L94.25,144.49129264354707L94.25,144.36297272443772L94.25,144.482441174984L94.25,144.57625197172166L94.25,144.70546864271165L94.25,144.84264003038408L94.25,144.88512496948243L94.25,145.0045934200287L96.66666666666666,143.21424411535264L96.66666666666666,142.67793374061586L96.66666666666666,144.56917290687562L96.66666666666666,145.1453096151352L96.66666666666666,145.2957634806633L99.08333333333333,146.1736835718155L99.08333333333333,145.49399839639665L99.08333333333333,145.4055048108101L99.08333333333333,144.69042431116105L99.08333333333333,143.554081428051L99.08333333333333,145.14176480770112L99.08333333333333,145.2346999526024L99.08333333333333,145.471875L99.08333333333333,145.49311219453813L99.08333333333333,145.2860258102417L101.5,145.95242850780488L101.5,146.35687415599824L101.5,146.56396054029466L101.5,147.18700264692308L101.5,147.2976301789284L101.5,146.64361320734025L101.5,146.6108659386635L101.5,146.68343954086305L103.91666666666667,143.97179900407792L103.91666666666667,145.47895406484605L103.91666666666667,145.74445592164994L103.91666666666667,145.97898291349412L103.91666666666667,146.04889791011811L103.91666666666667,146.394928085804L103.91666666666667,146.77547793388368L103.91666666666667,146.7710574746132L103.91666666666667,146.77459173202516L103.91666666666667,147.0684098482132L106.33333333333333,147.0622169852257L106.33333333333333,146.96929239034654L106.33333333333333,147.90208314657212L106.33333333333333,147.36223851442338L106.33333333333333,147.464890229702L106.33333333333333,147.05425171852113L106.33333333333333,147.16665165424348L106.33333333333333,147.12063245773317L106.33333333333333,147.0471726536751L108.75,147.15337972640992L108.75,147.34276317358018L108.75,147.87199448347093L108.75,147.98881487846376L108.75,148.23042093515397L108.75,148.09589760303498L108.75,147.87818734645845L108.75,147.90208314657212L108.75,147.8702220797539L111.16666666666667,150.18626843690873L111.16666666666667,148.44105212688447L111.16666666666667,148.63663898706437L111.16666666666667,148.0357202768326L111.16666666666667,148.06315033435823L111.16666666666667,148.1569611310959L111.16666666666667,148.10297666788102L111.16666666666667,148.08351187705995L111.16666666666667,147.8560639500618L111.16666666666667,148.03837888240815L111.16666666666667,148.34635512828828L111.16666666666667,148.2366137981415L113.58333333333333,146.671053814888L113.58333333333333,148.1711298108101L113.58333333333333,148.19590126276017L113.58333333333333,148.09412519931794L113.58333333333333,148.44547258615495L113.58333333333333,148.66053478717805L113.58333333333333,149.22338901758195L113.58333333333333,149.30215548276902L113.58333333333333,149.40835200548173L113.58333333333333,149.27295302152635L113.58333333333333,149.36676381826402L113.58333333333333,149.50039039850236L113.58333333333333,149.56588493585588L113.58333333333333,149.58358787298204L116,151.47129278182985L116,151.26154779195787L116,151.33057658672334L116,151.499609041214L116,151.3482795238495L116,151.16685079336168L116,150.46504222154618L116,150.29866837263108L116,150.354425239563L116,150.48716561794282L116,150.53407101631166L116,150.26680730581285L116,150.3898205637932L116,150.41725062131883L116,150.365038561821L116,150.42168163061143L118.41666666666667,148.45166544914247L118.41666666666667,150.19246129989625L118.41666666666667,149.69863586425782L118.41666666666667,149.89156411886216L118.41666666666667,150.00749831199647L118.41666666666667,150.08095811605455L120.83333333333334,150.32343982458116L120.83333333333334,150.8367406010628L120.83333333333334,150.3402565598488L120.83333333333334,150.03582512140275L120.83333333333334,150.0190083861351L120.83333333333334,149.94909338951112L120.83333333333334,150.230515229702L123.25,152.76693044900895L123.25,149.0056787610054L123.25,150.67833201885225L123.25,150.76948421001435L123.25,150.90134893655778L123.25,151.37925438880922L123.25,151.5757169008255L123.25,151.4137635111809L123.25,151.57660310268403L123.25,151.66333483457566L123.25,151.64651809930803L123.25,151.52704964876176L123.25,151.37659578323365L125.66666666666667,153.2315534234047L125.66666666666667,151.0270208001137L125.66666666666667,151.3739371776581L125.66666666666667,151.35269998311998L125.66666666666667,151.8863517522812L128.08333333333334,153.22713296413423L128.08333333333334,151.7199779033661L128.08333333333334,151.3341108441353L128.08333333333334,151.37128912210466L128.08333333333334,151.60227130651475L128.08333333333334,151.91024755239488L128.08333333333334,152.0058307528496L128.08333333333334,151.8863517522812L128.08333333333334,151.85626308918L128.08333333333334,152.29168360233308L128.08333333333334,152.14035408496858L130.5,154.54135977029802L130.5,152.57753645181657L130.5,152.99702643156053L130.5,153.55369834899903L130.5,152.88375084400178L130.5,153.25456302165986L130.5,153.1103125691414L130.5,153.19261329174043L130.5,152.62710045576097L130.5,152.71736644506456L130.5,152.82091491222383L132.91666666666666,155.29714225530626L132.91666666666666,154.89535521268846L132.91666666666666,154.27231310606004L132.91666666666666,154.0130146622658L132.91666666666666,154.15284465551377L132.91666666666666,153.90946619510652L132.91666666666666,154.17850230932237L132.91666666666666,153.86521940231324L132.91666666666666,153.973188328743L132.91666666666666,153.84308545589448L135.33333333333334,154.23691778182985L135.33333333333334,154.8528702735901L135.33333333333334,155.01394801139833L135.33333333333334,154.92102341651918L135.33333333333334,154.90685473680497L135.33333333333334,154.9634978055954L135.33333333333334,154.23780398368837L135.33333333333334,153.64396433830262L135.33333333333334,153.60945521593095L135.33333333333334,153.8422098040581L135.33333333333334,153.9333619952202L135.33333333333334,154.07584004402162L135.33333333333334,154.02097992897035L135.33333333333334,153.86963986158372L135.33333333333334,153.95194058418275L135.33333333333334,153.69352834224702L137.75,152.67666445970536L137.75,153.62626140117646L137.75,153.7227308034897L137.75,154.8227816104889L137.75,154.20594291687013L137.75,154.08380531072618L137.75,153.90061472654344L137.75,154.0183213233948L137.75,153.97052972316743L137.75,153.86521940231324L137.75,153.6023656010628L137.75,153.5669702768326L137.75,153.69883500337602L137.75,153.6829044699669L140.16666666666666,156.4432228088379L140.16666666666666,155.86974470615388L140.16666666666666,156.2078096151352L140.16666666666666,155.64141057729722L140.16666666666666,155.5060010433197L140.16666666666666,155.85204176902772L140.16666666666666,154.90597908496858L140.16666666666666,154.71216462850572L140.16666666666666,154.4263012290001L140.16666666666666,154.5758688926697L140.16666666666666,154.58294795751573L140.16666666666666,154.68561022281648L140.16666666666666,154.5670174241066L142.58333333333331,155.4351998448372L142.58333333333331,155.02721993923188L142.58333333333331,155.41662125587465L142.58333333333331,155.76265143156053L142.58333333333331,155.7865472316742L142.58333333333331,156.04851483106614L142.58333333333331,156.1166574239731L142.58333333333331,155.85557602643968L142.58333333333331,155.7750477075577L142.58333333333331,155.66264777183534L142.58333333333331,155.6254800438881L142.58333333333331,155.66707878112794L142.58333333333331,155.67593024969102L142.58333333333331,155.75468616485597L145,155.66796498298646L145,156.37950067520143L145,155.65645490884782L145,155.79451249837877L145,155.88390283584596L145,155.99983702898027L145,156.25471501350404L145,156.2078096151352L145,156.2432049393654L147.41666666666666,154.41744976043702L147.41666666666666,157.1352937102318L147.41666666666666,157.07423018217088L147.41666666666666,157.07157157659532L147.41666666666666,156.52286492586137L147.41666666666666,155.75379996299745L147.41666666666666,155.57326798439027L147.41666666666666,155.5741541862488L147.41666666666666,155.4095421910286L147.41666666666666,156.21843348741533L147.41666666666666,156.11930547952653L147.41666666666666,156.0219604253769L147.41666666666666,155.9874407529831L147.41666666666666,155.85557602643968L149.83333333333334,157.26715843677522L149.83333333333334,155.7201770424843L149.83333333333334,156.52021687030793L149.83333333333334,156.65208159685136L149.83333333333334,156.529068338871L149.83333333333334,156.45560853481294L152.25,152.87755798101426L152.25,155.34316145181657L152.25,155.25997452735902L152.25,155.21129672527314L152.25,156.01841561794282L152.25,156.08745496273042L152.25,155.98832695484163L152.25,156.49454866647721L154.66666666666666,156.76624338626863L154.66666666666666,156.61314146518708L154.66666666666666,157.03971050977708L154.66666666666666,156.88306378126146L154.66666666666666,156.58482520580293L154.66666666666666,157.3574244260788L154.66666666666666,157.19369863271714L154.66666666666666,157.06006150245668L157.08333333333331,157.3972507596016L157.08333333333331,158.68935416936876L157.08333333333331,157.49459581375123L157.08333333333331,157.2866232275963L157.08333333333331,157.44592856168748L157.08333333333331,157.3662758946419L157.08333333333331,157.3414938926697L157.08333333333331,157.5025610804558L157.08333333333331,157.5069920897484L157.08333333333331,157.41937415599824L157.08333333333331,157.34857295751573L157.08333333333331,157.12909029722215L157.08333333333331,157.11139791011811L157.08333333333331,157.322904753685L159.5,159.22566454410554L159.5,159.08051733970643L159.5,157.73178141117097L159.5,157.8238198041916L159.5,158.07161872386934L159.5,157.78222106695176L159.5,157.74505333900453L159.5,157.7432809352875L159.5,157.8592151284218L159.5,157.94241260290147L159.5,157.90524487495424L159.5,157.90700672864915L159.5,157.90789293050767L161.91666666666666,157.42822562456132L161.91666666666666,157.04767577648164L161.91666666666666,158.2849085211754L161.91666666666666,157.43441848754884L161.91666666666666,156.77951531410218L161.91666666666666,156.74854044914247L161.91666666666666,156.9450135111809L161.91666666666666,157.33972148895265L161.91666666666666,157.6831036090851L161.91666666666666,157.98400079011918L161.91666666666666,157.9132101416588L161.91666666666666,157.9645359992981L161.91666666666666,158.01055519580842L164.33333333333334,154.9325229406357L164.33333333333334,156.33614008426667L164.33333333333334,157.8689527988434L164.33333333333334,157.91763060092927L164.33333333333334,157.92559586763383L164.33333333333334,158.02294092178346L164.33333333333334,158.30437331199647L164.33333333333334,158.28224991559983L164.33333333333334,158.64067636728288L164.33333333333334,158.7663482308388L164.33333333333334,158.66368596553804L166.75,159.3575239956379L166.75,159.34601919651033L166.75,159.37345452904702L166.75,159.05131487846376L166.75,158.56633036136628L166.75,158.60439484119416L166.75,158.80174355506898L166.75,158.9530836224556L169.16666666666669,159.53186838626863L169.16666666666669,159.6655055165291L169.16666666666669,159.77082111239434L169.16666666666669,159.9920709013939L169.16666666666669,160.0469415664673L169.16666666666669,160.08499549627305L169.16666666666669,160.15579669475557L169.16666666666669,160.21686022281648L169.16666666666669,160.2327907562256L169.16666666666669,160.25933988690377L169.16666666666669,160.24694888591767L171.58333333333334,159.06901781558992L171.58333333333334,159.2539808034897L171.58333333333334,159.1743281364441L171.58333333333334,159.3150443315506L171.58333333333334,159.4123946607113L174,160.97884612083436L174,160.16198955774308L174,160.78325926065446L174,160.35403688549997L174,160.33899255394937L174,160.25314702391626L174,160.38677887916566L174,160.01773383021356L174,160.1752667605877L176.41666666666666,159.68762891292573L176.41666666666666,160.87972338795663L176.41666666666666,161.3116043686867L176.41666666666666,160.6168801367283L176.41666666666666,160.5168764770031L176.41666666666666,160.4637729406357L176.41666666666666,160.6991861343384L176.41666666666666,160.71245806217195L176.41666666666666,160.67971606850625L176.41666666666666,160.86821858882905L176.41666666666666,160.8761838555336L176.41666666666666,160.70715140104295L178.83333333333334,162.93469362258912L178.83333333333334,161.992170470953L178.83333333333334,162.73468630313874L178.83333333333334,162.76123543381692L178.83333333333334,161.74702488183976L178.83333333333334,161.60542248487474L178.83333333333334,161.74083201885225L178.83333333333334,161.65232788324357L178.83333333333334,161.83287041187288L178.83333333333334,161.68684755563737L178.83333333333334,161.9196021437645L181.25,162.39307658672334L181.25,162.17005439400674L181.25,162.26829092502595L181.25,162.1381933271885L181.25,162.17979206442834L181.25,162.21342025995256L181.25,161.8647314786911L183.66666666666666,161.55940328836442L183.66666666666666,161.60100202560426L183.66666666666666,161.31691630482675L183.66666666666666,161.48948829174043L183.66666666666666,161.43107809424401L183.66666666666666,161.06291924715043L183.66666666666666,161.3098372399807L183.66666666666666,161.49037449359895L183.66666666666666,161.5408194243908L183.66666666666666,161.82667754888536L183.66666666666666,161.3726678967476L183.66666666666666,161.51427029371263L183.66666666666666,161.53639369010926L183.66666666666666,161.56648762822152L186.08333333333334,161.87535007596017L186.08333333333334,161.60276915431024L186.08333333333334,161.1381461799145L186.08333333333334,161.06999831199647L186.08333333333334,162.55502997636796L186.08333333333334,162.20988072752954L186.08333333333334,162.35325025320054L186.08333333333334,162.32670112252237L186.08333333333334,162.3337801873684L186.08333333333334,162.24350892305375L188.5,161.15141810774804L188.5,160.73104720115663L188.5,160.83459039330484L188.5,161.17797251343728L188.5,161.15319051146508L188.5,161.48948829174043L188.5,161.58418529033662L188.5,161.69835235476495L190.91666666666666,161.97092800140382L190.91666666666666,162.18863825798036L190.91666666666666,162.19572259783746L190.91666666666666,162.17270772457124L190.91666666666666,162.23820226192476L190.91666666666666,162.48334257602693L190.91666666666666,162.6453012406826L190.91666666666666,162.87805582880975L190.91666666666666,163.00992055535318L190.91666666666666,163.05240021944047L190.91666666666666,163.14355241060258L193.33333333333331,163.84536098241807L193.33333333333331,163.52056272625924L193.33333333333331,163.54180519580842L193.33333333333331,162.86301149725915L193.33333333333331,162.65326650738717L193.33333333333331,163.00992055535318L193.33333333333331,162.95947562456132L195.75,164.04271497130395L195.75,164.05864550471307L195.75,163.48782073259355L195.75,163.5046374678612L195.75,163.61525972485543L195.75,163.61260639429094L195.75,163.72588725686074L195.75,163.63384358882905L195.75,163.42675720453263L195.75,163.54269139766694L195.75,163.5683543264866L198.16666666666666,161.72578241229058L198.16666666666666,162.2780233204365L198.16666666666666,162.94443129301072L198.16666666666666,163.06036548614503L198.16666666666666,163.1940026164055L198.16666666666666,163.34621833562852L198.16666666666666,163.271877604723L198.16666666666666,163.60375492572786L198.16666666666666,163.65508605837823L198.16666666666666,163.70818431973458L200.58333333333334,165.36667417287828L200.58333333333334,163.18869068026544L200.58333333333334,163.3426788032055L200.58333333333334,163.49401359558107L200.58333333333334,163.54977046251298L200.58333333333334,163.2825014770031L200.58333333333334,163.4586129963398L200.58333333333334,163.63295738697053L200.58333333333334,163.54180519580842L200.58333333333334,163.6807489871979L203,163.07718222141267L203,163.8763358473778L203,164.90647693276406L203,164.94275845885278L203,165.00294106006623L203,165.33658550977708L203,165.47198976874353L203,165.4109262406826L203,165.33923884034158L203,165.4401287019253L203,165.0170991897583L205.41666666666669,163.553309994936L205.41666666666669,164.18254496455194L205.41666666666669,164.1020113706589L205.41666666666669,164.11528329849244L205.41666666666669,164.30733062624932L205.41666666666669,164.31972162723542L205.41666666666669,164.20644076466562L205.41666666666669,164.36750795245172L207.83333333333334,164.5843372821808L207.83333333333334,164.50025888085366L207.83333333333334,164.59672300815583L207.83333333333334,164.71089007258416L207.83333333333334,165.22861658334733L207.83333333333334,165.2516261816025L207.83333333333334,165.17639924883844L207.83333333333334,165.28702678084375L210.25,166.46141831874849L210.25,166.79418184161187L210.25,166.0658241391182L210.25,166.2738020002842L210.25,166.37734519243241L210.25,166.4437206566334L210.25,166.51628898382188L210.25,166.2667176604271L210.25,165.83838148713113L210.25,165.9923696100712L210.25,166.0383888065815L212.66666666666666,164.64362840652467L212.66666666666666,164.7206224679947L212.66666666666666,167.50395040512086L212.66666666666666,167.27119581699372L212.66666666666666,166.05874507427217L212.66666666666666,166.0295426130295L212.66666666666666,166.2003474712372L212.66666666666666,166.21450560092927L212.66666666666666,165.42951010465623L212.66666666666666,165.44632683992387L212.66666666666666,165.38703044056894L215.08333333333334,166.54637764692308L215.08333333333334,166.66231711506845L215.08333333333334,166.4313296556473L215.08333333333334,166.1968026638031L215.08333333333334,165.69589288830758L215.08333333333334,165.70828388929368L215.08333333333334,165.70120482444764L215.08333333333334,165.82687668800355L215.08333333333334,165.55518196821214L215.08333333333334,165.59500302672387L217.5,167.74289785623552L217.5,166.06139840483667L217.5,166.08175467252732L217.5,166.05785887241365L217.5,166.0109534740448L217.5,166.17467926740647L217.5,165.96670668125154L219.91666666666666,167.15791495442392L219.91666666666666,167.06499035954477L219.91666666666666,167.04286696314813L219.91666666666666,167.15791495442392L219.91666666666666,167.0384412288666L219.91666666666666,166.64903991222383L222.33333333333334,168.51019569039346L222.33333333333334,166.1330858051777L222.33333333333334,166.28530679941179L222.33333333333334,166.49327938556672L222.33333333333334,166.1180414736271L222.33333333333334,166.04370074272157L222.33333333333334,166.1180414736271L222.33333333333334,165.74722402095796L222.33333333333334,165.9835181415081L222.33333333333334,165.9799786090851L222.33333333333334,166.01183967590333L222.33333333333334,166.09768520593644L224.75,168.18363030552865L224.75,169.6111326992512L224.75,168.79693474173547L224.75,167.01277302503587L224.75,166.4446068584919L224.75,166.59594165086747L224.75,166.33221219778062L224.75,166.37734519243241L224.75,166.5348728477955L224.75,166.58266444802285L224.75,166.67204951047898L227.16666666666666,167.59864740371705L227.16666666666666,166.74904357194902L227.16666666666666,167.25349287986757L227.16666666666666,167.0995047569275L227.16666666666666,167.23402281403543L227.16666666666666,166.87028970122338L227.16666666666666,166.70391057729722L229.58333333333331,167.6092660009861L229.58333333333331,167.43403540849687L229.58333333333331,167.87830739021302L229.58333333333331,167.73493258953096L229.58333333333331,167.33225934505464L229.58333333333331,167.48182700872422L229.58333333333331,167.39155574440957L229.58333333333331,167.2676562845707L229.58333333333331,167.07914848923684L232,170.90057750344278L232,166.41274579167367L232,166.3313259959221L232,167.01897116303445L232,166.99772869348527L232,166.85170583724977L232,166.9711795628071L232,167.05259935855867L232,166.96764003038408L232,167.06499035954477L234.41666666666666,164.7303601384163L234.41666666666666,165.99768154621125L234.41666666666666,166.32424693107606L234.41666666666666,166.16406067013742L234.41666666666666,166.58355064988137L234.41666666666666,166.70213817358018L234.41666666666666,166.33575173020364L234.41666666666666,166.25433193445207L234.41666666666666,166.32247452735902L234.41666666666666,166.34283079504968L234.41666666666666,166.21715893149377L234.41666666666666,166.26583673357965L236.83333333333334,167.14994968771936L236.83333333333334,167.4933318078518L236.83333333333334,167.6490923345089L236.83333333333334,167.5818306684494L236.83333333333334,167.07030229568483L236.83333333333334,167.07118322253228L236.83333333333334,167.26499767899514L236.83333333333334,167.2304832816124L236.83333333333334,167.14906348586084L236.83333333333334,167.14375682473184L236.83333333333334,167.13755868673326L236.83333333333334,167.06499035954477L236.83333333333334,167.10127716064454L239.25,167.20835988521577L239.25,165.471103566885L239.25,166.35787512660028L239.25,166.6693961799145L239.25,166.74373691082002L239.25,166.90569030046464L239.25,166.86409683823587L239.25,166.8552453696728L241.66666666666669,168.1358387053013L241.66666666666669,168.20486750006677L241.66666666666669,167.4074862778187L241.66666666666669,167.57386540174485L241.66666666666669,167.94113804697992L241.66666666666669,167.81635238528253L244.08333333333334,166.8552453696728L244.08333333333334,166.93401183485986L244.08333333333334,167.51722760796548L244.08333333333334,167.66767619848252L244.08333333333334,167.5535091340542L244.08333333333334,167.53757860064508L246.5,169.2730625152588L246.5,169.29873071908952L246.5,169.05535753369332L246.5,168.86419640779496L246.5,168.50842328667642L246.5,168.21991710662843L246.5,168.35974709987642L246.5,168.4774484217167L246.5,168.63674848079683L246.5,168.6181646168232L246.5,168.58630355000497L248.91666666666666,169.07394139766694L248.91666666666666,169.50758950710298L248.91666666666666,168.95269526839257L248.91666666666666,168.88720600605012L248.91666666666666,168.0022068500519L248.91666666666666,168.18628363609315L248.91666666666666,168.00308777689935L248.91666666666666,167.9836177110672L248.91666666666666,168.0322955131531L251.33333333333334,167.3650066137314L251.33333333333334,167.75706126093866L251.33333333333334,167.87388165593148L251.33333333333334,168.04114698171617L251.33333333333334,167.91547511816026L251.33333333333334,167.94291045069696L251.33333333333334,167.9747715175152L251.33333333333334,167.88803978562356L253.75,168.74737601280214L253.75,168.80755333900453L253.75,168.33053936362268L253.75,168.68985201716424L253.75,168.42346395850183L253.75,168.37213282585145L253.75,168.46151788830758L253.75,168.46948315501214L253.75,168.5473634183407L256.1666666666667,169.52794577479364L256.1666666666667,169.26244391798974L256.1666666666667,168.9721653342247L256.1666666666667,168.87746833562852L256.1666666666667,168.90225033760072L256.1666666666667,168.76861320734025L256.1666666666667,168.80667241215707L256.1666666666667,168.84206773638726L256.1666666666667,168.8279096066952L256.1666666666667,168.80490000844003L258.58333333333337,168.6119717538357L258.58333333333337,167.93671758770944L258.58333333333337,167.91458891630174L258.58333333333337,167.85441159009935L258.58333333333337,167.96149431467057L258.58333333333337,168.04291411042215L258.58333333333337,168.11460151076318L258.58333333333337,168.09778477549554L258.58333333333337,168.08716617822648L258.58333333333337,168.30930216908456L261,168.093359041214L261,168.96685339808465L261,168.86684973835946L261,168.68719341158868L261,168.97747727036477L261,168.74117787480355L261,168.52435382008554L263.4166666666667,171.78646286129953L263.4166666666667,169.50227757096292L263.4166666666667,168.82083054184915L263.4166666666667,168.74826221466066L263.4166666666667,168.59869455099107L263.4166666666667,168.6305556178093L263.4166666666667,168.86773594021798L263.4166666666667,168.84915207624437L263.4166666666667,168.86065687537194L263.4166666666667,168.77746467590333L263.4166666666667,168.7712718129158L265.8333333333333,168.52258669137956L265.8333333333333,168.71462874412538L265.8333333333333,168.8190581381321L265.8333333333333,168.62435747981073L265.8333333333333,168.31992076635362L265.8333333333333,168.19248177409173L265.8333333333333,168.28098063468934L265.8333333333333,168.25089197158815L265.8333333333333,168.37567763328553L265.8333333333333,168.57922448515893L265.8333333333333,168.65356521606446L265.8333333333333,168.66949574947358L265.8333333333333,168.71640114784242" style="fill: none;" fill="none"></path></g></g></g></g></g></g><g transform="translate(40, 177)" clip-path="url(#clip_1)"><clipPath id="clip_1"><rect width="290" height="23"></rect></clipPath><g><g><line x1="0" y1="0" x2="0" y2="5" style="visibility: inherit;" fill="rgb(0, 0, 0)" stroke="rgb(204, 204, 204)" stroke-width="1px"></line><line x1="24.166666666666664" y1="0" x2="24.166666666666664" y2="5" style="visibility: inherit;" fill="rgb(0, 0, 0)" stroke="rgb(204, 204, 204)" stroke-width="1px"></line><line x1="48.33333333333333" y1="0" x2="48.33333333333333" y2="5" style="visibility: inherit;" fill="rgb(0, 0, 0)" stroke="rgb(204, 204, 204)" stroke-width="1px"></line><line x1="72.5" y1="0" x2="72.5" y2="5" style="visibility: inherit;" fill="rgb(0, 0, 0)" stroke="rgb(204, 204, 204)" stroke-width="1px"></line><line x1="96.66666666666666" y1="0" x2="96.66666666666666" y2="5" style="visibility: inherit;" fill="rgb(0, 0, 0)" stroke="rgb(204, 204, 204)" stroke-width="1px"></line><line x1="120.83333333333334" y1="0" x2="120.83333333333334" y2="5" style="visibility: inherit;" fill="rgb(0, 0, 0)" stroke="rgb(204, 204, 204)" stroke-width="1px"></line><line x1="145" y1="0" x2="145" y2="5" style="visibility: inherit;" fill="rgb(0, 0, 0)" stroke="rgb(204, 204, 204)" stroke-width="1px"></line><line x1="169.16666666666669" y1="0" x2="169.16666666666669" y2="5" style="visibility: inherit;" fill="rgb(0, 0, 0)" stroke="rgb(204, 204, 204)" stroke-width="1px"></line><line x1="193.33333333333331" y1="0" x2="193.33333333333331" y2="5" style="visibility: inherit;" fill="rgb(0, 0, 0)" stroke="rgb(204, 204, 204)" stroke-width="1px"></line><line x1="217.5" y1="0" x2="217.5" y2="5" style="visibility: inherit;" fill="rgb(0, 0, 0)" stroke="rgb(204, 204, 204)" stroke-width="1px"></line><line x1="241.66666666666669" y1="0" x2="241.66666666666669" y2="5" style="visibility: inherit;" fill="rgb(0, 0, 0)" stroke="rgb(204, 204, 204)" stroke-width="1px"></line><line x1="265.8333333333333" y1="0" x2="265.8333333333333" y2="5" style="visibility: inherit;" fill="rgb(0, 0, 0)" stroke="rgb(204, 204, 204)" stroke-width="1px"></line><line x1="290" y1="0" x2="290" y2="5" style="visibility: inherit;" fill="rgb(0, 0, 0)" stroke="rgb(204, 204, 204)" stroke-width="1px"></line></g><g transform="translate(0, 8)"><text x="0" y="0" dx="0em" dy="0.95em" style="text-anchor: middle; visibility: hidden; font-family: Roboto, sans-serif; font-size: 12px; font-weight: 200;" fill="rgb(33, 33, 33)" stroke="none" stroke-width="1px">-10</text><text x="24.166666666666664" y="0" dx="0em" dy="0.95em" style="text-anchor: middle; visibility: inherit; font-family: Roboto, sans-serif; font-size: 12px; font-weight: 200;" fill="rgb(33, 33, 33)" stroke="none" stroke-width="1px">0</text><text x="48.33333333333333" y="0" dx="0em" dy="0.95em" style="text-anchor: middle; visibility: inherit; font-family: Roboto, sans-serif; font-size: 12px; font-weight: 200;" fill="rgb(33, 33, 33)" stroke="none" stroke-width="1px">10</text><text x="72.5" y="0" dx="0em" dy="0.95em" style="text-anchor: middle; visibility: inherit; font-family: Roboto, sans-serif; font-size: 12px; font-weight: 200;" fill="rgb(33, 33, 33)" stroke="none" stroke-width="1px">20</text><text x="96.66666666666666" y="0" dx="0em" dy="0.95em" style="text-anchor: middle; visibility: inherit; font-family: Roboto, sans-serif; font-size: 12px; font-weight: 200;" fill="rgb(33, 33, 33)" stroke="none" stroke-width="1px">30</text><text x="120.83333333333334" y="0" dx="0em" dy="0.95em" style="text-anchor: middle; visibility: inherit; font-family: Roboto, sans-serif; font-size: 12px; font-weight: 200;" fill="rgb(33, 33, 33)" stroke="none" stroke-width="1px">40</text><text x="145" y="0" dx="0em" dy="0.95em" style="text-anchor: middle; visibility: inherit; font-family: Roboto, sans-serif; font-size: 12px; font-weight: 200;" fill="rgb(33, 33, 33)" stroke="none" stroke-width="1px">50</text><text x="169.16666666666669" y="0" dx="0em" dy="0.95em" style="text-anchor: middle; visibility: inherit; font-family: Roboto, sans-serif; font-size: 12px; font-weight: 200;" fill="rgb(33, 33, 33)" stroke="none" stroke-width="1px">60</text><text x="193.33333333333331" y="0" dx="0em" dy="0.95em" style="text-anchor: middle; visibility: inherit; font-family: Roboto, sans-serif; font-size: 12px; font-weight: 200;" fill="rgb(33, 33, 33)" stroke="none" stroke-width="1px">70</text><text x="217.5" y="0" dx="0em" dy="0.95em" style="text-anchor: middle; visibility: inherit; font-family: Roboto, sans-serif; font-size: 12px; font-weight: 200;" fill="rgb(33, 33, 33)" stroke="none" stroke-width="1px">80</text><text x="241.66666666666669" y="0" dx="0em" dy="0.95em" style="text-anchor: middle; visibility: inherit; font-family: Roboto, sans-serif; font-size: 12px; font-weight: 200;" fill="rgb(33, 33, 33)" stroke="none" stroke-width="1px">90</text><text x="265.8333333333333" y="0" dx="0em" dy="0.95em" style="text-anchor: middle; visibility: inherit; font-family: Roboto, sans-serif; font-size: 12px; font-weight: 200;" fill="rgb(33, 33, 33)" stroke="none" stroke-width="1px">100</text><text x="290" y="0" dx="0em" dy="0.95em" style="text-anchor: middle; visibility: hidden; font-family: Roboto, sans-serif; font-size: 12px; font-weight: 200;" fill="rgb(33, 33, 33)" stroke="none" stroke-width="1px">110</text></g><line x1="0" y1="0" x2="290" y2="0" fill="rgb(0, 0, 0)" stroke="rgb(204, 204, 204)" stroke-width="1px"></line></g></g></g></g></svg>