<svg viewBox="0 0 330 200" xmlns="http://www.w3.org/2000/svg"><g><g><g><g><g><line x1="40" y1="177" x2="35" y2="177" style="visibility: inherit;" fill="rgb(0, 0, 0)" stroke="rgb(204, 204, 204)" stroke-width="1px"></line><line x1="40" y1="151.71428571428572" x2="35" y2="151.71428571428572" style="visibility: inherit;" fill="rgb(0, 0, 0)" stroke="rgb(204, 204, 204)" stroke-width="1px"></line><line x1="40" y1="126.42857142857143" x2="35" y2="126.42857142857143" style="visibility: inherit;" fill="rgb(0, 0, 0)" stroke="rgb(204, 204, 204)" stroke-width="1px"></line><line x1="40" y1="101.14285714285714" x2="35" y2="101.14285714285714" style="visibility: inherit;" fill="rgb(0, 0, 0)" stroke="rgb(204, 204, 204)" stroke-width="1px"></line><line x1="40" y1="75.85714285714286" x2="35" y2="75.85714285714286" style="visibility: inherit;" fill="rgb(0, 0, 0)" stroke="rgb(204, 204, 204)" stroke-width="1px"></line><line x1="40" y1="50.57142857142857" x2="35" y2="50.57142857142857" style="visibility: inherit;" fill="rgb(0, 0, 0)" stroke="rgb(204, 204, 204)" stroke-width="1px"></line><line x1="40" y1="25.285714285714295" x2="35" y2="25.285714285714295" style="visibility: inherit;" fill="rgb(0, 0, 0)" stroke="rgb(204, 204, 204)" stroke-width="1px"></line><line x1="40" y1="0" x2="35" y2="0" style="visibility: inherit;" fill="rgb(0, 0, 0)" stroke="rgb(204, 204, 204)" stroke-width="1px"></line></g><g transform="translate(30, 0)"><text x="0" y="177" dx="0em" dy="0.3em" style="text-anchor: end; visibility: hidden; font-family: Roboto, sans-serif; font-size: 12px; font-weight: 200;" fill="rgb(33, 33, 33)" stroke="none" stroke-width="1px">0</text><text x="0" y="151.71428571428572" dx="0em" dy="0.3em" style="text-anchor: end; visibility: inherit; font-family: Roboto, sans-serif; font-size: 12px; font-weight: 200;" fill="rgb(33, 33, 33)" stroke="none" stroke-width="1px">0.5</text><text x="0" y="126.42857142857143" dx="0em" dy="0.3em" style="text-anchor: end; visibility: inherit; font-family: Roboto, sans-serif; font-size: 12px; font-weight: 200;" fill="rgb(33, 33, 33)" stroke="none" stroke-width="1px">1</text><text x="0" y="101.14285714285714" dx="0em" dy="0.3em" style="text-anchor: end; visibility: inherit; font-family: Roboto, sans-serif; font-size: 12px; font-weight: 200;" fill="rgb(33, 33, 33)" stroke="none" stroke-width="1px">1.5</text><text x="0" y="75.85714285714286" dx="0em" dy="0.3em" style="text-anchor: end; visibility: inherit; font-family: Roboto, sans-serif; font-size: 12px; font-weight: 200;" fill="rgb(33, 33, 33)" stroke="none" stroke-width="1px">2</text><text x="0" y="50.57142857142857" dx="0em" dy="0.3em" style="text-anchor: end; visibility: inherit; font-family: Roboto, sans-serif; font-size: 12px; font-weight: 200;" fill="rgb(33, 33, 33)" stroke="none" stroke-width="1px">2.5</text><text x="0" y="25.285714285714295" dx="0em" dy="0.3em" style="text-anchor: end; visibility: inherit; font-family: Roboto, sans-serif; font-size: 12px; font-weight: 200;" fill="rgb(33, 33, 33)" stroke="none" stroke-width="1px">3</text><text x="0" y="0" dx="0em" dy="0.3em" style="text-anchor: end; visibility: hidden; font-family: Roboto, sans-serif; font-size: 12px; font-weight: 200;" fill="rgb(33, 33, 33)" stroke="none" stroke-width="1px">3.5</text></g><line x1="40" y1="0" x2="40" y2="177" fill="rgb(0, 0, 0)" stroke="rgb(204, 204, 204)" stroke-width="1px"></line></g></g><g transform="translate(40, 0)" clip-path="url(#clip_0)"><clipPath id="clip_0"><rect width="290" height="177"></rect></clipPath><g><g><g><line x1="0" y1="0" x2="0" y2="177" fill="rgb(0, 0, 0)" stroke="rgb(66, 66, 66)" stroke-width="1px" opacity="0.25"></line><line x1="24.166666666666664" y1="0" x2="24.166666666666664" y2="177" fill="rgb(0, 0, 0)" stroke="rgb(66, 66, 66)" stroke-width="1px" opacity="0.25"></line><line x1="48.33333333333333" y1="0" x2="48.33333333333333" y2="177" fill="rgb(0, 0, 0)" stroke="rgb(66, 66, 66)" stroke-width="1px" opacity="0.25"></line><line x1="72.5" y1="0" x2="72.5" y2="177" fill="rgb(0, 0, 0)" stroke="rgb(66, 66, 66)" stroke-width="1px" opacity="0.25"></line><line x1="96.66666666666666" y1="0" x2="96.66666666666666" y2="177" fill="rgb(0, 0, 0)" stroke="rgb(66, 66, 66)" stroke-width="1px" opacity="0.25"></line><line x1="120.83333333333334" y1="0" x2="120.83333333333334" y2="177" fill="rgb(0, 0, 0)" stroke="rgb(66, 66, 66)" stroke-width="1px" opacity="0.25"></line><line x1="145" y1="0" x2="145" y2="177" fill="rgb(0, 0, 0)" stroke="rgb(66, 66, 66)" stroke-width="1px" opacity="0.25"></line><line x1="169.16666666666669" y1="0" x2="169.16666666666669" y2="177" fill="rgb(0, 0, 0)" stroke="rgb(66, 66, 66)" stroke-width="1px" opacity="0.25"></line><line x1="193.33333333333331" y1="0" x2="193.33333333333331" y2="177" fill="rgb(0, 0, 0)" stroke="rgb(66, 66, 66)" stroke-width="1px" opacity="0.25"></line><line x1="217.5" y1="0" x2="217.5" y2="177" fill="rgb(0, 0, 0)" stroke="rgb(66, 66, 66)" stroke-width="1px" opacity="0.25"></line><line x1="241.66666666666669" y1="0" x2="241.66666666666669" y2="177" fill="rgb(0, 0, 0)" stroke="rgb(66, 66, 66)" stroke-width="1px" opacity="0.25"></line><line x1="265.8333333333333" y1="0" x2="265.8333333333333" y2="177" fill="rgb(0, 0, 0)" stroke="rgb(66, 66, 66)" stroke-width="1px" opacity="0.25"></line><line x1="290" y1="0" x2="290" y2="177" fill="rgb(0, 0, 0)" stroke="rgb(66, 66, 66)" stroke-width="1px" opacity="0.25"></line></g><g><line x1="0" y1="177" x2="290" y2="177" fill="rgb(0, 0, 0)" stroke="rgb(66, 66, 66)" stroke-width="1px" opacity="0.25"></line><line x1="0" y1="151.71428571428572" x2="290" y2="151.71428571428572" fill="rgb(0, 0, 0)" stroke="rgb(66, 66, 66)" stroke-width="1px" opacity="0.25"></line><line x1="0" y1="126.42857142857143" x2="290" y2="126.42857142857143" fill="rgb(0, 0, 0)" stroke="rgb(66, 66, 66)" stroke-width="1px" opacity="0.25"></line><line x1="0" y1="101.14285714285714" x2="290" y2="101.14285714285714" fill="rgb(0, 0, 0)" stroke="rgb(66, 66, 66)" stroke-width="1px" opacity="0.25"></line><line x1="0" y1="75.85714285714286" x2="290" y2="75.85714285714286" fill="rgb(0, 0, 0)" stroke="rgb(66, 66, 66)" stroke-width="1px" opacity="0.25"></line><line x1="0" y1="50.57142857142857" x2="290" y2="50.57142857142857" fill="rgb(0, 0, 0)" stroke="rgb(66, 66, 66)" stroke-width="1px" opacity="0.25"></line><line x1="0" y1="25.285714285714295" x2="290" y2="25.285714285714295" fill="rgb(0, 0, 0)" stroke="rgb(66, 66, 66)" stroke-width="1px" opacity="0.25"></line><line x1="0" y1="0" x2="290" y2="0" fill="rgb(0, 0, 0)" stroke="rgb(66, 66, 66)" stroke-width="1px" opacity="0.25"></line></g></g></g><g><g><line x1="0" y1="177" x2="290" y2="177" fill="rgb(0, 0, 0)" stroke="rgb(153, 153, 153)" stroke-width="1.5px"></line></g></g><g><g><line x1="24.166666666666664" y1="0" x2="24.166666666666664" y2="177" fill="rgb(0, 0, 0)" stroke="rgb(153, 153, 153)" stroke-width="1.5px"></line></g></g><g><g><g><g><g><path stroke="rgb(204, 51, 17)" stroke-width="2px" d="M26.583333333333332,17.666620935712544L26.583333333333332,21.020158400902268L26.583333333333332,25.62339114092073L26.583333333333332,33.53437442653942L26.583333333333332,38.67996322219661L26.583333333333332,42.46270064604174L26.583333333333332,45.30182417106652L29,53.19902791571262L29,59.61356580503377L29,64.86387963191642L29,69.2444950172298L29,72.9336473808831L29,76.04534893825931L29,78.7001868993197L29,81.04757662849319L29,83.12894583165468L31.416666666666668,84.99277238182174L31.416666666666668,86.49745909634271L31.416666666666668,87.84107687538959L31.416666666666668,89.00040867894164L31.416666666666668,89.99837656762455L31.416666666666668,90.92003755665063L31.416666666666668,91.7783552520124L31.416666666666668,92.57989209772465L33.833333333333336,93.72520061776456L33.833333333333336,94.57339166948424L33.833333333333336,95.25748057766168L33.833333333333336,95.87789305830755L33.833333333333336,96.43109281289456L33.833333333333336,96.94111579676257L33.833333333333336,97.37173344611891L33.833333333333336,97.76255041781751L36.25,98.40243630449991L36.25,99.05711762611503L36.25,99.60137103256153L36.25,100.07906590999585L36.25,100.46792600626746L36.25,100.82691324813338L36.25,101.16873730348509L36.25,101.42730874586361L36.25,101.65676093533496L38.666666666666664,101.80088670839018L38.666666666666664,102.01687719747058L38.666666666666664,102.16220193576315L38.666666666666664,102.27831317204254L38.666666666666664,102.41208799015462L38.666666666666664,102.56243267805861L38.666666666666664,102.68922672548736L38.666666666666664,102.79730822986205L38.666666666666664,102.90593695684937L41.083333333333336,102.99196898384007L41.083333333333336,103.04763389529784L41.083333333333336,103.11042648113602L41.083333333333336,103.20145347525457L41.083333333333336,103.28548255903468L41.083333333333336,103.37929305420612L41.083333333333336,103.47120625790654L41.083333333333336,103.5609208992159L43.5,103.71294051902403L43.5,103.85127781203023L43.5,104.01110905077142L43.5,104.19492525752625L43.5,104.36429970150292L43.5,104.4884041487089L43.5,104.6047576061373L45.916666666666664,104.77391894227387L45.916666666666664,104.90277185233319L45.916666666666664,105.06994087288156L45.916666666666664,105.2218581636272L45.916666666666664,105.35616824917507L45.916666666666664,105.49814057452554L48.33333333333333,105.72428321911183L48.33333333333333,105.9277312163788L48.33333333333333,106.1145515711153L48.33333333333333,106.25717183410674L48.33333333333333,106.37571148127078L48.33333333333333,106.4939377456287L48.33333333333333,106.5957235177062L48.33333333333333,106.68073252097753L48.33333333333333,106.74697258745763L50.75,106.75723305821732L50.75,106.88467954605464L50.75,107.01972399460702L50.75,107.04128110789748L50.75,107.08488590064849L50.75,107.126255455365L50.75,107.17016291183602L53.166666666666664,107.27663438840086L53.166666666666664,107.37766735427552L53.166666666666664,107.47579248689976L53.166666666666664,107.57210662225515L53.166666666666664,107.64205902479627L53.166666666666664,107.69988399465473L53.166666666666664,107.7614481306944L53.166666666666664,107.82457377516614L53.166666666666664,107.87629418007774L53.166666666666664,107.9389880649281L55.583333333333336,108.01311442399488L55.583333333333336,108.11078854661142L55.583333333333336,108.1859428541677L55.583333333333336,108.27084925045368L55.583333333333336,108.33313453715286L55.583333333333336,108.3849790123151L55.583333333333336,108.43278250403117L55.583333333333336,108.47888455758648L55.583333333333336,108.51750535099757L55.583333333333336,108.55676868690047L55.583333333333336,108.59291058361084L55.583333333333336,108.63723134287588L55.583333333333336,108.68815050682807L58,108.73480629812185L58,108.7366498840419L58,108.7575496295063L58,108.8173129285401L58,108.88319909000901L58,108.95439279998435L58,109.02056398243631L58,109.08769403225419L58,109.15591241828014L60.41666666666667,109.16404566255225L60.41666666666667,109.22796778651839L60.41666666666667,109.29600278631516L60.41666666666667,109.34311880830573L60.41666666666667,109.44828172902932L60.41666666666667,109.54814338752496L60.41666666666667,109.62547094192888L60.41666666666667,109.6919563461719L60.41666666666667,109.76703411948424L60.41666666666667,109.85569160833742L60.41666666666667,109.93681589360136L60.41666666666667,109.99465900822868L60.41666666666667,110.05253972631569L60.41666666666667,110.09939419036523L62.833333333333336,110.2154830901044L62.833333333333336,110.29953402759779L62.833333333333336,110.35565956287915L62.833333333333336,110.42990332674373L62.833333333333336,110.50040343336465L62.833333333333336,110.5725349259873L62.833333333333336,110.63925752770918L62.833333333333336,110.70314521009287L62.833333333333336,110.76013986266703L65.25,110.83647098341454L65.25,110.92074583029495L65.25,110.98506490317251L65.25,111.0217499792697L65.25,111.11827806459985L65.25,111.20036123113188L65.25,111.28332000658152L65.25,111.360811529371L65.25,111.44671901894884L65.25,111.53128725212098L65.25,111.6069693046377L65.25,111.67426074352016L65.25,111.73962681635737L65.25,111.80288594321003L65.25,111.86280305238377L65.25,111.91724364840532L67.66666666666667,111.8916905598552L67.66666666666667,111.86202843478374L67.66666666666667,111.82889312298711L67.66666666666667,111.78917020001978L67.66666666666667,111.79015568319062L67.66666666666667,111.79177475858657L67.66666666666667,111.79710652947797L67.66666666666667,111.81716920486633L67.66666666666667,111.83890917331868L67.66666666666667,111.84593015141579L67.66666666666667,111.86319641195053L67.66666666666667,111.88415139442981L67.66666666666667,111.8984439069731L67.66666666666667,111.92517215917852L67.66666666666667,111.95946546256967L70.08333333333333,111.91807301381722L70.08333333333333,112.00908980958846L70.08333333333333,112.10114351098228L70.08333333333333,112.19992245121747L70.08333333333333,112.29386263714241L70.08333333333333,112.37599880075372L70.08333333333333,112.45541826219373L70.08333333333333,112.52603604598663L72.5,112.72209082239031L72.5,112.9271046039059L72.5,113.0371522417443L72.5,113.14445281883422L72.5,113.26216702131356L72.5,113.36567527743256L72.5,113.46512007894943L72.5,113.56141245453588L72.5,113.65051272431175L72.5,113.73715515441702L72.5,113.81966726284165L72.5,113.89701667369344L72.5,113.96728665556138L74.91666666666667,114.06150455752368L74.91666666666667,114.20107888505656L74.91666666666667,114.29235532034916L74.91666666666667,114.37436418747984L74.91666666666667,114.44058998085342L74.91666666666667,114.48623355612841L74.91666666666667,114.54706772227583L74.91666666666667,114.60283702721462L74.91666666666667,114.66396014523998L74.91666666666667,114.7221025891466L74.91666666666667,114.7778688816659L74.91666666666667,114.82485384366726L74.91666666666667,114.86630325485137L77.33333333333333,114.96553296963947L77.33333333333333,115.0409374188339L77.33333333333333,115.09122984762962L77.33333333333333,115.14656815009897L77.33333333333333,115.19658537184935L77.33333333333333,115.25211738975808L77.33333333333333,115.3177939944645L77.33333333333333,115.37937730891583L77.33333333333333,115.43259662180647L77.33333333333333,115.48477328611294L77.33333333333333,115.50705740125836L77.33333333333333,115.52792373717165L77.33333333333333,115.54701364434356L77.33333333333333,115.55933318828711L77.33333333333333,115.57050561641438L79.75,115.78143514043988L79.75,115.93541819305699L79.75,116.05593552052517L79.75,116.14094350319502L79.75,116.20139625941013L79.75,116.25596905485135L79.75,116.31959642847941L79.75,116.37746303519368L79.75,116.43433287522835L79.75,116.47902868070696L82.16666666666667,116.48426894816748L82.16666666666667,116.53574776143705L82.16666666666667,116.59330035605083L82.16666666666667,116.63978269863235L82.16666666666667,116.69519300887946L82.16666666666667,116.752258079455L82.16666666666667,116.78993278134851L82.16666666666667,116.82418131054654L82.16666666666667,116.84736159858394L82.16666666666667,116.87198722145445L82.16666666666667,116.90382702946422L82.16666666666667,116.941609989962L84.58333333333334,116.90918160748843L84.58333333333334,116.89195318145642L84.58333333333334,116.95475590737239L84.58333333333334,117.03143601570419L84.58333333333334,117.09055195707238L84.58333333333334,117.14084565402565L87,117.27745365537034L87,117.40581510467467L87,117.51266284162661L87,117.6134601088859L87,117.70357894474267L87,117.71780992781619L87,117.73170885906718L87,117.74736557502146L87,117.76325074914361L89.41666666666667,117.59337626532776L89.41666666666667,117.4686092896906L89.41666666666667,117.43225944503816L89.41666666666667,117.4431151643836L89.41666666666667,117.45982533669827L89.41666666666667,117.49706653261939L89.41666666666667,117.54223097205893L89.41666666666667,117.58981506938485L89.41666666666667,117.64068411884514L91.83333333333333,117.8074226765114L91.83333333333333,117.94948982541302L91.83333333333333,118.086577475596L91.83333333333333,118.22813875177725L91.83333333333333,118.35948678436003L91.83333333333333,118.47056231230509L91.83333333333333,118.5798516217583L91.83333333333333,118.68772224341268L91.83333333333333,118.79250043860299L91.83333333333333,118.88726055404756L91.83333333333333,118.9680534928143L94.25,119.11542987454995L94.25,119.26825721995894L94.25,119.40254501135338L94.25,119.51851217052219L94.25,119.6408686588556L94.25,119.71397006592906L94.25,119.7852873713189L94.25,119.84939784365828L94.25,119.91407035491615L94.25,119.96787282795977L94.25,120.01744276166794L94.25,120.06723982643771L94.25,120.12172828796275L94.25,120.17455426014943L96.66666666666666,120.16132212843917L96.66666666666666,120.12723347135157L96.66666666666666,120.17834274724086L96.66666666666666,120.24935032630479L96.66666666666666,120.31923493467433L99.08333333333333,120.43791635643089L99.08333333333333,120.52499850970679L99.08333333333333,120.58466600921983L99.08333333333333,120.62544551913378L99.08333333333333,120.63338781988097L99.08333333333333,120.69082195851182L99.08333333333333,120.75319743547598L99.08333333333333,120.8198629671403L99.08333333333333,120.88890971689943L99.08333333333333,120.9387258143613L101.5,120.92668039686231L101.5,120.93678069967771L101.5,121.03032463319455L101.5,121.13223873349898L101.5,121.24071369764728L101.5,121.33352445709183L101.5,121.4191659878164L101.5,121.5010815781333L103.91666666666667,121.58471716376333L103.91666666666667,121.64427121460203L103.91666666666667,121.70931832656247L103.91666666666667,121.7836040081246L103.91666666666667,121.8604463386642L103.91666666666667,121.94636761725548L103.91666666666667,122.03140651730297L103.91666666666667,122.11760442778055L103.91666666666667,122.20333596622108L103.91666666666667,122.29261959412611L106.33333333333333,122.34833514475466L106.33333333333333,122.42242886585576L106.33333333333333,122.50657332146635L106.33333333333333,122.55103474650392L106.33333333333333,122.61099834373381L106.33333333333333,122.66171814750558L106.33333333333333,122.71207677267685L106.33333333333333,122.75865297084714L106.33333333333333,122.81271127700039L108.75,122.8056566189699L108.75,122.83589725534483L108.75,122.9215691537692L108.75,122.98148996997323L108.75,123.05277694284895L108.75,123.12434309076775L108.75,123.21210438591528L108.75,123.30040839512435L108.75,123.37633223822773L111.16666666666667,123.51743925081473L111.16666666666667,123.60701322405328L111.16666666666667,123.70156553846788L111.16666666666667,123.78696525620322L111.16666666666667,123.87466915894503L111.16666666666667,123.97680036473093L111.16666666666667,124.07185275875962L111.16666666666667,124.15557836192147L111.16666666666667,124.22219662039011L111.16666666666667,124.2869000802632L111.16666666666667,124.35549867495936L111.16666666666667,124.42046508084006L113.58333333333333,124.43937449181205L113.58333333333333,124.48583554942303L113.58333333333333,124.53758434014324L113.58333333333333,124.58962825877803L113.58333333333333,124.63436708295562L113.58333333333333,124.68938521081292L113.58333333333333,124.75740542396838L113.58333333333333,124.82126623052959L113.58333333333333,124.88628301729568L113.58333333333333,124.94840314399323L113.58333333333333,125.01143742562833L113.58333333333333,125.07683253045063L113.58333333333333,125.13991853486898L113.58333333333333,125.19997683929559L116,125.2849980765544L116,125.42440587803866L116,125.5532274953492L116,125.67110709084378L116,125.78438237136325L116,125.88901004010906L116,125.97530832213916L116,126.04634302774558L116,126.11415470659307L116,126.18112966041039L116,126.25196228522252L116,126.3180902141859L116,126.38422415220904L116,126.44917541420104L116,126.51163765966857L116,126.57626144965701L118.41666666666667,126.64339401575305L118.41666666666667,126.66855853032303L118.41666666666667,126.69671286093417L118.41666666666667,126.71635418580745L118.41666666666667,126.74507726127267L118.41666666666667,126.77600529703051L120.83333333333334,126.7566613522945L120.83333333333334,126.81765649067374L120.83333333333334,126.8791165366434L120.83333333333334,126.93795873840314L120.83333333333334,126.98278371825248L120.83333333333334,127.01843909884943L120.83333333333334,127.06599132126087L123.25,127.15192639522051L123.25,127.04672864628299L123.25,127.10363811462884L123.25,127.17315171268233L123.25,127.24032737535603L123.25,127.29572413150875L123.25,127.35310473910803L123.25,127.39917087288916L123.25,127.44594271700458L123.25,127.49507916877756L123.25,127.53991299622874L123.25,127.57709387523772L123.25,127.6155258568183L125.66666666666667,127.72622459780727L125.66666666666667,127.72571938007022L125.66666666666667,127.74349563365979L125.66666666666667,127.77492236149675L125.66666666666667,127.8220733085066L128.08333333333334,127.89232933728994L128.08333333333334,127.96971783838926L128.08333333333334,128.02561280103293L128.08333333333334,128.09074908364593L128.08333333333334,128.17280652445038L128.08333333333334,128.25822041100062L128.08333333333334,128.35200644831042L128.08333333333334,128.43126694597692L128.08333333333334,128.49986379827433L128.08333333333334,128.59294616650672L128.08333333333334,128.67467364512717L130.5,128.8022793531841L130.5,128.87060711559937L130.5,128.93430478520366L130.5,129.033732232232L130.5,129.12396558519274L130.5,129.23054797997077L130.5,129.3291969066882L130.5,129.4254166058894L130.5,129.4987460486386L130.5,129.57073529912802L130.5,129.64367651735193L132.91666666666666,129.79669173168298L132.91666666666666,129.89204094182546L132.91666666666666,129.96525147716935L132.91666666666666,130.008833058424L132.91666666666666,130.06411743044413L132.91666666666666,130.10801520149315L132.91666666666666,130.16739268677227L132.91666666666666,130.20847814422115L132.91666666666666,130.25721911701845L132.91666666666666,130.30134838018594L135.33333333333334,130.38059293846845L135.33333333333334,130.5035894017624L135.33333333333334,130.60592207502245L135.33333333333334,130.71330291022252L135.33333333333334,130.80603490419966L135.33333333333334,130.90490202178256L135.33333333333334,130.97118849338054L135.33333333333334,131.0412912506385L135.33333333333334,131.09246458697046L135.33333333333334,131.15013147689868L135.33333333333334,131.21045257822942L135.33333333333334,131.26720133689807L135.33333333333334,131.31461429614728L135.33333333333334,131.35282938668703L135.33333333333334,131.38951307135233L135.33333333333334,131.4199629111286L137.75,131.44838446071228L137.75,131.50587947034168L137.75,131.56323067807392L137.75,131.66509974979655L137.75,131.74670383325767L137.75,131.8143916254886L137.75,131.88074323954615L137.75,131.93335957819545L137.75,131.98074060087853L137.75,132.01826793458767L137.75,132.04425975349696L137.75,132.07135422149867L137.75,132.10275797155023L137.75,132.13570168062174L140.16666666666666,132.28235154330096L140.16666666666666,132.39638322267402L140.16666666666666,132.46825138661052L140.16666666666666,132.53356761471687L140.16666666666666,132.58676807000063L140.16666666666666,132.65177197999563L140.16666666666666,132.6968117465813L140.16666666666666,132.74106612862766L140.16666666666666,132.78371471927304L140.16666666666666,132.8295155371833L140.16666666666666,132.86592102501118L140.16666666666666,132.90364170502326L140.16666666666666,132.94192908046423L142.58333333333331,133.06637216468957L142.58333333333331,133.13427461346205L142.58333333333331,133.19321906384374L142.58333333333331,133.26337622997374L142.58333333333331,133.33111279293448L142.58333333333331,133.39723252003057L142.58333333333331,133.46206915215703L142.58333333333331,133.5178734976763L142.58333333333331,133.57255648870523L142.58333333333331,133.6272362787671L142.58333333333331,133.67908094982806L142.58333333333331,133.7289148442696L142.58333333333331,133.77693978113518L142.58333333333331,133.83073084614307L145,133.90790191471592L145,133.93661044346038L145,133.94271929709666L145,133.97757611255273L145,134.0189584410048L145,134.06024390431327L145,134.10075475930378L145,134.1402766865759L145,134.1785810640752L147.41666666666666,133.99564204487206L147.41666666666666,134.03189835499515L147.41666666666666,134.09127351118394L147.41666666666666,134.14274928136572L147.41666666666666,134.1704112049228L147.41666666666666,134.20943400688552L147.41666666666666,134.24066472435777L147.41666666666666,134.26681924144262L147.41666666666666,134.29391635239259L147.41666666666666,134.3576884232646L147.41666666666666,134.41715931540256L147.41666666666666,134.4710774839532L147.41666666666666,134.5229824812224L147.41666666666666,134.56910627266092L149.83333333333334,134.68964062113034L149.83333333333334,134.75514460512127L149.83333333333334,134.84255795058624L149.83333333333334,134.9291152932917L149.83333333333334,135.01025751372455L149.83333333333334,135.08607827834135L152.25,135.10065891424642L152.25,135.1344609116243L152.25,135.16470168735208L152.25,135.1979060451082L152.25,135.2507154124306L152.25,135.31825567638904L152.25,135.37834782432608L152.25,135.44367854929652L154.66666666666666,135.55676927645862L154.66666666666666,135.62708611870252L154.66666666666666,135.69621339871284L154.66666666666666,135.7533630618521L154.66666666666666,135.80972862261117L154.66666666666666,135.87551423242678L154.66666666666666,135.94949019154072L154.66666666666666,136.01971686330734L157.08333333333331,136.0171239818484L157.08333333333331,136.03901094910051L157.08333333333331,136.1354836995617L157.08333333333331,136.2209631595609L157.08333333333331,136.30714991486394L157.08333333333331,136.38141624501145L157.08333333333331,136.4547760166807L157.08333333333331,136.5127857602672L157.08333333333331,136.56478487015184L157.08333333333331,136.61408289504448L157.08333333333331,136.65937360545774L157.08333333333331,136.70533298793038L157.08333333333331,136.74853924318197L157.08333333333331,136.79704435274274L159.5,136.8524799664461L159.5,136.90122446624483L159.5,136.87233208763243L159.5,136.90160019189378L159.5,136.9486978671171L159.5,136.98148055063965L159.5,137.01775713789382L159.5,137.05710003459123L159.5,137.09528482243616L159.5,137.12961343966293L159.5,137.16617012858637L159.5,137.19735899849684L159.5,137.2308066286335L161.91666666666666,137.1705671464352L161.91666666666666,137.22682200633918L161.91666666666666,137.27912622800446L161.91666666666666,137.32029398571595L161.91666666666666,137.3399586097628L161.91666666666666,137.354771309494L161.91666666666666,137.3792610689435L161.91666666666666,137.4141324197605L161.91666666666666,137.45962497968202L161.91666666666666,137.5163201127287L161.91666666666666,137.5685622664436L161.91666666666666,137.61713022667396L161.91666666666666,137.6623596234126L164.33333333333334,137.51485021656427L164.33333333333334,137.47788193212907L164.33333333333334,137.50691192359199L164.33333333333334,137.5424302114186L164.33333333333334,137.59531379142496L164.33333333333334,137.65270912172392L164.33333333333334,137.72321525616485L164.33333333333334,137.79244655431765L164.33333333333334,137.86291933671166L164.33333333333334,137.93295330645535L164.33333333333334,137.99018045819744L166.75,138.06861823783558L166.75,138.15276810726735L166.75,138.23116791927825L166.75,138.28423074363056L166.75,138.33656218865266L166.75,138.40395181491925L166.75,138.4739140337627L166.75,138.54179425606236L169.16666666666669,138.657408135185L169.16666666666669,138.74860576126946L169.16666666666669,138.84351185981848L169.16666666666669,138.94849015951496L169.16666666666669,139.0509756621495L169.16666666666669,139.14957591439364L169.16666666666669,139.2455977539573L169.16666666666669,139.33972623835507L169.16666666666669,139.42864265104402L169.16666666666669,139.51427630768046L169.16666666666669,139.59572956169748L171.58333333333334,139.64079498310025L171.58333333333334,139.70525170953962L171.58333333333334,139.75897564176447L171.58333333333334,139.8132246533984L171.58333333333334,139.86251089473132L174,139.9833694128367L174,140.0493329768713L174,140.1173841489991L174,140.1671142776624L174,140.21936448824934L174,140.27021589299517L174,140.3189039254418L174,140.35489163116523L174,140.4023044043365L176.41666666666666,140.34615298734286L176.41666666666666,140.3625471988804L176.41666666666666,140.4119539629361L176.41666666666666,140.47269644917137L176.41666666666666,140.53138793673432L176.41666666666666,140.58792871656303L176.41666666666666,140.65193370255432L176.41666666666666,140.71739099900324L176.41666666666666,140.77161046535437L176.41666666666666,140.82716459044377L176.41666666666666,140.88178696172142L176.41666666666666,140.92222375398458L178.83333333333334,141.05270392685438L178.83333333333334,141.17848072347024L178.83333333333334,141.28208923909625L178.83333333333334,141.38974663901072L178.83333333333334,141.4682272518866L178.83333333333334,141.54543882254376L178.83333333333334,141.61322708943067L178.83333333333334,141.6789912665508L178.83333333333334,141.74442576244806L178.83333333333334,141.80593111645746L178.83333333333334,141.87199745949528L181.25,141.94704930186722L181.25,142.0125580971199L181.25,142.07003776335486L181.25,142.1260340899088L181.25,142.17796640605525L181.25,142.2327890221871L181.25,142.26858654836204L183.66666666666666,142.31629912911274L183.66666666666666,142.34516503201846L183.66666666666666,142.3606528518924L183.66666666666666,142.3886412228983L183.66666666666666,142.41237292793315L183.66666666666666,142.42341294715948L183.66666666666666,142.44287737639243L183.66666666666666,142.47153353048142L183.66666666666666,142.49852929781727L183.66666666666666,142.52870138699265L183.66666666666666,142.5433060629398L183.66666666666666,142.55578971074425L183.66666666666666,142.56630902191932L183.66666666666666,142.57840106836562L186.08333333333334,142.622355452007L186.08333333333334,142.62934421712342L186.08333333333334,142.63302516706543L186.08333333333334,142.63581401231116L186.08333333333334,142.69611491548562L186.08333333333334,142.7296068564585L186.08333333333334,142.76688594683694L186.08333333333334,142.80136544644859L186.08333333333334,142.8327808168405L186.08333333333334,142.86148767418393L188.5,142.91085892286435L188.5,142.97128945033816L188.5,143.01168111503563L188.5,143.0330106907571L188.5,143.05623216461106L188.5,143.0948547430775L188.5,143.13351844389965L188.5,143.17558425658402L190.91666666666666,143.2317042882336L190.91666666666666,143.2866366916947L190.91666666666666,143.3333354084754L190.91666666666666,143.3784072466163L190.91666666666666,143.42385516122215L190.91666666666666,143.4824044737678L190.91666666666666,143.54073179850292L190.91666666666666,143.59677485404114L190.91666666666666,143.64455416106287L190.91666666666666,143.69540609847311L190.91666666666666,143.74116158008556L193.33333333333331,143.79019216356937L193.33333333333331,143.85014744021703L193.33333333333331,143.91572733540065L193.33333333333331,143.9658658688899L193.33333333333331,144.00793459975264L193.33333333333331,144.0661309351631L193.33333333333331,144.12050713760823L195.75,144.19514926027693L195.75,144.2604964008602L195.75,144.3089977030807L195.75,144.35611070593586L195.75,144.40246096127458L195.75,144.45200609040683L195.75,144.49839122593633L195.75,144.53722293728381L195.75,144.5683732481694L195.75,144.59920506825202L195.75,144.6259666077417L198.16666666666666,144.60413109543222L198.16666666666666,144.6159807478066L198.16666666666666,144.66198049685207L198.16666666666666,144.71594618354618L198.16666666666666,144.76827552098973L198.16666666666666,144.83568846510985L198.16666666666666,144.89839060778488L198.16666666666666,144.95992989460515L198.16666666666666,145.0191255943367L198.16666666666666,145.07258007110568L200.58333333333334,145.14475350104115L200.58333333333334,145.1487638798123L200.58333333333334,145.16736577495206L200.58333333333334,145.19843911772597L200.58333333333334,145.2318274864745L200.58333333333334,145.2512069801933L200.58333333333334,145.27980761488234L200.58333333333334,145.3142604459662L200.58333333333334,145.34266678428511L200.58333333333334,145.37822469866484L203,145.4278588384316L203,145.47217934384238L203,145.55537314586846L203,145.6363541890191L203,145.7108081305296L203,145.78836659571104L203,145.86272987477952L203,145.93160499761115L203,146.00305424763602L203,146.06423041467872L203,146.11220814710472L205.41666666666669,146.13214727413845L205.41666666666669,146.1559190942348L205.41666666666669,146.1835847211279L205.41666666666669,146.2086533619881L205.41666666666669,146.2419759493154L205.41666666666669,146.2736830473825L205.41666666666669,146.29922804023371L205.41666666666669,146.3289828499497L207.83333333333334,146.3816252931565L207.83333333333334,146.4433934631469L207.83333333333334,146.50396966647213L207.83333333333334,146.55906433020155L207.83333333333334,146.6263733857088L207.83333333333334,146.6852345906392L207.83333333333334,146.7381437182983L207.83333333333334,146.78585353064716L210.25,146.94476134986877L210.25,147.05999492248534L210.25,147.15955491996982L210.25,147.25153241854656L210.25,147.35092179024025L210.25,147.44711168563265L210.25,147.53399129610222L210.25,147.6001165173471L210.25,147.6466260476117L210.25,147.69129057951358L210.25,147.73422768302396L212.66666666666666,147.73299297322515L212.66666666666666,147.77743543100837L212.66666666666666,147.83685004124757L212.66666666666666,147.89698567514566L212.66666666666666,147.9496895466403L212.66666666666666,147.99925242635658L212.66666666666666,148.04631199274854L212.66666666666666,148.09455856538773L212.66666666666666,148.12279386534408L212.66666666666666,148.14756933957887L212.66666666666666,148.16539139454585L215.08333333333334,148.22551036948025L215.08333333333334,148.28947578575284L215.08333333333334,148.34824535987968L215.08333333333334,148.38268477829524L215.08333333333334,148.38718332803862L215.08333333333334,148.39451660742574L215.08333333333334,148.40312676557605L215.08333333333334,148.41234318156452L215.08333333333334,148.41338655986544L215.08333333333334,148.42277272328556L217.5,148.49073172235637L217.5,148.51733891616348L217.5,148.55389312107374L217.5,148.5935250745975L217.5,148.62793883437163L217.5,148.6606823955487L217.5,148.69057507397866L219.91666666666666,148.7505044217567L219.91666666666666,148.8069569747099L219.91666666666666,148.86314075894276L219.91666666666666,148.92341823344054L219.91666666666666,148.97597878506457L219.91666666666666,149.01986795500488L222.33333333333334,149.08065338362758L222.33333333333334,149.1315471507342L222.33333333333334,149.1631824322909L222.33333333333334,149.19285660111706L222.33333333333334,149.22865799817765L222.33333333333334,149.25227695073346L222.33333333333334,149.2799996124586L222.33333333333334,149.2945782921535L222.33333333333334,149.32028716702004L222.33333333333334,149.34703687802187L222.33333333333334,149.37219620437182L222.33333333333334,149.3940241836274L224.75,149.56644966025274L224.75,149.69589063240963L224.75,149.7932704019366L224.75,149.84840893532538L224.75,149.85026965109358L224.75,149.86306195347962L224.75,149.86555549263227L224.75,149.8687587108628L224.75,149.8815115564021L224.75,149.89615529853864L224.75,149.91616069706248L227.16666666666666,150.03489269801915L227.16666666666666,150.0787339832477L227.16666666666666,150.1338350852829L227.16666666666666,150.16524461330883L227.16666666666666,150.20132927803155L227.16666666666666,150.22382654052112L227.16666666666666,150.24133024677283L229.58333333333331,150.19853727523756L229.58333333333331,150.21272869444093L229.58333333333331,150.24363239707796L229.58333333333331,150.27405284966733L229.58333333333331,150.30001922276182L229.58333333333331,150.34215962098702L229.58333333333331,150.38022074802194L229.58333333333331,150.4133446323419L229.58333333333331,150.43148674021407L232,150.53800552493632L232,150.54758830830013L232,150.5720151060597L232,150.60892534410115L232,150.64441990828485L232,150.67606636348253L232,150.70845677579896L232,150.7425907131239L232,150.77410763738774L232,150.80103969841372L234.41666666666666,150.75238630855364L234.41666666666666,150.73989672178382L234.41666666666666,150.7448465410449L234.41666666666666,150.74800645610824L234.41666666666666,150.78790029564436L234.41666666666666,150.82354897276974L234.41666666666666,150.85215587929483L234.41666666666666,150.87596939486932L234.41666666666666,150.90177819063234L234.41666666666666,150.92885040553452L234.41666666666666,150.95097838501854L234.41666666666666,150.972505763732L236.83333333333334,151.05263101437137L236.83333333333334,151.15509777844898L236.83333333333334,151.24045577633004L236.83333333333334,151.30308725417748L236.83333333333334,151.34342063150845L236.83333333333334,151.38067532953133L236.83333333333334,151.40698967683002L236.83333333333334,151.43287330290548L236.83333333333334,151.45731105343046L236.83333333333334,151.4799453841382L236.83333333333334,151.4998297002738L236.83333333333334,151.51697505301507L236.83333333333334,151.52537398228858L239.25,151.46106119920424L239.25,151.3893945909652L239.25,151.35911339884427L239.25,151.37388831764474L239.25,151.3896944827886L239.25,151.4103237803762L239.25,151.42650800271116L239.25,151.44608049094654L241.66666666666669,151.51357687232726L241.66666666666669,151.57666174425054L241.66666666666669,151.62364606364127L241.66666666666669,151.65634630381874L241.66666666666669,151.68799313963558L241.66666666666669,151.71289935105804L244.08333333333334,151.73322252633815L244.08333333333334,151.7661838336326L244.08333333333334,151.8144385271629L244.08333333333334,151.86278378019512L244.08333333333334,151.89854689961535L244.08333333333334,151.93168743167178L246.5,152.01616980220183L246.5,152.09051114965376L246.5,152.1516532959188L246.5,152.2041248941697L246.5,152.24358053785625L246.5,152.2689262017618L246.5,152.30268905063923L246.5,152.34186904625952L246.5,152.38791475882007L246.5,152.41967275775994L246.5,152.4540908231615L248.91666666666666,152.60924668889606L248.91666666666666,152.72486063432987L248.91666666666666,152.82548989247533L248.91666666666666,152.8902643662859L248.91666666666666,152.92868901186648L248.91666666666666,152.95768254263277L248.91666666666666,152.98234382938693L248.91666666666666,153.00233319673436L248.91666666666666,153.02319421749564L251.33333333333334,153.03153248207246L251.33333333333334,153.0510347434219L251.33333333333334,153.07295018202404L251.33333333333334,153.10127965587398L251.33333333333334,153.11390626821327L251.33333333333334,153.12554752133596L251.33333333333334,153.14070298396456L251.33333333333334,153.14991714616238L253.75,153.1700491758989L253.75,153.20138761118997L253.75,153.21143623513984L253.75,153.2339793015775L253.75,153.2507426549361L253.75,153.26729993766662L253.75,153.28884505595718L253.75,153.31758134745925L253.75,153.34245341500983L256.1666666666667,153.43721058049508L256.1666666666667,153.50406821841767L256.1666666666667,153.5596938186135L256.1666666666667,153.61534482147135L256.1666666666667,153.6665949761496L256.1666666666667,153.7083291035112L256.1666666666667,153.75121304522082L256.1666666666667,153.7932423793352L256.1666666666667,153.83342314584561L256.1666666666667,153.87394639860497L258.58333333333337,153.85805390466183L258.58333333333337,153.8145349540262L258.58333333333337,153.76633948548005L258.58333333333337,153.7288475395404L258.58333333333337,153.7021307170637L258.58333333333337,153.68089657262175L258.58333333333337,153.6634803286821L258.58333333333337,153.65398962137732L258.58333333333337,153.64679400647006L258.58333333333337,153.64931385657152L261,153.68205055744508L261,153.7142377537695L261,153.74377889988935L261,153.7627906929332L261,153.79126959102976L261,153.81445585110814L261,153.8312739508302L263.4166666666667,153.94586536737742L263.4166666666667,153.98306754424297L263.4166666666667,154.00379444054326L263.4166666666667,154.02583659196026L263.4166666666667,154.0472823586527L263.4166666666667,154.0662651180225L263.4166666666667,154.08751001544414L263.4166666666667,154.11047410597072L263.4166666666667,154.14331453901994L263.4166666666667,154.1745382704698L263.4166666666667,154.20146994212004L265.8333333333333,154.2412656085613L265.8333333333333,154.27586021566015L265.8333333333333,154.300456663278L265.8333333333333,154.30147065520902L265.8333333333333,154.294595431819L265.8333333333333,154.2858134991646L265.8333333333333,154.27640865270138L265.8333333333333,154.2753379596962L265.8333333333333,154.28041464483542L265.8333333333333,154.2866028946526L265.8333333333333,154.2928104405254L265.8333333333333,154.30247517272008L265.8333333333333,154.31213714645554" style="fill: none;" fill="none"></path></g></g></g></g><g opacity="0.2"><g><g><g><path stroke="rgb(204, 51, 17)" stroke-width="2px" d="M26.583333333333332,17.666620935712544L26.583333333333332,24.206018992832725L26.583333333333332,34.150879791804726L26.583333333333332,54.97215025765556L26.583333333333332,56.81497989382062L26.583333333333332,58.72151960645404L26.583333333333332,59.59185423169818L29,98.46257277897426L29,100.63461133411953L29,101.74870572771346L29,102.6422986303057L29,103.15812839780534L29,103.22033132825578L29,103.248147215162L29,103.89747997692653L29,104.3536388192858L31.416666666666668,104.81940119607108L31.416666666666668,103.13284451620919L31.416666666666668,103.22943449020386L31.416666666666668,102.71563032695225L31.416666666666668,102.1623751095363L31.416666666666668,102.46783140727452L31.416666666666668,102.81019469669887L31.416666666666668,103.12829293523515L33.833333333333336,109.13212966918945L33.833333333333336,106.21871393067497L33.833333333333336,104.83001753262111L33.833333333333336,104.7147148336683L33.833333333333336,104.44213843345642L33.833333333333336,104.44213843345642L33.833333333333336,103.79735122408186L33.833333333333336,103.67395816530501L36.25,108.20515649659293L36.25,109.20697454043797L36.25,108.13435680525643L36.25,107.64786212784904L36.25,106.69054106303624L36.25,106.62530575479781L36.25,106.73858284950256L36.25,105.6755746773311L36.25,105.45609201703752L38.666666666666664,104.20495585032872L38.666666666666664,105.64472641263689L38.666666666666664,104.61913766179765L38.666666666666664,104.25350403785706L38.666666666666664,104.7010600907462L38.666666666666664,105.14912857328142L38.666666666666664,104.88211052758354L38.666666666666664,104.67577620915004L38.666666666666664,104.80271407536098L41.083333333333336,104.50080258505685L41.083333333333336,104.02795662198747L41.083333333333336,104.22063619749886L41.083333333333336,104.81686919076103L41.083333333333336,104.78197574615479L41.083333333333336,105.05557097707475L41.083333333333336,105.11878068106515L41.083333333333336,105.17390605381557L43.5,106.45387090955461L43.5,106.3522229535239L43.5,106.90799811908177L43.5,107.5345790045602L43.5,107.44861139569963L43.5,106.75325039454869L43.5,106.73251809392656L45.916666666666664,107.87340954371861L45.916666666666664,107.26806735992432L45.916666666666664,108.14396636826652L45.916666666666664,108.02006690842765L45.916666666666664,107.83396451813834L45.916666666666664,108.12120846339634L48.33333333333333,109.90840029716492L48.33333333333333,109.69701402527946L48.33333333333333,109.5801921231406L48.33333333333333,108.90607585225786L48.33333333333333,108.5798932824816L48.33333333333333,108.6946895803724L48.33333333333333,108.49240044185093L48.33333333333333,108.26634662491935L48.33333333333333,107.98365426063538L50.75,106.94896234784807L50.75,109.26817069734847L50.75,109.54732428278243L50.75,107.44506658826555L50.75,107.90223220416478L50.75,107.90223220416478L50.75,107.99427662576949L53.166666666666664,109.2762610571725L53.166666666666664,109.2762610571725L53.166666666666664,109.32076406478882L53.166666666666664,109.38397979736328L53.166666666666664,108.95866921969822L53.166666666666664,108.78875357764107L53.166666666666664,108.921249798366L53.166666666666664,109.01430099351066L53.166666666666664,108.85146290915353L53.166666666666664,109.12151333263942L55.583333333333336,109.41178965568542L55.583333333333336,109.95442250796727L55.583333333333336,109.60497563225883L55.583333333333336,109.8745196546827L55.583333333333336,109.50989883286613L55.583333333333336,109.36476067134312L55.583333333333336,109.3364383833749L55.583333333333336,109.35059952735901L55.583333333333336,109.24793876920427L55.583333333333336,109.29952536310469L55.583333333333336,109.27676745823452L55.583333333333336,109.47601819038391L55.583333333333336,109.65200461660112L58,109.61812397411892L58,108.77156005586897L58,109.15337439945766L58,109.94936452593123L58,110.13142173630851L58,110.30336298261369L58,110.27454032216752L58,110.36000755855015L58,110.44901357378279L60.41666666666667,109.31823205947876L60.41666666666667,110.43991041183472L60.41666666666667,110.58606137548173L60.41666666666667,110.23660847118923L60.41666666666667,111.44274125780379L60.41666666666667,111.44223485674178L60.41666666666667,111.09228157997131L60.41666666666667,110.95320817402431L60.41666666666667,111.19139753069197L60.41666666666667,111.53781202861241L60.41666666666667,111.47611549922398L60.41666666666667,111.09228157997131L60.41666666666667,111.15094573157174L60.41666666666667,110.98860801969255L62.833333333333336,112.41876901899064L62.833333333333336,111.89484889166695L62.833333333333336,111.42099615505764L62.833333333333336,111.83921711785453L62.833333333333336,111.83871674537659L62.833333333333336,111.94187787600926L62.833333333333336,111.90597162927901L62.833333333333336,111.9160875933511L62.833333333333336,111.8422555242266L65.25,112.28576639720372L65.25,112.52092337608337L65.25,112.20636994498116L65.25,111.71835606438773L65.25,112.9512859072004L65.25,112.75911273275102L65.25,112.85874111311776L65.25,112.83244442939758L65.25,113.07821774482727L65.25,113.13738829748971L65.25,113.04433710234505L65.25,112.95229870932442L65.25,112.98112136977059L65.25,113.00438567570278L65.25,113.00084689685276L65.25,112.9512859072004L67.66666666666667,111.40632861001151L67.66666666666667,111.29860986982072L67.66666666666667,111.19949391910008L67.66666666666667,111.03463023049491L67.66666666666667,111.80887525422233L67.66666666666667,111.82252999714443L67.66666666666667,111.89838767051697L67.66666666666667,112.19827958515712L67.66666666666667,112.25188575472151L67.66666666666667,111.97930332592556L67.66666666666667,112.19119599887303L67.66666666666667,112.28222761835372L67.66666666666667,112.16995729718889L67.66666666666667,112.43293016297477L67.66666666666667,112.61094219344002L70.08333333333333,111.13172660555159L70.08333333333333,113.73817890030998L70.08333333333333,113.84994282041276L70.08333333333333,114.0764970098223L70.08333333333333,114.07852261407035L70.08333333333333,113.93641683033535L70.08333333333333,113.96423271724156L70.08333333333333,113.8676427432469L72.5,116.44678555216109L72.5,116.82202271052769L72.5,115.12788207190377L72.5,115.18300141607011L72.5,115.49856764929635L72.5,115.33219078608921L72.5,115.35444228989738L72.5,115.39084890910557L72.5,115.34331352370126L72.5,115.38326495034354L72.5,115.38731013025557L72.5,115.36657782963344L72.5,115.30234929493496L74.91666666666667,115.85155933243888L74.91666666666667,116.8528709752219L74.91666666666667,116.02653295653207L74.91666666666667,115.93246895926339L74.91666666666667,115.69883118356978L74.91666666666667,115.35342948777335L74.91666666666667,115.70287636348179L74.91666666666667,115.6624185357775L74.91666666666667,115.8252626487187L74.91666666666667,115.82677582332066L74.91666666666667,115.83739818845476L74.91666666666667,115.71754390852792L74.91666666666667,115.65382177489144L77.33333333333333,116.85085139955794L77.33333333333333,116.47358863694328L77.33333333333333,116.04676488467625L77.33333333333333,116.19797383035933L77.33333333333333,116.14689363752092L77.33333333333333,116.30720574515206L77.33333333333333,116.5656270299639L77.33333333333333,116.54944028173173L77.33333333333333,116.44374714578902L77.33333333333333,116.47611461366927L77.33333333333333,115.93044938359941L77.33333333333333,115.92437859943935L77.33333333333333,115.9097170829773L77.33333333333333,115.79340158190047L77.33333333333333,115.78277921676636L79.75,119.78905064719063L79.75,118.86106467247009L79.75,118.34574130603245L79.75,117.7560794694083L79.75,117.34998801776341L79.75,117.29284306934902L79.75,117.52850644929069L79.75,117.47691985539028L79.75,117.51485170636857L79.75,117.32824291501726L82.16666666666667,116.58383335386003L82.16666666666667,117.51383890424455L82.16666666666667,117.68679295267378L82.16666666666667,117.52294206619263L82.16666666666667,117.7479830810002L82.16666666666667,117.83648872375488L82.16666666666667,117.50574854442051L82.16666666666667,117.4749002797263L82.16666666666667,117.28778508731297L82.16666666666667,117.33987205369132L82.16666666666667,117.50878092220852L82.16666666666667,117.65948346682957L84.58333333333334,116.29304460116795L84.58333333333334,116.56461422783988L84.58333333333334,118.14800374848502L84.58333333333334,118.48835349082947L84.58333333333334,118.21375148636955L84.58333333333334,118.09642318316868L87,119.87299868038723L87,119.84467639241899L87,119.54276490211487L87,119.52860375813076L87,119.415833064488L87,117.9881980419159L87,117.995788029262L87,118.04484261785234L87,118.06506851741246L89.41666666666667,114.36576655932835L89.41666666666667,115.09804058074951L89.41666666666667,116.74161345618111L89.41666666666667,117.64937353134155L89.41666666666667,117.77731817109245L89.41666666666667,118.20464832442147L89.41666666666667,118.4003542491368L89.41666666666667,118.49391184534346L89.41666666666667,118.60719496863229L91.83333333333333,120.97545187813895L91.83333333333333,120.64876290730068L91.83333333333333,120.69124031066895L91.83333333333333,120.91780052866255L91.83333333333333,120.85509722573417L91.83333333333333,120.58099559375218L91.83333333333333,120.6563468660627L91.83333333333333,120.7372625214713L91.83333333333333,120.78328473227364L91.83333333333333,120.68770153181893L91.83333333333333,120.50311834471566L94.25,121.91557942117964L94.25,122.17197510174343L94.25,121.95401164463588L94.25,121.72188704354423L94.25,121.96564078330994L94.25,121.1028961454119L94.25,121.14031556674412L94.25,121.06749629974365L94.25,121.14284757205418L94.25,120.99011942318508L94.25,120.95927115849086L94.25,121.01338372911727L94.25,121.15700871603829L94.25,121.17824741772243L96.66666666666666,119.90991170065743L96.66666666666666,119.4795491695404L96.66666666666666,121.14941872869218L96.66666666666666,121.59849398476737L96.66666666666666,121.6470421722957L99.08333333333333,122.69286285127913L99.08333333333333,122.17955906050545L99.08333333333333,121.71834826469421L99.08333333333333,121.40025605474199L99.08333333333333,120.7842915058136L99.08333333333333,121.78207039833069L99.08333333333333,121.93833129746574L99.08333333333333,122.0865078653608L99.08333333333333,122.2007977621896L99.08333333333333,121.88523152896336L101.5,120.69781749589103L101.5,121.12868642807007L101.5,122.80765914916992L101.5,123.06860641070774L101.5,123.30173778533936L101.5,123.09692869867598L101.5,123.04635490689958L101.5,123.05747764451164L103.91666666666667,123.17379314558846L103.91666666666667,122.77579808235168L103.91666666666667,122.94521335193089L103.91666666666667,123.1950318472726L103.91666666666667,123.3204505102975L103.91666666666667,123.57887179510934L103.91666666666667,123.64714550971985L103.91666666666667,123.75536462238857L103.91666666666667,123.83223509788513L103.91666666666667,123.98900842666626L106.33333333333333,123.40693054880416L106.33333333333333,123.83020949363708L106.33333333333333,124.10531789915902L106.33333333333333,123.39580178260803L106.33333333333333,123.75030664035252L106.33333333333333,123.62539437838963L106.33333333333333,123.66889061246599L106.33333333333333,123.64360070228577L106.33333333333333,123.83981905664717L108.75,122.67161812101091L108.75,123.41046932765416L108.75,124.54933517319816L108.75,124.11998544420516L108.75,124.40722938946315L108.75,124.48409986495972L108.75,124.8795689514705L108.75,124.97818452971322L108.75,124.8188852242061L111.16666666666667,126.19847243172782L111.16666666666667,125.30891868046352L111.16666666666667,125.4980594771249L111.16666666666667,125.40955986295427L111.16666666666667,125.54104328155518L111.16666666666667,125.91729324204582L111.16666666666667,125.87784821646554L111.16666666666667,125.74636479786464L111.16666666666667,125.48794351305281L111.16666666666667,125.51626580102104L111.16666666666667,125.65887195723397L111.16666666666667,125.65482677732194L113.58333333333333,124.79865329606193L113.58333333333333,125.36859563418797L113.58333333333333,125.52081135341099L113.58333333333333,125.5784627028874L113.58333333333333,125.4844047342028L113.58333333333333,125.73472963060652L113.58333333333333,126.04978946277073L113.58333333333333,126.03462154524667L113.58333333333333,126.12160195623125L113.58333333333333,126.12868554251534L113.58333333333333,126.20908876827785L113.58333333333333,126.31933951377869L113.58333333333333,126.33855261121477L113.58333333333333,126.34108461652482L116,126.90040157522475L116,128.07315409183502L116,128.00083821160453L116,127.91081939424788L116,127.93661269119808L116,127.87693573747362L116,127.61497567381178L116,127.39600242887224L116,127.40257659980229L116,127.45365377834865L116,127.59778215203966L116,127.57452086039952L116,127.64076897076198L116,127.68324938842228L116,127.69842032023838L116,127.80411345618111L118.41666666666667,127.91891276836395L118.41666666666667,127.14668430600847L118.41666666666667,127.23164514132908L118.41666666666667,127.08953935759408L118.41666666666667,127.29081569399153L118.41666666666667,127.36363797528404L120.83333333333334,126.38912640299117L120.83333333333334,127.97656411784035L120.83333333333334,128.04685740811485L120.83333333333334,128.0559605700629L120.83333333333334,127.83445833410536L120.83333333333334,127.69589132922036L120.83333333333334,127.9694835458483L123.25,128.784692798342L123.25,125.0479714189257L123.25,128.18491801193784L123.25,128.493910074234L123.25,128.51666496481215L123.25,128.34826249735696L123.25,128.4433362824576L123.25,128.27442741394043L123.25,128.33460775443484L123.25,128.42867175170352L123.25,128.39175571714128L123.25,128.2835305758885L123.25,128.34573350633895L125.66666666666667,129.82950067520142L125.66666666666667,127.71612024307251L125.66666666666667,128.08124445165907L125.66666666666667,128.37203019005912L125.66666666666667,128.71794130120958L128.08333333333334,129.22719388348716L128.08333333333334,129.44009935855865L128.08333333333334,129.08761709077018L128.08333333333334,129.3283384527479L128.08333333333334,129.73189789908272L128.08333333333334,129.8810842548098L128.08333333333334,130.13394115652358L128.08333333333334,129.93721640110016L128.08333333333334,129.80320399148124L128.08333333333334,130.36151116234916L128.08333333333334,130.2274957384382L130.5,131.22678780555725L130.5,130.1688346011298L130.5,130.14456050736564L130.5,130.9228537252971L130.5,130.8383992910385L130.5,131.25561348029544L130.5,131.2035265139171L130.5,131.25359089033944L130.5,130.8920054606029L130.5,130.93853105817522L130.5,131.02955966336387L132.91666666666666,132.70398080348969L132.91666666666666,131.7036759342466L132.91666666666666,131.35625164849418L132.91666666666666,130.8368831021445L132.91666666666666,131.11452049868447L132.91666666666666,130.94207285131728L132.91666666666666,131.29556490693773L132.91666666666666,130.98910183565957L132.91666666666666,131.18329760006498L132.91666666666666,131.13980438028062L135.33333333333334,131.8862395456859L135.33333333333334,132.84052220412661L135.33333333333334,132.5502428667886L135.33333333333334,132.75353877885001L135.33333333333334,132.56794278962272L135.33333333333334,132.78337725571225L135.33333333333334,132.23063145365035L135.33333333333334,132.37324363844735L135.33333333333334,132.06475797721316L135.33333333333334,132.24580238546645L135.33333333333334,132.3565535034452L135.33333333333334,132.34542775154114L135.33333333333334,132.21546052183425L135.33333333333334,132.07891610690524L135.33333333333334,132.08650307995933L135.33333333333334,131.99850986685072L137.75,131.98839390277863L137.75,132.59828465325492L137.75,132.65290362494332L137.75,133.600612112454L137.75,133.29718141896385L137.75,133.10045967783248L137.75,133.1414239065988L137.75,132.9330700125013L137.75,132.88098003183092L137.75,132.73128727504184L137.75,132.53810431276048L137.75,132.58614911351884L137.75,132.69942922251565L137.75,132.7616321529661L140.16666666666666,135.06869893414634L140.16666666666666,134.56298513071877L140.16666666666666,133.83374650137765L140.16666666666666,133.7745759487152L140.16666666666666,133.59757672037398L140.16666666666666,133.88684626988004L140.16666666666666,133.55256731169564L140.16666666666666,133.58189938749587L140.16666666666666,133.59403794152396L140.16666666666666,133.6997310774667L140.16666666666666,133.5576252937317L140.16666666666666,133.62033462524414L140.16666666666666,133.6693892138345L142.58333333333331,135.4307907649449L142.58333333333331,134.42442114012582L142.58333333333331,134.31316362108504L142.58333333333331,134.596362386431L142.58333333333331,134.61810748917716L142.58333333333331,134.65350733484541L142.58333333333331,134.69396516254972L142.58333333333331,134.57815606253487L142.58333333333331,134.6115333182471L142.58333333333331,134.66615228993552L142.58333333333331,134.66412969997953L142.58333333333331,134.67575883865356L142.58333333333331,134.68941358157565L142.58333333333331,134.85276108128684L145,135.3741522175925L145,134.48207248960222L145,134.05878751618522L145,134.63985560621535L145,134.8052226815905L145,134.84466770717074L145,134.87046100412095L145,134.89119330474307L145,134.90636423655917L147.41666666666666,130.51980068002428L147.41666666666666,134.72076824733188L147.41666666666666,135.2194014787674L147.41666666666666,135.12078891481673L147.41666666666666,134.69598775250572L147.41666666666666,134.9508672441755L147.41666666666666,134.8340483563287L147.41666666666666,134.76375506605422L147.41666666666666,134.8087614604405L147.41666666666666,135.56935776982988L147.41666666666666,135.54710626602173L147.41666666666666,135.49552268641335L147.41666666666666,135.50917742933547L147.41666666666666,135.445458309991L149.83333333333334,136.97979324204582L149.83333333333334,135.99972030094693L149.83333333333334,136.50341151441847L149.83333333333334,136.57370480469297L149.83333333333334,136.5519597019468L149.83333333333334,136.52667280605863L152.25,135.37769099644254L152.25,135.7766988618033L152.25,135.73927642617906L152.25,135.82878884247373L152.25,136.2540933915547L152.25,136.60152069159915L152.25,136.52009863512856L152.25,136.68496232373374L154.66666666666666,137.70549309253693L154.66666666666666,136.96310612133573L154.66666666666666,137.00963171890805L154.66666666666666,136.83920666149686L154.66666666666666,136.8806742770331L154.66666666666666,137.12544081892287L154.66666666666666,137.35503341470445L154.66666666666666,137.35402362687248L157.08333333333331,135.9678592341287L157.08333333333331,136.45486332689012L157.08333333333331,137.96846595832278L157.08333333333331,137.84507289954593L157.08333333333331,137.94469826562064L157.08333333333331,137.79247651781355L157.08333333333331,137.84861167839597L157.08333333333331,137.6149708884103L157.08333333333331,137.55276795795987L157.08333333333331,137.55074536800385L157.08333333333331,137.51989710330963L157.08333333333331,137.57856125491006L157.08333333333331,137.569458092962L157.08333333333331,137.718641434397L159.5,137.90575662681033L159.5,137.82736996241977L159.5,136.3233768939972L159.5,137.4576941728592L159.5,137.8435536963599L159.5,137.60435153756822L159.5,137.70701229572296L159.5,137.80461507184165L159.5,137.82079579148973L159.5,137.78185716697146L159.5,137.86074721813202L159.5,137.78994752679552L159.5,137.86631160123008L161.91666666666666,136.02601698466708L161.91666666666666,138.2956643445151L161.91666666666666,138.27290643964494L161.91666666666666,138.10248138223375L161.91666666666666,137.713586466653L161.91666666666666,137.63621260438646L161.91666666666666,137.8445664984839L161.91666666666666,138.07668808528354L161.91666666666666,138.3239836181913L161.91666666666666,138.5935276406152L161.91666666666666,138.56116318702698L161.91666666666666,138.5399214710508L161.91666666666666,138.5217181614467L164.33333333333334,134.71217148644584L164.33333333333334,136.77548452786039L164.33333333333334,138.0584817613874L164.33333333333334,138.21727768012454L164.33333333333334,138.60010181154524L164.33333333333334,138.74322039740426L164.33333333333334,139.06283181054252L164.33333333333334,139.10784121922086L164.33333333333334,139.2019022021975L164.33333333333334,139.26359873158592L164.33333333333334,139.0774963412966L166.75,139.55893605096L166.75,139.7516156264714L166.75,139.72076434748513L166.75,139.29242440632413L166.75,139.3308596440724L166.75,139.6843547139849L166.75,139.80319619178772L166.75,139.83151847975594L169.16666666666669,140.85407183851515L169.16666666666669,140.48136065687453L169.16666666666669,140.64672773224967L169.16666666666669,140.94307785374778L169.16666666666669,140.99820021220614L169.16666666666669,141.02298070703233L169.16666666666669,141.07001270566667L169.16666666666669,141.12816744191306L169.16666666666669,141.118054492133L169.16666666666669,141.14131578377317L169.16666666666669,141.1433413880212L171.58333333333334,140.49703798975264L171.58333333333334,140.92992951188768L171.58333333333334,140.7797303540366L171.58333333333334,140.84395587444305L171.58333333333334,140.79894948005676L174,142.2796812568392L174,141.3026406935283L174,141.41035641942705L174,141.111986722265L174,141.2121184894017L174,141.23639258316587L174,141.24397654192788L174,141.03865803991044L174,141.30314709459032L176.41666666666666,139.27927606446403L176.41666666666666,140.67403721809387L176.41666666666666,141.35068247999465L176.41666666666666,141.6268036876406L176.41666666666666,141.64652620043074L176.41666666666666,141.66220353330885L176.41666666666666,141.86802843638827L176.41666666666666,141.96107963153293L176.41666666666666,141.80178032602583L176.41666666666666,141.88269296714236L176.41666666666666,141.91961201599668L176.41666666666666,141.69052280698503L178.83333333333334,143.53182721138L178.83333333333334,143.56823985917228L178.83333333333334,143.25065103599002L178.83333333333334,143.43523723738534L178.83333333333334,142.959358896528L178.83333333333334,143.01245866503035L178.83333333333334,142.9012041602816L178.83333333333334,142.92851063183377L178.83333333333334,142.98768118449618L178.83333333333334,142.9745328426361L178.83333333333334,143.12725797721316L181.25,143.3730343069349L181.25,143.25722520692008L181.25,143.16215142181943L181.25,143.1899642944336L181.25,143.16468041283744L181.25,143.27441872869218L181.25,142.9487395456859L183.66666666666666,143.22283816337585L183.66666666666666,142.8936171872275L183.66666666666666,142.65492142949785L183.66666666666666,142.92042027200972L183.66666666666666,142.8632753235953L183.66666666666666,142.6331733124597L183.66666666666666,142.81270153181893L183.66666666666666,143.01600045817239L183.66666666666666,143.01144887719835L183.66666666666666,143.101971081325L183.66666666666666,142.82079490593503L183.66666666666666,142.7929790190288L183.66666666666666,142.7661759342466L183.66666666666666,142.8081499508449L186.08333333333334,143.45748874119352L186.08333333333334,142.76213075433458L186.08333333333334,142.7029632159642L186.08333333333334,142.68880207198006L186.08333333333334,143.8418320758002L186.08333333333334,143.36595373494285L186.08333333333334,143.47518866402763L186.08333333333334,143.4564759390695L186.08333333333334,143.42967285428728L186.08333333333334,143.40691796370913L188.5,143.84891264779228L188.5,144.11946947234017L188.5,143.77912274428775L188.5,143.43827262946536L188.5,143.49744016783578L188.5,143.82868373394012L188.5,143.8681287595204L188.5,143.97483469758714L190.91666666666666,144.29798488957542L190.91666666666666,144.33035235745567L190.91666666666666,144.22061102730888L190.91666666666666,144.234772171293L190.91666666666666,144.28736553873335L190.91666666666666,144.59484141213554L190.91666666666666,144.64895096846988L190.91666666666666,144.66159290926797L190.91666666666666,144.55236099447524L190.91666666666666,144.66159290926797L190.91666666666666,144.6105157307216L193.33333333333331,144.7217732497624L193.33333333333331,144.9892976965223L193.33333333333331,145.1617453438895L193.33333333333331,144.91849800518582L193.33333333333331,144.80724048614502L193.33333333333331,145.1718613079616L193.33333333333331,145.15365498406547L195.75,145.6133495909827L195.75,145.50209207194192L195.75,145.23052244527L195.75,145.25125776018416L195.75,145.28311581271035L195.75,145.39336354391915L195.75,145.37970880099704L195.75,145.27502545288633L195.75,145.1602291549955L195.75,145.1850096498217L195.75,145.13443585804532L198.16666666666666,144.18925636155265L198.16666666666666,144.84112414291928L198.16666666666666,145.53597572871615L198.16666666666666,145.74129423073362L198.16666666666666,145.76253293241774L198.16666666666666,146.11653440339225L198.16666666666666,146.08973131861006L198.16666666666666,146.12917634419034L198.16666666666666,146.14384388923645L198.16666666666666,146.08821512971605L200.58333333333334,146.51604866981506L200.58333333333334,145.22496107646396L200.58333333333334,145.52080178260803L200.58333333333334,145.78883263042997L200.58333333333334,145.8662064926965L200.58333333333334,145.61941736085075L200.58333333333334,145.82321967397417L200.58333333333334,145.96886423655917L200.58333333333334,145.88238721234458L200.58333333333334,146.0538250718798L203,146.37090749400002L203,146.31426894664764L203,147.13605538436343L203,147.1749940088817L203,147.12543301922935L203,147.26197743415833L203,147.2756321770804L203,147.2402323314122L203,147.360589998109L203,147.22657758849007L203,147.02378506319863L205.41666666666669,146.510990687779L205.41666666666669,146.6075836760657L205.41666666666669,146.70923163209642L205.41666666666669,146.68495753833224L205.41666666666669,146.8751051085336L205.41666666666669,146.87611791065763L205.41666666666669,146.78458290440696L205.41666666666669,146.89432423455375L207.83333333333334,147.38183171408517L207.83333333333334,147.6169886929648L207.83333333333334,147.6549175296511L207.83333333333334,147.60586294106076L207.83333333333334,147.90524544034685L207.83333333333334,147.80359748431613L207.83333333333334,147.74341714382172L207.83333333333334,147.69233996527535L210.25,149.96400991507937L210.25,149.24943280220032L210.25,149.05119487217496L210.25,148.99910489150454L210.25,149.23931985242027L210.25,149.27471969808852L210.25,149.1847038950239L210.25,148.8564957209996L210.25,148.53030712263924L210.25,148.53991668564933L210.25,148.5500326497214L212.66666666666666,147.70953348704745L212.66666666666666,148.6218421288899L212.66666666666666,148.96572763579232L212.66666666666666,149.03956271920885L212.66666666666666,148.95106310503823L212.66666666666666,148.94094714096616L212.66666666666666,148.94044375419617L212.66666666666666,149.01124344553267L212.66666666666666,148.65926456451416L212.66666666666666,148.6183033500399L212.66666666666666,148.50401043891907L215.08333333333334,149.36777089323317L215.08333333333334,149.5048186949321L215.08333333333334,149.46486726828982L215.08333333333334,149.03703372819083L215.08333333333334,148.47265577316284L215.08333333333334,148.53384891578128L215.08333333333334,148.56671977043152L215.08333333333334,148.58745508534568L215.08333333333334,148.43321074758256L215.08333333333334,148.6011098282678L217.5,149.78195270470212L217.5,149.02287559849876L217.5,149.2484230143683L217.5,149.34653219154904L217.5,149.28180027008057L217.5,149.28281005791257L217.5,149.2585359641484L219.91666666666666,149.88916202953885L219.91666666666666,149.87955548082078L219.91666666666666,149.93063265936715L219.91666666666666,150.0686902488981L219.91666666666666,149.97462926592146L219.91666666666666,149.85376218387057L222.33333333333334,150.23557652745927L222.33333333333334,150.09852872576033L222.33333333333334,149.76425278186798L222.33333333333334,149.75666580881392L222.33333333333334,149.90888454232896L222.33333333333334,149.70103704929352L222.33333333333334,149.80673018523623L222.33333333333334,149.5715732063566L222.33333333333334,149.80875578948428L222.33333333333334,149.8552813870566L222.33333333333334,149.85022340502059L222.33333333333334,149.80875578948428L224.75,152.84253371613366L224.75,152.15526910339082L224.75,151.64348602294922L224.75,150.89604106971194L224.75,149.8856232506888L224.75,150.1061156988144L224.75,149.91293273653304L224.75,149.92961985724313L224.75,150.12381562164853L224.75,150.17438639913286L224.75,150.29626326901572L227.16666666666666,152.2908007161958L227.16666666666666,150.91171840259005L227.16666666666666,151.18075602395194L227.16666666666666,150.762025645801L227.16666666666666,150.8869379077639L227.16666666666666,150.65127452782224L227.16666666666666,150.5739006655557L229.58333333333331,149.38547081606728L229.58333333333331,150.48236565930503L229.58333333333331,150.83080274718148L229.58333333333331,150.85204144886563L229.58333333333331,150.79338031155723L229.58333333333331,151.14282718726565L229.58333333333331,151.1033821616854L229.58333333333331,151.042698434421L229.58333333333331,150.77618678978513L232,152.5618624346597L232,150.7296611922128L232,151.03612426349093L232,151.31021986688887L232,151.31881662777494L232,151.27734901223863L232,151.32387460981096L232,151.39113552229745L232,151.37292919840132L232,151.31274885790688L234.41666666666666,149.82797190121244L234.41666666666666,150.50259457315718L234.41666666666666,150.83889310700553L234.41666666666666,150.80804484231132L234.41666666666666,151.54588324683053L234.41666666666666,151.5008738381522L234.41666666666666,151.39568710327148L234.41666666666666,151.328426190785L234.41666666666666,151.39214531012942L234.41666666666666,151.44322248867581L234.41666666666666,151.3714099952153L234.41666666666666,151.3815259592874L236.83333333333334,152.57501077651978L236.83333333333334,153.1019662959235L236.83333333333334,152.8622577360698L236.83333333333334,152.4930853332792L236.83333333333334,152.1097548007965L236.83333333333334,152.08851459196637L236.83333333333334,151.90696227550507L236.83333333333334,151.9246621983392L236.83333333333334,151.92162831340517L236.83333333333334,151.90999766758512L236.83333333333334,151.87763170685088L236.83333333333334,151.8427367550986L236.83333333333334,151.6849536384855L239.25,150.23911832060134L239.25,150.02772903442383L239.25,150.78377074854714L239.25,151.6546117748533L239.25,151.69001162052155L239.25,151.80228043454034L239.25,151.73400822707583L239.25,151.81795776741845L241.66666666666669,152.79600811856133L241.66666666666669,152.77527431079318L241.66666666666669,152.51634813206536L241.66666666666669,152.27765086718966L241.66666666666669,152.28928302015578L241.66666666666669,152.18611736808504L244.08333333333334,152.1193628566606L244.08333333333334,152.3924486722265L244.08333333333334,152.7312777042389L244.08333333333334,152.78134358780724L244.08333333333334,152.57804616859983L244.08333333333334,152.5613575407437L246.5,153.62133484227317L246.5,153.50299675124032L246.5,153.313354074955L246.5,153.2010852609362L246.5,152.99323776790072L246.5,152.75049381596702L246.5,152.9441831793104L246.5,153.08628896304538L246.5,153.26278329747063L246.5,153.02307473761695L246.5,153.10803406579154L248.91666666666666,155.55720813785283L248.91666666666666,154.92152559757233L248.91666666666666,154.73744579723905L248.91666666666666,154.12097936868668L248.91666666666666,153.65875727789742L248.91666666666666,153.50855962719237L248.91666666666666,153.45090827771594L248.91666666666666,153.38213117633546L248.91666666666666,153.4195536119597L251.33333333333334,153.18995950903212L251.33333333333334,153.42157770906175L251.33333333333334,153.48934351546424L251.33333333333334,153.63953965902328L251.33333333333334,153.3538119026593L251.33333333333334,153.34673133066724L251.33333333333334,153.4286567739078L251.33333333333334,153.32498622792107L253.75,153.55255774089267L253.75,153.79681788172041L253.75,153.4023600901876L253.75,153.66229756389345L253.75,153.5692463687488L253.75,153.58188830954688L253.75,153.6982023034777L253.75,153.86357088599885L253.75,153.81502269847053L256.1666666666667,155.23759672471454L256.1666666666667,154.7743633389473L256.1666666666667,154.61658022233416L256.1666666666667,154.67271387577057L256.1666666666667,154.64034791503633L256.1666666666667,154.50127752338136L256.1666666666667,154.56600793770383L256.1666666666667,154.591799727508L256.1666666666667,154.59685770954405L256.1666666666667,154.64388820103238L258.58333333333337,153.5560965197427L258.58333333333337,152.9876748919487L258.58333333333337,152.85062558310372L258.58333333333337,153.0165005666869L258.58333333333337,153.19451109000613L258.58333333333337,153.27744782822472L258.58333333333337,153.33257169382912L258.58333333333337,153.47366618258613L258.58333333333337,153.5100773232324L258.58333333333337,153.6971910084997L261,154.30404787404197L261,154.32579448393415L261,154.305060676166L261,154.12401476076673L261,154.33236865486418L261,154.25499479259764L261,154.1508178455489L263.4166666666667,156.12310228177478L263.4166666666667,154.6899089046887L263.4166666666667,154.39760547024864L263.4166666666667,154.44463746888297L263.4166666666667,154.45475192580903L263.4166666666667,154.42693754604886L263.4166666666667,154.4911630664553L263.4166666666667,154.54679182597567L263.4166666666667,154.76728276695525L263.4166666666667,154.76778916801726L263.4166666666667,154.71317170347487L265.8333333333333,154.99738327094485L265.8333333333333,154.9331577505384L265.8333333333333,154.76778916801726L265.8333333333333,154.32073650189807L265.8333333333333,154.163966187409L265.8333333333333,154.11895677873065L265.8333333333333,154.0977165699005L265.8333333333333,154.25499479259764L265.8333333333333,154.37687166248048L265.8333333333333,154.40417964117867L265.8333333333333,154.41075381210874L265.8333333333333,154.48610508441925L265.8333333333333,154.49571464742934" style="fill: none;" fill="none"></path></g></g></g></g></g></g><g transform="translate(40, 177)" clip-path="url(#clip_1)"><clipPath id="clip_1"><rect width="290" height="23"></rect></clipPath><g><g><line x1="0" y1="0" x2="0" y2="5" style="visibility: inherit;" fill="rgb(0, 0, 0)" stroke="rgb(204, 204, 204)" stroke-width="1px"></line><line x1="24.166666666666664" y1="0" x2="24.166666666666664" y2="5" style="visibility: inherit;" fill="rgb(0, 0, 0)" stroke="rgb(204, 204, 204)" stroke-width="1px"></line><line x1="48.33333333333333" y1="0" x2="48.33333333333333" y2="5" style="visibility: inherit;" fill="rgb(0, 0, 0)" stroke="rgb(204, 204, 204)" stroke-width="1px"></line><line x1="72.5" y1="0" x2="72.5" y2="5" style="visibility: inherit;" fill="rgb(0, 0, 0)" stroke="rgb(204, 204, 204)" stroke-width="1px"></line><line x1="96.66666666666666" y1="0" x2="96.66666666666666" y2="5" style="visibility: inherit;" fill="rgb(0, 0, 0)" stroke="rgb(204, 204, 204)" stroke-width="1px"></line><line x1="120.83333333333334" y1="0" x2="120.83333333333334" y2="5" style="visibility: inherit;" fill="rgb(0, 0, 0)" stroke="rgb(204, 204, 204)" stroke-width="1px"></line><line x1="145" y1="0" x2="145" y2="5" style="visibility: inherit;" fill="rgb(0, 0, 0)" stroke="rgb(204, 204, 204)" stroke-width="1px"></line><line x1="169.16666666666669" y1="0" x2="169.16666666666669" y2="5" style="visibility: inherit;" fill="rgb(0, 0, 0)" stroke="rgb(204, 204, 204)" stroke-width="1px"></line><line x1="193.33333333333331" y1="0" x2="193.33333333333331" y2="5" style="visibility: inherit;" fill="rgb(0, 0, 0)" stroke="rgb(204, 204, 204)" stroke-width="1px"></line><line x1="217.5" y1="0" x2="217.5" y2="5" style="visibility: inherit;" fill="rgb(0, 0, 0)" stroke="rgb(204, 204, 204)" stroke-width="1px"></line><line x1="241.66666666666669" y1="0" x2="241.66666666666669" y2="5" style="visibility: inherit;" fill="rgb(0, 0, 0)" stroke="rgb(204, 204, 204)" stroke-width="1px"></line><line x1="265.8333333333333" y1="0" x2="265.8333333333333" y2="5" style="visibility: inherit;" fill="rgb(0, 0, 0)" stroke="rgb(204, 204, 204)" stroke-width="1px"></line><line x1="290" y1="0" x2="290" y2="5" style="visibility: inherit;" fill="rgb(0, 0, 0)" stroke="rgb(204, 204, 204)" stroke-width="1px"></line></g><g transform="translate(0, 8)"><text x="0" y="0" dx="0em" dy="0.95em" style="text-anchor: middle; visibility: hidden; font-family: Roboto, sans-serif; font-size: 12px; font-weight: 200;" fill="rgb(33, 33, 33)" stroke="none" stroke-width="1px">-10</text><text x="24.166666666666664" y="0" dx="0em" dy="0.95em" style="text-anchor: middle; visibility: inherit; font-family: Roboto, sans-serif; font-size: 12px; font-weight: 200;" fill="rgb(33, 33, 33)" stroke="none" stroke-width="1px">0</text><text x="48.33333333333333" y="0" dx="0em" dy="0.95em" style="text-anchor: middle; visibility: inherit; font-family: Roboto, sans-serif; font-size: 12px; font-weight: 200;" fill="rgb(33, 33, 33)" stroke="none" stroke-width="1px">10</text><text x="72.5" y="0" dx="0em" dy="0.95em" style="text-anchor: middle; visibility: inherit; font-family: Roboto, sans-serif; font-size: 12px; font-weight: 200;" fill="rgb(33, 33, 33)" stroke="none" stroke-width="1px">20</text><text x="96.66666666666666" y="0" dx="0em" dy="0.95em" style="text-anchor: middle; visibility: inherit; font-family: Roboto, sans-serif; font-size: 12px; font-weight: 200;" fill="rgb(33, 33, 33)" stroke="none" stroke-width="1px">30</text><text x="120.83333333333334" y="0" dx="0em" dy="0.95em" style="text-anchor: middle; visibility: inherit; font-family: Roboto, sans-serif; font-size: 12px; font-weight: 200;" fill="rgb(33, 33, 33)" stroke="none" stroke-width="1px">40</text><text x="145" y="0" dx="0em" dy="0.95em" style="text-anchor: middle; visibility: inherit; font-family: Roboto, sans-serif; font-size: 12px; font-weight: 200;" fill="rgb(33, 33, 33)" stroke="none" stroke-width="1px">50</text><text x="169.16666666666669" y="0" dx="0em" dy="0.95em" style="text-anchor: middle; visibility: inherit; font-family: Roboto, sans-serif; font-size: 12px; font-weight: 200;" fill="rgb(33, 33, 33)" stroke="none" stroke-width="1px">60</text><text x="193.33333333333331" y="0" dx="0em" dy="0.95em" style="text-anchor: middle; visibility: inherit; font-family: Roboto, sans-serif; font-size: 12px; font-weight: 200;" fill="rgb(33, 33, 33)" stroke="none" stroke-width="1px">70</text><text x="217.5" y="0" dx="0em" dy="0.95em" style="text-anchor: middle; visibility: inherit; font-family: Roboto, sans-serif; font-size: 12px; font-weight: 200;" fill="rgb(33, 33, 33)" stroke="none" stroke-width="1px">80</text><text x="241.66666666666669" y="0" dx="0em" dy="0.95em" style="text-anchor: middle; visibility: inherit; font-family: Roboto, sans-serif; font-size: 12px; font-weight: 200;" fill="rgb(33, 33, 33)" stroke="none" stroke-width="1px">90</text><text x="265.8333333333333" y="0" dx="0em" dy="0.95em" style="text-anchor: middle; visibility: inherit; font-family: Roboto, sans-serif; font-size: 12px; font-weight: 200;" fill="rgb(33, 33, 33)" stroke="none" stroke-width="1px">100</text><text x="290" y="0" dx="0em" dy="0.95em" style="text-anchor: middle; visibility: hidden; font-family: Roboto, sans-serif; font-size: 12px; font-weight: 200;" fill="rgb(33, 33, 33)" stroke="none" stroke-width="1px">110</text></g><line x1="0" y1="0" x2="290" y2="0" fill="rgb(0, 0, 0)" stroke="rgb(204, 204, 204)" stroke-width="1px"></line></g></g></g></g></svg>