<svg viewBox="0 0 330 200" xmlns="http://www.w3.org/2000/svg"><g><g><g><g><g><line x1="30" y1="177" x2="25" y2="177" style="visibility: inherit;" fill="rgb(0, 0, 0)" stroke="rgb(204, 204, 204)" stroke-width="1px"></line><line x1="30" y1="160.9090909090909" x2="25" y2="160.9090909090909" style="visibility: inherit;" fill="rgb(0, 0, 0)" stroke="rgb(204, 204, 204)" stroke-width="1px"></line><line x1="30" y1="144.8181818181818" x2="25" y2="144.8181818181818" style="visibility: inherit;" fill="rgb(0, 0, 0)" stroke="rgb(204, 204, 204)" stroke-width="1px"></line><line x1="30" y1="128.72727272727272" x2="25" y2="128.72727272727272" style="visibility: inherit;" fill="rgb(0, 0, 0)" stroke="rgb(204, 204, 204)" stroke-width="1px"></line><line x1="30" y1="112.63636363636364" x2="25" y2="112.63636363636364" style="visibility: inherit;" fill="rgb(0, 0, 0)" stroke="rgb(204, 204, 204)" stroke-width="1px"></line><line x1="30" y1="96.54545454545453" x2="25" y2="96.54545454545453" style="visibility: inherit;" fill="rgb(0, 0, 0)" stroke="rgb(204, 204, 204)" stroke-width="1px"></line><line x1="30" y1="80.45454545454547" x2="25" y2="80.45454545454547" style="visibility: inherit;" fill="rgb(0, 0, 0)" stroke="rgb(204, 204, 204)" stroke-width="1px"></line><line x1="30" y1="64.36363636363636" x2="25" y2="64.36363636363636" style="visibility: inherit;" fill="rgb(0, 0, 0)" stroke="rgb(204, 204, 204)" stroke-width="1px"></line><line x1="30" y1="48.272727272727266" x2="25" y2="48.272727272727266" style="visibility: inherit;" fill="rgb(0, 0, 0)" stroke="rgb(204, 204, 204)" stroke-width="1px"></line><line x1="30" y1="32.18181818181817" x2="25" y2="32.18181818181817" style="visibility: inherit;" fill="rgb(0, 0, 0)" stroke="rgb(204, 204, 204)" stroke-width="1px"></line><line x1="30" y1="16.090909090909097" x2="25" y2="16.090909090909097" style="visibility: inherit;" fill="rgb(0, 0, 0)" stroke="rgb(204, 204, 204)" stroke-width="1px"></line><line x1="30" y1="0" x2="25" y2="0" style="visibility: inherit;" fill="rgb(0, 0, 0)" stroke="rgb(204, 204, 204)" stroke-width="1px"></line></g><g transform="translate(20, 0)"><text x="0" y="177" dx="0em" dy="0.3em" style="text-anchor: end; visibility: hidden; font-family: Roboto, sans-serif; font-size: 12px; font-weight: 200;" fill="rgb(33, 33, 33)" stroke="none" stroke-width="1px">-2</text><text x="0" y="160.9090909090909" dx="0em" dy="0.3em" style="text-anchor: end; visibility: inherit; font-family: Roboto, sans-serif; font-size: 12px; font-weight: 200;" fill="rgb(33, 33, 33)" stroke="none" stroke-width="1px">0</text><text x="0" y="144.8181818181818" dx="0em" dy="0.3em" style="text-anchor: end; visibility: hidden; font-family: Roboto, sans-serif; font-size: 12px; font-weight: 200;" fill="rgb(33, 33, 33)" stroke="none" stroke-width="1px">2</text><text x="0" y="128.72727272727272" dx="0em" dy="0.3em" style="text-anchor: end; visibility: inherit; font-family: Roboto, sans-serif; font-size: 12px; font-weight: 200;" fill="rgb(33, 33, 33)" stroke="none" stroke-width="1px">4</text><text x="0" y="112.63636363636364" dx="0em" dy="0.3em" style="text-anchor: end; visibility: hidden; font-family: Roboto, sans-serif; font-size: 12px; font-weight: 200;" fill="rgb(33, 33, 33)" stroke="none" stroke-width="1px">6</text><text x="0" y="96.54545454545453" dx="0em" dy="0.3em" style="text-anchor: end; visibility: inherit; font-family: Roboto, sans-serif; font-size: 12px; font-weight: 200;" fill="rgb(33, 33, 33)" stroke="none" stroke-width="1px">8</text><text x="0" y="80.45454545454547" dx="0em" dy="0.3em" style="text-anchor: end; visibility: hidden; font-family: Roboto, sans-serif; font-size: 12px; font-weight: 200;" fill="rgb(33, 33, 33)" stroke="none" stroke-width="1px">10</text><text x="0" y="64.36363636363636" dx="0em" dy="0.3em" style="text-anchor: end; visibility: inherit; font-family: Roboto, sans-serif; font-size: 12px; font-weight: 200;" fill="rgb(33, 33, 33)" stroke="none" stroke-width="1px">12</text><text x="0" y="48.272727272727266" dx="0em" dy="0.3em" style="text-anchor: end; visibility: hidden; font-family: Roboto, sans-serif; font-size: 12px; font-weight: 200;" fill="rgb(33, 33, 33)" stroke="none" stroke-width="1px">14</text><text x="0" y="32.18181818181817" dx="0em" dy="0.3em" style="text-anchor: end; visibility: inherit; font-family: Roboto, sans-serif; font-size: 12px; font-weight: 200;" fill="rgb(33, 33, 33)" stroke="none" stroke-width="1px">16</text><text x="0" y="16.090909090909097" dx="0em" dy="0.3em" style="text-anchor: end; visibility: hidden; font-family: Roboto, sans-serif; font-size: 12px; font-weight: 200;" fill="rgb(33, 33, 33)" stroke="none" stroke-width="1px">18</text><text x="0" y="0" dx="0em" dy="0.3em" style="text-anchor: end; visibility: hidden; font-family: Roboto, sans-serif; font-size: 12px; font-weight: 200;" fill="rgb(33, 33, 33)" stroke="none" stroke-width="1px">20</text></g><line x1="30" y1="0" x2="30" y2="177" fill="rgb(0, 0, 0)" stroke="rgb(204, 204, 204)" stroke-width="1px"></line></g></g><g transform="translate(30, 0)" clip-path="url(#clip_0)"><clipPath id="clip_0"><rect width="300" height="177"></rect></clipPath><g><g><g><line x1="0" y1="0" x2="0" y2="177" fill="rgb(0, 0, 0)" stroke="rgb(66, 66, 66)" stroke-width="1px" opacity="0.25"></line><line x1="25" y1="0" x2="25" y2="177" fill="rgb(0, 0, 0)" stroke="rgb(66, 66, 66)" stroke-width="1px" opacity="0.25"></line><line x1="50" y1="0" x2="50" y2="177" fill="rgb(0, 0, 0)" stroke="rgb(66, 66, 66)" stroke-width="1px" opacity="0.25"></line><line x1="75" y1="0" x2="75" y2="177" fill="rgb(0, 0, 0)" stroke="rgb(66, 66, 66)" stroke-width="1px" opacity="0.25"></line><line x1="100" y1="0" x2="100" y2="177" fill="rgb(0, 0, 0)" stroke="rgb(66, 66, 66)" stroke-width="1px" opacity="0.25"></line><line x1="125" y1="0" x2="125" y2="177" fill="rgb(0, 0, 0)" stroke="rgb(66, 66, 66)" stroke-width="1px" opacity="0.25"></line><line x1="150" y1="0" x2="150" y2="177" fill="rgb(0, 0, 0)" stroke="rgb(66, 66, 66)" stroke-width="1px" opacity="0.25"></line><line x1="175" y1="0" x2="175" y2="177" fill="rgb(0, 0, 0)" stroke="rgb(66, 66, 66)" stroke-width="1px" opacity="0.25"></line><line x1="200" y1="0" x2="200" y2="177" fill="rgb(0, 0, 0)" stroke="rgb(66, 66, 66)" stroke-width="1px" opacity="0.25"></line><line x1="225" y1="0" x2="225" y2="177" fill="rgb(0, 0, 0)" stroke="rgb(66, 66, 66)" stroke-width="1px" opacity="0.25"></line><line x1="250" y1="0" x2="250" y2="177" fill="rgb(0, 0, 0)" stroke="rgb(66, 66, 66)" stroke-width="1px" opacity="0.25"></line><line x1="275" y1="0" x2="275" y2="177" fill="rgb(0, 0, 0)" stroke="rgb(66, 66, 66)" stroke-width="1px" opacity="0.25"></line><line x1="300" y1="0" x2="300" y2="177" fill="rgb(0, 0, 0)" stroke="rgb(66, 66, 66)" stroke-width="1px" opacity="0.25"></line></g><g><line x1="0" y1="177" x2="300" y2="177" fill="rgb(0, 0, 0)" stroke="rgb(66, 66, 66)" stroke-width="1px" opacity="0.25"></line><line x1="0" y1="160.9090909090909" x2="300" y2="160.9090909090909" fill="rgb(0, 0, 0)" stroke="rgb(66, 66, 66)" stroke-width="1px" opacity="0.25"></line><line x1="0" y1="144.8181818181818" x2="300" y2="144.8181818181818" fill="rgb(0, 0, 0)" stroke="rgb(66, 66, 66)" stroke-width="1px" opacity="0.25"></line><line x1="0" y1="128.72727272727272" x2="300" y2="128.72727272727272" fill="rgb(0, 0, 0)" stroke="rgb(66, 66, 66)" stroke-width="1px" opacity="0.25"></line><line x1="0" y1="112.63636363636364" x2="300" y2="112.63636363636364" fill="rgb(0, 0, 0)" stroke="rgb(66, 66, 66)" stroke-width="1px" opacity="0.25"></line><line x1="0" y1="96.54545454545453" x2="300" y2="96.54545454545453" fill="rgb(0, 0, 0)" stroke="rgb(66, 66, 66)" stroke-width="1px" opacity="0.25"></line><line x1="0" y1="80.45454545454547" x2="300" y2="80.45454545454547" fill="rgb(0, 0, 0)" stroke="rgb(66, 66, 66)" stroke-width="1px" opacity="0.25"></line><line x1="0" y1="64.36363636363636" x2="300" y2="64.36363636363636" fill="rgb(0, 0, 0)" stroke="rgb(66, 66, 66)" stroke-width="1px" opacity="0.25"></line><line x1="0" y1="48.272727272727266" x2="300" y2="48.272727272727266" fill="rgb(0, 0, 0)" stroke="rgb(66, 66, 66)" stroke-width="1px" opacity="0.25"></line><line x1="0" y1="32.18181818181817" x2="300" y2="32.18181818181817" fill="rgb(0, 0, 0)" stroke="rgb(66, 66, 66)" stroke-width="1px" opacity="0.25"></line><line x1="0" y1="16.090909090909097" x2="300" y2="16.090909090909097" fill="rgb(0, 0, 0)" stroke="rgb(66, 66, 66)" stroke-width="1px" opacity="0.25"></line><line x1="0" y1="0" x2="300" y2="0" fill="rgb(0, 0, 0)" stroke="rgb(66, 66, 66)" stroke-width="1px" opacity="0.25"></line></g></g></g><g><g><line x1="0" y1="160.9090909090909" x2="300" y2="160.9090909090909" fill="rgb(0, 0, 0)" stroke="rgb(153, 153, 153)" stroke-width="1.5px"></line></g></g><g><g><line x1="25" y1="0" x2="25" y2="177" fill="rgb(0, 0, 0)" stroke="rgb(153, 153, 153)" stroke-width="1.5px"></line></g></g><g><g><g><g><g><path stroke="rgb(255, 112, 67)" stroke-width="2px" d="M40.2,-9.65455159274013L40.45,18.504539316350773L40.55,30.57272113453258L40.95,57.12273034182462L41,58.73181971636686L41.35,79.64999693090265L41.550000000000004,90.10908937454224L42.00000000000001,104.59090909090908L42.4,109.41818105090748L43.199999999999996,113.44090832363476L43.4,115.8545462218198L43.7,112.63636363636364L43.900000000000006,111.0272742618214L44,119.07272880727595L46.1,120.68181818181819L46.15,121.4863628690893L46.25,116.65909090909092L46.550000000000004,115.05000153454868L47,123.90000076727435L47.1,124.70454545454547L47.150000000000006,117.46363559636204L47.300000000000004,119.07272880727595L47.6,122.29090755636042L48.050000000000004,119.87727349454707L48.2,124.70454545454547L48.25,115.8545462218198L48.75,121.4863628690893L49.6,123.09545608000323L49.699999999999996,121.4863628690893L50.400000000000006,122.29090755636042L50.65,123.90000076727435L50.75,121.4863628690893L50.9,125.50909014181659L51.300000000000004,121.4863628690893L51.599999999999994,117.46363559636204L51.7,126.3136348290877L51.85,125.50909014181659L52.15,120.68181818181819L52.4,127.1181833527305L52.900000000000006,127.92272804000162L53.2,123.90000076727435L53.5,128.72727272727272L53.699999999999996,120.68181818181819L54,127.1181833527305L54.1,123.90000076727435L54.15,127.1181833527305L54.25000000000001,121.4863628690893L54.35,123.09545608000323L54.400000000000006,131.14090870727193L54.65,124.70454545454547L54.699999999999996,123.90000076727435L55.15,125.50909014181659L55.449999999999996,126.3136348290877L55.550000000000004,126.3136348290877L55.8,123.90000076727435L56.05,123.90000076727435L56.150000000000006,124.70454545454547L56.75,125.50909014181659L57.1,124.70454545454547L57.15,130.33636402000081L57.25,126.3136348290877L57.35,126.3136348290877L57.4,127.92272804000162L57.50000000000001,123.09545608000323L58.099999999999994,127.1181833527305L58.24999999999999,123.90000076727435L58.449999999999996,129.53181741454384L58.6,122.29090755636042L58.75,123.90000076727435L58.95,122.29090755636042L59,126.3136348290877L59.2,128.72727272727272L59.449999999999996,128.72727272727272L60,127.92272804000162L60.199999999999996,127.1181833527305L60.35,126.3136348290877L60.75000000000001,129.53181741454384L60.949999999999996,133.55454468727112L61.1,123.90000076727435L61.15,129.53181741454384L61.199999999999996,127.1181833527305L61.55,128.72727272727272L61.85,128.72727272727272L61.949999999999996,129.53181741454384L62,127.1181833527305L62.2,127.92272804000162L62.4,126.3136348290877L62.6,127.1181833527305L62.650000000000006,127.92272804000162L62.849999999999994,128.72727272727272L63.3,131.14090870727193L63.5,128.72727272727272L63.550000000000004,129.53181741454384L63.6,130.33636402000081L63.7,129.53181741454384L63.75,129.53181741454384L64.05,130.33636402000081L64.25,131.94545531272888L64.3,127.1181833527305L64.4,131.94545531272888L64.5,130.33636402000081L64.65,127.92272804000162L64.7,127.92272804000162L64.75,127.92272804000162L64.8,128.72727272727272L64.95,130.33636402000081L65.15,131.14090870727193L65.4,129.53181741454384L65.45,129.53181741454384L65.5,131.94545531272888L65.8,131.14090870727193L66.65,131.14090870727193L66.85,132.75L66.95,131.14090870727193L67.2,132.75L68.4,131.94545531272888L68.5,135.16363597999919L68.75,132.75L68.85000000000001,129.53181741454384L69.05,135.96818258545616L69.15,134.35909129272807L69.55,131.94545531272888L69.85,135.16363597999919L70.05,134.35909129272807L70.4,134.35909129272807L70.5,133.55454468727112L70.8,136.77272727272728L70.9,136.77272727272728L71.05,132.75L71.2,138.38181856545535L71.6,138.38181856545535L71.65,135.16363597999919L71.8,135.96818258545616L72.14999999999999,136.77272727272728L72.3,137.5772719599984L72.75,139.18636325272647L72.95,135.16363597999919L73.1,138.38181856545535L73.15,136.77272727272728L73.6,135.16363597999919L73.65,136.77272727272728L73.85000000000001,135.96818258545616L73.95,137.5772719599984L74,137.5772719599984L74.2,139.18636325272647L74.25,136.77272727272728L74.4,135.96818258545616L74.45,136.77272727272728L74.85,139.99090985818341L75.05,138.38181856545535L75.15,139.18636325272647L75.25,136.77272727272728L75.3,138.38181856545535L75.75,139.99090985818341L75.9,137.5772719599984L76.30000000000001,141.59999923272565L76.39999999999999,139.99090985818341L76.65,141.59999923272565L76.9,138.38181856545535L77.25,139.99090985818341L77.89999999999999,139.99090985818341L78.2,139.18636325272647L78.35,140.79545454545453L78.45,139.18636325272647L78.64999999999999,140.79545454545453L78.85,137.5772719599984L78.95,138.38181856545535L79.2,142.40454583818263L79.25,140.79545454545453L79.3,139.99090985818341L79.7,139.18636325272647L80,139.18636325272647L80.19999999999999,141.59999923272565L80.25,139.99090985818341L80.3,139.99090985818341L80.75,141.59999923272565L81,141.59999923272565L81.69999999999999,141.59999923272565L81.8,140.79545454545453L82.80000000000001,140.79545454545453L82.85,141.59999923272565L83.05,142.40454583818263L83.10000000000001,142.40454583818263L83.15,142.40454583818263L84.05,141.59999923272565L84.30000000000001,139.99090985818341L84.65,143.20909052545375L84.7,141.59999923272565L85,142.40454583818263L85.10000000000001,139.99090985818341L85.35,141.59999923272565L85.45,144.0136371309107L86.65,144.0136371309107L86.75,142.40454583818263L86.85,141.59999923272565L87.25,144.0136371309107L87.4,142.40454583818263L87.80000000000001,143.20909052545375L87.95,143.20909052545375L88.10000000000001,142.40454583818263L88.75,142.40454583818263L89.1,144.0136371309107L89.39999999999999,145.62272746454585L89.7,143.20909052545375L89.75000000000001,143.20909052545375L90.05000000000001,144.0136371309107L90.55,144.8181818181818L90.8,141.59999923272565L90.85000000000001,143.20909052545375L91,143.20909052545375L91.3,144.8181818181818L91.39999999999999,142.40454583818263L91.55,143.20909052545375L91.69999999999999,142.40454583818263L91.85,144.0136371309107L91.9,145.62272746454585L92.80000000000001,144.0136371309107L93.55000000000001,141.59999923272565L94.30000000000001,144.0136371309107L94.45,145.62272746454585L94.5,144.8181818181818L94.60000000000001,144.8181818181818L94.65,144.0136371309107L95.7,144.8181818181818L95.75,145.62272746454585L96,144.8181818181818L96.15,143.20909052545375L96.35,144.8181818181818L96.45,145.62272746454585L96.64999999999999,144.8181818181818L96.85000000000001,144.8181818181818L97.05,144.0136371309107L98.3,147.23181779818103L98.35,144.8181818181818L98.9,145.62272746454585L99.30000000000001,144.0136371309107L99.35,144.0136371309107L99.5,145.62272746454585L99.60000000000001,146.4272731109099L99.65,145.62272746454585L100.1,147.23181779818103L100.44999999999999,144.0136371309107L101.19999999999999,144.8181818181818L101.25,145.62272746454585L101.4,144.8181818181818L102.35000000000001,145.62272746454585L102.60000000000001,146.4272731109099L102.65,144.0136371309107L102.75000000000001,145.62272746454585L103.10000000000001,147.23181779818103L103.45,146.4272731109099L103.49999999999999,146.4272731109099L103.94999999999999,147.23181779818103L104.15,146.4272731109099L104.24999999999999,144.8181818181818L104.45,146.4272731109099L104.9,144.8181818181818L105.25,145.62272746454585L105.3,146.4272731109099L105.55,148.8409090909091L105.95,146.4272731109099L106.4,147.23181779818103L106.45,144.0136371309107L106.64999999999999,145.62272746454585L106.9,147.23181779818103L107.05,145.62272746454585L107.15,147.23181779818103L107.30000000000001,147.23181779818103L107.45,146.4272731109099L107.65,145.62272746454585L108.05000000000001,144.8181818181818L108.45,144.8181818181818L108.65,146.4272731109099L108.80000000000001,146.4272731109099L108.85000000000001,147.23181779818103L109.15,146.4272731109099L109.2,146.4272731109099L109.60000000000001,145.62272746454585L109.8,147.23181779818103L109.85,145.62272746454585L109.9,145.62272746454585L109.99999999999999,146.4272731109099L110.14999999999999,144.8181818181818L110.5,148.03636344454506L110.55,148.03636344454506L110.95,147.23181779818103L111,144.0136371309107L111.45,145.62272746454585L111.64999999999999,147.23181779818103L111.75,146.4272731109099L111.9,147.23181779818103L112.15,146.4272731109099L112.2,145.62272746454585L112.30000000000001,148.8409090909091L112.35,148.03636344454506L112.39999999999999,146.4272731109099L112.65,147.23181779818103L113.35000000000001,147.23181779818103L113.80000000000001,147.23181779818103L114.10000000000001,146.4272731109099L114.45,147.23181779818103L114.5,148.03636344454506L114.95,148.03636344454506L115.30000000000001,146.4272731109099L115.74999999999999,147.23181779818103L115.89999999999999,148.03636344454506L116.25,147.23181779818103L116.35,146.4272731109099L116.55,145.62272746454585L117.05,148.03636344454506L117.1,148.03636344454506L117.25,148.03636344454506L117.5,146.4272731109099L117.69999999999999,148.8409090909091L118.35000000000001,148.8409090909091L118.44999999999999,147.23181779818103L118.5,147.23181779818103L118.80000000000001,147.23181779818103L118.85,148.03636344454506L118.89999999999999,144.8181818181818L119,146.4272731109099L119.7,145.62272746454585L120.60000000000001,147.23181779818103L120.9,148.03636344454506L121.25,147.23181779818103L121.55,149.64545473727313L121.75,148.03636344454506L121.85000000000001,146.4272731109099L121.94999999999999,147.23181779818103L122.24999999999999,144.8181818181818L122.39999999999999,146.4272731109099L122.5,148.8409090909091L122.64999999999999,146.4272731109099L122.8,148.8409090909091L122.95,148.8409090909091L123.4,148.8409090909091L123.5,147.23181779818103L124.10000000000001,149.64545473727313L124.15,148.8409090909091L124.19999999999999,149.64545473727313L124.9,147.23181779818103L125.1,149.64545473727313L125.30000000000001,148.03636344454506L125.5,148.03636344454506L125.55,148.8409090909091L125.69999999999999,148.03636344454506L125.8,150.45000038363716L125.9,148.8409090909091L126.3,148.03636344454506L126.4,148.03636344454506L126.55,147.23181779818103L126.7,146.4272731109099L126.85000000000001,150.45000038363716L126.95,147.23181779818103L127.10000000000001,147.23181779818103L127.25000000000001,148.03636344454506L128.05,148.03636344454506L128.4,148.03636344454506L128.65,148.8409090909091L128.7,149.64545473727313L128.75,149.64545473727313L128.85,149.64545473727313L128.9,148.03636344454506L129,148.03636344454506L129.1,148.03636344454506L129.3,148.8409090909091L129.5,149.64545473727313L129.75,149.64545473727313L129.85,148.03636344454506L130.2,149.64545473727313L130.3,149.64545473727313L130.35,148.03636344454506L130.6,147.23181779818103L130.8,148.03636344454506L131.05,148.8409090909091L131.15,148.8409090909091L131.20000000000002,147.23181779818103L131.7,148.8409090909091L131.75,148.8409090909091L131.95000000000002,148.8409090909091L132.1,149.64545473727313L132.25,149.64545473727313L132.3,148.03636344454506L132.45,148.8409090909091L132.5,148.8409090909091L132.6,150.45000038363716L132.85,148.03636344454506L132.9,148.03636344454506L133.25,149.64545473727313L133.3,147.23181779818103L133.5,148.8409090909091L133.6,148.8409090909091L133.7,148.03636344454506L133.9,148.03636344454506L134.4,149.64545473727313L134.5,149.64545473727313L134.6,148.03636344454506L134.65,148.8409090909091L134.85,147.23181779818103L135,148.8409090909091L135.4,150.45000038363716L135.6,150.45000038363716L136.29999999999998,148.03636344454506L136.5,148.8409090909091L136.6,149.64545473727313L136.85,150.45000038363716L136.9,149.64545473727313L137,150.45000038363716L137.1,148.03636344454506L137.15,148.8409090909091L137.25,148.8409090909091L137.35,150.45000038363716L137.4,148.8409090909091L137.75,150.45000038363716L137.9,151.25454507090828L138.15,149.64545473727313L138.75,150.45000038363716L138.95,149.64545473727313L139.1,149.64545473727313L139.6,149.64545473727313L139.9,150.45000038363716L139.95000000000002,150.45000038363716L140.04999999999998,149.64545473727313L140.2,149.64545473727313L140.35,150.45000038363716L140.4,148.8409090909091L140.45,149.64545473727313L140.95,151.25454507090828L141,150.45000038363716L141.05,148.8409090909091L141.15,148.03636344454506L141.75,148.8409090909091L141.8,148.8409090909091L141.85,149.64545473727313L141.9,150.45000038363716L142.3,150.45000038363716L142.75,150.45000038363716L143.6,150.45000038363716L144.29999999999998,148.8409090909091L144.5,148.8409090909091L144.55,151.25454507090828L144.65,149.64545473727313L145.04999999999998,151.25454507090828L145.15,148.8409090909091L145.35,148.8409090909091L145.85,151.25454507090828L146.25,148.8409090909091L146.3,149.64545473727313L146.85,149.64545473727313L147.25,149.64545473727313L147.55,148.8409090909091L147.6,148.8409090909091L147.70000000000002,149.64545473727313L147.79999999999998,151.25454507090828L148.05,150.45000038363716L149,149.64545473727313L149.29999999999998,149.64545473727313L149.35,151.25454507090828L149.85,150.45000038363716L149.95000000000002,151.25454507090828L150.1,148.8409090909091L150.14999999999998,150.45000038363716L150.20000000000002,149.64545473727313L150.74999999999997,148.03636344454506L150.9,148.03636344454506L151.2,150.45000038363716L151.45000000000002,150.45000038363716L151.54999999999998,152.0590907172723L151.64999999999998,151.25454507090828L151.75,149.64545473727313L152.2,150.45000038363716L152.4,152.0590907172723L152.60000000000002,150.45000038363716L152.7,150.45000038363716L152.85,150.45000038363716L153.3,150.45000038363716L153.35,152.0590907172723L153.55,150.45000038363716L153.85000000000002,151.25454507090828L153.95,149.64545473727313L154.55,151.25454507090828L154.6,149.64545473727313L154.64999999999998,150.45000038363716L154.70000000000002,151.25454507090828L154.85,149.64545473727313L155.05,152.0590907172723L155.35000000000002,151.25454507090828L155.4,152.86363636363637L155.54999999999998,150.45000038363716L155.95000000000002,152.0590907172723L156.20000000000002,150.45000038363716L156.35,150.45000038363716L156.49999999999997,149.64545473727313L156.55,150.45000038363716L156.85000000000002,152.0590907172723L156.95,150.45000038363716L157.25,152.0590907172723L157.39999999999998,151.25454507090828L157.55,150.45000038363716L157.8,152.86363636363637L158.75,152.0590907172723L158.95000000000002,151.25454507090828L159.05,152.0590907172723L159.3,151.25454507090828L159.55,150.45000038363716L160.20000000000002,151.25454507090828L160.39999999999998,150.45000038363716L160.55,151.25454507090828L161.29999999999998,150.45000038363716L161.85,150.45000038363716L161.89999999999998,152.0590907172723L162.05,151.25454507090828L162.35,152.0590907172723L162.7,150.45000038363716L162.75,152.0590907172723L162.79999999999998,150.45000038363716L162.85,152.0590907172723L162.9,152.0590907172723L162.95000000000002,150.45000038363716L163.35,151.25454507090828L164.5,152.86363636363637L164.54999999999998,151.25454507090828L164.6,152.0590907172723L164.95,150.45000038363716L165.5,150.45000038363716L165.60000000000002,150.45000038363716L166.20000000000002,151.25454507090828L166.25,152.0590907172723L166.4,152.0590907172723L166.50000000000003,152.0590907172723L166.55,148.8409090909091L166.65,152.0590907172723L167.6,151.25454507090828L167.85,152.0590907172723L168.00000000000003,151.25454507090828L168.15,152.0590907172723L168.60000000000002,151.25454507090828L168.65,150.45000038363716L168.95000000000002,152.0590907172723L169.05,152.0590907172723L169.1,152.86363636363637L169.4,152.0590907172723L169.55,152.0590907172723L169.85000000000002,150.45000038363716L169.95,153.6681820100004L170.04999999999998,151.25454507090828L170.20000000000002,151.25454507090828L170.64999999999998,151.25454507090828L170.9,152.0590907172723L170.99999999999997,151.25454507090828L171.05,151.25454507090828L171.1,152.86363636363637L171.65,152.0590907172723L172.15,152.0590907172723L172.55,150.45000038363716L173.39999999999998,150.45000038363716L173.75000000000003,152.86363636363637L173.8,153.6681820100004L173.95,152.0590907172723L174.45000000000002,152.0590907172723L174.75,153.6681820100004L174.95000000000002,152.86363636363637L175.2,151.25454507090828L175.3,152.0590907172723L175.4,152.0590907172723L175.5,152.86363636363637L175.60000000000002,151.25454507090828L175.79999999999998,152.0590907172723L175.85,151.25454507090828L176,153.6681820100004L176.3,153.6681820100004L176.39999999999998,152.86363636363637L176.55,152.86363636363637L176.95,153.6681820100004L177.04999999999998,151.25454507090828L177.10000000000002,153.6681820100004L177.15,152.0590907172723L177.54999999999998,152.86363636363637L178.3,151.25454507090828L178.4,152.0590907172723L178.5,151.25454507090828L178.60000000000002,153.6681820100004L178.70000000000002,152.86363636363637L179.14999999999998,152.86363636363637L179.35,153.6681820100004L180,152.0590907172723L180.20000000000002,153.6681820100004L181.15,152.86363636363637L181.89999999999998,152.86363636363637L181.95000000000002,153.6681820100004L182.25,152.86363636363637L182.3,151.25454507090828L182.4,152.0590907172723L182.55,152.0590907172723L182.79999999999998,152.86363636363637L182.95,152.0590907172723L183,151.25454507090828L183.1,152.0590907172723L183.9,152.0590907172723L184.25,152.86363636363637L184.45,152.86363636363637L184.8,151.25454507090828L184.85,152.0590907172723L185.2,152.86363636363637L185.35,153.6681820100004L186.55,153.6681820100004L186.7,151.25454507090828L187.05,152.0590907172723L187.2,152.0590907172723L187.25,152.0590907172723L187.35000000000002,152.86363636363637L187.4,153.6681820100004L187.75,153.6681820100004L187.85,153.6681820100004L188.4,152.86363636363637L188.65,151.25454507090828L189.1,152.86363636363637L189.20000000000002,153.6681820100004L189.3,153.6681820100004L189.5,153.6681820100004L189.65,152.0590907172723L190.29999999999998,152.86363636363637L190.35,154.47272717681798L190.4,152.86363636363637L190.70000000000002,152.86363636363637L191.1,152.86363636363637L191.4,152.0590907172723L191.45,153.6681820100004L191.5,153.6681820100004L191.70000000000002,152.86363636363637L191.95000000000002,152.0590907172723L192.3,152.0590907172723L192.7,152.86363636363637L192.9,152.86363636363637L193.10000000000002,152.0590907172723L193.20000000000002,152.0590907172723L193.5,152.0590907172723L193.64999999999998,153.6681820100004L193.75,151.25454507090828L193.85,152.0590907172723L193.95,152.86363636363637L194.1,152.86363636363637L194.35000000000002,152.0590907172723L194.95000000000002,154.47272717681798L195.2,152.86363636363637L195.45,154.47272717681798L196.35,154.47272717681798L196.55,152.86363636363637L196.7,153.6681820100004L196.95,153.6681820100004L197.29999999999998,153.6681820100004L197.5,152.86363636363637L197.6,152.86363636363637L197.89999999999998,153.6681820100004L197.95000000000002,152.86363636363637L198.25000000000003,152.0590907172723L198.60000000000002,152.86363636363637L198.9,153.6681820100004L199.04999999999998,152.86363636363637L199.35,151.25454507090828L199.9,152.86363636363637L200,152.86363636363637L200.35,153.6681820100004L200.5,152.86363636363637L200.64999999999998,152.86363636363637L200.75,153.6681820100004L201,153.6681820100004L201.79999999999998,153.6681820100004L201.9,154.47272717681798L201.95000000000002,155.27727282318202L202.14999999999998,152.86363636363637L202.20000000000002,152.86363636363637L202.39999999999998,153.6681820100004L202.5,153.6681820100004L202.8,152.0590907172723L202.85,154.47272717681798L203.2,152.86363636363637L203.8,154.47272717681798L204.05,152.86363636363637L204.2,153.6681820100004L204.65,152.86363636363637L204.70000000000002,153.6681820100004L205,152.0590907172723L205.05,154.47272717681798L205.75,154.47272717681798L205.95,152.86363636363637L206.04999999999998,154.47272717681798L206.15,153.6681820100004L206.29999999999998,154.47272717681798L206.45000000000002,153.6681820100004L206.9,152.86363636363637L207.2,152.86363636363637L207.29999999999998,154.47272717681798L207.85,153.6681820100004L207.89999999999998,154.47272717681798L208.2,153.6681820100004L208.55,152.86363636363637L209.75,154.47272717681798L209.9,155.27727282318202L210.05,153.6681820100004L210.15,152.86363636363637L211.2,152.86363636363637L211.35,153.6681820100004L211.55,153.6681820100004L211.60000000000002,153.6681820100004L211.65,153.6681820100004L211.95000000000002,153.6681820100004L212.1,153.6681820100004L212.20000000000002,152.86363636363637L212.65,154.47272717681798L212.85,153.6681820100004L213,153.6681820100004L213.25,154.47272717681798L213.64999999999998,154.47272717681798L213.85,154.47272717681798L213.95,154.47272717681798L214.05,154.47272717681798L214.7,152.0590907172723L214.79999999999998,152.86363636363637L214.95000000000002,153.6681820100004L215.55,153.6681820100004L215.75,153.6681820100004L216,153.6681820100004L216.10000000000002,156.0818179899996L216.6,155.27727282318202L216.70000000000002,152.0590907172723L216.8,152.86363636363637L217.45,154.47272717681798L217.75,152.86363636363637L218.25,152.86363636363637L218.50000000000003,154.47272717681798L218.85000000000002,155.27727282318202L219,154.47272717681798L219.1,152.86363636363637L220.1,154.47272717681798L220.15,154.47272717681798L220.2,153.6681820100004L220.45,154.47272717681798L220.54999999999998,155.27727282318202L220.85,154.47272717681798L221.05,154.47272717681798L221.45,154.47272717681798L221.5,153.6681820100004L221.75,155.27727282318202L221.79999999999998,154.47272717681798L222,153.6681820100004L222.55,153.6681820100004L222.85,154.47272717681798L223.15,153.6681820100004L223.29999999999998,153.6681820100004L223.85,155.27727282318202L224.05,154.47272717681798L224.25000000000003,154.47272717681798L224.60000000000002,155.27727282318202L224.79999999999998,155.27727282318202L225.04999999999998,155.27727282318202L225.3,153.6681820100004L225.5,153.6681820100004L225.55,153.6681820100004L225.65,154.47272717681798L226.10000000000002,153.6681820100004L226.15,155.27727282318202L226.70000000000002,154.47272717681798L226.8,155.27727282318202L226.85,155.27727282318202L227.2,154.47272717681798L227.3,154.47272717681798L227.35,153.6681820100004L227.4,155.27727282318202L227.45,156.0818179899996L227.65,155.27727282318202L227.75,154.47272717681798L228.85000000000002,156.0818179899996L229,155.27727282318202L229.70000000000002,155.27727282318202L229.95,156.0818179899996L230.00000000000003,156.0818179899996L230.1,156.0818179899996L230.5,154.47272717681798L230.75,154.47272717681798L231.1,155.27727282318202L232.5,155.27727282318202L232.85,156.0818179899996L233.4,156.0818179899996L233.65,155.27727282318202L234.1,156.0818179899996L234.14999999999998,155.27727282318202L234.65,156.0818179899996L234.7,155.27727282318202L234.75,155.27727282318202L234.85000000000002,155.27727282318202L234.95000000000002,156.0818179899996L235.04999999999998,154.47272717681798L235.1,155.27727282318202L235.15,156.0818179899996L235.25,156.0818179899996L236.15,156.0818179899996L236.4,155.27727282318202L236.65,154.47272717681798L236.8,156.0818179899996L236.95000000000002,155.27727282318202L237.2,155.27727282318202L237.75,156.0818179899996L238.20000000000002,156.0818179899996L238.35,155.27727282318202L238.39999999999998,156.88636363636363L238.85,155.27727282318202L239.15,156.0818179899996L239.89999999999998,156.0818179899996L239.95,155.27727282318202L240.25,156.0818179899996L240.45,155.27727282318202L240.60000000000002,156.0818179899996L240.9,154.47272717681798L241,155.27727282318202L241.45,156.0818179899996L241.65,155.27727282318202L241.95,156.0818179899996L242.20000000000002,156.0818179899996L242.5,156.0818179899996L242.70000000000002,156.88636363636363L242.95,155.27727282318202L243.3,154.47272717681798L243.5,155.27727282318202L243.95000000000002,156.0818179899996L244.1,155.27727282318202L244.7,156.0818179899996L245.04999999999998,155.27727282318202L245.20000000000002,156.0818179899996L245.29999999999998,156.88636363636363L245.35,156.0818179899996L245.55,155.27727282318202L245.6,156.88636363636363L245.64999999999998,156.0818179899996L246.25,156.0818179899996L246.54999999999998,155.27727282318202L246.6,155.27727282318202L246.70000000000002,156.0818179899996L246.95000000000002,154.47272717681798L247,156.0818179899996L247.15,155.27727282318202L247.45,155.27727282318202L247.65,156.88636363636363L248,155.27727282318202L248.5,156.0818179899996L248.8,156.88636363636363L249,154.47272717681798L249.15,155.27727282318202L249.54999999999998,155.27727282318202L249.65,156.0818179899996L250.3,156.0818179899996L250.5,155.27727282318202L250.54999999999998,156.0818179899996L251.5,155.27727282318202L251.55,155.27727282318202L251.7,156.0818179899996L252.04999999999998,156.0818179899996L252.15,156.0818179899996L252.54999999999998,156.88636363636363L252.64999999999998,155.27727282318202L252.70000000000002,156.0818179899996L253.35000000000002,156.0818179899996L253.45,154.47272717681798L253.5,155.27727282318202L253.95000000000002,155.27727282318202L254.1,156.0818179899996L254.20000000000002,155.27727282318202L254.65,155.27727282318202L254.8,155.27727282318202L254.9,154.47272717681798L255,156.0818179899996L255.6,155.27727282318202L256.45,156.0818179899996L256.7,156.0818179899996L257.2,156.88636363636363L257.5,154.47272717681798L257.85,154.47272717681798L258.15000000000003,155.27727282318202L258.25,155.27727282318202L258.45,154.47272717681798L258.8,154.47272717681798L258.85,155.27727282318202L258.9,156.0818179899996L259.40000000000003,156.0818179899996L260.2,153.6681820100004L260.45,155.27727282318202L260.7,156.88636363636363L260.95,156.88636363636363L261,156.88636363636363L261.09999999999997,156.0818179899996L261.25,156.0818179899996L261.75,155.27727282318202L261.95,154.47272717681798L262,155.27727282318202L262.3,154.47272717681798L262.5,156.88636363636363L262.55,156.0818179899996L262.95,156.0818179899996L263.1,154.47272717681798L263.15,156.0818179899996L263.25,154.47272717681798L263.4,156.0818179899996L263.45,156.0818179899996L263.5,155.27727282318202L263.55,154.47272717681798L263.75,155.27727282318202L263.84999999999997,156.0818179899996L264,156.0818179899996L264.05,156.0818179899996L264.09999999999997,155.27727282318202L264.15,155.27727282318202L264.25,156.0818179899996L264.4,156.88636363636363L264.45,155.27727282318202L264.75,154.47272717681798L265.05,154.47272717681798L265.15000000000003,156.88636363636363L265.3,155.27727282318202L265.9,156.0818179899996L266.3,156.0818179899996L266.35,156.0818179899996L266.4,155.27727282318202L266.7,156.0818179899996L267.05,156.0818179899996L267.3,155.27727282318202L267.65,156.0818179899996L267.85,155.27727282318202L268.3,156.0818179899996L268.6,156.0818179899996L268.7,155.27727282318202L268.85,155.27727282318202L269.2,155.27727282318202L269.5,156.0818179899996L269.65000000000003,153.6681820100004L269.75,155.27727282318202L269.8,155.27727282318202L270.25,156.0818179899996L270.75,155.27727282318202L270.8,155.27727282318202L271.2,156.0818179899996L271.8,155.27727282318202L271.95,156.0818179899996L272.1,155.27727282318202L272.75,156.88636363636363L273.15,154.47272717681798L273.55,156.0818179899996L273.6,156.0818179899996L273.75,156.88636363636363L273.85,155.27727282318202L273.90000000000003,155.27727282318202L274.6,156.0818179899996L274.9,156.0818179899996L275,156.0818179899996" style="fill: none;" fill="none"></path></g></g></g></g></g></g><g transform="translate(30, 177)" clip-path="url(#clip_1)"><clipPath id="clip_1"><rect width="300" height="23"></rect></clipPath><g><g><line x1="0" y1="0" x2="0" y2="5" style="visibility: inherit;" fill="rgb(0, 0, 0)" stroke="rgb(204, 204, 204)" stroke-width="1px"></line><line x1="25" y1="0" x2="25" y2="5" style="visibility: inherit;" fill="rgb(0, 0, 0)" stroke="rgb(204, 204, 204)" stroke-width="1px"></line><line x1="50" y1="0" x2="50" y2="5" style="visibility: inherit;" fill="rgb(0, 0, 0)" stroke="rgb(204, 204, 204)" stroke-width="1px"></line><line x1="75" y1="0" x2="75" y2="5" style="visibility: inherit;" fill="rgb(0, 0, 0)" stroke="rgb(204, 204, 204)" stroke-width="1px"></line><line x1="100" y1="0" x2="100" y2="5" style="visibility: inherit;" fill="rgb(0, 0, 0)" stroke="rgb(204, 204, 204)" stroke-width="1px"></line><line x1="125" y1="0" x2="125" y2="5" style="visibility: inherit;" fill="rgb(0, 0, 0)" stroke="rgb(204, 204, 204)" stroke-width="1px"></line><line x1="150" y1="0" x2="150" y2="5" style="visibility: inherit;" fill="rgb(0, 0, 0)" stroke="rgb(204, 204, 204)" stroke-width="1px"></line><line x1="175" y1="0" x2="175" y2="5" style="visibility: inherit;" fill="rgb(0, 0, 0)" stroke="rgb(204, 204, 204)" stroke-width="1px"></line><line x1="200" y1="0" x2="200" y2="5" style="visibility: inherit;" fill="rgb(0, 0, 0)" stroke="rgb(204, 204, 204)" stroke-width="1px"></line><line x1="225" y1="0" x2="225" y2="5" style="visibility: inherit;" fill="rgb(0, 0, 0)" stroke="rgb(204, 204, 204)" stroke-width="1px"></line><line x1="250" y1="0" x2="250" y2="5" style="visibility: inherit;" fill="rgb(0, 0, 0)" stroke="rgb(204, 204, 204)" stroke-width="1px"></line><line x1="275" y1="0" x2="275" y2="5" style="visibility: inherit;" fill="rgb(0, 0, 0)" stroke="rgb(204, 204, 204)" stroke-width="1px"></line><line x1="300" y1="0" x2="300" y2="5" style="visibility: inherit;" fill="rgb(0, 0, 0)" stroke="rgb(204, 204, 204)" stroke-width="1px"></line></g><g transform="translate(0, 8)"><text x="0" y="0" dx="0em" dy="0.95em" style="text-anchor: middle; visibility: hidden; font-family: Roboto, sans-serif; font-size: 12px; font-weight: 200;" fill="rgb(33, 33, 33)" stroke="none" stroke-width="1px">-500</text><text x="25" y="0" dx="0em" dy="0.95em" style="text-anchor: middle; visibility: inherit; font-family: Roboto, sans-serif; font-size: 12px; font-weight: 200;" fill="rgb(33, 33, 33)" stroke="none" stroke-width="1px">0</text><text x="50" y="0" dx="0em" dy="0.95em" style="text-anchor: middle; visibility: inherit; font-family: Roboto, sans-serif; font-size: 12px; font-weight: 200;" fill="rgb(33, 33, 33)" stroke="none" stroke-width="1px">500</text><text x="75" y="0" dx="0em" dy="0.95em" style="text-anchor: middle; visibility: inherit; font-family: Roboto, sans-serif; font-size: 12px; font-weight: 200;" fill="rgb(33, 33, 33)" stroke="none" stroke-width="1px">1k</text><text x="100" y="0" dx="0em" dy="0.95em" style="text-anchor: middle; visibility: inherit; font-family: Roboto, sans-serif; font-size: 12px; font-weight: 200;" fill="rgb(33, 33, 33)" stroke="none" stroke-width="1px">1.5k</text><text x="125" y="0" dx="0em" dy="0.95em" style="text-anchor: middle; visibility: inherit; font-family: Roboto, sans-serif; font-size: 12px; font-weight: 200;" fill="rgb(33, 33, 33)" stroke="none" stroke-width="1px">2k</text><text x="150" y="0" dx="0em" dy="0.95em" style="text-anchor: middle; visibility: inherit; font-family: Roboto, sans-serif; font-size: 12px; font-weight: 200;" fill="rgb(33, 33, 33)" stroke="none" stroke-width="1px">2.5k</text><text x="175" y="0" dx="0em" dy="0.95em" style="text-anchor: middle; visibility: inherit; font-family: Roboto, sans-serif; font-size: 12px; font-weight: 200;" fill="rgb(33, 33, 33)" stroke="none" stroke-width="1px">3k</text><text x="200" y="0" dx="0em" dy="0.95em" style="text-anchor: middle; visibility: inherit; font-family: Roboto, sans-serif; font-size: 12px; font-weight: 200;" fill="rgb(33, 33, 33)" stroke="none" stroke-width="1px">3.5k</text><text x="225" y="0" dx="0em" dy="0.95em" style="text-anchor: middle; visibility: inherit; font-family: Roboto, sans-serif; font-size: 12px; font-weight: 200;" fill="rgb(33, 33, 33)" stroke="none" stroke-width="1px">4k</text><text x="250" y="0" dx="0em" dy="0.95em" style="text-anchor: middle; visibility: inherit; font-family: Roboto, sans-serif; font-size: 12px; font-weight: 200;" fill="rgb(33, 33, 33)" stroke="none" stroke-width="1px">4.5k</text><text x="275" y="0" dx="0em" dy="0.95em" style="text-anchor: middle; visibility: inherit; font-family: Roboto, sans-serif; font-size: 12px; font-weight: 200;" fill="rgb(33, 33, 33)" stroke="none" stroke-width="1px">5k</text><text x="300" y="0" dx="0em" dy="0.95em" style="text-anchor: middle; visibility: hidden; font-family: Roboto, sans-serif; font-size: 12px; font-weight: 200;" fill="rgb(33, 33, 33)" stroke="none" stroke-width="1px">5.5k</text></g><line x1="0" y1="0" x2="300" y2="0" fill="rgb(0, 0, 0)" stroke="rgb(204, 204, 204)" stroke-width="1px"></line></g></g></g></g></svg>