<svg viewBox="0 0 330 200" xmlns="http://www.w3.org/2000/svg"><g><g><g><g><g><line x1="40" y1="177" x2="35" y2="177" style="visibility: inherit;" fill="rgb(0, 0, 0)" stroke="rgb(204, 204, 204)" stroke-width="1px"></line><line x1="40" y1="159.3" x2="35" y2="159.3" style="visibility: inherit;" fill="rgb(0, 0, 0)" stroke="rgb(204, 204, 204)" stroke-width="1px"></line><line x1="40" y1="141.6" x2="35" y2="141.6" style="visibility: inherit;" fill="rgb(0, 0, 0)" stroke="rgb(204, 204, 204)" stroke-width="1px"></line><line x1="40" y1="123.89999999999999" x2="35" y2="123.89999999999999" style="visibility: inherit;" fill="rgb(0, 0, 0)" stroke="rgb(204, 204, 204)" stroke-width="1px"></line><line x1="40" y1="106.19999999999997" x2="35" y2="106.19999999999997" style="visibility: inherit;" fill="rgb(0, 0, 0)" stroke="rgb(204, 204, 204)" stroke-width="1px"></line><line x1="40" y1="88.49999999999999" x2="35" y2="88.49999999999999" style="visibility: inherit;" fill="rgb(0, 0, 0)" stroke="rgb(204, 204, 204)" stroke-width="1px"></line><line x1="40" y1="70.79999999999998" x2="35" y2="70.79999999999998" style="visibility: inherit;" fill="rgb(0, 0, 0)" stroke="rgb(204, 204, 204)" stroke-width="1px"></line><line x1="40" y1="53.099999999999966" x2="35" y2="53.099999999999966" style="visibility: inherit;" fill="rgb(0, 0, 0)" stroke="rgb(204, 204, 204)" stroke-width="1px"></line><line x1="40" y1="35.39999999999999" x2="35" y2="35.39999999999999" style="visibility: inherit;" fill="rgb(0, 0, 0)" stroke="rgb(204, 204, 204)" stroke-width="1px"></line><line x1="40" y1="17.699999999999978" x2="35" y2="17.699999999999978" style="visibility: inherit;" fill="rgb(0, 0, 0)" stroke="rgb(204, 204, 204)" stroke-width="1px"></line><line x1="40" y1="0" x2="35" y2="0" style="visibility: inherit;" fill="rgb(0, 0, 0)" stroke="rgb(204, 204, 204)" stroke-width="1px"></line></g><g transform="translate(30, 0)"><text x="0" y="177" dx="0em" dy="0.3em" style="text-anchor: end; visibility: hidden; font-family: Roboto, sans-serif; font-size: 12px; font-weight: 200;" fill="rgb(33, 33, 33)" stroke="none" stroke-width="1px">0.8</text><text x="0" y="159.3" dx="0em" dy="0.3em" style="text-anchor: end; visibility: inherit; font-family: Roboto, sans-serif; font-size: 12px; font-weight: 200;" fill="rgb(33, 33, 33)" stroke="none" stroke-width="1px">1</text><text x="0" y="141.6" dx="0em" dy="0.3em" style="text-anchor: end; visibility: hidden; font-family: Roboto, sans-serif; font-size: 12px; font-weight: 200;" fill="rgb(33, 33, 33)" stroke="none" stroke-width="1px">1.2</text><text x="0" y="123.89999999999999" dx="0em" dy="0.3em" style="text-anchor: end; visibility: inherit; font-family: Roboto, sans-serif; font-size: 12px; font-weight: 200;" fill="rgb(33, 33, 33)" stroke="none" stroke-width="1px">1.4</text><text x="0" y="106.19999999999997" dx="0em" dy="0.3em" style="text-anchor: end; visibility: hidden; font-family: Roboto, sans-serif; font-size: 12px; font-weight: 200;" fill="rgb(33, 33, 33)" stroke="none" stroke-width="1px">1.6</text><text x="0" y="88.49999999999999" dx="0em" dy="0.3em" style="text-anchor: end; visibility: inherit; font-family: Roboto, sans-serif; font-size: 12px; font-weight: 200;" fill="rgb(33, 33, 33)" stroke="none" stroke-width="1px">1.8</text><text x="0" y="70.79999999999998" dx="0em" dy="0.3em" style="text-anchor: end; visibility: hidden; font-family: Roboto, sans-serif; font-size: 12px; font-weight: 200;" fill="rgb(33, 33, 33)" stroke="none" stroke-width="1px">2</text><text x="0" y="53.099999999999966" dx="0em" dy="0.3em" style="text-anchor: end; visibility: inherit; font-family: Roboto, sans-serif; font-size: 12px; font-weight: 200;" fill="rgb(33, 33, 33)" stroke="none" stroke-width="1px">2.2</text><text x="0" y="35.39999999999999" dx="0em" dy="0.3em" style="text-anchor: end; visibility: hidden; font-family: Roboto, sans-serif; font-size: 12px; font-weight: 200;" fill="rgb(33, 33, 33)" stroke="none" stroke-width="1px">2.4</text><text x="0" y="17.699999999999978" dx="0em" dy="0.3em" style="text-anchor: end; visibility: inherit; font-family: Roboto, sans-serif; font-size: 12px; font-weight: 200;" fill="rgb(33, 33, 33)" stroke="none" stroke-width="1px">2.6</text><text x="0" y="0" dx="0em" dy="0.3em" style="text-anchor: end; visibility: hidden; font-family: Roboto, sans-serif; font-size: 12px; font-weight: 200;" fill="rgb(33, 33, 33)" stroke="none" stroke-width="1px">2.8</text></g><line x1="40" y1="0" x2="40" y2="177" fill="rgb(0, 0, 0)" stroke="rgb(204, 204, 204)" stroke-width="1px"></line></g></g><g transform="translate(40, 0)" clip-path="url(#clip_0)"><clipPath id="clip_0"><rect width="290" height="177"></rect></clipPath><g><g><g><line x1="0" y1="0" x2="0" y2="177" fill="rgb(0, 0, 0)" stroke="rgb(66, 66, 66)" stroke-width="1px" opacity="0.25"></line><line x1="24.166666666666664" y1="0" x2="24.166666666666664" y2="177" fill="rgb(0, 0, 0)" stroke="rgb(66, 66, 66)" stroke-width="1px" opacity="0.25"></line><line x1="48.33333333333333" y1="0" x2="48.33333333333333" y2="177" fill="rgb(0, 0, 0)" stroke="rgb(66, 66, 66)" stroke-width="1px" opacity="0.25"></line><line x1="72.5" y1="0" x2="72.5" y2="177" fill="rgb(0, 0, 0)" stroke="rgb(66, 66, 66)" stroke-width="1px" opacity="0.25"></line><line x1="96.66666666666666" y1="0" x2="96.66666666666666" y2="177" fill="rgb(0, 0, 0)" stroke="rgb(66, 66, 66)" stroke-width="1px" opacity="0.25"></line><line x1="120.83333333333334" y1="0" x2="120.83333333333334" y2="177" fill="rgb(0, 0, 0)" stroke="rgb(66, 66, 66)" stroke-width="1px" opacity="0.25"></line><line x1="145" y1="0" x2="145" y2="177" fill="rgb(0, 0, 0)" stroke="rgb(66, 66, 66)" stroke-width="1px" opacity="0.25"></line><line x1="169.16666666666669" y1="0" x2="169.16666666666669" y2="177" fill="rgb(0, 0, 0)" stroke="rgb(66, 66, 66)" stroke-width="1px" opacity="0.25"></line><line x1="193.33333333333331" y1="0" x2="193.33333333333331" y2="177" fill="rgb(0, 0, 0)" stroke="rgb(66, 66, 66)" stroke-width="1px" opacity="0.25"></line><line x1="217.5" y1="0" x2="217.5" y2="177" fill="rgb(0, 0, 0)" stroke="rgb(66, 66, 66)" stroke-width="1px" opacity="0.25"></line><line x1="241.66666666666669" y1="0" x2="241.66666666666669" y2="177" fill="rgb(0, 0, 0)" stroke="rgb(66, 66, 66)" stroke-width="1px" opacity="0.25"></line><line x1="265.8333333333333" y1="0" x2="265.8333333333333" y2="177" fill="rgb(0, 0, 0)" stroke="rgb(66, 66, 66)" stroke-width="1px" opacity="0.25"></line><line x1="290" y1="0" x2="290" y2="177" fill="rgb(0, 0, 0)" stroke="rgb(66, 66, 66)" stroke-width="1px" opacity="0.25"></line></g><g><line x1="0" y1="177" x2="290" y2="177" fill="rgb(0, 0, 0)" stroke="rgb(66, 66, 66)" stroke-width="1px" opacity="0.25"></line><line x1="0" y1="159.3" x2="290" y2="159.3" fill="rgb(0, 0, 0)" stroke="rgb(66, 66, 66)" stroke-width="1px" opacity="0.25"></line><line x1="0" y1="141.6" x2="290" y2="141.6" fill="rgb(0, 0, 0)" stroke="rgb(66, 66, 66)" stroke-width="1px" opacity="0.25"></line><line x1="0" y1="123.89999999999999" x2="290" y2="123.89999999999999" fill="rgb(0, 0, 0)" stroke="rgb(66, 66, 66)" stroke-width="1px" opacity="0.25"></line><line x1="0" y1="106.19999999999997" x2="290" y2="106.19999999999997" fill="rgb(0, 0, 0)" stroke="rgb(66, 66, 66)" stroke-width="1px" opacity="0.25"></line><line x1="0" y1="88.49999999999999" x2="290" y2="88.49999999999999" fill="rgb(0, 0, 0)" stroke="rgb(66, 66, 66)" stroke-width="1px" opacity="0.25"></line><line x1="0" y1="70.79999999999998" x2="290" y2="70.79999999999998" fill="rgb(0, 0, 0)" stroke="rgb(66, 66, 66)" stroke-width="1px" opacity="0.25"></line><line x1="0" y1="53.099999999999966" x2="290" y2="53.099999999999966" fill="rgb(0, 0, 0)" stroke="rgb(66, 66, 66)" stroke-width="1px" opacity="0.25"></line><line x1="0" y1="35.39999999999999" x2="290" y2="35.39999999999999" fill="rgb(0, 0, 0)" stroke="rgb(66, 66, 66)" stroke-width="1px" opacity="0.25"></line><line x1="0" y1="17.699999999999978" x2="290" y2="17.699999999999978" fill="rgb(0, 0, 0)" stroke="rgb(66, 66, 66)" stroke-width="1px" opacity="0.25"></line><line x1="0" y1="0" x2="290" y2="0" fill="rgb(0, 0, 0)" stroke="rgb(66, 66, 66)" stroke-width="1px" opacity="0.25"></line></g></g></g><g><g><line x1="0" y1="247.8" x2="290" y2="247.8" fill="rgb(0, 0, 0)" stroke="rgb(153, 153, 153)" stroke-width="1.5px"></line></g></g><g><g><line x1="24.166666666666664" y1="0" x2="24.166666666666664" y2="177" fill="rgb(0, 0, 0)" stroke="rgb(153, 153, 153)" stroke-width="1.5px"></line></g></g><g><g><g><g><g><path stroke="rgb(255, 112, 67)" stroke-width="2px" d="M26.583333333333332,11.6076660633087L26.583333333333332,20.59381783191959L26.583333333333332,27.793004420470144L26.583333333333332,37.88413040123434L26.583333333333332,44.45477384854471L26.583333333333332,49.30185005134527L26.583333333333332,52.93421511322475L29,62.979066124904L29,71.08374024063983L29,77.69884661105827L29,83.29163823676721L29,88.0419538663673L29,92.07867808180488L29,95.5329372413288L29,98.5757390512901L29,101.28310660919293L31.416666666666668,104.15233250475069L31.416666666666668,106.61585277699825L31.416666666666668,108.78377885129493L31.416666666666668,110.69117553869171L31.416666666666668,112.43431393875322L31.416666666666668,113.99151890821717L31.416666666666668,115.36238023731796L31.416666666666668,116.58330029146373L33.833333333333336,118.14724242644036L33.833333333333336,119.13430531510026L33.833333333333336,120.03057013793185L33.833333333333336,120.88623800452515L33.833333333333336,121.67674792318533L33.833333333333336,122.4028550837626L33.833333333333336,123.1074752323337L33.833333333333336,123.77002806957792L36.25,124.55553693024788L36.25,125.35804981517015L36.25,126.00597305820068L36.25,126.65664378173491L36.25,127.2150665804439L36.25,127.72284325360911L36.25,128.1854624320711L36.25,128.6031226804024L36.25,128.9767513644983L38.666666666666664,129.3063449401978L38.666666666666664,129.65211986780707L38.666666666666664,129.99859883485428L38.666666666666664,130.30196136111465L38.666666666666664,130.58612593538314L38.666666666666664,130.85665844363467L38.666666666666664,131.0906625161807L38.666666666666664,131.29563440095396L38.666666666666664,131.494740579847L41.083333333333336,131.68743541679643L41.083333333333336,131.86687976599436L41.083333333333336,132.03368252746077L41.083333333333336,132.2028029523001L41.083333333333336,132.3407246594955L41.083333333333336,132.4814545920487L41.083333333333336,132.61535692835966L41.083333333333336,132.7432240362601L43.5,132.98475643312653L43.5,133.1878734039506L43.5,133.37303118724583L43.5,133.50396857110124L43.5,133.614723013317L43.5,133.7223010289019L43.5,133.81275815796124L45.916666666666664,133.8931456948764L45.916666666666664,133.94756787337656L45.916666666666664,134.03825618871818L45.916666666666664,134.13087652332413L45.916666666666664,134.21459172796733L45.916666666666664,134.27903124854194L48.33333333333333,134.4219446561743L48.33333333333333,134.5595328142113L48.33333333333333,134.71309336755925L48.33333333333333,134.83340240707136L48.33333333333333,134.94405271981248L48.33333333333333,135.06162594683718L48.33333333333333,135.17106714406742L48.33333333333333,135.27785510324182L48.33333333333333,135.380559207715L50.75,135.24055119463668L50.75,135.40584699315028L50.75,135.56272422844063L50.75,135.74759995068638L50.75,135.90200903284628L50.75,136.03891736197724L50.75,136.17065157073264L53.166666666666664,136.20572149807967L53.166666666666664,136.2690043618584L53.166666666666664,136.32222012362377L53.166666666666664,136.3721870736805L53.166666666666664,136.4476937254247L53.166666666666664,136.49780327266677L53.166666666666664,136.56383391760502L53.166666666666664,136.63422489815906L53.166666666666664,136.69778936236506L53.166666666666664,136.77283459388622L55.583333333333336,136.81258507871013L55.583333333333336,136.84791788929112L55.583333333333336,136.87705600433662L55.583333333333336,136.91824819185146L55.583333333333336,136.94089752676638L55.583333333333336,136.96222492065777L55.583333333333336,136.9861655965936L55.583333333333336,137.00600822880668L55.583333333333336,137.02258331373002L55.583333333333336,137.03841156996143L55.583333333333336,137.05437512965833L55.583333333333336,137.0742424827777L55.583333333333336,137.09874867480366L58,137.25548624974303L58,137.2911354046258L58,137.3697752802698L58,137.46669327508883L58,137.56552711034345L58,137.66445042536844L58,137.76212837591137L58,137.85982246712962L58,137.9567780626598L60.41666666666667,137.95285936365218L60.41666666666667,138.1219280323989L60.41666666666667,138.19237727984944L60.41666666666667,138.25162183227746L60.41666666666667,138.2904289968938L60.41666666666667,138.32462997114234L60.41666666666667,138.36420606677285L60.41666666666667,138.39475107497566L60.41666666666667,138.42123887353657L60.41666666666667,138.4556148082779L60.41666666666667,138.49110321426022L60.41666666666667,138.5142685085598L60.41666666666667,138.54057001318654L60.41666666666667,138.55611782811306L62.833333333333336,138.5635335352247L62.833333333333336,138.5897569895672L62.833333333333336,138.58158104636158L62.833333333333336,138.58811998308315L62.833333333333336,138.5840126983207L62.833333333333336,138.59304208425553L62.833333333333336,138.60764213792896L62.833333333333336,138.62279544358037L62.833333333333336,138.65162497268392L65.25,138.633802715322L65.25,138.73132961430608L65.25,138.81874999029358L65.25,138.87872698910778L65.25,138.90718952365717L65.25,138.9513165681156L65.25,138.9982381972295L65.25,139.0436965726303L65.25,139.10126749851761L65.25,139.15684295878518L65.25,139.22521955613146L65.25,139.27831103682917L65.25,139.32954282963686L65.25,139.38290338254942L65.25,139.43182383561617L65.25,139.48095246385734L67.66666666666667,139.42763357211632L67.66666666666667,139.39645749584355L67.66666666666667,139.37458677600117L67.66666666666667,139.37306392728405L67.66666666666667,139.3832133886941L67.66666666666667,139.40865573149625L67.66666666666667,139.41149245129046L67.66666666666667,139.43060745841638L67.66666666666667,139.45589212867506L67.66666666666667,139.47190106934548L67.66666666666667,139.48290490141855L67.66666666666667,139.5076976517431L67.66666666666667,139.51509683471753L67.66666666666667,139.53557973523093L67.66666666666667,139.5669872419694L70.08333333333333,139.4815818012254L70.08333333333333,139.5626004434362L70.08333333333333,139.69479734879152L70.08333333333333,139.81706397341782L70.08333333333333,139.93410114989595L70.08333333333333,139.96483039399504L70.08333333333333,140.0045554569427L70.08333333333333,140.04061205823461L72.5,140.041011186866L72.5,140.09980545029413L72.5,140.12375265689712L72.5,140.16292044882982L72.5,140.25779116017634L72.5,140.35805165928747L72.5,140.4660875048361L72.5,140.58239507362362L72.5,140.69939156206905L72.5,140.8173084115047L72.5,140.92680613543334L72.5,141.02273033309484L72.5,141.1181060203832L74.91666666666667,141.0460865442841L74.91666666666667,141.03776228979228L74.91666666666667,141.0695482540331L74.91666666666667,141.11611800861695L74.91666666666667,141.14938456116414L74.91666666666667,141.17554471919874L74.91666666666667,141.2490735654417L74.91666666666667,141.31467762983738L74.91666666666667,141.36912440541212L74.91666666666667,141.4227514334789L74.91666666666667,141.47188283534845L74.91666666666667,141.50333504553282L74.91666666666667,141.53414404589103L77.33333333333333,141.58810436868123L77.33333333333333,141.6307818103266L77.33333333333333,141.647518135887L77.33333333333333,141.66859513750904L77.33333333333333,141.69516729835678L77.33333333333333,141.72465884493704L77.33333333333333,141.76351715050887L77.33333333333333,141.80627359064312L77.33333333333333,141.8558307852183L77.33333333333333,141.9023793716295L77.33333333333333,141.90230557757295L77.33333333333333,141.90497904286295L77.33333333333333,141.9020760066322L77.33333333333333,141.90153049181973L77.33333333333333,141.90605680367085L79.75,141.95770474933198L79.75,141.99123834191505L79.75,142.08491314961768L79.75,142.1637264277726L79.75,142.21766859847565L79.75,142.2692675706841L79.75,142.33098624205215L79.75,142.3732024467544L79.75,142.40366080107017L79.75,142.42303835900103L82.16666666666667,142.43370326001477L82.16666666666667,142.45918950556538L82.16666666666667,142.48185267134636L82.16666666666667,142.507453942029L82.16666666666667,142.53190806634964L82.16666666666667,142.56487455343435L82.16666666666667,142.58747517550268L82.16666666666667,142.60244111057594L82.16666666666667,142.60966721274L82.16666666666667,142.60993874364883L82.16666666666667,142.62086070145537L82.16666666666667,142.6473438626378L84.58333333333334,142.8591054405546L84.58333333333334,142.99859426648484L84.58333333333334,143.04628141383748L84.58333333333334,143.10963796851172L84.58333333333334,143.14137371404044L84.58333333333334,143.17652285998037L87,143.30496415225807L87,143.45508181765777L87,143.56866563865788L87,143.67480047289948L87,143.77102661344063L87,143.77664003732144L87,143.78560147586774L87,143.80690307304246L87,143.822980233349L89.41666666666667,143.84905044305415L89.41666666666667,143.86558652578154L89.41666666666667,143.88762371439225L89.41666666666667,143.94612719374283L89.41666666666667,144.01347616639558L89.41666666666667,144.1121942005323L89.41666666666667,144.1699120824912L89.41666666666667,144.2282398174453L89.41666666666667,144.28462492732382L91.83333333333333,144.3539878675257L91.83333333333333,144.41098844908208L91.83333333333333,144.44774885124346L91.83333333333333,144.48922016195354L91.83333333333333,144.52007765360966L91.83333333333333,144.55209149347536L91.83333333333333,144.58892116714676L91.83333333333333,144.62598876528688L91.83333333333333,144.6564681278244L91.83333333333333,144.70560150548846L91.83333333333333,144.7413926917342L94.25,144.8428316795091L94.25,144.92946367389965L94.25,145.0188441874727L94.25,145.10583508120703L94.25,145.17790107887998L94.25,145.23153993062766L94.25,145.28417798418636L94.25,145.3313081956891L94.25,145.3804184830191L94.25,145.42676308337997L94.25,145.47410949018516L94.25,145.52731917752126L94.25,145.5798153859745L94.25,145.62844768193716L96.66666666666666,145.59358249629685L96.66666666666666,145.50607730226128L96.66666666666666,145.49370269412995L96.66666666666666,145.49500088974906L96.66666666666666,145.50256208028242L99.08333333333333,145.54855242098262L99.08333333333333,145.59790702422157L99.08333333333333,145.63058987121124L99.08333333333333,145.6212826230312L99.08333333333333,145.57509365246153L99.08333333333333,145.61794376776916L99.08333333333333,145.66374018059452L99.08333333333333,145.71614096957106L99.08333333333333,145.77393129627768L99.08333333333333,145.81821192459785L101.5,145.7920894989844L101.5,145.85572881148283L101.5,145.91693837425166L101.5,146.03632928848012L101.5,146.15545927327193L101.5,146.24845478322777L101.5,146.33587105972964L101.5,146.42427065830452L103.91666666666667,146.29160238801578L103.91666666666667,146.253270928523L103.91666666666667,146.2388043100611L103.91666666666667,146.2424954629929L103.91666666666667,146.24635601151866L103.91666666666667,146.2610857590337L103.91666666666667,146.2910090260007L103.91666666666667,146.31394906259342L103.91666666666667,146.33755670113095L103.91666666666667,146.37525036796032L106.33333333333333,146.38707545720277L106.33333333333333,146.38715844548756L106.33333333333333,146.44232844747665L106.33333333333333,146.4858014424703L106.33333333333333,146.53422521776812L106.33333333333333,146.56938660092956L106.33333333333333,146.60973710462986L106.33333333333333,146.6415654666176L106.33333333333333,146.66578415006458L108.75,146.6780393163557L108.75,146.70516915725474L108.75,146.73718178929582L108.75,146.7726382828634L108.75,146.82030495135328L108.75,146.85567601275582L108.75,146.87312749174052L108.75,146.9014327465954L108.75,146.9284113588322L111.16666666666667,147.0728522270198L111.16666666666667,147.15108587664872L111.16666666666667,147.22483233992904L111.16666666666667,147.3025908861946L111.16666666666667,147.3692932923593L111.16666666666667,147.4411122009659L111.16666666666667,147.50894190068914L111.16666666666667,147.5727165189246L111.16666666666667,147.6253814494386L111.16666666666667,147.678156666646L111.16666666666667,147.74696666231847L111.16666666666667,147.8056986116264L113.58333333333333,147.79706603256668L113.58333333333333,147.82630025387394L113.58333333333333,147.85814401766478L113.58333333333333,147.87662493343717L113.58333333333333,147.9066603696868L113.58333333333333,147.94152193742264L113.58333333333333,147.99857948214301L113.58333333333333,148.05260743670976L113.58333333333333,148.1151291495682L113.58333333333333,148.16293135734367L113.58333333333333,148.21152903389964L113.58333333333333,148.26451161343115L113.58333333333333,148.31935836344573L113.58333333333333,148.37208258973078L116,148.45274720646287L116,148.54597219470105L116,148.64453682700307L116,148.76737779902606L116,148.8785015631753L116,148.97234278942753L116,149.0448097317764L116,149.1071487108136L116,149.1690256539532L116,149.22895922983082L116,149.28434738364146L116,149.31815966024536L116,149.3547951499884L116,149.38765185864517L116,149.4166528647135L116,149.4463280674312L118.41666666666667,149.40433865265618L118.41666666666667,149.42954076278718L118.41666666666667,149.42764048815445L118.41666666666667,149.42968545783623L118.41666666666667,149.43684938499348L118.41666666666667,149.4479917023941L120.83333333333334,149.4878263128153L120.83333333333334,149.53535991554793L120.83333333333334,149.5374616702736L120.83333333333334,149.53622792048301L120.83333333333334,149.52576339868094L120.83333333333334,149.5101134859907L120.83333333333334,149.5056895358523L123.25,149.6673795513314L123.25,149.66487111343665L123.25,149.6746127103778L123.25,149.68860207740568L123.25,149.71273317882745L123.25,149.75632258103326L123.25,149.80875095624228L123.25,149.85324755904495L123.25,149.9070246583418L123.25,149.95966164591871L123.25,150.0122330769967L123.25,150.05766263704865L123.25,150.0945814360059L125.66666666666667,150.1969138511104L125.66666666666667,150.2107185329757L125.66666666666667,150.2233023146337L125.66666666666667,150.24331026660178L125.66666666666667,150.2893986727776L128.08333333333334,150.311455943067L128.08333333333334,150.3044000410854L128.08333333333334,150.26251841291213L128.08333333333334,150.2448115349656L128.08333333333334,150.24577839322959L128.08333333333334,150.26103386115284L128.08333333333334,150.27521691252988L128.08333333333334,150.29019524449313L128.08333333333334,150.2943356736961L128.08333333333334,150.30769447120835L128.08333333333334,150.31157975287525L130.5,150.4508522698344L130.5,150.5054143553727L130.5,150.5953033214502L130.5,150.68114041264982L130.5,150.736224083787L130.5,150.8083775904448L130.5,150.8725425250798L130.5,150.93991520893846L130.5,150.98413954961777L130.5,151.02712644030464L130.5,151.07358345574238L132.91666666666666,151.2637868967634L132.91666666666666,151.4493479459398L132.91666666666666,151.57509739166971L132.91666666666666,151.68093031902706L132.91666666666666,151.7775775868482L132.91666666666666,151.84934744923666L132.91666666666666,151.92744056429265L132.91666666666666,151.98954872075913L132.91666666666666,152.04005553658328L132.91666666666666,152.0868865317028L135.33333333333334,152.20133528378946L135.33333333333334,152.32612400695785L135.33333333333334,152.42630992545395L135.33333333333334,152.50945055528186L135.33333333333334,152.57741571050929L135.33333333333334,152.6530010510832L135.33333333333334,152.69175232280392L135.33333333333334,152.69480332262975L135.33333333333334,152.70261333526503L135.33333333333334,152.7259185430845L135.33333333333334,152.74872261440566L135.33333333333334,152.77556337801784L135.33333333333334,152.80061953002104L135.33333333333334,152.81875909504575L135.33333333333334,152.83807161868123L135.33333333333334,152.8472584594242L137.75,152.8732436843232L137.75,152.91885983687223L137.75,152.93945038909294L137.75,152.96980883384703L137.75,152.9687801337213L137.75,152.96567914914797L137.75,152.96640620400635L137.75,152.96718499880654L137.75,152.96619939774808L137.75,152.9683162531457L137.75,152.95700786283996L137.75,152.94644213242125L137.75,152.93870564834907L137.75,152.93224060783575L140.16666666666666,153.06119449017012L140.16666666666666,153.13958312336442L140.16666666666666,153.21086621821695L140.16666666666666,153.27194813940764L140.16666666666666,153.32400201451017L140.16666666666666,153.37655068235352L140.16666666666666,153.4015147844648L140.16666666666666,153.41921294885012L140.16666666666666,153.4163345887191L140.16666666666666,153.42041493338658L140.16666666666666,153.4255746710122L140.16666666666666,153.4384411609601L140.16666666666666,153.4445136635115L142.58333333333331,153.51236520113414L142.58333333333331,153.58983392165948L142.58333333333331,153.67904904141616L142.58333333333331,153.7694234019711L142.58333333333331,153.84598658501022L142.58333333333331,153.92522622503867L142.58333333333331,154.0045308265109L142.58333333333331,154.07336505426696L142.58333333333331,154.13871378804333L142.58333333333331,154.19159071832766L142.58333333333331,154.23571744929157L142.58333333333331,154.2773282005579L142.58333333333331,154.31610619768335L142.58333333333331,154.34710427520287L145,154.4043412071244L145,154.4625659955233L145,154.50876432538604L145,154.5553962720093L145,154.60120105445642L145,154.64356511786843L145,154.7039446403337L145,154.76338512353766L145,154.8198092724885L147.41666666666666,154.7608403129084L147.41666666666666,154.833719971634L147.41666666666666,154.86994515569438L147.41666666666666,154.9244927427756L147.41666666666666,154.96688756073604L147.41666666666666,154.96605447658735L147.41666666666666,154.96243089320654L147.41666666666666,154.95443087943667L147.41666666666666,154.93966212632117L147.41666666666666,154.95740372999282L147.41666666666666,154.96868256678763L147.41666666666666,154.9781140515512L147.41666666666666,154.98990611551608L147.41666666666666,154.99097528003142L149.83333333333334,155.05491448328266L149.83333333333334,155.0519367027392L149.83333333333334,155.068622187148L149.83333333333334,155.08752657373944L149.83333333333334,155.10070658097854L149.83333333333334,155.1087585984834L152.25,154.9120171614694L152.25,154.91025460708113L152.25,154.9107044273672L152.25,154.91896409306472L152.25,154.96145863064004L152.25,154.99182754786295L152.25,155.01532388299614L152.25,155.05109720708347L154.66666666666666,155.0658776596918L154.66666666666666,155.08067130624732L154.66666666666666,155.11215970953813L154.66666666666666,155.13698488949225L154.66666666666666,155.15521467422013L154.66666666666666,155.20523381829102L154.66666666666666,155.25173392802327L154.66666666666666,155.29046627585447L157.08333333333331,155.32810284305754L157.08333333333331,155.41385993926414L157.08333333333331,155.46178802281875L157.08333333333331,155.50320413856454L157.08333333333331,155.5573732846112L157.08333333333331,155.60060337359454L157.08333333333331,155.6372915889423L157.08333333333331,155.6891372591576L157.08333333333331,155.73905424225381L157.08333333333331,155.7830239364569L157.08333333333331,155.82439688261468L157.08333333333331,155.8526389557651L157.08333333333331,155.88092904832013L157.08333333333331,155.9185129087045L159.5,155.99948561100473L159.5,156.03503565642134L159.5,156.04181596795968L159.5,156.06011601629098L159.5,156.08347501223415L159.5,156.10217030854892L159.5,156.11431084326188L159.5,156.13234949488157L159.5,156.16183184981128L159.5,156.19262793034108L159.5,156.2209990599881L159.5,156.24848282676675L159.5,156.27915001476458L161.91666666666666,156.23261644717473L161.91666666666666,156.24956276121335L161.91666666666666,156.28614937501615L161.91666666666666,156.25780644829666L161.91666666666666,156.2118531755091L161.91666666666666,156.17147176572752L161.91666666666666,156.14271205657343L161.91666666666666,156.1391083651179L161.91666666666666,156.15130469349268L161.91666666666666,156.1682901792713L161.91666666666666,156.17902741693842L161.91666666666666,156.1918389231982L161.91666666666666,156.20069081718432L164.33333333333334,156.1239630204238L164.33333333333334,156.02434471495027L164.33333333333334,156.0186498137784L164.33333333333334,156.03032014348594L164.33333333333334,156.05746989289486L164.33333333333334,156.08578413762237L164.33333333333334,156.1209132698745L164.33333333333334,156.15145431957566L164.33333333333334,156.19728294205493L164.33333333333334,156.24661684306696L164.33333333333334,156.28644823927306L166.75,156.39964581870726L166.75,156.50032494978615L166.75,156.58300520212137L166.75,156.6576574286734L166.75,156.7117618911335L166.75,156.77130311004578L166.75,156.8403901442751L166.75,156.91266037321304L169.16666666666669,156.97494487734042L169.16666666666669,157.03973462554643L169.16666666666669,157.10407272968877L169.16666666666669,157.1804160280474L169.16666666666669,157.26285443477587L169.16666666666669,157.33798481448608L169.16666666666669,157.41258856448442L169.16666666666669,157.48390470041102L169.16666666666669,157.55408891964558L169.16666666666669,157.62125081143947L169.16666666666669,157.6817355716831L171.58333333333334,157.67998989724876L171.58333333333334,157.69266845910323L171.58333333333334,157.6987834529295L171.58333333333334,157.71193814996914L171.58333333333334,157.73350654868122L174,157.83789452340648L174,157.88763571823756L174,157.96493578883872L174,158.02447647677087L174,158.0777210933458L174,158.12086940600142L174,158.1680109659233L174,158.18239608659627L174,158.20292052061924L176.41666666666666,158.23255202919233L176.41666666666666,158.31986411266018L176.41666666666666,158.4347149138636L176.41666666666666,158.50382118361566L176.41666666666666,158.56013537029926L176.41666666666666,158.60628839474398L176.41666666666666,158.65442604446812L176.41666666666666,158.6985194482722L176.41666666666666,158.72912440572205L176.41666666666666,158.76731459816617L176.41666666666666,158.80470171455846L176.41666666666666,158.8359271986295L178.83333333333334,158.94948940444576L178.83333333333334,159.03967346410116L178.83333333333334,159.14220751988046L178.83333333333334,159.22403882020507L178.83333333333334,159.2706267139326L178.83333333333334,159.29187508721748L178.83333333333334,159.31949511492869L178.83333333333334,159.34068964817513L178.83333333333334,159.36993993762601L178.83333333333334,159.3921079795688L178.83333333333334,159.41958387912047L181.25,159.50307810405587L181.25,159.5727512050143L181.25,159.6444717637745L181.25,159.70831428184562L181.25,159.77007084383297L181.25,159.82537649441798L181.25,159.8527830172637L183.66666666666666,159.86784508095246L183.66666666666666,159.90047362737616L183.66666666666666,159.94014365591724L183.66666666666666,159.97875937622996L183.66666666666666,160.0119928707888L183.66666666666666,160.02953738120198L183.66666666666666,160.04766505290715L183.66666666666666,160.06413412444954L183.66666666666666,160.07977974241481L183.66666666666666,160.10105933918788L183.66666666666666,160.09583120401223L183.66666666666666,160.09520079843944L183.66666666666666,160.0956640366227L183.66666666666666,160.09933426592102L186.08333333333334,160.15773543141967L186.08333333333334,160.19140120289276L186.08333333333334,160.19515209033563L186.08333333333334,160.1887591137762L186.08333333333334,160.21945762441172L186.08333333333334,160.22791230733523L186.08333333333334,160.2439976155019L186.08333333333334,160.2579068916334L186.08333333333334,160.26567794754394L186.08333333333334,160.26801595757976L188.5,160.2489529249772L188.5,160.19026581265723L188.5,160.15566453156157L188.5,160.1383250570935L188.5,160.11021482694247L188.5,160.085058851547L188.5,160.06536433123705L188.5,160.0554160665671L190.91666666666666,160.02799984620412L190.91666666666666,160.04080594833772L190.91666666666666,160.04628988885162L190.91666666666666,160.0447737294844L190.91666666666666,160.04081113154595L190.91666666666666,160.0473569363769L190.91666666666666,160.06220405031198L190.91666666666666,160.0944071077556L190.91666666666666,160.13199151198944L190.91666666666666,160.1697320590301L190.91666666666666,160.21036473874145L193.33333333333331,160.31684515432218L193.33333333333331,160.35140532570992L193.33333333333331,160.40047740133622L193.33333333333331,160.41855463457523L193.33333333333331,160.42829393306172L193.33333333333331,160.46006950885908L193.33333333333331,160.4882206790975L195.75,160.5574885287548L195.75,160.62904564924355L195.75,160.66972251144995L195.75,160.70774624424726L195.75,160.74192178382154L195.75,160.7751407629946L195.75,160.809530682898L195.75,160.84224541689912L195.75,160.87062519103944L195.75,160.90506409590571L195.75,160.93866620238495L198.16666666666666,160.93934774177353L198.16666666666666,160.94442014722253L198.16666666666666,160.9685320216101L198.16666666666666,160.98891579198812L198.16666666666666,161.00372276428914L198.16666666666666,161.01973639455832L198.16666666666666,161.0265860770248L198.16666666666666,161.04588148468707L198.16666666666666,161.06660170197762L198.16666666666666,161.08920641827845L200.58333333333334,161.11506153170117L200.58333333333334,161.11152522427494L200.58333333333334,161.12883058805787L200.58333333333334,161.15155401307888L200.58333333333334,161.17473432018974L200.58333333333334,161.1737454861888L200.58333333333334,161.17497438718522L200.58333333333334,161.18034576319815L200.58333333333334,161.18248375044269L200.58333333333334,161.19150633798742L203,161.21737956868972L203,161.27735920959708L203,161.36257120016515L203,161.42914132854474L203,161.4943299570886L203,161.5629853208112L203,161.6366595390722L203,161.70178252996212L203,161.75329478834217L203,161.82294059973398L203,161.86259824496872L205.41666666666669,161.82858798135567L205.41666666666669,161.82194326974735L205.41666666666669,161.81496719732777L205.41666666666669,161.81152577146045L205.41666666666669,161.81737189975325L205.41666666666669,161.8230586519102L205.41666666666669,161.8237705266224L205.41666666666669,161.83692537376874L207.83333333333334,161.87048533398027L207.83333333333334,161.89736711319495L207.83333333333334,161.93586998938918L207.83333333333334,161.97275736492304L207.83333333333334,162.0404569101667L207.83333333333334,162.10118737188168L207.83333333333334,162.15644742040664L207.83333333333334,162.20996227988985L210.25,162.23814548763553L210.25,162.32275422878337L210.25,162.413088852504L210.25,162.50381830783897L210.25,162.59465752015115L210.25,162.67768030873063L210.25,162.76327812448707L210.25,162.8303917634168L210.25,162.866935938328L210.25,162.90351129089098L210.25,162.94170957931465L212.66666666666666,163.0155217445111L212.66666666666666,163.02820687099347L212.66666666666666,163.1031812381133L212.66666666666666,163.17931871342813L212.66666666666666,163.18315039507297L212.66666666666666,163.1889585221823L212.66666666666666,163.20801693258338L212.66666666666666,163.22603380227852L212.66666666666666,163.22226394968757L212.66666666666666,163.2204083095953L212.66666666666666,163.21886673822175L215.08333333333334,163.27200652243158L215.08333333333334,163.33425997711606L215.08333333333334,163.38105485942484L215.08333333333334,163.41188121528617L215.08333333333334,163.41527992781633L215.08333333333334,163.41824310791296L215.08333333333334,163.42481947564295L215.08333333333334,163.43389891467544L215.08333333333334,163.43513461875864L215.08333333333334,163.43431748471212L217.5,163.5218641463466L217.5,163.53432195160488L217.5,163.53531566386437L217.5,163.5523223629471L217.5,163.56639905396426L217.5,163.59021484983126L217.5,163.60606964295656L219.91666666666666,163.6967107361781L219.91666666666666,163.77441219835637L219.91666666666666,163.8333607049952L219.91666666666666,163.89896388893936L219.91666666666666,163.94964918428L219.91666666666666,163.97133864935904L222.33333333333334,164.09659484940605L222.33333333333334,164.1104947215512L222.33333333333334,164.13055816947266L222.33333333333334,164.1546188917349L222.33333333333334,164.1460588757456L222.33333333333334,164.14005084376015L222.33333333333334,164.14027285330945L222.33333333333334,164.11822585320255L222.33333333333334,164.10883057607205L222.33333333333334,164.09786943602901L222.33333333333334,164.08918233660782L222.33333333333334,164.07955782553086L224.75,164.20263348354402L224.75,164.37017726606953L224.75,164.48828000835067L224.75,164.53582813293647L224.75,164.53626227372254L224.75,164.53999348067939L224.75,164.5253512078972L224.75,164.5145385352501L224.75,164.50391254299305L224.75,164.49726929008713L224.75,164.49666655304793L227.16666666666666,164.54835322370755L227.16666666666666,164.56059536603186L227.16666666666666,164.58448268069566L227.16666666666666,164.58920999694917L227.16666666666666,164.5985241537551L227.16666666666666,164.60374418636133L227.16666666666666,164.60109216762555L229.58333333333331,164.3953766861888L229.58333333333331,164.41894038184142L229.58333333333331,164.47955785414055L229.58333333333331,164.53732142944585L229.58333333333331,164.579541283195L229.58333333333331,164.60398573515567L229.58333333333331,164.6221191613462L229.58333333333331,164.63540759296788L229.58333333333331,164.63679213693732L232,164.79382340652194L232,164.73498384262444L232,164.68174116998966L232,164.66315330933088L232,164.64522950864855L232,164.6229801645495L232,164.61148996413613L232,164.60256559041957L232,164.59253869214086L232,164.5923496446064L234.41666666666666,164.5073871703941L234.41666666666666,164.42468150321625L234.41666666666666,164.3754931947667L234.41666666666666,164.3262420552L234.41666666666666,164.33481022995446L234.41666666666666,164.3483484422927L234.41666666666666,164.34594359824823L234.41666666666666,164.33255219686305L234.41666666666666,164.32717581845185L234.41666666666666,164.31158100946763L234.41666666666666,164.29592510416924L234.41666666666666,164.28662768082893L236.83333333333334,164.34399308873435L236.83333333333334,164.41380068210324L236.83333333333334,164.49348134507918L236.83333333333334,164.55860236897743L236.83333333333334,164.58851870967885L236.83333333333334,164.61795704672977L236.83333333333334,164.6585346996261L236.83333333333334,164.69318945671117L236.83333333333334,164.7210226727699L236.83333333333334,164.74675632154106L236.83333333333334,164.77045107129615L236.83333333333334,164.78813787719835L236.83333333333334,164.80356857617863L239.25,164.77163251249155L239.25,164.6736349050974L239.25,164.62053916946417L239.25,164.61417120179135L239.25,164.61135178552632L239.25,164.62181576638656L239.25,164.62737565151627L239.25,164.63261349604713L241.66666666666669,164.722372327406L241.66666666666669,164.79950123762174L241.66666666666669,164.84047111708253L241.66666666666669,164.8927119055034L241.66666666666669,164.95716422684086L241.66666666666669,164.9991894630863L244.08333333333334,164.96087948469918L244.08333333333334,164.94306992420724L244.08333333333334,164.95655073049377L244.08333333333334,164.97369381931003L244.08333333333334,164.97754549760867L244.08333333333334,164.98062935203598L246.5,165.10475977792115L246.5,165.21365681983116L246.5,165.29892235400507L246.5,165.36306514861303L246.5,165.411964810749L246.5,165.4362945108782L246.5,165.46657620228453L246.5,165.50229126244056L246.5,165.54361006883587L246.5,165.58211071833387L246.5,165.61625270900322L248.91666666666666,165.6219163914952L248.91666666666666,165.6742017607303L248.91666666666666,165.72940423810394L248.91666666666666,165.75666817255532L248.91666666666666,165.75672689483892L248.91666666666666,165.76129624422404L248.91666666666666,165.7549729000252L248.91666666666666,165.74785955321641L248.91666666666666,165.74198675685386L251.33333333333334,165.73477050062613L251.33333333333334,165.74154410329228L251.33333333333334,165.75120917884934L251.33333333333334,165.76702854704862L251.33333333333334,165.7783399102927L251.33333333333334,165.79297971854095L251.33333333333334,165.80440959993015L251.33333333333334,165.81013487398485L253.75,165.82260969409217L253.75,165.85512536528134L253.75,165.86083709760808L253.75,165.89060082560866L253.75,165.9054686078408L253.75,165.91689377780054L253.75,165.93102215237946L253.75,165.94249710164618L253.75,165.960124206305L256.1666666666667,166.03718284971757L256.1666666666667,166.08830762840194L256.1666666666667,166.11740636607047L256.1666666666667,166.13686387718752L256.1666666666667,166.1559237527051L256.1666666666667,166.16880916474645L256.1666666666667,166.18428045920993L256.1666666666667,166.20096950562638L256.1666666666667,166.2158505964304L256.1666666666667,166.22746538615462L258.58333333333337,166.2128787076615L258.58333333333337,166.16313440783176L258.58333333333337,166.11857680990485L258.58333333333337,166.07447706191218L258.58333333333337,166.03957380098157L258.58333333333337,166.01340720275988L258.58333333333337,165.99292956738623L258.58333333333337,165.97303324035312L258.58333333333337,165.9542203498575L258.58333333333337,165.94710095018726L261,165.936266530713L261,165.96894037982076L261,165.98608615733423L261,166.00197638263677L261,166.02601060291983L261,166.03494846929922L261,166.02910248979254L263.4166666666667,166.22736442294823L263.4166666666667,166.2957072852726L263.4166666666667,166.29434642421617L263.4166666666667,166.28955785638138L263.4166666666667,166.27965458070975L263.4166666666667,166.27329964522474L263.4166666666667,166.276510605909L263.4166666666667,166.28217188528447L263.4166666666667,166.28861196041808L263.4166666666667,166.29030508876514L263.4166666666667,166.29027646101153L265.8333333333333,166.25971670936352L265.8333333333333,166.24307489128176L265.8333333333333,166.23416804358067L265.8333333333333,166.21937889874445L265.8333333333333,166.19205411830984L265.8333333333333,166.16755596370967L265.8333333333333,166.14968116316098L265.8333333333333,166.13699237914136L265.8333333333333,166.12852214058927L265.8333333333333,166.12967951701737L265.8333333333333,166.13511561121862L265.8333333333333,166.14227095363546L265.8333333333333,166.1487145756891" style="fill: none;" fill="none"></path></g></g></g></g><g opacity="0.2"><g><g><g><path stroke="rgb(255, 112, 67)" stroke-width="2px" d="M26.583333333333332,11.6076660633087L26.583333333333332,29.130662012100203L26.583333333333332,41.12949757575987L26.583333333333332,65.22982041835783L26.583333333333332,67.61222641468046L26.583333333333332,70.13536970615385L26.583333333333332,71.21683137416838L29,120.55204753875731L29,122.91322689056395L29,124.17169682979582L29,125.93107126951216L29,126.96033142805098L29,127.33202980756758L29,127.47274600267409L29,128.19490556716917L29,128.89139692783354L31.416666666666668,134.67399065494538L31.416666666666668,133.8518274307251L31.416666666666668,133.61287997961045L31.416666666666668,133.25621538162233L31.416666666666668,133.6810225725174L31.416666666666668,133.50225244760514L31.416666666666668,132.98187260627748L31.416666666666668,132.65087621212004L33.833333333333336,139.18571816682817L33.833333333333336,132.68628208637236L33.833333333333336,132.57210974693297L33.833333333333336,133.0739109992981L33.833333333333336,133.1243506550789L33.833333333333336,133.08187626600267L33.833333333333336,133.6217208981514L33.833333333333336,133.79165010452272L36.25,136.58912562131883L36.25,137.79981451034547L36.25,136.16432898044587L36.25,136.96614121198655L36.25,136.15105705261232L36.25,135.9244953274727L36.25,135.7236018061638L36.25,135.46517901420594L36.25,135.16339563131334L38.666666666666664,134.80408297777177L38.666666666666664,135.45987235307695L38.666666666666664,135.85635273456575L38.666666666666664,135.46252040863038L38.666666666666664,135.4483622789383L38.666666666666664,135.51119821071626L38.666666666666664,135.13772742748262L38.666666666666664,134.85806744098664L38.666666666666664,134.97135357856752L41.083333333333336,135.0669262290001L41.083333333333336,135.0270998954773L41.083333333333336,134.98285310268403L41.083333333333336,135.20410816669465L41.083333333333336,134.79700391292573L41.083333333333336,134.9961250305176L41.083333333333336,135.0156003713608L41.083333333333336,135.04215477705003L43.5,137.3396119952202L43.5,136.85994468927385L43.5,136.72895561456681L43.5,135.88289659023286L43.5,135.63156341314317L43.5,135.68554787635804L43.5,135.46695141792299L45.916666666666664,135.36606155633928L45.916666666666664,134.94657157659532L45.916666666666664,135.70589886903764L45.916666666666664,135.83687739372255L45.916666666666664,135.758997130394L45.916666666666664,135.46961002349855L48.33333333333333,137.06614487171174L48.33333333333333,137.1086298108101L48.33333333333333,137.5617427110672L48.33333333333333,137.06791727542878L48.33333333333333,137.00153653621675L48.33333333333333,137.250221657753L48.33333333333333,137.2103953242302L48.33333333333333,137.2696969985962L48.33333333333333,137.29801325798036L50.75,132.62433235645292L50.75,138.49719207286836L50.75,138.4989644765854L50.75,139.21050016880037L50.75,138.7963168501854L50.75,138.60693340301515L50.75,138.64321492910386L53.166666666666664,136.86436514854432L53.166666666666664,137.45820479393007L53.166666666666664,137.32279525995256L53.166666666666664,137.31217138767244L53.166666666666664,137.86884330511094L53.166666666666664,137.44138805866243L53.166666666666664,137.80777977705003L53.166666666666664,137.96088169813157L53.166666666666664,137.89627336263658L53.166666666666664,138.1883296251297L55.583333333333336,137.56262891292573L55.583333333333336,137.51483731269838L55.583333333333336,137.42722992897035L55.583333333333336,137.6962660431862L55.583333333333336,137.36881445646287L55.583333333333336,137.36528019905091L55.583333333333336,137.43872945308686L55.583333333333336,137.3812001824379L55.583333333333336,137.3360671877861L55.583333333333336,137.33783959150315L55.583333333333336,137.35642873048783L55.583333333333336,137.4502395272255L55.583333333333336,137.56262891292573L58,140.22294359207154L58,137.96618835926057L58,138.85915278196336L58,139.302538561821L58,139.4379480957985L58,139.5388379573822L58,139.61317341327668L58,139.71141521930696L58,139.7946021437645L60.41666666666667,137.87857042551042L60.41666666666667,141.32741485834123L60.41666666666667,139.5282140851021L60.41666666666667,139.37511216402055L60.41666666666667,139.0264233827591L60.41666666666667,138.97332512140275L60.41666666666667,139.11491696834565L60.41666666666667,138.97420077323915L60.41666666666667,138.92376111745835L60.41666666666667,139.10783790349961L60.41666666666667,139.16448097229005L60.41666666666667,138.95384978055955L60.41666666666667,139.03969531059266L60.41666666666667,138.8511875152588L62.833333333333336,138.70427845716478L62.833333333333336,139.08748691082002L62.833333333333336,138.42639087438585L62.833333333333336,138.71224372386934L62.833333333333336,138.50604354143144L62.833333333333336,138.76445578336717L62.833333333333336,138.88482098579408L62.833333333333336,138.9104891896248L62.833333333333336,139.19899009466172L65.25,138.29541234970094L65.25,140.5831318974495L65.25,140.47870777845384L65.25,140.01761906147004L65.25,139.44767521619798L65.25,139.78928493261338L65.25,139.8892991423607L65.25,139.90699152946473L65.25,140.19461678266526L65.25,140.21231971979142L65.25,140.52384077310563L65.25,140.2866551756859L65.25,140.302585709095L65.25,140.39639650583268L65.25,140.3610011816025L65.25,140.41409944295884L67.66666666666667,138.4148808002472L67.66666666666667,138.80428211688996L67.66666666666667,138.95915644168855L67.66666666666667,139.34413729906083L67.66666666666667,139.57600568532945L67.66666666666667,139.89194719791413L67.66666666666667,139.46537815332414L67.66666666666667,139.793715941906L67.66666666666667,139.93620454072953L67.66666666666667,139.77601300477983L67.66666666666667,139.69193987846376L67.66666666666667,139.97867892980577L67.66666666666667,139.65565835237504L67.66666666666667,139.9246944665909L67.66666666666667,140.16364191770555L70.08333333333333,137.85910563468934L70.08333333333333,141.10174988508226L70.08333333333333,142.20622115135194L70.08333333333333,142.13985096216203L70.08333333333333,142.1575538992882L70.08333333333333,140.54862277507783L70.08333333333333,140.75925396680833L70.08333333333333,140.72562049627305L72.5,140.04859392642976L72.5,141.21679787635804L72.5,140.57871143817903L72.5,140.90704922676088L72.5,142.06019829511644L72.5,142.26286422014238L72.5,142.51862840652467L72.5,142.79209553003312L72.5,142.9221878528595L72.5,143.05759738683702L72.5,143.0071471810341L72.5,142.84519379138948L72.5,142.93015311956407L74.91666666666667,139.67778174877168L74.91666666666667,140.87960861921312L74.91666666666667,141.67345558404924L74.91666666666667,142.00090717077256L74.91666666666667,141.78142451047898L74.91666666666667,141.67256938219072L74.91666666666667,142.64607267379762L74.91666666666667,142.56111334562303L74.91666666666667,142.40358041524888L74.91666666666667,142.44163434505464L74.91666666666667,142.40535281896592L74.91666666666667,142.10091083049775L74.91666666666667,142.11949996948243L77.33333333333333,142.61332540512086L77.33333333333333,142.44163434505464L77.33333333333333,141.96550129652024L77.33333333333333,142.06904976367952L77.33333333333333,142.20002828836442L77.33333333333333,142.284987616539L77.33333333333333,142.50181167125703L77.33333333333333,142.61863206624986L77.33333333333333,142.79740219116212L77.33333333333333,142.78678886890413L77.33333333333333,141.90090351104737L77.33333333333333,141.95577417612077L77.33333333333333,141.8469190478325L77.33333333333333,141.89116584062577L77.33333333333333,141.99205570220948L79.75,142.93900458812715L79.75,142.62836973667146L79.75,143.8647162795067L79.75,143.66116415262223L79.75,143.2425603747368L79.75,143.24963943958284L79.75,143.5036312222481L79.75,143.17530398368837L79.75,142.9823651790619L79.75,142.7912093281746L82.16666666666667,142.63633500337602L82.16666666666667,142.94342504739762L82.16666666666667,142.9124501824379L82.16666666666667,142.99387525320054L82.16666666666667,142.9965338587761L82.16666666666667,143.19123451709748L82.16666666666667,143.0168848514557L82.16666666666667,142.88679252862931L82.16666666666667,142.74696253538133L82.16666666666667,142.6150978088379L82.16666666666667,142.82837705612184L82.16666666666667,143.15052198171617L84.58333333333334,146.8825606584549L84.58333333333334,145.64887272119523L84.58333333333334,143.95233421325685L84.58333333333334,144.31340872049333L84.58333333333334,143.74435107707978L84.58333333333334,143.84435473680497L87,145.74534212350846L87,146.30731015205384L87,145.72675298452378L87,145.6913576602936L87,145.59931926727296L87,143.88329486846925L87,143.9558684706688L87,144.2116326570511L87,144.12844573259355L89.41666666666667,144.34438358545304L89.41666666666667,144.17977159023286L89.41666666666667,144.3063296556473L89.41666666666667,145.05769168138505L89.41666666666667,145.29310487508775L89.41666666666667,145.9878343820572L89.41666666666667,145.2665504693985L89.41666666666667,145.3364654660225L89.41666666666667,145.3559408068657L91.83333333333333,145.6718823194504L91.83333333333333,145.49399839639665L91.83333333333333,145.14619581699372L91.83333333333333,145.27717434167863L91.83333333333333,145.10636948347093L91.83333333333333,145.1603539466858L91.83333333333333,145.28868441581727L91.83333333333333,145.33027260303498L91.83333333333333,145.2355756044388L91.83333333333333,145.63913505077363L91.83333333333333,145.4214247941971L94.25,146.77017127275468L94.25,146.5754706144333L94.25,146.71707301139833L94.25,146.75866119861604L94.25,146.54715435504914L94.25,146.25067763328553L94.25,146.2843005537987L94.25,146.22678183317186L94.25,146.3135135650635L94.25,146.30731015205384L94.25,146.37369089126588L94.25,146.53830288648606L94.25,146.57724301815034L94.25,146.55246101617814L96.66666666666666,144.93114416599275L96.66666666666666,143.84347908496858L96.66666666666666,145.25858520269395L96.66666666666666,145.51966660022737L96.66666666666666,145.6462246656418L99.08333333333333,146.42236869335176L99.08333333333333,146.5356442809105L99.08333333333333,146.25156383514405L99.08333333333333,145.44444494247438L99.08333333333333,144.6975033760071L99.08333333333333,146.43209581375123L99.08333333333333,146.53387187719346L99.08333333333333,146.7117558002472L99.08333333333333,146.8719473361969L99.08333333333333,146.65954374074937L101.5,145.2957634806633L101.5,147.06487559080125L101.5,147.07991992235185L101.5,148.30475639104844L101.5,148.41892873048783L101.5,148.015369284153L101.5,147.99678014516832L101.5,148.10386286973954L103.91666666666667,143.77090548276902L103.91666666666667,145.52497326135637L103.91666666666667,145.96393858194352L103.91666666666667,146.31262736320497L103.91666666666667,146.319706428051L103.91666666666667,146.5409509420395L103.91666666666667,146.85955106019975L103.91666666666667,146.74980973005296L103.91666666666667,146.7861018061638L103.91666666666667,147.0914299964905L106.33333333333333,146.61175214052201L106.33333333333333,146.38873522281648L106.33333333333333,147.49055843353273L106.33333333333333,147.31178830862046L106.33333333333333,147.454276907444L106.33333333333333,147.237452852726L106.33333333333333,147.37639664411546L106.33333333333333,147.24630432128907L106.33333333333333,147.12593911886216L108.75,146.9108874678612L108.75,147.22063611745835L108.75,147.34542177915574L108.75,147.44631164073945L108.75,147.72597162723542L108.75,147.52772616147996L108.75,147.20470558404924L108.75,147.4392325758934L108.75,147.44100497961045L111.16666666666667,149.8172286629677L111.16666666666667,148.6375251889229L111.16666666666667,148.62601511478425L111.16666666666667,148.78000323772432L111.16666666666667,148.63663898706437L111.16666666666667,148.80567144155503L111.16666666666667,148.79770617485048L111.16666666666667,148.78443424701692L111.16666666666667,148.62601511478425L111.16666666666667,148.68088577985765L111.16666666666667,149.0543565630913L111.16666666666667,148.92160563468934L113.58333333333333,147.63304703235627L113.58333333333333,148.38175045251847L113.58333333333333,148.4631755232811L113.58333333333333,148.2277623295784L113.58333333333333,148.4773336529732L113.58333333333333,148.60389171838762L113.58333333333333,149.08267282247544L113.58333333333333,149.0791385650635L113.58333333333333,149.30304168462754L113.58333333333333,149.07117329835893L113.58333333333333,149.13488488197328L113.58333333333333,149.2711806178093L113.58333333333333,149.3614466071129L113.58333333333333,149.37384288311006L116,149.98537491559983L116,150.31724696159364L116,150.51726483106614L116,151.10135625600816L116,150.98985307216645L116,150.75532608032228L116,150.42168163061143L116,150.29158930778505L116,150.3446875691414L116,150.36769716739656L116,150.33672230243684L116,149.96059291362764L116,150.05086945295335L116,150.01192932128907L116,149.96767197847367L116,150.01015691757203L118.41666666666667,148.60653977394105L118.41666666666667,149.9083808541298L118.41666666666667,149.3915352702141L118.41666666666667,149.46853988170625L118.41666666666667,149.57296400070192L118.41666666666667,149.65969573259355L120.83333333333334,150.2446839094162L120.83333333333334,150.43849836587907L120.83333333333334,149.57739500999452L120.83333333333334,149.51278667449952L120.83333333333334,149.32693748474122L120.83333333333334,149.21276514530183L120.83333333333334,149.4216344833374L123.25,152.7394898414612L123.25,149.6172107934952L123.25,149.85970305204393L123.25,149.95440005064012L123.25,150.17122410535814L123.25,150.58452122211457L123.25,150.80489008426667L123.25,150.69868301153184L123.25,150.92878954410554L123.25,150.95976440906526L123.25,151.01109026670457L123.25,150.92082427740098L123.25,150.7960386157036L125.66666666666667,152.14122973680497L125.66666666666667,150.47300748825074L125.66666666666667,150.46239416599275L125.66666666666667,150.62346135377885L125.66666666666667,151.16507838964463L128.08333333333334,150.73054407835008L128.08333333333334,150.17033790349961L128.08333333333334,149.4667674779892L128.08333333333334,149.9083808541298L128.08333333333334,150.26414870023729L128.08333333333334,150.5508877515793L128.08333333333334,150.54469488859178L128.08333333333334,150.57478355169297L128.08333333333334,150.37300382852555L128.08333333333334,150.56151162385942L128.08333333333334,150.38540010452272L130.5,153.09703009128572L130.5,151.54209398031236L130.5,152.30319367647172L130.5,152.3120451450348L130.5,151.78281383514405L130.5,152.17929421663285L130.5,152.0916762828827L130.5,152.21999620199205L130.5,151.82440202236177L130.5,151.84387736320497L130.5,151.9562667489052L132.91666666666666,154.8776522755623L132.91666666666666,154.97500787973405L132.91666666666666,153.9643368601799L132.91666666666666,153.69175593852998L132.91666666666666,153.61387567520143L132.91666666666666,153.21297483444215L132.91666666666666,153.4112097501755L132.91666666666666,153.16960369348527L132.91666666666666,152.9996850371361L132.91666666666666,152.97667543888093L135.33333333333334,154.3758615732193L135.33333333333334,154.697109746933L135.33333333333334,154.329842376709L135.33333333333334,154.0891225218773L135.33333333333334,153.8687536597252L135.33333333333334,154.0891225218773L135.33333333333334,153.42802648544313L135.33333333333334,152.75277231931688L135.33333333333334,152.85100357532502L135.33333333333334,153.16871749162675L135.33333333333334,153.18199996948243L135.33333333333334,153.28553788661958L135.33333333333334,153.2766864180565L135.33333333333334,153.16341083049775L135.33333333333334,153.2050095677376L135.33333333333334,153.02180843353273L137.75,153.3669629573822L137.75,153.78556673526765L137.75,153.33067088127137L137.75,153.546619284153L137.75,152.94923483133317L137.75,152.90676044225694L137.75,152.980220246315L137.75,152.98198210000993L137.75,152.94747297763826L137.75,153.00853650569917L137.75,152.74214844703675L137.75,152.74569325447084L137.75,152.79171245098115L137.75,152.8094048380852L140.16666666666666,155.51131825447084L140.16666666666666,154.62896715402604L140.16666666666666,154.56524502038957L140.16666666666666,154.43250464200975L140.16666666666666,154.31302564144136L140.16666666666666,154.3749753713608L140.16666666666666,153.87583272457124L140.16666666666666,153.75547807216645L140.16666666666666,153.3616457462311L140.16666666666666,153.49794148206712L140.16666666666666,153.52360968589784L140.16666666666666,153.6829044699669L140.16666666666666,153.55989121198655L142.58333333333331,154.8015444159508L142.58333333333331,155.06173961162568L142.58333333333331,155.3741363167763L142.58333333333331,155.48653625249864L142.58333333333331,155.30068706274034L142.58333333333331,155.43077938556672L142.58333333333331,155.51131825447084L142.58333333333331,155.38121538162233L142.58333333333331,155.38033972978593L142.58333333333331,155.19625239372255L142.58333333333331,155.07412533760072L142.58333333333331,155.0679324746132L142.58333333333331,155.0528881430626L142.58333333333331,154.93606774806977L145,155.49184291362764L145,155.56883697509767L145,155.38653259277345L145,155.44140325784684L145,155.47149192094804L145,155.44848232269288L145,155.8511555671692L145,155.89275430440904L145,155.89186810255052L147.41666666666666,153.64043008089067L147.41666666666666,156.21843348741533L147.41666666666666,155.55822365283967L147.41666666666666,155.960896897316L147.41666666666666,155.77238910198213L147.41666666666666,154.95022587776185L147.41666666666666,154.89358280897142L147.41666666666666,154.8024306178093L147.41666666666666,154.65905581712724L147.41666666666666,155.29449419975282L147.41666666666666,155.182980465889L147.41666666666666,155.15731226205827L147.41666666666666,155.2139553308487L147.41666666666666,155.01128940582277L149.83333333333334,156.26975934505464L149.83333333333334,154.99535887241365L149.83333333333334,155.38564639091493L149.83333333333334,155.44670991897584L149.83333333333334,155.35112671852113L149.83333333333334,155.26174693107606L152.25,151.1739298582077L152.25,154.87676607370378L152.25,154.91925101280214L152.25,155.07589774131776L152.25,155.76885484457017L152.25,155.56883697509767L152.25,155.46175425052644L152.25,155.7307903647423L154.66666666666666,155.34670625925065L154.66666666666666,155.36175059080125L154.66666666666666,155.7104393720627L154.66666666666666,155.60866330862046L154.66666666666666,155.50158058404924L154.66666666666666,156.15559755563737L154.66666666666666,156.13523601293565L154.66666666666666,156.02638088464738L157.08333333333331,156.04319761991502L157.08333333333331,157.04324476718904L157.08333333333331,156.3724216103554L157.08333333333331,156.29011033773423L157.08333333333331,156.58658705949784L157.08333333333331,156.42197506427766L157.08333333333331,156.33436768054963L157.08333333333331,156.674204993248L157.08333333333331,156.68747692108155L157.08333333333331,156.61844812631608L157.08333333333331,156.61048285961152L157.08333333333331,156.38923834562303L157.08333333333331,156.4184408068657L157.08333333333331,156.63260625600816L159.5,157.5379669547081L159.5,156.7104865193367L159.5,156.17064188718797L159.5,156.40781693458558L159.5,156.52729593515397L159.5,156.45738093852998L159.5,156.34498100280763L159.5,156.47508387565614L159.5,156.72199659347535L159.5,156.77775346040727L159.5,156.7600505232811L159.5,156.77067439556123L159.5,156.86182658672334L161.91666666666666,155.3484786629677L161.91666666666666,156.57154272794725L161.91666666666666,156.9812950372696L161.91666666666666,155.71929084062577L161.91666666666666,155.3387409925461L161.91666666666666,155.40422497987748L161.91666666666666,155.59627758264543L161.91666666666666,156.07063822746278L161.91666666666666,156.38303493261338L161.91666666666666,156.49101440906526L161.91666666666666,156.38303493261338L161.91666666666666,156.43525754213334L161.91666666666666,156.3688768029213L164.33333333333334,154.66613488197328L164.33333333333334,154.13159691095353L164.33333333333334,155.91044669151307L164.33333333333334,156.25205640792848L164.33333333333334,156.5733151316643L164.33333333333334,156.62375478744508L164.33333333333334,156.78836678266526L164.33333333333334,156.73173426389695L164.33333333333334,157.06802676916124L164.33333333333334,157.18396096229554L164.33333333333334,157.04324476718904L166.75,158.55039982795716L166.75,158.41322844028474L166.75,158.1539299964905L166.75,158.07604973316194L166.75,157.73974667787553L166.75,157.90258626937867L166.75,158.15304379463197L166.75,158.28579472303392L169.16666666666669,158.15835045576097L169.16666666666669,158.2707398414612L169.16666666666669,158.3264967083931L169.16666666666669,158.63093869686128L169.16666666666669,158.82918416261674L169.16666666666669,158.76546202898027L169.16666666666669,158.83005981445314L169.16666666666669,158.83891128301622L169.16666666666669,158.8875890851021L169.16666666666669,158.8973267555237L169.16666666666669,158.83094601631166L171.58333333333334,157.64682208299638L171.58333333333334,157.9335611343384L171.58333333333334,157.81496833562852L171.58333333333334,157.96187739372255L171.58333333333334,158.14330612421037L174,159.8212660431862L174,158.8327184200287L174,159.43363713026048L174,159.15574954748155L174,159.0893688082695L174,158.94068734645845L174,159.0637006044388L174,158.4557133793831L174,158.59288476705552L176.41666666666666,158.79555069208146L176.41666666666666,159.97879369854928L176.41666666666666,160.6168801367283L176.41666666666666,159.81684030890466L176.41666666666666,159.63010491728784L176.41666666666666,159.4831958591938L176.41666666666666,159.56904138922692L176.41666666666666,159.53629412055017L176.41666666666666,159.31061859726907L176.41666666666666,159.49292825460435L176.41666666666666,159.51505692601205L176.41666666666666,159.42921139597894L178.83333333333334,161.10717131495477L178.83333333333334,160.75317059755326L178.83333333333334,161.09035457968713L178.83333333333334,160.77883352637292L178.83333333333334,160.15579669475557L178.83333333333334,159.6955941796303L178.83333333333334,159.84427564144136L178.83333333333334,159.74338577985765L178.83333333333334,159.92569543719293L178.83333333333334,159.81330077648164L178.83333333333334,159.94162597060205L181.25,161.0894683778286L181.25,160.89654012322427L181.25,161.00716238021852L181.25,160.92132212519647L181.25,160.9434455215931L181.25,160.8761838555336L181.25,160.3735069513321L183.66666666666666,160.15402429103852L183.66666666666666,160.52041600942613L183.66666666666666,160.69387419819833L183.66666666666666,160.71245806217195L183.66666666666666,160.64342926740647L183.66666666666666,160.36288307905198L183.66666666666666,160.39209081530572L183.66666666666666,160.37704648375512L183.66666666666666,160.37704648375512L183.66666666666666,160.50537167787553L183.66666666666666,159.99649663567544L183.66666666666666,160.083223092556L183.66666666666666,160.1044655621052L183.66666666666666,160.16906862258912L186.08333333333334,161.2673575758934L186.08333333333334,160.83105086088182L186.08333333333334,160.2664189517498L186.08333333333334,160.0672925591469L186.08333333333334,160.8027293264866L186.08333333333334,160.3885512828827L186.08333333333334,160.5496184706688L186.08333333333334,160.5221831381321L186.08333333333334,160.41332800984384L186.08333333333334,160.31243814826013L188.5,159.88675530552865L188.5,159.07521067857743L188.5,159.4982401907444L188.5,159.8088750422001L188.5,159.57612045407296L188.5,159.60709531903268L188.5,159.69116844534875L188.5,159.866399037838L190.91666666666666,159.5070916593075L190.91666666666666,160.28412188887597L190.91666666666666,160.1504847586155L190.91666666666666,160.01596670150758L190.91666666666666,159.96552177071572L190.91666666666666,160.17172722816468L190.91666666666666,160.34429921507837L190.91666666666666,160.70626519918443L190.91666666666666,160.84609519243241L190.91666666666666,160.88680245280267L190.91666666666666,160.98238565325738L193.33333333333331,162.33997305035592L193.33333333333331,161.00804858207704L193.33333333333331,161.33284683823587L193.33333333333331,160.76202206611634L193.33333333333331,160.61334060430528L193.33333333333331,161.06380544900895L193.33333333333331,161.02309291362764L195.75,161.87357767224313L195.75,161.98863093852998L195.75,161.4425828933716L195.75,161.43019716739656L195.75,161.39125703573228L195.75,161.40630136728288L195.75,161.46293916106225L195.75,161.46382536292077L195.75,161.4098408997059L195.75,161.55940328836442L195.75,161.57710622549058L198.16666666666666,160.95229699015619L198.16666666666666,161.0407958507538L198.16666666666666,161.42665763497354L198.16666666666666,161.37620742917062L198.16666666666666,161.2850552380085L198.16666666666666,161.3239953696728L198.16666666666666,161.1567300438881L198.16666666666666,161.4124942302704L198.16666666666666,161.46028583049775L198.16666666666666,161.51869602799417L200.58333333333334,161.60630868673326L200.58333333333334,161.04433538317681L200.58333333333334,161.45763249993325L200.58333333333334,161.5832990884781L200.58333333333334,161.61516015529634L200.58333333333334,161.15495764017106L200.58333333333334,161.19832350611688L200.58333333333334,161.282401907444L200.58333333333334,161.22310550808908L200.58333333333334,161.36293550133706L203,161.708970952034L203,162.41697238683702L203,162.98159902095796L203,162.69397376775743L203,162.7329138994217L203,162.8674372315407L203,163.03646968603135L203,162.93911935687066L203,162.73202769756318L203,163.14621101617814L203,162.61609350442887L205.41666666666669,161.18239297270776L205.41666666666669,161.6956937491894L205.41666666666669,161.68242182135583L205.41666666666669,161.74613867998124L205.41666666666669,161.92844833731652L205.41666666666669,161.9311069428921L205.41666666666669,161.83729614615442L205.41666666666669,162.0868674695492L207.83333333333334,162.50812457799913L207.83333333333334,162.40812091827394L207.83333333333334,162.66742463707925L207.83333333333334,162.67361750006677L207.83333333333334,163.32674826979638L207.83333333333334,163.2550661444664L207.83333333333334,163.20638834238054L207.83333333333334,163.2267446100712L210.25,162.77362643480302L210.25,163.93032031059266L210.25,164.12944670319558L210.25,164.22767795920373L210.25,164.32060255408288L210.25,164.25511329174043L210.25,164.38963662385942L210.25,164.1055509030819L210.25,163.56127526164056L210.25,163.5984429895878L210.25,163.66747705936433L212.66666666666666,164.41795288324357L212.66666666666666,163.2692242741585L212.66666666666666,164.52769421339036L212.66666666666666,164.62593074440957L212.66666666666666,163.25595234632493L212.66666666666666,163.29931293725969L212.66666666666666,163.57012673020364L212.66666666666666,163.5683543264866L212.66666666666666,163.15063675045968L212.66666666666666,163.18515114784242L212.66666666666666,163.18957688212396L215.08333333333334,164.2816624224186L215.08333333333334,164.5170756161213L215.08333333333334,164.27015762329103L215.08333333333334,163.99758197665216L215.08333333333334,163.479855465889L215.08333333333334,163.47454352974893L215.08333333333334,163.54977046251298L215.08333333333334,163.60640825629235L215.08333333333334,163.4586129963398L215.08333333333334,163.41879193782808L217.5,165.18525071740152L217.5,163.77102025151254L217.5,163.55419619679452L217.5,163.87544964551927L217.5,163.8338561832905L217.5,164.04271497130395L217.5,163.9073107123375L219.91666666666666,165.41889150738717L219.91666666666666,165.25073997974397L219.91666666666666,164.9533823311329L219.91666666666666,165.14542438387872L219.91666666666666,164.91266979575158L219.91666666666666,164.38343848586084L222.33333333333334,166.47646265029908L222.33333333333334,164.37459229230882L222.33333333333334,164.51176367998124L222.33333333333334,164.6117726147175L222.33333333333334,163.98341857194902L222.33333333333334,164.0258982360363L222.33333333333334,164.14449103474618L222.33333333333334,163.6993328511715L222.33333333333334,163.93032031059266L222.33333333333334,163.88960777521135L222.33333333333334,163.92412744760514L222.33333333333334,163.89669211506845L224.75,166.54107098579408L224.75,167.5535091340542L224.75,166.73223211169244L224.75,165.43924250006677L224.75,164.544510948658L224.75,164.61088641285897L224.75,164.24714802503587L224.75,164.3090977549553L224.75,164.30201869010926L224.75,164.37104748487474L224.75,164.48521454930307L227.16666666666666,165.53039996623994L227.16666666666666,164.79319607019426L227.16666666666666,165.0383416593075L227.16666666666666,164.67902900576593L227.16666666666666,164.7754931330681L227.16666666666666,164.7029248058796L227.16666666666666,164.55070381164552L229.58333333333331,160.48678253889085L229.58333333333331,164.86665059924127L229.58333333333331,165.63128982782365L229.58333333333331,165.63482936024667L229.58333333333331,165.38171850442887L229.58333333333331,165.0684303224087L229.58333333333331,164.96665425896646L229.58333333333331,164.88788779377938L229.58333333333331,164.6630984723568L232,167.77741752862931L232,163.61703212857248L232,163.67013038992883L232,164.30998395681382L232,164.30467729568483L232,164.20024262666703L232,164.39317615628244L232,164.43300248980523L232,164.40202762484552L232,164.58875774145127L234.41666666666666,162.89310016036035L234.41666666666666,162.85327382683755L234.41666666666666,163.4409153342247L234.41666666666666,163.39047040343286L234.41666666666666,164.49760555028917L234.41666666666666,164.6055744767189L234.41666666666666,164.3002515614033L234.41666666666666,164.0781155705452L234.41666666666666,164.22502462863923L234.41666666666666,164.01527963876725L234.41666666666666,163.99846290349961L234.41666666666666,164.10997663736345L236.83333333333334,165.43393583893777L236.83333333333334,165.74014495611192L236.83333333333334,166.0074139416218L236.83333333333334,165.79590182304383L236.83333333333334,165.1569291830063L236.83333333333334,165.17728545069696L236.83333333333334,165.42951010465623L236.83333333333334,165.35162984132768L236.83333333333334,165.24985377788545L236.83333333333334,165.23569564819337L236.83333333333334,165.22065131664277L236.83333333333334,165.1241871893406L236.83333333333334,165.0967518568039L239.25,164.16484730243684L239.25,162.81168036460878L239.25,163.61172019243241L239.25,164.49317981600763L239.25,164.55778287649156L239.25,164.82063140273095L239.25,164.7330134689808L239.25,164.73213254213334L241.66666666666669,166.42779012322427L241.66666666666669,166.26495053172113L241.66666666666669,165.61889882683755L241.66666666666669,165.88528688549997L241.66666666666669,166.1817583322525L241.66666666666669,165.7976689517498L244.08333333333334,164.2329898953438L244.08333333333334,164.6046882748604L244.08333333333334,165.2126860499382L244.08333333333334,165.29941250681878L244.08333333333334,165.05072738528253L244.08333333333334,165.03922258615495L246.5,167.46323786973954L246.5,167.2827006161213L246.5,166.91896750330926L246.5,166.58177824616433L246.5,166.34105839133264L246.5,165.89855881333352L246.5,166.04192833900453L246.5,166.18087740540506L246.5,166.32866739034654L246.5,166.31362305879594L246.5,166.26495053172113L248.91666666666666,165.72952635884286L248.91666666666666,166.66762377619744L248.91666666666666,166.77825130820275L248.91666666666666,166.27468292713166L248.91666666666666,165.75784261822702L248.91666666666666,165.84811388254167L248.91666666666666,165.63482936024667L248.91666666666666,165.61270596385003L248.91666666666666,165.63040362596513L251.33333333333334,165.59766163229943L251.33333333333334,165.87024255394937L251.33333333333334,165.9348456144333L251.33333333333334,166.06759654283525L251.33333333333334,165.9932558119297L251.33333333333334,166.07113607525827L251.33333333333334,166.02157734632493L251.33333333333334,165.91891508102418L253.75,166.0596312761307L253.75,166.47292311787606L253.75,165.96936001181604L253.75,166.4561116576195L253.75,166.1879564702511L253.75,166.13397200703622L253.75,166.19946126937867L253.75,166.1605211377144L253.75,166.29503919482232L256.1666666666667,167.50129707455636L256.1666666666667,167.0596784234047L256.1666666666667,166.670282381773L256.1666666666667,166.50655658841134L256.1666666666667,166.51806138753892L256.1666666666667,166.4136319935322L256.1666666666667,166.47823505401612L256.1666666666667,166.51806138753892L256.1666666666667,166.49859132170678L256.1666666666667,166.44814639091493L258.58333333333337,165.93573181629182L258.58333333333337,165.2179927110672L258.58333333333337,165.27198244929315L258.58333333333337,165.2365818500519L258.58333333333337,165.37641184329988L258.58333333333337,165.51624183654786L258.58333333333337,165.60385449528695L258.58333333333337,165.59500302672387L258.58333333333337,165.5967754304409L258.58333333333337,165.81183235645295L261,165.73041256070138L261,166.5897435128689L261,166.31185593008996L261,166.3038906633854L261,166.48266078829766L261,166.20476793050767L261,165.91802887916566L263.4166666666667,169.99434115290643L263.4166666666667,167.5942216694355L263.4166666666667,166.26849006414415L263.4166666666667,166.19857506752015L263.4166666666667,166.09149234294892L263.4166666666667,166.15255587100984L263.4166666666667,166.33751885890962L263.4166666666667,166.3897361934185L263.4166666666667,166.41097338795663L263.4166666666667,166.32247452735902L263.4166666666667,166.28973253369332L265.8333333333333,165.679081428051L265.8333333333333,165.92688034772874L265.8333333333333,166.06493793725969L265.8333333333333,165.93838514685632L265.8333333333333,165.67288329005243L265.8333333333333,165.70209102630616L265.8333333333333,165.8100599527359L265.8333333333333,165.89590548276902L265.8333333333333,165.967587608099L265.8333333333333,166.15166966915132L265.8333333333333,166.23840140104295L265.8333333333333,166.27822245955468L265.8333333333333,166.27114339470864" style="fill: none;" fill="none"></path></g></g></g></g></g></g><g transform="translate(40, 177)" clip-path="url(#clip_1)"><clipPath id="clip_1"><rect width="290" height="23"></rect></clipPath><g><g><line x1="0" y1="0" x2="0" y2="5" style="visibility: inherit;" fill="rgb(0, 0, 0)" stroke="rgb(204, 204, 204)" stroke-width="1px"></line><line x1="24.166666666666664" y1="0" x2="24.166666666666664" y2="5" style="visibility: inherit;" fill="rgb(0, 0, 0)" stroke="rgb(204, 204, 204)" stroke-width="1px"></line><line x1="48.33333333333333" y1="0" x2="48.33333333333333" y2="5" style="visibility: inherit;" fill="rgb(0, 0, 0)" stroke="rgb(204, 204, 204)" stroke-width="1px"></line><line x1="72.5" y1="0" x2="72.5" y2="5" style="visibility: inherit;" fill="rgb(0, 0, 0)" stroke="rgb(204, 204, 204)" stroke-width="1px"></line><line x1="96.66666666666666" y1="0" x2="96.66666666666666" y2="5" style="visibility: inherit;" fill="rgb(0, 0, 0)" stroke="rgb(204, 204, 204)" stroke-width="1px"></line><line x1="120.83333333333334" y1="0" x2="120.83333333333334" y2="5" style="visibility: inherit;" fill="rgb(0, 0, 0)" stroke="rgb(204, 204, 204)" stroke-width="1px"></line><line x1="145" y1="0" x2="145" y2="5" style="visibility: inherit;" fill="rgb(0, 0, 0)" stroke="rgb(204, 204, 204)" stroke-width="1px"></line><line x1="169.16666666666669" y1="0" x2="169.16666666666669" y2="5" style="visibility: inherit;" fill="rgb(0, 0, 0)" stroke="rgb(204, 204, 204)" stroke-width="1px"></line><line x1="193.33333333333331" y1="0" x2="193.33333333333331" y2="5" style="visibility: inherit;" fill="rgb(0, 0, 0)" stroke="rgb(204, 204, 204)" stroke-width="1px"></line><line x1="217.5" y1="0" x2="217.5" y2="5" style="visibility: inherit;" fill="rgb(0, 0, 0)" stroke="rgb(204, 204, 204)" stroke-width="1px"></line><line x1="241.66666666666669" y1="0" x2="241.66666666666669" y2="5" style="visibility: inherit;" fill="rgb(0, 0, 0)" stroke="rgb(204, 204, 204)" stroke-width="1px"></line><line x1="265.8333333333333" y1="0" x2="265.8333333333333" y2="5" style="visibility: inherit;" fill="rgb(0, 0, 0)" stroke="rgb(204, 204, 204)" stroke-width="1px"></line><line x1="290" y1="0" x2="290" y2="5" style="visibility: inherit;" fill="rgb(0, 0, 0)" stroke="rgb(204, 204, 204)" stroke-width="1px"></line></g><g transform="translate(0, 8)"><text x="0" y="0" dx="0em" dy="0.95em" style="text-anchor: middle; visibility: hidden; font-family: Roboto, sans-serif; font-size: 12px; font-weight: 200;" fill="rgb(33, 33, 33)" stroke="none" stroke-width="1px">-10</text><text x="24.166666666666664" y="0" dx="0em" dy="0.95em" style="text-anchor: middle; visibility: inherit; font-family: Roboto, sans-serif; font-size: 12px; font-weight: 200;" fill="rgb(33, 33, 33)" stroke="none" stroke-width="1px">0</text><text x="48.33333333333333" y="0" dx="0em" dy="0.95em" style="text-anchor: middle; visibility: inherit; font-family: Roboto, sans-serif; font-size: 12px; font-weight: 200;" fill="rgb(33, 33, 33)" stroke="none" stroke-width="1px">10</text><text x="72.5" y="0" dx="0em" dy="0.95em" style="text-anchor: middle; visibility: inherit; font-family: Roboto, sans-serif; font-size: 12px; font-weight: 200;" fill="rgb(33, 33, 33)" stroke="none" stroke-width="1px">20</text><text x="96.66666666666666" y="0" dx="0em" dy="0.95em" style="text-anchor: middle; visibility: inherit; font-family: Roboto, sans-serif; font-size: 12px; font-weight: 200;" fill="rgb(33, 33, 33)" stroke="none" stroke-width="1px">30</text><text x="120.83333333333334" y="0" dx="0em" dy="0.95em" style="text-anchor: middle; visibility: inherit; font-family: Roboto, sans-serif; font-size: 12px; font-weight: 200;" fill="rgb(33, 33, 33)" stroke="none" stroke-width="1px">40</text><text x="145" y="0" dx="0em" dy="0.95em" style="text-anchor: middle; visibility: inherit; font-family: Roboto, sans-serif; font-size: 12px; font-weight: 200;" fill="rgb(33, 33, 33)" stroke="none" stroke-width="1px">50</text><text x="169.16666666666669" y="0" dx="0em" dy="0.95em" style="text-anchor: middle; visibility: inherit; font-family: Roboto, sans-serif; font-size: 12px; font-weight: 200;" fill="rgb(33, 33, 33)" stroke="none" stroke-width="1px">60</text><text x="193.33333333333331" y="0" dx="0em" dy="0.95em" style="text-anchor: middle; visibility: inherit; font-family: Roboto, sans-serif; font-size: 12px; font-weight: 200;" fill="rgb(33, 33, 33)" stroke="none" stroke-width="1px">70</text><text x="217.5" y="0" dx="0em" dy="0.95em" style="text-anchor: middle; visibility: inherit; font-family: Roboto, sans-serif; font-size: 12px; font-weight: 200;" fill="rgb(33, 33, 33)" stroke="none" stroke-width="1px">80</text><text x="241.66666666666669" y="0" dx="0em" dy="0.95em" style="text-anchor: middle; visibility: inherit; font-family: Roboto, sans-serif; font-size: 12px; font-weight: 200;" fill="rgb(33, 33, 33)" stroke="none" stroke-width="1px">90</text><text x="265.8333333333333" y="0" dx="0em" dy="0.95em" style="text-anchor: middle; visibility: inherit; font-family: Roboto, sans-serif; font-size: 12px; font-weight: 200;" fill="rgb(33, 33, 33)" stroke="none" stroke-width="1px">100</text><text x="290" y="0" dx="0em" dy="0.95em" style="text-anchor: middle; visibility: hidden; font-family: Roboto, sans-serif; font-size: 12px; font-weight: 200;" fill="rgb(33, 33, 33)" stroke="none" stroke-width="1px">110</text></g><line x1="0" y1="0" x2="290" y2="0" fill="rgb(0, 0, 0)" stroke="rgb(204, 204, 204)" stroke-width="1px"></line></g></g></g></g></svg>