<svg viewBox="0 0 330 200" xmlns="http://www.w3.org/2000/svg"><g><g><g><g><g><line x1="50" y1="177" x2="45" y2="177" style="visibility: inherit;" fill="rgb(0, 0, 0)" stroke="rgb(204, 204, 204)" stroke-width="1px"></line><line x1="50" y1="157.33333333333331" x2="45" y2="157.33333333333331" style="visibility: inherit;" fill="rgb(0, 0, 0)" stroke="rgb(204, 204, 204)" stroke-width="1px"></line><line x1="50" y1="137.6666666666666" x2="45" y2="137.6666666666666" style="visibility: inherit;" fill="rgb(0, 0, 0)" stroke="rgb(204, 204, 204)" stroke-width="1px"></line><line x1="50" y1="117.99999999999993" x2="45" y2="117.99999999999993" style="visibility: inherit;" fill="rgb(0, 0, 0)" stroke="rgb(204, 204, 204)" stroke-width="1px"></line><line x1="50" y1="98.33333333333324" x2="45" y2="98.33333333333324" style="visibility: inherit;" fill="rgb(0, 0, 0)" stroke="rgb(204, 204, 204)" stroke-width="1px"></line><line x1="50" y1="78.66666666666676" x2="45" y2="78.66666666666676" style="visibility: inherit;" fill="rgb(0, 0, 0)" stroke="rgb(204, 204, 204)" stroke-width="1px"></line><line x1="50" y1="59.000000000000064" x2="45" y2="59.000000000000064" style="visibility: inherit;" fill="rgb(0, 0, 0)" stroke="rgb(204, 204, 204)" stroke-width="1px"></line><line x1="50" y1="39.33333333333339" x2="45" y2="39.33333333333339" style="visibility: inherit;" fill="rgb(0, 0, 0)" stroke="rgb(204, 204, 204)" stroke-width="1px"></line><line x1="50" y1="19.666666666666696" x2="45" y2="19.666666666666696" style="visibility: inherit;" fill="rgb(0, 0, 0)" stroke="rgb(204, 204, 204)" stroke-width="1px"></line><line x1="50" y1="0" x2="45" y2="0" style="visibility: inherit;" fill="rgb(0, 0, 0)" stroke="rgb(204, 204, 204)" stroke-width="1px"></line></g><g transform="translate(40, 0)"><text x="0" y="177" dx="0em" dy="0.3em" style="text-anchor: end; visibility: hidden; font-family: Roboto, sans-serif; font-size: 12px; font-weight: 200;" fill="rgb(33, 33, 33)" stroke="none" stroke-width="1px">0.77</text><text x="0" y="157.33333333333331" dx="0em" dy="0.3em" style="text-anchor: end; visibility: inherit; font-family: Roboto, sans-serif; font-size: 12px; font-weight: 200;" fill="rgb(33, 33, 33)" stroke="none" stroke-width="1px">0.78</text><text x="0" y="137.6666666666666" dx="0em" dy="0.3em" style="text-anchor: end; visibility: hidden; font-family: Roboto, sans-serif; font-size: 12px; font-weight: 200;" fill="rgb(33, 33, 33)" stroke="none" stroke-width="1px">0.79</text><text x="0" y="117.99999999999993" dx="0em" dy="0.3em" style="text-anchor: end; visibility: inherit; font-family: Roboto, sans-serif; font-size: 12px; font-weight: 200;" fill="rgb(33, 33, 33)" stroke="none" stroke-width="1px">0.8</text><text x="0" y="98.33333333333324" dx="0em" dy="0.3em" style="text-anchor: end; visibility: hidden; font-family: Roboto, sans-serif; font-size: 12px; font-weight: 200;" fill="rgb(33, 33, 33)" stroke="none" stroke-width="1px">0.81</text><text x="0" y="78.66666666666676" dx="0em" dy="0.3em" style="text-anchor: end; visibility: inherit; font-family: Roboto, sans-serif; font-size: 12px; font-weight: 200;" fill="rgb(33, 33, 33)" stroke="none" stroke-width="1px">0.82</text><text x="0" y="59.000000000000064" dx="0em" dy="0.3em" style="text-anchor: end; visibility: hidden; font-family: Roboto, sans-serif; font-size: 12px; font-weight: 200;" fill="rgb(33, 33, 33)" stroke="none" stroke-width="1px">0.83</text><text x="0" y="39.33333333333339" dx="0em" dy="0.3em" style="text-anchor: end; visibility: inherit; font-family: Roboto, sans-serif; font-size: 12px; font-weight: 200;" fill="rgb(33, 33, 33)" stroke="none" stroke-width="1px">0.84</text><text x="0" y="19.666666666666696" dx="0em" dy="0.3em" style="text-anchor: end; visibility: hidden; font-family: Roboto, sans-serif; font-size: 12px; font-weight: 200;" fill="rgb(33, 33, 33)" stroke="none" stroke-width="1px">0.85</text><text x="0" y="0" dx="0em" dy="0.3em" style="text-anchor: end; visibility: hidden; font-family: Roboto, sans-serif; font-size: 12px; font-weight: 200;" fill="rgb(33, 33, 33)" stroke="none" stroke-width="1px">0.86</text></g><line x1="50" y1="0" x2="50" y2="177" fill="rgb(0, 0, 0)" stroke="rgb(204, 204, 204)" stroke-width="1px"></line></g></g><g transform="translate(50, 0)" clip-path="url(#clip_0)"><clipPath id="clip_0"><rect width="280" height="177"></rect></clipPath><g><g><g><line x1="0" y1="0" x2="0" y2="177" fill="rgb(0, 0, 0)" stroke="rgb(66, 66, 66)" stroke-width="1px" opacity="0.25"></line><line x1="28" y1="0" x2="28" y2="177" fill="rgb(0, 0, 0)" stroke="rgb(66, 66, 66)" stroke-width="1px" opacity="0.25"></line><line x1="56" y1="0" x2="56" y2="177" fill="rgb(0, 0, 0)" stroke="rgb(66, 66, 66)" stroke-width="1px" opacity="0.25"></line><line x1="84" y1="0" x2="84" y2="177" fill="rgb(0, 0, 0)" stroke="rgb(66, 66, 66)" stroke-width="1px" opacity="0.25"></line><line x1="112" y1="0" x2="112" y2="177" fill="rgb(0, 0, 0)" stroke="rgb(66, 66, 66)" stroke-width="1px" opacity="0.25"></line><line x1="140" y1="0" x2="140" y2="177" fill="rgb(0, 0, 0)" stroke="rgb(66, 66, 66)" stroke-width="1px" opacity="0.25"></line><line x1="168" y1="0" x2="168" y2="177" fill="rgb(0, 0, 0)" stroke="rgb(66, 66, 66)" stroke-width="1px" opacity="0.25"></line><line x1="196" y1="0" x2="196" y2="177" fill="rgb(0, 0, 0)" stroke="rgb(66, 66, 66)" stroke-width="1px" opacity="0.25"></line><line x1="224" y1="0" x2="224" y2="177" fill="rgb(0, 0, 0)" stroke="rgb(66, 66, 66)" stroke-width="1px" opacity="0.25"></line><line x1="252" y1="0" x2="252" y2="177" fill="rgb(0, 0, 0)" stroke="rgb(66, 66, 66)" stroke-width="1px" opacity="0.25"></line><line x1="280" y1="0" x2="280" y2="177" fill="rgb(0, 0, 0)" stroke="rgb(66, 66, 66)" stroke-width="1px" opacity="0.25"></line></g><g><line x1="0" y1="177" x2="280" y2="177" fill="rgb(0, 0, 0)" stroke="rgb(66, 66, 66)" stroke-width="1px" opacity="0.25"></line><line x1="0" y1="157.33333333333331" x2="280" y2="157.33333333333331" fill="rgb(0, 0, 0)" stroke="rgb(66, 66, 66)" stroke-width="1px" opacity="0.25"></line><line x1="0" y1="137.6666666666666" x2="280" y2="137.6666666666666" fill="rgb(0, 0, 0)" stroke="rgb(66, 66, 66)" stroke-width="1px" opacity="0.25"></line><line x1="0" y1="117.99999999999993" x2="280" y2="117.99999999999993" fill="rgb(0, 0, 0)" stroke="rgb(66, 66, 66)" stroke-width="1px" opacity="0.25"></line><line x1="0" y1="98.33333333333324" x2="280" y2="98.33333333333324" fill="rgb(0, 0, 0)" stroke="rgb(66, 66, 66)" stroke-width="1px" opacity="0.25"></line><line x1="0" y1="78.66666666666676" x2="280" y2="78.66666666666676" fill="rgb(0, 0, 0)" stroke="rgb(66, 66, 66)" stroke-width="1px" opacity="0.25"></line><line x1="0" y1="59.000000000000064" x2="280" y2="59.000000000000064" fill="rgb(0, 0, 0)" stroke="rgb(66, 66, 66)" stroke-width="1px" opacity="0.25"></line><line x1="0" y1="39.33333333333339" x2="280" y2="39.33333333333339" fill="rgb(0, 0, 0)" stroke="rgb(66, 66, 66)" stroke-width="1px" opacity="0.25"></line><line x1="0" y1="19.666666666666696" x2="280" y2="19.666666666666696" fill="rgb(0, 0, 0)" stroke="rgb(66, 66, 66)" stroke-width="1px" opacity="0.25"></line><line x1="0" y1="0" x2="280" y2="0" fill="rgb(0, 0, 0)" stroke="rgb(66, 66, 66)" stroke-width="1px" opacity="0.25"></line></g></g></g><g><g><line x1="0" y1="1691.333333333334" x2="280" y2="1691.333333333334" fill="rgb(0, 0, 0)" stroke="rgb(153, 153, 153)" stroke-width="1.5px"></line></g></g><g><g><line x1="-28" y1="0" x2="-28" y2="177" fill="rgb(0, 0, 0)" stroke="rgb(153, 153, 153)" stroke-width="1.5px"></line></g></g><g><g><g><g><g><path stroke="rgb(255, 112, 67)" stroke-width="2px" d="M28.336,78.66668073336284L28.896,78.66668073336284L29.064,78.66668073336284L29.4,78.66668073336284L30.296000000000003,78.66668073336284L30.408,78.66668073336284L30.52,78.66668073336284L30.576,78.66668073336284L30.688000000000002,78.66668073336284L31.023999999999997,78.66668073336284L31.080000000000002,78.66668073336284L31.192,78.66668073336284L31.695999999999998,78.66668073336284L32.032000000000004,78.66668073336284L32.088,78.66668073336284L32.144,78.66668073336284L32.2,78.66668073336284L32.480000000000004,78.66668073336284L32.928,78.66668073336284L33.32,78.66668073336284L33.768,39.33338491121927L33.936,39.33338491121927L33.992,39.33338491121927L34.384,39.33338491121927L34.664,39.33338491121927L35.112,39.33338491121927L35.28,39.33338491121927L35.336,39.33338491121927L35.84,39.33338491121927L35.952,39.33338491121927L36.007999999999996,39.33338491121927L36.456,39.33338491121927L36.736000000000004,39.33338491121927L36.904,39.33338491121927L37.408,39.33338491121927L37.464,39.33338491121927L37.967999999999996,39.33338491121927L38.024,39.33338491121927L38.304,39.33338491121927L38.416,39.33338491121927L38.472,39.33338491121927L38.696,39.33338491121927L39.144000000000005,39.33338491121927L39.592,19.66661977767942L39.648,19.66661977767942L39.704,19.66661977767942L39.928000000000004,19.66661977767942L40.544000000000004,19.66661977767942L40.879999999999995,19.66661977767942L41.16,19.66661977767942L41.328,19.66661977767942L42,19.66661977767942L42.336,19.66661977767942L42.616,19.66661977767942L42.784,19.66661977767942L43.007999999999996,19.66661977767942L43.232,19.66661977767942L43.344,19.66661977767942L44.407999999999994,19.66661977767942L44.687999999999995,19.66661977767942L44.744,19.66661977767942L45.024,98.33332864443462L45.248,98.33332864443462L45.304,98.33332864443462L45.416000000000004,98.33332864443462L45.864,98.33332864443462L45.92,98.33332864443462L46.256,98.33332864443462L46.312,98.33332864443462L46.368,98.33332864443462L46.535999999999994,98.33332864443462L47.040000000000006,98.33332864443462L47.488,98.33332864443462L48.384,98.33332864443462L48.608000000000004,98.33332864443462L48.944,98.33332864443462L49.168,98.33332864443462L49.279999999999994,98.33332864443462L49.952,98.33332864443462L50.008,98.33332864443462L50.903999999999996,78.66668073336284L51.632000000000005,78.66668073336284L51.687999999999995,78.66668073336284L51.8,78.66668073336284L52.136,78.66668073336284L52.64,78.66668073336284L52.752,78.66668073336284L52.808,78.66668073336284L52.976,78.66668073336284L53.312000000000005,78.66668073336284L53.816,78.66668073336284L53.984,78.66668073336284L54.04,78.66668073336284L54.544,78.66668073336284L54.6,78.66668073336284L55.440000000000005,78.66668073336284L55.552,78.66668073336284L55.664,78.66668073336284L56.448,-0.000028133392347085007L61.263999999999996,-0.000028133392347085007L61.768,137.66662446657818L62.104,137.66662446657818L62.216,137.66662446657818L62.496,137.66662446657818L62.776,137.66662446657818L62.888,137.66662446657818L63.56,137.66662446657818L63.952,137.66662446657818L64.008,137.66662446657818L64.12,137.66662446657818L64.176,137.66662446657818L64.232,137.66662446657818L64.288,137.66662446657818L64.4,137.66662446657818L64.568,137.66662446657818L64.792,137.66662446657818L65.072,137.66662446657818L65.24000000000001,137.66662446657818L65.464,137.66662446657818L65.632,137.66662446657818L65.688,137.66662446657818L65.8,137.66662446657818L65.856,137.66662446657818L66.024,137.66662446657818L66.08,137.66662446657818L66.248,137.66662446657818L66.304,137.66662446657818L66.584,137.66662446657818L66.64,137.66662446657818L67.032,137.66662446657818L67.2,137.66662446657818L67.42399999999999,39.33338491121927L67.592,39.33338491121927L67.704,39.33338491121927L67.816,39.33338491121927L68.03999999999999,39.33338491121927L68.264,39.33338491121927L68.432,39.33338491121927L68.488,39.33338491121927L68.544,39.33338491121927L68.936,39.33338491121927L69.272,39.33338491121927L69.384,39.33338491121927L69.44,39.33338491121927L69.664,39.33338491121927L69.88799999999999,39.33338491121927L70.056,39.33338491121927L70.11200000000001,39.33338491121927L70.16799999999999,39.33338491121927L70.28,39.33338491121927L70.39200000000001,39.33338491121927L70.896,39.33338491121927L70.952,39.33338491121927L71.12,39.33338491121927L71.17599999999999,39.33338491121927L71.232,39.33338491121927L71.34400000000001,39.33338491121927L71.4,39.33338491121927L71.73599999999999,39.33338491121927L71.96000000000001,39.33338491121927L72.01599999999999,39.33338491121927L72.128,39.33338491121927L72.24000000000001,39.33338491121927L72.408,39.33338491121927L72.464,39.33338491121927L72.52,39.33338491121927L72.576,39.33338491121927L72.744,39.33338491121927L72.968,-0.000028133392347085007L78.232,-0.000028133392347085007L78.456,59.000032822291054L78.848,59.000032822291054L78.904,59.000032822291054L78.96,59.000032822291054L79.016,59.000032822291054L79.296,59.000032822291054L79.408,59.000032822291054L79.57600000000001,59.000032822291054L79.63199999999999,59.000032822291054L79.744,59.000032822291054L80.192,59.000032822291054L80.248,59.000032822291054L80.416,59.000032822291054L80.808,59.000032822291054L80.976,59.000032822291054L81.47999999999999,59.000032822291054L81.592,59.000032822291054L81.64800000000001,59.000032822291054L81.70400000000001,59.000032822291054L81.872,59.000032822291054L81.92800000000001,59.000032822291054L82.152,59.000032822291054L82.432,59.000032822291054L82.488,59.000032822291054L82.712,59.000032822291054L82.76799999999999,59.000032822291054L82.824,59.000032822291054L82.88,59.000032822291054L83.104,59.000032822291054L83.16,59.000032822291054L83.32799999999999,59.000032822291054L83.384,59.000032822291054L83.832,59.000032822291054L84.05600000000001,78.66668073336284L84.16799999999999,78.66668073336284L84.28,78.66668073336284L84.33600000000001,78.66668073336284L84.728,78.66668073336284L84.784,78.66668073336284L84.84,78.66668073336284L85.008,78.66668073336284L85.456,78.66668073336284L85.568,78.66668073336284L85.792,78.66668073336284L85.848,78.66668073336284L86.01599999999999,78.66668073336284L86.128,78.66668073336284L86.52,78.66668073336284L87.136,78.66668073336284L87.24799999999999,78.66668073336284L87.584,78.66668073336284L87.64,78.66668073336284L87.75200000000001,78.66668073336284L87.864,78.66668073336284L88.088,78.66668073336284L88.312,78.66668073336284L88.424,78.66668073336284L88.70400000000001,78.66668073336284L88.76,78.66668073336284L88.81599999999999,78.66668073336284L89.264,78.66668073336284L89.60000000000001,78.66668073336284L89.824,59.000032822291054L89.88,59.000032822291054L89.93599999999999,59.000032822291054L90.44,59.000032822291054L90.552,59.000032822291054L90.72,59.000032822291054L91.056,59.000032822291054L91.11200000000001,59.000032822291054L91.50399999999999,59.000032822291054L91.616,59.000032822291054L92.736,59.000032822291054L92.79199999999999,59.000032822291054L93.016,59.000032822291054L93.07199999999999,59.000032822291054L93.128,59.000032822291054L94.136,59.000032822291054L94.304,59.000032822291054L94.416,59.000032822291054L94.808,59.000032822291054L94.864,59.000032822291054L95.2,59.000032822291054L95.312,59.000032822291054L95.592,59.000032822291054L95.704,59.000032822291054L95.816,59.000032822291054L96.04,59.000032822291054L96.6,59.000032822291054L97.048,59.000032822291054L97.104,59.000032822291054L97.16,59.000032822291054L97.27199999999999,59.000032822291054L97.44,59.000032822291054L97.72,59.000032822291054L97.888,59.000032822291054L98.224,59.000032822291054L98.336,59.000032822291054L98.44800000000001,59.000032822291054L98.504,59.000032822291054L98.672,59.000032822291054L98.784,59.000032822291054L98.952,59.000032822291054L99.39999999999999,59.000032822291054L99.792,59.000032822291054L100.12799999999999,59.000032822291054L100.352,59.000032822291054L100.40799999999999,59.000032822291054L100.464,59.000032822291054L100.52,59.000032822291054L100.85600000000001,98.33332864443462L101.024,98.33332864443462L101.41600000000001,98.33332864443462L101.52799999999999,98.33332864443462L101.69600000000001,98.33332864443462L101.752,98.33332864443462L101.92,98.33332864443462L102.256,98.33332864443462L102.368,98.33332864443462L102.536,98.33332864443462L102.70400000000001,98.33332864443462L102.75999999999999,98.33332864443462L102.872,98.33332864443462L102.928,98.33332864443462L103.26400000000001,98.33332864443462L103.93599999999999,98.33332864443462L104.552,98.33332864443462L104.776,98.33332864443462L105.28,98.33332864443462L105.56,98.33332864443462L105.616,98.33332864443462L105.784,98.33332864443462L105.84,98.33332864443462L105.952,98.33332864443462L106.008,98.33332864443462L106.17599999999999,98.33332864443462L107.128,19.66661977767942L107.184,19.66661977767942L107.24000000000001,19.66661977767942L107.52,19.66661977767942L107.688,19.66661977767942L107.912,19.66661977767942L107.968,19.66661977767942L108.02399999999999,19.66661977767942L108.248,19.66661977767942L108.30399999999999,19.66661977767942L108.47200000000001,19.66661977767942L108.696,19.66661977767942L108.808,19.66661977767942L109.59200000000001,19.66661977767942L110.096,19.66661977767942L110.152,19.66661977767942L110.768,19.66661977767942L111.216,19.66661977767942L111.27199999999999,19.66661977767942L111.44000000000001,19.66661977767942L111.55199999999999,19.66661977767942L111.608,19.66661977767942L112.056,59.000032822291054L112.112,59.000032822291054L112.168,59.000032822291054L112.392,59.000032822291054L112.50399999999999,59.000032822291054L112.616,59.000032822291054L113.064,59.000032822291054L113.344,59.000032822291054L113.4,59.000032822291054L113.568,59.000032822291054L113.96,59.000032822291054L114.63199999999999,59.000032822291054L114.91199999999999,59.000032822291054L114.968,59.000032822291054L115.08,59.000032822291054L115.136,59.000032822291054L115.472,59.000032822291054L115.864,59.000032822291054L115.91999999999999,59.000032822291054L116.424,59.000032822291054L116.64800000000001,59.000032822291054L116.75999999999999,59.000032822291054L116.984,59.000032822291054L117.488,59.000032822291054L117.88,59.000032822291054L117.936,59.000032822291054L118.21600000000001,59.000032822291054L118.664,59.000032822291054L118.77600000000001,59.000032822291054L119.16799999999999,59.000032822291054L119.224,59.000032822291054L119.448,59.000032822291054L119.728,59.000032822291054L119.896,59.000032822291054L120.008,59.000032822291054L120.176,59.000032822291054L120.34400000000001,59.000032822291054L120.568,59.000032822291054L121.01599999999999,59.000032822291054L121.464,59.000032822291054L121.576,59.000032822291054L121.688,59.000032822291054L121.856,59.000032822291054L121.912,59.000032822291054L122.24799999999999,59.000032822291054L122.304,59.000032822291054L122.75200000000001,59.000032822291054L122.92,59.000032822291054L122.976,59.000032822291054L123.03200000000001,59.000032822291054L123.088,59.000032822291054L123.2,59.000032822291054L123.368,39.33338491121927L123.76,39.33338491121927L123.81599999999999,39.33338491121927L124.208,39.33338491121927L124.264,39.33338491121927L124.32000000000001,39.33338491121927L124.824,39.33338491121927L125.048,39.33338491121927L125.16,39.33338491121927L125.216,39.33338491121927L125.328,39.33338491121927L125.608,39.33338491121927L125.66399999999999,39.33338491121927L125.776,39.33338491121927L125.83200000000001,39.33338491121927L125.888,39.33338491121927L126.168,39.33338491121927L126.95200000000001,39.33338491121927L127.456,39.33338491121927L127.79199999999999,39.33338491121927L128.184,39.33338491121927L128.24,39.33338491121927L128.744,39.33338491121927L129.136,19.66661977767942L129.584,19.66661977767942L129.64000000000001,19.66661977767942L129.808,19.66661977767942L130.20000000000002,19.66661977767942L130.31199999999998,19.66661977767942L130.536,19.66661977767942L131.096,19.66661977767942L131.152,19.66661977767942L131.32,19.66661977767942L131.6,19.66661977767942L131.824,19.66661977767942L132.552,19.66661977767942L132.664,19.66661977767942L132.72,19.66661977767942L133.056,19.66661977767942L133.112,19.66661977767942L133.168,19.66661977767942L133.28,19.66661977767942L133.392,19.66661977767942L134.064,19.66661977767942L134.568,39.33338491121927L134.792,39.33338491121927L135.072,39.33338491121927L135.408,39.33338491121927L135.744,39.33338491121927L135.79999999999998,39.33338491121927L136.136,39.33338491121927L136.35999999999999,39.33338491121927L136.472,39.33338491121927L136.584,39.33338491121927L136.92,39.33338491121927L137.088,39.33338491121927L137.2,39.33338491121927L137.368,39.33338491121927L137.536,39.33338491121927L137.704,39.33338491121927L137.816,39.33338491121927L138.208,39.33338491121927L138.32,39.33338491121927L138.992,39.33338491121927L139.048,39.33338491121927L139.104,39.33338491121927L139.888,39.33338491121927L140.112,59.000032822291054L140.33599999999998,59.000032822291054L140.56,59.000032822291054L140.61599999999999,59.000032822291054L140.78400000000002,59.000032822291054L140.896,59.000032822291054L141.008,59.000032822291054L141.456,59.000032822291054L141.568,59.000032822291054L141.736,59.000032822291054L141.904,59.000032822291054L142.072,59.000032822291054L142.184,59.000032822291054L142.35199999999998,59.000032822291054L142.52,59.000032822291054L142.576,59.000032822291054L143.416,59.000032822291054L143.808,59.000032822291054L144.088,59.000032822291054L144.144,59.000032822291054L144.20000000000002,59.000032822291054L144.31199999999998,59.000032822291054L144.368,59.000032822291054L144.48000000000002,59.000032822291054L144.59199999999998,59.000032822291054L144.816,59.000032822291054L145.04,59.000032822291054L145.32,59.000032822291054L145.432,59.000032822291054L145.824,137.66662446657818L145.936,137.66662446657818L145.992,137.66662446657818L146.16,137.66662446657818L146.272,137.66662446657818L146.496,137.66662446657818L146.66400000000002,137.66662446657818L146.776,137.66662446657818L146.88799999999998,137.66662446657818L146.94400000000002,137.66662446657818L147.50400000000002,137.66662446657818L147.56,137.66662446657818L147.78400000000002,137.66662446657818L147.952,137.66662446657818L148.12,137.66662446657818L148.176,137.66662446657818L148.34400000000002,137.66662446657818L148.4,137.66662446657818L148.512,137.66662446657818L148.792,137.66662446657818L148.84799999999998,137.66662446657818L149.24,137.66662446657818L149.296,137.66662446657818L149.52,137.66662446657818L149.632,137.66662446657818L149.74400000000003,137.66662446657818L149.968,137.66662446657818L150.528,137.66662446657818L150.64000000000001,137.66662446657818L150.752,137.66662446657818L150.808,137.66662446657818L151.032,137.66662446657818L151.20000000000002,137.66662446657818L151.648,78.66668073336284L151.87199999999999,78.66668073336284L152.04000000000002,78.66668073336284L152.656,78.66668073336284L152.88000000000002,78.66668073336284L152.992,78.66668073336284L153.16000000000003,78.66668073336284L153.272,78.66668073336284L153.328,78.66668073336284L153.44,78.66668073336284L153.552,78.66668073336284L153.608,78.66668073336284L153.72,78.66668073336284L153.832,78.66668073336284L153.888,78.66668073336284L154.112,78.66668073336284L154.168,78.66668073336284L154.28,78.66668073336284L154.448,78.66668073336284L154.728,78.66668073336284L155.4,78.66668073336284L155.624,78.66668073336284L155.792,78.66668073336284L156.352,78.66668073336284L156.688,78.66668073336284L156.744,78.66668073336284L156.856,78.66668073336284L157.024,78.66668073336284L157.192,78.66668073336284L157.248,78.66668073336284L157.304,78.66668073336284L157.864,78.66668073336284L157.92,78.66668073336284L157.976,78.66668073336284L158.088,78.66668073336284L158.76,78.66668073336284L158.816,78.66668073336284L158.872,78.66668073336284L158.928,78.66668073336284L159.376,78.66668073336284L159.88,78.66668073336284L160.16,78.66668073336284L160.608,78.66668073336284L160.664,78.66668073336284L160.832,78.66668073336284L161.448,78.66668073336284L161.616,78.66668073336284L161.784,78.66668073336284L161.83999999999997,78.66668073336284L161.89600000000002,78.66668073336284L162.008,78.66668073336284L162.45600000000002,117.99997655550641L162.568,117.99997655550641L162.67999999999998,117.99997655550641L162.792,117.99997655550641L163.352,117.99997655550641L163.79999999999998,117.99997655550641L163.85600000000002,117.99997655550641L164.13600000000002,117.99997655550641L164.472,117.99997655550641L164.92,117.99997655550641L165.25599999999997,117.99997655550641L165.312,117.99997655550641L165.368,117.99997655550641L165.424,117.99997655550641L165.53599999999997,117.99997655550641L165.81599999999997,117.99997655550641L166.88,117.99997655550641L166.99200000000002,117.99997655550641L167.21599999999998,117.99997655550641L167.27200000000002,117.99997655550641L167.83200000000002,117.99997655550641L167.944,117.99997655550641L168.11200000000002,59.000032822291054L168.168,59.000032822291054L168.224,59.000032822291054L168.784,59.000032822291054L168.84,59.000032822291054L169.008,59.000032822291054L169.12,59.000032822291054L169.344,59.000032822291054L169.456,59.000032822291054L169.624,59.000032822291054L169.736,59.000032822291054L169.848,59.000032822291054L169.96,59.000032822291054L170.464,59.000032822291054L170.68800000000002,59.000032822291054L170.912,59.000032822291054L171.024,59.000032822291054L171.192,59.000032822291054L171.35999999999999,59.000032822291054L171.696,59.000032822291054L171.75199999999998,59.000032822291054L171.976,59.000032822291054L172.144,59.000032822291054L172.31199999999998,59.000032822291054L172.424,59.000032822291054L172.704,59.000032822291054L172.928,59.000032822291054L173.096,59.000032822291054L173.152,59.000032822291054L173.208,59.000032822291054L173.264,59.000032822291054L173.432,59.000032822291054L173.656,59.000032822291054L173.992,59.000032822291054L174.048,59.000032822291054L174.21599999999998,59.000032822291054L174.66400000000002,59.000032822291054L174.94400000000002,59.000032822291054L175.112,59.000032822291054L175.28,59.000032822291054L175.33599999999998,59.000032822291054L175.448,59.000032822291054L175.61599999999999,59.000032822291054L175.672,59.000032822291054L175.78400000000002,59.000032822291054L176.12,59.000032822291054L176.288,59.000032822291054L176.456,59.000032822291054L176.512,59.000032822291054L176.736,59.000032822291054L177.072,59.000032822291054L177.8,59.000032822291054L178.024,59.000032822291054L178.136,59.000032822291054L178.416,59.000032822291054L178.696,59.000032822291054L179.20000000000002,59.000032822291054L179.424,157.333389600118L179.648,157.333389600118L179.816,157.333389600118L180.656,157.333389600118L181.216,157.333389600118L181.272,157.333389600118L181.32799999999997,157.333389600118L181.496,157.333389600118L181.832,157.333389600118L182.16799999999998,157.333389600118L182.22400000000002,157.333389600118L182.28,157.333389600118L182.336,157.333389600118L182.392,157.333389600118L182.44799999999998,157.333389600118L182.50400000000002,157.333389600118L182.952,157.333389600118L184.24,157.333389600118L184.296,157.333389600118L184.352,157.333389600118L184.74400000000003,157.333389600118L185.36,78.66668073336284L185.472,78.66668073336284L185.696,78.66668073336284L186.14399999999998,78.66668073336284L186.20000000000002,78.66668073336284L186.368,78.66668073336284L186.48000000000002,78.66668073336284L186.536,78.66668073336284L186.648,78.66668073336284L187.712,78.66668073336284L187.992,78.66668073336284L188.16000000000003,78.66668073336284L188.328,78.66668073336284L188.832,78.66668073336284L188.888,78.66668073336284L189.224,78.66668073336284L189.336,78.66668073336284L189.392,78.66668073336284L189.728,78.66668073336284L189.89600000000002,78.66668073336284L189.952,78.66668073336284L190.232,78.66668073336284L190.344,78.66668073336284L190.45600000000002,78.66668073336284L190.624,78.66668073336284L190.68,78.66668073336284L191.128,78.66668073336284L191.408,78.66668073336284L191.52,78.66668073336284L191.57600000000002,78.66668073336284L191.632,78.66668073336284L192.248,78.66668073336284L192.808,78.66668073336284L193.256,78.66668073336284L194.208,78.66668073336284L194.488,78.66668073336284L194.6,78.66668073336284L194.656,78.66668073336284L194.82399999999998,78.66668073336284L195.384,78.66668073336284L195.72,78.66668073336284L195.944,78.66668073336284L196.224,157.333389600118L196.336,157.333389600118L196.448,157.333389600118L196.56,157.333389600118L196.672,157.333389600118L196.89600000000002,157.333389600118L196.952,157.333389600118L197.11999999999998,157.333389600118L197.17600000000002,157.333389600118L197.232,157.333389600118L197.45600000000002,157.333389600118L197.568,157.333389600118L197.73600000000002,157.333389600118L197.792,157.333389600118L197.904,157.333389600118L198.184,157.333389600118L198.29600000000002,157.333389600118L198.352,157.333389600118L198.40800000000002,157.333389600118L198.744,157.333389600118L198.85600000000002,157.333389600118L199.024,157.333389600118L199.528,157.333389600118L199.696,157.333389600118L199.808,157.333389600118L199.92,157.333389600118L200.032,157.333389600118L200.144,157.333389600118L200.648,157.333389600118L200.872,157.333389600118L200.984,157.333389600118L201.15200000000002,157.333389600118L201.6,157.333389600118L201.824,98.33332864443462L202.048,98.33332864443462L202.384,98.33332864443462L202.77599999999998,98.33332864443462L202.888,98.33332864443462L203.168,98.33332864443462L203.56,98.33332864443462L203.728,98.33332864443462L203.784,98.33332864443462L204.064,98.33332864443462L204.12,98.33332864443462L204.176,98.33332864443462L204.288,98.33332864443462L204.456,98.33332864443462L204.736,98.33332864443462L204.904,98.33332864443462L204.96,98.33332864443462L205.072,98.33332864443462L205.40800000000002,98.33332864443462L205.96800000000002,98.33332864443462L206.35999999999999,98.33332864443462L206.52800000000002,98.33332864443462L206.584,98.33332864443462L206.976,98.33332864443462L207.03199999999998,98.33332864443462L207.08800000000002,98.33332864443462L207.144,98.33332864443462L207.424,98.33332864443462L207.59199999999998,98.33332864443462L208.93599999999998,98.33332864443462L209.104,98.33332864443462L209.21599999999998,98.33332864443462L209.49599999999998,98.33332864443462L209.66400000000002,98.33332864443462L209.72,98.33332864443462L209.832,98.33332864443462L209.888,98.33332864443462L210.28,98.33332864443462L210.392,98.33332864443462L210.50400000000002,98.33332864443462L211.008,98.33332864443462L211.288,98.33332864443462L211.344,98.33332864443462L211.68,98.33332864443462L211.792,98.33332864443462L211.904,98.33332864443462L212.016,98.33332864443462L212.24,98.33332864443462L212.40800000000002,98.33332864443462L212.63199999999998,98.33332864443462L213.136,78.66668073336284L213.19199999999998,78.66668073336284L213.24800000000002,78.66668073336284L213.584,78.66668073336284L214.03199999999998,78.66668073336284L214.256,78.66668073336284L214.368,78.66668073336284L214.424,78.66668073336284L214.48000000000002,78.66668073336284L214.704,78.66668073336284L214.984,78.66668073336284L215.376,78.66668073336284L215.824,78.66668073336284L216.04799999999997,78.66668073336284L216.272,78.66668073336284L216.38400000000001,78.66668073336284L216.72,78.66668073336284L216.88799999999998,78.66668073336284L217,78.66668073336284L217.112,78.66668073336284L217.22400000000002,78.66668073336284L217.392,78.66668073336284L217.50400000000002,78.66668073336284L217.672,78.66668073336284L217.89600000000002,78.66668073336284L218.00799999999998,78.66668073336284L218.34400000000002,78.66668073336284L218.62400000000002,98.33332864443462L218.68,98.33332864443462L218.90400000000002,98.33332864443462L219.296,98.33332864443462L219.912,98.33332864443462L220.08,98.33332864443462L220.136,98.33332864443462L220.304,98.33332864443462L220.58399999999997,98.33332864443462L220.92000000000002,98.33332864443462L220.976,98.33332864443462L221.20000000000002,98.33332864443462L221.312,98.33332864443462L221.648,98.33332864443462L221.70399999999998,98.33332864443462L221.816,98.33332864443462L222.04000000000002,98.33332864443462L222.432,98.33332864443462L222.768,98.33332864443462L222.936,98.33332864443462L223.272,98.33332864443462L223.72,98.33332864443462L223.888,98.33332864443462L224,98.33332864443462L224.056,98.33332864443462L224.336,98.33332864443462L224.392,98.33332864443462L224.56,98.33332864443462L224.672,98.33332864443462L224.728,98.33332864443462L224.84,98.33332864443462L225.12,98.33332864443462L225.68,98.33332864443462L226.01600000000002,98.33332864443462L226.128,98.33332864443462L226.184,98.33332864443462L226.408,98.33332864443462L226.464,98.33332864443462L226.688,98.33332864443462L226.8,98.33332864443462L227.136,98.33332864443462L227.192,98.33332864443462L227.36,98.33332864443462L227.584,98.33332864443462L228.256,98.33332864443462L228.536,98.33332864443462L228.592,98.33332864443462L228.70399999999998,98.33332864443462L229.208,98.33332864443462L229.26399999999998,98.33332864443462L229.6,98.33332864443462L229.656,98.33332864443462L229.768,98.33332864443462L230.44,98.33332864443462L230.664,98.33332864443462L230.776,98.33332864443462L230.888,98.33332864443462L231.056,98.33332864443462L231.224,98.33332864443462L231.728,98.33332864443462L232.064,98.33332864443462L232.17600000000002,98.33332864443462L232.792,98.33332864443462L232.848,98.33332864443462L233.184,98.33332864443462L233.57600000000002,98.33332864443462L234.92,98.33332864443462L234.976,98.33332864443462L235.088,98.33332864443462L235.25599999999997,98.33332864443462L235.368,98.33332864443462L236.544,98.33332864443462L236.71200000000002,98.33332864443462L236.93599999999998,98.33332864443462L236.99200000000002,98.33332864443462L237.048,98.33332864443462L237.16,98.33332864443462L237.384,98.33332864443462L237.55200000000002,98.33332864443462L237.664,98.33332864443462L237.77599999999998,98.33332864443462L238.168,98.33332864443462L238.33599999999998,98.33332864443462L238.39200000000002,98.33332864443462L238.56,98.33332864443462L238.84,98.33332864443462L239.288,98.33332864443462L239.512,98.33332864443462L239.624,98.33332864443462L239.736,98.33332864443462L239.792,98.33332864443462L240.12800000000001,98.33332864443462L240.352,98.33332864443462L240.464,98.33332864443462L240.576,98.33332864443462L240.744,98.33332864443462L241.24800000000002,98.33332864443462L241.35999999999999,98.33332864443462L241.416,98.33332864443462L241.64,98.33332864443462L241.92,98.33332864443462L242.03199999999998,98.33332864443462L242.59199999999998,98.33332864443462L242.704,98.33332864443462L242.816,98.33332864443462L243.544,98.33332864443462L243.768,98.33332864443462L243.88,98.33332864443462L244.44,98.33332864443462L244.72,98.33332864443462L245.112,98.33332864443462L245.28,98.33332864443462L245.392,98.33332864443462L245.728,98.33332864443462L246.12,98.33332864443462L246.512,117.99997655550641L246.568,117.99997655550641L246.624,117.99997655550641L246.736,117.99997655550641L246.904,117.99997655550641L247.016,117.99997655550641L247.35199999999998,117.99997655550641L247.576,117.99997655550641L247.63199999999998,117.99997655550641L247.96800000000002,117.99997655550641L248.024,117.99997655550641L248.08,117.99997655550641L248.36,117.99997655550641L248.416,117.99997655550641L248.64000000000001,117.99997655550641L249.256,117.99997655550641L249.59199999999998,117.99997655550641L249.816,117.99997655550641L249.928,117.99997655550641L250.096,117.99997655550641L250.208,117.99997655550641L250.544,117.99997655550641L250.712,117.99997655550641L250.936,117.99997655550641L251.16,117.99997655550641L251.272,117.99997655550641L251.44,117.99997655550641L251.552,117.99997655550641L251.776,117.99997655550641L251.88799999999998,117.99997655550641L252,117.99997655550641" style="fill: none;" fill="none"></path></g></g></g></g></g></g><g transform="translate(50, 177)" clip-path="url(#clip_1)"><clipPath id="clip_1"><rect width="280" height="23"></rect></clipPath><g><g><line x1="0" y1="0" x2="0" y2="5" style="visibility: inherit;" fill="rgb(0, 0, 0)" stroke="rgb(204, 204, 204)" stroke-width="1px"></line><line x1="28" y1="0" x2="28" y2="5" style="visibility: inherit;" fill="rgb(0, 0, 0)" stroke="rgb(204, 204, 204)" stroke-width="1px"></line><line x1="56" y1="0" x2="56" y2="5" style="visibility: inherit;" fill="rgb(0, 0, 0)" stroke="rgb(204, 204, 204)" stroke-width="1px"></line><line x1="84" y1="0" x2="84" y2="5" style="visibility: inherit;" fill="rgb(0, 0, 0)" stroke="rgb(204, 204, 204)" stroke-width="1px"></line><line x1="112" y1="0" x2="112" y2="5" style="visibility: inherit;" fill="rgb(0, 0, 0)" stroke="rgb(204, 204, 204)" stroke-width="1px"></line><line x1="140" y1="0" x2="140" y2="5" style="visibility: inherit;" fill="rgb(0, 0, 0)" stroke="rgb(204, 204, 204)" stroke-width="1px"></line><line x1="168" y1="0" x2="168" y2="5" style="visibility: inherit;" fill="rgb(0, 0, 0)" stroke="rgb(204, 204, 204)" stroke-width="1px"></line><line x1="196" y1="0" x2="196" y2="5" style="visibility: inherit;" fill="rgb(0, 0, 0)" stroke="rgb(204, 204, 204)" stroke-width="1px"></line><line x1="224" y1="0" x2="224" y2="5" style="visibility: inherit;" fill="rgb(0, 0, 0)" stroke="rgb(204, 204, 204)" stroke-width="1px"></line><line x1="252" y1="0" x2="252" y2="5" style="visibility: inherit;" fill="rgb(0, 0, 0)" stroke="rgb(204, 204, 204)" stroke-width="1px"></line><line x1="280" y1="0" x2="280" y2="5" style="visibility: inherit;" fill="rgb(0, 0, 0)" stroke="rgb(204, 204, 204)" stroke-width="1px"></line></g><g transform="translate(0, 8)"><text x="0" y="0" dx="0em" dy="0.95em" style="text-anchor: middle; visibility: hidden; font-family: Roboto, sans-serif; font-size: 12px; font-weight: 200;" fill="rgb(33, 33, 33)" stroke="none" stroke-width="1px">500</text><text x="28" y="0" dx="0em" dy="0.95em" style="text-anchor: middle; visibility: inherit; font-family: Roboto, sans-serif; font-size: 12px; font-weight: 200;" fill="rgb(33, 33, 33)" stroke="none" stroke-width="1px">1k</text><text x="56" y="0" dx="0em" dy="0.95em" style="text-anchor: middle; visibility: inherit; font-family: Roboto, sans-serif; font-size: 12px; font-weight: 200;" fill="rgb(33, 33, 33)" stroke="none" stroke-width="1px">1.5k</text><text x="84" y="0" dx="0em" dy="0.95em" style="text-anchor: middle; visibility: inherit; font-family: Roboto, sans-serif; font-size: 12px; font-weight: 200;" fill="rgb(33, 33, 33)" stroke="none" stroke-width="1px">2k</text><text x="112" y="0" dx="0em" dy="0.95em" style="text-anchor: middle; visibility: inherit; font-family: Roboto, sans-serif; font-size: 12px; font-weight: 200;" fill="rgb(33, 33, 33)" stroke="none" stroke-width="1px">2.5k</text><text x="140" y="0" dx="0em" dy="0.95em" style="text-anchor: middle; visibility: inherit; font-family: Roboto, sans-serif; font-size: 12px; font-weight: 200;" fill="rgb(33, 33, 33)" stroke="none" stroke-width="1px">3k</text><text x="168" y="0" dx="0em" dy="0.95em" style="text-anchor: middle; visibility: inherit; font-family: Roboto, sans-serif; font-size: 12px; font-weight: 200;" fill="rgb(33, 33, 33)" stroke="none" stroke-width="1px">3.5k</text><text x="196" y="0" dx="0em" dy="0.95em" style="text-anchor: middle; visibility: inherit; font-family: Roboto, sans-serif; font-size: 12px; font-weight: 200;" fill="rgb(33, 33, 33)" stroke="none" stroke-width="1px">4k</text><text x="224" y="0" dx="0em" dy="0.95em" style="text-anchor: middle; visibility: inherit; font-family: Roboto, sans-serif; font-size: 12px; font-weight: 200;" fill="rgb(33, 33, 33)" stroke="none" stroke-width="1px">4.5k</text><text x="252" y="0" dx="0em" dy="0.95em" style="text-anchor: middle; visibility: inherit; font-family: Roboto, sans-serif; font-size: 12px; font-weight: 200;" fill="rgb(33, 33, 33)" stroke="none" stroke-width="1px">5k</text><text x="280" y="0" dx="0em" dy="0.95em" style="text-anchor: middle; visibility: hidden; font-family: Roboto, sans-serif; font-size: 12px; font-weight: 200;" fill="rgb(33, 33, 33)" stroke="none" stroke-width="1px">5.5k</text></g><line x1="0" y1="0" x2="280" y2="0" fill="rgb(0, 0, 0)" stroke="rgb(204, 204, 204)" stroke-width="1px"></line></g></g></g></g></svg>