<svg viewBox="0 0 330 200" xmlns="http://www.w3.org/2000/svg"><g><g><g><g><g><line x1="40" y1="177" x2="35" y2="177" style="visibility: inherit;" fill="rgb(0, 0, 0)" stroke="rgb(204, 204, 204)" stroke-width="1px"></line><line x1="40" y1="154.875" x2="35" y2="154.875" style="visibility: inherit;" fill="rgb(0, 0, 0)" stroke="rgb(204, 204, 204)" stroke-width="1px"></line><line x1="40" y1="132.75" x2="35" y2="132.75" style="visibility: inherit;" fill="rgb(0, 0, 0)" stroke="rgb(204, 204, 204)" stroke-width="1px"></line><line x1="40" y1="110.625" x2="35" y2="110.625" style="visibility: inherit;" fill="rgb(0, 0, 0)" stroke="rgb(204, 204, 204)" stroke-width="1px"></line><line x1="40" y1="88.5" x2="35" y2="88.5" style="visibility: inherit;" fill="rgb(0, 0, 0)" stroke="rgb(204, 204, 204)" stroke-width="1px"></line><line x1="40" y1="66.375" x2="35" y2="66.375" style="visibility: inherit;" fill="rgb(0, 0, 0)" stroke="rgb(204, 204, 204)" stroke-width="1px"></line><line x1="40" y1="44.25" x2="35" y2="44.25" style="visibility: inherit;" fill="rgb(0, 0, 0)" stroke="rgb(204, 204, 204)" stroke-width="1px"></line><line x1="40" y1="22.125" x2="35" y2="22.125" style="visibility: inherit;" fill="rgb(0, 0, 0)" stroke="rgb(204, 204, 204)" stroke-width="1px"></line><line x1="40" y1="0" x2="35" y2="0" style="visibility: inherit;" fill="rgb(0, 0, 0)" stroke="rgb(204, 204, 204)" stroke-width="1px"></line></g><g transform="translate(30, 0)"><text x="0" y="177" dx="0em" dy="0.3em" style="text-anchor: end; visibility: hidden; font-family: Roboto, sans-serif; font-size: 12px; font-weight: 200;" fill="rgb(33, 33, 33)" stroke="none" stroke-width="1px">0</text><text x="0" y="154.875" dx="0em" dy="0.3em" style="text-anchor: end; visibility: inherit; font-family: Roboto, sans-serif; font-size: 12px; font-weight: 200;" fill="rgb(33, 33, 33)" stroke="none" stroke-width="1px">0.5</text><text x="0" y="132.75" dx="0em" dy="0.3em" style="text-anchor: end; visibility: hidden; font-family: Roboto, sans-serif; font-size: 12px; font-weight: 200;" fill="rgb(33, 33, 33)" stroke="none" stroke-width="1px">1</text><text x="0" y="110.625" dx="0em" dy="0.3em" style="text-anchor: end; visibility: inherit; font-family: Roboto, sans-serif; font-size: 12px; font-weight: 200;" fill="rgb(33, 33, 33)" stroke="none" stroke-width="1px">1.5</text><text x="0" y="88.5" dx="0em" dy="0.3em" style="text-anchor: end; visibility: hidden; font-family: Roboto, sans-serif; font-size: 12px; font-weight: 200;" fill="rgb(33, 33, 33)" stroke="none" stroke-width="1px">2</text><text x="0" y="66.375" dx="0em" dy="0.3em" style="text-anchor: end; visibility: inherit; font-family: Roboto, sans-serif; font-size: 12px; font-weight: 200;" fill="rgb(33, 33, 33)" stroke="none" stroke-width="1px">2.5</text><text x="0" y="44.25" dx="0em" dy="0.3em" style="text-anchor: end; visibility: hidden; font-family: Roboto, sans-serif; font-size: 12px; font-weight: 200;" fill="rgb(33, 33, 33)" stroke="none" stroke-width="1px">3</text><text x="0" y="22.125" dx="0em" dy="0.3em" style="text-anchor: end; visibility: inherit; font-family: Roboto, sans-serif; font-size: 12px; font-weight: 200;" fill="rgb(33, 33, 33)" stroke="none" stroke-width="1px">3.5</text><text x="0" y="0" dx="0em" dy="0.3em" style="text-anchor: end; visibility: hidden; font-family: Roboto, sans-serif; font-size: 12px; font-weight: 200;" fill="rgb(33, 33, 33)" stroke="none" stroke-width="1px">4</text></g><line x1="40" y1="0" x2="40" y2="177" fill="rgb(0, 0, 0)" stroke="rgb(204, 204, 204)" stroke-width="1px"></line></g></g><g transform="translate(40, 0)" clip-path="url(#clip_0)"><clipPath id="clip_0"><rect width="290" height="177"></rect></clipPath><g><g><g><line x1="0" y1="0" x2="0" y2="177" fill="rgb(0, 0, 0)" stroke="rgb(66, 66, 66)" stroke-width="1px" opacity="0.25"></line><line x1="24.166666666666664" y1="0" x2="24.166666666666664" y2="177" fill="rgb(0, 0, 0)" stroke="rgb(66, 66, 66)" stroke-width="1px" opacity="0.25"></line><line x1="48.33333333333333" y1="0" x2="48.33333333333333" y2="177" fill="rgb(0, 0, 0)" stroke="rgb(66, 66, 66)" stroke-width="1px" opacity="0.25"></line><line x1="72.5" y1="0" x2="72.5" y2="177" fill="rgb(0, 0, 0)" stroke="rgb(66, 66, 66)" stroke-width="1px" opacity="0.25"></line><line x1="96.66666666666666" y1="0" x2="96.66666666666666" y2="177" fill="rgb(0, 0, 0)" stroke="rgb(66, 66, 66)" stroke-width="1px" opacity="0.25"></line><line x1="120.83333333333334" y1="0" x2="120.83333333333334" y2="177" fill="rgb(0, 0, 0)" stroke="rgb(66, 66, 66)" stroke-width="1px" opacity="0.25"></line><line x1="145" y1="0" x2="145" y2="177" fill="rgb(0, 0, 0)" stroke="rgb(66, 66, 66)" stroke-width="1px" opacity="0.25"></line><line x1="169.16666666666669" y1="0" x2="169.16666666666669" y2="177" fill="rgb(0, 0, 0)" stroke="rgb(66, 66, 66)" stroke-width="1px" opacity="0.25"></line><line x1="193.33333333333331" y1="0" x2="193.33333333333331" y2="177" fill="rgb(0, 0, 0)" stroke="rgb(66, 66, 66)" stroke-width="1px" opacity="0.25"></line><line x1="217.5" y1="0" x2="217.5" y2="177" fill="rgb(0, 0, 0)" stroke="rgb(66, 66, 66)" stroke-width="1px" opacity="0.25"></line><line x1="241.66666666666669" y1="0" x2="241.66666666666669" y2="177" fill="rgb(0, 0, 0)" stroke="rgb(66, 66, 66)" stroke-width="1px" opacity="0.25"></line><line x1="265.8333333333333" y1="0" x2="265.8333333333333" y2="177" fill="rgb(0, 0, 0)" stroke="rgb(66, 66, 66)" stroke-width="1px" opacity="0.25"></line><line x1="290" y1="0" x2="290" y2="177" fill="rgb(0, 0, 0)" stroke="rgb(66, 66, 66)" stroke-width="1px" opacity="0.25"></line></g><g><line x1="0" y1="177" x2="290" y2="177" fill="rgb(0, 0, 0)" stroke="rgb(66, 66, 66)" stroke-width="1px" opacity="0.25"></line><line x1="0" y1="154.875" x2="290" y2="154.875" fill="rgb(0, 0, 0)" stroke="rgb(66, 66, 66)" stroke-width="1px" opacity="0.25"></line><line x1="0" y1="132.75" x2="290" y2="132.75" fill="rgb(0, 0, 0)" stroke="rgb(66, 66, 66)" stroke-width="1px" opacity="0.25"></line><line x1="0" y1="110.625" x2="290" y2="110.625" fill="rgb(0, 0, 0)" stroke="rgb(66, 66, 66)" stroke-width="1px" opacity="0.25"></line><line x1="0" y1="88.5" x2="290" y2="88.5" fill="rgb(0, 0, 0)" stroke="rgb(66, 66, 66)" stroke-width="1px" opacity="0.25"></line><line x1="0" y1="66.375" x2="290" y2="66.375" fill="rgb(0, 0, 0)" stroke="rgb(66, 66, 66)" stroke-width="1px" opacity="0.25"></line><line x1="0" y1="44.25" x2="290" y2="44.25" fill="rgb(0, 0, 0)" stroke="rgb(66, 66, 66)" stroke-width="1px" opacity="0.25"></line><line x1="0" y1="22.125" x2="290" y2="22.125" fill="rgb(0, 0, 0)" stroke="rgb(66, 66, 66)" stroke-width="1px" opacity="0.25"></line><line x1="0" y1="0" x2="290" y2="0" fill="rgb(0, 0, 0)" stroke="rgb(66, 66, 66)" stroke-width="1px" opacity="0.25"></line></g></g></g><g><g><line x1="0" y1="177" x2="290" y2="177" fill="rgb(0, 0, 0)" stroke="rgb(153, 153, 153)" stroke-width="1.5px"></line></g></g><g><g><line x1="24.166666666666664" y1="0" x2="24.166666666666664" y2="177" fill="rgb(0, 0, 0)" stroke="rgb(153, 153, 153)" stroke-width="1.5px"></line></g></g><g><g><g><g><g><path stroke="rgb(0, 119, 187)" stroke-width="2px" d="M26.583333333333332,27.25844031572342L26.583333333333332,28.693730248854635L26.583333333333332,30.533446421495764L26.583333333333332,35.326785915658014L26.583333333333332,38.6969413260247L26.583333333333332,41.35965148188938L26.583333333333332,43.47164113359425L29,53.02001962739184L29,60.78010741663686L29,67.11252145761031L29,72.56641112234256L29,77.21654716789337L29,81.18358508280622L29,84.56087399719658L29,87.56301398308408L29,90.22914527691547L31.416666666666668,93.00185680761956L31.416666666666668,95.38267480036237L31.416666666666668,97.4938428787505L31.416666666666668,99.35650735775926L31.416666666666668,101.03563215821312L31.416666666666668,102.5686579017075L31.416666666666668,103.97875679921594L31.416666666666668,105.25554213694099L33.833333333333336,106.7342268403203L33.833333333333336,107.8888349948488L33.833333333333336,108.9451666057697L33.833333333333336,109.93607285505959L33.833333333333336,110.86427074728316L33.833333333333336,111.72447471903456L33.833333333333336,112.50813373235002L33.833333333333336,113.23781448662471L36.25,114.03825325984252L36.25,114.76198729326406L36.25,115.42227174894532L36.25,116.05137410525822L36.25,116.60747298680934L36.25,117.12066648373464L36.25,117.60876243229825L36.25,118.0601918799012L36.25,118.47900322737569L38.666666666666664,119.03188772555372L38.666666666666664,119.53868897723592L38.666666666666664,119.9875782068033L38.666666666666664,120.41660097810936L38.666666666666664,120.81899279472584L38.666666666666664,121.1970475676707L38.666666666666664,121.53814353221907L38.666666666666664,121.85512709948893L38.666666666666664,122.1587268690667L41.083333333333336,122.40690334620265L41.083333333333336,122.66671002771561L41.083333333333336,122.91645170208025L41.083333333333336,123.16346404024148L41.083333333333336,123.39068666810121L41.083333333333336,123.60920707549647L41.083333333333336,123.81686081983543L41.083333333333336,124.01359163708823L43.5,124.22956888549811L43.5,124.39387682655554L43.5,124.5619463330196L43.5,124.71481588165675L43.5,124.88061183777366L43.5,125.05802847673137L43.5,125.23556012788973L45.916666666666664,125.39139327347776L45.916666666666664,125.56352403162217L45.916666666666664,125.74801278937302L45.916666666666664,125.92571874484912L45.916666666666664,126.09522795220772L45.916666666666664,126.27749145530328L48.33333333333333,126.48855564794871L48.33333333333333,126.70766751584264L48.33333333333333,126.90539349380668L48.33333333333333,127.08716149593032L48.33333333333333,127.2835960721373L48.33333333333333,127.47267786889888L48.33333333333333,127.65241723013162L48.33333333333333,127.83205263984946L48.33333333333333,128.0089429491943L50.75,128.38870884061475L50.75,128.66098908051254L50.75,128.87079996934747L50.75,129.06146155198633L50.75,129.2402077190864L50.75,129.41133647586844L50.75,129.5784267243924L53.166666666666664,129.6190598245065L53.166666666666664,129.6904159424778L53.166666666666664,129.78148266079774L53.166666666666664,129.8825368780785L53.166666666666664,129.99096886165475L53.166666666666664,130.0679772581555L53.166666666666664,130.1422308834446L53.166666666666664,130.21179903632614L53.166666666666664,130.28042185188855L53.166666666666664,130.3512456731394L55.583333333333336,130.41763391513945L55.583333333333336,130.45441097107582L55.583333333333336,130.48360689549952L55.583333333333336,130.50832220468894L55.583333333333336,130.52591572440465L55.583333333333336,130.54406592532493L55.583333333333336,130.5607435597452L55.583333333333336,130.57617960365994L55.583333333333336,130.5894369057569L55.583333333333336,130.60558018619906L55.583333333333336,130.6223536724669L55.583333333333336,130.64232379794257L55.583333333333336,130.66803822052563L58,130.79324483399526L58,130.86893416322943L58,130.94674083871791L58,131.03208355817515L58,131.11471026966024L58,131.19549046180703L58,131.2652910601733L58,131.33114112510174L58,131.39494736896776L60.41666666666667,131.35076438583854L60.41666666666667,131.37745922688848L60.41666666666667,131.39419084213148L60.41666666666667,131.4220299679173L60.41666666666667,131.5087121136073L60.41666666666667,131.59940034993113L60.41666666666667,131.67933497706468L60.41666666666667,131.75721059200575L60.41666666666667,131.83926805769346L60.41666666666667,131.92959585869355L60.41666666666667,132.01417711251267L60.41666666666667,132.09070868673192L60.41666666666667,132.165663904505L60.41666666666667,132.23644222581436L62.833333333333336,132.34285378909507L62.833333333333336,132.42743457819793L62.833333333333336,132.48977386885727L62.833333333333336,132.56077149478656L62.833333333333336,132.62424927117334L62.833333333333336,132.68707220504072L62.833333333333336,132.74382634907977L62.833333333333336,132.79924422597276L62.833333333333336,132.85551834236594L65.25,132.81860177295147L65.25,132.8543551280624L65.25,132.90693668899746L65.25,132.93249074700088L65.25,132.94053946036058L65.25,132.95146143767812L65.25,132.96666243063885L65.25,132.98203227960556L65.25,132.98749135896483L65.25,133.01507703902922L65.25,133.04522205902862L65.25,133.07412424309825L65.25,133.10284183995608L65.25,133.13525740244415L65.25,133.16551989735376L65.25,133.20675066719684L67.66666666666667,133.25815732154092L67.66666666666667,133.28545861449848L67.66666666666667,133.3167719332217L67.66666666666667,133.36209868257785L67.66666666666667,133.3848645130312L67.66666666666667,133.3953160490567L67.66666666666667,133.40657251860267L67.66666666666667,133.42939284551227L67.66666666666667,133.4585513858913L67.66666666666667,133.48857499295843L67.66666666666667,133.52667861649306L67.66666666666667,133.56604088852546L67.66666666666667,133.60186327805567L67.66666666666667,133.63976643502562L67.66666666666667,133.6864617670484L70.08333333333333,133.54580996412167L70.08333333333333,133.5345814406622L70.08333333333333,133.5533884518282L70.08333333333333,133.58010591963577L70.08333333333333,133.6095586478371L70.08333333333333,133.6616350491734L70.08333333333333,133.71327561312313L70.08333333333333,133.76268764263733L72.5,133.803233954154L72.5,133.83035722636478L72.5,133.8709712868435L72.5,133.91990956346987L72.5,133.95797035973595L72.5,133.98368406502826L72.5,134.02205163921727L72.5,134.06799276813402L72.5,134.1114152648816L72.5,134.15490113977103L72.5,134.1938229107016L72.5,134.23420582512355L72.5,134.27573336681579L74.91666666666667,134.3760309185731L74.91666666666667,134.49757658194042L74.91666666666667,134.58563041759086L74.91666666666667,134.65299661881235L74.91666666666667,134.7111530195806L74.91666666666667,134.76812730332705L74.91666666666667,134.84424559102357L74.91666666666667,134.91642491458543L74.91666666666667,134.98298164897486L74.91666666666667,135.0511664978847L74.91666666666667,135.11514536626348L74.91666666666667,135.17284971133336L74.91666666666667,135.2240180334081L77.33333333333333,135.2827390617178L77.33333333333333,135.3192526774415L77.33333333333333,135.33659421892312L77.33333333333333,135.3595735255552L77.33333333333333,135.38536424362928L77.33333333333333,135.4138036404189L77.33333333333333,135.44046705818067L77.33333333333333,135.45840737760756L77.33333333333333,135.47695510902187L77.33333333333333,135.49765093436588L77.33333333333333,135.52321937413373L77.33333333333333,135.54715539927855L77.33333333333333,135.57571353011977L77.33333333333333,135.6091051004317L77.33333333333333,135.64162358906637L79.75,135.6618959549973L79.75,135.74126892704942L79.75,135.82897488045202L79.75,135.897537945772L79.75,135.95214114407227L79.75,136.00702315900952L79.75,136.066196894068L79.75,136.11252183590582L79.75,136.15387556462565L79.75,136.19316157809072L82.16666666666667,136.13638503241953L82.16666666666667,136.12714015484943L82.16666666666667,136.13433180380412L82.16666666666667,136.13791154017105L82.16666666666667,136.13244006819272L82.16666666666667,136.1416898406537L82.16666666666667,136.15501272788393L82.16666666666667,136.16946165767493L82.16666666666667,136.18082069953402L82.16666666666667,136.19422253002475L82.16666666666667,136.21795046233416L82.16666666666667,136.24086809876164L84.58333333333334,136.28436676834164L84.58333333333334,136.3358679978299L84.58333333333334,136.4060120248357L84.58333333333334,136.4866318700901L84.58333333333334,136.53799816258604L84.58333333333334,136.58960600033475L87,136.72042981L87,136.82785302447903L87,136.91065636098486L87,136.9926603157166L87,137.0494346904887L87,137.05564655589083L87,137.05291907934884L87,137.03895569231145L87,137.02624369478755L89.41666666666667,136.97659887354115L89.41666666666667,136.9478665587244L89.41666666666667,136.94457641927616L89.41666666666667,136.96926200284872L89.41666666666667,136.99554532919956L89.41666666666667,137.03989595572662L89.41666666666667,137.09919804003633L89.41666666666667,137.15130919713908L89.41666666666667,137.2040892572821L91.83333333333333,137.3078170908246L91.83333333333333,137.37210902932947L91.83333333333333,137.44816503626953L91.83333333333333,137.52252006604317L91.83333333333333,137.5810771570286L91.83333333333333,137.6333433027803L91.83333333333333,137.68186781152076L91.83333333333333,137.7330990763226L91.83333333333333,137.78409189077468L91.83333333333333,137.83530075122133L91.83333333333333,137.8709175064221L94.25,137.9031382124243L94.25,137.91182202201696L94.25,137.9213107414104L94.25,137.93479414781652L94.25,137.98187514628364L94.25,138.0238142480675L94.25,138.06173154057464L94.25,138.09425721563875L94.25,138.12827624840813L94.25,138.15964297967295L94.25,138.19424242624143L94.25,138.23058562711608L94.25,138.26318668276602L94.25,138.30044127968424L96.66666666666666,138.28167103117372L96.66666666666666,138.24625003025014L96.66666666666666,138.28530280691842L96.66666666666666,138.32381888897038L96.66666666666666,138.36032067767982L99.08333333333333,138.3719873772278L99.08333333333333,138.39258448972632L99.08333333333333,138.3882788876609L99.08333333333333,138.37894494005266L99.08333333333333,138.3664271179398L99.08333333333333,138.39854171062777L99.08333333333333,138.4288514414525L99.08333333333333,138.45974764561524L99.08333333333333,138.48781576060807L99.08333333333333,138.51054227752837L101.5,138.4127237416334L101.5,138.34621339246476L101.5,138.3296237947789L101.5,138.34348906574516L101.5,138.3514617578037L101.5,138.3929313253168L101.5,138.44387665625123L101.5,138.49453150197536L103.91666666666667,138.57331882943342L103.91666666666667,138.647082643114L103.91666666666667,138.7172689088834L103.91666666666667,138.77788355391368L103.91666666666667,138.838410131382L103.91666666666667,138.90066725298024L103.91666666666667,138.96755523482489L103.91666666666667,139.0311652823047L103.91666666666667,139.0936966553136L103.91666666666667,139.1569954727005L106.33333333333333,139.21591240376512L106.33333333333333,139.25714827134848L106.33333333333333,139.3141993586837L106.33333333333333,139.35505646469275L106.33333333333333,139.3910608485872L106.33333333333333,139.42422517654086L106.33333333333333,139.45964745632932L106.33333333333333,139.49230296362225L106.33333333333333,139.5190334187854L108.75,139.5619945891424L108.75,139.5960596427326L108.75,139.64952860967915L108.75,139.68842093345202L108.75,139.73003702584478L108.75,139.76910771689853L108.75,139.81215438150605L108.75,139.85676561753715L108.75,139.8961152702448L111.16666666666667,140.01201901465265L111.16666666666667,140.05444720021745L111.16666666666667,140.08172232510054L111.16666666666667,140.10524424551159L111.16666666666667,140.12997951803774L111.16666666666667,140.16122174326065L111.16666666666667,140.19426494052775L111.16666666666667,140.23149699771642L111.16666666666667,140.26815059845194L111.16666666666667,140.29943159100685L111.16666666666667,140.33377260864896L111.16666666666667,140.35763504564028L113.58333333333333,140.40928817311206L113.58333333333333,140.43101219526412L113.58333333333333,140.44870735133523L113.58333333333333,140.47781920737637L113.58333333333333,140.48529749808827L113.58333333333333,140.50052169885672L113.58333333333333,140.51823712954652L113.58333333333333,140.53528807540349L113.58333333333333,140.5624824983466L113.58333333333333,140.58451180711563L113.58333333333333,140.60729803684086L113.58333333333333,140.63173279842928L113.58333333333333,140.65676003011384L113.58333333333333,140.6811111401591L116,140.6710572261581L116,140.68035652374272L116,140.6923768312656L116,140.71970397434228L116,140.75535548311882L116,140.78568448837737L116,140.81726259979644L116,140.85080186556982L116,140.8864475378652L116,140.91997899646097L116,140.95471021378228L116,140.9911121317577L116,141.0278621152517L116,141.06633681454107L116,141.10189212051475L116,141.14095746415833L118.41666666666667,141.20063709299225L118.41666666666667,141.23868135621294L118.41666666666667,141.26070760850536L118.41666666666667,141.2872524131009L118.41666666666667,141.31457180562333L118.41666666666667,141.34198548345455L120.83333333333334,141.33539409389186L120.83333333333334,141.38723256450203L120.83333333333334,141.43900135811683L120.83333333333334,141.4709020945284L120.83333333333334,141.49915014417155L120.83333333333334,141.5208084998388L120.83333333333334,141.54799932910205L123.25,141.61830186146733L123.25,141.61320510886836L123.25,141.63984709746205L123.25,141.64192570600366L123.25,141.6640563332837L123.25,141.68067750933469L123.25,141.6881265153313L123.25,141.6967961243697L123.25,141.69744335828403L123.25,141.6965536654711L123.25,141.696239519038L123.25,141.6924673532641L123.25,141.68994591925735L125.66666666666667,141.7049628409787L125.66666666666667,141.68615209160032L125.66666666666667,141.6743883643768L125.66666666666667,141.6719300430514L125.66666666666667,141.68428567548457L128.08333333333334,141.773394619219L128.08333333333334,141.86258370215148L128.08333333333334,141.93131699175413L128.08333333333334,141.99623750858478L128.08333333333334,142.05691634123275L128.08333333333334,142.11876502043867L128.08333333333334,142.1819462087135L128.08333333333334,142.238583231097L128.08333333333334,142.29126007749284L128.08333333333334,142.33139107202695L128.08333333333334,142.36380729548532L130.5,142.40604130551176L130.5,142.44866370652957L130.5,142.46917614684122L130.5,142.46290943799602L130.5,142.46788588751744L130.5,142.47263553773388L130.5,142.48838730338807L130.5,142.5063161688523L130.5,142.51936608956527L130.5,142.53134309586054L130.5,142.54495587840267L132.91666666666666,142.54952488740216L132.91666666666666,142.56658732200853L132.91666666666666,142.59651403740406L132.91666666666666,142.6329758851239L132.91666666666666,142.65763616577937L132.91666666666666,142.6673460298823L132.91666666666666,142.66493253949696L132.91666666666666,142.64626727616823L132.91666666666666,142.6260793627304L132.91666666666666,142.6189589927539L135.33333333333334,142.70135841702682L135.33333333333334,142.76561056066632L135.33333333333334,142.78040895451855L135.33333333333334,142.82816380372302L135.33333333333334,142.87311049208512L135.33333333333334,142.92943889211227L135.33333333333334,142.97918952549924L135.33333333333334,143.02718282062287L135.33333333333334,143.07717923897374L135.33333333333334,143.1073298856532L135.33333333333334,143.1362164417591L135.33333333333334,143.16958817812005L135.33333333333334,143.1977955778314L135.33333333333334,143.21616287612804L135.33333333333334,143.23354547624564L135.33333333333334,143.24640837495122L137.75,143.22355998705095L137.75,143.21851408598556L137.75,143.2200039412762L137.75,143.25155359575027L137.75,143.279844225849L137.75,143.29851201160312L137.75,143.32606992929644L137.75,143.3462097996876L137.75,143.36430284000338L137.75,143.38396916475006L137.75,143.4024751966382L137.75,143.42127287198406L137.75,143.44216168491923L137.75,143.4631345139492L140.16666666666666,143.53410102732335L140.16666666666666,143.59103196553485L140.16666666666666,143.60635333366713L140.16666666666666,143.64597627721443L140.16666666666666,143.68846343499595L140.16666666666666,143.73480005304157L140.16666666666666,143.7647925307669L140.16666666666666,143.78923654986474L140.16666666666666,143.81371949127748L140.16666666666666,143.83169035077975L140.16666666666666,143.85174964232112L140.16666666666666,143.87208911572642L140.16666666666666,143.88826995074777L142.58333333333331,143.89116317784814L142.58333333333331,143.90304938150683L142.58333333333331,143.9033230956254L142.58333333333331,143.91699075153133L142.58333333333331,143.9272316232635L142.58333333333331,143.94246954108766L142.58333333333331,143.9581403530263L142.58333333333331,143.96669985297245L142.58333333333331,143.9797652276435L142.58333333333331,143.9945667817171L142.58333333333331,144.00581839156922L142.58333333333331,144.01646324271107L142.58333333333331,144.02894314438547L142.58333333333331,144.03856442441472L145,144.0070610758306L145,144.02724602727199L145,144.03606728005113L145,144.03876127201636L145,144.04968383067256L145,144.06492777785402L145,144.09025073041235L145,144.11649798368651L145,144.1414107192505L147.41666666666666,144.20123010635405L147.41666666666666,144.262793242157L147.41666666666666,144.30818023682593L147.41666666666666,144.3525146949383L147.41666666666666,144.39328281856464L147.41666666666666,144.43316301592242L147.41666666666666,144.47646980478027L147.41666666666666,144.51739009935645L147.41666666666666,144.55657415422843L147.41666666666666,144.58324529172378L147.41666666666666,144.61013161559237L147.41666666666666,144.6377976064719L147.41666666666666,144.6666911645329L147.41666666666666,144.6678554558174L149.83333333333334,144.67679386896347L149.83333333333334,144.6821214098169L149.83333333333334,144.68952784354605L149.83333333333334,144.6989313805537L149.83333333333334,144.7089267323131L149.83333333333334,144.71711688312183L152.25,144.63684005234308L152.25,144.68257435395307L152.25,144.7236545155177L152.25,144.75363151940138L152.25,144.77445444516152L152.25,144.79355034132027L152.25,144.81204539591334L152.25,144.82793428800056L154.66666666666666,144.82052751641942L154.66666666666666,144.83712062734762L154.66666666666666,144.84945466616233L154.66666666666666,144.86181370813208L154.66666666666666,144.87760363274444L154.66666666666666,144.89983900254916L154.66666666666666,144.92815323519363L154.66666666666666,144.95491895780236L157.08333333333331,144.9874706923466L157.08333333333331,145.03689127082885L157.08333333333331,145.07518993411958L157.08333333333331,145.12026886060613L157.08333333333331,145.16953212364555L157.08333333333331,145.21542518538078L157.08333333333331,145.26409011027962L157.08333333333331,145.3168486919966L157.08333333333331,145.36606230647547L157.08333333333331,145.41221784522756L157.08333333333331,145.45635322702026L157.08333333333331,145.49345850148293L157.08333333333331,145.526628839111L157.08333333333331,145.5589150314817L159.5,145.63447857712953L159.5,145.67294367874152L159.5,145.68397530802352L159.5,145.67954316331793L159.5,145.67966908056692L159.5,145.67750989717445L159.5,145.67525954128394L159.5,145.68117519445255L159.5,145.69363174305045L159.5,145.7087177722891L159.5,145.72344776340108L159.5,145.73806080500674L159.5,145.75466457273933L161.91666666666666,145.65602975590082L161.91666666666666,145.60965196915367L161.91666666666666,145.60132494167988L161.91666666666666,145.58538292936163L161.91666666666666,145.57623385898367L161.91666666666666,145.5626083924024L161.91666666666666,145.55526190901463L161.91666666666666,145.55228727444444L161.91666666666666,145.55545734480233L161.91666666666666,145.56260623469402L161.91666666666666,145.5691322151594L161.91666666666666,145.57692481806717L161.91666666666666,145.58005766937433L164.33333333333334,145.58433931147889L164.33333333333334,145.51984148643456L164.33333333333334,145.4768438284689L164.33333333333334,145.45677142072114L164.33333333333334,145.44805708445085L164.33333333333334,145.4535181544336L164.33333333333334,145.47007843539188L164.33333333333334,145.48873108030176L164.33333333333334,145.51481435925538L164.33333333333334,145.5400802259071L164.33333333333334,145.5700123072865L166.75,145.63404698800468L166.75,145.68749017168932L166.75,145.7338804313775L166.75,145.75279504594945L166.75,145.77518887282267L166.75,145.80372010482165L166.75,145.8364001981633L166.75,145.87226962507827L169.16666666666669,145.92504114298035L169.16666666666669,145.97245270678013L169.16666666666669,146.02550300543686L169.16666666666669,146.0901934316349L169.16666666666669,146.1582647278967L169.16666666666669,146.21757819124153L169.16666666666669,146.27385964815505L169.16666666666669,146.32420739068044L169.16666666666669,146.37106424278795L169.16666666666669,146.41633046886764L169.16666666666669,146.45880245377987L171.58333333333334,146.483862406759L171.58333333333334,146.51625391509245L171.58333333333334,146.545078841426L171.58333333333334,146.57348033482745L171.58333333333334,146.59747477854458L174,146.68633479362637L174,146.7409272910318L174,146.76708094652525L174,146.7863735194726L174,146.80394924719502L174,146.81843371701638L174,146.83418514814755L174,146.8447903979564L174,146.84780755234829L176.41666666666666,146.82916828829462L176.41666666666666,146.82754581492637L176.41666666666666,146.84138138622464L176.41666666666666,146.8542818690727L176.41666666666666,146.86616108761436L176.41666666666666,146.8824688151369L176.41666666666666,146.90158957264273L176.41666666666666,146.92112605890014L176.41666666666666,146.9451063222126L176.41666666666666,146.9720471823329L176.41666666666666,146.99965433929447L176.41666666666666,147.02727506008128L178.83333333333334,147.05167824972727L178.83333333333334,147.10944266991424L178.83333333333334,147.15688492787658L178.83333333333334,147.19288376829167L178.83333333333334,147.2305784165172L178.83333333333334,147.26304753595022L178.83333333333334,147.29325149431583L178.83333333333334,147.31948947336295L178.83333333333334,147.34591998661278L178.83333333333334,147.3817375104078L178.83333333333334,147.42381764927762L181.25,147.48036536033248L181.25,147.53698404066296L181.25,147.5748417810689L181.25,147.61337319108705L181.25,147.6486284190239L181.25,147.68951064856157L181.25,147.7166445720766L183.66666666666666,147.76461324345522L183.66666666666666,147.81814848421894L183.66666666666666,147.8591171084537L183.66666666666666,147.90367918955872L183.66666666666666,147.9431589899978L183.66666666666666,147.97396092073075L183.66666666666666,148.0072274114505L183.66666666666666,148.03188325618947L183.66666666666666,148.0536469220865L183.66666666666666,148.07505259809503L183.66666666666666,148.08375026089678L183.66666666666666,148.0923669938007L183.66666666666666,148.095663218555L183.66666666666666,148.0998346005025L186.08333333333334,148.20130230033752L186.08333333333334,148.2584468403671L186.08333333333334,148.28284330320886L186.08333333333334,148.30628540784028L186.08333333333334,148.35320263267965L186.08333333333334,148.38330424530645L186.08333333333334,148.40955550738346L186.08333333333334,148.43429507468903L186.08333333333334,148.45483297553682L186.08333333333334,148.47002954979413L188.5,148.44908851052017L188.5,148.4178001036888L188.5,148.40037757487232L188.5,148.398937628563L188.5,148.3952685878684L188.5,148.4008764589041L188.5,148.41728844900913L188.5,148.43732706956058L190.91666666666666,148.48857772414277L190.91666666666666,148.51202122555347L190.91666666666666,148.53743434848252L190.91666666666666,148.5546516488668L190.91666666666666,148.567246869469L190.91666666666666,148.5831726754716L190.91666666666666,148.60403256756666L190.91666666666666,148.6148224705008L190.91666666666666,148.62255063174865L190.91666666666666,148.63276858471596L190.91666666666666,148.64010821507003L193.33333333333331,148.67206001941705L193.33333333333331,148.69995845214655L193.33333333333331,148.72798855144106L193.33333333333331,148.7518514574707L193.33333333333331,148.76969801183378L193.33333333333331,148.78317864369396L193.33333333333331,148.7930204239934L195.75,148.7987416989184L195.75,148.79428692373116L195.75,148.77450112155927L195.75,148.77440017182886L195.75,148.77819828275142L195.75,148.7813418915285L195.75,148.78165111987718L195.75,148.78079440689564L195.75,148.78927312092637L195.75,148.7954472259365L195.75,148.7989895108241L198.16666666666666,148.83928134140902L198.16666666666666,148.79797488418873L198.16666666666666,148.805882194333L198.16666666666666,148.81768628359646L198.16666666666666,148.82480715543795L198.16666666666666,148.8506658093555L198.16666666666666,148.87215619912763L198.16666666666666,148.8901603343533L198.16666666666666,148.91007412933553L198.16666666666666,148.92684622819306L200.58333333333334,148.96899784584173L200.58333333333334,148.97322139248612L200.58333333333334,148.97980031843082L200.58333333333334,148.9890814513101L200.58333333333334,149.0030315089352L200.58333333333334,149.0267491581262L200.58333333333334,149.0491039482365L200.58333333333334,149.07042948715184L200.58333333333334,149.08095371620536L200.58333333333334,149.09214652381186L203,149.14123293918126L203,149.15381470549767L203,149.1982026352707L203,149.22373312428712L203,149.25677077352367L203,149.28866531511542L203,149.31569066651042L203,149.34789165339873L203,149.3848103623381L203,149.4298836336783L203,149.45396336902564L205.41666666666669,149.46020107333774L205.41666666666669,149.46210008086433L205.41666666666669,149.46832921291974L205.41666666666669,149.47331756329842L205.41666666666669,149.48226028434925L205.41666666666669,149.49164088432855L205.41666666666669,149.49484423296278L205.41666666666669,149.49894940576746L207.83333333333334,149.46581201663318L207.83333333333334,149.4651958504336L207.83333333333334,149.46323885779242L207.83333333333334,149.46104778471218L207.83333333333334,149.4732590396354L207.83333333333334,149.4756114505422L207.83333333333334,149.47605418777044L207.83333333333334,149.482382141151L210.25,149.59324403675203L210.25,149.64856034833406L210.25,149.70588987248448L210.25,149.75690134881376L210.25,149.80857038117963L210.25,149.85887290697934L210.25,149.9067709498461L210.25,149.93950790442162L210.25,149.94923524894588L210.25,149.9587196680045L210.25,149.96657925432217L212.66666666666666,150.00825114305843L212.66666666666666,149.96787976466842L212.66666666666666,149.97702922106848L212.66666666666666,150.00138574562484L212.66666666666666,150.02485637402447L212.66666666666666,150.04750742424645L212.66666666666666,150.06752148880224L212.66666666666666,150.08478697521466L212.66666666666666,150.1052158670011L212.66666666666666,150.12194624608395L212.66666666666666,150.13832685785846L215.08333333333334,150.2079619180708L215.08333333333334,150.28316437487516L215.08333333333334,150.32670704345384L215.08333333333334,150.35599227576907L215.08333333333334,150.3653609940209L215.08333333333334,150.37198247158113L215.08333333333334,150.38086145506705L215.08333333333334,150.38982755111738L215.08333333333334,150.39566814237565L215.08333333333334,150.40205754083436L217.5,150.42892485986096L217.5,150.44743529010262L217.5,150.4694672969085L217.5,150.49493328976106L217.5,150.51857289806105L217.5,150.5397915577227L217.5,150.5621839109627L219.91666666666666,150.60812602702669L219.91666666666666,150.64570873082377L219.91666666666666,150.68366908103886L219.91666666666666,150.721877551994L219.91666666666666,150.75485682619137L219.91666666666666,150.7741289888908L222.33333333333334,150.79686248648517L222.33333333333334,150.84217734144065L222.33333333333334,150.8646502179964L222.33333333333334,150.8900482854655L222.33333333333334,150.90023776032925L222.33333333333334,150.91148865974426L222.33333333333334,150.92870391725157L222.33333333333334,150.93804475717468L222.33333333333334,150.9375817855208L222.33333333333334,150.94030578220966L222.33333333333334,150.94256178086826L222.33333333333334,150.94176231467264L224.75,151.01200196505945L224.75,151.07695960296482L224.75,151.13435505930215L224.75,151.17423388335553L224.75,151.18729456414553L224.75,151.19642774777896L224.75,151.20324575395804L224.75,151.20385968503206L224.75,151.20344726121434L224.75,151.20276783860928L224.75,151.20524202867693L227.16666666666666,151.2724409896148L227.16666666666666,151.31158846697332L227.16666666666666,151.3424951091614L227.16666666666666,151.35424487168055L227.16666666666666,151.3662921610548L227.16666666666666,151.37579007937714L227.16666666666666,151.38045449201755L229.58333333333331,151.25160461701222L229.58333333333331,151.246614630127L229.58333333333331,151.27897777914887L229.58333333333331,151.30737750080118L229.58333333333331,151.34340638597354L229.58333333333331,151.35287595809072L229.58333333333331,151.35877456510605L229.58333333333331,151.36278518842968L229.58333333333331,151.37013534051127L232,151.4188013861562L232,151.4098101705795L232,151.41166727696472L232,151.419692966162L232,151.42950768736787L232,151.43431824117303L232,151.43669781894414L232,151.43836102282387L232,151.43991891146317L232,151.44414243892413L234.41666666666666,151.447933503298L234.41666666666666,151.44153451660537L234.41666666666666,151.447093340529L234.41666666666666,151.450803324962L234.41666666666666,151.473399480795L234.41666666666666,151.49170200907625L234.41666666666666,151.50931069765753L234.41666666666666,151.5236051935807L234.41666666666666,151.5405037379178L234.41666666666666,151.55452186014423L234.41666666666666,151.56865762610096L234.41666666666666,151.58129007708945L236.83333333333334,151.63608074026624L236.83333333333334,151.69864114294901L236.83333333333334,151.7545999307129L236.83333333333334,151.7920963699876L236.83333333333334,151.81968651920516L236.83333333333334,151.8447025028314L236.83333333333334,151.86497193744518L236.83333333333334,151.884604008617L236.83333333333334,151.9032986544479L236.83333333333334,151.91824870146945L236.83333333333334,151.92838025635237L236.83333333333334,151.93557147526212L236.83333333333334,151.93330980540605L239.25,151.9204085046175L239.25,151.90686899055208L239.25,151.91467117615252L239.25,151.90352035666825L239.25,151.89454215467032L239.25,151.88793784618431L239.25,151.88075658309512L239.25,151.87364676318217L241.66666666666669,151.9000799026148L241.66666666666669,151.94202856101134L241.66666666666669,151.97249870681426L241.66666666666669,151.9834356663076L241.66666666666669,152.00077296739573L241.66666666666669,152.00983161726066L244.08333333333334,152.02385793600027L244.08333333333334,152.0429133151955L244.08333333333334,152.06413556697342L244.08333333333334,152.07947336792205L244.08333333333334,152.08718557756436L244.08333333333334,152.09382629341113L246.5,152.1442964429549L246.5,152.18620293360422L246.5,152.21260647222795L246.5,152.2216712078266L246.5,152.22842432024797L246.5,152.22676413073722L246.5,152.22540823741608L246.5,152.2210004972186L246.5,152.2309952750234L246.5,152.23661832394265L246.5,152.24023450054688L248.91666666666666,152.25176766967834L248.91666666666666,152.28810159919917L248.91666666666666,152.3419339446261L248.91666666666666,152.37101602714586L248.91666666666666,152.37244803685212L248.91666666666666,152.37177281930397L248.91666666666666,152.37254743935299L248.91666666666666,152.3728407549714L248.91666666666666,152.3688492833537L251.33333333333334,152.37165075351936L251.33333333333334,152.37851580649252L251.33333333333334,152.38368799523664L251.33333333333334,152.39539394253836L251.33333333333334,152.40662523583202L251.33333333333334,152.4158125544771L251.33333333333334,152.43106741025304L251.33333333333334,152.43743969871144L253.75,152.4928984669831L253.75,152.5495889533646L253.75,152.59612148569354L253.75,152.6343315500817L253.75,152.6660290597241L253.75,152.69611967071327L253.75,152.72567912256926L253.75,152.75409253190358L253.75,152.77836389256396L256.1666666666667,152.8253610041463L256.1666666666667,152.85974216549468L256.1666666666667,152.89587799543568L256.1666666666667,152.93047249881138L256.1666666666667,152.96311599030417L256.1666666666667,152.98554275421904L256.1666666666667,153.00777750501211L256.1666666666667,153.0306925713988L256.1666666666667,153.05250619455904L256.1666666666667,153.0730300048937L258.58333333333337,153.03938333888374L258.58333333333337,152.9936129834706L258.58333333333337,152.94749838780677L258.58333333333337,152.90961902998637L258.58333333333337,152.88224021623148L258.58333333333337,152.86235898289215L258.58333333333337,152.84305139283813L258.58333333333337,152.83395746355706L258.58333333333337,152.82711028387328L258.58333333333337,152.82268526816043L261,152.8170875815599L261,152.82013304557864L261,152.83145583594978L261,152.83710166045907L261,152.84195628705064L261,152.84289545586026L261,152.84383197632235L263.4166666666667,152.9029767829325L263.4166666666667,152.9165294679243L263.4166666666667,152.9312630369392L263.4166666666667,152.9400383259277L263.4166666666667,152.9529769019931L263.4166666666667,152.96524639420878L263.4166666666667,152.97814151191224L263.4166666666667,152.99273701177376L263.4166666666667,153.00722228669147L263.4166666666667,153.01996548447875L263.4166666666667,153.02992551600113L265.8333333333333,153.09191228172597L265.8333333333333,153.14683923085875L265.8333333333333,153.1922274645401L265.8333333333333,153.22866456189962L265.8333333333333,153.2536112366145L265.8333333333333,153.26870386954388L265.8333333333333,153.2814046392682L265.8333333333333,153.2945103389373L265.8333333333333,153.30532339018913L265.8333333333333,153.30977692417517L265.8333333333333,153.3117731549005L265.8333333333333,153.3133599309402L265.8333333333333,153.3167700646682" style="fill: none;" fill="none"></path></g></g></g></g><g opacity="0.2"><g><g><g><path stroke="rgb(0, 119, 187)" stroke-width="2px" d="M26.583333333333332,27.25844031572342L26.583333333333332,30.057255685329437L26.583333333333332,33.941520631313324L26.583333333333332,48.31613677740097L26.583333333333332,50.57465386390686L26.583333333333332,52.804411590099335L26.583333333333332,54.10182166099548L29,107.74742344021797L29,110.40596044063568L29,111.59938421845436L29,114.14685586094856L29,115.31417360901833L29,115.82835531234741L29,115.78897735476494L29,116.78637117147446L29,117.41693016886711L31.416666666666668,122.49683439731598L31.416666666666668,121.70431673526764L31.416666666666668,121.67289876937866L31.416666666666668,121.39235258102417L31.416666666666668,121.50209391117096L31.416666666666668,121.77644196152687L31.416666666666668,122.10256424546242L31.416666666666668,122.05831745266914L33.833333333333336,126.62580183148384L33.833333333333336,123.74114093184471L33.833333333333336,123.72653970122337L33.833333333333336,124.05000865459442L33.833333333333336,124.30577284097672L33.833333333333336,124.37568783760071L33.833333333333336,124.20178654789925L33.833333333333336,124.274797976017L36.25,126.30056047439575L36.25,125.98240345716476L36.25,125.77443087100983L36.25,126.0191333591938L36.25,125.50627568364143L36.25,125.40981155633926L36.25,125.56203255057335L36.25,125.4770679473877L36.25,125.41379418969154L38.666666666666664,128.25419774651527L38.666666666666664,128.05109399557114L38.666666666666664,127.57673335075378L38.666666666666664,127.71479094028473L38.666666666666664,127.70417234301567L38.666666666666664,127.70151901245117L38.666666666666664,127.43734645843506L38.666666666666664,127.3643350303173L38.666666666666664,127.45991295576096L41.083333333333336,126.75943368673325L41.083333333333336,127.24220269918442L41.083333333333336,127.33203086256981L41.083333333333336,127.54708251357079L41.083333333333336,127.43734645843506L41.083333333333336,127.51389741897583L41.083333333333336,127.53912252187729L41.083333333333336,127.55062732100487L43.5,128.12366232275963L43.5,127.3643350303173L43.5,127.60815131664276L43.5,127.49221712350845L43.5,127.89975920319557L43.5,128.2957964837551L43.5,128.48208877444267L45.916666666666664,128.24667558073997L45.916666666666664,128.72325173020363L45.916666666666664,129.14052620530128L45.916666666666664,129.1989364027977L45.916666666666664,129.22238910198212L45.916666666666664,129.64497551321983L48.33333333333333,130.39368948340416L48.33333333333333,130.76715499162674L48.33333333333333,130.57334053516388L48.33333333333333,130.4631613790989L48.33333333333333,130.93619272112846L48.33333333333333,130.99238741397858L48.33333333333333,131.00168198347092L48.33333333333333,131.18266761302948L48.33333333333333,131.31143063306808L50.75,135.48509323596954L50.75,133.7531462162733L50.75,132.79778896272182L50.75,132.6327365040779L50.75,132.59069994091988L50.75,132.62123170495033L50.75,132.71459940075874L53.166666666666664,130.38218468427658L53.166666666666664,131.03132754564285L53.166666666666664,131.49374029040337L53.166666666666664,131.7835810482502L53.166666666666664,132.0318230688572L53.166666666666664,131.5180791914463L53.166666666666664,131.54108878970146L53.166666666666664,131.5229480266571L53.166666666666664,131.57427915930748L53.166666666666664,131.68711692094803L55.583333333333336,131.6703001856804L55.583333333333336,131.14859104156494L55.583333333333336,131.03487235307693L55.583333333333336,130.97513285279274L55.583333333333336,130.8583124577999L55.583333333333336,130.8870770931244L55.583333333333336,130.876010119915L55.583333333333336,130.8680501282215L55.583333333333336,130.84017169475555L55.583333333333336,130.910967618227L55.583333333333336,130.93973225355148L55.583333333333336,131.02026584744453L55.583333333333336,131.15478917956352L58,133.16373758018017L58,132.30218848586082L58,132.42033818364143L58,132.64866703748703L58,132.680085003376L58,132.72610419988632L58,132.58804661035538L58,132.5791951417923L58,132.6044149696827L60.41666666666667,130.5131632089615L60.41666666666667,131.8835847079754L60.41666666666667,131.7114505469799L60.41666666666667,131.94996017217636L60.41666666666667,133.15267588198185L60.41666666666667,133.31949810683727L60.41666666666667,133.1955986469984L60.41666666666667,133.23453877866268L60.41666666666667,133.39604906737804L60.41666666666667,133.64340752363205L60.41666666666667,133.61907126009464L60.41666666666667,133.5429607629776L60.41666666666667,133.5880937576294L60.41666666666667,133.5796880275011L62.833333333333336,134.36247065663338L62.833333333333336,134.03280620276928L62.833333333333336,133.67305572330952L62.833333333333336,133.90846627950668L62.833333333333336,133.82925671339035L62.833333333333336,133.8797016441822L62.833333333333336,133.8212914466858L62.833333333333336,133.85138274729252L62.833333333333336,133.92395371198654L65.25,132.1176685988903L65.25,133.53322573006153L65.25,133.9053672105074L65.25,133.41773200035095L65.25,133.09337948262691L65.25,133.15886874496937L65.25,133.25533550977707L65.25,133.2739193737507L65.25,133.09116661548615L65.25,133.53897812962532L65.25,133.61774195730686L65.25,133.6230512559414L65.25,133.64827372133732L65.25,133.75093598663807L65.25,133.74031475186348L65.25,133.98988607525826L67.66666666666667,134.23458856344223L67.66666666666667,133.80403424799442L67.66666666666667,133.91156271100044L67.66666666666667,134.22308376431465L67.66666666666667,133.8173088133335L67.66666666666667,133.59384879469872L67.66666666666667,133.6203979253769L67.66666666666667,133.8628875464201L67.66666666666667,134.01245257258415L67.66666666666667,134.05891487002373L67.66666666666667,134.25051645934582L67.66666666666667,134.31379549205303L67.66666666666667,134.28237752616405L67.66666666666667,134.35981468856335L67.66666666666667,134.5735423117876L70.08333333333333,130.87379989027977L70.08333333333333,133.32126787304878L70.08333333333333,133.91067650914192L70.08333333333333,134.08767686784267L70.08333333333333,134.16909666359425L70.08333333333333,134.6509794741869L70.08333333333333,134.6943453401327L70.08333333333333,134.70142440497875L72.5,134.5735423117876L72.5,134.34565392136574L72.5,134.6425737440586L72.5,134.84966276586056L72.5,134.68107077479362L72.5,134.47220934927464L72.5,134.75098577141762L72.5,134.9408175945282L72.5,134.93639186024666L72.5,134.98108439147472L72.5,134.9332954287529L72.5,135.00144065916538L72.5,135.06471705436707L74.91666666666667,136.28159353137016L74.91666666666667,136.8068395704031L74.91666666666667,136.25858129560947L74.91666666666667,135.9329021126032L74.91666666666667,135.81608171761036L74.91666666666667,135.85059875249863L74.91666666666667,136.2904423624277L74.91666666666667,136.28778639435768L74.91666666666667,136.24751959741116L74.91666666666667,136.34663969278336L74.91666666666667,136.33070915937424L74.91666666666667,136.26920253038406L74.91666666666667,136.1961911022663L77.33333333333333,136.39841128885746L77.33333333333333,136.0129952430725L77.33333333333333,135.66607622802258L77.33333333333333,135.7961711883545L77.33333333333333,135.8753781169653L77.33333333333333,135.95414194464684L77.33333333333333,135.9470628798008L77.33333333333333,135.79926761984825L77.33333333333333,135.82935628294945L77.33333333333333,135.89086554944515L77.33333333333333,136.00901260972023L77.33333333333333,136.0019335448742L77.33333333333333,136.11831083893776L77.33333333333333,136.24353696405888L77.33333333333333,136.259467497468L79.75,136.04706653952599L79.75,137.2493391484022L79.75,137.49537093937397L79.75,137.20022352039814L79.75,136.98959232866764L79.75,137.04977229237556L79.75,137.19048848748207L79.75,136.9926887601614L79.75,136.93959049880505L79.75,136.93959049880505L82.16666666666667,135.05763798952103L82.16666666666667,135.95148861408234L82.16666666666667,136.27097229659557L82.16666666666667,136.20592613518238L82.16666666666667,136.02848267555237L82.16666666666667,136.31743459403515L82.16666666666667,136.40814632177353L82.16666666666667,136.44399002194405L82.16666666666667,136.39664152264595L82.16666666666667,136.44885621964931L82.16666666666667,136.66877934336662L82.16666666666667,136.67630150914192L84.58333333333334,137.110838457942L84.58333333333334,137.31438794732094L84.58333333333334,137.73874412477016L84.58333333333334,138.01840411126614L84.58333333333334,137.5139548033476L84.58333333333334,137.57015213370323L87,139.20607548952103L87,138.86888886988163L87,138.48391592502594L87,138.55073185265064L87,138.12814544141293L87,137.17367175221443L87,137.00109712779522L87,136.7736518383026L87,136.78471617400646L89.41666666666667,136.03334887325764L89.41666666666667,136.401953458786L89.41666666666667,136.88206386566162L89.41666666666667,137.4382874071598L89.41666666666667,137.4949278384447L89.41666666666667,137.88255675137043L89.41666666666667,138.22593623399734L89.41666666666667,138.141420006752L89.41666666666667,138.20690926909447L91.83333333333333,139.27864381670952L91.83333333333333,138.5936546176672L91.83333333333333,138.89322777092457L91.83333333333333,138.9352643340826L91.83333333333333,138.69366091489792L91.83333333333333,138.62639924883842L91.83333333333333,138.60383275151253L91.83333333333333,138.70649237930775L91.83333333333333,138.75295467674732L91.83333333333333,138.80826844274998L91.83333333333333,138.54763542115688L94.25,138.51533125340939L94.25,138.07681430876255L94.25,138.10159631073475L94.25,138.19097873568535L94.25,138.87641367316246L94.25,138.82065680623055L94.25,138.78215977549553L94.25,138.71224477887154L94.25,138.77463760972023L94.25,138.75561064481735L94.25,138.85163167119026L94.25,138.92110620439053L94.25,138.88260653614998L94.25,139.0082783997059L96.66666666666666,137.92503641545773L96.66666666666666,137.57325120270252L96.66666666666666,139.02730536460876L96.66666666666666,139.05562426149845L96.66666666666666,139.05385449528694L99.08333333333333,138.5936546176672L99.08333333333333,138.78392954170704L99.08333333333333,138.30647246539593L99.08333333333333,138.20159997045994L99.08333333333333,138.1285885423422L99.08333333333333,139.00871886312962L99.08333333333333,139.00473622977734L99.08333333333333,139.0467754304409L99.08333333333333,139.02110986411572L99.08333333333333,138.94234603643417L101.5,136.55417181551456L101.5,137.0825169235468L101.5,138.01442147791386L101.5,138.6069291830063L101.5,138.50294288992882L101.5,139.1808530241251L101.5,139.41183784604073L101.5,139.45697347819805L103.91666666666667,140.07027791440487L103.91666666666667,140.04859498143196L103.91666666666667,140.05080784857273L103.91666666666667,139.92956171929836L103.91666666666667,139.98841501772404L103.91666666666667,140.08355247974396L103.91666666666667,140.23842680454254L103.91666666666667,140.23975610733032L103.91666666666667,140.28179267048836L103.91666666666667,140.3596729338169L106.33333333333333,140.33533403277397L106.33333333333333,140.0406297147274L106.33333333333333,140.39816996455193L106.33333333333333,140.13134144246578L106.33333333333333,140.07514411211014L106.33333333333333,140.05434738099575L106.33333333333333,140.13267074525356L106.33333333333333,140.11275757849216L106.33333333333333,140.02691204845905L108.75,140.37825679779053L108.75,140.24329563975334L108.75,140.6654389500618L108.75,140.42737506330013L108.75,140.52074275910854L108.75,140.51145082712173L108.75,140.63004098832607L108.75,140.70437908172607L108.75,140.64375865459442L111.16666666666667,142.21419011056423L111.16666666666667,140.86058270931244L111.16666666666667,140.59994968771935L111.16666666666667,140.55216072499752L111.16666666666667,140.59994968771935L111.16666666666667,140.75482401251793L111.16666666666667,140.82208567857742L111.16666666666667,140.93890607357025L111.16666666666667,140.9645690023899L111.16666666666667,140.89377044141293L111.16666666666667,140.98625193536282L111.16666666666667,140.81102134287357L113.58333333333333,141.39069758355618L113.58333333333333,140.84376861155033L113.58333333333333,140.78491531312466L113.58333333333333,141.03094446659088L113.58333333333333,140.62738502025604L113.58333333333333,140.78978151082993L113.58333333333333,140.85483030974865L113.58333333333333,140.8592560440302L113.58333333333333,141.07917653024197L113.58333333333333,141.00306867063046L113.58333333333333,141.0402363985777L113.58333333333333,141.0959932655096L113.58333333333333,141.13227742910385L113.58333333333333,141.14378222823143L116,140.48003286123276L116,140.85704317688942L116,140.92076267302036L116,141.23891969025135L116,141.4327341467142L116,141.36193558573723L116,141.41724671423435L116,141.48804791271687L116,141.56371530890465L116,141.55707670748234L116,141.61460334062576L116,141.68274857103825L116,141.72611179947853L116,141.7973560988903L116,141.7774429321289L116,141.88319899141788L118.41666666666667,142.33455003798008L118.41666666666667,141.9615223556757L118.41666666666667,141.6792064011097L118.41666666666667,141.79160369932652L118.41666666666667,141.83364026248455L118.41666666666667,141.86284536123276L120.83333333333334,141.2101576924324L120.83333333333334,142.3721635043621L120.83333333333334,142.42260843515396L120.83333333333334,142.07701608538628L120.83333333333334,142.03586308658123L120.83333333333334,141.9323172569275L120.83333333333334,142.06462508440018L123.25,142.95404997467995L123.25,141.51636680960655L123.25,142.14604488015175L123.25,141.68141926825047L123.25,142.08453825116158L123.25,141.9964798539877L123.25,141.82965762913227L123.25,141.8615186959505L123.25,141.70974080264568L123.25,141.67964950203896L123.25,141.69027073681355L123.25,141.62079620361328L123.25,141.64203867316246L125.66666666666667,141.99028435349464L125.66666666666667,141.32874785363674L125.66666666666667,141.4508775472641L125.66666666666667,141.62522193789482L125.66666666666667,141.9190426915884L128.08333333333334,143.46646454930305L128.08333333333334,143.55717627704144L128.08333333333334,143.23724949359894L128.08333333333334,143.22972732782364L128.08333333333334,143.20981416106224L128.08333333333334,143.29388992488384L128.08333333333334,143.38238878548145L128.08333333333334,143.31468665599823L128.08333333333334,143.29212015867233L128.08333333333334,143.09387996792793L128.08333333333334,142.97971554100513L130.5,143.20848749578L130.5,143.25848932564259L130.5,142.85891251266003L130.5,142.3438419699669L130.5,142.56243842840195L130.5,142.56287889182568L130.5,142.78767085075378L130.5,142.8469646126032L130.5,142.76731458306313L130.5,142.7589062154293L130.5,142.80359874665737L132.91666666666666,142.63633605837822L132.91666666666666,142.89077357947826L132.91666666666666,143.16512162983418L132.91666666666666,143.32575099170208L132.91666666666666,143.1261814981699L132.91666666666666,142.851833447814L132.91666666666666,142.61907622218132L132.91666666666666,142.29162727296352L132.91666666666666,142.24250900745392L132.91666666666666,142.48367196321487L135.33333333333334,144.26694747805595L135.33333333333334,143.98640128970146L135.33333333333334,143.06157843768597L135.33333333333334,143.73550593852997L135.33333333333334,143.72709757089615L135.33333333333334,143.99967849254608L135.33333333333334,143.92445155978203L135.33333333333334,143.9390554279089L135.33333333333334,144.02711118757725L135.33333333333334,143.6801921725273L135.33333333333334,143.6850610077381L135.33333333333334,143.80365116894245L135.33333333333334,143.73373617231846L135.33333333333334,143.565141543746L135.33333333333334,143.56381487846375L135.33333333333334,143.490803450346L137.75,142.7894406169653L137.75,143.12264196574688L137.75,143.24831119179726L137.75,143.85099703073502L137.75,143.81736619770527L137.75,143.65319994091988L137.75,143.84967036545277L137.75,143.72886733710766L137.75,143.70807060599327L137.75,143.7576293349266L137.75,143.7540898025036L137.75,143.77842870354652L137.75,143.83904913067818L137.75,143.8616182655096L140.16666666666666,144.88246478140354L140.16666666666666,144.67271979153156L140.16666666666666,143.8974593281746L140.16666666666666,144.39881220459938L140.16666666666666,144.4957194328308L140.16666666666666,144.61519579589367L140.16666666666666,144.33464960753918L140.16666666666666,144.25367291271687L140.16666666666666,144.2788953781128L140.16666666666666,144.17313668131828L140.16666666666666,144.23287618160248L140.16666666666666,144.25853911042213L140.16666666666666,144.1957058161497L142.58333333333331,143.94613449275494L142.58333333333331,144.12888725101948L142.58333333333331,143.90852366387844L142.58333333333331,144.1766762137413L142.58333333333331,144.12180818617344L142.58333333333331,144.23198997974396L142.58333333333331,144.25588577985764L142.58333333333331,144.12933035194874L142.58333333333331,144.22800734639168L142.58333333333331,144.2757963091135L142.58333333333331,144.21959897875786L142.58333333333331,144.21871541440487L142.58333333333331,144.26606127619743L142.58333333333331,144.22136874496937L145,143.4084974527359L145,144.41076010465622L145,144.20367108285427L145,144.0899471193552L145,144.25721244513988L145,144.35456277430058L145,144.5713868290186L145,144.61519579589367L145,144.6147526949644L147.41666666666666,145.33779846131802L147.41666666666666,145.43249282240868L147.41666666666666,145.17053313553333L147.41666666666666,145.19486939907074L147.41666666666666,145.1678771674633L147.41666666666666,145.19088676571846L147.41666666666666,145.29929879307747L147.41666666666666,145.29487569630146L147.41666666666666,145.3010711967945L147.41666666666666,145.08999690413475L147.41666666666666,145.12097176909447L147.41666666666666,145.16345143318176L147.41666666666666,145.21566876769066L147.41666666666666,144.68997699022293L149.83333333333334,144.84662371873856L149.83333333333334,144.78334468603134L149.83333333333334,144.83025008440018L149.83333333333334,144.87759858369827L149.83333333333334,144.89883841574192L149.83333333333334,144.87272974848747L152.25,143.11158026754856L152.25,145.55152608454227L152.25,145.50417758524418L152.25,145.32319459319115L152.25,145.17009003460407L152.25,145.15637236833572L152.25,145.16345143318176L152.25,145.12982323765755L154.66666666666666,144.6797988563776L154.66666666666666,145.15238973498344L154.66666666666666,145.0838014036417L154.66666666666666,145.09663550555706L154.66666666666666,145.17761220037937L154.66666666666666,145.32231102883816L154.66666666666666,145.46612365543842L154.66666666666666,145.4634676873684L157.08333333333331,145.6059536486864L157.08333333333331,145.9758822619915L157.08333333333331,145.80286453664303L157.08333333333331,145.97676846385002L157.08333333333331,146.10553412139416L157.08333333333331,146.0873933583498L157.08333333333331,146.18872368335724L157.08333333333331,146.31926174461842L157.08333333333331,146.30112098157406L157.08333333333331,146.28917308151722L157.08333333333331,146.294925481081L157.08333333333331,146.1984587162733L157.08333333333331,146.15686525404453L157.08333333333331,146.1723526865244L159.5,147.07018594443798L159.5,146.40378060936928L159.5,145.8935762643814L159.5,145.59533241391182L159.5,145.68206150829792L159.5,145.63648541271687L159.5,145.6325027793646L159.5,145.79357260465622L159.5,145.93030616641045L159.5,145.99535232782364L159.5,146.0033175945282L159.5,146.0157085955143L159.5,146.07013615965843L161.91666666666666,143.78196823596954L161.91666666666666,144.72847402095795L161.91666666666666,145.44311141967773L161.91666666666666,145.28248469531536L161.91666666666666,145.40240152180195L161.91666666666666,145.303724527359L161.91666666666666,145.41567872464657L161.91666666666666,145.49576921761036L161.91666666666666,145.61568868160248L161.91666666666666,145.6984351426363L161.91666666666666,145.69312584400177L161.91666666666666,145.72498427331448L161.91666666666666,145.63958184421062L164.33333333333334,145.66569051146507L164.33333333333334,144.29438281059265L164.33333333333334,144.65988832712173L164.33333333333334,145.0753956735134L164.33333333333334,145.28248469531536L164.33333333333334,145.55727848410606L164.33333333333334,145.78472377359867L164.33333333333334,145.84313133358955L164.33333333333334,146.01039665937424L164.33333333333334,146.0201316922903L164.33333333333334,146.13872185349464L166.75,146.85070592164993L166.75,146.7029106616974L166.75,146.61529536545277L166.75,146.11217272281647L166.75,146.20067158341408L166.75,146.34581351280212L166.75,146.4573219716549L166.75,146.5537887364626L169.16666666666669,146.92769998311996L169.16666666666669,146.87327241897583L169.16666666666669,147.03345867991447L169.16666666666669,147.31931152939796L169.16666666666669,147.45161935687065L169.16666666666669,147.3445339947939L169.16666666666669,147.34320732951164L169.16666666666669,147.28081449866295L169.16666666666669,147.2613444328308L169.16666666666669,147.2763887643814L169.16666666666669,147.26577016711235L171.58333333333334,146.96000151336193L171.58333333333334,147.13169257342815L171.58333333333334,147.09275244176388L171.58333333333334,147.11310870945454L171.58333333333334,147.05336920917034L174,148.37467508018017L174,147.77818474173546L174,147.26400040090084L174,147.1529324054718L174,147.1378880739212L174,147.0936386436224L174,147.13346233963966L174,147.0462901443243L174,146.90513348579407L176.41666666666666,146.47502227127552L176.41666666666666,146.79671882092953L176.41666666666666,147.10425724089146L176.41666666666666,147.0993910431862L176.41666666666666,147.09186623990536L176.41666666666666,147.19231563806534L176.41666666666666,147.26488396525383L176.41666666666666,147.29231929779053L176.41666666666666,147.40073132514954L176.41666666666666,147.48392352461815L176.41666666666666,147.52419032156467L176.41666666666666,147.55206875503063L178.83333333333334,147.5153388530016L178.83333333333334,148.20696665346622L178.83333333333334,148.0582878291607L178.83333333333334,147.8768617361784L178.83333333333334,147.9467767328024L178.83333333333334,147.8799608051777L178.83333333333334,147.86712670326233L178.83333333333334,147.81801107525826L178.83333333333334,147.84809973835945L178.83333333333334,148.06227046251297L178.83333333333334,148.2233402878046L181.25,148.55477187037468L181.25,148.61273896694183L181.25,148.29413884878159L181.25,148.34546998143196L181.25,148.31847774982452L181.25,148.46627300977707L181.25,148.23218911886215L183.66666666666666,148.67601799964905L183.66666666666666,148.83531805872917L183.66666666666666,148.63752096891403L183.66666666666666,148.75035873055458L183.66666666666666,148.69327519834042L183.66666666666666,148.55919760465622L183.66666666666666,148.63929073512554L183.66666666666666,148.50034430623055L183.66666666666666,148.46715657413006L183.66666666666666,148.48176044225693L183.66666666666666,148.2490058541298L183.66666666666666,148.25608491897583L183.66666666666666,148.15829148888588L183.66666666666666,148.1790908575058L186.08333333333334,150.1291885972023L186.08333333333334,149.34419310092926L186.08333333333334,148.7463760972023L186.08333333333334,148.75168539583683L186.08333333333334,149.2446299046278L186.08333333333334,148.95523488521576L186.08333333333334,148.90832948684692L186.08333333333334,148.90434685349464L186.08333333333334,148.84505309164524L186.08333333333334,148.75876446068287L188.5,148.05120876431465L188.5,147.82332037389278L188.5,148.069349527359L188.5,148.3715786486864L188.5,148.32555681467056L188.5,148.50742600858212L188.5,148.7291162610054L188.5,148.8180608600378L190.91666666666666,149.46234016120434L190.91666666666666,148.95744775235653L190.91666666666666,149.02028368413448L190.91666666666666,148.88178035616875L190.91666666666666,148.80655606091022L190.91666666666666,148.88576298952103L190.91666666666666,149.00037051737309L190.91666666666666,148.8198306262493L190.91666666666666,148.76938569545746L190.91666666666666,148.82690969109535L190.91666666666666,148.77956119179726L193.33333333333331,149.27914430201054L193.33333333333331,149.23002867400646L193.33333333333331,149.26056043803692L193.33333333333331,149.20524667203426L193.33333333333331,149.1087825447321L193.33333333333331,149.03931064903736L193.33333333333331,148.98001424968243L195.75,148.90744592249393L195.75,148.70964619517326L195.75,148.39857088029385L195.75,148.77248212695122L195.75,148.85036239027977L195.75,148.84107045829296L195.75,148.78752645850182L195.75,148.76451686024666L195.75,148.9503686875105L195.75,148.91275522112846L195.75,148.8662929236889L198.16666666666666,149.60482612252235L198.16666666666666,148.01315219700336L198.16666666666666,148.95612108707428L198.16666666666666,149.04196397960186L198.16666666666666,148.96010372042656L198.16666666666666,149.3419802337885L198.16666666666666,149.28047360479832L198.16666666666666,149.2322389036417L198.16666666666666,149.28843623399734L198.16666666666666,149.24551610648632L200.58333333333334,149.76987858116627L200.58333333333334,149.05346877872944L200.58333333333334,149.1047999113798L200.58333333333334,149.165422976017L200.58333333333334,149.26808260381222L200.58333333333334,149.47738449275494L200.58333333333334,149.47384496033192L200.58333333333334,149.47561472654343L200.58333333333334,149.28091406822205L200.58333333333334,149.30480986833572L203,150.07387483119965L203,149.3928682655096L203,150.04157330095768L203,149.70881241559982L203,149.88448610901833L203,149.89466160535812L203,149.82917234301567L203,149.95971040427685L203,150.08626583218575L203,150.28627578914165L203,149.91147834062576L205.41666666666669,149.5787174552679L205.41666666666669,149.49818122386932L205.41666666666669,149.58668272197247L205.41666666666669,149.56809622049332L205.41666666666669,149.65217198431492L205.41666666666669,149.66987228393555L205.41666666666669,149.55570785701275L205.41666666666669,149.5769476890564L207.83333333333334,148.83620162308216L207.83333333333334,149.45348869264126L207.83333333333334,149.4260559976101L207.83333333333334,149.41941739618778L207.83333333333334,149.7052728831768L207.83333333333334,149.5203072577715L207.83333333333334,149.4844661951065L207.83333333333334,149.60261325538158L210.25,151.6996200531721L210.25,150.69957026839256L210.25,150.79515083134174L210.25,150.72611939907074L210.25,150.79028199613094L210.25,150.81462089717388L210.25,150.81683376431465L210.25,150.5615100413561L210.25,150.13405479490757L210.25,150.13892363011837L210.25,150.11591139435768L212.66666666666666,150.800017029047L212.66666666666666,149.20082357525826L212.66666666666666,150.15086889266968L212.66666666666666,150.4641597121954L212.66666666666666,150.4707983136177L212.66666666666666,150.47787737846375L212.66666666666666,150.44778871536255L212.66666666666666,150.41283121705055L212.66666666666666,150.4933648109436L212.66666666666666,150.439823448658L212.66666666666666,150.44955848157406L215.08333333333334,151.53102806210518L215.08333333333334,151.7120110541582L215.08333333333334,151.15401774644852L215.08333333333334,150.9124116897583L215.08333333333334,150.5433666408062L215.08333333333334,150.49779054522514L215.08333333333334,150.54956214129925L215.08333333333334,150.56018337607384L215.08333333333334,150.5066393762827L215.08333333333334,150.52345611155033L217.5,150.93940392136574L217.5,150.79913346469402L217.5,150.8880754262209L217.5,150.97878715395927L217.5,150.96772545576096L217.5,150.9429460912943L217.5,150.98763862252235L219.91666666666666,151.48102623224258L219.91666666666666,151.35978010296822L219.91666666666666,151.40491573512554L219.91666666666666,151.4478385001421L219.91666666666666,151.38146303594112L219.91666666666666,151.14030008018017L222.33333333333334,151.22879894077778L222.33333333333334,151.70315958559513L222.33333333333334,151.29163487255573L222.33333333333334,151.37261156737804L222.33333333333334,151.0938377827406L222.33333333333334,151.12525574862957L222.33333333333334,151.25579380989075L222.33333333333334,151.1155207157135L222.33333333333334,150.92878532409668L222.33333333333334,150.99206171929836L222.33333333333334,150.98542575538158L222.33333333333334,150.9265724569559L224.75,152.34655532240868L224.75,152.31115472316742L224.75,152.22486872971058L224.75,151.93193154037L224.75,151.435447499156L224.75,151.36995823681355L224.75,151.33278787136078L224.75,151.2155243754387L224.75,151.1956112086773L224.75,151.1898588091135L224.75,151.2522516399622L227.16666666666666,152.54922124743462L227.16666666666666,152.05539053678513L227.16666666666666,151.92972131073475L227.16666666666666,151.57749035954475L227.16666666666666,151.59519065916538L227.16666666666666,151.5562505275011L227.16666666666666,151.46907833218575L229.58333333333331,148.80345699191093L229.58333333333331,151.15180487930775L229.58333333333331,151.89387761056423L229.58333333333331,151.8469722121954L229.58333333333331,152.02795520424843L229.58333333333331,151.5327978283167L229.58333333333331,151.47084809839725L229.58333333333331,151.43898703157902L229.58333333333331,151.50978823006153L232,152.34345625340939L232,151.2389770746231L232,151.44695229828358L232,151.57218106091022L232,151.61598739027977L232,151.52571876347065L232,151.48190979659557L232,151.46996189653873L232,151.46951879560947L232,151.52438946068287L234.41666666666666,151.51996372640133L234.41666666666666,151.31995376944542L234.41666666666666,151.5527109950781L234.41666666666666,151.5212930291891L234.41666666666666,151.90272644162178L234.41666666666666,151.8394500464201L234.41666666666666,151.84387578070164L234.41666666666666,151.7952006161213L234.41666666666666,151.86157608032227L234.41666666666666,151.82086618244648L234.41666666666666,151.83723717927933L234.41666666666666,151.8213066458702L236.83333333333334,152.67710334062576L236.83333333333334,152.88728879392147L236.83333333333334,152.81781689822674L236.83333333333334,152.50452871620655L236.83333333333334,152.34389935433865L236.83333333333334,152.3200061917305L236.83333333333334,152.2500911951065L236.83333333333334,152.2576133608818L236.83333333333334,152.2584969252348L236.83333333333334,152.20229959487915L236.83333333333334,152.12087979912758L236.83333333333334,152.07220463454723L236.83333333333334,151.8903380781412L239.25,151.6752837896347L239.25,151.64961822330952L239.25,152.06291270256042L239.25,151.69165478646755L239.25,151.72395631670952L239.25,151.76245598495007L239.25,151.74431258440018L239.25,151.7385601848364L241.66666666666669,152.40230955183506L241.66666666666669,152.7390530705452L241.66666666666669,152.55143147706985L241.66666666666669,152.19123789668083L241.66666666666669,152.3301816880703L241.66666666666669,152.18194596469402L244.08333333333334,152.29035799205303L244.08333333333334,152.4049655199051L244.08333333333334,152.46735835075378L244.08333333333334,152.37089158594608L244.08333333333334,152.23371756076813L244.08333333333334,152.21999989449978L246.5,153.1032292842865L246.5,152.9824262559414L246.5,152.71427370607853L246.5,152.39390118420124L246.5,152.356733456254L246.5,152.1952205300331L246.5,152.19964626431465L246.5,152.13725343346596L246.5,152.4208960533142L246.5,152.34345625340939L246.5,152.30894185602665L248.91666666666666,152.4708978831768L248.91666666666666,152.97844626009464L248.91666666666666,153.3647485077381L248.91666666666666,152.92357559502125L248.91666666666666,152.39965622127056L248.91666666666666,152.35894368588924L248.91666666666666,152.38726522028446L248.91666666666666,152.37841375172138L248.91666666666666,152.29301132261753L251.33333333333334,152.4248786866665L251.33333333333334,152.50895181298256L251.33333333333334,152.48195958137512L251.33333333333334,152.61780694127083L251.33333333333334,152.6200198084116L251.33333333333334,152.59037160873413L251.33333333333334,152.7209096699953L251.33333333333334,152.55851317942142L253.75,153.54661506414413L253.75,153.62670819461346L253.75,153.48023959994316L253.75,153.36032277345657L253.75,153.2682817429304L253.75,153.26784127950668L253.75,153.2873087078333L253.75,153.2939473092556L253.75,153.23951974511147L256.1666666666667,153.71830612421036L256.1666666666667,153.5129842311144L256.1666666666667,153.58245876431465L256.1666666666667,153.58776806294918L256.1666666666667,153.58334232866764L256.1666666666667,153.41165126860142L256.1666666666667,153.43023777008057L256.1666666666667,153.46607883274555L256.1666666666667,153.46696503460407L256.1666666666667,153.4629824012518L258.58333333333337,152.4000966846943L258.58333333333337,152.12397623062134L258.58333333333337,152.07132107019424L258.58333333333337,152.18991123139858L258.58333333333337,152.36204275488853L258.58333333333337,152.48461554944515L258.58333333333337,152.47620718181133L258.58333333333337,152.66117280721664L258.58333333333337,152.69701386988163L258.58333333333337,152.73860996961594L261,152.71073153614998L261,152.87799686193466L261,153.0465888530016L261,152.94437232613564L261,152.9341941922903L261,152.8607396632433L261,152.86162586510181L263.4166666666667,154.02672810852528L263.4166666666667,153.174030482769L263.4166666666667,153.21120084822178L263.4166666666667,153.10676881670952L263.4166666666667,153.19880984723568L263.4166666666667,153.19836674630642L263.4166666666667,153.22314874827862L263.4166666666667,153.27005150914192L263.4166666666667,153.28244251012802L263.4166666666667,153.26208624243736L263.4166666666667,153.21916611492634L265.8333333333333,154.26966083049774L265.8333333333333,154.1904512643814L265.8333333333333,154.0546039044857L265.8333333333333,153.92096941173077L265.8333333333333,153.72759805619717L265.8333333333333,153.55546389520168L265.8333333333333,153.52271926403046L265.8333333333333,153.54351863265038L265.8333333333333,153.51077136397362L265.8333333333333,153.39439406991005L265.8333333333333,153.34970153868198L265.8333333333333,153.34350867569447L265.8333333333333,153.38156260550022" style="fill: none;" fill="none"></path></g></g></g></g></g></g><g transform="translate(40, 177)" clip-path="url(#clip_1)"><clipPath id="clip_1"><rect width="290" height="23"></rect></clipPath><g><g><line x1="0" y1="0" x2="0" y2="5" style="visibility: inherit;" fill="rgb(0, 0, 0)" stroke="rgb(204, 204, 204)" stroke-width="1px"></line><line x1="24.166666666666664" y1="0" x2="24.166666666666664" y2="5" style="visibility: inherit;" fill="rgb(0, 0, 0)" stroke="rgb(204, 204, 204)" stroke-width="1px"></line><line x1="48.33333333333333" y1="0" x2="48.33333333333333" y2="5" style="visibility: inherit;" fill="rgb(0, 0, 0)" stroke="rgb(204, 204, 204)" stroke-width="1px"></line><line x1="72.5" y1="0" x2="72.5" y2="5" style="visibility: inherit;" fill="rgb(0, 0, 0)" stroke="rgb(204, 204, 204)" stroke-width="1px"></line><line x1="96.66666666666666" y1="0" x2="96.66666666666666" y2="5" style="visibility: inherit;" fill="rgb(0, 0, 0)" stroke="rgb(204, 204, 204)" stroke-width="1px"></line><line x1="120.83333333333334" y1="0" x2="120.83333333333334" y2="5" style="visibility: inherit;" fill="rgb(0, 0, 0)" stroke="rgb(204, 204, 204)" stroke-width="1px"></line><line x1="145" y1="0" x2="145" y2="5" style="visibility: inherit;" fill="rgb(0, 0, 0)" stroke="rgb(204, 204, 204)" stroke-width="1px"></line><line x1="169.16666666666669" y1="0" x2="169.16666666666669" y2="5" style="visibility: inherit;" fill="rgb(0, 0, 0)" stroke="rgb(204, 204, 204)" stroke-width="1px"></line><line x1="193.33333333333331" y1="0" x2="193.33333333333331" y2="5" style="visibility: inherit;" fill="rgb(0, 0, 0)" stroke="rgb(204, 204, 204)" stroke-width="1px"></line><line x1="217.5" y1="0" x2="217.5" y2="5" style="visibility: inherit;" fill="rgb(0, 0, 0)" stroke="rgb(204, 204, 204)" stroke-width="1px"></line><line x1="241.66666666666669" y1="0" x2="241.66666666666669" y2="5" style="visibility: inherit;" fill="rgb(0, 0, 0)" stroke="rgb(204, 204, 204)" stroke-width="1px"></line><line x1="265.8333333333333" y1="0" x2="265.8333333333333" y2="5" style="visibility: inherit;" fill="rgb(0, 0, 0)" stroke="rgb(204, 204, 204)" stroke-width="1px"></line><line x1="290" y1="0" x2="290" y2="5" style="visibility: inherit;" fill="rgb(0, 0, 0)" stroke="rgb(204, 204, 204)" stroke-width="1px"></line></g><g transform="translate(0, 8)"><text x="0" y="0" dx="0em" dy="0.95em" style="text-anchor: middle; visibility: hidden; font-family: Roboto, sans-serif; font-size: 12px; font-weight: 200;" fill="rgb(33, 33, 33)" stroke="none" stroke-width="1px">-10</text><text x="24.166666666666664" y="0" dx="0em" dy="0.95em" style="text-anchor: middle; visibility: inherit; font-family: Roboto, sans-serif; font-size: 12px; font-weight: 200;" fill="rgb(33, 33, 33)" stroke="none" stroke-width="1px">0</text><text x="48.33333333333333" y="0" dx="0em" dy="0.95em" style="text-anchor: middle; visibility: inherit; font-family: Roboto, sans-serif; font-size: 12px; font-weight: 200;" fill="rgb(33, 33, 33)" stroke="none" stroke-width="1px">10</text><text x="72.5" y="0" dx="0em" dy="0.95em" style="text-anchor: middle; visibility: inherit; font-family: Roboto, sans-serif; font-size: 12px; font-weight: 200;" fill="rgb(33, 33, 33)" stroke="none" stroke-width="1px">20</text><text x="96.66666666666666" y="0" dx="0em" dy="0.95em" style="text-anchor: middle; visibility: inherit; font-family: Roboto, sans-serif; font-size: 12px; font-weight: 200;" fill="rgb(33, 33, 33)" stroke="none" stroke-width="1px">30</text><text x="120.83333333333334" y="0" dx="0em" dy="0.95em" style="text-anchor: middle; visibility: inherit; font-family: Roboto, sans-serif; font-size: 12px; font-weight: 200;" fill="rgb(33, 33, 33)" stroke="none" stroke-width="1px">40</text><text x="145" y="0" dx="0em" dy="0.95em" style="text-anchor: middle; visibility: inherit; font-family: Roboto, sans-serif; font-size: 12px; font-weight: 200;" fill="rgb(33, 33, 33)" stroke="none" stroke-width="1px">50</text><text x="169.16666666666669" y="0" dx="0em" dy="0.95em" style="text-anchor: middle; visibility: inherit; font-family: Roboto, sans-serif; font-size: 12px; font-weight: 200;" fill="rgb(33, 33, 33)" stroke="none" stroke-width="1px">60</text><text x="193.33333333333331" y="0" dx="0em" dy="0.95em" style="text-anchor: middle; visibility: inherit; font-family: Roboto, sans-serif; font-size: 12px; font-weight: 200;" fill="rgb(33, 33, 33)" stroke="none" stroke-width="1px">70</text><text x="217.5" y="0" dx="0em" dy="0.95em" style="text-anchor: middle; visibility: inherit; font-family: Roboto, sans-serif; font-size: 12px; font-weight: 200;" fill="rgb(33, 33, 33)" stroke="none" stroke-width="1px">80</text><text x="241.66666666666669" y="0" dx="0em" dy="0.95em" style="text-anchor: middle; visibility: inherit; font-family: Roboto, sans-serif; font-size: 12px; font-weight: 200;" fill="rgb(33, 33, 33)" stroke="none" stroke-width="1px">90</text><text x="265.8333333333333" y="0" dx="0em" dy="0.95em" style="text-anchor: middle; visibility: inherit; font-family: Roboto, sans-serif; font-size: 12px; font-weight: 200;" fill="rgb(33, 33, 33)" stroke="none" stroke-width="1px">100</text><text x="290" y="0" dx="0em" dy="0.95em" style="text-anchor: middle; visibility: hidden; font-family: Roboto, sans-serif; font-size: 12px; font-weight: 200;" fill="rgb(33, 33, 33)" stroke="none" stroke-width="1px">110</text></g><line x1="0" y1="0" x2="290" y2="0" fill="rgb(0, 0, 0)" stroke="rgb(204, 204, 204)" stroke-width="1px"></line></g></g></g></g></svg>