<svg viewBox="0 0 330 200" xmlns="http://www.w3.org/2000/svg"><g><g><g><g><g><line x1="40" y1="177" x2="35" y2="177" style="visibility: inherit;" fill="rgb(0, 0, 0)" stroke="rgb(204, 204, 204)" stroke-width="1px"></line><line x1="40" y1="159.3" x2="35" y2="159.3" style="visibility: inherit;" fill="rgb(0, 0, 0)" stroke="rgb(204, 204, 204)" stroke-width="1px"></line><line x1="40" y1="141.6" x2="35" y2="141.6" style="visibility: inherit;" fill="rgb(0, 0, 0)" stroke="rgb(204, 204, 204)" stroke-width="1px"></line><line x1="40" y1="123.89999999999999" x2="35" y2="123.89999999999999" style="visibility: inherit;" fill="rgb(0, 0, 0)" stroke="rgb(204, 204, 204)" stroke-width="1px"></line><line x1="40" y1="106.19999999999997" x2="35" y2="106.19999999999997" style="visibility: inherit;" fill="rgb(0, 0, 0)" stroke="rgb(204, 204, 204)" stroke-width="1px"></line><line x1="40" y1="88.49999999999999" x2="35" y2="88.49999999999999" style="visibility: inherit;" fill="rgb(0, 0, 0)" stroke="rgb(204, 204, 204)" stroke-width="1px"></line><line x1="40" y1="70.79999999999998" x2="35" y2="70.79999999999998" style="visibility: inherit;" fill="rgb(0, 0, 0)" stroke="rgb(204, 204, 204)" stroke-width="1px"></line><line x1="40" y1="53.099999999999966" x2="35" y2="53.099999999999966" style="visibility: inherit;" fill="rgb(0, 0, 0)" stroke="rgb(204, 204, 204)" stroke-width="1px"></line><line x1="40" y1="35.39999999999999" x2="35" y2="35.39999999999999" style="visibility: inherit;" fill="rgb(0, 0, 0)" stroke="rgb(204, 204, 204)" stroke-width="1px"></line><line x1="40" y1="17.699999999999978" x2="35" y2="17.699999999999978" style="visibility: inherit;" fill="rgb(0, 0, 0)" stroke="rgb(204, 204, 204)" stroke-width="1px"></line><line x1="40" y1="0" x2="35" y2="0" style="visibility: inherit;" fill="rgb(0, 0, 0)" stroke="rgb(204, 204, 204)" stroke-width="1px"></line></g><g transform="translate(30, 0)"><text x="0" y="177" dx="0em" dy="0.3em" style="text-anchor: end; visibility: hidden; font-family: Roboto, sans-serif; font-size: 12px; font-weight: 200;" fill="rgb(33, 33, 33)" stroke="none" stroke-width="1px">0.8</text><text x="0" y="159.3" dx="0em" dy="0.3em" style="text-anchor: end; visibility: inherit; font-family: Roboto, sans-serif; font-size: 12px; font-weight: 200;" fill="rgb(33, 33, 33)" stroke="none" stroke-width="1px">1</text><text x="0" y="141.6" dx="0em" dy="0.3em" style="text-anchor: end; visibility: hidden; font-family: Roboto, sans-serif; font-size: 12px; font-weight: 200;" fill="rgb(33, 33, 33)" stroke="none" stroke-width="1px">1.2</text><text x="0" y="123.89999999999999" dx="0em" dy="0.3em" style="text-anchor: end; visibility: inherit; font-family: Roboto, sans-serif; font-size: 12px; font-weight: 200;" fill="rgb(33, 33, 33)" stroke="none" stroke-width="1px">1.4</text><text x="0" y="106.19999999999997" dx="0em" dy="0.3em" style="text-anchor: end; visibility: hidden; font-family: Roboto, sans-serif; font-size: 12px; font-weight: 200;" fill="rgb(33, 33, 33)" stroke="none" stroke-width="1px">1.6</text><text x="0" y="88.49999999999999" dx="0em" dy="0.3em" style="text-anchor: end; visibility: inherit; font-family: Roboto, sans-serif; font-size: 12px; font-weight: 200;" fill="rgb(33, 33, 33)" stroke="none" stroke-width="1px">1.8</text><text x="0" y="70.79999999999998" dx="0em" dy="0.3em" style="text-anchor: end; visibility: hidden; font-family: Roboto, sans-serif; font-size: 12px; font-weight: 200;" fill="rgb(33, 33, 33)" stroke="none" stroke-width="1px">2</text><text x="0" y="53.099999999999966" dx="0em" dy="0.3em" style="text-anchor: end; visibility: inherit; font-family: Roboto, sans-serif; font-size: 12px; font-weight: 200;" fill="rgb(33, 33, 33)" stroke="none" stroke-width="1px">2.2</text><text x="0" y="35.39999999999999" dx="0em" dy="0.3em" style="text-anchor: end; visibility: hidden; font-family: Roboto, sans-serif; font-size: 12px; font-weight: 200;" fill="rgb(33, 33, 33)" stroke="none" stroke-width="1px">2.4</text><text x="0" y="17.699999999999978" dx="0em" dy="0.3em" style="text-anchor: end; visibility: inherit; font-family: Roboto, sans-serif; font-size: 12px; font-weight: 200;" fill="rgb(33, 33, 33)" stroke="none" stroke-width="1px">2.6</text><text x="0" y="0" dx="0em" dy="0.3em" style="text-anchor: end; visibility: hidden; font-family: Roboto, sans-serif; font-size: 12px; font-weight: 200;" fill="rgb(33, 33, 33)" stroke="none" stroke-width="1px">2.8</text></g><line x1="40" y1="0" x2="40" y2="177" fill="rgb(0, 0, 0)" stroke="rgb(204, 204, 204)" stroke-width="1px"></line></g></g><g transform="translate(40, 0)" clip-path="url(#clip_0)"><clipPath id="clip_0"><rect width="290" height="177"></rect></clipPath><g><g><g><line x1="0" y1="0" x2="0" y2="177" fill="rgb(0, 0, 0)" stroke="rgb(66, 66, 66)" stroke-width="1px" opacity="0.25"></line><line x1="24.166666666666664" y1="0" x2="24.166666666666664" y2="177" fill="rgb(0, 0, 0)" stroke="rgb(66, 66, 66)" stroke-width="1px" opacity="0.25"></line><line x1="48.33333333333333" y1="0" x2="48.33333333333333" y2="177" fill="rgb(0, 0, 0)" stroke="rgb(66, 66, 66)" stroke-width="1px" opacity="0.25"></line><line x1="72.5" y1="0" x2="72.5" y2="177" fill="rgb(0, 0, 0)" stroke="rgb(66, 66, 66)" stroke-width="1px" opacity="0.25"></line><line x1="96.66666666666666" y1="0" x2="96.66666666666666" y2="177" fill="rgb(0, 0, 0)" stroke="rgb(66, 66, 66)" stroke-width="1px" opacity="0.25"></line><line x1="120.83333333333334" y1="0" x2="120.83333333333334" y2="177" fill="rgb(0, 0, 0)" stroke="rgb(66, 66, 66)" stroke-width="1px" opacity="0.25"></line><line x1="145" y1="0" x2="145" y2="177" fill="rgb(0, 0, 0)" stroke="rgb(66, 66, 66)" stroke-width="1px" opacity="0.25"></line><line x1="169.16666666666669" y1="0" x2="169.16666666666669" y2="177" fill="rgb(0, 0, 0)" stroke="rgb(66, 66, 66)" stroke-width="1px" opacity="0.25"></line><line x1="193.33333333333331" y1="0" x2="193.33333333333331" y2="177" fill="rgb(0, 0, 0)" stroke="rgb(66, 66, 66)" stroke-width="1px" opacity="0.25"></line><line x1="217.5" y1="0" x2="217.5" y2="177" fill="rgb(0, 0, 0)" stroke="rgb(66, 66, 66)" stroke-width="1px" opacity="0.25"></line><line x1="241.66666666666669" y1="0" x2="241.66666666666669" y2="177" fill="rgb(0, 0, 0)" stroke="rgb(66, 66, 66)" stroke-width="1px" opacity="0.25"></line><line x1="265.8333333333333" y1="0" x2="265.8333333333333" y2="177" fill="rgb(0, 0, 0)" stroke="rgb(66, 66, 66)" stroke-width="1px" opacity="0.25"></line><line x1="290" y1="0" x2="290" y2="177" fill="rgb(0, 0, 0)" stroke="rgb(66, 66, 66)" stroke-width="1px" opacity="0.25"></line></g><g><line x1="0" y1="177" x2="290" y2="177" fill="rgb(0, 0, 0)" stroke="rgb(66, 66, 66)" stroke-width="1px" opacity="0.25"></line><line x1="0" y1="159.3" x2="290" y2="159.3" fill="rgb(0, 0, 0)" stroke="rgb(66, 66, 66)" stroke-width="1px" opacity="0.25"></line><line x1="0" y1="141.6" x2="290" y2="141.6" fill="rgb(0, 0, 0)" stroke="rgb(66, 66, 66)" stroke-width="1px" opacity="0.25"></line><line x1="0" y1="123.89999999999999" x2="290" y2="123.89999999999999" fill="rgb(0, 0, 0)" stroke="rgb(66, 66, 66)" stroke-width="1px" opacity="0.25"></line><line x1="0" y1="106.19999999999997" x2="290" y2="106.19999999999997" fill="rgb(0, 0, 0)" stroke="rgb(66, 66, 66)" stroke-width="1px" opacity="0.25"></line><line x1="0" y1="88.49999999999999" x2="290" y2="88.49999999999999" fill="rgb(0, 0, 0)" stroke="rgb(66, 66, 66)" stroke-width="1px" opacity="0.25"></line><line x1="0" y1="70.79999999999998" x2="290" y2="70.79999999999998" fill="rgb(0, 0, 0)" stroke="rgb(66, 66, 66)" stroke-width="1px" opacity="0.25"></line><line x1="0" y1="53.099999999999966" x2="290" y2="53.099999999999966" fill="rgb(0, 0, 0)" stroke="rgb(66, 66, 66)" stroke-width="1px" opacity="0.25"></line><line x1="0" y1="35.39999999999999" x2="290" y2="35.39999999999999" fill="rgb(0, 0, 0)" stroke="rgb(66, 66, 66)" stroke-width="1px" opacity="0.25"></line><line x1="0" y1="17.699999999999978" x2="290" y2="17.699999999999978" fill="rgb(0, 0, 0)" stroke="rgb(66, 66, 66)" stroke-width="1px" opacity="0.25"></line><line x1="0" y1="0" x2="290" y2="0" fill="rgb(0, 0, 0)" stroke="rgb(66, 66, 66)" stroke-width="1px" opacity="0.25"></line></g></g></g><g><g><line x1="0" y1="247.8" x2="290" y2="247.8" fill="rgb(0, 0, 0)" stroke="rgb(153, 153, 153)" stroke-width="1.5px"></line></g></g><g><g><line x1="24.166666666666664" y1="0" x2="24.166666666666664" y2="177" fill="rgb(0, 0, 0)" stroke="rgb(153, 153, 153)" stroke-width="1.5px"></line></g></g><g><g><g><g><g><path stroke="rgb(0, 119, 187)" stroke-width="2px" d="M26.583333333333332,8.41723387241362L26.583333333333332,20.707392877798657L26.583333333333332,30.69596690857857L26.583333333333332,42.92686091329474L26.583333333333332,50.735304448339924L26.583333333333332,56.35031689209775L26.583333333333332,60.546492939036284L29,69.83480814681948L29,77.13770610795045L29,83.04586776129696L29,87.97995497888813L29,92.22161906511292L29,95.8482854898227L29,98.95512238095928L29,101.71151350294703L29,104.15251170428748L31.416666666666668,106.75296829268696L31.416666666666668,108.94519949876361L31.416666666666668,110.83993942076813L31.416666666666668,112.52644723371355L31.416666666666668,114.07923229969344L31.416666666666668,115.49248423710233L31.416666666666668,116.76093607564582L31.416666666666668,117.89940238655653L33.833333333333336,119.49132244351858L33.833333333333336,120.47822082304721L33.833333333333336,121.41600842036573L33.833333333333336,122.30241950964769L33.833333333333336,123.12275874535969L33.833333333333336,123.88019758617915L33.833333333333336,124.60486628092501L33.833333333333336,125.27477433830174L36.25,125.9999110565476L36.25,126.78853142043036L36.25,127.45384028974813L36.25,128.0337922145883L36.25,128.56134273192234L36.25,129.04552845841212L36.25,129.51267294084928L36.25,129.9525892161044L36.25,130.33681147204854L38.666666666666664,130.80306722639546L38.666666666666664,131.24824018930696L38.666666666666664,131.61302902878367L38.666666666666664,131.94822155014234L38.666666666666664,132.2695648854649L38.666666666666664,132.57805504030938L38.666666666666664,132.85181897755598L38.666666666666664,133.10980360812042L38.666666666666664,133.35800286510116L41.083333333333336,133.59560252869375L41.083333333333336,133.83728731132143L41.083333333333336,134.0673153116321L41.083333333333336,134.30040875363812L41.083333333333336,134.50932263735135L41.083333333333336,134.7141038974577L41.083333333333336,134.9161506198454L41.083333333333336,135.10940427294344L43.5,135.2611045429905L43.5,135.4086428609632L43.5,135.5643538397775L43.5,135.69528799138902L43.5,135.8291659259433L43.5,135.9645959520391L43.5,136.10113768148022L45.916666666666664,136.25779609065518L45.916666666666664,136.41897994581268L45.916666666666664,136.60476748657837L45.916666666666664,136.77208182504202L45.916666666666664,136.93013379034394L45.916666666666664,137.06071611718426L48.33333333333333,137.25072715090187L48.33333333333333,137.43126340512532L48.33333333333333,137.61013324030787L48.33333333333333,137.75103802483343L48.33333333333333,137.90781326159356L48.33333333333333,138.05711087808038L48.33333333333333,138.19338405464745L48.33333333333333,138.32255103679213L48.33333333333333,138.45327070668552L50.75,138.4627392349088L50.75,138.60234577966332L50.75,138.69930659831562L50.75,138.80429118251874L50.75,138.8917401502993L50.75,138.97578128043537L50.75,139.0594143363941L53.166666666666664,139.04087948660964L53.166666666666664,139.11357185194748L53.166666666666664,139.17683421278304L53.166666666666664,139.23423652555928L53.166666666666664,139.30568224056876L53.166666666666664,139.3573820674951L53.166666666666664,139.41287724152357L53.166666666666664,139.4657323486595L53.166666666666664,139.51193782108473L53.166666666666664,139.56627098119586L55.583333333333336,139.56172772903156L55.583333333333336,139.55759238470247L55.583333333333336,139.56176818948276L55.583333333333336,139.5635073960814L55.583333333333336,139.5517682592788L55.583333333333336,139.55494325379786L55.583333333333336,139.5564907212603L55.583333333333336,139.55920435727168L55.583333333333336,139.55702607719982L55.583333333333336,139.56051145076424L55.583333333333336,139.5651541009677L55.583333333333336,139.57746898164748L55.583333333333336,139.59578031348417L58,139.77229723103227L58,139.85629579210854L58,139.95910397157087L58,140.06841261720027L58,140.17111576199713L58,140.26923268970125L58,140.36073346317656L58,140.46067695969347L58,140.55976950201278L60.41666666666667,140.58346684980293L60.41666666666667,140.6840564270225L60.41666666666667,140.72971983950853L60.41666666666667,140.78062794510504L60.41666666666667,140.84476164251646L60.41666666666667,140.9055008239056L60.41666666666667,140.96000221990857L60.41666666666667,141.00534419524573L60.41666666666667,141.0509829498578L60.41666666666667,141.10722704194978L60.41666666666667,141.1623353979309L60.41666666666667,141.2047577738341L60.41666666666667,141.24633838754534L60.41666666666667,141.28074096231728L62.833333333333336,141.28387442709493L62.833333333333336,141.29300814692849L62.833333333333336,141.28547329452385L62.833333333333336,141.3041811043803L62.833333333333336,141.3111015534842L62.833333333333336,141.32945497732933L62.833333333333336,141.35043205116892L62.833333333333336,141.37066858115745L62.833333333333336,141.39263727597105L65.25,141.21965324208094L65.25,141.15747737432878L65.25,141.11249396794412L65.25,141.0599331648978L65.25,141.03036930368415L65.25,141.0230491249182L65.25,141.02189480622204L65.25,141.0236755042301L65.25,141.0422781798965L65.25,141.0663685714048L65.25,141.09894798659178L65.25,141.12347881237L65.25,141.15023486587873L65.25,141.17715713395305L65.25,141.20538816727088L65.25,141.24052850797312L67.66666666666667,141.24930055084175L67.66666666666667,141.25174681039047L67.66666666666667,141.25685925780837L67.66666666666667,141.2628223958476L67.66666666666667,141.29553062727913L67.66666666666667,141.3438194147069L67.66666666666667,141.38044261489358L67.66666666666667,141.42975100493956L67.66666666666667,141.48057587586754L67.66666666666667,141.51288187965758L67.66666666666667,141.54374875644177L67.66666666666667,141.58838499236168L67.66666666666667,141.6244598204819L67.66666666666667,141.6615186157263L67.66666666666667,141.69734331161135L70.08333333333333,141.61157592436774L70.08333333333333,141.69888857981843L70.08333333333333,141.80852031864512L70.08333333333333,141.9097042928308L70.08333333333333,142.011758225518L70.08333333333333,142.04843359567664L70.08333333333333,142.09110793158797L70.08333333333333,142.1327101022021L72.5,142.07509443676656L72.5,142.07713764432074L72.5,142.0675286457046L72.5,142.08605861978143L72.5,142.12423967317008L72.5,142.1512620978286L72.5,142.18976657323742L72.5,142.24639238626628L72.5,142.30363821020003L72.5,142.3659865983596L72.5,142.425305853867L72.5,142.48081796202746L72.5,142.53886479996456L74.91666666666667,142.620515574964L74.91666666666667,142.6626818552981L74.91666666666667,142.69756253716412L74.91666666666667,142.72804402970402L74.91666666666667,142.74531886162998L74.91666666666667,142.76996077808667L74.91666666666667,142.81155777577766L74.91666666666667,142.85010099067634L74.91666666666667,142.8886639910421L74.91666666666667,142.9310512921923L74.91666666666667,142.96556655469806L74.91666666666667,142.9838419233806L74.91666666666667,143.0004950263875L77.33333333333333,143.0425565872578L77.33333333333333,143.083222896839L77.33333333333333,143.07844577124862L77.33333333333333,143.06350867507385L77.33333333333333,143.05237169697992L77.33333333333333,143.0491814843298L77.33333333333333,143.05610701398362L77.33333333333333,143.06458898300164L77.33333333333333,143.07769141104336L77.33333333333333,143.09283796069596L77.33333333333333,143.0778892512115L77.33333333333333,143.06187336968682L77.33333333333333,143.0494461812724L77.33333333333333,143.04556141867425L77.33333333333333,143.04806594197578L79.75,143.14040624421574L79.75,143.19910127886587L79.75,143.27145526685533L79.75,143.31974799264052L79.75,143.35018278073787L79.75,143.38099851574276L79.75,143.4159372631834L79.75,143.44342091385644L79.75,143.46528236506364L79.75,143.47932451619795L82.16666666666667,143.532799731045L82.16666666666667,143.57678632296364L82.16666666666667,143.606626116895L82.16666666666667,143.64444365642518L82.16666666666667,143.68917592081831L82.16666666666667,143.7356985126219L82.16666666666667,143.76232749955176L82.16666666666667,143.7855007682998L82.16666666666667,143.80393150557964L82.16666666666667,143.8186085333516L82.16666666666667,143.83715364134187L82.16666666666667,143.8618959430307L84.58333333333334,143.93053638276555L84.58333333333334,144.00039102231548L84.58333333333334,143.99413845911977L84.58333333333334,143.9988625202352L84.58333333333334,143.96941033188182L84.58333333333334,143.94377603734276L87,144.04257155057283L87,144.13138275810184L87,144.20128399537222L87,144.27437149870852L87,144.33645914298873L87,144.29751689290413L87,144.25879630348308L87,144.23289728295046L87,144.20758531027482L89.41666666666667,144.17508677655334L89.41666666666667,144.14638173500953L89.41666666666667,144.16260975445346L89.41666666666667,144.19435466246975L89.41666666666667,144.23526491749305L89.41666666666667,144.29174135596026L89.41666666666667,144.32070213702934L89.41666666666667,144.35237475410824L89.41666666666667,144.3860918933465L91.83333333333333,144.49449908000759L91.83333333333333,144.57801581192066L91.83333333333333,144.6076196293722L91.83333333333333,144.6450800310282L91.83333333333333,144.6761978888357L91.83333333333333,144.7032821765904L91.83333333333333,144.72126852584427L91.83333333333333,144.72994771021484L91.83333333333333,144.73275017467606L91.83333333333333,144.7502363613266L91.83333333333333,144.75618426868843L94.25,144.8259531044147L94.25,144.8764358825982L94.25,144.8903221499083L94.25,144.9193554967304L94.25,144.95742442924498L94.25,144.99301493692028L94.25,145.02567543725505L94.25,145.04944554806406L94.25,145.07782386427863L94.25,145.10597805406147L94.25,145.12374171390152L94.25,145.14482137535055L94.25,145.1677229899813L94.25,145.18974485631736L96.66666666666666,145.09136805483072L96.66666666666666,144.9649433781476L96.66666666666666,144.95183670775754L96.66666666666666,144.9622625722276L96.66666666666666,144.97203421291871L99.08333333333333,145.07716318829966L99.08333333333333,145.1773010457839L99.08333333333333,145.24897930455953L99.08333333333333,145.2772045804388L99.08333333333333,145.2771144482989L99.08333333333333,145.31101308728302L99.08333333333333,145.34905781444687L99.08333333333333,145.38922672121524L99.08333333333333,145.4292017861162L99.08333333333333,145.45589431948966L101.5,145.31119956196378L101.5,145.31011758711384L101.5,145.2856375365678L101.5,145.32530499284874L101.5,145.37582159666104L101.5,145.40465194513607L101.5,145.4324833493736L101.5,145.4629944370483L103.91666666666667,145.32679456681132L103.91666666666667,145.2960822213169L103.91666666666667,145.2878356838774L103.91666666666667,145.27663865357025L103.91666666666667,145.26896603128634L103.91666666666667,145.26778339338566L103.91666666666667,145.28480223409264L103.91666666666667,145.29734197982967L103.91666666666667,145.31881253130038L103.91666666666667,145.3478827287405L106.33333333333333,145.37952583230694L106.33333333333333,145.38839125753788L106.33333333333333,145.44637319772394L106.33333333333333,145.48791561413583L106.33333333333333,145.52229210615926L106.33333333333333,145.55114438030614L106.33333333333333,145.58510296711694L106.33333333333333,145.61665571795044L106.33333333333333,145.64278112792448L108.75,145.64237780109022L108.75,145.64270254710556L108.75,145.6277451733528L108.75,145.62141178756949L108.75,145.63344932443712L108.75,145.63183091422266L108.75,145.62423138166383L108.75,145.6300210583309L108.75,145.63268962515176L111.16666666666667,145.71407826812282L111.16666666666667,145.76821011219903L111.16666666666667,145.8183524812536L111.16666666666667,145.85474826549444L111.16666666666667,145.88786360987262L111.16666666666667,145.93582869685616L111.16666666666667,145.97816511259208L111.16666666666667,146.01718991745568L111.16666666666667,146.0510335927034L111.16666666666667,146.08915850674856L111.16666666666667,146.1373250752476L111.16666666666667,146.17542769161858L113.58333333333333,146.13843598032074L113.58333333333333,146.1518803995372L113.58333333333333,146.1642100243463L113.58333333333333,146.18083473075023L113.58333333333333,146.19919449472377L113.58333333333333,146.21907016060763L113.58333333333333,146.26445791898533L113.58333333333333,146.3128418054916L113.58333333333333,146.36712571764423L113.58333333333333,146.40971261774837L113.58333333333333,146.45583447973502L113.58333333333333,146.5040749278997L113.58333333333333,146.55012490409226L113.58333333333333,146.5918810647606L116,146.50512691905456L116,146.5439555555784L116,146.58022347395467L116,146.6272446553079L116,146.66837471763228L116,146.7038201241985L116,146.73585589698152L116,146.7681482675173L116,146.80081733619767L116,146.832206904676L116,146.8592391513643L116,146.87620282990167L116,146.89568114406933L116,146.91250386899156L116,146.92277736817712L116,146.9400598856961L118.41666666666667,146.89558987949547L118.41666666666667,146.91728494785738L118.41666666666667,146.91807124367912L118.41666666666667,146.91992439453168L118.41666666666667,146.92668507083724L118.41666666666667,146.93496609972706L120.83333333333334,146.94862978683778L120.83333333333334,146.9847976557574L120.83333333333334,146.99375742541713L120.83333333333334,146.99651680702007L120.83333333333334,146.99497887331358L120.83333333333334,146.9887386762634L120.83333333333334,146.99834223165942L123.25,147.05525562706723L123.25,147.04715207224115L123.25,147.0371970454222L123.25,147.009021920671L123.25,146.97367099914828L123.25,146.9644692523609L123.25,146.96568417630345L123.25,146.961970573836L123.25,146.9676470183029L123.25,146.97516336000146L123.25,146.98292369841482L123.25,146.99317195594034L123.25,147.0000318645556L125.66666666666667,147.05451550836455L125.66666666666667,147.0471125558703L125.66666666666667,147.04114213822987L125.66666666666667,147.04370031373608L125.66666666666667,147.06675112622236L128.08333333333334,146.98656474644397L128.08333333333334,146.93339781142524L128.08333333333334,146.89930611259618L128.08333333333334,146.9107263831001L128.08333333333334,146.9258236064888L128.08333333333334,146.9492811878271L128.08333333333334,146.97829205670598L128.08333333333334,147.0024009424005L128.08333333333334,147.01778169053065L128.08333333333334,147.04088986157493L128.08333333333334,147.0553642408807L130.5,147.1596061335218L130.5,147.20389872422012L130.5,147.25602136145034L130.5,147.2826163612419L130.5,147.28531405871004L130.5,147.30570957370685L130.5,147.32136854015795L130.5,147.3392091145039L130.5,147.34969735408265L130.5,147.36470567476232L130.5,147.38555681573604L132.91666666666666,147.51913209076736L132.91666666666666,147.64514345518865L132.91666666666666,147.73795011246048L132.91666666666666,147.8040357680574L132.91666666666666,147.86584390133245L132.91666666666666,147.91885301097028L132.91666666666666,147.97027405235372L132.91666666666666,148.01328302191715L132.91666666666666,148.0294054336234L132.91666666666666,148.0545010677541L135.33333333333334,148.12294583122448L135.33333333333334,148.18646392336552L135.33333333333334,148.22397322551242L135.33333333333334,148.27305886826358L135.33333333333334,148.31942489582028L135.33333333333334,148.37280939158035L135.33333333333334,148.37051291137342L135.33333333333334,148.35072010324203L135.33333333333334,148.35355503089758L135.33333333333334,148.36788594157736L135.33333333333334,148.38349162339932L135.33333333333334,148.3923873811943L135.33333333333334,148.40451134130257L135.33333333333334,148.40859503031447L135.33333333333334,148.41517375803662L135.33333333333334,148.41699834259197L137.75,148.40120916617101L137.75,148.43360120296188L137.75,148.45344381499092L137.75,148.51008342067018L137.75,148.5403502541953L137.75,148.56888272308052L137.75,148.59536875472153L137.75,148.61973395810995L137.75,148.64619993828956L137.75,148.66890872935573L137.75,148.68335765092723L137.75,148.69341166371822L137.75,148.7096005222899L137.75,148.72528958108228L140.16666666666666,148.80851613021952L140.16666666666666,148.87594362249314L140.16666666666666,148.92884889426747L140.16666666666666,148.98733897471305L140.16666666666666,149.02290381919087L140.16666666666666,149.03965424571663L140.16666666666666,149.034326791371L140.16666666666666,149.01665474079508L140.16666666666666,148.98088311043668L140.16666666666666,148.94915671132884L140.16666666666666,148.9208307084809L140.16666666666666,148.89334602956959L140.16666666666666,148.86674870108274L142.58333333333331,148.89307664972543L142.58333333333331,148.92215945447413L142.58333333333331,148.95164650538277L142.58333333333331,148.98169483051498L142.58333333333331,149.00860337595674L142.58333333333331,149.0362021208955L142.58333333333331,149.06206697534495L142.58333333333331,149.07712457711932L142.58333333333331,149.08974762527816L142.58333333333331,149.09408442497494L142.58333333333331,149.09608066523305L142.58333333333331,149.0923127865992L142.58333333333331,149.08948551847453L142.58333333333331,149.08343679420366L145,148.84927197711156L145,148.8241704447632L145,148.81001471185544L145,148.81072647778856L145,148.81250935274596L145,148.81238848014993L145,148.83501844388363L145,148.84930385930357L145,148.86314086451006L147.41666666666666,148.85004547692512L147.41666666666666,148.93442399426644L147.41666666666666,148.97918351400037L147.41666666666666,149.03033392084387L147.41666666666666,149.08436956375962L147.41666666666666,149.0945509532255L147.41666666666666,149.10378069978992L147.41666666666666,149.10617674566248L147.41666666666666,149.10314316310576L147.41666666666666,149.11212001204677L147.41666666666666,149.11555974286972L147.41666666666666,149.12090689651242L147.41666666666666,149.12691614942221L147.41666666666666,149.1114732003276L149.83333333333334,149.1932232708993L149.83333333333334,149.1843772390186L149.83333333333334,149.1839825580283L149.83333333333334,149.1896258712089L149.83333333333334,149.19109300556403L149.83333333333334,149.19080510967464L152.25,148.9238808543661L152.25,148.94642326589627L152.25,148.96266113349193L152.25,148.9600771649378L152.25,148.97886275435616L152.25,148.99560236698264L152.25,149.00500038283647L152.25,149.02976988361976L154.66666666666666,149.07847959216804L154.66666666666666,149.0983365598873L154.66666666666666,149.12998888853966L154.66666666666666,149.14563302800647L154.66666666666666,149.15027304406277L154.66666666666666,149.17454938848363L154.66666666666666,149.20340862534016L154.66666666666666,149.22746208080147L157.08333333333331,149.22646190097007L157.08333333333331,149.3208707426148L157.08333333333331,149.38454015011092L157.08333333333331,149.44228255397852L157.08333333333331,149.49722593033752L157.08333333333331,149.54229823543844L157.08333333333331,149.58569190149018L157.08333333333331,149.64151869736395L157.08333333333331,149.69490810668637L157.08333333333331,149.74124714885517L157.08333333333331,149.7871276253129L157.08333333333331,149.82279364883718L157.08333333333331,149.85685308405587L157.08333333333331,149.89677655088295L159.5,150.0502846117618L159.5,150.17700115700686L159.5,150.2595041305534L159.5,150.30956200353071L159.5,150.34450548641064L159.5,150.36526753906975L159.5,150.37503543321628L159.5,150.3910854093544L159.5,150.41164271282125L159.5,150.4321453906558L159.5,150.44923388208835L159.5,150.46281250838038L159.5,150.47487189409551L161.91666666666666,150.4863283105249L161.91666666666666,150.4226063696719L161.91666666666666,150.42092276928506L161.91666666666666,150.39131304017502L161.91666666666666,150.3581393044413L161.91666666666666,150.32065083296695L161.91666666666666,150.29131985074298L161.91666666666666,150.27642086732104L161.91666666666666,150.2620895926985L161.91666666666666,150.24865212217878L161.91666666666666,150.22734628227468L161.91666666666666,150.20679609121643L161.91666666666666,150.1819630560743L164.33333333333334,150.1370432204598L164.33333333333334,150.03503024968148L164.33333333333334,149.99789962781477L164.33333333333334,149.98014859629035L164.33333333333334,149.95288648703436L164.33333333333334,149.93884623561107L164.33333333333334,149.94515530296277L164.33333333333334,149.95468897687104L164.33333333333334,149.9763126259384L164.33333333333334,150.00185527553862L164.33333333333334,150.02722748997977L166.75,150.06602199950822L166.75,150.13088709230283L166.75,150.19171240378725L166.75,150.24338956939025L166.75,150.28195184462766L166.75,150.32088696592874L166.75,150.3695130605711L166.75,150.42230108680852L169.16666666666669,150.46138695853352L169.16666666666669,150.5197145861241L169.16666666666669,150.5800373951356L169.16666666666669,150.65022089320146L169.16666666666669,150.72689558233654L169.16666666666669,150.79323192087358L169.16666666666669,150.85753432517419L169.16666666666669,150.91977261667364L169.16666666666669,150.9764651034938L169.16666666666669,151.03196032940681L169.16666666666669,151.08131744697062L171.58333333333334,151.11497592590896L171.58333333333334,151.11712709585348L171.58333333333334,151.1120024947677L171.58333333333334,151.1136830499705L171.58333333333334,151.1170936537176L174,151.13099821714263L174,151.10885179074918L174,151.16772804827193L174,151.21162450017698L174,151.24987468974848L174,151.27320261005767L174,151.29974503103887L174,151.304428405412L174,151.31303695728934L176.41666666666666,151.3054623160365L176.41666666666666,151.3171609689715L176.41666666666666,151.37597608679798L176.41666666666666,151.39397270429686L176.41666666666666,151.407839074146L176.41666666666666,151.41335702944863L176.41666666666666,151.42882047592218L176.41666666666666,151.44081152691132L176.41666666666666,151.44268954289956L176.41666666666666,151.45929749417652L176.41666666666666,151.4772430774364L176.41666666666666,151.49159215837255L178.83333333333334,151.6613377376602L178.83333333333334,151.76896500050978L178.83333333333334,151.85054604437906L178.83333333333334,151.9176050966542L178.83333333333334,151.94909723125724L178.83333333333334,151.96941265649286L178.83333333333334,151.99216375020498L178.83333333333334,152.01090082569903L178.83333333333334,152.03091391455916L178.83333333333334,152.05474929159084L178.83333333333334,152.08376511313455L181.25,152.12102086642423L181.25,152.17057407174593L181.25,152.21220686038717L181.25,152.24941273967787L181.25,152.2840942011113L181.25,152.31801535651516L181.25,152.3253719419952L183.66666666666666,152.32576746187408L183.66666666666666,152.35118843078325L183.66666666666666,152.3799845809909L183.66666666666666,152.40574787034728L183.66666666666666,152.41907214935054L183.66666666666666,152.4282787746654L183.66666666666666,152.44366261513457L183.66666666666666,152.44938306742762L183.66666666666666,152.44813564059297L183.66666666666666,152.45075597808068L183.66666666666666,152.42616444690069L183.66666666666666,152.41222788204635L183.66666666666666,152.3997403620123L183.66666666666666,152.39013386771254L186.08333333333334,152.40061016673758L186.08333333333334,152.40149174178808L186.08333333333334,152.35670724990874L186.08333333333334,152.31336545595292L186.08333333333334,152.31560040023254L186.08333333333334,152.31582037330676L186.08333333333334,152.32718072111368L186.08333333333334,152.34553952739847L186.08333333333334,152.35559063037138L186.08333333333334,152.3558910288007L188.5,152.16656507966036L188.5,152.03502663931505L188.5,151.96033281140717L188.5,151.9358808099283L188.5,151.91203159472352L188.5,151.9026942432121L188.5,151.894443045575L188.5,151.8978881839838L190.91666666666666,151.85536236442428L190.91666666666666,151.83921206169762L190.91666666666666,151.82802862033014L190.91666666666666,151.81784692445922L190.91666666666666,151.80512113697878L190.91666666666666,151.80440403522226L190.91666666666666,151.80929794774568L190.91666666666666,151.8355857875229L190.91666666666666,151.86657696793148L190.91666666666666,151.89747871238177L190.91666666666666,151.92772051646588L193.33333333333331,152.01853289054398L193.33333333333331,152.0723253478034L193.33333333333331,152.13497729142037L193.33333333333331,152.1758674087877L193.33333333333331,152.20816409405245L193.33333333333331,152.26136918728912L193.33333333333331,152.29793102653917L195.75,152.39164994752892L195.75,152.48364747868644L195.75,152.53104314189486L195.75,152.57186536562708L195.75,152.61117767178666L195.75,152.65396711905268L195.75,152.69629876748218L195.75,152.73257551023084L195.75,152.76526812212947L195.75,152.79566250704147L195.75,152.8214396862119L198.16666666666666,152.7892437925471L198.16666666666666,152.77295033603968L198.16666666666666,152.75795843587878L198.16666666666666,152.73822906421856L198.16666666666666,152.71656538751594L198.16666666666666,152.7074016010913L198.16666666666666,152.68820875449433L198.16666666666666,152.6728520137596L198.16666666666666,152.66246676637746L198.16666666666666,152.6559192908239L200.58333333333334,152.7802367228081L200.58333333333334,152.80966112722155L200.58333333333334,152.82964957221088L200.58333333333334,152.85178039153965L200.58333333333334,152.86497233347617L200.58333333333334,152.8636102991769L200.58333333333334,152.85621001378655L200.58333333333334,152.85603831204932L200.58333333333334,152.8502108885199L200.58333333333334,152.84272835708487L203,152.8952687223155L203,152.9607581219503L203,153.0586827664929L203,153.13909968235984L203,153.2133720329796L203,153.2884440655336L203,153.3620634562854L203,153.42509899802303L203,153.47768161986204L203,153.53940577029425L203,153.56330723785635L205.41666666666669,153.54725074074778L205.41666666666669,153.5494315075577L205.41666666666669,153.5533173123316L205.41666666666669,153.5530705036074L205.41666666666669,153.56270399851425L205.41666666666669,153.57167857830407L205.41666666666669,153.57577974982507L205.41666666666669,153.59157892523285L207.83333333333334,153.5680905836341L207.83333333333334,153.50024329112384L207.83333333333334,153.45791386964015L207.83333333333334,153.45181758077928L207.83333333333334,153.477089591507L207.83333333333334,153.50180590818294L207.83333333333334,153.52395868874063L207.83333333333334,153.55712844319788L210.25,153.71174317060178L210.25,153.83194457317742L210.25,153.89489444816195L210.25,153.96164401896678L210.25,154.03288844765711L210.25,154.09924293462848L210.25,154.17905053992263L210.25,154.2378758993172L210.25,154.26057225864153L210.25,154.28487733325332L210.25,154.3100027809036L212.66666666666666,154.2040866389888L212.66666666666666,154.15346866153345L212.66666666666666,154.25162809965545L212.66666666666666,154.35625143472012L212.66666666666666,154.40475662631266L212.66666666666666,154.448048714979L212.66666666666666,154.48068026639456L212.66666666666666,154.5009271301882L212.66666666666666,154.5009131354246L212.66666666666666,154.49961643020768L212.66666666666666,154.50108378341235L215.08333333333334,154.52340795785105L215.08333333333334,154.57629922251323L215.08333333333334,154.63043993710878L215.08333333333334,154.67412989973457L215.08333333333334,154.6848815222329L215.08333333333334,154.69018347330478L215.08333333333334,154.69951260332473L215.08333333333334,154.71434922687212L215.08333333333334,154.71631940631468L215.08333333333334,154.71712921705821L217.5,154.84131164108345L217.5,154.8831749742915L217.5,154.9254676511293L217.5,154.95126443146518L217.5,154.96904520617832L217.5,154.99208760505482L217.5,155.0019862013388L219.91666666666666,155.09086265697698L219.91666666666666,155.16954289026944L219.91666666666666,155.23052766303712L219.91666666666666,155.29970266323755L219.91666666666666,155.3647990996281L219.91666666666666,155.39787818887905L222.33333333333334,155.51873269621655L222.33333333333334,155.53756617940383L222.33333333333334,155.5597502649334L222.33333333333334,155.6044102481486L222.33333333333334,155.57931181559042L222.33333333333334,155.55462746789675L222.33333333333334,155.54648805719705L222.33333333333334,155.5194627915719L222.33333333333334,155.50131095500328L222.33333333333334,155.49043892362675L222.33333333333334,155.48201319030935L222.33333333333334,155.46537988056156L224.75,155.5833904969289L224.75,155.752494439504L224.75,155.86291927712202L224.75,155.87277403102505L224.75,155.87346287404378L224.75,155.87721476140752L224.75,155.86577850544433L224.75,155.84840944613794L224.75,155.83562561259163L224.75,155.824321807486L224.75,155.81654774885283L227.16666666666666,155.8818652331219L227.16666666666666,155.93011108422445L227.16666666666666,155.98023691927352L227.16666666666666,156.0045366936645L227.16666666666666,156.0279311224853L227.16666666666666,156.0318362439457L227.16666666666666,156.02014729703902L229.58333333333331,155.8611151347475L229.58333333333331,155.89380488846908L229.58333333333331,155.95127688240507L229.58333333333331,156.0038401773763L229.58333333333331,156.03815494484036L229.58333333333331,156.04309761843095L229.58333333333331,156.04531548564594L229.58333333333331,156.04308587290558L229.58333333333331,156.03609996059365L232,156.22996018437428L232,156.16747790219873L232,156.1066596110698L232,156.08003433982876L232,156.04973962166238L232,156.00932190999796L232,155.97880173043552L232,155.9505597764287L232,155.92541159364896L232,155.90930884634108L234.41666666666666,155.78276652809896L234.41666666666666,155.73742219528626L234.41666666666666,155.72447963481167L234.41666666666666,155.71660940914123L234.41666666666666,155.74701043919057L234.41666666666666,155.76469626175924L234.41666666666666,155.75835473716444L234.41666666666666,155.746401176365L234.41666666666666,155.7367707497241L234.41666666666666,155.7227989018007L234.41666666666666,155.7116936758202L234.41666666666666,155.70362191133594L236.83333333333334,155.75254932876678L236.83333333333334,155.82031451746263L236.83333333333334,155.88035486012913L236.83333333333334,155.921109226512L236.83333333333334,155.9397365224448L236.83333333333334,155.95858293349374L236.83333333333334,155.99414301351794L236.83333333333334,156.0228362863688L236.83333333333334,156.04531573555437L236.83333333333334,156.06490144606917L236.83333333333334,156.07917128446365L236.83333333333334,156.084673744048L236.83333333333334,156.08521106831734L239.25,155.9377933361419L239.25,155.83513787899153L239.25,155.79053832568775L239.25,155.76250570261624L239.25,155.73662692727584L239.25,155.7289015535597L239.25,155.720721611766L239.25,155.71038384667892L241.66666666666669,155.80034666161006L241.66666666666669,155.9051489988491L241.66666666666669,155.9795325364221L241.66666666666669,156.05108204397277L241.66666666666669,156.1313116193521L241.66666666666669,156.1950511497927L244.08333333333334,156.180732834194L244.08333333333334,156.15655456469577L244.08333333333334,156.17836583258526L244.08333333333334,156.20152042718456L244.08333333333334,156.2085167430951L244.08333333333334,156.21449964681844L246.5,156.33417111940784L246.5,156.43706212572476L246.5,156.52233001555612L246.5,156.59970583078592L246.5,156.66011500278574L246.5,156.70613131983566L246.5,156.7558207710615L246.5,156.80218491296267L246.5,156.8535319905806L246.5,156.8939487117789L246.5,156.9309725665399L248.91666666666666,156.88892908912712L248.91666666666666,156.89850378692867L248.91666666666666,156.90343987611618L248.91666666666666,156.89883670135637L248.91666666666666,156.8467622877964L248.91666666666666,156.80848675089263L248.91666666666666,156.7688951015604L248.91666666666666,156.73106148423014L248.91666666666666,156.697907391113L251.33333333333334,156.7573004982629L251.33333333333334,156.7916875913412L251.33333333333334,156.82324915994573L251.33333333333334,156.85761301930648L251.33333333333334,156.88516988252707L251.33333333333334,156.9097120666539L251.33333333333334,156.93245163786744L251.33333333333334,156.9419739276858L253.75,156.970180525696L253.75,156.99954308668768L253.75,156.99960445125893L253.75,157.03068192265425L253.75,157.06498468050256L253.75,157.0900052970891L253.75,157.1176688960128L253.75,157.14412655536194L253.75,157.1750580414004L256.1666666666667,157.2186026653323L256.1666666666667,157.2375797461112L256.1666666666667,157.25574090312998L256.1666666666667,157.25954166908588L256.1666666666667,157.26412616378613L256.1666666666667,157.253790527942L256.1666666666667,157.2449449134311L256.1666666666667,157.2425598397671L256.1666666666667,157.2387009664454L256.1666666666667,157.23003485380355L258.58333333333337,157.2365372626961L258.58333333333337,157.22076628511462L258.58333333333337,157.21016475309975L258.58333333333337,157.1925262943163L258.58333333333337,157.1760799291225L258.58333333333337,157.1662082817522L258.58333333333337,157.15629902313637L258.58333333333337,157.14750504125124L258.58333333333337,157.13861956484632L258.58333333333337,157.14796675456702L261,157.1706528712559L261,157.21388708758212L261,157.2565969565259L261,157.2886310891121L261,157.31592171848007L261,157.3288380565959L261,157.32814365561623L263.4166666666667,157.4749247538947L263.4166666666667,157.51121975844183L263.4166666666667,157.49136106880331L263.4166666666667,157.462627877953L263.4166666666667,157.4320566197775L263.4166666666667,157.40434164479524L263.4166666666667,157.39128751140228L263.4166666666667,157.38503674757803L263.4166666666667,157.3802046917648L263.4166666666667,157.3780038187536L263.4166666666667,157.37188604594772L265.8333333333333,157.35779925192824L265.8333333333333,157.3532672111706L265.8333333333333,157.35059860838356L265.8333333333333,157.35133816260355L265.8333333333333,157.33907528942174L265.8333333333333,157.32817777647654L265.8333333333333,157.32322411300117L265.8333333333333,157.31780969871386L265.8333333333333,157.3131085785691L265.8333333333333,157.31178431102046L265.8333333333333,157.31300445704647L265.8333333333333,157.3185444924587L265.8333333333333,157.3203117762691" style="fill: none;" fill="none"></path></g></g></g></g><g opacity="0.2"><g><g><g><path stroke="rgb(0, 119, 187)" stroke-width="2px" d="M26.583333333333332,8.41723387241362L26.583333333333332,32.38304393291472L26.583333333333332,49.19980030059813L26.583333333333332,76.07105480432509L26.583333333333332,78.2552364349365L26.583333333333332,80.48455106019972L26.583333333333332,81.66691313982008L29,123.07163547277449L29,123.83982478380202L29,124.5522466778755L29,125.59742681980131L29,126.97271715402601L29,127.52053760290144L29,127.68249099254606L29,128.5427081465721L29,129.0445093989372L31.416666666666668,134.41556786298753L31.416666666666668,133.18187992572786L31.416666666666668,132.54025923013685L31.416666666666668,132.47830950021742L31.416666666666668,133.00576840639116L31.416666666666668,133.19958286285402L31.416666666666668,133.0641733288765L31.416666666666668,132.8818689465523L33.833333333333336,140.90616302490236L33.833333333333336,134.0279389500618L33.833333333333336,134.53858112096788L33.833333333333336,134.92798243761064L33.833333333333336,135.00232844352723L33.833333333333336,135.02002083063127L33.833333333333336,135.4182736158371L33.833333333333336,135.407649743557L36.25,137.1086298108101L36.25,139.01491330862046L36.25,137.88477383852006L36.25,137.22279160022737L36.25,137.0033089399338L36.25,136.86613755226136L36.25,137.1245497941971L36.25,137.180306661129L36.25,136.69886695146562L38.666666666666664,138.5803789973259L38.666666666666664,138.7255156517029L38.666666666666664,137.78033916950227L38.666666666666664,137.65024684667588L38.666666666666664,137.76795344352723L38.666666666666664,137.88566004037858L38.666666666666664,137.5865247130394L38.666666666666664,137.59360377788545L38.666666666666664,137.6918350338936L41.083333333333336,137.7626362323761L41.083333333333336,138.09363262653352L41.083333333333336,138.13434516191484L41.083333333333336,138.43701474666597L41.083333333333336,138.22991781234742L41.083333333333336,138.3732926130295L41.083333333333336,138.53790460824968L41.083333333333336,138.58392380476L43.5,137.99627702236177L43.5,138.07592968940736L43.5,138.38656454086305L43.5,138.07415728569032L43.5,138.26708554029466L43.5,138.43612854480745L43.5,138.59808193445207L45.916666666666664,139.12819944620134L45.916666666666664,139.377760219574L45.916666666666664,140.02116386890413L45.916666666666664,139.85389326810838L45.916666666666664,139.84592800140382L45.916666666666664,139.4733434200287L48.33333333333333,140.76633303165437L48.33333333333333,140.77606015205384L48.33333333333333,140.928286421299L48.33333333333333,140.36808024644853L48.33333333333333,140.82296555042268L48.33333333333333,140.83624802827836L48.33333333333333,140.7326995611191L48.33333333333333,140.73181335926057L48.33333333333333,140.8937667489052L50.75,138.63967012166978L50.75,141.21325306892396L50.75,140.51410310268403L50.75,140.77075349092485L50.75,140.53091983795167L50.75,140.5521570324898L50.75,140.62915109395982L53.166666666666664,138.69277893304826L53.166666666666664,140.47959398031236L53.166666666666664,140.3663078427315L53.166666666666664,140.31409578323365L53.166666666666664,140.65039883852006L53.166666666666664,140.3309125185013L53.166666666666664,140.45834623575212L53.166666666666664,140.4618910431862L53.166666666666664,140.38312457799913L53.166666666666664,140.59109716415406L55.583333333333336,139.47600202560426L55.583333333333336,139.47953628301622L55.583333333333336,139.64061402082444L55.583333333333336,139.59635667800904L55.583333333333336,139.32997916936876L55.583333333333336,139.61494581699372L55.583333333333336,139.58574335575105L55.583333333333336,139.61051480770112L55.583333333333336,139.51582835912706L55.583333333333336,139.62644534111024L55.583333333333336,139.65299974679948L55.583333333333336,139.81053267717363L55.583333333333336,139.94239740371705L58,143.11422990560533L58,141.44689385890962L58,141.90621017217637L58,142.1389647603035L58,142.11684136390687L58,142.1283408880234L58,142.09471796751023L58,142.354902613163L58,142.43810008764268L60.41666666666667,141.03271054029466L60.41666666666667,142.59120200872422L60.41666666666667,141.59557532072068L60.41666666666667,141.7460291862488L60.41666666666667,142.06108449697496L60.41666666666667,142.057550239563L60.41666666666667,141.99382810592653L60.41666666666667,141.86549763679506L60.41666666666667,141.9168340444565L60.41666666666667,142.1743600845337L60.41666666666667,142.20799355506898L60.41666666666667,142.00975863933564L60.41666666666667,142.03541629314424L60.41666666666667,141.933640229702L62.833333333333336,141.34334539175035L62.833333333333336,141.46636919975282L62.833333333333336,141.14245187044145L62.833333333333336,141.65929745435716L62.833333333333336,141.44247339963914L62.833333333333336,141.6778760433197L62.833333333333336,141.74867724180223L62.833333333333336,141.75487010478975L62.833333333333336,141.80974076986314L65.25,137.93521349430085L65.25,139.97690652608873L65.25,140.25833891630174L65.25,140.06186585426332L65.25,140.46897010803224L65.25,140.88403962850572L65.25,140.99997382164003L65.25,141.05749254226686L65.25,141.3955680012703L65.25,141.52388792037965L65.25,141.7177023768425L65.25,141.58938245773317L65.25,141.65841125249864L65.25,141.68849991559983L65.25,141.7415981769562L65.25,141.9079825758934L67.66666666666667,141.4159189939499L67.66666666666667,141.29821239709855L67.66666666666667,141.35396926403047L67.66666666666667,141.3760926604271L67.66666666666667,141.9168340444565L67.66666666666667,142.26109181642533L67.66666666666667,142.07612882852555L67.66666666666667,142.36641268730165L67.66666666666667,142.44605480432512L67.66666666666667,142.12657903432847L67.66666666666667,142.13011329174043L67.66666666666667,142.43632768392564L67.66666666666667,142.3097696185112L67.66666666666667,142.36552648544313L67.66666666666667,142.37791221141816L70.08333333333333,139.98222373723985L70.08333333333333,143.35760836601258L70.08333333333333,143.8912601351738L70.08333333333333,143.83196901082994L70.08333333333333,143.9505618095398L70.08333333333333,142.7451901316643L70.08333333333333,142.9018368601799L70.08333333333333,142.92307405471803L72.5,140.98049848079683L72.5,142.11595516204835L72.5,141.88497297763826L72.5,142.43810008764268L72.5,142.84962480068208L72.5,142.66465126276017L72.5,142.921301651001L72.5,143.3222130417824L72.5,143.39124183654786L72.5,143.55053662061692L72.5,143.55230902433397L72.5,143.53549228906633L72.5,143.64169936180116L74.91666666666667,144.1718063235283L74.91666666666667,143.4638048887253L74.91666666666667,143.36026697158815L74.91666666666667,143.3071687102318L74.91666666666667,143.07352792024614L74.91666666666667,143.23813991546632L74.91666666666667,143.60187302827836L74.91666666666667,143.58239768743516L74.91666666666667,143.62133781909944L74.91666666666667,143.73638581037522L74.91666666666667,143.62133781909944L74.91666666666667,143.33106451034547L74.91666666666667,143.31689583063127L77.33333333333333,143.84170668125154L77.33333333333333,143.85586481094361L77.33333333333333,142.98768239021302L77.33333333333333,142.7797098040581L77.33333333333333,142.840773332119L77.33333333333333,142.98856859207154L77.33333333333333,143.1876897096634L77.33333333333333,143.22574363946916L77.33333333333333,143.32663350105287L77.33333333333333,143.38061796426774L77.33333333333333,142.79386793375016L77.33333333333333,142.75757585763932L77.33333333333333,142.81333272457124L77.33333333333333,142.9717518568039L77.33333333333333,143.09565131664277L79.75,144.8948520898819L79.75,144.31429492235185L79.75,144.64616696834565L79.75,144.23730086088182L79.75,143.92843841314317L79.75,143.96649234294892L79.75,144.07976793050767L79.75,143.9656061410904L79.75,143.8806468129158L79.75,143.74612348079683L82.16666666666667,144.54882191419603L82.16666666666667,144.41252617836L82.16666666666667,144.17357872724534L82.16666666666667,144.36297272443772L82.16666666666667,144.53908424377443L82.16666666666667,144.61962311267854L82.16666666666667,144.26827572584153L82.16666666666667,144.22579078674318L82.16666666666667,144.15411393642427L82.16666666666667,144.09747086763383L82.16666666666667,144.18950926065446L82.16666666666667,144.331997859478L84.58333333333334,145.2346999526024L84.58333333333334,145.32762454748155L84.58333333333334,143.87534015178682L84.58333333333334,144.08861939907075L84.58333333333334,143.40982042551042L84.58333333333334,143.45672582387925L87,145.91968123912812L87,145.81879137754441L87,145.52940427064897L87,145.6630308508873L87,145.51612179279329L87,143.55761568546296L87,143.5231065630913L87,143.74081681966783L87,143.72665868997575L89.41666666666667,143.55761568546296L89.41666666666667,143.60098682641984L89.41666666666667,144.47094165086747L89.41666666666667,144.79750703573228L89.41666666666667,145.01255868673326L89.41666666666667,145.36479227542878L89.41666666666667,144.87095628976823L89.41666666666667,144.9541537642479L89.41666666666667,145.02671681642533L91.83333333333333,146.55423341989518L91.83333333333333,146.16483210325242L91.83333333333333,145.1700916171074L91.83333333333333,145.35682700872422L91.83333333333333,145.26743667125703L91.83333333333333,145.21788321733476L91.83333333333333,145.06300889253617L91.83333333333333,144.8948520898819L91.83333333333333,144.78599696159364L91.83333333333333,145.08247368335725L91.83333333333333,144.86919443607331L94.25,146.15156017541887L94.25,145.83560811281205L94.25,145.15416108369828L94.25,145.4709887981415L94.25,145.68073378801347L94.25,145.66923426389695L94.25,145.6462246656418L94.25,145.5010774612427L94.25,145.617011654377L94.25,145.64090745449067L94.25,145.4612511277199L94.25,145.5453348040581L94.25,145.60285352468492L94.25,145.60816018581392L96.66666666666666,143.2222093820572L96.66666666666666,142.56287519931794L96.66666666666666,144.7028100371361L96.66666666666666,145.1603539466858L96.66666666666666,145.15769534111024L99.08333333333333,147.07461326122285L99.08333333333333,147.07991992235185L99.08333333333333,146.6108659386635L99.08333333333333,145.81348471641542L99.08333333333333,145.2754019379616L99.08333333333333,145.95508711338044L99.08333333333333,146.07190750837327L99.08333333333333,146.15243582725526L99.08333333333333,146.1887279033661L99.08333333333333,145.963052380085L101.5,142.56199954748155L101.5,145.28956006765367L101.5,144.82051663398744L101.5,146.0789865732193L101.5,146.33563696146012L101.5,145.95242850780488L101.5,145.96127997636796L101.5,146.0427050471306L103.91666666666667,142.73899726867677L103.91666666666667,144.7125477075577L103.91666666666667,145.13115148544313L103.91666666666667,145.0638950943947L103.91666666666667,145.12318621873857L103.91666666666667,145.2453132748604L103.91666666666667,145.60816018581392L103.91666666666667,145.5355971336365L103.91666666666667,145.72675298452378L103.91666666666667,145.90021644830705L106.33333333333333,145.98074476718904L106.33333333333333,145.5568343281746L106.33333333333333,146.54803000688554L106.33333333333333,146.27722148895265L106.33333333333333,146.17544542551042L106.33333333333333,146.0993375658989L106.33333333333333,146.2303160905838L106.33333333333333,146.21615796089174L106.33333333333333,146.1391638994217L108.75,145.63471459150315L108.75,145.64887272119523L108.75,145.34355508089067L108.75,145.5010774612427L108.75,145.8621625185013L108.75,145.60108112096788L108.75,145.47984026670457L108.75,145.74002491235734L108.75,145.68339239358903L111.16666666666667,147.26046245098115L111.16666666666667,146.7967151284218L111.16666666666667,146.7710574746132L111.16666666666667,146.54626815319062L111.16666666666667,146.51705514192582L111.16666666666667,146.8471653342247L111.16666666666667,146.78255699872972L111.16666666666667,146.75866119861604L111.16666666666667,146.69406341314317L111.16666666666667,146.81353186368943L111.16666666666667,147.0524898648262L111.16666666666667,146.89937739372255L113.58333333333333,145.4355934739113L113.58333333333333,146.40732436180116L113.58333333333333,146.39847289323808L113.58333333333333,146.49670414924623L113.58333333333333,146.54803000688554L113.58333333333333,146.59670780897142L113.58333333333333,147.12682532072068L113.58333333333333,147.23213564157487L113.58333333333333,147.3985200405121L113.58333333333333,147.2188637137413L113.58333333333333,147.33214985132219L113.58333333333333,147.42064343690873L113.58333333333333,147.42507444620134L113.58333333333333,147.38524811267854L116,144.85679816007615L116,147.28169964551927L116,147.26931391954423L116,147.52064709663392L116,147.4498458981514L116,147.37728284597398L116,147.34453557729722L116,147.38170330524446L116,147.42152963876725L116,147.4286087036133L116,147.37285183668138L116,147.19851272106172L116,147.26576911211015L116,147.23213564157487L116,147.1179738521576L116,147.2684277176857L118.41666666666667,146.05065976381303L118.41666666666667,147.32949124574662L118.41666666666667,146.93301086425782L118.41666666666667,146.95513426065446L118.41666666666667,147.05513792037965L118.41666666666667,147.09230564832689L120.83333333333334,147.2082398414612L120.83333333333334,147.67198716402055L120.83333333333334,147.16399304866792L120.83333333333334,147.04894505739213L120.83333333333334,146.96575813293458L120.83333333333334,146.87017493247987L120.83333333333334,147.18080978393556L123.25,148.1366101384163L123.25,146.89318453073503L123.25,146.84805153608323L123.25,146.47369455099107L123.25,146.30200349092485L123.25,146.78963606357576L123.25,146.98876773118974L123.25,146.891412127018L123.25,147.07549946308137L123.25,147.1179738521576L123.25,147.13037012815477L123.25,147.1878888487816L123.25,147.13037012815477L125.66666666666667,148.08970474004747L125.66666666666667,146.90645645856858L125.66666666666667,146.92770420312883L125.66666666666667,147.09230564832689L125.66666666666667,147.5047165632248L128.08333333333334,145.46302353143693L128.08333333333334,145.9232260465622L128.08333333333334,146.25156383514405L128.08333333333334,147.1277115225792L128.08333333333334,147.2126708507538L128.08333333333334,147.39497523307801L128.08333333333334,147.529498565197L128.08333333333334,147.46046977043153L128.08333333333334,147.31001590490342L128.08333333333334,147.47994511127473L128.08333333333334,147.33037744760514L130.5,149.1402020931244L130.5,148.0454579472542L130.5,148.2463514685631L130.5,147.78792135715486L130.5,147.33657031059266L130.5,147.69322435855867L130.5,147.6188889026642L130.5,147.67818002700807L130.5,147.5489739060402L130.5,147.6498637676239L130.5,147.78172849416734L132.91666666666666,150.05706231594087L132.91666666666666,150.0393593788147L132.91666666666666,149.50127660036088L132.91666666666666,149.0596632242203L132.91666666666666,149.0401984333992L132.91666666666666,148.92602609395982L132.91666666666666,148.94727383852006L132.91666666666666,148.83045344352723L132.91666666666666,148.33573125600816L132.91666666666666,148.53131811618806L135.33333333333334,149.42339633703233L135.33333333333334,149.39330767393113L135.33333333333334,148.93664996623994L135.33333333333334,149.2056860804558L135.33333333333334,149.2003794193268L135.33333333333334,149.38711481094361L135.33333333333334,148.32687978744508L135.33333333333334,147.97465674877168L135.33333333333334,148.4074186563492L135.33333333333334,148.64017324447633L135.33333333333334,148.67999957799913L135.33333333333334,148.56140677928926L135.33333333333334,148.63486658334733L135.33333333333334,148.48618512153627L135.33333333333334,148.54016958475114L135.33333333333334,148.45166544914247L137.75,148.1012148141861L137.75,149.0490499019623L137.75,148.83045344352723L137.75,149.58623592853547L137.75,149.1154200911522L137.75,149.11099963188173L137.75,149.09860335588456L137.75,149.08267282247544L137.75,149.14905356168748L137.75,149.1003757596016L137.75,148.95788716077806L137.75,148.8844379067421L137.75,149.01718883514405L137.75,149.02338169813157L140.16666666666666,150.3898205637932L140.16666666666666,150.15706597566606L140.16666666666666,149.93404905796052L140.16666666666666,150.09865050315858L140.16666666666666,149.69863586425782L140.16666666666666,149.35791234970094L140.16666666666666,148.93310515880586L140.16666666666666,148.68088577985765L140.16666666666666,148.3012221336365L140.16666666666666,148.34635512828828L140.16666666666666,148.382636654377L140.16666666666666,148.37113713026048L140.16666666666666,148.36139945983888L142.58333333333331,149.39330767393113L142.58333333333331,149.47473274469377L142.58333333333331,149.511900472641L142.58333333333331,149.55261300802232L142.58333333333331,149.51986573934556L142.58333333333331,149.56057827472688L142.58333333333331,149.55349920988084L142.58333333333331,149.36321901082994L142.58333333333331,149.32958554029466L142.58333333333331,149.17648361921312L142.58333333333331,149.13400923013688L142.58333333333331,149.020723092556L142.58333333333331,149.0357674241066L142.58333333333331,148.96851103305818L145,144.40014045238496L145,148.3472413301468L145,148.54105578660966L145,148.8242500305176L145,148.84638397693635L145,148.8100919008255L145,149.2649877548218L145,149.1207267522812L145,149.12604396343232L147.41666666666666,148.60123311281205L147.41666666666666,150.53761582374574L147.41666666666666,149.82961438894273L147.41666666666666,150.00219165086747L147.41666666666666,150.11104677915574L147.41666666666666,149.28799735307695L147.41666666666666,149.27914588451387L147.41666666666666,149.15170161724092L147.41666666666666,149.0455050945282L147.41666666666666,149.28268014192582L147.41666666666666,149.18091462850572L147.41666666666666,149.22250281572343L147.41666666666666,149.2410919547081L147.41666666666666,148.81805716753007L149.83333333333334,150.7464746117592L149.83333333333334,149.01630263328553L149.83333333333334,149.17648361921312L149.83333333333334,149.29684882164003L149.83333333333334,149.21896855831147L149.83333333333334,149.1853350877762L152.25,143.85232000350953L152.25,149.37472908496858L152.25,149.2711806178093L152.25,148.91098176240922L152.25,149.3357889533043L152.25,149.31365500688554L152.25,149.18356268405915L152.25,149.50039039850236L154.66666666666666,150.00396405458451L154.66666666666666,149.4756189465523L154.66666666666666,149.73138313293458L154.66666666666666,149.44287167787553L154.66666666666666,149.23843334913255L154.66666666666666,149.63579993247987L154.66666666666666,149.75173412561418L154.66666666666666,149.68447773456575L157.08333333333331,149.20745848417283L157.08333333333331,151.11463873386384L157.08333333333331,150.59425889253617L157.08333333333331,150.53938822746278L157.08333333333331,150.5411500811577L157.08333333333331,150.39867203235627L157.08333333333331,150.4101715564728L157.08333333333331,150.70222781896592L157.08333333333331,150.70930688381196L157.08333333333331,150.6216889500618L157.08333333333331,150.65885667800904L157.08333333333331,150.5004480957985L157.08333333333331,150.50398235321046L157.08333333333331,150.6553224205971L159.5,152.96693776845933L159.5,152.5846155166626L159.5,151.82706062793733L159.5,151.26066159009935L159.5,151.008431661129L159.5,150.75974653959275L159.5,150.5606254220009L159.5,150.6960349559784L159.5,150.8022314786911L159.5,150.8216962695122L159.5,150.77391521930696L159.5,150.72080640792848L159.5,150.70400022268296L161.91666666666666,150.70400022268296L161.91666666666666,149.21188949346543L161.91666666666666,150.38893436193467L161.91666666666666,149.8287281870842L161.91666666666666,149.7278383255005L161.91666666666666,149.60836987495424L161.91666666666666,149.73403118848802L161.91666666666666,149.9933401823044L161.91666666666666,149.9897953748703L161.91666666666666,149.9933401823044L161.91666666666666,149.8225353240967L161.91666666666666,149.81634246110917L161.91666666666666,149.71013538837434L164.33333333333334,149.28356634378434L164.33333333333334,148.0967838048935L164.33333333333334,149.29241781234742L164.33333333333334,149.6428789973259L164.33333333333334,149.43490641117097L164.33333333333334,149.67208145856858L164.33333333333334,150.06502758264543L164.33333333333334,150.13582878112794L164.33333333333334,150.38716195821763L164.33333333333334,150.48716561794282L164.33333333333334,150.50929956436158L166.75,150.80311768054963L166.75,151.3633238554001L166.75,151.34739332199098L166.75,151.22525571584703L166.75,151.01463507413865L166.75,151.06065427064897L166.75,151.2934088587761L166.75,151.42527358531953L169.16666666666669,151.2040185213089L169.16666666666669,151.62793951034547L169.16666666666669,151.72617076635362L169.16666666666669,151.98370735645295L169.16666666666669,152.18371467590333L169.16666666666669,152.05362235307695L169.16666666666669,152.07928000688554L169.16666666666669,152.10230015516282L169.16666666666669,152.05362235307695L169.16666666666669,152.0863696217537L169.16666666666669,152.01910268068315L171.58333333333334,151.75448702573777L171.58333333333334,151.1579993247986L171.58333333333334,151.01463507413865L171.58333333333334,151.14561359882356L171.58333333333334,151.18189512491227L174,151.39518492221833L174,150.68806968927385L174,152.28637694120408L174,152.0456570863724L174,151.97662829160691L174,151.71643309593202L174,151.80405102968217L174,151.3934125185013L174,151.47659944295884L176.41666666666666,151.16154413223268L176.41666666666666,151.5394353747368L176.41666666666666,152.4934633255005L176.41666666666666,151.73590843677522L176.41666666666666,151.67130010128022L176.41666666666666,151.51819818019868L176.41666666666666,151.72262595891954L176.41666666666666,151.66864149570466L176.41666666666666,151.47837184667588L176.41666666666666,151.7748485684395L176.41666666666666,151.81820915937425L176.41666666666666,151.76422469615937L178.83333333333334,154.88650374412538L178.83333333333334,153.8138829946518L178.83333333333334,153.40058587789537L178.83333333333334,153.1917270898819L178.83333333333334,152.54744778871537L178.83333333333334,152.35540573596955L178.83333333333334,152.42443453073503L178.83333333333334,152.36690526008607L178.83333333333334,152.41116260290147L178.83333333333334,152.50762145519258L178.83333333333334,152.63506572246553L181.25,152.8288801789284L181.25,153.11208497285844L181.25,153.00322984457017L181.25,152.95632444620134L181.25,152.94304196834565L181.25,152.96251730918885L181.25,152.46514706611634L183.66666666666666,152.33328233957292L183.66666666666666,152.83418684005738L183.66666666666666,152.92711143493653L183.66666666666666,152.8952503681183L183.66666666666666,152.67223345041276L183.66666666666666,152.6032046556473L183.66666666666666,152.73595558404924L183.66666666666666,152.5580716609955L183.66666666666666,152.42443453073503L183.66666666666666,152.50054239034654L183.66666666666666,151.95892535448075L183.66666666666666,152.14743314981462L183.66666666666666,152.16247748136522L183.66666666666666,152.207610476017L186.08333333333334,152.5996598482132L186.08333333333334,152.4182416677475L186.08333333333334,151.50580190420152L186.08333333333334,151.4898713707924L186.08333333333334,152.35806434154512L186.08333333333334,152.31999986171724L186.08333333333334,152.5430273294449L186.08333333333334,152.6943568468094L186.08333333333334,152.54656158685685L186.08333333333334,152.36159859895707L188.5,148.56937204599382L188.5,149.53579627275468L188.5,150.5411500811577L188.5,151.47129278182985L188.5,151.45889650583268L188.5,151.7252845644951L188.5,151.73767029047013L188.5,151.96334581375123L190.91666666666666,151.04737179279329L190.91666666666666,151.53235630989076L190.91666666666666,151.6155432343483L190.91666666666666,151.6243947029114L190.91666666666666,151.56333117485048L190.91666666666666,151.7907791018486L190.91666666666666,151.90228228569032L190.91666666666666,152.33505474328996L190.91666666666666,152.45540939569474L190.91666666666666,152.48461185693742L190.91666666666666,152.50231479406358L193.33333333333331,153.7439679980278L193.33333333333331,153.09438203573228L193.33333333333331,153.32536422014238L193.33333333333331,152.95277963876725L193.33333333333331,152.82180111408235L193.33333333333331,153.27226595878602L193.33333333333331,152.99260597229005L195.75,154.17230944633485L195.75,154.23160057067872L195.75,153.43156074285508L195.75,153.347487616539L195.75,153.35811148881913L195.75,153.4669666171074L195.75,153.50060008764268L195.75,153.4218336224556L195.75,153.3864277482033L195.75,153.37315582036973L195.75,153.3112060904503L198.16666666666666,152.1775218129158L198.16666666666666,152.4633746623993L198.16666666666666,152.4731123328209L198.16666666666666,152.3633710026741L198.16666666666666,152.30495553016664L198.16666666666666,152.5332896590233L198.16666666666666,152.32354466915132L198.16666666666666,152.38107393980027L198.16666666666666,152.46514706611634L198.16666666666666,152.53151725530626L200.58333333333334,155.14226793050767L200.58333333333334,153.36872481107713L200.58333333333334,153.20943002700807L200.58333333333334,153.27226595878602L200.58333333333334,153.1156192302704L200.58333333333334,152.83773164749147L200.58333333333334,152.71560459136964L200.58333333333334,152.85277597904206L200.58333333333334,152.7394898414612L200.58333333333334,152.70056025981904L203,153.8935356616974L203,154.2050567150116L203,154.91925101280214L203,154.6670210838318L203,154.62454669475557L203,154.71481268405915L203,154.76083188056947L203,154.62277429103852L203,154.47675143480302L203,154.71216462850572L203,154.01743512153627L205.41666666666669,153.24217729568483L205.41666666666669,153.59086607694627L205.41666666666669,153.62714760303498L205.41666666666669,153.5483811378479L205.41666666666669,153.74574040174485L205.41666666666669,153.74219559431077L205.41666666666669,153.65370200872422L205.41666666666669,153.89176325798036L207.83333333333334,153.12181209325792L207.83333333333334,152.21114473342897L207.83333333333334,152.6536548614502L207.83333333333334,153.3359880924225L207.83333333333334,153.95725779533387L207.83333333333334,153.97141592502595L207.83333333333334,153.9448615193367L207.83333333333334,154.18735377788545L210.25,156.6494229912758L210.25,156.11577122211457L210.25,155.09094207286836L210.25,155.22988586425782L210.25,155.38653259277345L210.25,155.3599781870842L210.25,155.6953950405121L210.25,155.35555772781373L210.25,154.691803085804L210.25,154.7466737508774L210.25,154.7873862862587L212.66666666666666,152.1916799426079L212.66666666666666,153.1917270898819L212.66666666666666,156.1166574239731L212.66666666666666,156.3440948009491L212.66666666666666,155.32635526657106L212.66666666666666,155.27059839963914L212.66666666666666,155.10067974328996L212.66666666666666,154.88561754226686L212.66666666666666,154.5006472349167L212.66666666666666,154.47497903108598L212.66666666666666,154.52896349430085L215.08333333333334,154.9475672721863L215.08333333333334,155.58123325109483L215.08333333333334,155.65911351442338L215.08333333333334,155.5042391896248L215.08333333333334,154.88916234970094L215.08333333333334,154.79092054367067L215.08333333333334,154.87676607370378L215.08333333333334,154.99624507427217L215.08333333333334,154.75375281572343L215.08333333333334,154.7325156211853L217.5,157.20077769756318L217.5,155.67857830524446L217.5,155.72902851104737L217.5,155.44140325784684L217.5,155.30687992572786L217.5,155.4298931837082L217.5,155.19005953073503L219.91666666666666,156.77951531410218L219.91666666666666,156.6644673228264L219.91666666666666,156.38923834562303L219.91666666666666,156.6140276670456L219.91666666666666,156.60163139104844L219.91666666666666,156.02638088464738L222.33333333333334,157.81496833562852L222.33333333333334,155.89540235996247L222.33333333333334,155.9812478899956L222.33333333333334,156.45294992923738L222.33333333333334,155.10244159698487L222.33333333333334,155.08562486171724L222.33333333333334,155.39183925390245L222.33333333333334,155.00598274469377L222.33333333333334,155.15642606019975L222.33333333333334,155.2838703274727L222.33333333333334,155.32192425727845L222.33333333333334,155.1493469953537L224.75,157.82559220790864L224.75,158.96546934843064L224.75,157.96099119186403L224.75,156.06001435518266L224.75,155.8865508913994L224.75,155.94850062131883L224.75,155.64848964214326L224.75,155.51839731931688L224.75,155.59273277521135L224.75,155.60954951047898L224.75,155.66884063482286L227.16666666666666,157.12289743423463L227.16666666666666,156.84678225517274L227.16666666666666,156.93262778520585L227.16666666666666,156.46623240709306L227.16666666666666,156.47242527008058L227.16666666666666,156.10603355169297L227.16666666666666,155.79805730581285L229.58333333333331,152.8395040512085L229.58333333333331,156.51491020917894L229.58333333333331,157.04324476718904L229.58333333333331,157.00254278182985L229.58333333333331,156.69013552665712L229.58333333333331,156.1370084166527L229.58333333333331,156.08745496273042L229.58333333333331,156.0007232308388L229.58333333333331,155.90336762666703L232,159.91330443620683L232,154.98031454086305L232,154.95111207962037L232,155.5741541862488L232,155.47413997650148L232,155.24138538837434L232,155.39891831874849L232,155.41396265029908L232,155.44759612083436L232,155.60335664749147L234.41666666666666,153.37846248149873L234.41666666666666,154.87587987184526L234.41666666666666,155.47857098579408L234.41666666666666,155.56707512140275L234.41666666666666,156.32463001012803L234.41666666666666,156.10072689056398L234.41666666666666,155.63786576986314L234.41666666666666,155.5192835211754L234.41666666666666,155.55379264354707L234.41666666666666,155.45733379125596L234.41666666666666,155.50069438219072L234.41666666666666,155.5502583861351L236.83333333333334,156.68217025995256L236.83333333333334,157.10785310268403L236.83333333333334,157.0211213707924L236.83333333333334,156.6954421877861L236.83333333333334,156.29365514516832L236.83333333333334,156.31666474342347L236.83333333333334,156.66978453397752L236.83333333333334,156.5680084705353L236.83333333333334,156.47242527008058L236.83333333333334,156.43702994585038L236.83333333333334,156.35029821395875L236.83333333333334,156.18922047615052L236.83333333333334,156.09542022943498L239.25,153.1368564248085L239.25,153.88468419313432L239.25,154.9431468129158L239.25,155.22988586425782L239.25,155.24493019580842L239.25,155.58211945295335L239.25,155.5653027176857L239.25,155.51396631002427L241.66666666666669,157.50964014530183L241.66666666666669,157.89639340639116L241.66666666666669,157.392819750309L241.66666666666669,157.41052268743516L241.66666666666669,157.65567355155946L241.66666666666669,157.40610222816468L244.08333333333334,155.90868483781816L244.08333333333334,155.69716744422914L244.08333333333334,156.59277992248536L244.08333333333334,156.64145772457124L244.08333333333334,156.34144674539567L244.08333333333334,156.32817481756211L246.5,158.60792909860612L246.5,158.39199124574662L246.5,158.14241992235185L246.5,158.0698463201523L246.5,157.80788927078248L246.5,157.58044134378434L246.5,157.69992034435273L246.5,157.6831036090851L246.5,157.8291264653206L246.5,157.66186641454698L246.5,157.63442580699922L248.91666666666666,156.09010301828386L248.91666666666666,157.0804230451584L248.91666666666666,156.99722557067872L248.91666666666666,156.81137638092042L248.91666666666666,155.85734843015672L248.91666666666666,156.08125154972078L248.91666666666666,156.0166537642479L248.91666666666666,156.0122227549553L248.91666666666666,156.06797962188722L251.33333333333334,157.88576953411103L251.33333333333334,157.44504235982896L251.33333333333334,157.42291896343232L251.33333333333334,157.51052634716035L251.33333333333334,157.40875028371812L251.33333333333334,157.3760135650635L251.33333333333334,157.36450349092485L251.33333333333334,157.12289743423463L253.75,157.50610588788987L253.75,157.5574317455292L253.75,157.0007703781128L253.75,157.62115387916566L253.75,157.71673707962037L253.75,157.56539701223375L253.75,157.6432772755623L253.75,157.64682208299638L253.75,157.7627562761307L256.1666666666667,158.04595052003862L256.1666666666667,157.5981442809105L256.1666666666667,157.60080288648606L256.1666666666667,157.3317562222481L256.1666666666667,157.3512315630913L256.1666666666667,157.05741344690324L256.1666666666667,157.07687823772432L256.1666666666667,157.19724344015123L256.1666666666667,157.165382373333L256.1666666666667,157.0653787136078L258.58333333333337,157.36008303165437L258.58333333333337,156.9211177110672L258.58333333333337,157.00873564481736L258.58333333333337,156.85739557743074L258.58333333333337,156.86359899044038L258.58333333333337,156.97864698171617L258.58333333333337,156.96802310943605L258.58333333333337,156.9804193854332L258.58333333333337,156.9697955131531L258.58333333333337,157.32556335926057L261,157.60168908834459L261,158.03533719778062L261,158.06808446645738L261,157.89727960824968L261,157.83444367647172L261,157.57424848079683L261,157.31495003700257L263.4166666666667,160.2637656211853L263.4166666666667,158.2008248448372L263.4166666666667,157.11404596567155L263.4166666666667,156.91669725179673L263.4166666666667,156.85120271444322L263.4166666666667,156.87775712013246L263.4166666666667,157.14325897693635L263.4166666666667,157.2662722349167L263.4166666666667,157.28839563131334L263.4166666666667,157.3361872315407L263.4166666666667,157.25564836263658L265.8333333333333,157.09015016555787L265.8333333333333,157.26715843677522L265.8333333333333,157.29989515542985L265.8333333333333,157.36538969278337L265.8333333333333,157.106080698967L265.8333333333333,157.1211250305176L265.8333333333333,157.22910450696946L265.8333333333333,157.21493582725526L265.8333333333333,157.22378729581834L265.8333333333333,157.2866232275963L265.8333333333333,157.3361872315407L265.8333333333333,157.42380516529084L265.8333333333333,157.35389016866685" style="fill: none;" fill="none"></path></g></g></g></g></g></g><g transform="translate(40, 177)" clip-path="url(#clip_1)"><clipPath id="clip_1"><rect width="290" height="23"></rect></clipPath><g><g><line x1="0" y1="0" x2="0" y2="5" style="visibility: inherit;" fill="rgb(0, 0, 0)" stroke="rgb(204, 204, 204)" stroke-width="1px"></line><line x1="24.166666666666664" y1="0" x2="24.166666666666664" y2="5" style="visibility: inherit;" fill="rgb(0, 0, 0)" stroke="rgb(204, 204, 204)" stroke-width="1px"></line><line x1="48.33333333333333" y1="0" x2="48.33333333333333" y2="5" style="visibility: inherit;" fill="rgb(0, 0, 0)" stroke="rgb(204, 204, 204)" stroke-width="1px"></line><line x1="72.5" y1="0" x2="72.5" y2="5" style="visibility: inherit;" fill="rgb(0, 0, 0)" stroke="rgb(204, 204, 204)" stroke-width="1px"></line><line x1="96.66666666666666" y1="0" x2="96.66666666666666" y2="5" style="visibility: inherit;" fill="rgb(0, 0, 0)" stroke="rgb(204, 204, 204)" stroke-width="1px"></line><line x1="120.83333333333334" y1="0" x2="120.83333333333334" y2="5" style="visibility: inherit;" fill="rgb(0, 0, 0)" stroke="rgb(204, 204, 204)" stroke-width="1px"></line><line x1="145" y1="0" x2="145" y2="5" style="visibility: inherit;" fill="rgb(0, 0, 0)" stroke="rgb(204, 204, 204)" stroke-width="1px"></line><line x1="169.16666666666669" y1="0" x2="169.16666666666669" y2="5" style="visibility: inherit;" fill="rgb(0, 0, 0)" stroke="rgb(204, 204, 204)" stroke-width="1px"></line><line x1="193.33333333333331" y1="0" x2="193.33333333333331" y2="5" style="visibility: inherit;" fill="rgb(0, 0, 0)" stroke="rgb(204, 204, 204)" stroke-width="1px"></line><line x1="217.5" y1="0" x2="217.5" y2="5" style="visibility: inherit;" fill="rgb(0, 0, 0)" stroke="rgb(204, 204, 204)" stroke-width="1px"></line><line x1="241.66666666666669" y1="0" x2="241.66666666666669" y2="5" style="visibility: inherit;" fill="rgb(0, 0, 0)" stroke="rgb(204, 204, 204)" stroke-width="1px"></line><line x1="265.8333333333333" y1="0" x2="265.8333333333333" y2="5" style="visibility: inherit;" fill="rgb(0, 0, 0)" stroke="rgb(204, 204, 204)" stroke-width="1px"></line><line x1="290" y1="0" x2="290" y2="5" style="visibility: inherit;" fill="rgb(0, 0, 0)" stroke="rgb(204, 204, 204)" stroke-width="1px"></line></g><g transform="translate(0, 8)"><text x="0" y="0" dx="0em" dy="0.95em" style="text-anchor: middle; visibility: hidden; font-family: Roboto, sans-serif; font-size: 12px; font-weight: 200;" fill="rgb(33, 33, 33)" stroke="none" stroke-width="1px">-10</text><text x="24.166666666666664" y="0" dx="0em" dy="0.95em" style="text-anchor: middle; visibility: inherit; font-family: Roboto, sans-serif; font-size: 12px; font-weight: 200;" fill="rgb(33, 33, 33)" stroke="none" stroke-width="1px">0</text><text x="48.33333333333333" y="0" dx="0em" dy="0.95em" style="text-anchor: middle; visibility: inherit; font-family: Roboto, sans-serif; font-size: 12px; font-weight: 200;" fill="rgb(33, 33, 33)" stroke="none" stroke-width="1px">10</text><text x="72.5" y="0" dx="0em" dy="0.95em" style="text-anchor: middle; visibility: inherit; font-family: Roboto, sans-serif; font-size: 12px; font-weight: 200;" fill="rgb(33, 33, 33)" stroke="none" stroke-width="1px">20</text><text x="96.66666666666666" y="0" dx="0em" dy="0.95em" style="text-anchor: middle; visibility: inherit; font-family: Roboto, sans-serif; font-size: 12px; font-weight: 200;" fill="rgb(33, 33, 33)" stroke="none" stroke-width="1px">30</text><text x="120.83333333333334" y="0" dx="0em" dy="0.95em" style="text-anchor: middle; visibility: inherit; font-family: Roboto, sans-serif; font-size: 12px; font-weight: 200;" fill="rgb(33, 33, 33)" stroke="none" stroke-width="1px">40</text><text x="145" y="0" dx="0em" dy="0.95em" style="text-anchor: middle; visibility: inherit; font-family: Roboto, sans-serif; font-size: 12px; font-weight: 200;" fill="rgb(33, 33, 33)" stroke="none" stroke-width="1px">50</text><text x="169.16666666666669" y="0" dx="0em" dy="0.95em" style="text-anchor: middle; visibility: inherit; font-family: Roboto, sans-serif; font-size: 12px; font-weight: 200;" fill="rgb(33, 33, 33)" stroke="none" stroke-width="1px">60</text><text x="193.33333333333331" y="0" dx="0em" dy="0.95em" style="text-anchor: middle; visibility: inherit; font-family: Roboto, sans-serif; font-size: 12px; font-weight: 200;" fill="rgb(33, 33, 33)" stroke="none" stroke-width="1px">70</text><text x="217.5" y="0" dx="0em" dy="0.95em" style="text-anchor: middle; visibility: inherit; font-family: Roboto, sans-serif; font-size: 12px; font-weight: 200;" fill="rgb(33, 33, 33)" stroke="none" stroke-width="1px">80</text><text x="241.66666666666669" y="0" dx="0em" dy="0.95em" style="text-anchor: middle; visibility: inherit; font-family: Roboto, sans-serif; font-size: 12px; font-weight: 200;" fill="rgb(33, 33, 33)" stroke="none" stroke-width="1px">90</text><text x="265.8333333333333" y="0" dx="0em" dy="0.95em" style="text-anchor: middle; visibility: inherit; font-family: Roboto, sans-serif; font-size: 12px; font-weight: 200;" fill="rgb(33, 33, 33)" stroke="none" stroke-width="1px">100</text><text x="290" y="0" dx="0em" dy="0.95em" style="text-anchor: middle; visibility: hidden; font-family: Roboto, sans-serif; font-size: 12px; font-weight: 200;" fill="rgb(33, 33, 33)" stroke="none" stroke-width="1px">110</text></g><line x1="0" y1="0" x2="290" y2="0" fill="rgb(0, 0, 0)" stroke="rgb(204, 204, 204)" stroke-width="1px"></line></g></g></g></g></svg>