<svg viewBox="0 0 330 200" xmlns="http://www.w3.org/2000/svg"><g><g><g><g><g><line x1="40" y1="177" x2="35" y2="177" style="visibility: inherit;" fill="rgb(0, 0, 0)" stroke="rgb(204, 204, 204)" stroke-width="1px"></line><line x1="40" y1="164.35714285714286" x2="35" y2="164.35714285714286" style="visibility: inherit;" fill="rgb(0, 0, 0)" stroke="rgb(204, 204, 204)" stroke-width="1px"></line><line x1="40" y1="151.71428571428572" x2="35" y2="151.71428571428572" style="visibility: inherit;" fill="rgb(0, 0, 0)" stroke="rgb(204, 204, 204)" stroke-width="1px"></line><line x1="40" y1="139.07142857142858" x2="35" y2="139.07142857142858" style="visibility: inherit;" fill="rgb(0, 0, 0)" stroke="rgb(204, 204, 204)" stroke-width="1px"></line><line x1="40" y1="126.42857142857142" x2="35" y2="126.42857142857142" style="visibility: inherit;" fill="rgb(0, 0, 0)" stroke="rgb(204, 204, 204)" stroke-width="1px"></line><line x1="40" y1="113.78571428571428" x2="35" y2="113.78571428571428" style="visibility: inherit;" fill="rgb(0, 0, 0)" stroke="rgb(204, 204, 204)" stroke-width="1px"></line><line x1="40" y1="101.14285714285714" x2="35" y2="101.14285714285714" style="visibility: inherit;" fill="rgb(0, 0, 0)" stroke="rgb(204, 204, 204)" stroke-width="1px"></line><line x1="40" y1="88.49999999999999" x2="35" y2="88.49999999999999" style="visibility: inherit;" fill="rgb(0, 0, 0)" stroke="rgb(204, 204, 204)" stroke-width="1px"></line><line x1="40" y1="75.85714285714286" x2="35" y2="75.85714285714286" style="visibility: inherit;" fill="rgb(0, 0, 0)" stroke="rgb(204, 204, 204)" stroke-width="1px"></line><line x1="40" y1="63.21428571428571" x2="35" y2="63.21428571428571" style="visibility: inherit;" fill="rgb(0, 0, 0)" stroke="rgb(204, 204, 204)" stroke-width="1px"></line><line x1="40" y1="50.57142857142857" x2="35" y2="50.57142857142857" style="visibility: inherit;" fill="rgb(0, 0, 0)" stroke="rgb(204, 204, 204)" stroke-width="1px"></line><line x1="40" y1="37.92857142857141" x2="35" y2="37.92857142857141" style="visibility: inherit;" fill="rgb(0, 0, 0)" stroke="rgb(204, 204, 204)" stroke-width="1px"></line><line x1="40" y1="25.285714285714256" x2="35" y2="25.285714285714256" style="visibility: inherit;" fill="rgb(0, 0, 0)" stroke="rgb(204, 204, 204)" stroke-width="1px"></line><line x1="40" y1="12.642857142857157" x2="35" y2="12.642857142857157" style="visibility: inherit;" fill="rgb(0, 0, 0)" stroke="rgb(204, 204, 204)" stroke-width="1px"></line><line x1="40" y1="0" x2="35" y2="0" style="visibility: inherit;" fill="rgb(0, 0, 0)" stroke="rgb(204, 204, 204)" stroke-width="1px"></line></g><g transform="translate(30, 0)"><text x="0" y="177" dx="0em" dy="0.3em" style="text-anchor: end; visibility: hidden; font-family: Roboto, sans-serif; font-size: 12px; font-weight: 200;" fill="rgb(33, 33, 33)" stroke="none" stroke-width="1px">0.8</text><text x="0" y="164.35714285714286" dx="0em" dy="0.3em" style="text-anchor: end; visibility: inherit; font-family: Roboto, sans-serif; font-size: 12px; font-weight: 200;" fill="rgb(33, 33, 33)" stroke="none" stroke-width="1px">1</text><text x="0" y="151.71428571428572" dx="0em" dy="0.3em" style="text-anchor: end; visibility: hidden; font-family: Roboto, sans-serif; font-size: 12px; font-weight: 200;" fill="rgb(33, 33, 33)" stroke="none" stroke-width="1px">1.2</text><text x="0" y="139.07142857142858" dx="0em" dy="0.3em" style="text-anchor: end; visibility: inherit; font-family: Roboto, sans-serif; font-size: 12px; font-weight: 200;" fill="rgb(33, 33, 33)" stroke="none" stroke-width="1px">1.4</text><text x="0" y="126.42857142857142" dx="0em" dy="0.3em" style="text-anchor: end; visibility: hidden; font-family: Roboto, sans-serif; font-size: 12px; font-weight: 200;" fill="rgb(33, 33, 33)" stroke="none" stroke-width="1px">1.6</text><text x="0" y="113.78571428571428" dx="0em" dy="0.3em" style="text-anchor: end; visibility: inherit; font-family: Roboto, sans-serif; font-size: 12px; font-weight: 200;" fill="rgb(33, 33, 33)" stroke="none" stroke-width="1px">1.8</text><text x="0" y="101.14285714285714" dx="0em" dy="0.3em" style="text-anchor: end; visibility: hidden; font-family: Roboto, sans-serif; font-size: 12px; font-weight: 200;" fill="rgb(33, 33, 33)" stroke="none" stroke-width="1px">2</text><text x="0" y="88.49999999999999" dx="0em" dy="0.3em" style="text-anchor: end; visibility: inherit; font-family: Roboto, sans-serif; font-size: 12px; font-weight: 200;" fill="rgb(33, 33, 33)" stroke="none" stroke-width="1px">2.2</text><text x="0" y="75.85714285714286" dx="0em" dy="0.3em" style="text-anchor: end; visibility: hidden; font-family: Roboto, sans-serif; font-size: 12px; font-weight: 200;" fill="rgb(33, 33, 33)" stroke="none" stroke-width="1px">2.4</text><text x="0" y="63.21428571428571" dx="0em" dy="0.3em" style="text-anchor: end; visibility: inherit; font-family: Roboto, sans-serif; font-size: 12px; font-weight: 200;" fill="rgb(33, 33, 33)" stroke="none" stroke-width="1px">2.6</text><text x="0" y="50.57142857142857" dx="0em" dy="0.3em" style="text-anchor: end; visibility: hidden; font-family: Roboto, sans-serif; font-size: 12px; font-weight: 200;" fill="rgb(33, 33, 33)" stroke="none" stroke-width="1px">2.8</text><text x="0" y="37.92857142857141" dx="0em" dy="0.3em" style="text-anchor: end; visibility: inherit; font-family: Roboto, sans-serif; font-size: 12px; font-weight: 200;" fill="rgb(33, 33, 33)" stroke="none" stroke-width="1px">3</text><text x="0" y="25.285714285714256" dx="0em" dy="0.3em" style="text-anchor: end; visibility: hidden; font-family: Roboto, sans-serif; font-size: 12px; font-weight: 200;" fill="rgb(33, 33, 33)" stroke="none" stroke-width="1px">3.2</text><text x="0" y="12.642857142857157" dx="0em" dy="0.3em" style="text-anchor: end; visibility: inherit; font-family: Roboto, sans-serif; font-size: 12px; font-weight: 200;" fill="rgb(33, 33, 33)" stroke="none" stroke-width="1px">3.4</text><text x="0" y="0" dx="0em" dy="0.3em" style="text-anchor: end; visibility: hidden; font-family: Roboto, sans-serif; font-size: 12px; font-weight: 200;" fill="rgb(33, 33, 33)" stroke="none" stroke-width="1px">3.6</text></g><line x1="40" y1="0" x2="40" y2="177" fill="rgb(0, 0, 0)" stroke="rgb(204, 204, 204)" stroke-width="1px"></line></g></g><g transform="translate(40, 0)" clip-path="url(#clip_0)"><clipPath id="clip_0"><rect width="290" height="177"></rect></clipPath><g><g><g><line x1="0" y1="0" x2="0" y2="177" fill="rgb(0, 0, 0)" stroke="rgb(66, 66, 66)" stroke-width="1px" opacity="0.25"></line><line x1="24.166666666666664" y1="0" x2="24.166666666666664" y2="177" fill="rgb(0, 0, 0)" stroke="rgb(66, 66, 66)" stroke-width="1px" opacity="0.25"></line><line x1="48.33333333333333" y1="0" x2="48.33333333333333" y2="177" fill="rgb(0, 0, 0)" stroke="rgb(66, 66, 66)" stroke-width="1px" opacity="0.25"></line><line x1="72.5" y1="0" x2="72.5" y2="177" fill="rgb(0, 0, 0)" stroke="rgb(66, 66, 66)" stroke-width="1px" opacity="0.25"></line><line x1="96.66666666666666" y1="0" x2="96.66666666666666" y2="177" fill="rgb(0, 0, 0)" stroke="rgb(66, 66, 66)" stroke-width="1px" opacity="0.25"></line><line x1="120.83333333333334" y1="0" x2="120.83333333333334" y2="177" fill="rgb(0, 0, 0)" stroke="rgb(66, 66, 66)" stroke-width="1px" opacity="0.25"></line><line x1="145" y1="0" x2="145" y2="177" fill="rgb(0, 0, 0)" stroke="rgb(66, 66, 66)" stroke-width="1px" opacity="0.25"></line><line x1="169.16666666666669" y1="0" x2="169.16666666666669" y2="177" fill="rgb(0, 0, 0)" stroke="rgb(66, 66, 66)" stroke-width="1px" opacity="0.25"></line><line x1="193.33333333333331" y1="0" x2="193.33333333333331" y2="177" fill="rgb(0, 0, 0)" stroke="rgb(66, 66, 66)" stroke-width="1px" opacity="0.25"></line><line x1="217.5" y1="0" x2="217.5" y2="177" fill="rgb(0, 0, 0)" stroke="rgb(66, 66, 66)" stroke-width="1px" opacity="0.25"></line><line x1="241.66666666666669" y1="0" x2="241.66666666666669" y2="177" fill="rgb(0, 0, 0)" stroke="rgb(66, 66, 66)" stroke-width="1px" opacity="0.25"></line><line x1="265.8333333333333" y1="0" x2="265.8333333333333" y2="177" fill="rgb(0, 0, 0)" stroke="rgb(66, 66, 66)" stroke-width="1px" opacity="0.25"></line><line x1="290" y1="0" x2="290" y2="177" fill="rgb(0, 0, 0)" stroke="rgb(66, 66, 66)" stroke-width="1px" opacity="0.25"></line></g><g><line x1="0" y1="177" x2="290" y2="177" fill="rgb(0, 0, 0)" stroke="rgb(66, 66, 66)" stroke-width="1px" opacity="0.25"></line><line x1="0" y1="164.35714285714286" x2="290" y2="164.35714285714286" fill="rgb(0, 0, 0)" stroke="rgb(66, 66, 66)" stroke-width="1px" opacity="0.25"></line><line x1="0" y1="151.71428571428572" x2="290" y2="151.71428571428572" fill="rgb(0, 0, 0)" stroke="rgb(66, 66, 66)" stroke-width="1px" opacity="0.25"></line><line x1="0" y1="139.07142857142858" x2="290" y2="139.07142857142858" fill="rgb(0, 0, 0)" stroke="rgb(66, 66, 66)" stroke-width="1px" opacity="0.25"></line><line x1="0" y1="126.42857142857142" x2="290" y2="126.42857142857142" fill="rgb(0, 0, 0)" stroke="rgb(66, 66, 66)" stroke-width="1px" opacity="0.25"></line><line x1="0" y1="113.78571428571428" x2="290" y2="113.78571428571428" fill="rgb(0, 0, 0)" stroke="rgb(66, 66, 66)" stroke-width="1px" opacity="0.25"></line><line x1="0" y1="101.14285714285714" x2="290" y2="101.14285714285714" fill="rgb(0, 0, 0)" stroke="rgb(66, 66, 66)" stroke-width="1px" opacity="0.25"></line><line x1="0" y1="88.49999999999999" x2="290" y2="88.49999999999999" fill="rgb(0, 0, 0)" stroke="rgb(66, 66, 66)" stroke-width="1px" opacity="0.25"></line><line x1="0" y1="75.85714285714286" x2="290" y2="75.85714285714286" fill="rgb(0, 0, 0)" stroke="rgb(66, 66, 66)" stroke-width="1px" opacity="0.25"></line><line x1="0" y1="63.21428571428571" x2="290" y2="63.21428571428571" fill="rgb(0, 0, 0)" stroke="rgb(66, 66, 66)" stroke-width="1px" opacity="0.25"></line><line x1="0" y1="50.57142857142857" x2="290" y2="50.57142857142857" fill="rgb(0, 0, 0)" stroke="rgb(66, 66, 66)" stroke-width="1px" opacity="0.25"></line><line x1="0" y1="37.92857142857141" x2="290" y2="37.92857142857141" fill="rgb(0, 0, 0)" stroke="rgb(66, 66, 66)" stroke-width="1px" opacity="0.25"></line><line x1="0" y1="25.285714285714256" x2="290" y2="25.285714285714256" fill="rgb(0, 0, 0)" stroke="rgb(66, 66, 66)" stroke-width="1px" opacity="0.25"></line><line x1="0" y1="12.642857142857157" x2="290" y2="12.642857142857157" fill="rgb(0, 0, 0)" stroke="rgb(66, 66, 66)" stroke-width="1px" opacity="0.25"></line><line x1="0" y1="0" x2="290" y2="0" fill="rgb(0, 0, 0)" stroke="rgb(66, 66, 66)" stroke-width="1px" opacity="0.25"></line></g></g></g><g><g><line x1="0" y1="227.57142857142858" x2="290" y2="227.57142857142858" fill="rgb(0, 0, 0)" stroke="rgb(153, 153, 153)" stroke-width="1.5px"></line></g></g><g><g><line x1="24.166666666666664" y1="0" x2="24.166666666666664" y2="177" fill="rgb(0, 0, 0)" stroke="rgb(153, 153, 153)" stroke-width="1.5px"></line></g></g><g><g><g><g><g><path stroke="rgb(0, 119, 187)" stroke-width="2px" d="M26.583333333333332,19.203231658254335L26.583333333333332,31.04667103814543L26.583333333333332,40.648731476093104L26.583333333333332,52.350740781853006L26.583333333333332,59.81834918965984L26.583333333333332,65.16194201408587L26.583333333333332,69.14595654841237L29,77.93757339667135L29,84.78812062247299L29,90.40962913374491L29,95.018549253485L29,98.8920254808804L29,102.18580671982555L29,104.99200717403544L29,107.47772084200044L29,109.65514135615163L31.416666666666668,111.7893493021009L31.416666666666668,113.39947936219177L31.416666666666668,114.84479162848628L31.416666666666668,116.10740493853535L31.416666666666668,117.28789532428702L31.416666666666668,118.34221182230301L31.416666666666668,119.23501400759704L31.416666666666668,120.04748514863086L33.833333333333336,121.09179923611482L33.833333333333336,121.74397362693794L33.833333333333336,122.3914865642521L33.833333333333336,123.00463137561195L33.833333333333336,123.59374134848622L33.833333333333336,124.14423661561428L33.833333333333336,124.68076590772058L33.833333333333336,125.16873291990451L36.25,126.00104047684448L36.25,126.82113156392096L36.25,127.37499425905044L36.25,127.80986655879005L36.25,128.22122324347L36.25,128.60478123719926L36.25,129.00251513982855L36.25,129.3949434452972L36.25,129.73017908661703L38.666666666666664,130.1287326338075L38.666666666666664,130.55791945242166L38.666666666666664,130.88897465170425L38.666666666666664,131.21530835473405L38.666666666666664,131.54308835893372L38.666666666666664,131.86199614337434L38.666666666666664,132.1337126988314L38.666666666666664,132.38801015820448L38.666666666666664,132.6362513189298L41.083333333333336,132.76916999534762L41.083333333333336,132.9222768747268L41.083333333333336,133.07189743457306L41.083333333333336,133.2337821230941L41.083333333333336,133.37304402132366L41.083333333333336,133.52431894617922L41.083333333333336,133.70108518254455L41.083333333333336,133.8738993273081L43.5,133.99235742172402L43.5,134.11918251249796L43.5,134.31155748367L43.5,134.5271611941363L43.5,134.74486265176623L43.5,134.93458516754433L43.5,135.1157080074872L45.916666666666664,135.3605027989764L45.916666666666664,135.54989830374114L45.916666666666664,135.75496807354543L45.916666666666664,135.9465833492282L45.916666666666664,136.11775629765472L45.916666666666664,136.26853771788643L48.33333333333333,136.5629530556922L48.33333333333333,136.83349894800253L48.33333333333333,137.06588765091627L48.33333333333333,137.24092189849455L48.33333333333333,137.40599386749665L48.33333333333333,137.56280182001376L48.33333333333333,137.6975282486232L48.33333333333333,137.8084827134886L48.33333333333333,137.92485028802713L50.75,138.0863298883439L50.75,138.1433889654946L50.75,138.17728045184467L50.75,138.1860099679914L50.75,138.21161208173922L50.75,138.24825208142602L50.75,138.29635036057564L53.166666666666664,138.33240178700777L53.166666666666664,138.45709649866725L53.166666666666664,138.5941037504044L53.166666666666664,138.7120025737141L53.166666666666664,138.79063446961712L53.166666666666664,138.850952757058L53.166666666666664,138.91483241578882L53.166666666666664,138.9795446708498L53.166666666666664,139.04485695068018L53.166666666666664,139.11790077029315L55.583333333333336,139.17722094335468L55.583333333333336,139.25745443121937L55.583333333333336,139.33795156152263L55.583333333333336,139.40827425644923L55.583333333333336,139.45460938060504L55.583333333333336,139.4941877407366L55.583333333333336,139.51693536333482L55.583333333333336,139.53980479676235L55.583333333333336,139.55583831989892L55.583333333333336,139.5740148497164L55.583333333333336,139.58851456577705L55.583333333333336,139.60726458632817L55.583333333333336,139.63328582332926L58,139.67512232093756L58,139.7018210519156L58,139.746357079606L58,139.83658154712853L58,139.92363212922533L58,140.01663774159107L58,140.09267530427027L58,140.17233769422802L58,140.25382737962784L60.41666666666667,140.15064941715048L60.41666666666667,140.06623855832098L60.41666666666667,140.02191280462353L60.41666666666667,140.02835357863123L60.41666666666667,140.15326669576456L60.41666666666667,140.27159642426062L60.41666666666667,140.37807080337123L60.41666666666667,140.47005724877354L60.41666666666667,140.56426805843222L60.41666666666667,140.6842654059181L60.41666666666667,140.79033519489326L60.41666666666667,140.87526567838302L60.41666666666667,140.9599902084223L60.41666666666667,141.03303295672956L62.833333333333336,141.1807248917347L62.833333333333336,141.26808629181346L62.833333333333336,141.3279447099797L62.833333333333336,141.40454515839141L62.833333333333336,141.46813513162576L62.833333333333336,141.53338030614043L62.833333333333336,141.59346031272264L62.833333333333336,141.6537579760104L62.833333333333336,141.70312948440997L65.25,141.64078659408173L65.25,141.57508120036968L65.25,141.51019828243244L65.25,141.42734318649474L65.25,141.40483090505816L65.25,141.3790498551552L65.25,141.36170567271836L65.25,141.35285047521776L65.25,141.35949003019329L65.25,141.3924531208133L65.25,141.42436756738996L65.25,141.44918308169682L65.25,141.47544473422232L65.25,141.50304812828614L65.25,141.53423430852212L65.25,141.57223870830902L67.66666666666667,141.57470203004226L67.66666666666667,141.6038841729361L67.66666666666667,141.66094535693898L67.66666666666667,141.67500082897098L67.66666666666667,141.70808069294014L67.66666666666667,141.7480735771237L67.66666666666667,141.78401090009777L67.66666666666667,141.83443143537747L67.66666666666667,141.8998120371241L67.66666666666667,141.94640050307018L67.66666666666667,141.98854081938728L67.66666666666667,142.03616011836223L67.66666666666667,142.08054451702972L67.66666666666667,142.1289996485575L67.66666666666667,142.17047910873208L70.08333333333333,142.17274075026597L70.08333333333333,142.1950887199135L70.08333333333333,142.21167230348826L70.08333333333333,142.24680383928646L70.08333333333333,142.28308676095145L70.08333333333333,142.322675832081L70.08333333333333,142.36075947292522L70.08333333333333,142.39162802311392L72.5,142.52719380541672L72.5,142.66619001837103L72.5,142.75120029342636L72.5,142.85174670459722L72.5,142.92678222038245L72.5,142.98396775836525L72.5,143.05134825399327L72.5,143.12553730614823L72.5,143.19345604570884L72.5,143.26635489045208L72.5,143.33197334615957L72.5,143.39247738267017L72.5,143.45049324441428L74.91666666666667,143.6122238609459L74.91666666666667,143.71406062626644L74.91666666666667,143.75564848568155L74.91666666666667,143.8074209098238L74.91666666666667,143.83274023968963L74.91666666666667,143.84958684067485L74.91666666666667,143.8764010420331L74.91666666666667,143.90873330798283L74.91666666666667,143.94652926890097L74.91666666666667,143.98499565841763L74.91666666666667,144.0167973881946L74.91666666666667,144.04495427762942L74.91666666666667,144.06645637134187L77.33333333333333,144.14096435688592L77.33333333333333,144.20295991881207L77.33333333333333,144.20992387921672L77.33333333333333,144.2128413940741L77.33333333333333,144.20998712165806L77.33333333333333,144.21388150799788L77.33333333333333,144.22858050785285L77.33333333333333,144.2342317343578L77.33333333333333,144.2400114710078L77.33333333333333,144.2536250946456L77.33333333333333,144.24465398280398L77.33333333333333,144.23964012107308L77.33333333333333,144.23993387411613L77.33333333333333,144.24606035871415L77.33333333333333,144.25823358125172L79.75,144.3494173664678L79.75,144.4509292305899L79.75,144.52498707854144L79.75,144.5693924376258L79.75,144.58799835918774L79.75,144.59824631446946L79.75,144.62527084933777L79.75,144.64711972480112L79.75,144.67663159104765L79.75,144.69872550310433L82.16666666666667,144.665381740506L82.16666666666667,144.68904943508508L82.16666666666667,144.71523191186498L82.16666666666667,144.7294534365521L82.16666666666667,144.77005157824942L82.16666666666667,144.81588954716776L82.16666666666667,144.83279063453776L82.16666666666667,144.84906783439993L82.16666666666667,144.8583676671033L82.16666666666667,144.87918172632916L82.16666666666667,144.89905002490923L82.16666666666667,144.91621805195066L84.58333333333334,144.70252169277487L84.58333333333334,144.59445810021157L84.58333333333334,144.60785963424564L84.58333333333334,144.6593418113268L84.58333333333334,144.68495497277792L84.58333333333334,144.70470460245198L87,144.9012573042104L87,145.07072470429205L87,145.20245060437435L87,145.32866477722456L87,145.43295414906663L87,145.41056261767898L87,145.38910114322044L87,145.37696212491588L87,145.36524053571034L89.41666666666667,145.2733169726621L89.41666666666667,145.2140251986881L89.41666666666667,145.2199010433878L89.41666666666667,145.23948487769647L89.41666666666667,145.2602387106944L89.41666666666667,145.2853282084355L89.41666666666667,145.29718404067586L89.41666666666667,145.30471764290502L89.41666666666667,145.31481387886473L91.83333333333333,145.45124495599876L91.83333333333333,145.56277510141297L91.83333333333333,145.61562853497892L91.83333333333333,145.6839186547536L91.83333333333333,145.74272573425765L91.83333333333333,145.79122815700387L91.83333333333333,145.84928463718757L91.83333333333333,145.89931775689192L91.83333333333333,145.95086350327298L91.83333333333333,145.99831463871482L91.83333333333333,146.00840404471694L94.25,146.10465595460457L94.25,146.19903457670293L94.25,146.25629701169515L94.25,146.33007144727046L94.25,146.41555002382216L94.25,146.4795287344887L94.25,146.53759036782768L94.25,146.58699613841466L94.25,146.638483201247L94.25,146.67813487013734L94.25,146.70290843158733L94.25,146.72998322450272L94.25,146.76224679981337L94.25,146.79586853463175L96.66666666666666,146.68541888398968L96.66666666666666,146.55991540239208L96.66666666666666,146.55757044627634L96.66666666666666,146.5856853625744L96.66666666666666,146.61131993703617L99.08333333333333,146.70732628740868L99.08333333333333,146.8075405318361L99.08333333333333,146.85223582113193L99.08333333333333,146.85449171040034L99.08333333333333,146.83564779313076L99.08333333333333,146.86237531069074L99.08333333333333,146.89857608169493L99.08333333333333,146.93524260441626L99.08333333333333,146.97333123632666L99.08333333333333,146.99371187757035L101.5,146.6864767856161L101.5,146.59960773972333L101.5,146.57688269393458L101.5,146.62299641455883L101.5,146.70312101975023L101.5,146.77478276262383L101.5,146.8303449455511L101.5,146.8859421071105L103.91666666666667,146.90968090909087L103.91666666666667,146.972310800983L103.91666666666667,147.04600048579292L103.91666666666667,147.12716308860024L103.91666666666667,147.21014656092325L103.91666666666667,147.2904348782767L103.91666666666667,147.3697746912193L103.91666666666667,147.4419866508438L103.91666666666667,147.50616303109717L103.91666666666667,147.57196664702704L106.33333333333333,147.54901434813266L106.33333333333333,147.53321488790397L106.33333333333333,147.57067330075722L106.33333333333333,147.56795090718043L106.33333333333333,147.56953679043488L106.33333333333333,147.58232700542317L106.33333333333333,147.6011784810633L106.33333333333333,147.61491522573587L106.33333333333333,147.643768690028L108.75,147.63577963418123L108.75,147.61956124314491L108.75,147.65365033233243L108.75,147.6559135225896L108.75,147.67952493640837L108.75,147.69990116261388L108.75,147.72463192992842L108.75,147.7646248866543L108.75,147.7936103602966L111.16666666666667,147.82917475041188L111.16666666666667,147.86659578042978L111.16666666666667,147.91548400138197L111.16666666666667,147.9522557014569L111.16666666666667,147.9964498521137L111.16666666666667,148.064162408461L111.16666666666667,148.13048065359186L111.16666666666667,148.1860870439652L111.16666666666667,148.23176999609217L111.16666666666667,148.27848753612633L111.16666666666667,148.32378554388976L111.16666666666667,148.35752634232804L113.58333333333333,148.37592573451795L113.58333333333333,148.38376507425932L113.58333333333333,148.38056069241685L113.58333333333333,148.387472736359L113.58333333333333,148.38490474278674L113.58333333333333,148.38828084864207L113.58333333333333,148.4166476914577L113.58333333333333,148.44602985616123L113.58333333333333,148.49369745239648L113.58333333333333,148.53601033039035L113.58333333333333,148.58467847870568L113.58333333333333,148.63682349272023L113.58333333333333,148.68724632750613L113.58333333333333,148.73359942798083L116,148.6772823088319L116,148.75156856610897L116,148.82138203924757L116,148.87313375092688L116,148.9247315410419L116,148.9665746729805L116,149.01893706944662L116,149.0682702719911L116,149.11491564071116L116,149.15628942944733L116,149.19265484041543L116,149.22284030023428L116,149.25417132477142L116,149.2868121862559L116,149.31658853599782L116,149.35786653659247L118.41666666666667,149.37789504508L118.41666666666667,149.3506493542055L118.41666666666667,149.32798973321997L118.41666666666667,149.30564132192058L118.41666666666667,149.3107706918814L118.41666666666667,149.31858290487006L120.83333333333334,149.29898062548654L120.83333333333334,149.37960477909263L120.83333333333334,149.43233432849306L120.83333333333334,149.4774018220111L120.83333333333334,149.49698479209354L120.83333333333334,149.51116363295455L120.83333333333334,149.53841412140304L123.25,149.45908181641676L123.25,149.3724325012267L123.25,149.41028605574337L123.25,149.41454486958332L123.25,149.41410246188508L123.25,149.4052432872231L123.25,149.39657424755032L123.25,149.38634734318407L123.25,149.38567126907319L123.25,149.38657796798893L123.25,149.38949357198277L123.25,149.3925478695878L123.25,149.40189739976768L125.66666666666667,149.4193765911159L125.66666666666667,149.38044801354113L125.66666666666667,149.35212630265764L125.66666666666667,149.34699818371715L125.66666666666667,149.3559070603457L128.08333333333334,149.27236224299713L128.08333333333334,149.28168418113L128.08333333333334,149.27935097031403L128.08333333333334,149.33377447456107L128.08333333333334,149.39401064113673L128.08333333333334,149.44516647593792L128.08333333333334,149.52271679401127L128.08333333333334,149.58131286098316L128.08333333333334,149.6232301850518L128.08333333333334,149.68008766793415L128.08333333333334,149.72898212485993L130.5,149.87028484717337L130.5,149.93950641485736L130.5,150.0198696419264L130.5,150.07140293952804L130.5,150.1239311315251L130.5,150.18331512309476L130.5,150.2406466366503L130.5,150.30057950028086L130.5,150.34746456393358L130.5,150.39074125568013L130.5,150.43476177429406L132.91666666666666,150.4531605946414L132.91666666666666,150.52171665252507L132.91666666666666,150.55277210390923L132.91666666666666,150.5669139505073L132.91666666666666,150.59295974908164L132.91666666666666,150.60581903458788L132.91666666666666,150.60128380461435L132.91666666666666,150.5879671243896L132.91666666666666,150.58242774666243L132.91666666666666,150.6059910125627L135.33333333333334,150.6964580454539L135.33333333333334,150.7879646026523L135.33333333333334,150.84935724271458L135.33333333333334,150.9279720879733L135.33333333333334,151.00050700074675L135.33333333333334,151.07959254815407L135.33333333333334,151.11176977989103L135.33333333333334,151.15204153289127L135.33333333333334,151.19491420256182L135.33333333333334,151.2432923815763L135.33333333333334,151.28748150864172L135.33333333333334,151.31678683491546L135.33333333333334,151.34497429203248L135.33333333333334,151.36685339816216L135.33333333333334,151.38716455156256L135.33333333333334,151.40427930700488L137.75,151.47651448135483L137.75,151.56419688874354L137.75,151.63690672141337L137.75,151.73151965172352L137.75,151.80828524372367L137.75,151.8722676445071L137.75,151.9429438317129L137.75,151.99393487925698L137.75,152.04534771279808L137.75,152.08793148082253L137.75,152.1278804129566L137.75,152.1624498628197L137.75,152.19876782605286L137.75,152.23706262407842L140.16666666666666,152.35381953291142L140.16666666666666,152.45140035404395L140.16666666666666,152.4765262281142L140.16666666666666,152.53282469256197L140.16666666666666,152.58238890056762L140.16666666666666,152.61035260628412L140.16666666666666,152.60335134739026L140.16666666666666,152.5868388950459L140.16666666666666,152.56460916766852L140.16666666666666,152.54500824591358L140.16666666666666,152.52050837041705L140.16666666666666,152.50289131484658L140.16666666666666,152.49187586155213L142.58333333333331,152.52973857155965L142.58333333333331,152.54980963951033L142.58333333333331,152.58338494163186L142.58333333333331,152.61490205463727L142.58333333333331,152.65148078305523L142.58333333333331,152.6872105967504L142.58333333333331,152.72371380727216L142.58333333333331,152.74679210794105L142.58333333333331,152.77171910523066L142.58333333333331,152.79410398386688L142.58333333333331,152.8152746683721L142.58333333333331,152.83093056466365L142.58333333333331,152.84874297766203L142.58333333333331,152.86171378672455L145,152.6061340684952L145,152.59131554644L145,152.5925675094221L145,152.59024823832547L145,152.5876658835602L145,152.58505439620126L145,152.60223344944077L145,152.60745944818052L145,152.60850481376377L147.41666666666666,152.4131857368662L147.41666666666666,152.3986273724201L147.41666666666666,152.4161828652324L147.41666666666666,152.44673612321787L147.41666666666666,152.47531899416134L147.41666666666666,152.48186513726841L147.41666666666666,152.4905492873189L147.41666666666666,152.49244623261492L147.41666666666666,152.50496300847388L147.41666666666666,152.53622906117295L147.41666666666666,152.56792312791316L147.41666666666666,152.60011875819166L147.41666666666666,152.62991410886983L147.41666666666666,152.6402985955018L149.83333333333334,152.72914998952146L149.83333333333334,152.74108355291816L149.83333333333334,152.76686492558053L149.83333333333334,152.80071321530235L149.83333333333334,152.8306249501174L149.83333333333334,152.85964169587984L152.25,152.55103378683845L152.25,152.63154747658828L152.25,152.7045905228402L152.25,152.7627923647427L152.25,152.81928530992633L152.25,152.87320643159524L152.25,152.91254727404316L152.25,152.94938377681325L154.66666666666666,153.0457592367426L154.66666666666666,153.0815925907424L154.66666666666666,153.11746772017295L154.66666666666666,153.14263583158217L154.66666666666666,153.1828230912007L154.66666666666666,153.20895889115533L154.66666666666666,153.2515511240791L154.66666666666666,153.28730429083726L157.08333333333331,153.23826938411966L157.08333333333331,153.2865708610134L157.08333333333331,153.40322568211909L157.08333333333331,153.50276375993354L157.08333333333331,153.57886653978963L157.08333333333331,153.6492045140431L157.08333333333331,153.71962879892624L157.08333333333331,153.77158173464068L157.08333333333331,153.8208420733703L157.08333333333331,153.85844165980274L157.08333333333331,153.89615258358972L157.08333333333331,153.9338110275316L157.08333333333331,153.96620489039873L157.08333333333331,154.00089839334203L159.5,154.0862301684734L159.5,154.18730271823574L159.5,154.21802114820625L159.5,154.22972490752224L159.5,154.22813748436855L159.5,154.21430248509222L159.5,154.20529974267737L159.5,154.2116343489615L159.5,154.2326656599886L159.5,154.25476294561955L159.5,154.2750598190817L159.5,154.284006595053L159.5,154.30119774331095L161.91666666666666,154.14286844286147L161.91666666666666,154.14989057331752L161.91666666666666,154.1496713024434L161.91666666666666,154.15647989018584L161.91666666666666,154.17009116709295L161.91666666666666,154.1804932659232L161.91666666666666,154.19745545501743L161.91666666666666,154.21808946556467L161.91666666666666,154.23955649199516L161.91666666666666,154.2640590239354L161.91666666666666,154.28155237964847L161.91666666666666,154.29538962959984L161.91666666666666,154.29895785768298L164.33333333333334,154.22260307140925L164.33333333333334,154.1475374102177L164.33333333333334,154.12094921338016L164.33333333333334,154.10599440692235L164.33333333333334,154.1018697708606L164.33333333333334,154.11372327289268L164.33333333333334,154.14363239428906L164.33333333333334,154.1777984591794L164.33333333333334,154.21569287329825L164.33333333333334,154.25779274021855L164.33333333333334,154.29646019493762L166.75,154.36426409207957L166.75,154.46316091846728L166.75,154.53884403307976L166.75,154.59092552897232L166.75,154.64523862806868L166.75,154.7112489095793L166.75,154.78271406501884L166.75,154.85373479781953L169.16666666666669,154.92525042746522L169.16666666666669,154.976248824028L169.16666666666669,155.03557022892227L169.16666666666669,155.11686355515684L169.16666666666669,155.20790445476064L169.16666666666669,155.29540460436226L169.16666666666669,155.37897247062656L169.16666666666669,155.45640227696788L169.16666666666669,155.5262307833844L169.16666666666669,155.59462248128892L169.16666666666669,155.6557069111451L171.58333333333334,155.75536373894963L171.58333333333334,155.807336510812L171.58333333333334,155.8455848921772L171.58333333333334,155.88552406381638L171.58333333333334,155.9147108888692L174,155.96525882409927L174,155.97522430240255L174,156.0005900133469L174,156.01115967287396L174,156.03128365628436L174,156.04863129752624L174,156.0629307164181L174,156.0609327816864L174,156.07107721716076L176.41666666666666,156.0009694511222L176.41666666666666,155.95194077274067L176.41666666666666,155.9688305774512L176.41666666666666,156.00191191693946L176.41666666666666,156.03378191359602L176.41666666666666,156.04689578514103L176.41666666666666,156.07174383373535L176.41666666666666,156.0985419919524L176.41666666666666,156.11673052344125L176.41666666666666,156.1415005208511L176.41666666666666,156.17122676531048L176.41666666666666,156.18976331469725L178.83333333333334,156.31863017886894L178.83333333333334,156.36364781071262L178.83333333333334,156.3734800293946L178.83333333333334,156.3720110091157L178.83333333333334,156.40320257426308L178.83333333333334,156.43340350877483L178.83333333333334,156.45188498943583L178.83333333333334,156.46934782265117L178.83333333333334,156.4863482114956L178.83333333333334,156.5297123629699L178.83333333333334,156.58364595144064L181.25,156.63096352726834L181.25,156.71251626534917L181.25,156.75952214905521L181.25,156.80449386245326L181.25,156.84282365953922L181.25,156.88647503552184L181.25,156.91507959786958L183.66666666666666,157.02626564221578L183.66666666666666,157.10790276439135L183.66666666666666,157.1909259562111L183.66666666666666,157.27096753374974L183.66666666666666,157.32570390023503L183.66666666666666,157.36863193651436L183.66666666666666,157.42060262301658L183.66666666666666,157.4589756235551L183.66666666666666,157.48518929366162L183.66666666666666,157.50133689225837L183.66666666666666,157.48819921013072L183.66666666666666,157.4841572994501L183.66666666666666,157.46998223048584L183.66666666666666,157.46166771684545L186.08333333333334,157.52829842983138L186.08333333333334,157.55822072824225L186.08333333333334,157.55788416034062L186.08333333333334,157.57229338208043L186.08333333333334,157.63522625493536L186.08333333333334,157.67930387798955L186.08333333333334,157.72130384337004L186.08333333333334,157.76050863938073L186.08333333333334,157.79042017664085L186.08333333333334,157.8102389993654L188.5,157.89297665426946L188.5,157.94505881545695L188.5,157.98461231205727L188.5,158.00695352509223L188.5,158.0257123633766L188.5,158.0638567470116L188.5,158.08944215698338L188.5,158.11931117240863L190.91666666666666,158.0939230707393L190.91666666666666,158.06142841015907L190.91666666666666,158.01636681891685L190.91666666666666,157.96638353861854L190.91666666666666,157.9226605052228L190.91666666666666,157.90836905563532L190.91666666666666,157.89093614544043L190.91666666666666,157.88783934649263L190.91666666666666,157.87380328565453L190.91666666666666,157.86012163070117L190.91666666666666,157.84576498957387L193.33333333333331,157.82887036831778L193.33333333333331,157.84705115526938L193.33333333333331,157.86125699108646L193.33333333333331,157.88698453219394L193.33333333333331,157.9078857870365L193.33333333333331,157.95274327085474L193.33333333333331,157.99159642080792L195.75,158.09377575550076L195.75,158.17832965256687L195.75,158.22373000653405L195.75,158.26727104009277L195.75,158.31056303851693L195.75,158.36910626282966L195.75,158.4286729324261L195.75,158.48134231210972L195.75,158.53299011547531L195.75,158.57576545476692L195.75,158.61077622779567L198.16666666666666,158.64770259486153L198.16666666666666,158.66884418041408L198.16666666666666,158.7394998409599L198.16666666666666,158.80494752567955L198.16666666666666,158.8518882174278L198.16666666666666,158.9297641801018L198.16666666666666,158.97982002482155L198.16666666666666,159.0092937304612L198.16666666666666,159.03944294104036L198.16666666666666,159.0674840934024L200.58333333333334,159.13394839130967L200.58333333333334,159.1465179432642L200.58333333333334,159.12574565972963L200.58333333333334,159.10857225466972L200.58333333333334,159.08786381243414L200.58333333333334,159.08035986604528L200.58333333333334,159.0791730401514L200.58333333333334,159.08490420029315L200.58333333333334,159.08320568387603L200.58333333333334,159.07049799144204L203,159.2221823734848L203,159.31204449589302L203,159.42560731595105L203,159.51869973362707L203,159.59032267908415L203,159.65062076102845L203,159.703478958167L203,159.75770815208077L203,159.81134380324053L203,159.86738617358517L203,159.9074780835525L205.41666666666669,159.87378530820035L205.41666666666669,159.85799180204927L205.41666666666669,159.86356428221504L205.41666666666669,159.85959710287906L205.41666666666669,159.86161233214006L205.41666666666669,159.86984814712352L205.41666666666669,159.8720147219932L205.41666666666669,159.8860204913897L207.83333333333334,159.96415209041095L207.83333333333334,159.87983589842102L207.83333333333334,159.81971122935175L207.83333333333334,159.79353600862925L207.83333333333334,159.78953033376305L207.83333333333334,159.7781390999456L207.83333333333334,159.7600793590681L207.83333333333334,159.75506002890307L210.25,160.00463423614718L210.25,160.17067684116162L210.25,160.25218097211578L210.25,160.3180101471955L210.25,160.3983740098344L210.25,160.47715334337371L210.25,160.56115979553041L210.25,160.62535226912038L210.25,160.63674323288512L210.25,160.64272897046325L210.25,160.6502801375731L212.66666666666666,160.3906896547336L212.66666666666666,160.28466716051753L212.66666666666666,160.31656936557573L212.66666666666666,160.3610048239392L212.66666666666666,160.43438327474252L212.66666666666666,160.51050910039032L212.66666666666666,160.56348479240256L212.66666666666666,160.616277013913L212.66666666666666,160.67562735970859L212.66666666666666,160.72161163426395L212.66666666666666,160.76390597610353L215.08333333333334,160.80484407208465L215.08333333333334,160.86409040059783L215.08333333333334,160.91541213442147L215.08333333333334,160.94488723933355L215.08333333333334,160.9569584323774L215.08333333333334,160.9642855588714L215.08333333333334,160.9744388410931L215.08333333333334,160.98658142336885L215.08333333333334,160.98623265339324L215.08333333333334,160.99241219271372L217.5,161.08406460818202L217.5,161.14717605620345L217.5,161.2265386975232L217.5,161.2769322918457L217.5,161.31424940216974L217.5,161.356432701453L217.5,161.39056491259657L219.91666666666666,161.50162887095848L219.91666666666666,161.60347349871378L219.91666666666666,161.69305074967664L219.91666666666666,161.7919930278387L219.91666666666666,161.88292265709228L219.91666666666666,161.94686440067676L222.33333333333334,161.9536875172134L222.33333333333334,162.00103724934436L222.33333333333334,162.05202509496357L222.33333333333334,162.1150342592163L222.33333333333334,162.1478374335162L222.33333333333334,162.17071943530578L222.33333333333334,162.2033931885117L222.33333333333334,162.22896532830444L222.33333333333334,162.2409635638936L222.33333333333334,162.25928383257693L222.33333333333334,162.2789638783131L222.33333333333334,162.2921919960096L224.75,162.45691545995632L224.75,162.64564192278118L224.75,162.79269289038933L224.75,162.87960728820545L224.75,162.89324080281165L224.75,162.91693896958162L224.75,162.9234591480442L224.75,162.91302798986032L224.75,162.90823891818138L224.75,162.90577519017518L224.75,162.90827070335422L227.16666666666666,163.2138170499009L227.16666666666666,163.36403472380093L227.16666666666666,163.42671224884913L227.16666666666666,163.4644471179795L227.16666666666666,163.487968296373L227.16666666666666,163.48044479606426L227.16666666666666,163.46014875212438L229.58333333333331,163.42967845834465L229.58333333333331,163.44902741982423L229.58333333333331,163.49705656772755L229.58333333333331,163.53465587979167L229.58333333333331,163.58086891879537L229.58333333333331,163.60451130711016L229.58333333333331,163.62333671660053L229.58333333333331,163.63622692728612L229.58333333333331,163.64430047047338L232,163.73215766359672L232,163.7060400476085L232,163.65856573453516L232,163.62092475633102L232,163.5834273341055L232,163.53939716893038L232,163.491120564563L232,163.44626946217852L232,163.41974894508124L232,163.3995167321027L234.41666666666666,163.4418035123363L234.41666666666666,163.4544460476089L234.41666666666666,163.49227951920193L234.41666666666666,163.53093983184507L234.41666666666666,163.59936900337615L234.41666666666666,163.6409242055395L234.41666666666666,163.6613739291188L234.41666666666666,163.6822868357063L234.41666666666666,163.70322869207516L234.41666666666666,163.7235974530482L234.41666666666666,163.74636146170312L234.41666666666666,163.7613181487961L236.83333333333334,163.85536674307954L236.83333333333334,163.97578272280762L236.83333333333334,164.0722882687102L236.83333333333334,164.12003447732306L236.83333333333334,164.14857852417015L236.83333333333334,164.16646598324786L236.83333333333334,164.18981206662357L236.83333333333334,164.20845093662098L236.83333333333334,164.22543085355815L236.83333333333334,164.23663114645092L236.83333333333334,164.23797892753248L236.83333333333334,164.23641458145119L236.83333333333334,164.21286684926406L239.25,163.9877680321006L239.25,163.82019730640965L239.25,163.7374942845573L239.25,163.71161548501007L239.25,163.68652497795117L239.25,163.67744960755797L239.25,163.66070486543447L239.25,163.64786327220406L241.66666666666669,163.74006206775528L241.66666666666669,163.84079945378227L241.66666666666669,163.92935685195613L241.66666666666669,164.00163361875678L241.66666666666669,164.05885485982938L241.66666666666669,164.09146918252918L244.08333333333334,164.08642069567125L244.08333333333334,164.0882304541526L244.08333333333334,164.14804379832907L244.08333333333334,164.20183221357618L244.08333333333334,164.23482021115046L244.08333333333334,164.26508421373524L246.5,164.37566588601874L246.5,164.43924991718552L246.5,164.4852102593585L246.5,164.55096602629234L246.5,164.6163102046614L246.5,164.6556933229476L246.5,164.69835403739427L246.5,164.7344250853437L246.5,164.78313706833114L246.5,164.80713048668792L246.5,164.83615081950654L248.91666666666666,165.02058634233867L248.91666666666666,165.1018952840587L248.91666666666666,165.19468951130534L248.91666666666666,165.2144461614259L248.91666666666666,165.20372540648134L248.91666666666666,165.19082255144076L248.91666666666666,165.17840677721355L248.91666666666666,165.16639061801962L248.91666666666666,165.15507002859124L251.33333333333334,165.22273284112492L251.33333333333334,165.3023418835732L251.33333333333334,165.37762288834867L251.33333333333334,165.44300801931158L251.33333333333334,165.48028066394718L251.33333333333334,165.51644814758447L251.33333333333334,165.55036490968365L251.33333333333334,165.5672879248098L253.75,165.59344740764607L253.75,165.59124319620707L253.75,165.59553384265834L253.75,165.61689918233128L253.75,165.64048334048556L253.75,165.64645248662057L253.75,165.66103643699861L253.75,165.6882610821825L253.75,165.71194365481927L256.1666666666667,165.80173353101756L256.1666666666667,165.84973751286742L256.1666666666667,165.8798855132113L256.1666666666667,165.91168678713075L256.1666666666667,165.94739757317356L256.1666666666667,165.96352813527417L256.1666666666667,165.97686085259366L256.1666666666667,165.99711258834844L256.1666666666667,166.01919647542428L256.1666666666667,166.03897497277006L258.58333333333337,166.0216693400863L258.58333333333337,165.99609436541553L258.58333333333337,165.9748325895921L258.58333333333337,165.96319939016598L258.58333333333337,165.9440563605276L258.58333333333337,165.93351943680526L258.58333333333337,165.9158920549013L258.58333333333337,165.91564495794367L258.58333333333337,165.91610557532795L258.58333333333337,165.9353809799206L261,166.00824659030005L261,166.04614628125717L261,166.0784844781914L261,166.1024102322775L261,166.1159419632986L261,166.1181138916141L261,166.11053714079682L263.4166666666667,166.23495131871263L263.4166666666667,166.23623000772045L263.4166666666667,166.25046688065896L263.4166666666667,166.25887156974798L263.4166666666667,166.26935298854772L263.4166666666667,166.2775403818027L263.4166666666667,166.29141857890235L263.4166666666667,166.3122201705147L263.4166666666667,166.34803806264807L263.4166666666667,166.383582191035L263.4166666666667,166.4083410896469L265.8333333333333,166.44014305712352L265.8333333333333,166.4641916409794L265.8333333333333,166.470001582236L265.8333333333333,166.46935755278957L265.8333333333333,166.44870689975485L265.8333333333333,166.42510614601954L265.8333333333333,166.40290679204242L265.8333333333333,166.39300626940772L265.8333333333333,166.37699495190833L265.8333333333333,166.36320638094503L265.8333333333333,166.3557965263542L265.8333333333333,166.35672224280424L265.8333333333333,166.36180548046215" style="fill: none;" fill="none"></path></g></g></g></g><g opacity="0.2"><g><g><g><path stroke="rgb(0, 119, 187)" stroke-width="2px" d="M26.583333333333332,19.203231658254335L26.583333333333332,42.29793844904216L26.583333333333332,58.43654843739101L26.583333333333332,84.06172324929918L26.583333333333332,86.13704824447632L26.583333333333332,88.12957063743046L26.583333333333332,89.19851395062037L29,128.3275286895888L29,128.59745100566317L29,129.9021948490824L29,130.1569477404867L29,130.62663472550256L29,130.9509197984423L29,130.93954084600722L29,131.67409367220742L29,131.85931438207626L31.416666666666668,134.4921854393823L31.416666666666668,131.20061621495654L31.416666666666668,131.39784887858798L31.416666666666668,131.04447588750293L31.416666666666668,131.6766181417874L31.416666666666668,131.55209020205905L31.416666666666668,130.71007786478316L31.416666666666668,130.7397837127958L33.833333333333336,135.14013011966432L33.833333333333336,130.69806591102054L33.833333333333336,131.45221163545335L33.833333333333336,131.73793637752533L33.833333333333336,132.12481322458814L33.833333333333336,132.24049421719144L33.833333333333336,132.68678276027953L33.833333333333336,132.5496098654611L36.25,138.75156094346727L36.25,139.53542005164283L36.25,136.05863765307834L36.25,134.70016405412127L36.25,134.803833092962L36.25,134.800042620727L36.25,135.48338262523924L36.25,135.84244509254182L36.25,135.28110102244784L38.666666666666664,136.77674751622337L38.666666666666664,137.76668623515536L38.666666666666664,136.48596629926135L38.666666666666664,136.76663456644332L38.666666666666664,137.15161240952355L38.666666666666664,137.3488375374249L38.666666666666664,136.83300927707126L38.666666666666664,136.80772690262114L38.666666666666664,136.97081517321723L41.083333333333336,135.10030378614152L41.083333333333336,135.61866405180524L41.083333333333336,135.7172766157559L41.083333333333336,136.10667793239867L41.083333333333336,135.85319104364942L41.083333333333336,136.22741539989198L41.083333333333336,136.86967813968658L41.083333333333336,136.9809356587274L43.5,136.1281698346138L43.5,136.4120031084333L43.5,137.79829108715057L43.5,138.44434429918016L43.5,138.70921014036452L43.5,138.3969294854573L43.5,138.42790887185504L45.916666666666664,139.8458017025675L45.916666666666664,139.02654727016176L45.916666666666664,139.5259401031903L45.916666666666664,139.47600081988742L45.916666666666664,139.2756106853485L45.916666666666664,139.05436164992196L48.33333333333333,142.01025931324278L48.33333333333333,141.84590503999164L48.33333333333333,141.37685105630328L48.33333333333333,140.4918549145971L48.33333333333333,140.475419487272L48.33333333333333,140.48174196481705L48.33333333333333,140.2080216407776L48.33333333333333,139.8780395558902L48.33333333333333,140.0973971230643L50.75,141.10377126932144L50.75,139.21050197737557L50.75,138.81162071228027L50.75,138.34952220746447L50.75,138.69150871038437L50.75,138.93551565068108L50.75,139.1991230249405L53.166666666666664,139.00947884150912L53.166666666666664,140.80033756153924L53.166666666666664,141.1701459799494L53.166666666666664,140.92992951188768L53.166666666666664,140.27060587917055L53.166666666666664,139.98677260535104L53.166666666666664,140.11825602395194L53.166666666666664,140.19917469365257L53.166666666666664,140.2762953553881L53.166666666666664,140.4956453868321L55.583333333333336,140.2965212549482L55.583333333333336,140.77189018045152L55.583333333333336,140.85786532504218L55.583333333333336,140.73649485622133L55.583333333333336,140.33002511092593L55.583333333333336,140.24215849808286L55.583333333333336,139.94694627182824L55.583333333333336,139.97222864627838L55.583333333333336,139.85907965898514L55.583333333333336,139.917865889413L55.583333333333336,139.86287013122012L55.583333333333336,139.96211569649833L55.583333333333336,140.12584450415204L58,140.4671980057444L58,140.20738863945007L58,140.58983447722028L58,141.54563633884703L58,141.5728177172797L58,141.77889732803618L58,141.5336243850844L58,141.68217623233795L58,141.79849022626877L60.41666666666667,138.1946478826659L60.41666666666667,138.4658362013953L60.41666666666667,139.18142159496034L60.41666666666667,140.15049387727464L60.41666666666667,142.5222971013614L60.41666666666667,142.51597462381636L60.41666666666667,142.397761625903L60.41666666666667,142.21507292134422L60.41666666666667,142.3516203505652L60.41666666666667,142.96100469997953L60.41666666666667,142.80296536854337L60.41666666666667,142.48689424140113L60.41666666666667,142.56781291110175L60.41666666666667,142.41925352811813L62.833333333333336,143.98381427356173L62.833333333333336,142.92623484134674L62.833333333333336,142.46413633653094L62.833333333333336,142.85859412806374L62.833333333333336,142.67527242217744L62.833333333333336,142.77199351787567L62.833333333333336,142.73406618833542L62.833333333333336,142.79854189498084L62.833333333333336,142.64051009927476L65.25,140.45708505596434L65.25,140.32749310561587L65.25,140.27818682364057L65.25,139.85402318409513L65.25,140.9773367898805L65.25,140.88947017703737L65.25,141.03233254807336L65.25,141.18468240329196L65.25,141.48558410576413L65.25,142.01848079477037L65.25,142.030492748533L65.25,141.9204936964171L65.25,141.97423098768508L65.25,142.02732774189542L65.25,142.1265733071736L65.25,142.2940925870623L67.66666666666667,141.62149099792754L67.66666666666667,142.15818569489886L67.66666666666667,142.74481213944298L67.66666666666667,141.94198559863227L67.66666666666667,142.33644339016507L67.66666666666667,142.50776067801883L67.66666666666667,142.466668341841L67.66666666666667,142.79221941743577L67.66666666666667,143.14179440055574L67.66666666666667,142.83141274963106L67.66666666666667,142.7890619465283L67.66666666666667,142.94077126468932L67.66666666666667,142.9237103717668L67.66666666666667,143.0495043141501L67.66666666666667,142.95847269466947L70.08333333333333,142.21570592267173L70.08333333333333,142.61964366265704L70.08333333333333,142.52672057492393L70.08333333333333,142.91422288758415L70.08333333333333,142.97238365241458L70.08333333333333,143.07478668860028L70.08333333333333,143.0842741727829L70.08333333333333,142.97807312863213L72.5,145.1027044057846L72.5,145.30688501255852L72.5,144.36626011133194L72.5,144.76197636978966L72.5,144.3523491535868L72.5,144.07041488374983L72.5,144.33149025269915L72.5,144.53503785814559L72.5,144.48383257218768L72.5,144.6513518520764L72.5,144.57865466390336L72.5,144.54199333701814L72.5,144.55273928812574L74.91666666666667,146.68495904547828L74.91666666666667,145.6488715154784L74.91666666666667,144.54578380925315L74.91666666666667,144.7910567522049L74.91666666666667,144.31378882271903L74.91666666666667,144.16966044902802L74.91666666666667,144.38585300956453L74.91666666666667,144.52302590438296L74.91666666666667,144.66462980849403L74.91666666666667,144.7158350944519L74.91666666666667,144.62101300273622L74.91666666666667,144.5799206665584L74.91666666666667,144.4749856250627L77.33333333333333,145.5565814290728L77.33333333333333,145.38084820338656L77.33333333333333,144.34223620380675L77.33333333333333,144.26827301297868L77.33333333333333,144.15575702701295L77.33333333333333,144.28787344694138L77.33333333333333,144.5078564797129L77.33333333333333,144.34160320247923L77.33333333333333,144.34982468400682L77.33333333333333,144.51227995327542L77.33333333333333,144.07420535598482L77.33333333333333,144.14437807457787L77.33333333333333,144.24551510810852L77.33333333333333,144.36246210336685L77.33333333333333,144.48952204840523L79.75,146.08188963787896L79.75,146.37963386944364L79.75,145.93207178797041L79.75,145.4130860567093L79.75,144.94150760344098L79.75,144.79295575618744L79.75,145.13873273134232L79.75,145.0622450709343L79.75,145.2373528310231L79.75,145.1185068317822L82.16666666666667,144.03185455288207L82.16666666666667,145.13873273134232L82.16666666666667,145.21269592217038L82.16666666666667,144.99966083254134L82.16666666666667,145.5414120044027L82.16666666666667,145.68680638074875L82.16666666666667,145.15390969174248L82.16666666666667,145.158333165305L82.16666666666667,145.0350636925016L82.16666666666667,145.27464715923583L82.16666666666667,145.27654616321837L82.16666666666667,145.2424093059131L84.58333333333334,140.64230576583316L84.58333333333334,142.54125699826648L84.58333333333334,144.8624879377229L84.58333333333334,145.63750009877342L84.58333333333334,145.17160358599256L84.58333333333334,145.07994650091445L87,148.635748565197L87,148.29059705563952L87,147.70523661375046L87,147.7267285159656L87,147.41444786105836L87,144.98512440919876L87,144.98133393696378L87,145.14632121154239L87,145.1425307393074L89.41666666666667,143.526772243636L89.41666666666667,144.08748331240247L89.41666666666667,145.33154192141126L89.41666666666667,145.61157718726565L89.41666666666667,145.65456099169594L89.41666666666667,145.76202803850174L89.41666666666667,145.52244457176755L89.41666666666667,145.44785591534207L89.41666666666667,145.50664214576994L91.83333333333333,148.04343264443534L91.83333333333333,147.68184570755278L91.83333333333333,146.61984280177523L91.83333333333333,146.98142973865782L91.83333333333333,146.86005926983697L91.83333333333333,146.71277342523848L91.83333333333333,146.95235689197267L91.83333333333333,146.84994632005692L91.83333333333333,146.93023198843002L91.83333333333333,146.89988560335976L91.83333333333333,146.20010263579232L94.25,147.9334411280496L94.25,147.99222735847746L94.25,147.3442826781954L94.25,147.73178499085563L94.25,148.03964217220033L94.25,147.6951236639704L94.25,147.64076090710503L94.25,147.52570538009917L94.25,147.61673699957984L94.25,147.431516289711L94.25,147.17360592739922L94.25,147.2444041115897L94.25,147.37525452886308L94.25,147.43468129634857L96.66666666666666,144.58687614543098L96.66666666666666,144.17534992524554L96.66666666666666,146.51301629202706L96.66666666666666,147.1198686361313L96.66666666666666,147.09837673391615L99.08333333333333,148.53144652502877L99.08333333333333,148.7116107600076L99.08333333333333,147.70144614151548L99.08333333333333,146.8973535980497L99.08333333333333,146.4776134320668L99.08333333333333,147.37019805397307L99.08333333333333,147.58639061450958L99.08333333333333,147.6319064242499L99.08333333333333,147.69701513222287L99.08333333333333,147.38094400508064L101.5,140.84901084218706L101.5,144.94909608364105L101.5,146.14510687759946L101.5,147.499157002994L101.5,148.2254883476666L101.5,148.13635573216845L101.5,147.8860263143267L101.5,147.9422880751746L103.91666666666667,147.3607181055205L103.91666666666667,148.16227864367622L103.91666666666667,148.44610438176562L103.91666666666667,148.66925242117475L103.91666666666667,148.7868324177606L103.91666666666667,148.8159128001758L103.91666666666667,148.87723103591372L103.91666666666667,148.81401379619325L103.91666666666667,148.72551418202264L103.91666666666667,148.82223527772086L106.33333333333333,147.1129206929888L106.33333333333333,147.23302515915464L106.33333333333333,148.28238310984204L106.33333333333333,147.5162254316466L106.33333333333333,147.5996685709272L106.33333333333333,147.82534107991626L106.33333333333333,147.95935650382722L106.33333333333333,147.87591336454665L106.33333333333333,148.19198449168886L108.75,147.4839875783239L108.75,147.3114118235452L108.75,148.30134300674712L108.75,147.69891413620542L108.75,148.12814178637097L108.75,148.08704945019315L108.75,148.19451649699892L108.75,148.5244910461562L108.75,148.3443343469075L111.16666666666667,148.5048981479236L111.16666666666667,148.57759533609664L111.16666666666667,148.8443601812635L111.16666666666667,148.65091798986708L111.16666666666667,148.8361386997359L111.16666666666667,149.35070095743453L111.16666666666667,149.39052729095732L111.16666666666667,149.2426084450313L111.16666666666667,149.09974607399533L111.16666666666667,149.16612078462327L111.16666666666667,149.18444768020083L111.16666666666667,148.99860150473458L113.58333333333333,148.72551418202264L113.58333333333333,148.5327125276838L113.58333333333333,148.31967743805478L113.58333333333333,148.51880156993866L113.58333333333333,148.33611286537987L113.58333333333333,148.4524268593107L113.58333333333333,148.9556177003043L113.58333333333333,149.00429098095213L113.58333333333333,149.39938177381245L113.58333333333333,149.33995500632693L113.58333333333333,149.5093732901982L113.58333333333333,149.62757875238148L113.58333333333333,149.6452801823616L113.58333333333333,149.6143083316939L116,147.6072570511273L116,150.16300744669778L116,150.1478380220277L116,149.8564162680081L116,149.90508954865592L116,149.76159417629242L116,150.01382259811675L116,150.00560111658913L116,150.0011776430266L116,149.94239141259877L116,149.88359764644076L116,149.7963640349252L116,149.84946078913552L116,149.90698855263847L116,149.88233917951584L116,150.14214854581016L118.41666666666667,149.75843670538495L118.41666666666667,148.83298122882843L118.41666666666667,148.89745693547385L118.41666666666667,148.88102150814873L118.41666666666667,149.40822872093747L118.41666666666667,149.46701495136534L120.83333333333334,148.92653731788909L120.83333333333334,150.91146369491307L120.83333333333334,150.43419576542718L120.83333333333334,150.33368419749397L120.83333333333334,149.8690612230982L120.83333333333334,149.7805616089276L120.83333333333334,150.05617340121952L123.25,147.95176802362715L123.25,147.72609551463808L123.25,150.12950359072005L123.25,149.49546233245303L123.25,149.4056967156274L123.25,149.23691896881377L123.25,149.23186249392373L123.25,149.19203616040093L123.25,149.37282586097717L123.25,149.40380524737495L123.25,149.4448900478227L123.25,149.45057952404022L123.25,149.57953847306115L125.66666666666667,149.75148122651237L125.66666666666667,148.640805040087L125.66666666666667,148.81401379619325L125.66666666666667,149.24956392390388L125.66666666666667,149.5251757161958L128.08333333333334,147.68501071419035L128.08333333333334,149.4588010055678L128.08333333333334,149.23501996483122L128.08333333333334,150.36782105479924L128.08333333333334,150.5384978055954L128.08333333333334,150.41712733677457L128.08333333333334,150.99617283684867L128.08333333333334,150.694638133049L128.08333333333334,150.41965934208463L128.08333333333334,150.76037984234947L128.08333333333334,150.6579768061638L130.5,152.55503657034467L130.5,151.25471620048796L130.5,151.5467709558351L130.5,151.05053559371402L130.5,151.12196677923203L130.5,151.3116109626634L130.5,151.32994539397103L130.5,151.43930390902926L130.5,151.23828077316284L130.5,151.2129983987127L130.5,151.27115162781308L132.91666666666666,150.80273818118232L132.91666666666666,151.82428175210953L132.91666666666666,151.14282568011967L132.91666666666666,150.83560903583256L132.91666666666666,151.08782992192675L132.91666666666666,150.8501454591751L132.91666666666666,150.5151144351278L132.91666666666666,150.334950200149L132.91666666666666,150.47717956985747L132.91666666666666,151.0536930646215L135.33333333333334,152.41533167021615L135.33333333333334,152.52658918925692L135.33333333333334,152.01581740379333L135.33333333333334,152.42165414776122L135.33333333333334,152.37867034333092L135.33333333333334,152.58221794877736L135.33333333333334,151.7231371828488L135.33333333333334,151.91720483984267L135.33333333333334,152.0094949262483L135.33333333333334,152.1624777827944L135.33333333333334,152.12707492283414L135.33333333333334,151.87358803408486L135.33333333333334,151.88053597722737L135.33333333333334,151.7825564146042L135.33333333333334,151.77307646615165L135.33333333333334,151.72945966039387L137.75,152.84898279394423L137.75,153.23016262905938L137.75,153.0183935420854L137.75,153.52916532754898L137.75,153.26683149167468L137.75,153.08793325935093L137.75,153.28579138857978L137.75,152.962764782565L137.75,153.02219155005048L137.75,152.89702307326453L137.75,152.88691012348448L137.75,152.81926941020149L137.75,152.88880912746703L137.75,152.96466378654753L140.16666666666666,154.57220080069135L140.16666666666666,154.30543595552444L140.16666666666666,152.95391783543994L140.16666666666666,153.60249551704953L140.16666666666666,153.52410885265897L140.16666666666666,153.14166301488876L140.16666666666666,152.47032742840904L140.16666666666666,152.2731023005077L140.16666666666666,152.1422443475042L140.16666666666666,152.17259073257446L140.16666666666666,152.05501073598862L140.16666666666666,152.16816725901197L140.16666666666666,152.28258224896024L142.58333333333331,153.24913006169456L142.58333333333331,152.9311599305698L142.58333333333331,153.22131568193436L142.58333333333331,153.2137272017343L142.58333333333331,153.3464766229902L142.58333333333331,153.3660770569529L142.58333333333331,153.41727480718066L142.58333333333331,153.18527982064654L142.58333333333331,153.24533205372947L142.58333333333331,153.2194166779518L142.58333333333331,153.21751767396927L142.58333333333331,153.12839259420124L142.58333333333331,153.1871788246291L142.58333333333331,153.108159158911L145,147.75011942216327L145,152.30976362739293L145,152.6163548060826L145,152.54618208748954L145,152.53860114301955L145,152.53543613638197L145,152.92863546098982L145,152.70675342423576L145,152.6283667598452L147.41666666666666,148.70212327582496L147.41666666666666,152.1220184479441L147.41666666666666,152.74973722866605L147.41666666666666,153.0272480249405L147.41666666666666,153.0183935420854L147.41666666666666,152.60624185630252L147.41666666666666,152.65554813827788L147.41666666666666,152.52848819323947L147.41666666666666,152.74278174979347L147.41666666666666,153.13028406245368L147.41666666666666,153.17011039597648L147.41666666666666,153.21183573348182L147.41666666666666,153.19602577175414L147.41666666666666,152.83760384150912L149.83333333333334,154.41732647589276L149.83333333333334,152.96782125745503L149.83333333333334,153.25671100616455L149.83333333333334,153.44383072001594L149.83333333333334,153.39894791160313L149.83333333333334,153.41095986536573L152.25,146.68748351505826L152.25,154.16130758183343L152.25,154.0924084016255L152.25,153.8686273608889L152.25,153.89265126841408L152.25,153.89770774330412L152.25,153.66002328055245L152.25,153.64927732944489L154.66666666666666,154.87689297539848L154.66666666666666,153.76242631673813L154.66666666666666,153.79909517935346L154.66666666666666,153.62082994835717L154.66666666666666,153.94638102395194L154.66666666666666,153.7055390902928L154.66666666666666,154.06080354963032L154.66666666666666,153.96661445924212L157.08333333333331,152.30660615648543L157.08333333333331,154.2042989219938L157.08333333333331,155.6196672831263L157.08333333333331,155.39398723840714L157.08333333333331,155.02481935705458L157.08333333333331,154.9856260248593L157.08333333333331,155.0576902117048L157.08333333333331,154.75868751321522L157.08333333333331,154.75678850923268L157.08333333333331,154.57283380201886L157.08333333333331,154.61266013554166L157.08333333333331,154.64932146242688L157.08333333333331,154.58168828487396L157.08333333333331,154.66007494926453L159.5,155.7075338959694L159.5,156.10768116371972L159.5,154.80167131764549L159.5,154.45209633452552L159.5,154.19797644444873L159.5,153.95143749884198L159.5,154.03424763679504L159.5,154.33199186835972L159.5,154.63226056950433L159.5,154.6746113726071L159.5,154.66070041486194L159.5,154.45399533850807L159.5,154.62782956021172L161.91666666666666,151.13461173432214L161.91666666666666,154.2833110519818L161.91666666666666,154.14550515583585L161.91666666666666,154.28584305729186L161.91666666666666,154.42870542832782L161.91666666666666,154.37813314369748L161.91666666666666,154.51973704780852L161.91666666666666,154.61013566596168L161.91666666666666,154.64742999417442L161.91666666666666,154.7296071308L161.91666666666666,154.6139261381967L161.91666666666666,154.5582973786763L161.91666666666666,154.3667541912624L164.33333333333334,152.7718621322087L164.33333333333334,152.7212898475783L164.33333333333334,153.61577347346713L164.33333333333334,153.82185308422362L164.33333333333334,154.02350168568748L164.33333333333334,154.3389398115022L164.33333333333334,154.71190570081984L164.33333333333334,154.82695369209563L164.33333333333334,154.93568674155642L164.33333333333334,155.0576902117048L164.33333333333334,155.03114183459965L166.75,155.65253813777653L166.75,156.34220061983382L166.75,155.97682321071625L166.75,155.580473950931L166.75,155.67718751089913L166.75,155.96544425828117L166.75,156.14055201836993L166.75,156.20312872103284L169.16666666666669,156.28404739073346L169.16666666666669,155.94521835872104L169.16666666666669,156.1626769219126L169.16666666666669,156.66143675361363L169.16666666666669,156.93768154723304L169.16666666666669,156.95790744679314L169.16666666666669,156.96676192964827L169.16666666666669,156.927568597453L169.16666666666669,156.85297240529744L169.16666666666669,156.89406474147526L169.16666666666669,156.8163110784122L171.58333333333334,157.64884346723557L171.58333333333334,156.79481917619705L171.58333333333334,156.57230413811547L171.58333333333334,156.64436832496096L171.58333333333334,156.4692605648722L174,156.92566959347045L174,156.16456839016507L174,156.48253852128983L174,156.21198320388794L174,156.41363934108188L174,156.3782364811216L174,156.3346196753638L174,156.02297202178408L174,156.26382149117333L176.41666666666666,154.66892189638955L176.41666666666666,155.02039588349206L176.41666666666666,156.289736866951L176.41666666666666,156.63045736721585L176.41666666666666,156.63931185007095L176.41666666666666,156.29605934449603L176.41666666666666,156.54385675702778L176.41666666666666,156.60770699807574L176.41666666666666,156.46231262172972L176.41666666666666,156.61213047163827L176.41666666666666,156.7360254100391L176.41666666666666,156.54195775304524L178.83333333333334,158.76710059813092L178.83333333333334,157.2189828157425L178.83333333333334,156.56029218435287L178.83333333333334,156.34409962381636L178.83333333333334,156.99584231206347L178.83333333333334,157.00722126449858L178.83333333333334,156.80303312199456L178.83333333333334,156.8011416537421L178.83333333333334,156.80935559953963L178.83333333333334,157.35363124098097L178.83333333333334,157.60838413238525L181.25,157.5299974679947L181.25,158.26201828888486L181.25,157.65263393947055L181.25,157.65895641701562L181.25,157.57108980417252L181.25,157.71585117919105L181.25,157.45856628247668L183.66666666666666,159.13880048479353L183.66666666666666,158.6590080857277L183.66666666666666,158.76836660078595L183.66666666666666,158.79175750698363L183.66666666666666,158.36569486345564L183.66666666666666,158.1842646258218L183.66666666666666,158.40804566655842L183.66666666666666,158.1880626337869L183.66666666666666,157.98324902568547L183.66666666666666,157.80814126559665L183.66666666666666,157.2385832497052L183.66666666666666,157.40736099651883L183.66666666666666,157.20065592016493L183.66666666666666,157.3036919576781L186.08333333333334,158.7942819765636L186.08333333333334,158.12674439804894L186.08333333333334,157.55148937020985L186.08333333333334,157.8460685951369L186.08333333333334,158.8309508391789L186.08333333333334,158.51677871601922L186.08333333333334,158.5193031855992L186.08333333333334,158.50539976358414L186.08333333333334,158.35873938458306L186.08333333333334,158.18679663113187L188.5,159.4649920974459L188.5,158.9346198780196L188.5,158.73612874746323L188.5,158.43143657275607L188.5,158.38213029078076L188.5,158.78860003607613L188.5,158.57556494644712L188.5,158.6868224654879L190.91666666666666,157.61154913902283L190.91666666666666,157.44402985913413L190.91666666666666,157.16019658531462L190.91666666666666,157.01670121295112L190.91666666666666,157.0919228707041L190.91666666666666,157.63683151347297L190.91666666666666,157.55971085173744L190.91666666666666,157.8290001664843L190.91666666666666,157.60711812973022L190.91666666666666,157.60017018658775L190.91666666666666,157.57298880815506L193.33333333333331,157.50787256445204L193.33333333333331,158.1924861073494L193.33333333333331,158.13116787161147L193.33333333333331,158.3758078132357L193.33333333333331,158.30500962904523L193.33333333333331,158.80503546340125L193.33333333333331,158.72980626991819L195.75,160.0351831146649L195.75,159.78485369682312L195.75,159.0863367319107L195.75,159.0945506777082L195.75,159.13311100857598L195.75,159.481427524771L195.75,159.560439654759L195.75,159.4820605260985L195.75,159.51429837942123L195.75,159.3884969013078L195.75,159.27598091534207L198.16666666666666,159.34930356911252L198.16666666666666,159.07053430591313L198.16666666666666,160.08195739133018L198.16666666666666,160.04845353535245L198.16666666666666,159.7437613606453L198.16666666666666,160.40940747090747L198.16666666666666,159.93088107449668L198.16666666666666,159.56929413761412L198.16666666666666,159.61227794204441L198.16666666666666,159.6002659882818L200.58333333333334,160.39677005154746L200.58333333333334,159.3853394304003L200.58333333333334,158.73107227257321L200.58333333333334,158.78227755853106L200.58333333333334,158.69440340995789L200.58333333333334,158.93778488465716L200.58333333333334,159.05662334816796L200.58333333333334,159.19379624298642L200.58333333333334,159.0509338719504L200.58333333333334,158.82905183519637L203,162.10418563229697L203,161.0194248216493L203,161.5833008970533L203,161.2874556694712L203,160.95115864276886L203,160.79628431797028L203,160.70778470379966L203,160.7880628364427L203,160.83042117527555L203,160.9321912101337L203,160.6692243729319L205.41666666666669,159.23362257650922L205.41666666666669,159.557915185179L205.41666666666669,159.96944140536445L205.41666666666669,159.7842206954956L205.41666666666669,159.8999016880989L205.41666666666669,160.02632863180978L205.41666666666669,159.91317964451653L205.41666666666669,160.15213010992323L207.83333333333334,161.44865247181485L207.83333333333334,158.27782825061252L207.83333333333334,158.67734251703536L207.83333333333334,159.29620681490218L207.83333333333334,159.7134225113051L207.83333333333334,159.56170565741402L207.83333333333334,159.41694428239552L207.83333333333334,159.65969275576728L210.25,164.74654417378562L210.25,163.32548633643557L210.25,161.80075946024488L210.25,161.56876447371076L210.25,161.92528739997317L210.25,161.97396068062102L210.25,162.1572823865073L210.25,161.84500926733017L210.25,160.85317154441563L210.25,160.75645798444748L210.25,160.79375231266022L212.66666666666666,155.45847048078267L212.66666666666666,158.27023977041245L212.66666666666666,160.92271126168114L212.66666666666666,161.20527853284565L212.66666666666666,161.82857384000508L212.66666666666666,161.9568997876985L212.66666666666666,161.57002294063568L212.66666666666666,161.61932922261101L212.66666666666666,161.80328392982483L212.66666666666666,161.59531285081593L212.66666666666666,161.56749847105573L215.08333333333334,161.5826678957258L215.08333333333334,161.9897706423487L215.08333333333334,161.8905250770705L215.08333333333334,161.50491423266274L215.08333333333334,161.18631110021045L215.08333333333334,161.10350096225739L215.08333333333334,161.1673512033054L215.08333333333334,161.21729048660825L215.08333333333334,160.97960602385658L215.08333333333334,161.10982343980243L217.5,162.82546050207955L217.5,162.34629356861115L217.5,162.73442888259888L217.5,162.23441058397293L217.5,162.02327449832646L217.5,162.1579153878348L217.5,162.03907692432404L219.91666666666666,163.6118440798351L219.91666666666666,163.53852142606465L219.91666666666666,163.39501851797104L219.91666666666666,163.67189631291797L219.91666666666666,163.61058561291014L219.91666666666666,163.1617575287819L222.33333333333334,162.08332673140933L222.33333333333334,162.90068215983254L222.33333333333334,163.02079416172845L222.33333333333334,163.31220838001798L222.33333333333334,162.7710977452142L222.33333333333334,162.60547746930806L222.33333333333334,162.82419449942452L222.33333333333334,162.7148359843663L222.33333333333334,162.468930040087L222.33333333333334,162.6073689375605L222.33333333333334,162.65288474730085L222.33333333333334,162.54352623224258L224.75,165.58666127494405L224.75,166.23144471645355L224.75,165.58666127494405L224.75,164.53098084671157L224.75,163.15227758032935L224.75,163.36720413821084L224.75,163.04734253883362L224.75,162.7148359843663L224.75,162.81724655628204L224.75,162.85896435805728L224.75,162.95568545375554L227.16666666666666,169.01919763428825L227.16666666666666,166.21817052790095L227.16666666666666,164.6175852247647L227.16666666666666,164.18140963145663L227.16666666666666,163.9348706858499L227.16666666666666,163.3374982901982L227.16666666666666,163.0745239172663L229.58333333333331,162.8507428765297L229.58333333333331,163.81665768793653L229.58333333333331,164.40961037789074L229.58333333333331,164.24904280900955L229.58333333333331,164.45891665986608L229.58333333333331,164.05371668509076L229.58333333333331,163.98101949691772L229.58333333333331,163.88114093031203L229.58333333333331,163.79769779103142L232,165.40144433294026L232,163.20980534383227L232,162.75655378614155L232,162.90574617045266L232,162.8709763118199L232,162.70282403060367L232,162.57386508158277L232,162.59409851687295L232,162.91585912023274L232,163.0151046855109L234.41666666666666,164.24525233677457L234.41666666666666,163.69465421778816L234.41666666666666,164.2111154794693L234.41666666666666,164.26548577206475L234.41666666666666,164.8995232624667L234.41666666666666,164.4304730466434L234.41666666666666,164.04991867712567L234.41666666666666,164.07963206086842L234.41666666666666,164.10112396308352L234.41666666666666,164.1106039115361L234.41666666666666,164.17887762614657L234.41666666666666,164.04549520356315L236.83333333333334,165.64229003446442L236.83333333333334,166.2636863376413L236.83333333333334,165.9058936408588L236.83333333333334,165.02721244096756L236.83333333333334,164.69091541426522L236.83333333333334,164.50632770572392L236.83333333333334,164.6333876507623L236.83333333333334,164.5625894665718L236.83333333333334,164.54804927536418L236.83333333333334,164.44943671141354L236.83333333333334,164.2635867680822L236.83333333333334,164.2066920059068L236.83333333333334,163.76545993770873L239.25,159.71089050599505L239.25,160.63635351828168L239.25,162.16613686936242L239.25,163.21991829361235L239.25,163.20980534383227L239.25,163.5050175700869L239.25,163.34255476508824L239.25,163.40387300082614L241.66666666666669,165.49183918322836L241.66666666666669,165.7548097882952L241.66666666666669,165.61194741725922L241.66666666666669,165.37489218797003L241.66666666666669,165.14605844020844L241.66666666666669,164.71114131382535L244.08333333333334,163.99049944537026L244.08333333333334,164.12261586529868L244.08333333333334,165.28449733768193L244.08333333333334,165.22381210327148L244.08333333333334,164.8615921650614L244.08333333333334,164.84010026284625L246.5,166.4767176594053L246.5,165.64734650935446L246.5,165.3584567606449L246.5,165.80032559803556L246.5,165.85784959367345L246.5,165.40397257038524L246.5,165.508907611881L246.5,165.41977499638287L246.5,165.7086647450924L246.5,165.26300543546677L246.5,165.38753714306014L248.91666666666666,168.52486127614975L248.91666666666666,166.646765176739L248.91666666666666,166.9577798289912L248.91666666666666,165.58982251371657L248.91666666666666,165.00003106253487L248.91666666666666,164.94566830566953L248.91666666666666,164.94250706689698L248.91666666666666,164.93808359333445L248.91666666666666,164.93997882945197L251.33333333333334,166.50832627926556L251.33333333333334,166.81491369009018L251.33333333333334,166.80796197908265L251.33333333333334,166.68532550760676L251.33333333333334,166.1884609120233L251.33333333333334,166.20363033669335L251.33333333333334,166.19478338956833L251.33333333333334,165.88882521220614L253.75,166.09047758153508L253.75,165.54936317886626L253.75,165.67705612523216L253.75,166.02284063611714L253.75,166.08858234541756L253.75,165.75986626318524L253.75,165.9381314941815L253.75,166.2055293406759L253.75,166.1619125349181L256.1666666666667,167.50774117878507L256.1666666666667,166.76181316801478L256.1666666666667,166.45269751974513L256.1666666666667,166.51591099160058L256.1666666666667,166.62590250798632L256.1666666666667,166.27000881518637L256.1666666666667,166.23018248166358L256.1666666666667,166.38189556768964L256.1666666666667,166.43879032986504L256.1666666666667,166.41476642233985L258.58333333333337,165.69286231909481L258.58333333333337,165.51016984667098L258.58333333333337,165.57085884894644L258.58333333333337,165.74216860107015L258.58333333333337,165.58033879739898L258.58333333333337,165.73331788608004L258.58333333333337,165.5809717987265L258.58333333333337,165.91095011574882L258.58333333333337,165.92485730562893L258.58333333333337,166.30161366718156L261,167.39269318750928L261,166.76624040944236L261,166.69291021994184L261,166.55699955991338L261,166.37304485269954L261,166.15938052960803L261,165.9665788752692L263.4166666666667,168.59882069911276L263.4166666666667,166.26052509886878L263.4166666666667,166.52096746649062L263.4166666666667,166.4185606624399L263.4166666666667,166.46849994574276L263.4166666666667,166.4331008536475L263.4166666666667,166.55510432379586L263.4166666666667,166.70745041114944L263.4166666666667,167.0285780131817L263.4166666666667,167.0589206303869L263.4166666666667,166.8787601632731L265.8333333333333,167.0443804391793L265.8333333333333,166.92111473424094L265.8333333333333,166.58039046611106L265.8333333333333,166.45712099330765L265.8333333333333,166.05634449209487L265.8333333333333,165.97669182504927L265.8333333333333,165.98111906647682L265.8333333333333,166.20489633934838L265.8333333333333,166.07277991942L265.8333333333333,166.10122353264262L265.8333333333333,166.21500928912846L265.8333333333333,166.37431085535457L265.8333333333333,166.45838699596268" style="fill: none;" fill="none"></path></g></g></g></g></g></g><g transform="translate(40, 177)" clip-path="url(#clip_1)"><clipPath id="clip_1"><rect width="290" height="23"></rect></clipPath><g><g><line x1="0" y1="0" x2="0" y2="5" style="visibility: inherit;" fill="rgb(0, 0, 0)" stroke="rgb(204, 204, 204)" stroke-width="1px"></line><line x1="24.166666666666664" y1="0" x2="24.166666666666664" y2="5" style="visibility: inherit;" fill="rgb(0, 0, 0)" stroke="rgb(204, 204, 204)" stroke-width="1px"></line><line x1="48.33333333333333" y1="0" x2="48.33333333333333" y2="5" style="visibility: inherit;" fill="rgb(0, 0, 0)" stroke="rgb(204, 204, 204)" stroke-width="1px"></line><line x1="72.5" y1="0" x2="72.5" y2="5" style="visibility: inherit;" fill="rgb(0, 0, 0)" stroke="rgb(204, 204, 204)" stroke-width="1px"></line><line x1="96.66666666666666" y1="0" x2="96.66666666666666" y2="5" style="visibility: inherit;" fill="rgb(0, 0, 0)" stroke="rgb(204, 204, 204)" stroke-width="1px"></line><line x1="120.83333333333334" y1="0" x2="120.83333333333334" y2="5" style="visibility: inherit;" fill="rgb(0, 0, 0)" stroke="rgb(204, 204, 204)" stroke-width="1px"></line><line x1="145" y1="0" x2="145" y2="5" style="visibility: inherit;" fill="rgb(0, 0, 0)" stroke="rgb(204, 204, 204)" stroke-width="1px"></line><line x1="169.16666666666669" y1="0" x2="169.16666666666669" y2="5" style="visibility: inherit;" fill="rgb(0, 0, 0)" stroke="rgb(204, 204, 204)" stroke-width="1px"></line><line x1="193.33333333333331" y1="0" x2="193.33333333333331" y2="5" style="visibility: inherit;" fill="rgb(0, 0, 0)" stroke="rgb(204, 204, 204)" stroke-width="1px"></line><line x1="217.5" y1="0" x2="217.5" y2="5" style="visibility: inherit;" fill="rgb(0, 0, 0)" stroke="rgb(204, 204, 204)" stroke-width="1px"></line><line x1="241.66666666666669" y1="0" x2="241.66666666666669" y2="5" style="visibility: inherit;" fill="rgb(0, 0, 0)" stroke="rgb(204, 204, 204)" stroke-width="1px"></line><line x1="265.8333333333333" y1="0" x2="265.8333333333333" y2="5" style="visibility: inherit;" fill="rgb(0, 0, 0)" stroke="rgb(204, 204, 204)" stroke-width="1px"></line><line x1="290" y1="0" x2="290" y2="5" style="visibility: inherit;" fill="rgb(0, 0, 0)" stroke="rgb(204, 204, 204)" stroke-width="1px"></line></g><g transform="translate(0, 8)"><text x="0" y="0" dx="0em" dy="0.95em" style="text-anchor: middle; visibility: hidden; font-family: Roboto, sans-serif; font-size: 12px; font-weight: 200;" fill="rgb(33, 33, 33)" stroke="none" stroke-width="1px">-10</text><text x="24.166666666666664" y="0" dx="0em" dy="0.95em" style="text-anchor: middle; visibility: inherit; font-family: Roboto, sans-serif; font-size: 12px; font-weight: 200;" fill="rgb(33, 33, 33)" stroke="none" stroke-width="1px">0</text><text x="48.33333333333333" y="0" dx="0em" dy="0.95em" style="text-anchor: middle; visibility: inherit; font-family: Roboto, sans-serif; font-size: 12px; font-weight: 200;" fill="rgb(33, 33, 33)" stroke="none" stroke-width="1px">10</text><text x="72.5" y="0" dx="0em" dy="0.95em" style="text-anchor: middle; visibility: inherit; font-family: Roboto, sans-serif; font-size: 12px; font-weight: 200;" fill="rgb(33, 33, 33)" stroke="none" stroke-width="1px">20</text><text x="96.66666666666666" y="0" dx="0em" dy="0.95em" style="text-anchor: middle; visibility: inherit; font-family: Roboto, sans-serif; font-size: 12px; font-weight: 200;" fill="rgb(33, 33, 33)" stroke="none" stroke-width="1px">30</text><text x="120.83333333333334" y="0" dx="0em" dy="0.95em" style="text-anchor: middle; visibility: inherit; font-family: Roboto, sans-serif; font-size: 12px; font-weight: 200;" fill="rgb(33, 33, 33)" stroke="none" stroke-width="1px">40</text><text x="145" y="0" dx="0em" dy="0.95em" style="text-anchor: middle; visibility: inherit; font-family: Roboto, sans-serif; font-size: 12px; font-weight: 200;" fill="rgb(33, 33, 33)" stroke="none" stroke-width="1px">50</text><text x="169.16666666666669" y="0" dx="0em" dy="0.95em" style="text-anchor: middle; visibility: inherit; font-family: Roboto, sans-serif; font-size: 12px; font-weight: 200;" fill="rgb(33, 33, 33)" stroke="none" stroke-width="1px">60</text><text x="193.33333333333331" y="0" dx="0em" dy="0.95em" style="text-anchor: middle; visibility: inherit; font-family: Roboto, sans-serif; font-size: 12px; font-weight: 200;" fill="rgb(33, 33, 33)" stroke="none" stroke-width="1px">70</text><text x="217.5" y="0" dx="0em" dy="0.95em" style="text-anchor: middle; visibility: inherit; font-family: Roboto, sans-serif; font-size: 12px; font-weight: 200;" fill="rgb(33, 33, 33)" stroke="none" stroke-width="1px">80</text><text x="241.66666666666669" y="0" dx="0em" dy="0.95em" style="text-anchor: middle; visibility: inherit; font-family: Roboto, sans-serif; font-size: 12px; font-weight: 200;" fill="rgb(33, 33, 33)" stroke="none" stroke-width="1px">90</text><text x="265.8333333333333" y="0" dx="0em" dy="0.95em" style="text-anchor: middle; visibility: inherit; font-family: Roboto, sans-serif; font-size: 12px; font-weight: 200;" fill="rgb(33, 33, 33)" stroke="none" stroke-width="1px">100</text><text x="290" y="0" dx="0em" dy="0.95em" style="text-anchor: middle; visibility: hidden; font-family: Roboto, sans-serif; font-size: 12px; font-weight: 200;" fill="rgb(33, 33, 33)" stroke="none" stroke-width="1px">110</text></g><line x1="0" y1="0" x2="290" y2="0" fill="rgb(0, 0, 0)" stroke="rgb(204, 204, 204)" stroke-width="1px"></line></g></g></g></g></svg>